<?xml version="1.0" standalone="no"?>
<!DOCTYPE svg PUBLIC "-//W3C//DTD SVG 1.1//EN" "http://www.w3.org/Graphics/SVG/1.1/DTD/svg11.dtd" >
<svg xmlns="http://www.w3.org/2000/svg" xmlns:xlink="http://www.w3.org/1999/xlink" version="1.1">
<metadata>
Created by FontForge 20170731 at Fri Oct  8 16:18:06 2021
 By Aleksey,,,
Copyright (C) 2019 Hoefler &#38; Co. http://www.typography.com
</metadata>
<defs>
<font id="Decimal-Black" horiz-adv-x="888" >
  <font-face 
    font-family="Decimal Black"
    font-weight="425"
    font-stretch="normal"
    units-per-em="2048"
    panose-1="2 11 9 4 3 4 4 2 2 4"
    ascent="1638"
    descent="-410"
    x-height="1133"
    cap-height="1434"
    bbox="-451 -647 4037 2703"
    underline-thickness="0"
    underline-position="0"
    unicode-range="U+000D-1F6E1"
  />
<missing-glyph horiz-adv-x="921" 
d="M0 -369v1844h922v-1844h-922zM461 664l330 718h-660zM92 -139l318 692l-318 692v-1384zM829 -139v1384l-317 -692zM131 -276h660l-330 718z" />
    <glyph glyph-name=".notdef" horiz-adv-x="921" 
d="M0 -369v1844h922v-1844h-922zM461 664l330 718h-660zM92 -139l318 692l-318 692v-1384zM829 -139v1384l-317 -692zM131 -276h660l-330 718z" />
    <glyph glyph-name=".null" horiz-adv-x="0" 
 />
    <glyph glyph-name="uni000D" unicode="&#xd;" horiz-adv-x="485" 
 />
    <glyph glyph-name="space" unicode=" " horiz-adv-x="485" 
 />
    <glyph glyph-name="exclam" unicode="!" horiz-adv-x="866" 
d="M279 573l-107 822v39h520v-39l-104 -822h-309zM432 -23q-117 0 -184.5 64.5t-67.5 165.5v2q0 102 67.5 166.5t184.5 64.5t185.5 -64t68.5 -165v-2q0 -102 -68.5 -167t-185.5 -65z" />
    <glyph glyph-name="quotedbl" unicode="&#x22;" horiz-adv-x="1320" 
d="M180 750v684h445v-86l-226 -598h-219zM766 750v684h444v-86l-227 -598h-217z" />
    <glyph glyph-name="numbersign" unicode="#" horiz-adv-x="1959" 
d="M270 0l64 260h-215v295h289l77 324h-239v295h313l64 260h354l-64 -260h357l63 260h357l-64 -260h215v-295h-289l-77 -324h239v-295h-313l-64 -260h-356l63 260h-356l-63 -260h-355zM762 555h356l78 324h-356z" />
    <glyph glyph-name="dollar" unicode="$" horiz-adv-x="1484" 
d="M563 -246v275q-173 26 -389 110v361h2q160 -82 323 -125t289 -43q195 0 195 102q0 36 -23 56t-84.5 38t-199.5 45q-96 17 -166.5 36t-138 50.5t-110 73.5t-68 104t-25.5 142q0 154 105 266t302 152v252h379v-244q165 -21 338 -94v-357h-2q-115 67 -262.5 107.5
t-263.5 40.5q-195 0 -195 -101q0 -33 23 -52t84 -36t203 -45q95 -17 165 -36t137 -51.5t108.5 -75.5t67 -106.5t25.5 -145.5q0 -73 -24 -139.5t-74.5 -125t-137.5 -101t-204 -60.5v-242z" />
    <glyph glyph-name="percent" unicode="%" horiz-adv-x="2230" 
d="M518 659q-209 0 -325.5 105.5t-116.5 294.5q0 190 117.5 297.5t324.5 107.5q208 0 325.5 -106t117.5 -297q0 -187 -118.5 -294.5t-324.5 -107.5zM293 2l637 715l618 717h389v-2l-637 -715l-618 -717h-389v2zM518 907q66 0 102.5 39.5t36.5 112.5q0 76 -36 114.5
t-103 38.5t-104 -38.5t-37 -112.5t37 -114t104 -40zM1714 774q209 0 326 -105t117 -294q0 -191 -118 -298.5t-327 -107.5q-208 0 -325 106.5t-117 297.5q0 187 118.5 294t325.5 107zM1712 526q-66 0 -102.5 -39t-36.5 -112q0 -74 37 -114t104 -40q66 0 102.5 39t36.5 113
t-37 113.5t-104 39.5z" />
    <glyph glyph-name="ampersand" unicode="&#x26;" horiz-adv-x="1746" 
d="M565 -39q-221 0 -352.5 104.5t-132.5 288.5q0 156 107 275t329 241l-211 232v332h1073l17 -318h-617l430 -481l406 342l2 -2v-416l-199 -168l348 -391h-465l-155 170q-149 -102 -287 -155.5t-293 -53.5zM483 403q0 -51 37 -81.5t103 -30.5q127 0 307 127l-203 219
q-137 -76 -190.5 -127t-53.5 -107z" />
    <glyph glyph-name="quotesingle" unicode="'" horiz-adv-x="741" 
d="M180 750v684h451v-86l-228 -598h-223z" />
    <glyph glyph-name="parenleft" unicode="(" horiz-adv-x="983" 
d="M541 584q0 -251 109.5 -507t336.5 -499h-436q-215 220 -322.5 481.5t-107.5 524.5q0 260 107.5 521.5t322.5 483.5h436q-446 -482 -446 -1005z" />
    <glyph glyph-name="parenright" unicode=")" horiz-adv-x="983" 
d="M442 582q0 251 -109.5 506.5t-336.5 498.5h436q215 -220 322.5 -481t107.5 -524q0 -260 -107.5 -522t-322.5 -484h-436q446 482 446 1006z" />
    <glyph glyph-name="asterisk" unicode="*" horiz-adv-x="1177" 
d="M836 618l-197 84l-135 -159l-64 14l-57 205l-211 6l-29 57l127 174l-127 170l29 60l211 8l53 205l64 16l141 -162l195 86l51 -41l-39 -208l188 -101v-65l-190 -101l41 -207z" />
    <glyph glyph-name="plus" unicode="+" horiz-adv-x="1527" 
d="M166 547v342h416v420h364v-420h416v-342h-416v-420h-364v420h-416z" />
    <glyph glyph-name="comma" unicode="," horiz-adv-x="813" 
d="M121 -328l96 715h467v-86l-332 -629h-231z" />
    <glyph glyph-name="hyphen" unicode="-" horiz-adv-x="917" 
d="M96 485v363h723v-363h-723z" />
    <glyph glyph-name="period" unicode="." horiz-adv-x="845" 
d="M422 -23q-117 0 -184.5 64.5t-67.5 165.5v2q0 102 67.5 166.5t184.5 64.5t185.5 -64t68.5 -165v-2q0 -102 -68.5 -167t-185.5 -65z" />
    <glyph glyph-name="slash" unicode="/" horiz-adv-x="1218" 
d="M82 -422l678 2011h387l-678 -2011h-387z" />
    <glyph glyph-name="zero" unicode="0" horiz-adv-x="1595" 
d="M797 -41q-177 0 -314 55.5t-223.5 157t-131 238.5t-44.5 305t44.5 306t132 240t224.5 158t314 56q173 0 309.5 -55.5t224.5 -156t134 -238.5t46 -306t-46 -306.5t-134.5 -240t-225.5 -157.5t-310 -56zM799 313q301 0 301 404q0 195 -75.5 299t-227.5 104
q-301 0 -301 -403q0 -195 75.5 -299.5t227.5 -104.5z" />
    <glyph glyph-name="one" unicode="1" horiz-adv-x="987" 
d="M344 0v1102h-268l49 332h639v-1434h-420z" />
    <glyph glyph-name="two" unicode="2" horiz-adv-x="1396" 
d="M96 0v334l369 268q274 198 344 262t70 129q0 58 -43.5 92.5t-137.5 34.5q-253 0 -540 -209h-2v385q271 179 587 179q262 0 408.5 -117.5t146.5 -315.5q0 -51 -9.5 -95t-24.5 -82.5t-48 -78.5t-66.5 -74t-93.5 -80.5t-115.5 -86t-145.5 -101.5l-138 -98l654 2v-348h-1215z
" />
    <glyph glyph-name="three" unicode="3" horiz-adv-x="1417" 
d="M676 -41q-308 0 -567 98v369h2q125 -57 269 -91t255 -34q126 0 201 35t75 108q0 82 -105.5 115t-371.5 33h-45v190l393 308h-659l16 344h1133v-314l-383 -289q446 -61 446 -395q0 -148 -85 -257t-233.5 -164.5t-340.5 -55.5z" />
    <glyph glyph-name="four" unicode="4" horiz-adv-x="1589" 
d="M889 0v289h-817v297l463 848h747v-811h244l-17 -334h-227v-289h-393zM897 1106h-129l-264 -490h393v490z" />
    <glyph glyph-name="five" unicode="5" horiz-adv-x="1413" 
d="M696 -41q-306 0 -569 88v363h2q137 -50 283 -78.5t266 -28.5q71 0 122 14.5t76 38.5t35.5 47.5t10.5 49.5q0 42 -31 73q-35 35 -137 49.5t-338 14.5h-256l20 844h1057l16 -338h-710l-6 -197h41q264 0 417 -33.5t246 -128.5q105 -108 105 -288q0 -221 -176.5 -355.5
t-473.5 -134.5z" />
    <glyph glyph-name="six" unicode="6" horiz-adv-x="1468" 
d="M766 -41q-322 0 -502 183.5t-180 541.5q0 373 206 582t566 209q237 0 451 -86v-353h-2q-134 56 -222.5 79.5t-199.5 23.5q-364 0 -402 -308q168 110 402 107q114 -2 207 -29t164 -80.5t110 -139t39 -197.5q0 -163 -84 -285.5t-227.5 -185t-325.5 -62.5zM772 643
q-146 0 -293 -88q5 -74 30 -128t66 -83.5t89.5 -43t107.5 -13.5q107 0 175.5 50.5t68.5 141.5q0 88 -68 126t-176 38z" />
    <glyph glyph-name="seven" unicode="7" horiz-adv-x="1429" 
d="M84 866v568h1274v-445l-602 -989h-455l629 1030v70h-473v-234h-373z" />
    <glyph glyph-name="eight" unicode="8" horiz-adv-x="1536" 
d="M770 -49q-335 0 -507.5 110.5t-172.5 313.5q0 127 70 212t213 140q-248 96 -248 320q0 199 166 315.5t479 116.5q311 0 476 -116.5t165 -315.5q0 -117 -62.5 -195t-185.5 -125q143 -55 213 -140t70 -212q0 -203 -171 -313.5t-505 -110.5zM770 848q114 0 179 40.5
t65 119.5q0 76 -64 118.5t-180 42.5q-120 0 -184 -41.5t-64 -119.5q0 -80 66 -120t182 -40zM770 262q127 0 195.5 44t68.5 126q0 81 -69 122.5t-195 41.5q-130 0 -199 -41t-69 -123t69 -126t199 -44z" />
    <glyph glyph-name="nine" unicode="9" horiz-adv-x="1468" 
d="M702 1475q322 0 502 -183.5t180 -541.5q0 -373 -206 -582t-566 -209q-236 0 -450 86v352h2q133 -55 221.5 -78.5t200.5 -23.5q363 0 401 307q-167 -109 -401 -106q-114 2 -207 29t-164 80.5t-110 139t-39 197.5q0 163 84 285.5t227 185t325 62.5zM453 954
q0 -163 243 -163q146 0 293 88q-5 74 -30 128t-66 83.5t-89.5 43t-107.5 13.5q-107 0 -175 -51t-68 -142z" />
    <glyph glyph-name="colon" unicode=":" horiz-adv-x="864" 
d="M432 688q-119 0 -186.5 65t-67.5 167v2q0 102 67.5 165.5t186.5 63.5q118 0 186 -63.5t68 -165.5v-2q0 -102 -68.5 -167t-185.5 -65zM432 -23q-118 0 -186 64.5t-68 165.5v2q0 102 67.5 166.5t186.5 64.5q117 0 185.5 -64t68.5 -165v-2q0 -102 -68.5 -167t-185.5 -65z
" />
    <glyph glyph-name="semicolon" unicode=";" horiz-adv-x="864" 
d="M432 688q-119 0 -186.5 65t-67.5 167v2q0 102 67.5 165.5t186.5 63.5q118 0 186 -63.5t68 -165.5v-2q0 -102 -68.5 -167t-185.5 -65zM119 -328l96 715h467v-86l-332 -629h-231z" />
    <glyph glyph-name="less" unicode="&#x3c;" horiz-adv-x="1359" 
d="M1163 70l-1009 452v391l1009 451v-395l-569 -250l569 -254v-395z" />
    <glyph glyph-name="equal" unicode="=" horiz-adv-x="1529" 
d="M190 827v334h1149v-334h-1149zM190 274v334h1149v-334h-1149z" />
    <glyph glyph-name="greater" unicode="&#x3e;" horiz-adv-x="1359" 
d="M197 1364l1009 -453v-391l-1009 -450v395l569 250l-569 254v395z" />
    <glyph glyph-name="question" unicode="?" horiz-adv-x="1249" 
d="M109 1354q145 63 273.5 94t274.5 31q116 0 216 -23t179.5 -69t125 -123.5t45.5 -178.5q0 -97 -39.5 -175.5t-109.5 -136t-177 -103t-230.5 -76.5t-281.5 -55h-2v309q162 37 252.5 70.5t124 63.5t33.5 69q0 96 -187 96q-115 0 -246.5 -41t-248.5 -111h-2v359zM555 -23
q-118 0 -185 64.5t-67 165.5v2q0 103 66.5 167t185.5 64q117 0 185.5 -64t68.5 -165v-2q0 -102 -68.5 -167t-185.5 -65z" />
    <glyph glyph-name="at" unicode="@" horiz-adv-x="2283" 
d="M1681 246q-114 0 -197 33t-141 110q-139 -145 -323 -145q-135 0 -209 64t-74 171q0 98 68 166q119 122 483 146q-3 110 -137 110q-167 0 -334 -104v268q180 92 387 92q201 0 297 -90t96 -268v-197q0 -62 25 -90.5t78 -28.5q47 0 77.5 28t48 98.5t17.5 187.5
q0 128 -37.5 229.5t-114 176.5t-200.5 115t-291 40q-359 0 -547 -179.5t-188 -525.5q0 -321 178.5 -478t548.5 -157q167 0 304.5 31t275.5 88l-5 -289q-279 -108 -591 -108q-506 0 -765 233t-259 678q0 301 127.5 524t364.5 342t556 119q229 0 408 -58.5t295.5 -167
t176.5 -259.5t60 -338q0 -267 -114 -417t-345 -150zM1128 455q48 0 92.5 19t67.5 42v119q-182 -19 -231 -68q-19 -16 -19 -47q0 -30 24 -47.5t66 -17.5z" />
    <glyph glyph-name="A" unicode="A" horiz-adv-x="1769" 
d="M41 0l498 1434h692l498 -1434h-451l-100 297h-592l-103 -297h-442zM844 1069l-154 -451h385l-153 451h-78z" />
    <glyph glyph-name="B" unicode="B" horiz-adv-x="1671" 
d="M174 0v1434h903q227 0 353 -92.5t126 -268.5q0 -125 -56 -207t-185 -123q141 -57 206.5 -136t65.5 -204q0 -109 -40 -188t-114 -125.5t-170.5 -68t-218.5 -21.5h-870zM598 860h365q89 0 128 30t39 99q0 64 -40 93.5t-127 29.5h-365v-252zM598 324l385 2q94 0 135 32
t41 103q0 68 -41.5 100.5t-134.5 32.5h-385v-270z" />
    <glyph glyph-name="C" unicode="C" horiz-adv-x="1593" 
d="M907 -37q-197 0 -352.5 55.5t-256 155.5t-152.5 236t-52 301t57 304.5t162.5 240t262.5 157.5t348 57q309 0 544 -153v-404h-4q-145 95 -259 142t-253 47q-194 0 -309 -105.5t-115 -281.5q0 -174 113.5 -278.5t308.5 -104.5q146 0 267.5 47t246.5 141h4v-409
q-96 -61 -241 -104.5t-320 -43.5z" />
    <glyph glyph-name="D" unicode="D" horiz-adv-x="1761" 
d="M174 0v1434h772q339 0 530 -187t191 -530q0 -341 -191 -529t-530 -188h-772zM604 356h295q334 0 334 361q0 362 -334 362h-295v-723z" />
    <glyph glyph-name="E" unicode="E" horiz-adv-x="1570" 
d="M174 0v1434h1253l17 -349h-842v-196h662v-318h-662v-223h866l-16 -348h-1278z" />
    <glyph glyph-name="F" unicode="F" horiz-adv-x="1507" 
d="M174 0v1434h1233l16 -351h-819v-258h676v-329h-676v-496h-430z" />
    <glyph glyph-name="G" unicode="G" horiz-adv-x="1765" 
d="M911 -41q-192 0 -347 54t-258 151t-158.5 233t-55.5 299t59 304t168 247t276 167t372 61q156 0 301.5 -37.5t247.5 -100.5v-383h-3q-144 79 -266 118.5t-262 39.5q-218 0 -336.5 -111.5t-118.5 -308.5q0 -179 108.5 -283t311.5 -104q143 0 239 62t105 176h-436v303h828
q8 -94 8 -164q0 -148 -39.5 -269t-110 -204.5t-169 -140.5t-214.5 -83t-250 -26z" />
    <glyph glyph-name="H" unicode="H" horiz-adv-x="1820" 
d="M174 0v1434h430v-519h610v519h433v-1434h-433v551h-610v-551h-430z" />
    <glyph glyph-name="I" unicode="I" horiz-adv-x="782" 
d="M176 0v1434h432v-1434h-432z" />
    <glyph glyph-name="J" unicode="J" horiz-adv-x="1456" 
d="M649 -37q-295 0 -530 137v392h2q226 -158 469 -158q133 0 203.5 55t70.5 180v516h-512l17 349h925v-932q0 -273 -166 -406t-479 -133z" />
    <glyph glyph-name="K" unicode="K" horiz-adv-x="1728" 
d="M174 0v1434h430v-529h176l420 529h483l3 -2l-549 -687l579 -743l-2 -2h-502l-434 551h-174v-551h-430z" />
    <glyph glyph-name="L" unicode="L" horiz-adv-x="1433" 
d="M174 0v1434h430v-1063h760l-16 -371h-1174z" />
    <glyph glyph-name="M" unicode="M" horiz-adv-x="2107" 
d="M174 0v1434h504l381 -672l373 672h501v-1434h-417v848h-7l-446 -762h-25l-442 760h-6v-846h-416z" />
    <glyph glyph-name="N" unicode="N" horiz-adv-x="1826" 
d="M174 0v1434h447l616 -813h6v813h410v-1434h-432l-631 834h-6v-834h-410z" />
    <glyph glyph-name="O" unicode="O" horiz-adv-x="1826" 
d="M913 -43q-377 0 -598 205t-221 555t221 555t598 205t598.5 -205t221.5 -555t-221.5 -555t-598.5 -205zM911 322q186 0 290 104.5t104 290.5t-103 290.5t-289 104.5t-288.5 -104.5t-102.5 -290.5t102.5 -290.5t286.5 -104.5z" />
    <glyph glyph-name="P" unicode="P" horiz-adv-x="1626" 
d="M174 0v1434h846q261 0 400 -141.5t139 -393.5q0 -138 -42.5 -243.5t-119.5 -171t-180.5 -99t-229.5 -33.5h-383v-352h-430zM604 690h340q95 0 143 54.5t48 144.5q0 198 -195 198h-336v-397z" />
    <glyph glyph-name="Q" unicode="Q" horiz-adv-x="1857" 
d="M913 1477q377 0 598.5 -205t221.5 -555q0 -190 -80 -338l125 -82v-381h-2l-322 207q-212 -166 -541 -166q-377 0 -598 205t-221 555t221 555t598 205zM924 1112q-190 0 -296 -107.5t-106 -297.5q0 -189 106.5 -297.5t295.5 -108.5q119 0 206 41l-321 195l166 251
l338 -208q14 55 14 127q0 190 -106 297.5t-297 107.5z" />
    <glyph glyph-name="R" unicode="R" horiz-adv-x="1683" 
d="M174 0v1434h836q283 0 425 -130.5t142 -383.5q0 -347 -279 -459l340 -461h-487l-264 377h-283v-377h-430zM604 713h350q195 0 195 188q0 186 -195 186h-350v-374z" />
    <glyph glyph-name="S" unicode="S" horiz-adv-x="1552" 
d="M799 -39q-178 0 -334 33.5t-324 99.5v393h2q357 -180 676 -180q232 0 232 109q0 23 -9 38t-28 28t-63.5 24t-102 22t-156.5 27q-107 17 -188 38.5t-153.5 56.5t-118.5 81.5t-72.5 113.5t-26.5 152q0 102 44.5 188t130 150.5t219 101t302.5 36.5q286 0 555 -115v-389
l-2 -2q-127 73 -285.5 116t-297.5 43q-230 0 -230 -104q0 -28 15.5 -46.5t52 -31.5t87 -23t130.5 -23q14 -2 22.5 -3.5t21.5 -3.5t24 -4q108 -18 188 -40t153 -57.5t118.5 -83t72.5 -116.5t27 -158q0 -74 -22 -140t-73 -127.5t-128 -106t-194.5 -71t-264.5 -26.5z" />
    <glyph glyph-name="T" unicode="T" horiz-adv-x="1566" 
d="M567 0v1065h-501l16 369h1403l16 -369h-502v-1065h-432z" />
    <glyph glyph-name="U" unicode="U" horiz-adv-x="1779" 
d="M887 -45q-725 0 -725 608v871h430v-838q0 -260 297 -260q299 0 299 254v844h430v-867q0 -612 -731 -612z" />
    <glyph glyph-name="V" unicode="V" horiz-adv-x="1732" 
d="M526 0l-487 1434h467l336 -1041h55l336 1041h461l-486 -1434h-682z" />
    <glyph glyph-name="W" unicode="W" horiz-adv-x="2551" 
d="M442 0l-379 1434h459l234 -996h22l303 996h420l297 -996h23l229 996h438l-377 -1434h-563l-262 864h-12l-266 -864h-566z" />
    <glyph glyph-name="X" unicode="X" horiz-adv-x="1759" 
d="M522 0h-506v2l588 735l-553 695v2h514l320 -414l319 414h506v-2l-551 -693l586 -737v-2h-516l-352 457z" />
    <glyph glyph-name="Y" unicode="Y" horiz-adv-x="1685" 
d="M627 0v459l-629 975h483l355 -572h20l358 572h472l-627 -973v-461h-432z" />
    <glyph glyph-name="Z" unicode="Z" horiz-adv-x="1601" 
d="M127 0v362l776 717h-756l17 355h1313v-334l-809 -744h813v-356h-1354z" />
    <glyph glyph-name="bracketleft" unicode="[" horiz-adv-x="987" 
d="M135 -422v2011h768v-313h-385v-1385h385v-313h-768z" />
    <glyph glyph-name="backslash" unicode="\" horiz-adv-x="1220" 
d="M1139 -422h-389l-678 2011h391z" />
    <glyph glyph-name="bracketright" unicode="]" horiz-adv-x="987" 
d="M852 1587v-2011h-768v313h385v1385h-385v313h768z" />
    <glyph glyph-name="asciicircum" unicode="^" horiz-adv-x="1525" 
d="M113 684l370 750h553l377 -750h-414l-200 401h-80l-195 -401h-411z" />
    <glyph glyph-name="underscore" unicode="_" horiz-adv-x="1458" 
d="M-12 -406v273h1482v-273h-1482z" />
    <glyph glyph-name="grave" unicode="`" horiz-adv-x="1024" 
d="M825 1282h-358l-361 336v29h465z" />
    <glyph glyph-name="a" unicode="a" horiz-adv-x="1316" 
d="M444 -35q-179 0 -275.5 84t-96.5 227q0 130 86 216q159 159 639 190q-2 77 -45 115.5t-140 38.5q-101 0 -214.5 -35.5t-219.5 -100.5h-2v351q236 118 506 118q264 0 390 -118.5t126 -352.5v-698h-381l-6 125q-154 -160 -367 -160zM586 242q65 0 122.5 24.5t88.5 55.5v161
q-252 -28 -312 -88q-26 -26 -26 -63q0 -41 33.5 -65.5t93.5 -24.5z" />
    <glyph glyph-name="b" unicode="b" horiz-adv-x="1488" 
d="M559 1589v-588q131 166 348 166q223 0 364.5 -153t141.5 -406q0 -291 -180 -467t-471 -176q-175 0 -348 72h-273v1552h418zM762 840q-110 0 -203 -60v-450q91 -43 174 -43q114 0 188 77t74 218q0 123 -64 190.5t-169 67.5z" />
    <glyph glyph-name="c" unicode="c" horiz-adv-x="1234" 
d="M737 -39q-195 0 -343 67.5t-233 201.5t-85 319q0 180 84.5 321.5t236 220t342.5 78.5q239 0 396 -104v-352h-2q-161 118 -345 118q-130 0 -212 -74t-82 -198q0 -121 81 -189.5t211 -68.5q187 0 347 117h2v-352q-171 -105 -398 -105z" />
    <glyph glyph-name="d" unicode="d" horiz-adv-x="1490" 
d="M1350 1589v-1589h-406l-4 150q-138 -187 -365 -187q-223 0 -361 154.5t-138 414.5q0 186 79 330.5t215 222.5t304 78q144 0 258 -57v483h418zM754 840q-118 0 -189 -74.5t-71 -208.5q0 -126 65 -196t172 -70q113 0 201 71v424q-87 54 -178 54z" />
    <glyph glyph-name="e" unicode="e" horiz-adv-x="1361" 
d="M709 1174q141 0 252 -44t182 -123t108 -185.5t37 -235.5q0 -41 -8 -119h-793q21 -100 99.5 -145.5t214.5 -45.5q96 0 207.5 30.5t203.5 78.5h2v-317q-216 -107 -466 -107q-321 0 -496.5 153.5t-175.5 428.5q0 279 175 455t458 176zM709 870q-179 0 -220 -200h435
q-9 91 -65.5 145.5t-149.5 54.5z" />
    <glyph glyph-name="f" unicode="f" horiz-adv-x="999" 
d="M262 0v821h-229l55 312h174q0 114 25 201t79 152.5t145.5 99.5t219.5 34q109 0 215 -29v-301h-2q-68 21 -129 21q-76 0 -109.5 -36.5t-33.5 -119.5v-22h293v-312h-293v-821h-410z" />
    <glyph glyph-name="g" unicode="g" horiz-adv-x="1304" 
d="M653 344q-50 0 -75 2l-15 -94q275 -23 439.5 -70t235.5 -117.5t71 -175.5q0 -51 -18.5 -99.5t-66.5 -97.5t-120.5 -85t-190 -59t-266.5 -23q-308 0 -467.5 80.5t-159.5 214.5q0 72 49 130.5t164 110.5l72 347q-219 104 -219 329q0 196 153.5 313t409.5 117q82 0 154 -16
l98 188h416v-28l-262 -267q164 -108 164 -294q0 -191 -153.5 -298.5t-412.5 -107.5zM655 590q81 0 131 42.5t50 121.5q0 76 -49.5 118.5t-131.5 42.5q-83 0 -133.5 -43t-50.5 -120q0 -79 49.5 -120.5t134.5 -41.5zM690 -233q119 0 187.5 25.5t68.5 64.5q0 28 -53 52
t-185.5 44t-332.5 29q-41 -38 -41 -74q0 -50 51.5 -82.5t128.5 -45.5t176 -13z" />
    <glyph glyph-name="h" unicode="h" horiz-adv-x="1462" 
d="M137 0v1589h418v-620q85 100 179 151t218 51q179 0 281 -107t102 -302v-762h-420v651q0 166 -145 166q-108 0 -213 -88v-729h-420z" />
    <glyph glyph-name="i" unicode="i" horiz-adv-x="698" 
d="M350 1262q-120 0 -184 54.5t-64 145.5v2q0 92 64 146.5t184 54.5q119 0 182.5 -54.5t63.5 -146.5v-2q0 -90 -64 -145t-182 -55zM139 0v1133h420v-1133h-420z" />
    <glyph glyph-name="j" unicode="j" horiz-adv-x="727" 
d="M377 1262q-118 0 -182 55t-64 145v2q0 92 63.5 146.5t182.5 54.5q120 0 184 -54.5t64 -146.5v-2q0 -91 -64 -145.5t-184 -54.5zM158 -471q-146 0 -256 41v307h2q80 -27 139 -27q65 0 95 34t30 104v1145h420v-1164q0 -440 -430 -440z" />
    <glyph glyph-name="k" unicode="k" horiz-adv-x="1419" 
d="M137 0v1589h420v-860h115l254 404h465v-3l-357 -534l387 -594v-2h-477l-266 428h-121v-428h-420z" />
    <glyph glyph-name="l" unicode="l" horiz-adv-x="698" 
d="M139 0v1589h420v-1589h-420z" />
    <glyph glyph-name="m" unicode="m" horiz-adv-x="2191" 
d="M137 0v1133h414l4 -170q82 102 175 155t210 53q122 0 210.5 -57t129.5 -164q104 115 199 168t215 53q170 0 269 -107.5t99 -301.5v-762h-417v651q0 166 -136 166q-96 0 -198 -88v-729h-420v651q0 166 -133 166q-96 0 -201 -88v-729h-420z" />
    <glyph glyph-name="n" unicode="n" horiz-adv-x="1462" 
d="M137 0v1133h414l2 -164q85 100 179.5 151t219.5 51q179 0 281 -107t102 -302v-762h-420v651q0 166 -145 166q-108 0 -213 -88v-729h-420z" />
    <glyph glyph-name="o" unicode="o" horiz-adv-x="1447" 
d="M723 -41q-298 0 -472.5 167.5t-174.5 438.5q0 272 174.5 440.5t472.5 168.5t473.5 -168.5t175.5 -440.5q0 -271 -175.5 -438.5t-473.5 -167.5zM723 283q113 0 177.5 76t64.5 206t-64.5 206.5t-177.5 76.5q-112 0 -176 -76.5t-64 -206.5t64 -206t176 -76z" />
    <glyph glyph-name="p" unicode="p" horiz-adv-x="1488" 
d="M137 -426v1559h408l4 -150q137 186 364 186q223 0 361.5 -155t138.5 -414q0 -140 -46 -259t-126.5 -200t-190.5 -126.5t-237 -45.5q-144 0 -256 56v-451h-420zM735 291q118 0 189 74.5t71 207.5q0 127 -65 197t-172 70q-111 0 -201 -70v-424q83 -55 178 -55z" />
    <glyph glyph-name="q" unicode="q" horiz-adv-x="1486" 
d="M930 -426v555q-131 -166 -348 -166q-223 0 -364.5 153t-141.5 408q0 290 180 465.5t471 175.5q179 0 350 -71h271v-1520h-418zM727 293q112 0 203 59v449q-88 45 -174 45q-114 0 -188 -77t-74 -218q0 -124 63.5 -191t169.5 -67z" />
    <glyph glyph-name="r" unicode="r" horiz-adv-x="962" 
d="M137 0v1133h418v-207q65 107 147.5 170t174.5 63q25 0 45 -2v-422q-33 6 -88 6q-204 0 -277 -112v-629h-420z" />
    <glyph glyph-name="s" unicode="s" horiz-adv-x="1222" 
d="M625 -39q-275 0 -506 117v334h2q121 -75 259 -116.5t259 -41.5q139 0 139 72q0 23 -13 35.5t-61.5 28.5t-152.5 38q-122 25 -199 51.5t-134.5 67t-82 98t-24.5 139.5q0 182 144.5 283.5t383.5 101.5q118 0 243 -29t197 -71v-321h-2q-96 58 -219.5 93.5t-224.5 35.5
q-70 0 -101.5 -16t-31.5 -50q0 -22 15.5 -35t66.5 -29t166 -42q229 -49 319 -129t90 -230q0 -184 -137 -284.5t-395 -100.5z" />
    <glyph glyph-name="t" unicode="t" horiz-adv-x="974" 
d="M276 0v821h-241l55 312h186v258l414 49v-307h244v-312h-244v-821h-414z" />
    <glyph glyph-name="u" unicode="u" horiz-adv-x="1462" 
d="M1325 1133v-1133h-414l-2 164q-85 -100 -180 -151.5t-219 -51.5q-179 0 -280 106.5t-101 301.5v764h418v-654q0 -164 147 -164q113 0 211 88v730h420z" />
    <glyph glyph-name="v" unicode="v" horiz-adv-x="1376" 
d="M395 0l-377 1133h433l227 -775h29l225 775h426l-379 -1133h-584z" />
    <glyph glyph-name="w" unicode="w" horiz-adv-x="2105" 
d="M360 0l-323 1133h432l168 -725h27l190 718h414l190 -718h29l170 725h411l-325 -1133h-506l-168 643h-29l-174 -643h-506z" />
    <glyph glyph-name="x" unicode="x" horiz-adv-x="1374" 
d="M6 0l-2 2l430 584l-405 544l2 3h452l215 -293l209 293h439l2 -3l-408 -550l428 -578v-2h-453l-237 326l-234 -326h-438z" />
    <glyph glyph-name="y" unicode="y" horiz-adv-x="1359" 
d="M360 -426l136 375l-473 1184h417l260 -709l240 709h410l-592 -1559h-398z" />
    <glyph glyph-name="z" unicode="z" horiz-adv-x="1265" 
d="M109 0v295l553 516h-547l20 322h1032v-289l-565 -522h565v-322h-1058z" />
    <glyph glyph-name="braceleft" unicode="{" horiz-adv-x="1177" 
d="M25 553v61l329 314l-14 121q-18 144 13 256.5t102.5 182t172.5 105t228 35.5q142 0 248 -35v-323h-2q-74 30 -164 30q-122 0 -183 -76.5t-38 -240.5l24 -180l-270 -219l270 -219l-24 -181q-23 -164 38 -239.5t183 -75.5q88 0 164 31h2v-328q-116 -35 -248 -35
q-126 0 -227.5 36t-173 106t-102.5 182t-13 256l14 123z" />
    <glyph glyph-name="bar" unicode="|" horiz-adv-x="1140" 
d="M381 -422v2011h379v-2011h-379z" />
    <glyph glyph-name="braceright" unicode="}" horiz-adv-x="1177" 
d="M1153 604v-61l-330 -314l15 -120q18 -144 -13 -256.5t-102.5 -182.5t-173 -105.5t-227.5 -35.5q-142 0 -248 35v323h2q73 -30 164 -30q122 0 183 76.5t38 240.5l-25 180l271 219l-271 220l25 180q23 164 -37.5 239.5t-183.5 75.5q-88 0 -164 -31h-2v328q116 35 248 35
q126 0 227.5 -36t173 -106t102.5 -182t13 -256l-15 -122z" />
    <glyph glyph-name="asciitilde" unicode="~" horiz-adv-x="1548" 
d="M162 840q159 176 340 176q89 0 159.5 -27.5t180.5 -91.5q79 -46 122 -62t93 -16q80 0 152.5 54.5t172.5 170.5h2v-448q-159 -176 -337 -176q-62 0 -123 17.5t-101.5 37.5t-117.5 64q-79 46 -121 61.5t-92 15.5q-81 0 -153 -54t-175 -171h-2v449z" />
    <glyph glyph-name="uni00A0" unicode="&#xa0;" horiz-adv-x="485" 
 />
    <glyph glyph-name="exclamdown" unicode="&#xa1;" horiz-adv-x="866" 
d="M434 1174q117 0 184.5 -65t67.5 -167v-2q0 -102 -67 -165.5t-185 -63.5q-119 0 -187.5 63.5t-68.5 165.5v2q0 102 68.5 167t187.5 65zM588 578l104 -824v-37h-520v37l107 824h309z" />
    <glyph glyph-name="cent" unicode="&#xa2;" horiz-adv-x="1234" 
d="M498 -86v283q-181 52 -285 184.5t-104 323.5t108 329t291 191v252h371v-238q120 -20 223 -84v-324h-2q-159 111 -328 111q-123 0 -200.5 -64t-77.5 -173q0 -106 78 -166t208 -60q161 0 320 111h2v-324q-103 -65 -234 -86v-235z" />
    <glyph glyph-name="sterling" unicode="&#xa3;" horiz-adv-x="1482" 
d="M106 588l48 282h231q49 158 105 267t133 187t179 114.5t236 36.5q153 0 289 -62v-336h-2q-130 62 -242 62q-111 0 -176.5 -60.5t-109.5 -208.5h475v-282h-555l-70 -254h717v-334h-1231l170 588h-197z" />
    <glyph glyph-name="yen" unicode="&#xa5;" horiz-adv-x="1710" 
d="M172 272l12 254h451l-70 121h-375l11 252h221l-307 535h440l295 -545h16l299 545h430l-307 -535h219l13 -252h-377l-70 -121h453l10 -254h-473v-272h-418v272h-473z" />
    <glyph glyph-name="section" unicode="&#xa7;" horiz-adv-x="1667" 
d="M721 -449q-148 0 -285.5 32t-240.5 89v336h2q115 -64 253.5 -104.5t272.5 -40.5q196 0 309 69q-445 94 -678 324q-200 200 -200 504q0 156 55 288t158 227.5t258.5 149.5t347.5 54q260 0 459 -97v-335h-2q-204 118 -459 118q-197 0 -312 -67q446 -95 674 -326
q203 -203 203 -502q0 -157 -55.5 -289t-158 -227.5t-257 -149t-344.5 -53.5zM670 446q173 -173 506 -266q2 18 2 56q0 188 -158 346q-174 174 -508 268q-2 -16 -2 -55q0 -193 160 -349z" />
    <glyph glyph-name="dieresis" unicode="&#xa8;" horiz-adv-x="1024" 
d="M238 1262q-96 0 -152.5 53.5t-56.5 140.5t56.5 141t152.5 54q97 0 152.5 -53.5t55.5 -141.5t-55.5 -141t-152.5 -53zM788 1262q-96 0 -152 53.5t-56 140.5t56 141t152 54q97 0 153 -53.5t56 -141.5q0 -87 -56 -140.5t-153 -53.5z" />
    <glyph glyph-name="copyright" unicode="&#xa9;" horiz-adv-x="2019" 
d="M1010 -127q-276 0 -485.5 103.5t-325 296.5t-115.5 450q0 256 115.5 448.5t325 296t485.5 103.5q275 0 484 -103.5t324 -296t115 -448.5q0 -257 -115 -450t-324 -296.5t-484 -103.5zM1010 115q302 0 470.5 158t168.5 450q0 291 -168.5 448.5t-470.5 157.5t-470.5 -157.5
t-168.5 -448.5q0 -292 168.5 -450t470.5 -158zM1051 338q-203 0 -315.5 104t-112.5 283q0 175 117.5 281t314.5 106q160 0 280 -74v-231h-2q-127 80 -243 80q-88 0 -141.5 -44t-53.5 -116q0 -78 50 -121t142 -43q117 0 246 82h2v-235q-120 -72 -284 -72z" />
    <glyph glyph-name="ordfeminine" unicode="&#xaa;" horiz-adv-x="1130" 
d="M371 498q-143 0 -221 67.5t-78 182.5q0 108 71 176q131 131 523 155q-3 57 -37.5 82t-106.5 25q-86 0 -183.5 -28t-182.5 -79h-2v295q198 94 419 94q222 0 326.5 -95t104.5 -286v-561h-322l-4 111q-130 -139 -307 -139zM494 733q97 0 172 70v112q-197 -19 -244 -69
q-21 -21 -21 -47q0 -32 25 -49t68 -17z" />
    <glyph glyph-name="guillemotleft" unicode="&#xab;" horiz-adv-x="1622" 
d="M854 1051l-371 -486l371 -483h-428l-360 467v35l360 467h428zM1534 1051l-371 -486l371 -483h-426l-363 467v35l363 467h426z" />
    <glyph glyph-name="uni00AD" unicode="&#xad;" horiz-adv-x="0" 
 />
    <glyph glyph-name="registered" unicode="&#xae;" horiz-adv-x="1501" 
d="M750 348q-301 0 -483.5 167t-182.5 448q0 280 182.5 445t483.5 165t485 -165.5t184 -444.5q0 -281 -184 -448t-485 -167zM750 545q209 0 324.5 108t115.5 310q0 201 -115.5 308t-324.5 107q-208 0 -323.5 -107t-115.5 -308q0 -202 115.5 -310t323.5 -108zM496 713v518
h313q227 0 227 -199q0 -113 -86 -158l107 -139v-22h-209l-86 129h-74v-129h-192zM688 973h90q68 0 68 55q0 57 -68 57h-90v-112z" />
    <glyph glyph-name="macron" unicode="&#xaf;" horiz-adv-x="1024" 
d="M88 1313v272h848v-272h-848z" />
    <glyph glyph-name="degree" unicode="&#xb0;" horiz-adv-x="1193" 
d="M596 547q-229 0 -365.5 124.5t-136.5 336.5t136.5 336t365.5 124q231 0 366.5 -124t135.5 -336t-136 -336.5t-366 -124.5zM596 813q91 0 140.5 52t49.5 143q0 90 -49.5 142t-140.5 52q-90 0 -139 -52t-49 -142t49 -142.5t139 -52.5z" />
    <glyph glyph-name="plusminus" unicode="&#xb1;" horiz-adv-x="1486" 
d="M211 782v324h350v328h365v-328h352v-324h-352v-329h-365v329h-350zM211 0v315h1067v-315h-1067z" />
    <glyph glyph-name="two.sup" unicode="&#xb2;" horiz-adv-x="970" 
d="M127 731v232l197 143q110 75 162.5 117t63.5 58t11 34q0 49 -90 49q-62 0 -143 -28t-164 -81h-2v267q179 96 360 96q163 0 251.5 -66.5t88.5 -189.5q0 -52 -16 -93.5t-58.5 -85t-94.5 -82.5t-144 -100l-43 -30h348v-240h-727z" />
    <glyph glyph-name="three.sup" unicode="&#xb3;" horiz-adv-x="970" 
d="M469 700q-171 0 -332 52v245h2q181 -55 307 -55q77 0 111.5 15t34.5 49q0 26 -19 39.5t-75 20.5t-164 7h-35v125l229 154h-387l6 235h687v-217l-216 -145q127 -15 194 -74t67 -162q0 -138 -112.5 -213.5t-297.5 -75.5z" />
    <glyph glyph-name="acute" unicode="&#xb4;" horiz-adv-x="1024" 
d="M203 1282l254 365h463v-29l-361 -336h-356z" />
    <glyph glyph-name="paragraph" unicode="&#xb6;" horiz-adv-x="1816" 
d="M1219 0v1096h-256v-768h-78q-148 0 -260.5 14t-208.5 49.5t-156.5 93.5t-94.5 148t-34 211q0 305 181 447.5t542 142.5h748v-1434h-383z" />
    <glyph glyph-name="periodcentered" unicode="&#xb7;" horiz-adv-x="845" 
d="M422 459q-117 0 -184.5 64t-67.5 165v2q0 102 67.5 167t184.5 65t185.5 -64.5t68.5 -165.5v-2q0 -102 -68 -166.5t-186 -64.5z" />
    <glyph glyph-name="cedilla" unicode="&#xb8;" horiz-adv-x="1024" 
d="M82 -393v37l324 356h325l-174 -393h-475z" />
    <glyph glyph-name="one.sup" unicode="&#xb9;" horiz-adv-x="749" 
d="M262 731v617h-182l37 239h448v-856h-303z" />
    <glyph glyph-name="ordmasculine" unicode="&#xba;" horiz-adv-x="1206" 
d="M602 492q-248 0 -391 134.5t-143 354.5q0 221 142.5 355t391.5 134t393 -134t144 -355q0 -220 -144 -354.5t-393 -134.5zM602 766q91 0 140 57.5t49 157.5q0 99 -49 157t-140 58q-90 0 -138 -58t-48 -157q0 -100 47.5 -157.5t138.5 -57.5z" />
    <glyph glyph-name="guillemotright" unicode="&#xbb;" horiz-adv-x="1622" 
d="M768 82l371 485l-371 484h428l360 -467v-35l-360 -467h-428zM88 82l371 485l-371 484h426l363 -467v-35l-363 -467h-426z" />
    <glyph glyph-name="onequarter" unicode="&#xbc;" horiz-adv-x="2072" 
d="M262 578v616h-182l37 240h448v-856h-303zM272 2l1059 1432h291v-2l-1059 -1432h-291v2zM1634 0v154h-465v213l205 489h535v-477h110l-14 -225h-96v-154h-275zM1444 371h203v264h-99z" />
    <glyph glyph-name="onehalf" unicode="&#xbd;" horiz-adv-x="2105" 
d="M262 578v616h-182l37 240h448v-856h-303zM272 2l1059 1432h291v-2l-1059 -1432h-291v2zM1262 0v231l196 144q110 76 162.5 117.5t64 57.5t11.5 34q0 49 -90 49q-62 0 -144 -28t-164 -81h-2v267q179 96 361 96q163 0 251.5 -66.5t88.5 -189.5q0 -99 -66.5 -170.5
t-247.5 -190.5l-43 -30h349v-240h-727z" />
    <glyph glyph-name="threequarters" unicode="&#xbe;" horiz-adv-x="2279" 
d="M469 547q-174 0 -332 51v246h2q184 -56 307 -56q77 0 111.5 15t34.5 49q0 39 -50.5 53.5t-207.5 14.5h-35v124l229 154h-387l6 236h687v-217l-216 -146q261 -31 261 -235q0 -138 -112.5 -213.5t-297.5 -75.5zM479 2l1059 1432h291v-2l-1059 -1432h-291v2zM1841 0v154
h-465v213l205 489h535v-477h110l-14 -225h-96v-154h-275zM1651 371h202v264h-98z" />
    <glyph glyph-name="questiondown" unicode="&#xbf;" horiz-adv-x="1249" 
d="M694 1174q119 0 186.5 -65t67.5 -167v-2q0 -102 -67.5 -165.5t-186.5 -63.5q-118 0 -186 63.5t-68 165.5v2q0 102 68.5 167t185.5 65zM1141 -203q-146 -63 -275 -95t-274 -32q-116 0 -215.5 23t-179 69t-125 124t-45.5 180q0 97 39.5 175.5t109.5 136t177 103t230 76.5
t281 55h2v-311q-162 -36 -252 -69t-123.5 -63t-33.5 -69q0 -98 186 -98q116 0 246.5 42t249.5 112h2v-359z" />
    <glyph glyph-name="Agrave" unicode="&#xc0;" horiz-adv-x="1769" 
d="M1128 1583h-358l-360 336v29h464zM41 0l498 1434h692l498 -1434h-451l-100 297h-592l-103 -297h-442zM844 1069l-154 -451h385l-153 451h-78z" />
    <glyph glyph-name="Aacute" unicode="&#xc1;" horiz-adv-x="1769" 
d="M645 1583l254 365h463v-29l-361 -336h-356zM41 0l498 1434h692l498 -1434h-451l-100 297h-592l-103 -297h-442zM844 1069l-154 -451h385l-153 451h-78z" />
    <glyph glyph-name="Acircumflex" unicode="&#xc2;" horiz-adv-x="1769" 
d="M379 1579l268 399h475l269 -399h-357l-112 162h-76l-113 -162h-354zM41 0l498 1434h692l498 -1434h-451l-100 297h-592l-103 -297h-442zM844 1069l-154 -451h385l-153 451h-78z" />
    <glyph glyph-name="Atilde" unicode="&#xc3;" horiz-adv-x="1769" 
d="M702 1970q57 0 104.5 -14.5t129.5 -52.5q66 -29 95 -38.5t56 -9.5q55 0 105 32t115 108h2v-316q-108 -112 -242 -112q-58 0 -105.5 14t-127.5 51q-102 47 -152 47q-56 0 -106 -31t-115 -106h-2v313q115 115 243 115zM41 0l498 1434h692l498 -1434h-451l-100 297h-592
l-103 -297h-442zM844 1069l-154 -451h385l-153 451h-78z" />
    <glyph glyph-name="Adieresis" unicode="&#xc4;" horiz-adv-x="1769" 
d="M610 1563q-96 0 -152.5 53.5t-56.5 140.5t56.5 141t152.5 54q97 0 153 -53.5t56 -141.5q0 -87 -56 -140.5t-153 -53.5zM1161 1563q-96 0 -152.5 53.5t-56.5 140.5t56.5 141t152.5 54q97 0 153 -53.5t56 -141.5q0 -87 -56 -140.5t-153 -53.5zM41 0l498 1434h692l498 -1434
h-451l-100 297h-592l-103 -297h-442zM844 1069l-154 -451h385l-153 451h-78z" />
    <glyph glyph-name="Aring" unicode="&#xc5;" horiz-adv-x="1769" 
d="M881 1563q-181 0 -284 84.5t-103 240.5q0 159 103.5 245.5t285.5 86.5q184 0 288.5 -85.5t104.5 -244.5q0 -156 -106 -241.5t-289 -85.5zM883 1772q67 0 104 30t37 88q0 60 -37.5 91.5t-105.5 31.5q-66 0 -104 -31.5t-38 -91.5q0 -57 38.5 -87.5t105.5 -30.5zM41 0
l498 1434h692l498 -1434h-451l-100 297h-592l-103 -297h-442zM844 1069l-154 -451h385l-153 451h-78z" />
    <glyph glyph-name="AE" unicode="&#xc6;" horiz-adv-x="2607" 
d="M1210 0v297h-557l-166 -297h-481l821 1434h1635l16 -349h-842v-196h664v-318h-664v-223h869l-17 -348h-1278zM1085 1079l-256 -463h381v463h-125z" />
    <glyph glyph-name="Ccedilla" unicode="&#xc7;" horiz-adv-x="1593" 
d="M401 -397v37l308 340q-298 50 -456.5 245t-158.5 486q0 165 57 304.5t162.5 240t262.5 157.5t348 57q309 0 544 -153v-404h-4q-145 95 -259 142t-253 47q-194 0 -309 -105.5t-115 -281.5q0 -174 113.5 -278.5t308.5 -104.5q146 0 267.5 47t246.5 141h4v-409
q-172 -111 -430 -142l-161 -366h-476z" />
    <glyph glyph-name="Egrave" unicode="&#xc8;" horiz-adv-x="1570" 
d="M1059 1583h-359l-360 336v29h465zM174 0v1434h1253l17 -349h-842v-196h662v-318h-662v-223h866l-16 -348h-1278z" />
    <glyph glyph-name="Eacute" unicode="&#xc9;" horiz-adv-x="1570" 
d="M573 1583l254 365h463v-29l-360 -336h-357zM174 0v1434h1253l17 -349h-842v-196h662v-318h-662v-223h866l-16 -348h-1278z" />
    <glyph glyph-name="Ecircumflex" unicode="&#xca;" horiz-adv-x="1570" 
d="M307 1579l268 399h476l268 -399h-356l-113 162h-76l-112 -162h-355zM174 0v1434h1253l17 -349h-842v-196h662v-318h-662v-223h866l-16 -348h-1278z" />
    <glyph glyph-name="Edieresis" unicode="&#xcb;" horiz-adv-x="1570" 
d="M539 1563q-96 0 -152.5 53.5t-56.5 140.5t56.5 141t152.5 54q97 0 153 -53.5t56 -141.5q0 -87 -56 -140.5t-153 -53.5zM1090 1563q-96 0 -152.5 53.5t-56.5 140.5t56.5 141t152.5 54q97 0 152.5 -53.5t55.5 -141.5t-55.5 -141t-152.5 -53zM174 0v1434h1253l17 -349h-842
v-196h662v-318h-662v-223h866l-16 -348h-1278z" />
    <glyph glyph-name="Igrave" unicode="&#xcc;" horiz-adv-x="782" 
d="M571 1583h-358l-360 336v29h464zM176 0v1434h432v-1434h-432z" />
    <glyph glyph-name="Iacute" unicode="&#xcd;" horiz-adv-x="782" 
d="M215 1583l254 365h463v-29l-361 -336h-356zM176 0v1434h432v-1434h-432z" />
    <glyph glyph-name="Icircumflex" unicode="&#xce;" horiz-adv-x="782" 
d="M-115 1579l269 399h475l268 -399h-356l-113 162h-76l-112 -162h-355zM176 0v1434h432v-1434h-432z" />
    <glyph glyph-name="Idieresis" unicode="&#xcf;" horiz-adv-x="782" 
d="M117 1563q-96 0 -152.5 53.5t-56.5 140.5t56.5 141t152.5 54q97 0 153 -53.5t56 -141.5q0 -87 -56 -140.5t-153 -53.5zM668 1563q-96 0 -152.5 53.5t-56.5 140.5t56.5 141t152.5 54q97 0 153 -53.5t56 -141.5q0 -87 -56 -140.5t-153 -53.5zM176 0v1434h432v-1434h-432z
" />
    <glyph glyph-name="Eth" unicode="&#xd0;" horiz-adv-x="1857" 
d="M270 0v569h-202l22 301h180v564h774q339 0 529 -187t190 -530q0 -341 -190.5 -529t-528.5 -188h-774zM700 352h297q332 0 332 365q0 364 -332 364h-297v-225h349v-274h-349v-230z" />
    <glyph glyph-name="Ntilde" unicode="&#xd1;" horiz-adv-x="1826" 
d="M756 1970q57 0 103.5 -14.5t129.5 -52.5q65 -28 94.5 -38t57.5 -10q55 0 104.5 32t114.5 108h2v-316q-108 -112 -242 -112q-58 0 -105.5 14t-127.5 51q-102 47 -152 47q-56 0 -106 -31t-115 -106h-2v313q115 115 244 115zM174 0v1434h447l616 -813h6v813h410v-1434h-432
l-631 834h-6v-834h-410z" />
    <glyph glyph-name="Ograve" unicode="&#xd2;" horiz-adv-x="1826" 
d="M1157 1628h-358l-361 336v29h465zM913 -43q-377 0 -598 205t-221 555t221 555t598 205t598.5 -205t221.5 -555t-221.5 -555t-598.5 -205zM911 322q186 0 290 104.5t104 290.5t-103 290.5t-289 104.5t-288.5 -104.5t-102.5 -290.5t102.5 -290.5t286.5 -104.5z" />
    <glyph glyph-name="Oacute" unicode="&#xd3;" horiz-adv-x="1826" 
d="M674 1628l254 365h463v-29l-361 -336h-356zM913 -43q-377 0 -598 205t-221 555t221 555t598 205t598.5 -205t221.5 -555t-221.5 -555t-598.5 -205zM911 322q186 0 290 104.5t104 290.5t-103 290.5t-289 104.5t-288.5 -104.5t-102.5 -290.5t102.5 -290.5t286.5 -104.5z
" />
    <glyph glyph-name="Ocircumflex" unicode="&#xd4;" horiz-adv-x="1826" 
d="M408 1624l268 399h475l268 -399h-356l-113 162h-76l-112 -162h-354zM913 -43q-377 0 -598 205t-221 555t221 555t598 205t598.5 -205t221.5 -555t-221.5 -555t-598.5 -205zM911 322q186 0 290 104.5t104 290.5t-103 290.5t-289 104.5t-288.5 -104.5t-102.5 -290.5
t102.5 -290.5t286.5 -104.5z" />
    <glyph glyph-name="Otilde" unicode="&#xd5;" horiz-adv-x="1826" 
d="M731 2015q57 0 104.5 -14.5t129.5 -52.5q64 -28 93.5 -37.5t57.5 -9.5q55 0 104.5 31.5t114.5 107.5h2v-316q-108 -112 -241 -112q-58 0 -106 14t-128 51q-102 47 -151 47q-56 0 -106.5 -31.5t-115.5 -105.5h-2v314q114 114 244 114zM913 -43q-377 0 -598 205t-221 555
t221 555t598 205t598.5 -205t221.5 -555t-221.5 -555t-598.5 -205zM911 322q186 0 290 104.5t104 290.5t-103 290.5t-289 104.5t-288.5 -104.5t-102.5 -290.5t102.5 -290.5t286.5 -104.5z" />
    <glyph glyph-name="Odieresis" unicode="&#xd6;" horiz-adv-x="1826" 
d="M639 1608q-96 0 -152.5 53.5t-56.5 140.5t56.5 141t152.5 54q97 0 153 -53.5t56 -141.5q0 -87 -56 -140.5t-153 -53.5zM1190 1608q-96 0 -152.5 53.5t-56.5 140.5t56.5 141t152.5 54q97 0 153 -53.5t56 -141.5q0 -87 -56 -140.5t-153 -53.5zM913 -43q-377 0 -598 205
t-221 555t221 555t598 205t598.5 -205t221.5 -555t-221.5 -555t-598.5 -205zM911 322q186 0 290 104.5t104 290.5t-103 290.5t-289 104.5t-288.5 -104.5t-102.5 -290.5t102.5 -290.5t286.5 -104.5z" />
    <glyph glyph-name="multiply" unicode="&#xd7;" horiz-adv-x="1529" 
d="M166 1059l242 250l358 -348l356 348l242 -250l-350 -340l350 -342l-242 -250l-356 348l-358 -348l-242 250l350 342z" />
    <glyph glyph-name="Oslash" unicode="&#xd8;" horiz-adv-x="1826" 
d="M39 -121l244 318q-189 201 -189 520q0 350 221 555t598 205q206 0 363 -62l110 139h402l-242 -317q187 -203 187 -520q0 -350 -221.5 -555t-598.5 -205q-204 0 -362 61l-109 -139h-403zM508 717q0 -139 51 -228l488 619q-66 16 -134 16q-192 0 -298.5 -107t-106.5 -300z
M911 309q192 0 300 107.5t108 300.5q0 133 -51 227l-488 -620q62 -15 131 -15z" />
    <glyph glyph-name="Ugrave" unicode="&#xd9;" horiz-adv-x="1779" 
d="M1106 1561h-358l-361 335v29h465zM887 -45q-725 0 -725 608v871h430v-838q0 -260 297 -260q299 0 299 254v844h430v-867q0 -612 -731 -612z" />
    <glyph glyph-name="Uacute" unicode="&#xda;" horiz-adv-x="1779" 
d="M676 1561l254 364h463v-29l-361 -335h-356zM887 -45q-725 0 -725 608v871h430v-838q0 -260 297 -260q299 0 299 254v844h430v-867q0 -612 -731 -612z" />
    <glyph glyph-name="Ucircumflex" unicode="&#xdb;" horiz-adv-x="1779" 
d="M383 1579l268 399h475l269 -399h-357l-112 162h-76l-113 -162h-354zM887 -45q-725 0 -725 608v871h430v-838q0 -260 297 -260q299 0 299 254v844h430v-867q0 -612 -731 -612z" />
    <glyph glyph-name="Udieresis" unicode="&#xdc;" horiz-adv-x="1779" 
d="M614 1563q-96 0 -152 53.5t-56 140.5t56 141t152 54q97 0 153 -53.5t56 -141.5q0 -87 -56 -140.5t-153 -53.5zM1165 1563q-96 0 -152.5 53.5t-56.5 140.5t56.5 141t152.5 54q97 0 153 -53.5t56 -141.5q0 -87 -56 -140.5t-153 -53.5zM887 -45q-725 0 -725 608v871h430
v-838q0 -260 297 -260q299 0 299 254v844h430v-867q0 -612 -731 -612z" />
    <glyph glyph-name="Yacute" unicode="&#xdd;" horiz-adv-x="1685" 
d="M602 1561l254 364h463v-29l-361 -335h-356zM627 0v459l-629 975h483l355 -572h20l358 572h472l-627 -973v-461h-432z" />
    <glyph glyph-name="Thorn" unicode="&#xde;" horiz-adv-x="1646" 
d="M174 0v1434h430v-183h424q268 0 409.5 -138.5t141.5 -383.5q0 -179 -75 -301t-203.5 -178.5t-303.5 -56.5h-393v-193h-430zM604 530h350q101 0 150 52t49 137q0 188 -205 188h-344v-377z" />
    <glyph glyph-name="germandbls" unicode="&#xdf;" horiz-adv-x="1660" 
d="M33 821l55 312h191q45 239 209 363t419 124q458 0 658 -414l-332 -356l49 -25q166 -83 240.5 -175t74.5 -236q0 -206 -136.5 -325.5t-356.5 -119.5q-161 0 -293 41v322h2q116 -49 217 -49q76 0 119 40.5t43 106.5q0 63 -46.5 101t-172.5 87l-113 48l-6 213l268 303
q-76 100 -198 100q-250 0 -250 -354v-928h-412v821h-229z" />
    <glyph glyph-name="agrave" unicode="&#xe0;" horiz-adv-x="1316" 
d="M901 1309h-358l-361 336v28h465zM444 -35q-179 0 -275.5 84t-96.5 227q0 130 86 216q159 159 639 190q-2 77 -45 115.5t-140 38.5q-101 0 -214.5 -35.5t-219.5 -100.5h-2v351q236 118 506 118q264 0 390 -118.5t126 -352.5v-698h-381l-6 125q-154 -160 -367 -160z
M586 242q65 0 122.5 24.5t88.5 55.5v161q-252 -28 -312 -88q-26 -26 -26 -63q0 -41 33.5 -65.5t93.5 -24.5z" />
    <glyph glyph-name="aacute" unicode="&#xe1;" horiz-adv-x="1316" 
d="M451 1309l254 364h462v-28l-360 -336h-356zM444 -35q-179 0 -275.5 84t-96.5 227q0 130 86 216q159 159 639 190q-2 77 -45 115.5t-140 38.5q-101 0 -214.5 -35.5t-219.5 -100.5h-2v351q236 118 506 118q264 0 390 -118.5t126 -352.5v-698h-381l-6 125
q-154 -160 -367 -160zM586 242q65 0 122.5 24.5t88.5 55.5v161q-252 -28 -312 -88q-26 -26 -26 -63q0 -41 33.5 -65.5t93.5 -24.5z" />
    <glyph glyph-name="acircumflex" unicode="&#xe2;" horiz-adv-x="1316" 
d="M162 1305l268 399h475l269 -399h-357l-112 161h-76l-113 -161h-354zM444 -35q-179 0 -275.5 84t-96.5 227q0 130 86 216q159 159 639 190q-2 77 -45 115.5t-140 38.5q-101 0 -214.5 -35.5t-219.5 -100.5h-2v351q236 118 506 118q264 0 390 -118.5t126 -352.5v-698h-381
l-6 125q-154 -160 -367 -160zM586 242q65 0 122.5 24.5t88.5 55.5v161q-252 -28 -312 -88q-26 -26 -26 -63q0 -41 33.5 -65.5t93.5 -24.5z" />
    <glyph glyph-name="atilde" unicode="&#xe3;" horiz-adv-x="1316" 
d="M485 1696q57 0 103.5 -14.5t130.5 -53.5q64 -28 93.5 -37.5t57.5 -9.5q55 0 105 32t115 107h2v-315q-109 -113 -242 -113q-58 0 -105.5 14.5t-128.5 51.5q-102 47 -151 47q-56 0 -106 -31t-115 -106h-2v313q115 115 243 115zM444 -35q-179 0 -275.5 84t-96.5 227
q0 130 86 216q159 159 639 190q-2 77 -45 115.5t-140 38.5q-101 0 -214.5 -35.5t-219.5 -100.5h-2v351q236 118 506 118q264 0 390 -118.5t126 -352.5v-698h-381l-6 125q-154 -160 -367 -160zM586 242q65 0 122.5 24.5t88.5 55.5v161q-252 -28 -312 -88q-26 -26 -26 -63
q0 -41 33.5 -65.5t93.5 -24.5z" />
    <glyph glyph-name="adieresis" unicode="&#xe4;" horiz-adv-x="1316" 
d="M393 1288q-96 0 -152.5 54t-56.5 141t56.5 140.5t152.5 53.5q97 0 153 -53.5t56 -140.5q0 -88 -56 -141.5t-153 -53.5zM944 1288q-96 0 -152.5 54t-56.5 141t56.5 140.5t152.5 53.5q97 0 153 -53.5t56 -140.5q0 -88 -56 -141.5t-153 -53.5zM444 -35q-179 0 -275.5 84
t-96.5 227q0 130 86 216q159 159 639 190q-2 77 -45 115.5t-140 38.5q-101 0 -214.5 -35.5t-219.5 -100.5h-2v351q236 118 506 118q264 0 390 -118.5t126 -352.5v-698h-381l-6 125q-154 -160 -367 -160zM586 242q65 0 122.5 24.5t88.5 55.5v161q-252 -28 -312 -88
q-26 -26 -26 -63q0 -41 33.5 -65.5t93.5 -24.5z" />
    <glyph glyph-name="aring" unicode="&#xe5;" horiz-adv-x="1316" 
d="M666 1288q-181 0 -284 85t-103 241q0 159 103.5 245.5t285.5 86.5q184 0 288.5 -85.5t104.5 -244.5q0 -156 -106 -242t-289 -86zM668 1497q67 0 104 30.5t37 88.5q0 60 -37.5 91.5t-105.5 31.5q-66 0 -104 -31.5t-38 -91.5q0 -58 38.5 -88.5t105.5 -30.5zM444 -35
q-179 0 -275.5 84t-96.5 227q0 130 86 216q159 159 639 190q-2 77 -45 115.5t-140 38.5q-101 0 -214.5 -35.5t-219.5 -100.5h-2v351q236 118 506 118q264 0 390 -118.5t126 -352.5v-698h-381l-6 125q-154 -160 -367 -160zM586 242q65 0 122.5 24.5t88.5 55.5v161
q-252 -28 -312 -88q-26 -26 -26 -63q0 -41 33.5 -65.5t93.5 -24.5z" />
    <glyph glyph-name="ae" unicode="&#xe6;" horiz-adv-x="2082" 
d="M1933 68q-216 -107 -467 -107q-355 0 -528 195q-206 -191 -489 -191q-183 0 -280 84t-97 227q0 130 86 216q159 159 643 192q-2 76 -47 114t-142 38q-101 0 -214.5 -35.5t-219.5 -100.5h-2v351q236 118 502 118q259 0 377 -145q153 150 391 150q135 0 242 -44
t176.5 -122.5t106 -186t36.5 -235.5q0 -41 -8 -119h-793q21 -100 99.5 -145.5t214.5 -45.5q96 0 208.5 30.5t202.5 78.5h2v-317zM1427 870q-178 0 -219 -200h434q-9 91 -65.5 145.5t-149.5 54.5zM459 332q0 -41 33.5 -65.5t93.5 -24.5q78 0 145 25.5t109 60.5
q-28 86 -33 155q-255 -24 -322 -88q-26 -26 -26 -63z" />
    <glyph glyph-name="ccedilla" unicode="&#xe7;" horiz-adv-x="1234" 
d="M221 -399v37l314 344q-212 48 -335.5 195t-123.5 372q0 180 84.5 321.5t236 220t342.5 78.5q239 0 396 -104v-352h-2q-161 118 -345 118q-130 0 -212 -74t-82 -198q0 -121 81 -189.5t211 -68.5q187 0 347 117h2v-352q-125 -76 -275 -97l-164 -368h-475z" />
    <glyph glyph-name="egrave" unicode="&#xe8;" horiz-adv-x="1361" 
d="M956 1309h-358l-360 336v28h464zM709 1174q141 0 252 -44t182 -123t108 -185.5t37 -235.5q0 -41 -8 -119h-793q21 -100 99.5 -145.5t214.5 -45.5q96 0 207.5 30.5t203.5 78.5h2v-317q-216 -107 -466 -107q-321 0 -496.5 153.5t-175.5 428.5q0 279 175 455t458 176z
M709 870q-179 0 -220 -200h435q-9 91 -65.5 145.5t-149.5 54.5z" />
    <glyph glyph-name="eacute" unicode="&#xe9;" horiz-adv-x="1361" 
d="M473 1309l254 364h463v-28l-361 -336h-356zM709 1174q141 0 252 -44t182 -123t108 -185.5t37 -235.5q0 -41 -8 -119h-793q21 -100 99.5 -145.5t214.5 -45.5q96 0 207.5 30.5t203.5 78.5h2v-317q-216 -107 -466 -107q-321 0 -496.5 153.5t-175.5 428.5q0 279 175 455
t458 176zM709 870q-179 0 -220 -200h435q-9 91 -65.5 145.5t-149.5 54.5z" />
    <glyph glyph-name="ecircumflex" unicode="&#xea;" horiz-adv-x="1361" 
d="M207 1305l268 399h475l269 -399h-357l-112 161h-76l-113 -161h-354zM709 1174q141 0 252 -44t182 -123t108 -185.5t37 -235.5q0 -41 -8 -119h-793q21 -100 99.5 -145.5t214.5 -45.5q96 0 207.5 30.5t203.5 78.5h2v-317q-216 -107 -466 -107q-321 0 -496.5 153.5
t-175.5 428.5q0 279 175 455t458 176zM709 870q-179 0 -220 -200h435q-9 91 -65.5 145.5t-149.5 54.5z" />
    <glyph glyph-name="edieresis" unicode="&#xeb;" horiz-adv-x="1361" 
d="M438 1288q-96 0 -152.5 54t-56.5 141t56.5 140.5t152.5 53.5q97 0 153 -53.5t56 -140.5q0 -88 -56 -141.5t-153 -53.5zM989 1288q-96 0 -152.5 54t-56.5 141t56.5 140.5t152.5 53.5q97 0 153 -53.5t56 -140.5q0 -88 -56 -141.5t-153 -53.5zM709 1174q141 0 252 -44
t182 -123t108 -185.5t37 -235.5q0 -41 -8 -119h-793q21 -100 99.5 -145.5t214.5 -45.5q96 0 207.5 30.5t203.5 78.5h2v-317q-216 -107 -466 -107q-321 0 -496.5 153.5t-175.5 428.5q0 279 175 455t458 176zM709 870q-179 0 -220 -200h435q-9 91 -65.5 145.5t-149.5 54.5z
" />
    <glyph glyph-name="igrave" unicode="&#xec;" horiz-adv-x="698" 
d="M530 1282h-358l-360 336v29h464zM139 0v1133h420v-1133h-420z" />
    <glyph glyph-name="iacute" unicode="&#xed;" horiz-adv-x="698" 
d="M174 1282l254 365h463v-29l-361 -336h-356zM139 0v1133h420v-1133h-420z" />
    <glyph glyph-name="icircumflex" unicode="&#xee;" horiz-adv-x="698" 
d="M-156 1278l269 399h475l268 -399h-356l-113 162h-76l-112 -162h-355zM139 0v1133h420v-1133h-420z" />
    <glyph glyph-name="idieresis" unicode="&#xef;" horiz-adv-x="698" 
d="M76 1262q-96 0 -152.5 53.5t-56.5 140.5t56.5 141t152.5 54q97 0 153 -53.5t56 -141.5q0 -87 -56 -140.5t-153 -53.5zM627 1262q-96 0 -152.5 53.5t-56.5 140.5t56.5 141t152.5 54q97 0 153 -53.5t56 -141.5q0 -87 -56 -140.5t-153 -53.5zM139 0v1133h420v-1133h-420z
" />
    <glyph glyph-name="eth" unicode="&#xf0;" horiz-adv-x="1437" 
d="M692 -41q-286 0 -456 146.5t-170 392.5q0 133 47 239t125.5 170t174.5 97.5t201 33.5q199 0 324 -118q-51 142 -172 278l-383 -111v228l197 57q-137 108 -299 197v20h493q107 -64 166 -112l389 112v-229l-207 -60q238 -284 238 -636q0 -143 -33 -259.5t-92 -198.5
t-142.5 -138t-184 -82.5t-216.5 -26.5zM475 514q0 -107 65 -168t165 -61q124 0 187.5 84t63.5 225q0 40 -6 80q-39 39 -101.5 62.5t-127.5 23.5q-106 0 -176 -64.5t-70 -181.5z" />
    <glyph glyph-name="ntilde" unicode="&#xf1;" horiz-adv-x="1462" 
d="M565 1686q57 0 103.5 -14.5t130.5 -53.5q64 -28 93.5 -37.5t57.5 -9.5q55 0 104.5 31.5t114.5 107.5h2v-315q-109 -113 -241 -113q-58 0 -105.5 14.5t-128.5 51.5q-102 47 -151 47q-56 0 -105.5 -31.5t-115.5 -106.5h-2v314q115 115 243 115zM137 0v1133h414l2 -164
q85 100 179.5 151t219.5 51q179 0 281 -107t102 -302v-762h-420v651q0 166 -145 166q-108 0 -213 -88v-729h-420z" />
    <glyph glyph-name="ograve" unicode="&#xf2;" horiz-adv-x="1447" 
d="M969 1309h-359l-360 336v28h465zM723 -41q-298 0 -472.5 167.5t-174.5 438.5q0 272 174.5 440.5t472.5 168.5t473.5 -168.5t175.5 -440.5q0 -271 -175.5 -438.5t-473.5 -167.5zM723 283q113 0 177.5 76t64.5 206t-64.5 206.5t-177.5 76.5q-112 0 -176 -76.5t-64 -206.5
t64 -206t176 -76z" />
    <glyph glyph-name="oacute" unicode="&#xf3;" horiz-adv-x="1447" 
d="M485 1309l254 364h463v-28l-360 -336h-357zM723 -41q-298 0 -472.5 167.5t-174.5 438.5q0 272 174.5 440.5t472.5 168.5t473.5 -168.5t175.5 -440.5q0 -271 -175.5 -438.5t-473.5 -167.5zM723 283q113 0 177.5 76t64.5 206t-64.5 206.5t-177.5 76.5q-112 0 -176 -76.5
t-64 -206.5t64 -206t176 -76z" />
    <glyph glyph-name="ocircumflex" unicode="&#xf4;" horiz-adv-x="1447" 
d="M217 1305l268 399h476l268 -399h-357l-112 161h-76l-113 -161h-354zM723 -41q-298 0 -472.5 167.5t-174.5 438.5q0 272 174.5 440.5t472.5 168.5t473.5 -168.5t175.5 -440.5q0 -271 -175.5 -438.5t-473.5 -167.5zM723 283q113 0 177.5 76t64.5 206t-64.5 206.5
t-177.5 76.5q-112 0 -176 -76.5t-64 -206.5t64 -206t176 -76z" />
    <glyph glyph-name="otilde" unicode="&#xf5;" horiz-adv-x="1447" 
d="M543 1696q57 0 103 -14.5t130 -53.5q107 -47 152 -47q55 0 104.5 31.5t114.5 107.5h2v-315q-109 -113 -242 -113q-57 0 -104.5 14.5t-128.5 51.5q-102 47 -152 47q-56 0 -106 -31t-115 -106h-2v313q115 115 244 115zM723 -41q-298 0 -472.5 167.5t-174.5 438.5
q0 272 174.5 440.5t472.5 168.5t473.5 -168.5t175.5 -440.5q0 -271 -175.5 -438.5t-473.5 -167.5zM723 283q113 0 177.5 76t64.5 206t-64.5 206.5t-177.5 76.5q-112 0 -176 -76.5t-64 -206.5t64 -206t176 -76z" />
    <glyph glyph-name="odieresis" unicode="&#xf6;" horiz-adv-x="1447" 
d="M449 1288q-96 0 -152.5 54t-56.5 141t56.5 140.5t152.5 53.5q97 0 152.5 -53t55.5 -141t-55.5 -141.5t-152.5 -53.5zM999 1288q-96 0 -152 54t-56 141t56 140.5t152 53.5q97 0 153 -53.5t56 -140.5q0 -88 -56 -141.5t-153 -53.5zM723 -41q-298 0 -472.5 167.5
t-174.5 438.5q0 272 174.5 440.5t472.5 168.5t473.5 -168.5t175.5 -440.5q0 -271 -175.5 -438.5t-473.5 -167.5zM723 283q113 0 177.5 76t64.5 206t-64.5 206.5t-177.5 76.5q-112 0 -176 -76.5t-64 -206.5t64 -206t176 -76z" />
    <glyph glyph-name="divide" unicode="&#xf7;" horiz-adv-x="1568" 
d="M782 1374q107 0 168.5 -55t61.5 -143q0 -89 -61 -144t-167 -55q-105 0 -166 54.5t-61 142.5v2q0 88 60.5 143t164.5 55zM164 557v322h1239v-322h-1239zM784 61q-105 0 -166 55.5t-61 143.5q0 89 60.5 144t166.5 55t167 -54.5t61 -142.5v-2q0 -88 -61.5 -143.5
t-166.5 -55.5z" />
    <glyph glyph-name="oslash" unicode="&#xf8;" horiz-adv-x="1447" 
d="M723 -41q-161 0 -291 51l-82 -110h-338l199 268q-135 160 -135 397q0 272 174.5 440.5t472.5 168.5q159 0 291 -52l84 111h338l-199 -270q135 -156 135 -398q0 -271 -175.5 -438.5t-473.5 -167.5zM465 565q0 -70 20 -135l330 422q-38 14 -92 14q-121 0 -189.5 -80
t-68.5 -221zM723 266q123 0 191.5 79.5t68.5 219.5q0 72 -20 137l-332 -421q43 -15 92 -15z" />
    <glyph glyph-name="ugrave" unicode="&#xf9;" horiz-adv-x="1462" 
d="M946 1268h-358l-361 336v28h465zM1325 1133v-1133h-414l-2 164q-85 -100 -180 -151.5t-219 -51.5q-179 0 -280 106.5t-101 301.5v764h418v-654q0 -164 147 -164q113 0 211 88v730h420z" />
    <glyph glyph-name="uacute" unicode="&#xfa;" horiz-adv-x="1462" 
d="M483 1268l254 364h463v-28l-360 -336h-357zM1325 1133v-1133h-414l-2 164q-85 -100 -180 -151.5t-219 -51.5q-179 0 -280 106.5t-101 301.5v764h418v-654q0 -164 147 -164q113 0 211 88v730h420z" />
    <glyph glyph-name="ucircumflex" unicode="&#xfb;" horiz-adv-x="1462" 
d="M217 1278l268 399h476l268 -399h-357l-112 162h-76l-113 -162h-354zM1325 1133v-1133h-414l-2 164q-85 -100 -180 -151.5t-219 -51.5q-179 0 -280 106.5t-101 301.5v764h418v-654q0 -164 147 -164q113 0 211 88v730h420z" />
    <glyph glyph-name="udieresis" unicode="&#xfc;" horiz-adv-x="1462" 
d="M449 1262q-96 0 -152.5 53.5t-56.5 140.5t56.5 141t152.5 54q97 0 152.5 -53.5t55.5 -141.5t-55.5 -141t-152.5 -53zM999 1262q-96 0 -152 53.5t-56 140.5t56 141t152 54q97 0 153 -53.5t56 -141.5q0 -87 -56 -140.5t-153 -53.5zM1325 1133v-1133h-414l-2 164
q-85 -100 -180 -151.5t-219 -51.5q-179 0 -280 106.5t-101 301.5v764h418v-654q0 -164 147 -164q113 0 211 88v730h420z" />
    <glyph glyph-name="yacute" unicode="&#xfd;" horiz-adv-x="1359" 
d="M455 1268l254 364h462v-28l-360 -336h-356zM360 -426l136 375l-473 1184h417l260 -709l240 709h410l-592 -1559h-398z" />
    <glyph glyph-name="thorn" unicode="&#xfe;" horiz-adv-x="1488" 
d="M137 -426v2015h418v-594q137 172 358 172q223 0 361.5 -154t138.5 -413q0 -140 -46 -259t-126.5 -200t-190.5 -126.5t-237 -45.5q-150 0 -256 56v-451h-420zM735 291q118 0 189 74.5t71 207.5q-1 128 -65.5 197.5t-171.5 69.5q-109 0 -201 -68v-426q83 -55 178 -55z" />
    <glyph glyph-name="ydieresis" unicode="&#xff;" horiz-adv-x="1359" 
d="M420 1262q-96 0 -152.5 53.5t-56.5 140.5t56.5 141t152.5 54q97 0 153 -53.5t56 -141.5q0 -87 -56 -140.5t-153 -53.5zM971 1262q-96 0 -152.5 53.5t-56.5 140.5t56.5 141t152.5 54q97 0 153 -53.5t56 -141.5q0 -87 -56 -140.5t-153 -53.5zM360 -426l136 375l-473 1184
h417l260 -709l240 709h410l-592 -1559h-398z" />
    <glyph glyph-name="Amacron" unicode="&#x100;" horiz-adv-x="1769" 
d="M461 1614v272h848v-272h-848zM41 0l498 1434h692l498 -1434h-451l-100 297h-592l-103 -297h-442zM844 1069l-154 -451h385l-153 451h-78z" />
    <glyph glyph-name="amacron" unicode="&#x101;" horiz-adv-x="1316" 
d="M244 1339v273h848v-273h-848zM444 -35q-179 0 -275.5 84t-96.5 227q0 130 86 216q159 159 639 190q-2 77 -45 115.5t-140 38.5q-101 0 -214.5 -35.5t-219.5 -100.5h-2v351q236 118 506 118q264 0 390 -118.5t126 -352.5v-698h-381l-6 125q-154 -160 -367 -160zM586 242
q65 0 122.5 24.5t88.5 55.5v161q-252 -28 -312 -88q-26 -26 -26 -63q0 -41 33.5 -65.5t93.5 -24.5z" />
    <glyph glyph-name="Abreve" unicode="&#x102;" horiz-adv-x="1769" 
d="M885 1563q-205 0 -323 82t-118 237q0 49 17 129h282q-6 -37 -6 -59q0 -64 38.5 -90.5t109.5 -26.5t108 26.5t37 90.5q0 9 -4 59h283q16 -75 16 -129q0 -155 -117.5 -237t-322.5 -82zM41 0l498 1434h692l498 -1434h-451l-100 297h-592l-103 -297h-442zM844 1069l-154 -451
h385l-153 451h-78z" />
    <glyph glyph-name="abreve" unicode="&#x103;" horiz-adv-x="1316" 
d="M668 1288q-205 0 -323 82.5t-118 237.5q0 49 17 129h282q-6 -37 -6 -60q0 -64 38.5 -90t109.5 -26t108 26t37 90q0 10 -4 60h283q16 -75 16 -129q0 -155 -117.5 -237.5t-322.5 -82.5zM444 -35q-179 0 -275.5 84t-96.5 227q0 130 86 216q159 159 639 190q-2 77 -45 115.5
t-140 38.5q-101 0 -214.5 -35.5t-219.5 -100.5h-2v351q236 118 506 118q264 0 390 -118.5t126 -352.5v-698h-381l-6 125q-154 -160 -367 -160zM586 242q65 0 122.5 24.5t88.5 55.5v161q-252 -28 -312 -88q-26 -26 -26 -63q0 -41 33.5 -65.5t93.5 -24.5z" />
    <glyph glyph-name="Aogonek" unicode="&#x104;" horiz-adv-x="1769" 
d="M41 0l498 1434h692l498 -1434l-107 -100q-97 -93 -116 -118q-23 -32 -23 -61q0 -71 121 -71q84 0 165 33v-275q-127 -39 -247 -39q-94 0 -166.5 16.5t-114.5 41.5t-68.5 59.5t-35.5 66t-9 66.5q0 92 68.5 177t208.5 179l37 25h-164l-100 297h-592l-103 -297h-442z
M844 1069l-154 -451h385l-153 451h-78z" />
    <glyph glyph-name="aogonek" unicode="&#x105;" horiz-adv-x="1316" 
d="M444 -35q-179 0 -275.5 84t-96.5 227q0 130 86 216q159 159 639 190q-2 77 -45 115.5t-140 38.5q-101 0 -214.5 -35.5t-219.5 -100.5h-2v351q236 118 506 118q264 0 390 -118.5t126 -352.5v-698l-106 -100q-97 -93 -115 -116q-25 -33 -25 -63q0 -71 121 -71q85 0 166 33
v-275q-127 -39 -248 -39q-94 0 -166.5 16.5t-114 41.5t-68 59.5t-35.5 66t-9 66.5q0 92 68 177t208 179l37 25h-94l-6 125q-154 -160 -367 -160zM586 242q65 0 122.5 24.5t88.5 55.5v161q-252 -28 -312 -88q-26 -26 -26 -63q0 -41 33.5 -65.5t93.5 -24.5z" />
    <glyph glyph-name="Cacute" unicode="&#x106;" horiz-adv-x="1593" 
d="M659 1622l254 365h463v-29l-360 -336h-357zM907 -37q-197 0 -352.5 55.5t-256 155.5t-152.5 236t-52 301t57 304.5t162.5 240t262.5 157.5t348 57q309 0 544 -153v-404h-4q-145 95 -259 142t-253 47q-194 0 -309 -105.5t-115 -281.5q0 -174 113.5 -278.5t308.5 -104.5
q146 0 267.5 47t246.5 141h4v-409q-96 -61 -241 -104.5t-320 -43.5z" />
    <glyph glyph-name="cacute" unicode="&#x107;" horiz-adv-x="1234" 
d="M463 1309l254 364h463v-28l-361 -336h-356zM737 -39q-195 0 -343 67.5t-233 201.5t-85 319q0 180 84.5 321.5t236 220t342.5 78.5q239 0 396 -104v-352h-2q-161 118 -345 118q-130 0 -212 -74t-82 -198q0 -121 81 -189.5t211 -68.5q187 0 347 117h2v-352
q-171 -105 -398 -105z" />
    <glyph glyph-name="Cdotaccent" unicode="&#x10a;" horiz-adv-x="1593" 
d="M897 1602q-118 0 -182 55t-64 145v2q0 92 64 146.5t184 54.5q119 0 182.5 -54.5t63.5 -146.5v-2q0 -91 -64 -145.5t-184 -54.5zM907 -37q-197 0 -352.5 55.5t-256 155.5t-152.5 236t-52 301t57 304.5t162.5 240t262.5 157.5t348 57q309 0 544 -153v-404h-4
q-145 95 -259 142t-253 47q-194 0 -309 -105.5t-115 -281.5q0 -174 113.5 -278.5t308.5 -104.5q146 0 267.5 47t246.5 141h4v-409q-96 -61 -241 -104.5t-320 -43.5z" />
    <glyph glyph-name="cdotaccent" unicode="&#x10b;" horiz-adv-x="1234" 
d="M700 1288q-118 0 -181.5 55t-63.5 146v2q0 92 63.5 146.5t183.5 54.5q119 0 182.5 -54.5t63.5 -146.5v-2q0 -91 -64 -146t-184 -55zM737 -39q-195 0 -343 67.5t-233 201.5t-85 319q0 180 84.5 321.5t236 220t342.5 78.5q239 0 396 -104v-352h-2q-161 118 -345 118
q-130 0 -212 -74t-82 -198q0 -121 81 -189.5t211 -68.5q187 0 347 117h2v-352q-171 -105 -398 -105z" />
    <glyph glyph-name="Ccaron" unicode="&#x10c;" horiz-adv-x="1593" 
d="M1405 2017l-268 -399h-475l-269 399h357l112 -159h76l113 159h354zM907 -37q-197 0 -352.5 55.5t-256 155.5t-152.5 236t-52 301t57 304.5t162.5 240t262.5 157.5t348 57q309 0 544 -153v-404h-4q-145 95 -259 142t-253 47q-194 0 -309 -105.5t-115 -281.5
q0 -174 113.5 -278.5t308.5 -104.5q146 0 267.5 47t246.5 141h4v-409q-96 -61 -241 -104.5t-320 -43.5z" />
    <glyph glyph-name="ccaron" unicode="&#x10d;" horiz-adv-x="1234" 
d="M1208 1704l-268 -399h-475l-268 399h356l113 -160h75l113 160h354zM737 -39q-195 0 -343 67.5t-233 201.5t-85 319q0 180 84.5 321.5t236 220t342.5 78.5q239 0 396 -104v-352h-2q-161 118 -345 118q-130 0 -212 -74t-82 -198q0 -121 81 -189.5t211 -68.5q187 0 347 117
h2v-352q-171 -105 -398 -105z" />
    <glyph glyph-name="Dcaron" unicode="&#x10e;" horiz-adv-x="1761" 
d="M1360 1978l-268 -399h-476l-268 399h357l112 -159h76l113 159h354zM174 0v1434h772q339 0 530 -187t191 -530q0 -341 -191 -529t-530 -188h-772zM604 356h295q334 0 334 361q0 362 -334 362h-295v-723z" />
    <glyph glyph-name="dcaron" unicode="&#x10f;" horiz-adv-x="1490" 
d="M1350 1589v-1589h-406l-4 150q-138 -187 -365 -187q-223 0 -361 154.5t-138 414.5q0 186 79 330.5t215 222.5t304 78q144 0 258 -57v483h418zM1499 1217v372h377v-49l-160 -323h-217zM754 840q-118 0 -189 -74.5t-71 -208.5q0 -126 65 -196t172 -70q113 0 201 71v424
q-87 54 -178 54z" />
    <glyph glyph-name="Dcroat" unicode="&#x110;" horiz-adv-x="1857" 
d="M270 0v569h-202l22 301h180v564h774q339 0 529 -187t190 -530q0 -341 -190.5 -529t-528.5 -188h-774zM700 352h297q332 0 332 365q0 364 -332 364h-297v-225h349v-274h-349v-230z" />
    <glyph glyph-name="dcroat" unicode="&#x111;" horiz-adv-x="1513" 
d="M1536 1190h-186v-1190h-406l-4 147q-134 -184 -365 -184q-222 0 -360.5 146.5t-138.5 386.5q0 173 79 309.5t215 211.5t304 75q146 0 258 -56v154h-340v233h340v166h418v-166h170zM754 768q-117 0 -188.5 -66.5t-71.5 -179.5q0 -107 65.5 -169t171.5 -62q113 0 201 71
v353q-80 53 -178 53z" />
    <glyph glyph-name="Emacron" unicode="&#x112;" horiz-adv-x="1570" 
d="M389 1614v272h848v-272h-848zM174 0v1434h1253l17 -349h-842v-196h662v-318h-662v-223h866l-16 -348h-1278z" />
    <glyph glyph-name="emacron" unicode="&#x113;" horiz-adv-x="1361" 
d="M289 1339v273h848v-273h-848zM709 1174q141 0 252 -44t182 -123t108 -185.5t37 -235.5q0 -41 -8 -119h-793q21 -100 99.5 -145.5t214.5 -45.5q96 0 207.5 30.5t203.5 78.5h2v-317q-216 -107 -466 -107q-321 0 -496.5 153.5t-175.5 428.5q0 279 175 455t458 176zM709 870
q-179 0 -220 -200h435q-9 91 -65.5 145.5t-149.5 54.5z" />
    <glyph glyph-name="Ebreve" unicode="&#x114;" horiz-adv-x="1570" 
d="M813 1563q-205 0 -322.5 82t-117.5 237q0 54 16 129h283q-6 -37 -6 -59q0 -64 38 -90.5t109 -26.5t108 26.5t37 90.5q0 9 -4 59h283q16 -75 16 -129q0 -155 -117.5 -237t-322.5 -82zM174 0v1434h1253l17 -349h-842v-196h662v-318h-662v-223h866l-16 -348h-1278z" />
    <glyph glyph-name="ebreve" unicode="&#x115;" horiz-adv-x="1361" 
d="M713 1288q-205 0 -323 82.5t-118 237.5q0 49 17 129h282q-6 -37 -6 -60q0 -64 38.5 -90t109.5 -26t108 26t37 90q0 10 -4 60h283q16 -75 16 -129q0 -155 -117.5 -237.5t-322.5 -82.5zM709 1174q141 0 252 -44t182 -123t108 -185.5t37 -235.5q0 -41 -8 -119h-793
q21 -100 99.5 -145.5t214.5 -45.5q96 0 207.5 30.5t203.5 78.5h2v-317q-216 -107 -466 -107q-321 0 -496.5 153.5t-175.5 428.5q0 279 175 455t458 176zM709 870q-179 0 -220 -200h435q-9 91 -65.5 145.5t-149.5 54.5z" />
    <glyph glyph-name="Edotaccent" unicode="&#x116;" horiz-adv-x="1570" 
d="M813 1563q-118 0 -182 55t-64 145v2q0 92 64 146.5t184 54.5q119 0 182.5 -54.5t63.5 -146.5v-2q0 -91 -64 -145.5t-184 -54.5zM174 0v1434h1253l17 -349h-842v-196h662v-318h-662v-223h866l-16 -348h-1278z" />
    <glyph glyph-name="edotaccent" unicode="&#x117;" horiz-adv-x="1361" 
d="M711 1288q-118 0 -182 55t-64 146v2q0 92 64 146.5t184 54.5q118 0 181.5 -54.5t63.5 -146.5v-2q0 -91 -64 -146t-183 -55zM709 1174q141 0 252 -44t182 -123t108 -185.5t37 -235.5q0 -41 -8 -119h-793q21 -100 99.5 -145.5t214.5 -45.5q96 0 207.5 30.5t203.5 78.5h2
v-317q-216 -107 -466 -107q-321 0 -496.5 153.5t-175.5 428.5q0 279 175 455t458 176zM709 870q-179 0 -220 -200h435q-9 91 -65.5 145.5t-149.5 54.5z" />
    <glyph glyph-name="Eogonek" unicode="&#x118;" horiz-adv-x="1570" 
d="M174 0v1434h1253l17 -349h-842v-196h662v-318h-662v-223h866l-16 -348l-106 -100q-97 -93 -115 -116q-25 -33 -25 -63q0 -71 121 -71q85 0 166 33v-275q-127 -39 -248 -39q-94 0 -166.5 16.5t-114 41.5t-68 59.5t-35.5 66t-9 66.5q0 92 68 177t208 179l37 25h-991z" />
    <glyph glyph-name="eogonek" unicode="&#x119;" horiz-adv-x="1361" 
d="M748 -39q-321 0 -496.5 153.5t-175.5 428.5q0 279 175 455t458 176q141 0 252 -44t182 -123t108 -185.5t37 -235.5q0 -41 -8 -119h-793q21 -100 99.5 -145.5t214.5 -45.5q96 0 207.5 30.5t203.5 78.5h2v-317l-129 -144q-85 -98 -110 -139t-25 -78q0 -74 121 -74
q84 0 166 35v-274q-124 -41 -250 -41q-95 0 -167 17t-113.5 42.5t-67.5 61t-34.5 67.5t-8.5 68q0 94 59.5 176.5t186.5 179.5q-62 -4 -94 -4zM709 870q-179 0 -220 -200h435q-9 91 -65.5 145.5t-149.5 54.5z" />
    <glyph glyph-name="Ecaron" unicode="&#x11a;" horiz-adv-x="1570" 
d="M1319 1978l-268 -399h-476l-268 399h357l112 -159h76l113 159h354zM174 0v1434h1253l17 -349h-842v-196h662v-318h-662v-223h866l-16 -348h-1278z" />
    <glyph glyph-name="ecaron" unicode="&#x11b;" horiz-adv-x="1361" 
d="M1219 1704l-269 -399h-475l-268 399h356l113 -160h76l112 160h355zM709 1174q141 0 252 -44t182 -123t108 -185.5t37 -235.5q0 -41 -8 -119h-793q21 -100 99.5 -145.5t214.5 -45.5q96 0 207.5 30.5t203.5 78.5h2v-317q-216 -107 -466 -107q-321 0 -496.5 153.5
t-175.5 428.5q0 279 175 455t458 176zM709 870q-179 0 -220 -200h435q-9 91 -65.5 145.5t-149.5 54.5z" />
    <glyph glyph-name="Gbreve" unicode="&#x11e;" horiz-adv-x="1765" 
d="M895 1604q-205 0 -322.5 82t-117.5 237q0 54 16 129h283q-6 -38 -6 -59q0 -64 38 -90.5t109 -26.5t108 26.5t37 90.5q0 9 -4 59h283q16 -75 16 -129q0 -155 -117.5 -237t-322.5 -82zM911 -41q-192 0 -347 54t-258 151t-158.5 233t-55.5 299t59 304t168 247t276 167
t372 61q156 0 301.5 -37.5t247.5 -100.5v-383h-3q-144 79 -266 118.5t-262 39.5q-218 0 -336.5 -111.5t-118.5 -308.5q0 -179 108.5 -283t311.5 -104q143 0 239 62t105 176h-436v303h828q8 -94 8 -164q0 -148 -39.5 -269t-110 -204.5t-169 -140.5t-214.5 -83t-250 -26z" />
    <glyph glyph-name="gbreve" unicode="&#x11f;" horiz-adv-x="1304" 
d="M627 1303q-205 0 -323 82t-118 237q0 49 17 129h282q-6 -37 -6 -59q0 -64 38.5 -90.5t109.5 -26.5t108 26.5t37 90.5q0 9 -4 59h283q16 -75 16 -129q0 -155 -117.5 -237t-322.5 -82zM653 344q-50 0 -75 2l-15 -94q275 -23 439.5 -70t235.5 -117.5t71 -175.5
q0 -51 -18.5 -99.5t-66.5 -97.5t-120.5 -85t-190 -59t-266.5 -23q-308 0 -467.5 80.5t-159.5 214.5q0 72 49 130.5t164 110.5l72 347q-219 104 -219 329q0 196 153.5 313t409.5 117q86 0 174 -20l103 151h415v-26l-268 -240q146 -110 146 -282q0 -191 -153.5 -298.5
t-412.5 -107.5zM655 590q81 0 131 42.5t50 121.5q0 76 -49.5 118.5t-131.5 42.5q-83 0 -133.5 -43t-50.5 -120q0 -79 49.5 -120.5t134.5 -41.5zM690 -233q119 0 187.5 25.5t68.5 64.5q0 28 -53 52t-185.5 44t-332.5 29q-41 -38 -41 -74q0 -50 51.5 -82.5t128.5 -45.5
t176 -13z" />
    <glyph glyph-name="Gdotaccent" unicode="&#x120;" horiz-adv-x="1765" 
d="M895 1604q-118 0 -182 55t-64 145v2q0 92 64 146.5t184 54.5q119 0 182.5 -54.5t63.5 -146.5v-2q0 -91 -64 -145.5t-184 -54.5zM911 -41q-192 0 -347 54t-258 151t-158.5 233t-55.5 299t59 304t168 247t276 167t372 61q156 0 301.5 -37.5t247.5 -100.5v-383h-3
q-144 79 -266 118.5t-262 39.5q-218 0 -336.5 -111.5t-118.5 -308.5q0 -179 108.5 -283t311.5 -104q143 0 239 62t105 176h-436v303h828q8 -94 8 -164q0 -148 -39.5 -269t-110 -204.5t-169 -140.5t-214.5 -83t-250 -26z" />
    <glyph glyph-name="gdotaccent" unicode="&#x121;" horiz-adv-x="1304" 
d="M625 1303q-118 0 -182 55t-64 145v2q0 92 64 146.5t184 54.5q118 0 181.5 -54.5t63.5 -146.5v-2q0 -91 -63.5 -145.5t-183.5 -54.5zM653 344q-50 0 -75 2l-15 -94q275 -23 439.5 -70t235.5 -117.5t71 -175.5q0 -51 -18.5 -99.5t-66.5 -97.5t-120.5 -85t-190 -59
t-266.5 -23q-308 0 -467.5 80.5t-159.5 214.5q0 72 49 130.5t164 110.5l72 347q-219 104 -219 329q0 196 153.5 313t409.5 117q86 0 174 -20l103 151h415v-26l-268 -240q146 -110 146 -282q0 -191 -153.5 -298.5t-412.5 -107.5zM655 590q81 0 131 42.5t50 121.5
q0 76 -49.5 118.5t-131.5 42.5q-83 0 -133.5 -43t-50.5 -120q0 -79 49.5 -120.5t134.5 -41.5zM690 -233q119 0 187.5 25.5t68.5 64.5q0 28 -53 52t-185.5 44t-332.5 29q-41 -38 -41 -74q0 -50 51.5 -82.5t128.5 -45.5t176 -13z" />
    <glyph glyph-name="uni0122" unicode="&#x122;" horiz-adv-x="1765" 
d="M911 -41q-192 0 -347 54t-258 151t-158.5 233t-55.5 299t59 304t168 247t276 167t372 61q156 0 301.5 -37.5t247.5 -100.5v-383h-3q-144 79 -266 118.5t-262 39.5q-218 0 -336.5 -111.5t-118.5 -308.5q0 -179 108.5 -283t311.5 -104q143 0 239 62t105 176h-436v303h828
q8 -94 8 -164q0 -148 -39.5 -269t-110 -204.5t-169 -140.5t-214.5 -83t-250 -26zM604 -643l113 446h422v-41l-291 -405h-244z" />
    <glyph glyph-name="uni0123" unicode="&#x123;" horiz-adv-x="1304" 
d="M940 1757l-113 -446h-421v41l290 405h244zM653 344q-50 0 -75 2l-15 -94q275 -23 439.5 -70t235.5 -117.5t71 -175.5q0 -51 -18.5 -99.5t-66.5 -97.5t-120.5 -85t-190 -59t-266.5 -23q-308 0 -467.5 80.5t-159.5 214.5q0 72 49 130.5t164 110.5l72 347q-219 104 -219 329
q0 196 153.5 313t409.5 117q86 0 174 -20l103 151h415v-26l-268 -240q146 -110 146 -282q0 -191 -153.5 -298.5t-412.5 -107.5zM655 590q81 0 131 42.5t50 121.5q0 76 -49.5 118.5t-131.5 42.5q-83 0 -133.5 -43t-50.5 -120q0 -79 49.5 -120.5t134.5 -41.5zM690 -233
q119 0 187.5 25.5t68.5 64.5q0 28 -53 52t-185.5 44t-332.5 29q-41 -38 -41 -74q0 -50 51.5 -82.5t128.5 -45.5t176 -13z" />
    <glyph glyph-name="Hbar" unicode="&#x126;" horiz-adv-x="2013" 
d="M270 0v975h-202l16 301h186v158h430v-174h615v174h428v-158h186l17 -301h-203v-975h-428v463h-615v-463h-430zM700 827h615v164h-615v-164z" />
    <glyph glyph-name="hbar" unicode="&#x127;" horiz-adv-x="1486" 
d="M162 0v1190h-187l17 233h170v166h418v-166h340v-233h-340v-285q84 97 178.5 148t218.5 51q179 0 281 -107t102 -303v-694h-420v584q0 91 -39 128.5t-108 37.5q-106 0 -211 -88v-662h-420z" />
    <glyph glyph-name="Imacron" unicode="&#x12a;" horiz-adv-x="782" 
d="M-33 1614v272h848v-272h-848zM176 0v1434h432v-1434h-432z" />
    <glyph glyph-name="imacron" unicode="&#x12b;" horiz-adv-x="698" 
d="M-74 1313v272h848v-272h-848zM139 0v1133h420v-1133h-420z" />
    <glyph glyph-name="Ibreve" unicode="&#x12c;" horiz-adv-x="782" 
d="M391 1563q-205 0 -322.5 82t-117.5 237q0 54 16 129h283q-6 -37 -6 -59q0 -64 38 -90.5t109 -26.5t108.5 26.5t37.5 90.5q0 10 -2 31t-3 28h283q16 -75 16 -129q0 -155 -117.5 -237t-322.5 -82zM176 0v1434h432v-1434h-432z" />
    <glyph glyph-name="ibreve" unicode="&#x12d;" horiz-adv-x="698" 
d="M350 1262q-205 0 -322.5 82t-117.5 237q0 54 16 129h283q-6 -38 -6 -59q0 -64 38 -90.5t109 -26.5t108.5 26.5t37.5 90.5q0 9 -4 59h282q17 -80 17 -129q0 -155 -118 -237t-323 -82zM139 0v1133h420v-1133h-420z" />
    <glyph glyph-name="Iogonek" unicode="&#x12e;" horiz-adv-x="782" 
d="M176 0v1434h432v-1434l-106 -100q-97 -93 -115 -116q-25 -33 -25 -63q0 -71 121 -71q85 0 166 33v-275q-127 -39 -248 -39q-94 0 -166.5 16.5t-114 41.5t-68 59.5t-35.5 66t-9 66.5q0 92 68.5 177t208.5 179l37 25h-146z" />
    <glyph glyph-name="iogonek" unicode="&#x12f;" horiz-adv-x="698" 
d="M350 1262q-120 0 -184 54.5t-64 145.5v2q0 92 64 146.5t184 54.5q119 0 182.5 -54.5t63.5 -146.5v-2q0 -90 -64 -145t-182 -55zM139 0v1133h420v-1133l-106 -100q-97 -93 -115 -116q-25 -33 -25 -63q0 -71 121 -71q85 0 166 33v-275q-127 -39 -248 -39q-94 0 -166.5 16.5
t-114 41.5t-68 59.5t-35.5 66t-9 66.5q0 92 68.5 177t208.5 179l36 25h-133z" />
    <glyph glyph-name="Idotaccent" unicode="&#x130;" horiz-adv-x="782" 
d="M391 1563q-118 0 -182 55t-64 145v2q0 92 64 146.5t184 54.5q119 0 182.5 -54.5t63.5 -146.5v-2q0 -91 -64 -145.5t-184 -54.5zM176 0v1434h432v-1434h-432z" />
    <glyph glyph-name="dotlessi" unicode="&#x131;" horiz-adv-x="698" 
d="M139 0v1133h420v-1133h-420z" />
    <glyph glyph-name="uni0136" unicode="&#x136;" horiz-adv-x="1728" 
d="M174 0v1434h430v-529h176l420 529h483l3 -2l-549 -687l579 -743l-2 -2h-502l-434 551h-174v-551h-430zM547 -580l112 447h422v-41l-290 -406h-244z" />
    <glyph glyph-name="uni0137" unicode="&#x137;" horiz-adv-x="1419" 
d="M137 0v1589h420v-860h115l254 404h465v-3l-357 -534l387 -594v-2h-477l-266 428h-121v-428h-420zM408 -580l112 447h422v-41l-291 -406h-243z" />
    <glyph glyph-name="Lacute" unicode="&#x139;" horiz-adv-x="1433" 
d="M211 1583l254 365h463v-29l-361 -336h-356zM174 0v1434h430v-1063h760l-16 -371h-1174z" />
    <glyph glyph-name="lacute" unicode="&#x13a;" horiz-adv-x="698" 
d="M174 1739l254 364h463v-28l-361 -336h-356zM139 0v1589h420v-1589h-420z" />
    <glyph glyph-name="uni013B" unicode="&#x13b;" horiz-adv-x="1433" 
d="M174 0v1434h430v-1063h760l-16 -371h-1174zM451 -602l112 446h422v-41l-291 -405h-243z" />
    <glyph glyph-name="uni013C" unicode="&#x13c;" horiz-adv-x="698" 
d="M139 0v1589h420v-1589h-420zM16 -602l113 446h422v-41l-291 -405h-244z" />
    <glyph glyph-name="Lcaron" unicode="&#x13d;" horiz-adv-x="1433" 
d="M770 1063v373h377v-50l-160 -323h-217zM174 0v1434h430v-1063h760l-16 -371h-1174z" />
    <glyph glyph-name="lcaron" unicode="&#x13e;" horiz-adv-x="698" 
d="M139 0v1589h420v-1589h-420zM707 1217v372h376v-49l-159 -323h-217z" />
    <glyph glyph-name="Ldot" unicode="&#x13f;" horiz-adv-x="1433" 
d="M174 0v1434h430v-1063h760l-16 -371h-1174zM1106 709q-99 0 -158 56t-59 146t59 146.5t158 56.5t158 -56.5t59 -146.5t-59 -146t-158 -56z" />
    <glyph glyph-name="ldot" unicode="&#x140;" horiz-adv-x="1107" 
d="M139 0v1589h420v-1589h-420zM903 600q-99 0 -158 56.5t-59 146.5v2q0 90 59 145.5t158 55.5t158 -55.5t59 -145.5v-2q0 -90 -59 -146.5t-158 -56.5z" />
    <glyph glyph-name="Lslash" unicode="&#x141;" horiz-adv-x="1519" 
d="M258 0v438l-190 -88v338l190 86v660h432v-459l430 199v-338l-430 -199v-266h758l-16 -371h-1174z" />
    <glyph glyph-name="lslash" unicode="&#x142;" horiz-adv-x="903" 
d="M242 0v528l-209 -116v317l209 117v743h420v-508l208 117v-317l-208 -117v-764h-420z" />
    <glyph glyph-name="Nacute" unicode="&#x143;" horiz-adv-x="1826" 
d="M715 1561l254 364h463v-29l-361 -335h-356zM174 0v1434h447l616 -813h6v813h410v-1434h-432l-631 834h-6v-834h-410z" />
    <glyph glyph-name="nacute" unicode="&#x144;" horiz-adv-x="1462" 
d="M508 1298l254 365h463v-29l-361 -336h-356zM137 0v1133h414l2 -164q85 100 179.5 151t219.5 51q179 0 281 -107t102 -302v-762h-420v651q0 166 -145 166q-108 0 -213 -88v-729h-420z" />
    <glyph glyph-name="uni0145" unicode="&#x145;" horiz-adv-x="1826" 
d="M174 0v1434h447l616 -813h6v813h410v-1434h-432l-631 834h-6v-834h-410zM578 -578l112 447h422v-41l-291 -406h-243z" />
    <glyph glyph-name="uni0146" unicode="&#x146;" horiz-adv-x="1462" 
d="M137 0v1133h414l2 -164q85 100 179.5 151t219.5 51q179 0 281 -107t102 -302v-762h-420v651q0 166 -145 166q-108 0 -213 -88v-729h-420zM434 -586l113 447h422v-41l-291 -406h-244z" />
    <glyph glyph-name="Ncaron" unicode="&#x147;" horiz-adv-x="1826" 
d="M1442 1956l-268 -400h-476l-268 400h356l113 -160h76l112 160h355zM174 0v1434h447l616 -813h6v813h410v-1434h-432l-631 834h-6v-834h-410z" />
    <glyph glyph-name="ncaron" unicode="&#x148;" horiz-adv-x="1462" 
d="M1253 1694l-268 -400h-475l-268 400h356l113 -160h75l113 160h354zM137 0v1133h414l2 -164q85 100 179.5 151t219.5 51q179 0 281 -107t102 -302v-762h-420v651q0 166 -145 166q-108 0 -213 -88v-729h-420z" />
    <glyph glyph-name="Omacron" unicode="&#x14c;" horiz-adv-x="1826" 
d="M489 1659v272h848v-272h-848zM913 -43q-377 0 -598 205t-221 555t221 555t598 205t598.5 -205t221.5 -555t-221.5 -555t-598.5 -205zM911 322q186 0 290 104.5t104 290.5t-103 290.5t-289 104.5t-288.5 -104.5t-102.5 -290.5t102.5 -290.5t286.5 -104.5z" />
    <glyph glyph-name="omacron" unicode="&#x14d;" horiz-adv-x="1447" 
d="M299 1339v273h848v-273h-848zM723 -41q-298 0 -472.5 167.5t-174.5 438.5q0 272 174.5 440.5t472.5 168.5t473.5 -168.5t175.5 -440.5q0 -271 -175.5 -438.5t-473.5 -167.5zM723 283q113 0 177.5 76t64.5 206t-64.5 206.5t-177.5 76.5q-112 0 -176 -76.5t-64 -206.5
t64 -206t176 -76z" />
    <glyph glyph-name="Obreve" unicode="&#x14e;" horiz-adv-x="1826" 
d="M913 1608q-205 0 -322.5 82t-117.5 237q0 54 16 129h283q-6 -38 -6 -59q0 -64 38 -90.5t109 -26.5t108.5 26.5t37.5 90.5q0 9 -4 59h282q17 -80 17 -129q0 -155 -118 -237t-323 -82zM913 -43q-377 0 -598 205t-221 555t221 555t598 205t598.5 -205t221.5 -555
t-221.5 -555t-598.5 -205zM911 322q186 0 290 104.5t104 290.5t-103 290.5t-289 104.5t-288.5 -104.5t-102.5 -290.5t102.5 -290.5t286.5 -104.5z" />
    <glyph glyph-name="obreve" unicode="&#x14f;" horiz-adv-x="1447" 
d="M723 1288q-205 0 -322.5 82.5t-117.5 237.5q0 54 16 129h283q-7 -44 -7 -60q0 -64 38.5 -90t109.5 -26t108 26t37 90q0 10 -4 60h283q16 -75 16 -129q0 -155 -117.5 -237.5t-322.5 -82.5zM723 -41q-298 0 -472.5 167.5t-174.5 438.5q0 272 174.5 440.5t472.5 168.5
t473.5 -168.5t175.5 -440.5q0 -271 -175.5 -438.5t-473.5 -167.5zM723 283q113 0 177.5 76t64.5 206t-64.5 206.5t-177.5 76.5q-112 0 -176 -76.5t-64 -206.5t64 -206t176 -76z" />
    <glyph glyph-name="Ohungarumlaut" unicode="&#x150;" horiz-adv-x="1826" 
d="M1008 1624l219 365h403v-29l-338 -336h-284zM504 1624l219 365h401v-29l-338 -336h-282zM913 -43q-377 0 -598 205t-221 555t221 555t598 205t598.5 -205t221.5 -555t-221.5 -555t-598.5 -205zM911 322q186 0 290 104.5t104 290.5t-103 290.5t-289 104.5t-288.5 -104.5
t-102.5 -290.5t102.5 -290.5t286.5 -104.5z" />
    <glyph glyph-name="ohungarumlaut" unicode="&#x151;" horiz-adv-x="1447" 
d="M819 1305l219 364h404v-29l-338 -335h-285zM315 1305l220 364h401v-29l-338 -335h-283zM723 -41q-298 0 -472.5 167.5t-174.5 438.5q0 272 174.5 440.5t472.5 168.5t473.5 -168.5t175.5 -440.5q0 -271 -175.5 -438.5t-473.5 -167.5zM723 283q113 0 177.5 76t64.5 206
t-64.5 206.5t-177.5 76.5q-112 0 -176 -76.5t-64 -206.5t64 -206t176 -76z" />
    <glyph glyph-name="OE" unicode="&#x152;" horiz-adv-x="2553" 
d="M94 717q0 341 190.5 529t528.5 188h1597l17 -349h-842v-196h662v-318h-662v-223h866l-16 -348h-1622q-339 0 -529 187t-190 530zM1155 1079h-295q-332 0 -332 -362q0 -361 332 -361h295v723z" />
    <glyph glyph-name="oe" unicode="&#x153;" horiz-adv-x="2250" 
d="M1647 -39q-327 0 -484 189q-155 -191 -454 -191q-289 0 -461 168t-172 438q0 271 172 440t461 169q309 0 465 -205q156 205 440 205q269 0 416 -162.5t147 -425.5q0 -41 -8 -119h-793q21 -100 99 -145.5t215 -45.5q96 0 207.5 30.5t203.5 78.5h2v-317
q-216 -107 -456 -107zM1597 870q-91 0 -146 -52.5t-73 -147.5h434q-9 91 -65.5 145.5t-149.5 54.5zM723 283q114 0 178 76t64 206t-64 206.5t-178 76.5q-112 0 -176 -76.5t-64 -206.5t64 -206t176 -76z" />
    <glyph glyph-name="Racute" unicode="&#x154;" horiz-adv-x="1683" 
d="M602 1583l254 365h463v-29l-361 -336h-356zM174 0v1434h836q283 0 425 -130.5t142 -383.5q0 -347 -279 -459l340 -461h-487l-264 377h-283v-377h-430zM604 713h350q195 0 195 188q0 186 -195 186h-350v-374z" />
    <glyph glyph-name="racute" unicode="&#x155;" horiz-adv-x="962" 
d="M303 1294l254 365h463v-29l-361 -336h-356zM137 0v1133h418v-207q65 107 147.5 170t174.5 63q25 0 45 -2v-422q-33 6 -88 6q-204 0 -277 -112v-629h-420z" />
    <glyph glyph-name="uni0156" unicode="&#x156;" horiz-adv-x="1683" 
d="M174 0v1434h836q283 0 425 -130.5t142 -383.5q0 -347 -279 -459l340 -461h-487l-264 377h-283v-377h-430zM604 713h350q195 0 195 188q0 186 -195 186h-350v-374zM553 -580l113 447h421v-41l-290 -406h-244z" />
    <glyph glyph-name="uni0157" unicode="&#x157;" horiz-adv-x="962" 
d="M137 0v1133h418v-207q65 107 147.5 170t174.5 63q25 0 45 -2v-422q-33 6 -88 6q-204 0 -277 -112v-629h-420zM27 -602l112 446h422v-41l-291 -405h-243z" />
    <glyph glyph-name="Rcaron" unicode="&#x158;" horiz-adv-x="1683" 
d="M1346 1978l-269 -399h-475l-268 399h356l113 -159h76l112 159h355zM174 0v1434h836q283 0 425 -130.5t142 -383.5q0 -347 -279 -459l340 -461h-487l-264 377h-283v-377h-430zM604 713h350q195 0 195 188q0 186 -195 186h-350v-374z" />
    <glyph glyph-name="rcaron" unicode="&#x159;" horiz-adv-x="962" 
d="M1042 1690l-268 -400h-475l-268 400h356l113 -160h75l113 160h354zM137 0v1133h418v-207q65 107 147.5 170t174.5 63q25 0 45 -2v-422q-33 6 -88 6q-204 0 -277 -112v-629h-420z" />
    <glyph glyph-name="Sacute" unicode="&#x15a;" horiz-adv-x="1552" 
d="M586 1622l254 365h463v-29l-361 -336h-356zM799 -39q-178 0 -334 33.5t-324 99.5v393h2q357 -180 676 -180q232 0 232 109q0 23 -9 38t-28 28t-63.5 24t-102 22t-156.5 27q-107 17 -188 38.5t-153.5 56.5t-118.5 81.5t-72.5 113.5t-26.5 152q0 102 44.5 188t130 150.5
t219 101t302.5 36.5q286 0 555 -115v-389l-2 -2q-127 73 -285.5 116t-297.5 43q-230 0 -230 -104q0 -28 15.5 -46.5t52 -31.5t87 -23t130.5 -23q14 -2 22.5 -3.5t21.5 -3.5t24 -4q108 -18 188 -40t153 -57.5t118.5 -83t72.5 -116.5t27 -158q0 -74 -22 -140t-73 -127.5
t-128 -106t-194.5 -71t-264.5 -26.5z" />
    <glyph glyph-name="sacute" unicode="&#x15b;" horiz-adv-x="1222" 
d="M389 1309l254 364h463v-28l-361 -336h-356zM625 -39q-275 0 -506 117v334h2q121 -75 259 -116.5t259 -41.5q139 0 139 72q0 23 -13 35.5t-61.5 28.5t-152.5 38q-122 25 -199 51.5t-134.5 67t-82 98t-24.5 139.5q0 182 144.5 283.5t383.5 101.5q118 0 243 -29t197 -71
v-321h-2q-96 58 -219.5 93.5t-224.5 35.5q-70 0 -101.5 -16t-31.5 -50q0 -22 15.5 -35t66.5 -29t166 -42q229 -49 319 -129t90 -230q0 -184 -137 -284.5t-395 -100.5z" />
    <glyph glyph-name="Scedilla" unicode="&#x15e;" horiz-adv-x="1552" 
d="M330 -397v37l299 329q-231 24 -488 125v393h2q357 -180 676 -180q232 0 232 109q0 23 -9 38t-28 28t-63.5 24t-102 22t-156.5 27q-107 17 -188 38.5t-153.5 56.5t-118.5 81.5t-72.5 113.5t-26.5 152q0 102 44.5 188t130 150.5t219 101t302.5 36.5q286 0 555 -115v-389
l-2 -2q-127 73 -285.5 116t-297.5 43q-230 0 -230 -104q0 -28 15.5 -46.5t52 -31.5t87 -23t130.5 -23q14 -2 22.5 -3.5t21.5 -3.5t24 -4q108 -18 188 -40t153 -57.5t118.5 -83t72.5 -116.5t27 -158q0 -81 -28 -153.5t-86 -136.5t-160 -109t-238 -62l-164 -368h-475z" />
    <glyph glyph-name="scedilla" unicode="&#x15f;" horiz-adv-x="1222" 
d="M180 -399v37l301 331q-194 26 -362 109v334h2q121 -75 259 -116.5t259 -41.5q139 0 139 72q0 23 -13 35.5t-61.5 28.5t-152.5 38q-122 25 -199 51.5t-134.5 67t-82 98t-24.5 139.5q0 182 144.5 283.5t383.5 101.5q118 0 243 -29t197 -71v-321h-2q-96 58 -219.5 93.5
t-224.5 35.5q-70 0 -101.5 -16t-31.5 -50q0 -22 15.5 -35t66.5 -29t166 -42q229 -49 319 -129t90 -230q0 -145 -85 -238t-249 -128l-168 -379h-475z" />
    <glyph glyph-name="Scaron" unicode="&#x160;" horiz-adv-x="1552" 
d="M1331 2017l-268 -399h-475l-269 399h357l112 -159h76l113 159h354zM799 -39q-178 0 -334 33.5t-324 99.5v393h2q357 -180 676 -180q232 0 232 109q0 23 -9 38t-28 28t-63.5 24t-102 22t-156.5 27q-107 17 -188 38.5t-153.5 56.5t-118.5 81.5t-72.5 113.5t-26.5 152
q0 102 44.5 188t130 150.5t219 101t302.5 36.5q286 0 555 -115v-389l-2 -2q-127 73 -285.5 116t-297.5 43q-230 0 -230 -104q0 -28 15.5 -46.5t52 -31.5t87 -23t130.5 -23q14 -2 22.5 -3.5t21.5 -3.5t24 -4q108 -18 188 -40t153 -57.5t118.5 -83t72.5 -116.5t27 -158
q0 -74 -22 -140t-73 -127.5t-128 -106t-194.5 -71t-264.5 -26.5z" />
    <glyph glyph-name="scaron" unicode="&#x161;" horiz-adv-x="1222" 
d="M1135 1704l-269 -399h-475l-268 399h356l113 -160h76l112 160h355zM625 -39q-275 0 -506 117v334h2q121 -75 259 -116.5t259 -41.5q139 0 139 72q0 23 -13 35.5t-61.5 28.5t-152.5 38q-122 25 -199 51.5t-134.5 67t-82 98t-24.5 139.5q0 182 144.5 283.5t383.5 101.5
q118 0 243 -29t197 -71v-321h-2q-96 58 -219.5 93.5t-224.5 35.5q-70 0 -101.5 -16t-31.5 -50q0 -22 15.5 -35t66.5 -29t166 -42q229 -49 319 -129t90 -230q0 -184 -137 -284.5t-395 -100.5z" />
    <glyph glyph-name="uni0162" unicode="&#x162;" horiz-adv-x="1566" 
d="M567 0v1065h-501l16 369h1403l16 -369h-502v-1065h-432zM451 -602l112 446h422v-41l-291 -405h-243z" />
    <glyph glyph-name="uni0163" unicode="&#x163;" horiz-adv-x="974" 
d="M276 0v821h-241l55 312h186v258l414 49v-307h244v-312h-244v-821h-414zM143 -602l113 446h422v-41l-291 -405h-244z" />
    <glyph glyph-name="Tcaron" unicode="&#x164;" horiz-adv-x="1566" 
d="M1290 1978l-268 -399h-475l-268 399h356l113 -159h75l113 159h354zM567 0v1065h-501l16 369h1403l16 -369h-502v-1065h-432z" />
    <glyph glyph-name="tcaron" unicode="&#x165;" horiz-adv-x="974" 
d="M829 1260v372h377v-49l-159 -323h-218zM276 0v821h-241l55 312h186v258l414 49v-307h244v-312h-244v-821h-414z" />
    <glyph glyph-name="Umacron" unicode="&#x16a;" horiz-adv-x="1779" 
d="M465 1614v272h848v-272h-848zM887 -45q-725 0 -725 608v871h430v-838q0 -260 297 -260q299 0 299 254v844h430v-867q0 -612 -731 -612z" />
    <glyph glyph-name="umacron" unicode="&#x16b;" horiz-adv-x="1462" 
d="M299 1313v272h848v-272h-848zM1325 1133v-1133h-414l-2 164q-85 -100 -180 -151.5t-219 -51.5q-179 0 -280 106.5t-101 301.5v764h418v-654q0 -164 147 -164q113 0 211 88v730h420z" />
    <glyph glyph-name="Ubreve" unicode="&#x16c;" horiz-adv-x="1779" 
d="M889 1540q-205 0 -322.5 82.5t-117.5 237.5q0 54 16 129h283q-7 -44 -7 -60q0 -64 38.5 -90.5t109.5 -26.5t108 26.5t37 90.5q0 10 -4 60h283q16 -75 16 -129q0 -155 -117.5 -237.5t-322.5 -82.5zM887 -45q-725 0 -725 608v871h430v-838q0 -260 297 -260q299 0 299 254
v844h430v-867q0 -612 -731 -612z" />
    <glyph glyph-name="ubreve" unicode="&#x16d;" horiz-adv-x="1462" 
d="M723 1247q-205 0 -322.5 82.5t-117.5 237.5q0 54 16 129h283q-7 -44 -7 -60q0 -64 38.5 -90t109.5 -26t108 26t37 90q0 10 -4 60h283q16 -75 16 -129q0 -155 -117.5 -237.5t-322.5 -82.5zM1325 1133v-1133h-414l-2 164q-85 -100 -180 -151.5t-219 -51.5
q-179 0 -280 106.5t-101 301.5v764h418v-654q0 -164 147 -164q113 0 211 88v730h420z" />
    <glyph glyph-name="Uring" unicode="&#x16e;" horiz-adv-x="1779" 
d="M887 1540q-181 0 -284 85t-103 241q0 159 103.5 245.5t285.5 86.5q184 0 288.5 -85.5t104.5 -244.5q0 -156 -106 -242t-289 -86zM889 1749q67 0 104 30.5t37 88.5q0 60 -37.5 91.5t-105.5 31.5q-66 0 -104 -31.5t-38 -91.5q0 -58 38.5 -88.5t105.5 -30.5zM887 -45
q-725 0 -725 608v871h430v-838q0 -260 297 -260q299 0 299 254v844h430v-867q0 -612 -731 -612z" />
    <glyph glyph-name="uring" unicode="&#x16f;" horiz-adv-x="1462" 
d="M721 1247q-181 0 -284 85t-103 241q0 159 103.5 245.5t285.5 86.5q184 0 288.5 -85.5t104.5 -244.5q0 -156 -106 -242t-289 -86zM723 1456q67 0 104 30.5t37 88.5q0 60 -37.5 91.5t-105.5 31.5q-66 0 -103.5 -31.5t-37.5 -91.5q0 -58 38 -88.5t105 -30.5zM1325 1133
v-1133h-414l-2 164q-85 -100 -180 -151.5t-219 -51.5q-179 0 -280 106.5t-101 301.5v764h418v-654q0 -164 147 -164q113 0 211 88v730h420z" />
    <glyph glyph-name="Uhungarumlaut" unicode="&#x170;" horiz-adv-x="1779" 
d="M963 1579l219 365h403v-29l-338 -336h-284zM459 1579l219 365h401v-29l-338 -336h-282zM887 -45q-725 0 -725 608v871h430v-838q0 -260 297 -260q299 0 299 254v844h430v-867q0 -612 -731 -612z" />
    <glyph glyph-name="uhungarumlaut" unicode="&#x171;" horiz-adv-x="1462" 
d="M807 1278l219 364h404v-28l-338 -336h-285zM303 1278l219 364h402v-28l-338 -336h-283zM1325 1133v-1133h-414l-2 164q-85 -100 -180 -151.5t-219 -51.5q-179 0 -280 106.5t-101 301.5v764h418v-654q0 -164 147 -164q113 0 211 88v730h420z" />
    <glyph glyph-name="Uogonek" unicode="&#x172;" horiz-adv-x="1779" 
d="M1196 -596q-127 -39 -248 -39q-94 0 -166.5 16.5t-114 41.5t-68 59.5t-35.5 66t-9 66.5q0 90 63 171.5t193 170.5q-649 30 -649 606v871h430v-838q0 -260 297 -260q299 0 299 254v844h430v-867q0 -499 -483 -592l-86 -79q-97 -93 -115 -116q-25 -33 -25 -63
q0 -71 121 -71q88 0 166 32v-274z" />
    <glyph glyph-name="uogonek" unicode="&#x173;" horiz-adv-x="1462" 
d="M1325 1133v-1133l-106 -100q-97 -93 -115 -116q-25 -33 -25 -63q0 -71 121 -71q85 0 166 33v-275q-127 -39 -248 -39q-94 0 -166.5 16.5t-114 41.5t-68 59.5t-35.5 66t-9 66.5q0 92 68 177t208 179l37 25h-127l-2 164q-85 -100 -180 -151.5t-219 -51.5q-179 0 -280 106.5
t-101 301.5v764h418v-654q0 -164 147 -164q113 0 211 88v730h420z" />
    <glyph glyph-name="Wcircumflex" unicode="&#x174;" horiz-adv-x="2551" 
d="M770 1579l268 399h475l269 -399h-357l-112 162h-76l-113 -162h-354zM442 0l-379 1434h459l234 -996h22l303 996h420l297 -996h23l229 996h438l-377 -1434h-563l-262 864h-12l-266 -864h-566z" />
    <glyph glyph-name="wcircumflex" unicode="&#x175;" horiz-adv-x="2105" 
d="M553 1278l268 399h475l269 -399h-357l-112 162h-76l-113 -162h-354zM360 0l-323 1133h432l168 -725h27l190 718h414l190 -718h29l170 725h411l-325 -1133h-506l-168 643h-29l-174 -643h-506z" />
    <glyph glyph-name="Ycircumflex" unicode="&#x176;" horiz-adv-x="1685" 
d="M336 1579l268 399h475l269 -399h-357l-112 162h-76l-113 -162h-354zM627 0v459l-629 975h483l355 -572h20l358 572h472l-627 -973v-461h-432z" />
    <glyph glyph-name="ycircumflex" unicode="&#x177;" horiz-adv-x="1359" 
d="M188 1278l269 399h475l268 -399h-356l-113 162h-76l-112 -162h-355zM360 -426l136 375l-473 1184h417l260 -709l240 709h410l-592 -1559h-398z" />
    <glyph glyph-name="Ydieresis" unicode="&#x178;" horiz-adv-x="1685" 
d="M567 1563q-96 0 -152.5 53.5t-56.5 140.5t56.5 141t152.5 54q97 0 153 -53.5t56 -141.5q0 -87 -56 -140.5t-153 -53.5zM1118 1563q-96 0 -152.5 53.5t-56.5 140.5t56.5 141t152.5 54q97 0 153 -53.5t56 -141.5q0 -87 -56 -140.5t-153 -53.5zM627 0v459l-629 975h483
l355 -572h20l358 572h472l-627 -973v-461h-432z" />
    <glyph glyph-name="Zacute" unicode="&#x179;" horiz-adv-x="1601" 
d="M582 1583l254 365h462v-29l-360 -336h-356zM127 0v362l776 717h-756l17 355h1313v-334l-809 -744h813v-356h-1354z" />
    <glyph glyph-name="zacute" unicode="&#x17a;" horiz-adv-x="1265" 
d="M416 1282l254 365h463v-29l-361 -336h-356zM109 0v295l553 516h-547l20 322h1032v-289l-565 -522h565v-322h-1058z" />
    <glyph glyph-name="Zdotaccent" unicode="&#x17b;" horiz-adv-x="1601" 
d="M819 1563q-118 0 -182 55t-64 145v2q0 92 64 146.5t184 54.5q119 0 182.5 -54.5t63.5 -146.5v-2q0 -91 -64 -145.5t-184 -54.5zM127 0v362l776 717h-756l17 355h1313v-334l-809 -744h813v-356h-1354z" />
    <glyph glyph-name="zdotaccent" unicode="&#x17c;" horiz-adv-x="1265" 
d="M653 1262q-118 0 -181.5 54.5t-63.5 145.5v2q0 92 63.5 146.5t183.5 54.5q119 0 182.5 -54.5t63.5 -146.5v-2q0 -91 -64 -145.5t-184 -54.5zM109 0v295l553 516h-547l20 322h1032v-289l-565 -522h565v-322h-1058z" />
    <glyph glyph-name="Zcaron" unicode="&#x17d;" horiz-adv-x="1601" 
d="M1327 1978l-268 -399h-475l-269 399h357l112 -159h76l113 159h354zM127 0v362l776 717h-756l17 355h1313v-334l-809 -744h813v-356h-1354z" />
    <glyph glyph-name="zcaron" unicode="&#x17e;" horiz-adv-x="1265" 
d="M1161 1677l-268 -399h-475l-268 399h356l112 -159h76l113 159h354zM109 0v295l553 516h-547l20 322h1032v-289l-565 -522h565v-322h-1058z" />
    <glyph glyph-name="Aringacute" unicode="&#x1fa;" horiz-adv-x="1769" 
d="M707 2339l254 364h462v-28l-360 -336h-356zM881 1563q-181 0 -284 84.5t-103 240.5q0 159 103.5 245.5t285.5 86.5q184 0 288.5 -85.5t104.5 -244.5q0 -156 -106 -241.5t-289 -85.5zM883 1772q67 0 104 30t37 88q0 60 -37.5 91.5t-105.5 31.5q-66 0 -104 -31.5t-38 -91.5
q0 -57 38.5 -87.5t105.5 -30.5zM41 0l498 1434h692l498 -1434h-451l-100 297h-592l-103 -297h-442zM844 1069l-154 -451h385l-153 451h-78z" />
    <glyph glyph-name="aringacute" unicode="&#x1fb;" horiz-adv-x="1316" 
d="M467 2064l254 365h463v-29l-361 -336h-356zM666 1288q-181 0 -284 85t-103 241q0 159 103.5 245.5t285.5 86.5q184 0 288.5 -85.5t104.5 -244.5q0 -156 -106 -242t-289 -86zM668 1497q67 0 104 30.5t37 88.5q0 60 -37.5 91.5t-105.5 31.5q-66 0 -104 -31.5t-38 -91.5
q0 -58 38.5 -88.5t105.5 -30.5zM444 -35q-179 0 -275.5 84t-96.5 227q0 130 86 216q159 159 639 190q-2 77 -45 115.5t-140 38.5q-101 0 -214.5 -35.5t-219.5 -100.5h-2v351q236 118 506 118q264 0 390 -118.5t126 -352.5v-698h-381l-6 125q-154 -160 -367 -160zM586 242
q65 0 122.5 24.5t88.5 55.5v161q-252 -28 -312 -88q-26 -26 -26 -63q0 -41 33.5 -65.5t93.5 -24.5z" />
    <glyph glyph-name="AEacute" unicode="&#x1fc;" horiz-adv-x="2607" 
d="M1217 1583l253 365h463v-29l-360 -336h-356zM1210 0v297h-557l-166 -297h-481l821 1434h1635l16 -349h-842v-196h664v-318h-664v-223h869l-17 -348h-1278zM1085 1079l-256 -463h381v463h-125z" />
    <glyph glyph-name="aeacute" unicode="&#x1fd;" horiz-adv-x="2082" 
d="M831 1290l254 365h463v-29l-360 -336h-357zM1933 68q-216 -107 -467 -107q-355 0 -528 195q-206 -191 -489 -191q-183 0 -280 84t-97 227q0 130 86 216q159 159 643 192q-2 76 -47 114t-142 38q-101 0 -214.5 -35.5t-219.5 -100.5h-2v351q236 118 502 118q259 0 377 -145
q153 150 391 150q135 0 242 -44t176.5 -122.5t106 -186t36.5 -235.5q0 -41 -8 -119h-793q21 -100 99.5 -145.5t214.5 -45.5q96 0 208.5 30.5t202.5 78.5h2v-317zM1427 870q-178 0 -219 -200h434q-9 91 -65.5 145.5t-149.5 54.5zM459 332q0 -41 33.5 -65.5t93.5 -24.5
q78 0 145 25.5t109 60.5q-28 86 -33 155q-255 -24 -322 -88q-26 -26 -26 -63z" />
    <glyph glyph-name="Oslashacute" unicode="&#x1fe;" horiz-adv-x="1826" 
d="M676 1628l254 365h463v-29l-361 -336h-356zM39 -121l244 318q-189 201 -189 520q0 350 221 555t598 205q206 0 363 -62l110 139h402l-242 -317q187 -203 187 -520q0 -350 -221.5 -555t-598.5 -205q-204 0 -362 61l-109 -139h-403zM508 717q0 -139 51 -228l488 619
q-66 16 -134 16q-192 0 -298.5 -107t-106.5 -300zM911 309q192 0 300 107.5t108 300.5q0 133 -51 227l-488 -620q62 -15 131 -15z" />
    <glyph glyph-name="oslashacute" unicode="&#x1ff;" horiz-adv-x="1447" 
d="M485 1323l254 365h463v-29l-360 -336h-357zM723 -41q-161 0 -291 51l-82 -110h-338l199 268q-135 160 -135 397q0 272 174.5 440.5t472.5 168.5q159 0 291 -52l84 111h338l-199 -270q135 -156 135 -398q0 -271 -175.5 -438.5t-473.5 -167.5zM465 565q0 -70 20 -135
l330 422q-38 14 -92 14q-121 0 -189.5 -80t-68.5 -221zM723 266q123 0 191.5 79.5t68.5 219.5q0 72 -20 137l-332 -421q43 -15 92 -15z" />
    <glyph glyph-name="uni0218" unicode="&#x218;" horiz-adv-x="1552" 
d="M799 -39q-178 0 -334 33.5t-324 99.5v393h2q357 -180 676 -180q232 0 232 109q0 23 -9 38t-28 28t-63.5 24t-102 22t-156.5 27q-107 17 -188 38.5t-153.5 56.5t-118.5 81.5t-72.5 113.5t-26.5 152q0 102 44.5 188t130 150.5t219 101t302.5 36.5q286 0 555 -115v-389
l-2 -2q-127 73 -285.5 116t-297.5 43q-230 0 -230 -104q0 -28 15.5 -46.5t52 -31.5t87 -23t130.5 -23q14 -2 22.5 -3.5t21.5 -3.5t24 -4q108 -18 188 -40t153 -57.5t118.5 -83t72.5 -116.5t27 -158q0 -74 -22 -140t-73 -127.5t-128 -106t-194.5 -71t-264.5 -26.5zM469 -629
l113 447h422v-41l-291 -406h-244z" />
    <glyph glyph-name="uni0219" unicode="&#x219;" horiz-adv-x="1222" 
d="M625 -39q-275 0 -506 117v334h2q121 -75 259 -116.5t259 -41.5q139 0 139 72q0 23 -13 35.5t-61.5 28.5t-152.5 38q-122 25 -199 51.5t-134.5 67t-82 98t-24.5 139.5q0 182 144.5 283.5t383.5 101.5q118 0 243 -29t197 -71v-321h-2q-96 58 -219.5 93.5t-224.5 35.5
q-70 0 -101.5 -16t-31.5 -50q0 -22 15.5 -35t66.5 -29t166 -42q229 -49 319 -129t90 -230q0 -184 -137 -284.5t-395 -100.5zM297 -629l113 447h421v-41l-290 -406h-244z" />
    <glyph glyph-name="uni0259" unicode="&#x259;" horiz-adv-x="1361" 
d="M653 -39q-141 0 -252 44t-182 123t-108 185.5t-37 235.5q0 41 8 119h792q-21 100 -99 145t-214 45q-96 0 -208 -30t-203 -78h-3v317q216 107 467 107q321 0 496.5 -153.5t175.5 -428.5q0 -279 -175 -455t-458 -176zM653 264q178 0 219 201h-434q9 -91 65.5 -146
t149.5 -55z" />
    <glyph glyph-name="uni02BB" unicode="&#x2bb;" horiz-adv-x="808" 
d="M129 750v86l313 598h228l-95 -684h-446z" />
    <glyph glyph-name="circumflex" unicode="&#x2c6;" horiz-adv-x="1024" 
d="M6 1278l268 399h476l268 -399h-356l-113 162h-76l-113 -162h-354z" />
    <glyph glyph-name="caron" unicode="&#x2c7;" horiz-adv-x="1024" 
d="M1018 1677l-268 -399h-476l-268 399h356l113 -159h76l113 159h354z" />
    <glyph glyph-name="breve" unicode="&#x2d8;" horiz-adv-x="1024" 
d="M512 1262q-205 0 -322.5 82t-117.5 237q0 54 16 129h283q-6 -38 -6 -59q0 -64 38 -90.5t109 -26.5t108 26.5t37 90.5q0 9 -4 59h283q16 -75 16 -129q0 -155 -117.5 -237t-322.5 -82z" />
    <glyph glyph-name="dotaccent" unicode="&#x2d9;" horiz-adv-x="1024" 
d="M508 1262q-118 0 -182 55t-64 145v2q0 92 64 146.5t184 54.5q119 0 182.5 -54.5t63.5 -146.5v-2q0 -91 -64 -145.5t-184 -54.5z" />
    <glyph glyph-name="ring" unicode="&#x2da;" horiz-adv-x="1021" 
d="M508 1262q-181 0 -284 84.5t-103 240.5q0 159 103.5 245.5t285.5 86.5q184 0 288.5 -85.5t104.5 -244.5q0 -156 -106 -241.5t-289 -85.5zM510 1470q67 0 104 30.5t37 88.5q0 60 -37.5 91.5t-105.5 31.5q-66 0 -103.5 -31.5t-37.5 -91.5q0 -58 38 -88.5t105 -30.5z" />
    <glyph glyph-name="ogonek" unicode="&#x2db;" horiz-adv-x="1024" 
d="M635 123l162 -123l-107 -100q-97 -93 -116 -118q-23 -32 -23 -61q0 -71 121 -71q85 0 166 33v-275q-127 -39 -250 -39q-95 0 -167 17t-113.5 43t-67.5 62t-34.5 68t-8.5 68q0 97 64.5 183.5t201.5 185.5z" />
    <glyph glyph-name="tilde" unicode="&#x2dc;" horiz-adv-x="1024" 
d="M324 1669q57 0 103.5 -14.5t129.5 -52.5q65 -28 94.5 -38t57.5 -10q55 0 104.5 32t114.5 108h2v-316q-108 -112 -242 -112q-58 0 -105.5 14t-127.5 51q-102 47 -152 47q-56 0 -106 -31t-115 -106h-2v313q115 115 244 115z" />
    <glyph glyph-name="hungarumlaut" unicode="&#x2dd;" horiz-adv-x="1024" 
d="M487 1278l220 364h403v-28l-338 -336h-285zM-16 1278l219 364h401v-28l-338 -336h-282z" />
    <glyph glyph-name="uni0326" unicode="&#x326;" horiz-adv-x="1024" 
d="M236 -602l112 446h422v-41l-291 -405h-243z" />
    <glyph glyph-name="Wgrave" unicode="&#x1e80;" horiz-adv-x="2551" 
d="M1470 1583h-358l-360 336v29h465zM442 0l-379 1434h459l234 -996h22l303 996h420l297 -996h23l229 996h438l-377 -1434h-563l-262 864h-12l-266 -864h-566z" />
    <glyph glyph-name="wgrave" unicode="&#x1e81;" horiz-adv-x="2105" 
d="M1239 1282h-358l-361 336v29h465zM360 0l-323 1133h432l168 -725h27l190 718h414l190 -718h29l170 725h411l-325 -1133h-506l-168 643h-29l-174 -643h-506z" />
    <glyph glyph-name="Wacute" unicode="&#x1e82;" horiz-adv-x="2551" 
d="M1112 1583l254 365h463v-29l-361 -336h-356zM442 0l-379 1434h459l234 -996h22l303 996h420l297 -996h23l229 996h438l-377 -1434h-563l-262 864h-12l-266 -864h-566z" />
    <glyph glyph-name="wacute" unicode="&#x1e83;" horiz-adv-x="2105" 
d="M881 1282l254 365h462v-29l-360 -336h-356zM360 0l-323 1133h432l168 -725h27l190 718h414l190 -718h29l170 725h411l-325 -1133h-506l-168 643h-29l-174 -643h-506z" />
    <glyph glyph-name="Wdieresis" unicode="&#x1e84;" horiz-adv-x="2551" 
d="M1001 1563q-96 0 -152 53.5t-56 140.5t56 141t152 54q97 0 153 -53.5t56 -141.5q0 -87 -56 -140.5t-153 -53.5zM1552 1563q-96 0 -152.5 53.5t-56.5 140.5t56.5 141t152.5 54q97 0 153 -53.5t56 -141.5q0 -87 -56 -140.5t-153 -53.5zM442 0l-379 1434h459l234 -996h22
l303 996h420l297 -996h23l229 996h438l-377 -1434h-563l-262 864h-12l-266 -864h-566z" />
    <glyph glyph-name="wdieresis" unicode="&#x1e85;" horiz-adv-x="2105" 
d="M784 1262q-96 0 -152.5 53.5t-56.5 140.5t56.5 141t152.5 54q97 0 153 -53.5t56 -141.5q0 -87 -56 -140.5t-153 -53.5zM1335 1262q-96 0 -152.5 53.5t-56.5 140.5t56.5 141t152.5 54q97 0 153 -53.5t56 -141.5q0 -87 -56 -140.5t-153 -53.5zM360 0l-323 1133h432
l168 -725h27l190 718h414l190 -718h29l170 725h411l-325 -1133h-506l-168 643h-29l-174 -643h-506z" />
    <glyph glyph-name="uni1E9E" unicode="&#x1e9e;" horiz-adv-x="1792" 
d="M604 0h-430v1434h1452v-351l-332 -276l70 -23q195 -60 277.5 -154.5t82.5 -242.5q0 -208 -141 -317t-424 -109q-216 0 -393 59v351h2q170 -74 354 -74q99 0 141 29t42 86q0 58 -62.5 91t-247.5 79l-123 30v215l316 265h-584v-1092z" />
    <glyph glyph-name="Ygrave" unicode="&#x1ef2;" horiz-adv-x="1685" 
d="M1087 1561h-358l-360 335v29h465zM627 0v459l-629 975h483l355 -572h20l358 572h472l-627 -973v-461h-432z" />
    <glyph glyph-name="ygrave" unicode="&#x1ef3;" horiz-adv-x="1359" 
d="M940 1268h-358l-361 336v28h465zM360 -426l136 375l-473 1184h417l260 -709l240 709h410l-592 -1559h-398z" />
    <glyph glyph-name="uni2002" unicode="&#x2002;" horiz-adv-x="1024" 
 />
    <glyph glyph-name="uni2003" unicode="&#x2003;" horiz-adv-x="2048" 
 />
    <glyph glyph-name="uni2004" unicode="&#x2004;" horiz-adv-x="681" 
 />
    <glyph glyph-name="uni2005" unicode="&#x2005;" horiz-adv-x="512" 
 />
    <glyph glyph-name="uni2007" unicode="&#x2007;" horiz-adv-x="1482" 
 />
    <glyph glyph-name="uni2008" unicode="&#x2008;" horiz-adv-x="845" 
 />
    <glyph glyph-name="uni2009" unicode="&#x2009;" horiz-adv-x="272" 
 />
    <glyph glyph-name="uni200A" unicode="&#x200a;" horiz-adv-x="153" 
 />
    <glyph glyph-name="uni200B" unicode="&#x200b;" horiz-adv-x="0" 
 />
    <glyph glyph-name="uni200C" unicode="&#x200c;" horiz-adv-x="0" 
 />
    <glyph glyph-name="uni200D" unicode="&#x200d;" horiz-adv-x="0" 
 />
    <glyph glyph-name="endash" unicode="&#x2013;" horiz-adv-x="1417" 
d="M135 487v355h1145v-355h-1145z" />
    <glyph glyph-name="emdash" unicode="&#x2014;" horiz-adv-x="1777" 
d="M135 487v355h1507v-355h-1507z" />
    <glyph glyph-name="quoteleft" unicode="&#x2018;" horiz-adv-x="808" 
d="M129 750v86l313 598h228l-95 -684h-446z" />
    <glyph glyph-name="quoteright" unicode="&#x2019;" horiz-adv-x="808" 
d="M139 750l94 684h447v-86l-315 -598h-226z" />
    <glyph glyph-name="quotesinglbase" unicode="&#x201a;" horiz-adv-x="790" 
d="M121 -297l94 684h447v-86l-316 -598h-225z" />
    <glyph glyph-name="quotedblleft" unicode="&#x201c;" horiz-adv-x="1384" 
d="M129 750v86l309 598h221l-94 -684h-436zM715 750v86l309 598h221l-94 -684h-436z" />
    <glyph glyph-name="quotedblright" unicode="&#x201d;" horiz-adv-x="1384" 
d="M139 750l94 684h437v-86l-310 -598h-221zM725 750l94 684h436v-86l-309 -598h-221z" />
    <glyph glyph-name="quotedblbase" unicode="&#x201e;" horiz-adv-x="1366" 
d="M121 -297l94 684h436v-86l-309 -598h-221zM707 -297l94 684h436v-86l-309 -598h-221z" />
    <glyph glyph-name="dagger" unicode="&#x2020;" horiz-adv-x="1079" 
d="M379 344v565h-283l17 277h266v248h326v-248h272v-277h-272v-565h-326z" />
    <glyph glyph-name="daggerdbl" unicode="&#x2021;" horiz-adv-x="1083" 
d="M379 231v246h-273v258h273v195h-283l17 258h266v246h326v-246h272v-258h-272v-195h282l-18 -258h-264v-246h-326z" />
    <glyph glyph-name="bullet" unicode="&#x2022;" horiz-adv-x="929" 
d="M465 315q-170 0 -266.5 99t-96.5 243v7q0 144 96.5 242t266.5 98q168 0 264 -98t96 -242v-7q0 -144 -96 -243t-264 -99z" />
    <glyph glyph-name="ellipsis" unicode="&#x2026;" horiz-adv-x="2514" 
d="M422 -23q-117 0 -184.5 64.5t-67.5 165.5v2q0 102 67.5 166.5t184.5 64.5t185.5 -64t68.5 -165v-2q0 -102 -68.5 -167t-185.5 -65zM1257 -23q-117 0 -184 64.5t-67 165.5v2q0 102 67 166.5t184 64.5t185.5 -64t68.5 -165v-2q0 -102 -68.5 -167t-185.5 -65zM2091 -23
q-117 0 -184.5 64.5t-67.5 165.5v2q0 102 67.5 166.5t184.5 64.5t185.5 -64t68.5 -165v-2q0 -102 -68.5 -167t-185.5 -65z" />
    <glyph glyph-name="uni202F" unicode="&#x202f;" horiz-adv-x="272" 
 />
    <glyph glyph-name="guilsinglleft" unicode="&#x2039;" horiz-adv-x="978" 
d="M891 82h-465l-360 467v35l360 467h465l-371 -486z" />
    <glyph glyph-name="guilsinglright" unicode="&#x203a;" horiz-adv-x="978" 
d="M88 1051h465l360 -467v-35l-360 -467h-465l371 485z" />
    <glyph glyph-name="fraction" unicode="&#x2044;" horiz-adv-x="559" 
d="M-395 2l1059 1432h290v-2l-1058 -1432h-291v2z" />
    <glyph glyph-name="zero.sup" unicode="&#x2070;" horiz-adv-x="970" 
d="M483 700q-205 0 -309 118t-104 341q0 222 106.5 340.5t310.5 118.5q205 0 309.5 -117t104.5 -340t-107 -342t-311 -119zM485 946q68 0 99.5 50.5t31.5 162.5q0 114 -31 163.5t-100 49.5q-68 0 -99.5 -50t-31.5 -163q0 -112 31 -162.5t100 -50.5z" />
    <glyph glyph-name="four.sup" unicode="&#x2074;" horiz-adv-x="970" 
d="M532 731v154h-464v213l204 489h535v-477h111l-15 -225h-96v-154h-275zM342 1102h203v264h-99z" />
    <glyph glyph-name="five.sup" unicode="&#x2075;" horiz-adv-x="970" 
d="M483 702q-186 0 -342 48v243h2q162 -51 316 -51q79 0 105 17.5t26 46.5q0 22 -19 36q-42 29 -252 29h-165l12 516h653l10 -235h-413l-2 -90h12q159 0 246 -20.5t137 -70.5q65 -65 65 -178q0 -136 -104.5 -213.5t-286.5 -77.5z" />
    <glyph glyph-name="six.sup" unicode="&#x2076;" horiz-adv-x="970" 
d="M506 702q-203 0 -308.5 108.5t-105.5 326.5q0 227 124 354t343 127q137 0 270 -47v-244q-68 30 -123.5 42.5t-127.5 12.5q-96 0 -153 -42t-56 -123q89 59 217 59q142 0 222.5 -65t80.5 -191q0 -148 -105.5 -233t-277.5 -85zM514 1090q-79 0 -145 -39q4 -67 38 -95t95 -28
q53 0 82.5 23t29.5 63q0 76 -100 76z" />
    <glyph glyph-name="seven.sup" unicode="&#x2077;" horiz-adv-x="970" 
d="M111 1219v368h766v-291l-334 -565h-320l340 574v57h-188v-143h-264z" />
    <glyph glyph-name="eight.sup" unicode="&#x2078;" horiz-adv-x="970" 
d="M485 702q-405 0 -405 259q0 75 41 125.5t129 80.5q-150 51 -150 187q0 125 98.5 193.5t286.5 68.5t286.5 -68.5t98.5 -193.5q0 -136 -149 -187q88 -30 129 -80.5t41 -125.5q0 -259 -406 -259zM485 1247q119 0 119 76q0 80 -119 80q-118 0 -118 -80q0 -76 118 -76z
M485 915q129 0 129 82t-129 82t-129 -82t129 -82z" />
    <glyph glyph-name="nine.sup" unicode="&#x2079;" horiz-adv-x="970" 
d="M471 1616q203 0 308.5 -108t105.5 -326q0 -227 -124 -354.5t-343 -127.5q-135 0 -271 48v243q124 -55 252 -55q96 0 153 42.5t56 123.5q-91 -60 -217 -60q-142 0 -222.5 65t-80.5 191q0 148 105.5 233t277.5 85zM362 1305q0 -76 101 -76q79 0 145 39q-4 67 -38 95t-95 28
q-54 0 -83.5 -23t-29.5 -63z" />
    <glyph glyph-name="zero.inf" unicode="&#x2080;" horiz-adv-x="970" 
d="M483 -453q-205 0 -309 118t-104 341q0 222 106.5 340.5t310.5 118.5q205 0 309.5 -117t104.5 -340t-107 -342t-311 -119zM485 -207q68 0 99.5 50.5t31.5 162.5q0 114 -31 163.5t-100 49.5q-68 0 -99.5 -50t-31.5 -163q0 -112 31 -162.5t100 -50.5z" />
    <glyph glyph-name="one.inf" unicode="&#x2081;" horiz-adv-x="749" 
d="M262 -422v617h-182l37 239h448v-856h-303z" />
    <glyph glyph-name="two.inf" unicode="&#x2082;" horiz-adv-x="970" 
d="M127 -422v232l197 143q110 75 162.5 117t63.5 58t11 34q0 49 -90 49q-62 0 -143 -28t-164 -81h-2v267q179 96 360 96q163 0 251.5 -66.5t88.5 -189.5q0 -52 -16 -93.5t-58.5 -85t-94.5 -82.5t-144 -100l-43 -30h348v-240h-727z" />
    <glyph glyph-name="three.inf" unicode="&#x2083;" horiz-adv-x="970" 
d="M469 -453q-171 0 -332 52v245h2q181 -55 307 -55q77 0 111.5 15t34.5 49q0 26 -19 39.5t-75 20.5t-164 7h-35v125l229 154h-387l6 235h687v-217l-216 -145q127 -15 194 -74t67 -162q0 -138 -112.5 -213.5t-297.5 -75.5z" />
    <glyph glyph-name="four.inf" unicode="&#x2084;" horiz-adv-x="970" 
d="M532 -422v154h-464v213l204 489h535v-477h111l-15 -225h-96v-154h-275zM342 -51h203v264h-99z" />
    <glyph glyph-name="five.inf" unicode="&#x2085;" horiz-adv-x="970" 
d="M483 -451q-186 0 -342 48v243h2q162 -51 316 -51q79 0 105 17.5t26 46.5q0 22 -19 36q-42 29 -252 29h-165l12 516h653l10 -235h-413l-2 -90h12q159 0 246 -20.5t137 -70.5q65 -65 65 -178q0 -136 -104.5 -213.5t-286.5 -77.5z" />
    <glyph glyph-name="six.inf" unicode="&#x2086;" horiz-adv-x="970" 
d="M506 -451q-203 0 -308.5 108.5t-105.5 326.5q0 227 124 354t343 127q137 0 270 -47v-244q-68 30 -123.5 42.5t-127.5 12.5q-96 0 -153 -42.5t-56 -123.5q91 60 217 60q142 0 222.5 -65t80.5 -191q0 -148 -105.5 -233t-277.5 -85zM514 -63q-79 0 -145 -39q4 -67 38 -95
t95 -28q53 0 82.5 23t29.5 63q0 76 -100 76z" />
    <glyph glyph-name="seven.inf" unicode="&#x2087;" horiz-adv-x="970" 
d="M111 66v368h766v-291l-334 -565h-320l340 574v57h-188v-143h-264z" />
    <glyph glyph-name="eight.inf" unicode="&#x2088;" horiz-adv-x="970" 
d="M485 -451q-405 0 -405 258q0 148 170 207q-150 51 -150 187q0 125 98.5 193.5t286.5 68.5t286.5 -68.5t98.5 -193.5q0 -136 -149 -187q170 -59 170 -207q0 -258 -406 -258zM485 94q119 0 119 76q0 80 -119 80q-118 0 -118 -80q0 -76 118 -76zM485 -238q129 0 129 82
t-129 82t-129 -82t129 -82z" />
    <glyph glyph-name="nine.inf" unicode="&#x2089;" horiz-adv-x="970" 
d="M471 463q203 0 308.5 -108t105.5 -326q0 -227 -124 -354.5t-343 -127.5q-138 0 -271 47v244q124 -55 252 -55q96 0 153 42.5t56 123.5q-91 -60 -217 -60q-142 0 -222.5 65t-80.5 191q0 148 105.5 233t277.5 85zM362 152q0 -76 101 -76q79 0 145 39q-4 67 -38 95t-95 28
q-54 0 -83.5 -23t-29.5 -63z" />
    <glyph glyph-name="colonmonetary" unicode="&#x20a1;" horiz-adv-x="1417" 
d="M248 -225l92 334q-141 99 -216 253.5t-75 342.5q0 292 174.5 498t478.5 251l54 195h270l-51 -189q56 -5 125 -22l57 211h270l-174 -637h-2q-171 94 -352 94q-195 0 -307.5 -108.5t-112.5 -286.5q0 -171 111.5 -278t308.5 -107q188 0 371 94h2v-369q-135 -61 -297 -76
l-53 -200h-273l56 200q-53 7 -125 25l-62 -225h-270z" />
    <glyph glyph-name="uni20A6" unicode="&#x20a6;" horiz-adv-x="1959" 
d="M342 0v418h-266l22 246h244v131h-231l22 245h209v394h418l500 -787h10v787h383v-394h221v-245h-221v-131h221v-246h-221v-418h-406l-512 807h-10v-807h-383z" />
    <glyph glyph-name="uni20A8" unicode="&#x20a8;" horiz-adv-x="2781" 
d="M174 0v1434h784q279 0 418.5 -130t139.5 -382q0 -342 -269 -457l338 -465h-475l-264 381h-252v-381h-420zM2181 -39q-272 0 -506 117v334h2q121 -74 260.5 -115t260.5 -41q139 0 139 70q0 21 -13.5 33.5t-62 28.5t-152.5 38q-244 52 -342 125.5t-98 232.5
q0 182 144.5 283.5t384.5 101.5q118 0 243 -29t197 -71v-324l-2 3q-96 58 -220.5 93.5t-226.5 35.5q-131 0 -131 -66q0 -22 15.5 -35.5t67.5 -29.5t165 -41q230 -49 321 -129t91 -230q0 -184 -138.5 -284.5t-398.5 -100.5zM594 709h307q102 0 149.5 52t47.5 142
q0 195 -197 195h-307v-389z" />
    <glyph glyph-name="Euro" unicode="&#x20ac;" horiz-adv-x="1648" 
d="M92 418l25 244h182v43q0 25 4 79h-176l25 244h208q83 203 270 322.5t462 119.5q221 0 407 -92v-336h-2q-214 103 -379 103q-245 0 -356 -154h473v-207h-543q-4 -46 -4 -73q0 -33 2 -49h545v-207h-485q103 -166 364 -166q171 0 383 94h2v-336q-185 -84 -426 -84
q-294 0 -477 122.5t-254 332.5h-250z" />
    <glyph glyph-name="uni20B1" unicode="&#x20b1;" horiz-adv-x="1810" 
d="M326 0v745h-250l49 277h201v412h766q211 0 338.5 -108t158.5 -304h191v-277h-197q-39 -191 -175.5 -292t-346.5 -101h-322v-352h-413zM739 676h275q89 0 135.5 60t46.5 153q0 102 -47 157.5t-139 55.5h-271v-426z" />
    <glyph glyph-name="uni20B9" unicode="&#x20b9;" horiz-adv-x="1611" 
d="M1327 0h-596l-541 367v280h418q102 0 157.5 36.5t74.5 109.5h-650v200h650q-20 77 -82.5 111.5t-184.5 34.5h-383v295h1305l-20 -295h-301q46 -55 67 -131h223l-16 -250h-197q-30 -176 -155 -279.5t-320 -103.5h-16z" />
    <glyph glyph-name="uni20BD" unicode="&#x20bd;" horiz-adv-x="1718" 
d="M76 160l24 254h244v123h-238l27 258h211v639h786q247 0 377.5 -118.5t130.5 -326.5q0 -222 -143 -337t-395 -115h-338v-123h620v-254h-620v-160h-418v160h-268zM762 795h287q190 0 190 161q0 84 -45.5 125t-146.5 41h-285v-327z" />
    <glyph glyph-name="uni2116" unicode="&#x2116;" horiz-adv-x="2949" 
d="M2329 1460q253 0 397.5 -138t144.5 -364q0 -225 -145 -363t-397 -138q-254 0 -399.5 137.5t-145.5 363.5q0 225 145.5 363.5t399.5 138.5zM199 0v1434h432l532 -816h13v816h387v-1434h-416l-549 836h-14v-836h-385zM2329 1174q-93 0 -143 -58t-50 -158q0 -102 49 -158.5
t144 -56.5q93 0 141.5 57t48.5 158q0 102 -48.5 159t-141.5 57zM1858 303h940v-303h-940v303z" />
    <glyph glyph-name="uni2117" unicode="&#x2117;" horiz-adv-x="2019" 
d="M1010 -127q-276 0 -485.5 103.5t-325 296.5t-115.5 450q0 256 115.5 448.5t325 296t485.5 103.5q275 0 484 -103.5t324 -296t115 -448.5q0 -257 -115 -450t-324 -296.5t-484 -103.5zM1010 115q302 0 470.5 158t168.5 450q0 291 -168.5 448.5t-470.5 157.5t-470.5 -157.5
t-168.5 -448.5q0 -292 168.5 -450t470.5 -158zM674 354v744h471q138 0 214.5 -75.5t76.5 -211.5q0 -144 -86 -217.5t-224 -73.5h-198v-166h-254zM928 719h170q43 0 63.5 24.5t20.5 61.5q0 92 -86 92h-168v-178z" />
    <glyph glyph-name="uni2120" unicode="&#x2120;" horiz-adv-x="2086" 
d="M510 637q-184 0 -360 72v229h2q193 -100 372 -100q63 0 88 10t25 33q0 26 -28 36.5t-152 32.5q-84 15 -138 32t-95.5 45t-60 69.5t-18.5 101.5q0 118 99 188t284 70q150 0 312 -61v-228h-2q-70 39 -159.5 62.5t-168.5 23.5q-58 0 -83.5 -10t-25.5 -33q0 -24 28 -34.5
t151 -32.5q81 -15 135.5 -33t96 -46.5t60.5 -71t19 -101.5q0 -53 -19.5 -96.5t-62 -80t-119 -57t-180.5 -20.5zM1016 659v775h303l166 -301l155 301h304v-775h-244v445l-209 -365h-25l-206 363v-443h-244z" />
    <glyph glyph-name="trademark" unicode="&#x2122;" horiz-adv-x="2121" 
d="M403 659v553h-274l10 222h793l12 -222h-274v-553h-267zM1051 659v775h305l164 -301l157 301h303v-775h-245v445l-209 -365h-23l-209 365v-445h-243z" />
    <glyph glyph-name="onethird" unicode="&#x2153;" horiz-adv-x="2115" 
d="M262 578v616h-182l37 240h448v-856h-303zM272 2l1059 1432h291v-2l-1059 -1432h-291v2zM1614 -31q-174 0 -332 51v246h2q181 -55 307 -55q77 0 111.5 14.5t34.5 48.5q0 39 -50.5 53.5t-207.5 14.5h-35v125l229 154h-387l6 235h686v-217l-215 -145q127 -15 193.5 -74
t66.5 -162q0 -138 -112 -213.5t-297 -75.5z" />
    <glyph glyph-name="twothirds" unicode="&#x2154;" horiz-adv-x="2367" 
d="M127 578v231l197 143q110 75 162.5 117t63.5 58t11 34q0 49 -90 49q-137 0 -307 -108h-2v266q179 96 360 96q163 0 251.5 -66.5t88.5 -189.5q0 -99 -66 -170t-247 -190l-43 -31h348v-239h-727zM524 2l1059 1432h291v-2l-1059 -1432h-291v2zM1866 -31q-174 0 -332 51v246
h2q181 -55 307 -55q77 0 111.5 14.5t34.5 48.5q0 39 -50.5 53.5t-207.5 14.5h-35v125l229 154h-387l6 235h686v-217l-215 -145q127 -15 193.5 -74t66.5 -162q0 -138 -112 -213.5t-297 -75.5z" />
    <glyph glyph-name="uni2155" unicode="&#x2155;" horiz-adv-x="2099" 
d="M262 578v616h-182l37 240h448v-856h-303zM272 2l1059 1432h291v-2l-1059 -1432h-291v2zM1612 -29q-190 0 -342 47v244h2q162 -51 315 -51q79 0 105 17t26 46q0 24 -18 37q-42 29 -252 29h-166l12 516h654l10 -235h-414l-2 -91h12q159 0 246 -20t137 -70q66 -66 66 -178
q0 -136 -104.5 -213.5t-286.5 -77.5z" />
    <glyph glyph-name="uni2156" unicode="&#x2156;" horiz-adv-x="2353" 
d="M127 578v231l197 143q110 75 162.5 117t63.5 58t11 34q0 49 -90 49q-137 0 -307 -108h-2v266q179 96 360 96q163 0 251.5 -66.5t88.5 -189.5q0 -99 -66 -170t-247 -190l-43 -31h348v-239h-727zM524 2l1059 1432h291v-2l-1059 -1432h-291v2zM1866 -29q-190 0 -342 47v244
h2q162 -51 315 -51q79 0 105 17t26 46q0 24 -18 37q-42 29 -252 29h-166l12 516h654l10 -235h-414l-2 -91h12q159 0 246 -20t137 -70q66 -66 66 -178q0 -136 -104.5 -213.5t-286.5 -77.5z" />
    <glyph glyph-name="uni2157" unicode="&#x2157;" horiz-adv-x="2306" 
d="M469 547q-174 0 -332 51v246h2q184 -56 307 -56q77 0 111.5 15t34.5 49q0 39 -50.5 53.5t-207.5 14.5h-35v124l229 154h-387l6 236h687v-217l-216 -146q261 -31 261 -235q0 -138 -112.5 -213.5t-297.5 -75.5zM479 2l1059 1432h291v-2l-1059 -1432h-291v2zM1819 -29
q-190 0 -342 47v244h2q162 -51 315 -51q79 0 105 17t26 46q0 24 -18 37q-42 29 -252 29h-166l12 516h653l11 -235h-414l-2 -91h12q159 0 246 -20t137 -70q66 -66 66 -178q0 -136 -104.5 -213.5t-286.5 -77.5z" />
    <glyph glyph-name="uni2158" unicode="&#x2158;" horiz-adv-x="2340" 
d="M532 578v153h-464v213l204 490h535v-478h111l-15 -225h-96v-153h-275zM514 2l1059 1432h291v-2l-1059 -1432h-291v2zM342 948h203v264h-99zM1853 -29q-190 0 -342 47v244h2q162 -51 316 -51q79 0 105 17t26 46q0 24 -18 37q-42 29 -252 29h-166l12 516h653l11 -235h-414
l-2 -91h12q159 0 246 -20t137 -70q66 -66 66 -178q0 -136 -105 -213.5t-287 -77.5z" />
    <glyph glyph-name="uni2159" unicode="&#x2159;" horiz-adv-x="2078" 
d="M262 578v616h-182l37 240h448v-856h-303zM272 2l1059 1432h291v-2l-1059 -1432h-291v2zM1614 -29q-203 0 -308.5 108.5t-105.5 326.5q0 227 124 354t343 127q137 0 270 -47v-244q-68 30 -123.5 42.5t-127.5 12.5q-96 0 -153 -42.5t-56 -123.5q91 60 217 60
q142 0 222.5 -65t80.5 -191q0 -148 -105.5 -233t-277.5 -85zM1622 358q-79 0 -145 -39q4 -67 38 -94.5t95 -27.5q53 0 82.5 23t29.5 63q0 42 -26 58.5t-74 16.5z" />
    <glyph glyph-name="uni215A" unicode="&#x215a;" horiz-adv-x="2291" 
d="M483 549q-190 0 -342 47v244h2q165 -52 316 -52q79 0 105 17.5t26 46.5q0 23 -19 37q-42 29 -252 29h-165l12 516h653l10 -236h-413l-2 -90h12q159 0 246 -20t137 -70q65 -65 65 -178q0 -136 -104.5 -213.5t-286.5 -77.5zM485 2l1059 1432h291v-2l-1059 -1432h-291v2z
M1827 -29q-203 0 -308.5 108.5t-105.5 326.5q0 227 124 354t343 127q137 0 270 -47v-244q-124 55 -252 55q-96 0 -152.5 -42.5t-55.5 -123.5q91 60 217 60q142 0 222.5 -65t80.5 -191q0 -148 -105.5 -233t-277.5 -85zM1835 358q-79 0 -145 -39q4 -67 38 -94.5t95 -27.5
q53 0 82.5 23t29.5 63q0 42 -26 58.5t-74 16.5z" />
    <glyph glyph-name="oneeighth" unicode="&#x215b;" horiz-adv-x="2109" 
d="M262 578v616h-182l37 240h448v-856h-303zM272 2l1059 1432h291v-2l-1059 -1432h-291v2zM1624 -29q-405 0 -405 258q0 148 170 207q-150 51 -150 187q0 125 98.5 193.5t286.5 68.5t286.5 -68.5t98.5 -193.5q0 -136 -149 -187q170 -59 170 -207q0 -258 -406 -258zM1624 516
q119 0 119 76q0 80 -119 80t-119 -80q0 -76 119 -76zM1624 184q129 0 129 82t-129 82t-129 -82t129 -82z" />
    <glyph glyph-name="threeeighths" unicode="&#x215c;" horiz-adv-x="2316" 
d="M469 547q-174 0 -332 51v246h2q184 -56 307 -56q77 0 111.5 15t34.5 49q0 39 -50.5 53.5t-207.5 14.5h-35v124l229 154h-387l6 236h687v-217l-216 -146q261 -31 261 -235q0 -138 -112.5 -213.5t-297.5 -75.5zM479 2l1059 1432h291v-2l-1059 -1432h-291v2zM1831 -29
q-406 0 -406 258q0 148 170 207q-149 51 -149 187q0 125 98.5 193.5t286.5 68.5t286.5 -68.5t98.5 -193.5q0 -136 -150 -187q170 -59 170 -207q0 -258 -405 -258zM1831 516q119 0 119 76q0 80 -119 80t-119 -80q0 -76 119 -76zM1831 184q129 0 129 82t-129 82t-129 -82
t129 -82z" />
    <glyph glyph-name="fiveeighths" unicode="&#x215d;" horiz-adv-x="2324" 
d="M483 549q-190 0 -342 47v244h2q165 -52 316 -52q79 0 105 17.5t26 46.5q0 23 -19 37q-42 29 -252 29h-165l12 516h653l10 -236h-413l-2 -90h12q159 0 246 -20t137 -70q65 -65 65 -178q0 -136 -104.5 -213.5t-286.5 -77.5zM485 2l1059 1432h291v-2l-1059 -1432h-291v2z
M1839 -29q-405 0 -405 258q0 148 170 207q-150 51 -150 187q0 125 98.5 193.5t286.5 68.5t286.5 -68.5t98.5 -193.5q0 -136 -149 -187q170 -59 170 -207q0 -258 -406 -258zM1839 516q119 0 119 76q0 80 -119 80t-119 -80q0 -76 119 -76zM1839 184q129 0 129 82t-129 82
t-129 -82t129 -82z" />
    <glyph glyph-name="seveneighths" unicode="&#x215e;" horiz-adv-x="2217" 
d="M111 1065v369h766v-291l-334 -565h-320l340 573v57h-188v-143h-264zM381 2l1059 1432h291v-2l-1059 -1432h-291v2zM1733 -29q-406 0 -406 258q0 148 170 207q-149 51 -149 187q0 125 98.5 193.5t286.5 68.5t286.5 -68.5t98.5 -193.5q0 -136 -150 -187q170 -59 170 -207
q0 -258 -405 -258zM1733 516q118 0 118 76q0 80 -118 80q-119 0 -119 -80q0 -76 119 -76zM1733 184q129 0 129 82t-129 82t-129 -82t129 -82z" />
    <glyph glyph-name="uni2190" unicode="&#x2190;" horiz-adv-x="2088" 
d="M899 932l944 4v-373l-938 4l496 -438h-531l-700 621l700 620h531z" />
    <glyph glyph-name="uni2191" unicode="&#x2191;" horiz-adv-x="1822" 
d="M711 -45l4 905l-453 -479v493l649 668l650 -668v-493l-453 481l4 -907h-401z" />
    <glyph glyph-name="uni2192" unicode="&#x2192;" horiz-adv-x="2088" 
d="M1190 563l-944 -4v373l938 -4l-496 438h531l700 -621l-700 -620h-531z" />
    <glyph glyph-name="uni2193" unicode="&#x2193;" horiz-adv-x="1822" 
d="M911 -109l-649 668v494l453 -482l-4 908h401l-4 -906l453 480v-494z" />
    <glyph glyph-name="uni21A2" unicode="&#x21a2;" horiz-adv-x="4198" 
d="M1583 170l-1421 575l1421 576l23 -41l-199 -358h1163l336 268h1077l-483 -445l483 -444h-1077l-336 268h-1163l199 -358z" />
    <glyph glyph-name="uni21A3" unicode="&#x21a3;" horiz-adv-x="4198" 
d="M2615 170l-22 41l198 358h-1163l-336 -268h-1077l483 444l-483 445h1077l336 -268h1163l-198 358l22 41l1422 -576z" />
    <glyph glyph-name="minus" unicode="&#x2212;" horiz-adv-x="1417" 
d="M168 539v358h1081v-358h-1081z" />
    <glyph glyph-name="uni2295" unicode="&#x2295;" horiz-adv-x="2207" 
d="M1104 -94q-256 0 -448 100t-295 283.5t-103 427.5q0 368 229.5 589.5t616.5 221.5q389 0 617.5 -220.5t228.5 -590.5q0 -368 -229.5 -589.5t-616.5 -221.5zM635 602h350v-350h238v350h350v238h-350v350h-238v-350h-350v-238z" />
    <glyph glyph-name="uni2296" unicode="&#x2296;" horiz-adv-x="2207" 
d="M1104 -94q-256 0 -448 100t-295 283.5t-103 427.5q0 368 229.5 589.5t616.5 221.5q389 0 617.5 -220.5t228.5 -590.5q0 -368 -229.5 -589.5t-616.5 -221.5zM633 602h940v238h-940v-238z" />
    <glyph glyph-name="uni2297" unicode="&#x2297;" horiz-adv-x="2207" 
d="M1104 -94q-256 0 -448 100t-295 283.5t-103 427.5q0 368 229.5 589.5t616.5 221.5q389 0 617.5 -220.5t228.5 -590.5q0 -368 -229.5 -589.5t-616.5 -221.5zM637 418l170 -168l299 301l299 -301l168 168l-301 299l301 299l-168 168l-299 -301l-299 301l-170 -168l303 -299
z" />
    <glyph glyph-name="circle.checked" unicode="&#x2299;" horiz-adv-x="2207" 
d="M1104 -94q-396 0 -632 221t-236 590q0 243 106.5 426.5t303.5 284t458 100.5q397 0 633.5 -221t236.5 -590q0 -367 -237.5 -589t-632.5 -222zM1104 260q215 0 341 125t126 332t-126 332t-341 125t-341 -125t-126 -332t126 -332t341 -125zM1104 463q-119 0 -190.5 69.5
t-71.5 184.5t71.5 184.5t190.5 69.5q121 0 191.5 -69.5t70.5 -184.5t-70.5 -184.5t-191.5 -69.5z" />
    <glyph glyph-name="dotmath" unicode="&#x22c5;" horiz-adv-x="851" 
d="M424 485q-117 0 -184.5 64.5t-67.5 165.5v2q0 102 67 165.5t185 63.5q119 0 187.5 -63.5t68.5 -165.5t-68.5 -167t-187.5 -65z" />
    <glyph glyph-name="uni2302" unicode="&#x2302;" horiz-adv-x="2150" 
d="M1821 -59h-1491v1001l745 600l746 -600v-1001z" />
    <glyph glyph-name="uni238C" unicode="&#x238c;" horiz-adv-x="2131" 
d="M827 582h295q172 0 271.5 68.5t95.5 213.5q0 271 -367 271h-782l55 358h797q334 0 527 -161.5t190 -457.5q3 -299 -191 -466.5t-526 -167.5h-369l322 -295h-481l-457 467l455 465h483z" />
    <glyph glyph-name="uniE015.previous" unicode="&#x2397;" horiz-adv-x="2215" 
d="M1315 1493v-1061h-989v1061h989zM1528 1114h325v-1173h-1120l-26 286h821v887z" />
    <glyph glyph-name="uniE015.next" unicode="&#x2398;" horiz-adv-x="2215" 
d="M688 319h-326v1174h1121l26 -287h-821v-887zM901 -59v1060h989v-1060h-989z" />
    <glyph glyph-name="uni25A0" unicode="&#x25a0;" horiz-adv-x="2287" 
d="M340 -59v1552h1608v-1552h-1608z" />
    <glyph glyph-name="uni25A1" unicode="&#x25a1;" horiz-adv-x="2287" 
d="M340 -59v1552h1608v-1552h-1608zM743 303h801v827h-801v-827z" />
    <glyph glyph-name="uni25AA" unicode="&#x25aa;" horiz-adv-x="1654" 
d="M315 231v971h1024v-971h-1024z" />
    <glyph glyph-name="uni25AB" unicode="&#x25ab;" horiz-adv-x="1654" 
d="M315 231v971h1024v-971h-1024zM657 541h340v352h-340v-352z" />
    <glyph glyph-name="uni25B2" unicode="&#x25b2;" horiz-adv-x="2048" 
d="M238 -59l776 1601h20l776 -1601h-1572z" />
    <glyph glyph-name="uni25B4" unicode="&#x25b4;" horiz-adv-x="1892" 
d="M956 1624l752 -899h-1524l752 899h20z" />
    <glyph glyph-name="uni25B6" unicode="&#x25b6;" horiz-adv-x="2150" 
d="M346 1503l1602 -776v-20l-1602 -777v1573z" />
    <glyph glyph-name="uni25B8" unicode="&#x25b8;" horiz-adv-x="2068" 
d="M344 1309l1501 -547v-25l-1501 -547v1119z" />
    <glyph glyph-name="uni25BC" unicode="&#x25bc;" horiz-adv-x="2048" 
d="M1810 1493l-776 -1602h-20l-776 1602h1572z" />
    <glyph glyph-name="uni25BE" unicode="&#x25be;" horiz-adv-x="1892" 
d="M936 -135l-752 899h1524l-752 -899h-20z" />
    <glyph glyph-name="uni25C0" unicode="&#x25c0;" horiz-adv-x="2150" 
d="M1804 -70l-1601 777v20l1601 776v-1573z" />
    <glyph glyph-name="uni25C2" unicode="&#x25c2;" horiz-adv-x="2068" 
d="M1724 190l-1501 547v25l1501 547v-1119z" />
    <glyph glyph-name="circle.open" unicode="&#x25cb;" horiz-adv-x="2207" 
d="M1104 -94q-396 0 -632 221t-236 590q0 243 106.5 426.5t303.5 284t458 100.5q397 0 633.5 -221t236.5 -590q0 -367 -237.5 -589t-632.5 -222zM1104 260q210 0 331 124.5t121 332.5t-121 332.5t-331 124.5t-331.5 -124.5t-121.5 -332.5t121.5 -332.5t331.5 -124.5z" />
    <glyph glyph-name="circle.solid" unicode="&#x25cf;" horiz-adv-x="2207" 
d="M1104 -94q-396 0 -632 221t-236 590q0 243 106.5 426.5t303.5 284t458 100.5q397 0 633.5 -221t236.5 -590q0 -367 -237.5 -589t-632.5 -222z" />
    <glyph glyph-name="circle.half" unicode="&#x25d0;" horiz-adv-x="2207" 
d="M1104 -94q-396 0 -632 221t-236 590q0 243 106.5 426.5t303.5 284t458 100.5q397 0 633.5 -221t236.5 -590q0 -367 -237.5 -589t-632.5 -222zM1073 244q217 0 351.5 127t134.5 346t-134.5 346t-351.5 127v-946z" />
    <glyph glyph-name="uni25E9" unicode="&#x25e9;" horiz-adv-x="2287" 
d="M340 -59v1552h1608v-1552h-1608zM739 303h807v823z" />
    <glyph glyph-name="uni2600" unicode="&#x2600;" horiz-adv-x="2127" 
d="M1911 760v-70l-271 -160l91 -311l-50 -57l-305 53l-139 -297l-70 -14l-200 237l-297 -139l-58 37l-4 313l-317 80l-25 68l205 239l-197 267l25 69l317 53l15 326l65 37l275 -154l223 234l74 -15l110 -294l320 36l47 -57l-105 -297z" />
    <glyph glyph-name="uni2605" unicode="&#x2605;" horiz-adv-x="2150" 
d="M1327 1034l606 4l39 -100l-487 -356l194 -582l-88 -59l-516 372l-518 -372l-86 59l195 582l-488 356l39 100l606 -4l197 574h110z" />
    <glyph glyph-name="uni260E" unicode="&#x260e;" horiz-adv-x="2371" 
d="M1982 -59h-1593l-57 401l301 510l-342 -6q-60 126 -60 227q0 213 241.5 334t713.5 121t713 -121t241 -334q0 -103 -59 -227l-342 6l301 -510zM1536 1165h-700l-23 -174q198 31 373 31t373 -31zM1511 506q0 102 -87 170.5t-238 68.5q-152 0 -240 -68.5t-88 -170.5
q0 -103 88 -171.5t240 -68.5t238.5 68t86.5 172z" />
    <glyph glyph-name="uni2611" unicode="&#x2611;" horiz-adv-x="2287" 
d="M1743 1815l-639 -1323h-209l367 1323h481zM1790 1493h170v-1552h-1632v1552h659l-295 -1153h512z" />
    <glyph glyph-name="uni2612" unicode="&#x2612;" horiz-adv-x="2287" 
d="M352 -59v1552h1583v-1552h-1583zM797 201l348 350l346 -350l170 168l-350 348l350 348l-170 168l-346 -350l-348 350l-170 -168l350 -348l-350 -348z" />
    <glyph glyph-name="uni261A" unicode="&#x261a;" horiz-adv-x="3584" 
d="M3226 117l-818 180l-768 -266q-26 -9 -59 -7t-57 17l-25 14q-40 25 -50.5 58t-0.5 102l-49 -16q-65 -25 -119 6l-45 24q-43 23 -53.5 58.5t2.5 115.5l-54 -22q-62 -27 -118 2l-45 27q-67 38 -49 114l75 301l-440 -37q-78 -7 -141.5 -2t-112.5 18.5t-84 34.5t-58 47.5
t-33 57t-8.5 63t13.5 64.5l10 23l1250 163q111 15 137 15q41 0 129 -10l1571 -162v-983z" />
    <glyph glyph-name="uni261B" unicode="&#x261b;" horiz-adv-x="3584" 
d="M1903 31l-766 266l-818 -180v983l1571 162q85 10 129 10q27 0 138 -15l1249 -163l8 -23q15 -38 14.5 -75.5t-17 -71.5t-50.5 -62t-85.5 -47.5t-122.5 -26.5t-161 0l-440 37l74 -301q21 -75 -48 -114l-45 -27q-57 -28 -120 -2l-52 22q13 -80 2 -115t-53 -59l-45 -24
q-53 -30 -121 -6l-49 14q11 -68 0 -100.5t-51 -57.5l-23 -14q-54 -31 -118 -10z" />
    <glyph glyph-name="uni263C" unicode="&#x263c;" horiz-adv-x="2127" 
d="M1911 760v-70l-271 -160l91 -311l-50 -57l-305 53l-139 -297l-70 -14l-200 237l-297 -139l-58 37l-4 313l-317 80l-25 68l205 239l-197 267l25 69l317 53l15 326l65 37l275 -154l223 234l74 -15l110 -294l320 36l47 -57l-105 -297zM1329 741q0 104 -67 173t-183 69
t-183 -69t-67 -173t67 -172.5t183 -68.5t183 68.5t67 172.5z" />
    <glyph glyph-name="heart" unicode="&#x2665;" horiz-adv-x="2068" 
d="M1030 1231h8q49 140 156 218.5t244 78.5q63 0 124 -17.5t116.5 -55.5t97.5 -92.5t67 -133.5t25 -174q0 -112 -46.5 -237.5t-124 -243.5t-186 -240.5t-224.5 -229t-247 -210.5h-12q-131 104 -246.5 210.5t-224 229.5t-186 240.5t-124 243t-46.5 237.5q0 95 25 174
t67 133.5t97.5 92.5t116.5 55.5t124 17.5q137 0 243.5 -78.5t155.5 -218.5z" />
    <glyph glyph-name="uni2691" unicode="&#x2691;" horiz-adv-x="1822" 
d="M1485 -82h-383v674h-866v901h1249v-1575z" />
    <glyph glyph-name="uni2698" unicode="&#x2698;" horiz-adv-x="2170" 
d="M1565 37q-73 0 -134.5 33t-97.5 96q-101 -87 -119 -248h-258q-18 162 -118 248q-36 -63 -97.5 -96t-134.5 -33q-118 0 -242 81t-227 236v47q79 46 177.5 74.5t183.5 28.5q50 0 102 -10t112.5 -33.5t121 -69.5t108.5 -110l-18 270q-148 44 -245 95.5t-162.5 125.5
t-96 170.5t-37.5 233.5l-14 249l47 23q103 -50 217 -136t194 -186q40 136 104 252.5t138 184.5h33q74 -68 137 -184t104 -253q80 100 194 185.5t218 136.5l47 -23l-14 -249q-7 -137 -37.5 -233.5t-96 -170.5t-162.5 -125.5t-245 -95.5l-18 -270q48 64 108.5 110t121 69.5
t112.5 33.5t102 10q85 0 183.5 -28.5t177.5 -74.5v-47q-103 -155 -227 -236t-242 -81z" />
    <glyph glyph-name="uni2709" unicode="&#x2709;" horiz-adv-x="2902" 
d="M1454 578l-995 915h1984zM352 215v1110l582 -543zM2550 215l-580 563l580 547v-1110zM365 -59l716 708l373 -352l371 352l715 -708h-2175z" />
    <glyph glyph-name="uni272B" unicode="&#x272b;" horiz-adv-x="2150" 
d="M1327 1034l606 4l39 -100l-487 -356l194 -582l-88 -59l-516 372l-518 -372l-86 59l195 582l-488 356l39 100l606 -4l197 574h110zM1075 483l250 240l-250 240l-250 -240z" />
    <glyph glyph-name="uni2731" unicode="&#x2731;" horiz-adv-x="2088" 
d="M561 23l-242 245l295 279l-401 -2v346l408 -2l-293 276l233 242l307 -305l-4 414h361l-4 -418l313 311l238 -246l-297 -274l401 2v-346l-412 2l305 -281l-235 -239l-313 311l4 -420h-361l4 414z" />
    <glyph glyph-name="uni2735" unicode="&#x2735;" horiz-adv-x="2004" 
d="M1849 768v-86l-393 -109l219 -348l-61 -69l-367 170l-63 -406l-86 -18l-172 364l-312 -268l-69 45l96 389l-410 -8l-28 82l329 233l-321 258l29 86l405 -34l-82 401l78 45l287 -283l196 361l90 -19l35 -401l381 152l58 -70l-232 -334z" />
    <glyph glyph-name="uni274C" unicode="&#x274c;" horiz-adv-x="2088" 
d="M508 -66l-272 277l534 506l-534 508l266 274l538 -526l539 526l270 -278l-534 -506l534 -508l-268 -273l-537 525z" />
    <glyph glyph-name="uniE023.open" unicode="&#x276c;" horiz-adv-x="1886" 
d="M883 -348l-744 1032v25l744 1032h725v-2089h-725zM1108 25h84v1343h-84l-477 -678z" />
    <glyph glyph-name="uniE024.open" unicode="&#x276d;" horiz-adv-x="1886" 
d="M279 -348v2089h725l743 -1032v-25l-743 -1032h-725zM694 25h84l477 677l-477 666h-84v-1343z" />
    <glyph glyph-name="uniE023.solid" unicode="&#x2770;" horiz-adv-x="1886" 
d="M1585 1741v-2089h-713l-733 1032v25l733 1032h713z" />
    <glyph glyph-name="uniE024.solid" unicode="&#x2771;" horiz-adv-x="1886" 
d="M301 -348v2089h713l733 -1032v-25l-733 -1032h-713z" />
    <glyph glyph-name="uni2795" unicode="&#x2795;" horiz-adv-x="2088" 
d="M219 535v372h619v609h413v-609h619v-372h-619v-617h-413v617h-619z" />
    <glyph glyph-name="uni27A1" unicode="&#x27a1;" horiz-adv-x="2088" 
d="M1008 -8l-56 28l17 420l-721 -8v635l721 -8l-17 420l56 28l952 -757z" />
    <glyph glyph-name="uniE000" unicode="&#xe000;" horiz-adv-x="1601" 
d="M799 197q-250 0 -397.5 142.5t-147.5 377.5q0 234 147.5 377t397.5 143q254 0 401.5 -142t147.5 -378q0 -234 -148 -377t-401 -143z" />
    <glyph glyph-name="uniE001" unicode="&#xe001;" horiz-adv-x="1601" 
d="M799 197q-250 0 -397.5 142.5t-147.5 377.5q0 234 147.5 377t397.5 143q254 0 401.5 -142t147.5 -378q0 -234 -148 -377t-401 -143zM799 516q92 0 147 56t55 145t-55 145t-147 56q-90 0 -144.5 -56t-54.5 -145t54.5 -145t144.5 -56z" />
    <glyph glyph-name="uniE002" unicode="&#xe002;" horiz-adv-x="2252" 
d="M565 1044q-94 0 -151.5 54.5t-57.5 144.5q0 89 57.5 144t151.5 55q95 0 151 -54.5t56 -144.5q0 -91 -56 -145t-151 -54zM1126 1044q-95 0 -150.5 54t-55.5 145q0 90 55.5 144.5t150.5 54.5q96 0 151.5 -54.5t55.5 -144.5q0 -91 -55.5 -145t-151.5 -54zM1688 1044
q-94 0 -150.5 54t-56.5 145q0 89 56.5 144t150.5 55q96 0 152 -54.5t56 -144.5q0 -91 -56 -145t-152 -54zM565 518q-94 0 -151.5 54.5t-57.5 144.5q0 89 57.5 143.5t151.5 54.5q95 0 151 -54t56 -144q0 -91 -56 -145t-151 -54zM1126 518q-95 0 -150.5 54t-55.5 145
q0 90 55.5 144t150.5 54q96 0 151.5 -54t55.5 -144q0 -91 -55.5 -145t-151.5 -54zM1688 518q-94 0 -150.5 54t-56.5 145q0 89 56.5 143.5t150.5 54.5q96 0 152 -54t56 -144q0 -91 -56 -145t-152 -54zM565 -8q-94 0 -151.5 54t-57.5 144t57.5 144.5t151.5 54.5q95 0 151 -54
t56 -145t-56 -144.5t-151 -53.5zM1126 -8q-95 0 -150.5 53.5t-55.5 144.5t55.5 145t150.5 54q96 0 151.5 -54t55.5 -145t-55.5 -144.5t-151.5 -53.5zM1688 -8q-94 0 -150.5 54t-56.5 144q0 91 56.5 145t150.5 54q96 0 152 -54t56 -145t-56 -144.5t-152 -53.5z" />
    <glyph glyph-name="uniE003" unicode="&#xe003;" horiz-adv-x="2088" 
d="M1081 -8l-952 758l952 757l56 -28l-17 -420l721 8v-635l-721 8l17 -420z" />
    <glyph glyph-name="uniE004" unicode="&#xe004;" horiz-adv-x="1863" 
d="M604 -45l10 618l-430 -10l-30 60l778 919l778 -919l-31 -60l-430 10l11 -618h-656z" />
    <glyph glyph-name="uniE005" unicode="&#xe005;" horiz-adv-x="1863" 
d="M932 -109l-778 920l30 59l430 -10l-10 619h656l-11 -619l430 10l31 -59z" />
    <glyph glyph-name="uniE006" unicode="&#xe006;" horiz-adv-x="3045" 
d="M297 213v1073h2001l522 -536l-522 -537h-2001z" />
    <glyph glyph-name="uniE007" unicode="&#xe007;" horiz-adv-x="3045" 
d="M297 213v1073h2001l522 -536l-522 -537h-2001zM707 582h1407l159 168l-159 168h-1407v-336z" />
    <glyph glyph-name="uniE008" unicode="&#xe008;" horiz-adv-x="3045" 
d="M297 213v1073h2001l522 -536l-522 -537h-2001zM707 582h1280v336h-1280v-336z" />
    <glyph glyph-name="uniE009" unicode="&#xe009;" horiz-adv-x="2662" 
d="M297 455v589h2068v-589h-2068z" />
    <glyph glyph-name="uniE00A" unicode="&#xe00a;" horiz-adv-x="2662" 
d="M297 829v369h2068v-369h-2068zM297 266v365h2068v-365h-2068z" />
    <glyph glyph-name="uniE00B" unicode="&#xe00b;" horiz-adv-x="2662" 
d="M297 1069v320h2068v-320h-2068zM297 578v309h2068v-309h-2068zM297 78v317h2068v-317h-2068z" />
    <glyph glyph-name="uniE00C" unicode="&#xe00c;" horiz-adv-x="2248" 
d="M1124 266q-232 0 -407 37t-262.5 96.5t-87.5 130.5q0 110 205 186.5t552 76.5q348 0 553 -76.5t205 -186.5t-205.5 -187t-552.5 -77zM362 139v201h11q16 -37 68.5 -73t140.5 -68.5t229.5 -53t312.5 -20.5t312.5 20.5t230 53t141 68.5t68.5 73h10v-201q0 -110 -207.5 -187
t-554.5 -77t-554.5 77t-207.5 187z" />
    <glyph glyph-name="uniE00D" unicode="&#xe00d;" horiz-adv-x="2248" 
d="M1124 649q-232 0 -407 37t-262.5 96.5t-87.5 130.5q0 110 205 186.5t552 76.5q348 0 553 -76.5t205 -186.5t-205.5 -187t-552.5 -77zM362 522v201h11q16 -37 68.5 -73t140.5 -68.5t229.5 -53t312.5 -20.5t312.5 20.5t230 53t141 68.5t68.5 73h10v-201q0 -110 -207.5 -187
t-554.5 -77t-554.5 77t-207.5 187zM362 139v201h11q16 -37 68.5 -73t140.5 -68.5t229.5 -53t312.5 -20.5t312.5 20.5t230 53t141 68.5t68.5 73h10v-201q0 -110 -207.5 -187t-554.5 -77t-554.5 77t-207.5 187z" />
    <glyph glyph-name="uniE00E" unicode="&#xe00e;" horiz-adv-x="2248" 
d="M1124 1032q-232 0 -407 37t-262.5 96.5t-87.5 130.5q0 110 205 186.5t552 76.5q348 0 553 -76.5t205 -186.5t-205.5 -187t-552.5 -77zM362 905v201h11q16 -37 68.5 -73t140.5 -68.5t229.5 -53t312.5 -20.5t312.5 20.5t230 53t141 68.5t68.5 73h10v-201
q0 -110 -207.5 -187t-554.5 -77t-554.5 77t-207.5 187zM362 522v201h11q16 -37 68.5 -73t140.5 -68.5t229.5 -53t312.5 -20.5t312.5 20.5t230 53t141 68.5t68.5 73h10v-201q0 -110 -207.5 -187t-554.5 -77t-554.5 77t-207.5 187zM362 139v201h11q16 -37 68.5 -73
t140.5 -68.5t229.5 -53t312.5 -20.5t312.5 20.5t230 53t141 68.5t68.5 73h10v-201q0 -110 -207.5 -187t-554.5 -77t-554.5 77t-207.5 187z" />
    <glyph glyph-name="uniE00F" unicode="&#xe00f;" horiz-adv-x="2248" 
d="M1124 227l-848 297v37l848 297l848 -297v-37zM1124 -156l-837 293v240l837 -293l838 293v-240z" />
    <glyph glyph-name="uniE010" unicode="&#xe010;" horiz-adv-x="2248" 
d="M1124 598l-848 297v37l848 297l848 -297v-37zM1124 215l-837 293v240l837 -293l838 293v-240zM1124 -156l-837 293v240l837 -293l838 293v-240z" />
    <glyph glyph-name="uniE011" unicode="&#xe011;" horiz-adv-x="2248" 
d="M1124 969l-848 297v37l848 296l848 -296v-37zM1124 586l-837 293v239l837 -293l838 293v-239zM1124 215l-837 293v240l837 -293l838 293v-240zM1124 -156l-837 293v240l837 -293l838 293v-240z" />
    <glyph glyph-name="uniE012" unicode="&#xe012;" horiz-adv-x="2207" 
d="M1104 -94q-256 0 -448 100t-295 283.5t-103 427.5q0 368 229.5 589.5t616.5 221.5q389 0 617.5 -220.5t228.5 -590.5q0 -368 -229.5 -589.5t-616.5 -221.5zM750 1149v-236q190 119 372 119q162 0 162 -90q0 -22 -13.5 -41t-47.5 -40.5t-101 -43.5t-166 -43v-203h2
q305 54 448.5 144.5t143.5 245.5q0 96 -57.5 162t-145 94t-198.5 28q-195 0 -399 -96zM1075 141q78 0 124 43t46 109v2q0 66 -46 107.5t-124 41.5q-80 0 -126 -41.5t-46 -107.5v-2q0 -66 46 -109t126 -43z" />
    <glyph glyph-name="uniE013" unicode="&#xe013;" horiz-adv-x="2207" 
d="M1104 -94q-256 0 -448 100t-295 283.5t-103 427.5q0 368 229.5 589.5t616.5 221.5q389 0 617.5 -220.5t228.5 -590.5q0 -368 -229.5 -589.5t-616.5 -221.5zM1006 608h198l74 623v18h-348v-18zM1106 141q78 0 124 43t46 109v2q0 66 -46 107.5t-124 41.5q-80 0 -126 -41.5
t-46 -107.5v-2q0 -66 46 -109t126 -43z" />
    <glyph glyph-name="uniE014" unicode="&#xe014;" horiz-adv-x="2209" 
d="M733 -74l-434 434v713l434 434h744l434 -434v-713l-434 -434h-744zM633 602h940v238h-940v-238z" />
    <glyph glyph-name="uniE015" unicode="&#xe015;" horiz-adv-x="2117" 
d="M1298 952v545h52l489 -493v-52h-541zM344 -59v1552h748v-737h743v-815h-1491z" />
    <glyph glyph-name="uniE016" unicode="&#xe016;" horiz-adv-x="2324" 
d="M496 1077q-100 0 -161 59t-61 156q0 94 61.5 153.5t160.5 59.5q102 0 162.5 -59t60.5 -154q0 -97 -60.5 -156t-162.5 -59zM885 1130v322h1126l-61 -322h-1065zM496 502q-100 0 -161 59t-61 156q0 96 61.5 155.5t160.5 59.5q102 0 162.5 -59.5t60.5 -155.5
q0 -97 -60.5 -156t-162.5 -59zM885 555v324h1126l-61 -324h-1065zM496 -72q-100 0 -161 59t-61 154q0 96 61.5 155.5t160.5 59.5q102 0 162.5 -59.5t60.5 -155.5t-60.5 -154.5t-162.5 -58.5zM885 -18v321h1126l-61 -321h-1065z" />
    <glyph glyph-name="uniE017" unicode="&#xe017;" horiz-adv-x="1689" 
d="M336 190l57 1323l78 35l1020 -880l-8 -74l-443 -4l252 -533l-329 -153l-254 559l-289 -279z" />
    <glyph glyph-name="uniE018" unicode="&#xe018;" horiz-adv-x="1966" 
d="M535 406q-151 0 -246.5 87.5t-95.5 229.5q0 141 95.5 229t246.5 88q82 0 149 -28l332 192v6q0 130 93 224t239 94q154 0 247 -86.5t93 -231.5q0 -144 -93 -230.5t-247 -86.5q-105 0 -181 43l-305 -176q2 -12 2 -37q0 -27 -2 -39l312 -180q76 39 174 39q153 0 246.5 -88.5
t93.5 -231.5q0 -146 -93 -231.5t-247 -85.5q-147 0 -239.5 93t-92.5 224v15l-334 194q-70 -26 -147 -26z" />
    <glyph glyph-name="uniE019" unicode="&#xe019;" horiz-adv-x="2207" 
d="M1104 -94q-256 0 -448 100t-295 283.5t-103 427.5q0 368 229.5 589.5t616.5 221.5q389 0 617.5 -220.5t228.5 -590.5q0 -368 -229.5 -589.5t-616.5 -221.5zM760 246h688v20l-258 461q94 28 148.5 94.5t54.5 151.5q0 116 -80.5 191t-208.5 75q-127 0 -208 -75t-81 -191
q0 -85 54.5 -151.5t148.5 -94.5l-258 -461v-20z" />
    <glyph glyph-name="uniE01A" unicode="&#xe01a;" horiz-adv-x="2285" 
d="M594 14l-16 74l98 148l-389 313l-45 108l8 99l82 94l-8 131l38 80l107 59l35 131l65 66l125 18l78 111l78 33l127 -31l115 80h102l115 -80l127 31l77 -33l78 -111l125 -18l66 -66l35 -131l106 -59l39 -80l-8 -131l82 -94l8 -99l-45 -108l-389 -313l98 -148l-16 -74h-355
l-157 -127h-74l-158 127h-354z" />
    <glyph glyph-name="uniE01B" unicode="&#xe01b;" horiz-adv-x="2088" 
d="M1044 -139q-228 56 -405.5 154.5t-281 235.5t-99.5 288q0 102 42 258.5t42 230.5q0 106 -86 242l242 207q78 -43 131.5 -62.5t111.5 -19.5q76 0 144.5 40.5t142.5 125.5h33q74 -85 142.5 -125.5t144.5 -40.5q58 0 111.5 19.5t131.5 62.5l242 -207q-86 -136 -86 -242
q0 -74 42 -230.5t42 -258.5q4 -151 -100 -288t-281.5 -235.5t-405.5 -154.5z" />
    <glyph glyph-name="uniE01C" unicode="&#xe01c;" horiz-adv-x="1781" 
d="M1061 -82v590h-866v45l376 446l-376 449v45h1249v-1575h-383z" />
    <glyph glyph-name="uniE01D" unicode="&#xe01d;" horiz-adv-x="2088" 
d="M850 -82l4 416l-356 -197l-39 269l-262 155v55l276 162l-162 365l43 59l432 -125l224 486h69l224 -486l432 125l43 -59l-162 -365l276 -162v-55l-262 -155l-39 -269l-356 197l4 -416h-389z" />
    <glyph glyph-name="uniE01E" unicode="&#xe01e;" horiz-adv-x="2088" 
d="M848 -82l2 227l-680 107l-10 59l387 281l-215 80l-10 51l364 268l-154 60l-10 49l500 463h45l500 -463l-11 -49l-151 -58l362 -270l-10 -51l-215 -80l387 -281l-10 -59l-680 -107l2 -227h-393z" />
    <glyph glyph-name="uniE01F" unicode="&#xe01f;" horiz-adv-x="2048" 
d="M342 -59l141 895l-213 247l27 410h317l19 -238h211l18 238h324l18 -238h211l19 238h317l27 -410l-213 -247l141 -895h-1364z" />
    <glyph glyph-name="uniE020" unicode="&#xe020;" horiz-adv-x="1679" 
d="M1341 -82h-383v559l-903 479v41l1213 547h73v-1626z" />
    <glyph glyph-name="uniE021" unicode="&#xe021;" horiz-adv-x="2088" 
d="M778 1079v346h533v-346h-533zM487 537v337h1115v-337h-1115zM186 -6v340h1717v-340h-1717z" />
    <glyph glyph-name="uniE022" unicode="&#xe022;" horiz-adv-x="2088" 
d="M186 1083v338h1717v-338h-1717zM487 543v336h1115v-336h-1115zM778 -10v348h533v-348h-533z" />
    <glyph glyph-name="uniE023" unicode="&#xe023;" horiz-adv-x="1669" 
d="M989 -348l-817 1032v25l817 1032h516l-821 -1045l821 -1044h-516z" />
    <glyph glyph-name="uniE024" unicode="&#xe024;" horiz-adv-x="1669" 
d="M154 -348l821 1048l-821 1041h518l817 -1032v-25l-817 -1032h-518z" />
    <glyph glyph-name="uniE025" unicode="&#xe025;" horiz-adv-x="1847" 
d="M383 -129v1622h1081v-1622h-61l-479 436l-480 -436h-61z" />
    <glyph glyph-name="uniE026" unicode="&#xe026;" horiz-adv-x="2056" 
d="M1028 1538q217 0 339 -139.5t122 -366.5q0 -79 -19.5 -155t-58.5 -144t-93 -119.5t-129 -81.5t-161 -30t-161 30t-129 81.5t-93 119.5t-58.5 144t-19.5 155q0 227 122 366.5t339 139.5zM1882 -59h-1708l21 252q8 97 69 151.5t221 89.5l166 39q155 -145 377 -145t377 145
l166 -39q160 -35 221.5 -89.5t69.5 -151.5z" />
    <glyph glyph-name="uniE027" unicode="&#xe027;" horiz-adv-x="2048" 
d="M1024 1059q-96 0 -153.5 56t-57.5 149q0 91 57.5 146.5t153.5 55.5q97 0 154 -55t57 -147q0 -93 -57 -149t-154 -56zM508 795q-96 0 -153.5 55t-57.5 147q0 91 58 147t153 56q98 0 155.5 -56t57.5 -147q0 -92 -57.5 -147t-155.5 -55zM1540 795q-97 0 -155 55t-58 147
q0 91 58.5 147t154.5 56t153.5 -56t57.5 -147q0 -92 -57 -147t-154 -55zM1024 506q-98 0 -158.5 58t-60.5 153q0 94 60.5 152.5t158.5 58.5q99 0 159 -58.5t60 -152.5q0 -95 -59.5 -153t-159.5 -58zM508 233q-95 0 -153 55.5t-58 147.5q0 91 58 147t153 56q98 0 155.5 -56
t57.5 -147q0 -93 -57.5 -148t-155.5 -55zM1540 233q-97 0 -155 55.5t-58 147.5q0 91 58.5 147t154.5 56t153.5 -56t57.5 -147q0 -92 -57 -147.5t-154 -55.5zM1024 -33q-97 0 -154 55.5t-57 147.5q0 93 57.5 149t153.5 56q97 0 154 -56t57 -149t-56.5 -148t-154.5 -55z" />
    <glyph glyph-name="uniE028" unicode="&#xe028;" horiz-adv-x="1630" 
d="M258 944q0 279 146.5 431.5t410.5 152.5q267 0 412 -151.5t145 -432.5v-455q0 -279 -145.5 -431t-411.5 -152q-264 0 -410.5 151.5t-146.5 431.5v455zM815 754q119 0 184.5 67.5t65.5 182.5t-65.5 182t-184.5 67q-116 0 -183 -67t-67 -182t67 -182.5t183 -67.5z" />
    <glyph glyph-name="uniE029" unicode="&#xe029;" horiz-adv-x="1630" 
d="M815 -94q-267 0 -412 151t-145 432v455q0 279 145.5 431.5t411.5 152.5q264 0 410.5 -152t146.5 -432v-455q0 -279 -146.5 -431t-410.5 -152zM815 180q116 0 183 67.5t67 182.5t-67 182.5t-183 67.5q-119 0 -184.5 -67.5t-65.5 -182.5t65.5 -182.5t184.5 -67.5z" />
    <glyph glyph-name="uniE02A" unicode="&#xe02a;" horiz-adv-x="2195" 
d="M1751 1505l211 -200l-160 -197l164 -197l-164 -196l164 -197l-164 -196l160 -197l-211 -201l-207 160l-207 -164l-207 164l-206 -164l-207 164l-207 -160l-211 201l160 197l-164 196l164 197l-164 196l164 197l-160 197l211 200l207 -159l207 163l206 -163l207 163
l207 -163z" />
    <glyph glyph-name="hcoslug" unicode="&#xe10b;" horiz-adv-x="1433" 
d="M109 -205v1639h1216v-1639h-1216zM467 319q129 0 213 93q51 -52 89.5 -72.5t84.5 -20.5q68 0 114.5 53t49.5 140l-14 4q-34 -59 -89 -59q-30 0 -59 19.5t-68 64.5q42 55 95 86q30 -52 88 -52q43 0 72.5 32t29.5 79t-29.5 77t-72.5 30q-70 0 -123 -78q-6 79 -100 76
q18 30 18 69q0 59 -52.5 105.5t-142.5 46.5q-99 0 -161 -52.5t-62 -121.5q0 -43 15 -75t49 -67q-168 -57 -168 -186q0 -81 65 -136t158 -55zM590 756q-30 29 -42.5 42.5t-24 35t-11.5 43.5q0 26 15 42.5t40 16.5q26 0 43 -21.5t17 -56.5q0 -46 -37 -102zM729 606
q-67 78 -84 94q61 42 86 70q23 -23 29 -49t-2 -52.5t-29 -62.5zM541 449q-46 0 -76.5 31.5t-30.5 78.5q0 49 33 82q72 -68 151 -168q-31 -24 -77 -24zM727 150h12l9 16q10 -16 28 -16q17 0 25 13.5t8 29.5q0 18 -8.5 29t-22.5 11q-20 0 -26 -18v55h-37v-14h12v-106zM262 152
h62v14h-21v33h8q7 0 9 -3t4 -14h14v47h-14q-1 -6 -1.5 -8.5t-2 -4.5t-3.5 -2.5t-6 -0.5h-8v37h25q11 0 15 -5t7 -22h17v41h-105v-14h14v-84h-14v-14zM592 150q23 0 29 26l-11 4q-3 -14 -10 -14q-8 0 -8 10v41h26v14h-26v23l-25 -4v-19h-14v-14h14v-41q0 -26 25 -26zM455 152
h45v14h-8v31q0 20 14 20q12 0 12 -14v-37h-8v-14h45v14h-12v39q0 28 -25 28q-20 0 -29 -22v20h-34v-14h12v-51h-12v-14zM406 150q19 0 31 12t12 31q0 18 -12 29t-31 11t-31.5 -11t-12.5 -29q0 -20 12.5 -31.5t31.5 -11.5zM668 150q13 0 20.5 7.5t7.5 18.5q0 19 -24.5 25
t-24.5 12q0 8 10 8q11 0 21 -14h14v26h-12l-4 -10q-7 10 -23 10q-13 0 -20.5 -7t-7.5 -17q0 -19 24.5 -26t24.5 -13q0 -8 -10 -8q-13 0 -25 18h-14v-28h14l2 8q15 -10 27 -10zM834 121q23 0 36 33l27 63h10v14h-35v-14h11l-17 -41l-18 41h12v14h-51v-14h10q25 -47 33 -67
q-3 -17 -16 -17q5 5 2 13t-13 8q-14 0 -14 -15q0 -18 23 -18zM406 160q-17 0 -17 33q0 30 17 30q16 0 16 -30q0 -33 -16 -33zM768 164q-16 0 -16 26q0 27 16 27q14 0 14 -27q0 -26 -14 -26zM571 0h47v14h-10v52h29v-52h-10v-14h47v14h-12v107l-21 -4q-8 4 -18 4
q-16 0 -27.5 -10t-11.5 -29v-2h-15v-14h15v-52h-13v-14zM1026 -2q46 0 49 47h-16q-4 -33 -29 -33q-33 0 -33 45t29 45q12 0 18.5 -6.5t12.5 -25.5h16v45h-16l-2 -13q-15 15 -33 15q-22 0 -38.5 -17.5t-16.5 -44.5q0 -26 15.5 -41.5t43.5 -15.5zM260 0h59v14h-16v37h45v-37
h-16v-14h59v14h-16v84h16v15h-59v-15h16v-32h-45v32h16v15h-59v-15h16v-84h-16v-14zM608 80v6q0 25 13 25l6 -2q-2 -3 -2 -7q0 -12 12 -12v-10h-29zM877 -2q18 0 30 12q10 -12 25 -12q19 0 26 25l-10 2q-3 -11 -8 -11t-12 11q12 16 18 28h10v15h-36v-15h12q-3 -9 -12 -18
q-4 4 -12 12.5t-13 13.5q23 10 23 25q0 10 -8 17.5t-21 7.5q-14 0 -24.5 -9t-10.5 -20q0 -13 12 -25q-26 -7 -26 -30q0 -29 37 -29zM889 68q-12 12 -12 20q0 10 10 10q12 0 12 -12q0 -11 -10 -18zM528 -2q30 0 37 29h-14q-3 -15 -19 -15q-20 0 -20 25h53q3 45 -39 45
q-17 0 -29 -12t-12 -31t11.5 -30t31.5 -11zM719 -2q30 0 37 29h-15q-3 -15 -18 -15q-21 0 -21 25h54q3 45 -39 45q-17 0 -29 -12t-12 -31t11.5 -30t31.5 -11zM436 -2q19 0 31 12t12 31t-12 30t-31 11t-31 -11t-12 -30q0 -20 12 -31.5t31 -11.5zM1124 -2q19 0 31 12t12 31
t-12 30t-31 11t-31 -11t-12 -30q0 -20 12 -31.5t31 -11.5zM760 0h53v14h-16v33q8 19 14 19v-3q0 -12 12 -12q6 0 10.5 4.5t4.5 10.5q0 16 -17 16q-15 0 -24 -23v21h-37v-14h12v-52h-12v-14zM436 8q-16 0 -16 33q0 31 16 31q17 0 17 -31q0 -33 -17 -33zM1124 8q-16 0 -16 33
q0 31 16 31q17 0 17 -31q0 -33 -17 -33zM512 47q0 25 14 25q15 0 15 -25h-29zM702 47q0 25 15 25q14 0 14 -25h-29zM885 12q-9 0 -15 6t-6 15q0 10 8 18q9 -9 29 -33q-9 -6 -16 -6zM1186 -2q14 0 14 14q0 15 -14 15q-6 0 -10.5 -4.5t-4.5 -10.5q0 -14 15 -14z" />
    <glyph glyph-name="uniFEFF" unicode="&#xfeff;" horiz-adv-x="0" 
 />
    <glyph glyph-name="uni1F441" unicode="&#x1f441;" horiz-adv-x="2002" 
d="M1001 94q-275 0 -501.5 162.5t-390.5 460.5q164 297 390.5 459.5t501.5 162.5q277 0 503.5 -162t389.5 -460q-164 -299 -390 -461t-503 -162zM1001 342q174 0 284 105t110 270q0 166 -109 270.5t-285 104.5q-173 0 -283 -105t-110 -270q0 -166 110 -270.5t283 -104.5z
M1001 537q-84 0 -132 48t-48 132t48 132t132 48q86 0 133.5 -48t47.5 -132t-47.5 -132t-133.5 -48z" />
    <glyph glyph-name="uni1F451" unicode="&#x1f451;" horiz-adv-x="2416" 
d="M467 229l-264 891l84 54l270 -226l41 8l59 349l86 16l224 -291l41 2l157 430h86l158 -430l41 -2l223 295l86 -20l60 -349l41 -8l270 226l84 -54l-264 -891h-1483z" />
    <glyph glyph-name="uni1F4AC" unicode="&#x1f4ac;" horiz-adv-x="2248" 
d="M297 -109l-25 68q358 242 514 471q-231 59 -359 186t-128 302q0 117 60.5 226.5t167.5 195t268.5 137t349.5 51.5t350.5 -53.5t269 -140t166.5 -194t60 -218.5q0 -100 -25.5 -185t-87 -173t-175.5 -173t-280 -166q-450 -218 -1126 -334z" />
    <glyph glyph-name="uni1F4C8" unicode="&#x1f4c8;" horiz-adv-x="2174" 
d="M1487 -82v1575h381v-1575h-381zM858 -82v1145h379v-1145h-379zM227 -82v715h381v-715h-381z" />
    <glyph glyph-name="uni1F4C9" unicode="&#x1f4c9;" horiz-adv-x="2174" 
d="M307 -82v1575h381v-1575h-381zM938 -82v1145h379v-1145h-379zM1567 -82v715h381v-715h-381z" />
    <glyph glyph-name="uni1F4D5" unicode="&#x1f4d5;" horiz-adv-x="2086" 
d="M795 -59q-72 0 -132.5 16t-111.5 48.5t-88.5 65.5t-83.5 83q-50 54 -69 110t-19 135v731q0 199 94 293q72 72 217 72h981v-379h-29l-204 184h-658q-43 0 -65 -17.5t-19 -47.5q3 -23 19 -44.5t55 -55.5q57 -52 105 -72.5t116 -20.5h934v-1101h-1042z" />
    <glyph glyph-name="uni1F4F1" unicode="&#x1f4f1;" horiz-adv-x="1878" 
d="M621 -86q-152 0 -218.5 66.5t-66.5 218.5v1036q0 152 66.5 218.5t218.5 66.5h636q152 0 218.5 -66.5t66.5 -218.5v-1036q0 -152 -66.5 -218.5t-218.5 -66.5h-636zM760 160h358q50 0 77.5 29t27.5 77t-27.5 76.5t-77.5 28.5h-358q-50 0 -78.5 -28.5t-28.5 -76.5t28.5 -77
t78.5 -29z" />
    <glyph glyph-name="uni1F50D" unicode="&#x1f50d;" horiz-adv-x="1882" 
d="M948 172q-325 0 -520 185t-195 487q0 149 51 275.5t143 217t226 141t295 50.5q212 0 374 -85t250.5 -240.5t88.5 -358.5q0 -160 -60 -291.5t-169 -222.5l245 -430l-356 -187l-260 465q-55 -6 -113 -6zM954 539q136 0 219.5 84t83.5 221q0 138 -84.5 223.5t-224.5 85.5
t-223.5 -85.5t-83.5 -223.5t83.5 -221.5t229.5 -83.5z" />
    <glyph glyph-name="uni1F512" unicode="&#x1f512;" horiz-adv-x="2183" 
d="M268 -59v878h232v154q0 255 158.5 405t433.5 150t433 -150t158 -405v-154h232v-878h-1647zM872 977v-158h439v158q0 108 -53.5 170.5t-165.5 62.5t-166 -62.5t-54 -170.5z" />
    <glyph glyph-name="uni1F514" unicode="&#x1f514;" horiz-adv-x="2117" 
d="M238 186l20 275q1 15 5 29t7 22.5t14.5 22t16 18.5t23 23t24.5 24l103 102l34 195q23 188 119 299t240 156l28 192h373l29 -192q144 -45 239.5 -156t118.5 -299l35 -195l102 -102q8 -8 25 -24.5t22.5 -22.5t16.5 -19t14.5 -22t7.5 -22.5t5 -28.5l20 -275h-637
q55 -58 55 -143v-4q0 -89 -64.5 -152t-174.5 -63q-112 0 -176 62.5t-64 152.5v4q0 82 58 143h-639z" />
    <glyph glyph-name="uni1F517" unicode="&#x1f517;" horiz-adv-x="2992" 
d="M698 -37q-232 143 -349.5 319t-117.5 402q0 163 65 309t181 255.5t289.5 174t378.5 64.5q204 0 371 -53t276 -145t168 -215t59 -265q0 -99 -30 -213l-373 -43q31 91 31 201q0 174 -128.5 278.5t-369.5 104.5q-149 0 -266.5 -60t-180.5 -160.5t-63 -222.5
q0 -163 87.5 -277.5t277.5 -240.5zM1858 -51q-204 0 -371 53t-276.5 145t-168.5 215t-59 265q0 95 31 213l372 43q-30 -88 -30 -199q0 -176 128 -280.5t369 -104.5q226 0 368 128t142 316q0 83 -23 152t-73 132t-111.5 115.5t-154.5 117.5l305 213q231 -148 348 -324
t117 -395q0 -163 -64.5 -309t-180.5 -256t-289.5 -175t-378.5 -65z" />
    <glyph glyph-name="uni1F553" unicode="&#x1f553;" horiz-adv-x="2207" 
d="M1104 -94q-256 0 -448 100t-295 283.5t-103 427.5q0 368 229.5 589.5t616.5 221.5q389 0 617.5 -220.5t228.5 -590.5q0 -368 -229.5 -589.5t-616.5 -221.5zM991 618l568 -360v272l-330 207v539h-238v-658z" />
    <glyph glyph-name="uni1F5DD" unicode="&#x1f5dd;" horiz-adv-x="1746" 
d="M1413 477v-422l-399 6v-143h-352v750q-208 33 -336.5 139.5t-128.5 275.5q0 105 52.5 191t141.5 140.5t204 84t243 29.5q102 0 196 -18t175 -55t141 -89.5t94.5 -125t34.5 -157.5q0 -113 -63 -201t-165.5 -140t-236.5 -74v-197zM838 1225q-121 0 -194 -36t-73 -106
q0 -68 73 -103.5t194 -35.5q119 0 192.5 35.5t73.5 103.5q0 69 -73.5 105.5t-192.5 36.5z" />
    <glyph glyph-name="uni1F6AB" unicode="&#x1f6ab;" horiz-adv-x="2207" 
d="M1108 -94q-195 0 -358.5 59.5t-276 165.5t-175 256.5t-62.5 329.5q0 243 105.5 426.5t301.5 284t457 100.5q196 0 359.5 -59.5t276.5 -165.5t175.5 -256.5t62.5 -329.5q0 -243 -106 -426.5t-302.5 -284t-457.5 -100.5zM629 713q0 -81 22 -158l334 303l330 287
q-93 41 -211 41q-214 0 -344.5 -129t-130.5 -344zM1104 248q214 0 344.5 129t130.5 344q0 77 -23 158l-333 -304l-328 -286q93 -41 209 -41z" />
    <glyph glyph-name="uni1F6D2" unicode="&#x1f6d2;" horiz-adv-x="2205" 
d="M172 1180l10 313h531l59 -281h1135l-125 -616l-1219 -92l-135 676h-256zM700 -23q-105 0 -164 61t-59 148v4q0 87 59 147t164 60q103 0 162.5 -60.5t59.5 -146.5v-4q0 -86 -59.5 -147.5t-162.5 -61.5zM1640 -23q-105 0 -164 61t-59 148v4q0 87 59 147t164 60
q103 0 162.5 -60.5t59.5 -146.5v-4q0 -86 -59.5 -147.5t-162.5 -61.5z" />
    <glyph glyph-name="uni1F6E1" unicode="&#x1f6e1;" horiz-adv-x="2088" 
d="M1034 -109q-151 81 -261.5 155t-212.5 169.5t-165 198.5t-100 237t-37 291q0 215 72 449q347 143 714 143q368 0 715 -143q72 -234 72 -449q0 -157 -37 -291t-100 -237t-165 -198.5t-212.5 -169.5t-261.5 -155h-21z" />
    <glyph glyph-name="NUL" horiz-adv-x="0" 
 />
    <glyph glyph-name="j.alt" horiz-adv-x="698" 
d="M350 1262q-120 0 -184 54.5t-64 145.5v2q0 92 64 146.5t184 54.5q119 0 182.5 -54.5t63.5 -146.5v-2q0 -90 -64 -145t-182 -55zM139 -475v1608h420v-1485z" />
    <glyph glyph-name="a.sc" horiz-adv-x="1613" 
d="M57 0l410 1233h682l407 -1233h-436l-67 223h-500l-66 -223h-430zM756 895l-121 -383h336l-119 383h-96z" />
    <glyph glyph-name="b.sc" horiz-adv-x="1552" 
d="M172 0v1233h827q201 0 313.5 -79t112.5 -230q0 -106 -49 -177t-162 -108q124 -48 181 -116t57 -175q0 -348 -481 -348h-799zM586 741h284q71 0 104.5 25t33.5 80q0 98 -136 98h-286v-203zM586 291l307 2q73 0 106 25t33 81t-34 81.5t-109 25.5h-303v-215z" />
    <glyph glyph-name="c.sc" horiz-adv-x="1425" 
d="M825 -37q-342 0 -532.5 175.5t-190.5 475.5q0 296 198.5 475t530.5 179q267 0 465 -117v-379h-2q-225 146 -424 146q-152 0 -248 -82.5t-96 -217.5q0 -142 92 -222.5t250 -80.5q114 0 215.5 38t210.5 110h2v-385q-216 -115 -471 -115z" />
    <glyph glyph-name="d.sc" horiz-adv-x="1599" 
d="M172 0v1233h692q296 0 464.5 -160.5t168.5 -454.5q0 -295 -168.5 -456.5t-464.5 -161.5h-692zM590 328h211q135 0 204.5 68t69.5 220q0 150 -70 219.5t-204 69.5h-211v-577z" />
    <glyph glyph-name="e.sc" horiz-adv-x="1427" 
d="M172 0v1233h1108l18 -309h-708v-174h549v-269h-549v-170h729l-16 -311h-1131z" />
    <glyph glyph-name="f.sc" horiz-adv-x="1382" 
d="M172 0v1233h1094l16 -328h-690v-209h573v-288h-573v-408h-420z" />
    <glyph glyph-name="g.sc" horiz-adv-x="1581" 
d="M823 -41q-343 0 -532 174t-189 467q0 143 50.5 264.5t145 211.5t239 141t323.5 51q140 0 268 -29t222 -80v-356h-2q-129 61 -238 91t-229 30q-172 0 -265.5 -87.5t-93.5 -240.5q0 -148 85.5 -229.5t252.5 -81.5q114 0 187.5 44.5t74.5 127.5h-352v270h721q6 -64 6 -149
q0 -160 -49.5 -280t-140.5 -193.5t-212 -109.5t-272 -36z" />
    <glyph glyph-name="h.sc" horiz-adv-x="1665" 
d="M172 0v1233h420v-442h481v442h420v-1233h-420v449h-481v-449h-420z" />
    <glyph glyph-name="i.sc" horiz-adv-x="770" 
d="M176 0v1233h418v-1233h-418z" />
    <glyph glyph-name="j.sc" horiz-adv-x="1325" 
d="M594 -35q-267 0 -477 119v369h2q209 -138 411 -138q220 0 220 185v409h-437l17 324h837v-811q0 -232 -149 -344.5t-424 -112.5z" />
    <glyph glyph-name="k.sc" horiz-adv-x="1597" 
d="M172 0v1233h420v-440h133l340 440h473v-2l-459 -590l486 -639v-2h-490l-350 455h-133v-455h-420z" />
    <glyph glyph-name="l.sc" horiz-adv-x="1304" 
d="M172 0v1233h420v-885h647l-18 -348h-1049z" />
    <glyph glyph-name="m.sc" horiz-adv-x="1886" 
d="M172 0v1233h459l317 -539l307 539h459v-1233h-399v686h-6l-357 -596h-26l-353 592h-6v-682h-395z" />
    <glyph glyph-name="n.sc" horiz-adv-x="1656" 
d="M172 0v1233h428l483 -653h7v653h395v-1233h-414l-498 668h-6v-668h-395z" />
    <glyph glyph-name="o.sc" horiz-adv-x="1652" 
d="M825 -45q-333 0 -528 177t-195 482t196.5 483.5t528.5 178.5t527.5 -177t195.5 -481q0 -305 -196.5 -484t-528.5 -179zM827 307q140 0 221.5 80t81.5 227q0 148 -82 230t-223 82t-222 -81t-81 -229t81 -228.5t224 -80.5z" />
    <glyph glyph-name="p.sc" horiz-adv-x="1490" 
d="M172 0v1233h772q232 0 354.5 -124t122.5 -345q0 -120 -37.5 -212.5t-106 -149.5t-160.5 -86t-204 -29h-321v-287h-420zM592 602h272q78 0 116 43t38 113q0 157 -158 157h-268v-313z" />
    <glyph glyph-name="q.sc" horiz-adv-x="1683" 
d="M825 -45q-333 0 -528 177t-195 482t196.5 483.5t528.5 178.5q334 0 529.5 -177t195.5 -481q0 -156 -65 -280l100 -64v-354h-2l-285 180q-191 -145 -475 -145zM838 276q93 0 163 31l-266 156l148 223l272 -162q6 37 6 80q0 155 -86.5 240.5t-238.5 85.5q-150 0 -234 -85
t-84 -239q0 -157 85 -243.5t235 -86.5z" />
    <glyph glyph-name="r.sc" horiz-adv-x="1550" 
d="M172 0v1233h719q271 0 405 -110t134 -339q0 -284 -242 -387l319 -391v-6h-485l-244 326h-186v-326h-420zM592 621h254q174 0 174 149q0 150 -174 150h-254v-299z" />
    <glyph glyph-name="s.sc" horiz-adv-x="1415" 
d="M733 -37q-304 0 -588 119v356h2q151 -76 310 -116.5t288 -40.5q101 0 144 18t43 55q0 39 -48.5 58.5t-217.5 52.5q-78 14 -129.5 25t-112.5 28.5t-99.5 36t-77.5 46.5t-61 62t-35.5 80t-13.5 103q0 195 156.5 308.5t447.5 113.5q265 0 508 -101v-350h-2
q-116 60 -257 97.5t-267 37.5q-176 0 -176 -78q1 -35 46 -51t214 -49q101 -19 171.5 -37.5t142.5 -50t115 -70.5t70 -98.5t27 -136.5q0 -69 -18 -128t-62 -113.5t-111 -93t-171.5 -61t-237.5 -22.5z" />
    <glyph glyph-name="t.sc" horiz-adv-x="1445" 
d="M514 0v891h-434l18 342h1252l16 -342h-434v-891h-418z" />
    <glyph glyph-name="u.sc" horiz-adv-x="1605" 
d="M801 -41q-643 0 -643 535v739h417v-719q0 -110 64 -158.5t164 -48.5q48 0 87 10t71.5 32.5t50.5 63.5t18 97v723h420v-735q0 -539 -649 -539z" />
    <glyph glyph-name="v.sc" horiz-adv-x="1576" 
d="M469 0l-418 1233h451l268 -858h43l266 858h445l-416 -1233h-639z" />
    <glyph glyph-name="w.sc" horiz-adv-x="2195" 
d="M395 0l-327 1233h430l184 -774h16l226 774h374l222 -774h16l184 774h408l-324 -1233h-493l-205 688h-10l-209 -688h-492z" />
    <glyph glyph-name="x.sc" horiz-adv-x="1570" 
d="M18 0v2l496 635l-465 594v2h481l263 -334l256 334h473v-2l-465 -596l495 -633v-2h-483l-291 377l-286 -377h-474z" />
    <glyph glyph-name="y.sc" horiz-adv-x="1503" 
d="M545 0v377l-541 854v2h463l278 -473h23l285 473h446v-2l-536 -850v-381h-418z" />
    <glyph glyph-name="z.sc" horiz-adv-x="1478" 
d="M133 0v328l670 571h-658l17 334h1186v-309l-684 -590h686v-334h-1217z" />
    <glyph glyph-name="aacute.sc" horiz-adv-x="1613" 
d="M567 1384l254 365h463v-29l-360 -336h-357zM57 0l410 1233h682l407 -1233h-436l-67 223h-500l-66 -223h-430zM756 895l-121 -383h336l-119 383h-96z" />
    <glyph glyph-name="abreve.sc" horiz-adv-x="1613" 
d="M807 1364q-205 0 -322.5 82t-117.5 237q0 54 16 129h283q-7 -44 -7 -59q0 -64 38.5 -90.5t109.5 -26.5t108 26.5t37 90.5q0 9 -4 59h283q16 -75 16 -129q0 -155 -117.5 -237t-322.5 -82zM57 0l410 1233h682l407 -1233h-436l-67 223h-500l-66 -223h-430zM756 895
l-121 -383h336l-119 383h-96z" />
    <glyph glyph-name="acircumflex.sc" horiz-adv-x="1613" 
d="M301 1380l268 400h475l269 -400h-357l-112 162h-76l-113 -162h-354zM57 0l410 1233h682l407 -1233h-436l-67 223h-500l-66 -223h-430zM756 895l-121 -383h336l-119 383h-96z" />
    <glyph glyph-name="adieresis.sc" horiz-adv-x="1613" 
d="M532 1364q-96 0 -152 54t-56 141t56 140.5t152 53.5q97 0 153 -53.5t56 -140.5q0 -88 -56 -141.5t-153 -53.5zM1083 1364q-96 0 -152.5 54t-56.5 141t56.5 140.5t152.5 53.5q97 0 153 -53.5t56 -140.5q0 -88 -56 -141.5t-153 -53.5zM57 0l410 1233h682l407 -1233h-436
l-67 223h-500l-66 -223h-430zM756 895l-121 -383h336l-119 383h-96z" />
    <glyph glyph-name="ae.sc" horiz-adv-x="2310" 
d="M1055 0v236h-471l-125 -236h-451l680 1233h1475l16 -309h-709v-174h551v-269h-551v-170h732l-17 -311h-1130zM944 924l-207 -394h318v394h-111z" />
    <glyph glyph-name="aeacute.sc" horiz-adv-x="2310" 
d="M1051 1384l254 365h462v-29l-360 -336h-356zM1055 0v236h-471l-125 -236h-451l680 1233h1475l16 -309h-709v-174h551v-269h-551v-170h732l-17 -311h-1130zM944 924l-207 -394h318v394h-111z" />
    <glyph glyph-name="agrave.sc" horiz-adv-x="1613" 
d="M1053 1384h-359l-360 336v29h465zM57 0l410 1233h682l407 -1233h-436l-67 223h-500l-66 -223h-430zM756 895l-121 -383h336l-119 383h-96z" />
    <glyph glyph-name="amacron.sc" horiz-adv-x="1613" 
d="M383 1415v273h848v-273h-848zM57 0l410 1233h682l407 -1233h-436l-67 223h-500l-66 -223h-430zM756 895l-121 -383h336l-119 383h-96z" />
    <glyph glyph-name="aogonek.sc" horiz-adv-x="1613" 
d="M57 0l410 1233h682l407 -1233l-106 -100q-97 -93 -116 -118q-23 -32 -23 -61q0 -71 121 -71q84 0 165 33v-275q-127 -39 -247 -39q-94 0 -166.5 16.5t-114.5 41.5t-68.5 59.5t-35.5 66t-9 66.5q0 92 68.5 177t208.5 179l37 25h-150l-67 223h-500l-66 -223h-430zM756 895
l-121 -383h336l-119 383h-96z" />
    <glyph glyph-name="aring.sc" horiz-adv-x="1613" 
d="M805 1364q-181 0 -284 85t-103 241q0 159 103.5 245t285.5 86q184 0 288.5 -85t104.5 -244q0 -156 -106 -242t-289 -86zM807 1573q67 0 104 30.5t37 88.5q0 60 -37.5 91.5t-105.5 31.5q-66 0 -103.5 -31.5t-37.5 -91.5q0 -58 38 -88.5t105 -30.5zM57 0l410 1233h682
l407 -1233h-436l-67 223h-500l-66 -223h-430zM756 895l-121 -383h336l-119 383h-96z" />
    <glyph glyph-name="aringacute.sc" horiz-adv-x="1613" 
d="M606 2138l254 365h463v-29l-360 -336h-357zM805 1364q-181 0 -284 85t-103 241q0 159 103.5 245t285.5 86q184 0 288.5 -85t104.5 -244q0 -156 -106 -242t-289 -86zM807 1573q67 0 104 30.5t37 88.5q0 60 -37.5 91.5t-105.5 31.5q-66 0 -103.5 -31.5t-37.5 -91.5
q0 -58 38 -88.5t105 -30.5zM57 0l410 1233h682l407 -1233h-436l-67 223h-500l-66 -223h-430zM756 895l-121 -383h336l-119 383h-96z" />
    <glyph glyph-name="atilde.sc" horiz-adv-x="1613" 
d="M625 1772q57 0 103 -14.5t130 -53.5q107 -47 152 -47q55 0 104.5 31.5t114.5 107.5h2v-315q-109 -113 -242 -113q-57 0 -104.5 14.5t-128.5 51.5q-102 47 -152 47q-56 0 -105.5 -31.5t-115.5 -106.5h-2v314q115 115 244 115zM57 0l410 1233h682l407 -1233h-436l-67 223
h-500l-66 -223h-430zM756 895l-121 -383h336l-119 383h-96z" />
    <glyph glyph-name="cacute.sc" horiz-adv-x="1425" 
d="M559 1417l254 365h463v-29l-361 -336h-356zM825 -37q-342 0 -532.5 175.5t-190.5 475.5q0 296 198.5 475t530.5 179q267 0 465 -117v-379h-2q-225 146 -424 146q-152 0 -248 -82.5t-96 -217.5q0 -142 92 -222.5t250 -80.5q114 0 215.5 38t210.5 110h2v-385
q-216 -115 -471 -115z" />
    <glyph glyph-name="ccaron.sc" horiz-adv-x="1425" 
d="M1305 1812l-269 -399h-475l-268 399h356l113 -159h76l112 159h355zM825 -37q-342 0 -532.5 175.5t-190.5 475.5q0 296 198.5 475t530.5 179q267 0 465 -117v-379h-2q-225 146 -424 146q-152 0 -248 -82.5t-96 -217.5q0 -142 92 -222.5t250 -80.5q114 0 215.5 38
t210.5 110h2v-385q-216 -115 -471 -115z" />
    <glyph glyph-name="ccedilla.sc" horiz-adv-x="1425" 
d="M328 -395v37l307 338q-255 45 -394 212t-139 422q0 296 198.5 475t530.5 179q267 0 465 -117v-379h-2q-225 146 -424 146q-152 0 -248 -82.5t-96 -217.5q0 -142 92 -222.5t250 -80.5q114 0 215.5 38t210.5 110h2v-385q-158 -83 -329 -105l-164 -368h-475z" />
    <glyph glyph-name="cdotaccent.sc" horiz-adv-x="1425" 
d="M799 1397q-118 0 -182 55t-64 145v2q0 92 64 146.5t184 54.5q119 0 182.5 -54.5t63.5 -146.5v-2q0 -91 -64 -145.5t-184 -54.5zM825 -37q-342 0 -532.5 175.5t-190.5 475.5q0 296 198.5 475t530.5 179q267 0 465 -117v-379h-2q-225 146 -424 146q-152 0 -248 -82.5
t-96 -217.5q0 -142 92 -222.5t250 -80.5q114 0 215.5 38t210.5 110h2v-385q-216 -115 -471 -115z" />
    <glyph glyph-name="dcaron.sc" horiz-adv-x="1599" 
d="M1262 1780l-269 -400h-475l-268 400h356l113 -160h76l112 160h355zM172 0v1233h692q296 0 464.5 -160.5t168.5 -454.5q0 -295 -168.5 -456.5t-464.5 -161.5h-692zM590 328h211q135 0 204.5 68t69.5 220q0 150 -70 219.5t-204 69.5h-211v-577z" />
    <glyph glyph-name="dcroat.sc" horiz-adv-x="1695" 
d="M268 0v479h-194l22 281h172v473h693q296 0 464 -160.5t168 -454.5q0 -295 -168 -456.5t-464 -161.5h-693zM682 324h215q136 0 205 68.5t69 223.5q0 153 -69.5 223t-204.5 70h-215v-168h264v-245h-264v-172z" />
    <glyph glyph-name="eth.sc" horiz-adv-x="1695" 
d="M268 0v479h-194l22 281h172v473h693q296 0 464 -160.5t168 -454.5q0 -295 -168 -456.5t-464 -161.5h-693zM682 324h215q136 0 205 68.5t69 223.5q0 153 -69.5 223t-204.5 70h-215v-168h264v-245h-264v-172z" />
    <glyph glyph-name="eacute.sc" horiz-adv-x="1427" 
d="M500 1384l254 365h463v-29l-361 -336h-356zM172 0v1233h1108l18 -309h-708v-174h549v-269h-549v-170h729l-16 -311h-1131z" />
    <glyph glyph-name="ebreve.sc" horiz-adv-x="1427" 
d="M739 1364q-205 0 -322.5 82t-117.5 237q0 54 16 129h283q-6 -38 -6 -59q0 -64 38 -90.5t109 -26.5t108.5 26.5t37.5 90.5q0 9 -4 59h282q17 -80 17 -129q0 -155 -118 -237t-323 -82zM172 0v1233h1108l18 -309h-708v-174h549v-269h-549v-170h729l-16 -311h-1131z" />
    <glyph glyph-name="ecaron.sc" horiz-adv-x="1427" 
d="M1245 1780l-268 -400h-475l-269 400h357l112 -160h76l113 160h354zM172 0v1233h1108l18 -309h-708v-174h549v-269h-549v-170h729l-16 -311h-1131z" />
    <glyph glyph-name="ecircumflex.sc" horiz-adv-x="1427" 
d="M233 1380l269 400h475l268 -400h-356l-113 162h-76l-112 -162h-355zM172 0v1233h1108l18 -309h-708v-174h549v-269h-549v-170h729l-16 -311h-1131z" />
    <glyph glyph-name="edieresis.sc" horiz-adv-x="1427" 
d="M465 1364q-96 0 -152.5 54t-56.5 141t56.5 140.5t152.5 53.5q97 0 153 -53.5t56 -140.5q0 -88 -56 -141.5t-153 -53.5zM1016 1364q-96 0 -152.5 54t-56.5 141t56.5 140.5t152.5 53.5q97 0 153 -53.5t56 -140.5q0 -88 -56 -141.5t-153 -53.5zM172 0v1233h1108l18 -309
h-708v-174h549v-269h-549v-170h729l-16 -311h-1131z" />
    <glyph glyph-name="edotaccent.sc" horiz-adv-x="1427" 
d="M737 1364q-118 0 -181.5 55t-63.5 146v2q0 92 63.5 146t183.5 54q119 0 182.5 -54t63.5 -146v-2q0 -91 -64 -146t-184 -55zM172 0v1233h1108l18 -309h-708v-174h549v-269h-549v-170h729l-16 -311h-1131z" />
    <glyph glyph-name="egrave.sc" horiz-adv-x="1427" 
d="M983 1384h-358l-361 336v29h465zM172 0v1233h1108l18 -309h-708v-174h549v-269h-549v-170h729l-16 -311h-1131z" />
    <glyph glyph-name="emacron.sc" horiz-adv-x="1427" 
d="M315 1415v273h848v-273h-848zM172 0v1233h1108l18 -309h-708v-174h549v-269h-549v-170h729l-16 -311h-1131z" />
    <glyph glyph-name="eogonek.sc" horiz-adv-x="1427" 
d="M172 0v1233h1108l18 -309h-708v-174h549v-269h-549v-170h729l-16 -309l2 -2l-107 -100q-97 -93 -116 -118q-23 -32 -23 -61q0 -71 121 -71q85 0 166 33v-275q-127 -39 -248 -39q-94 0 -166.5 16.5t-114 41.5t-68 59.5t-35.5 66t-9 66.5q0 92 68 177t208 179l37 25h-846z
" />
    <glyph glyph-name="gbreve.sc" horiz-adv-x="1581" 
d="M805 1397q-205 0 -322.5 82t-117.5 237q0 54 16 129h283q-7 -44 -7 -59q0 -64 38.5 -90.5t109.5 -26.5t108 26.5t37 90.5q0 9 -4 59h283q16 -75 16 -129q0 -155 -117.5 -237t-322.5 -82zM823 -41q-343 0 -532 174t-189 467q0 143 50.5 264.5t145 211.5t239 141t323.5 51
q140 0 268 -29t222 -80v-356h-2q-129 61 -238 91t-229 30q-172 0 -265.5 -87.5t-93.5 -240.5q0 -148 85.5 -229.5t252.5 -81.5q114 0 187.5 44.5t74.5 127.5h-352v270h721q6 -64 6 -149q0 -160 -49.5 -280t-140.5 -193.5t-212 -109.5t-272 -36z" />
    <glyph glyph-name="uni0123.sc" horiz-adv-x="1581" 
d="M823 -41q-343 0 -532 174t-189 467q0 143 50.5 264.5t145 211.5t239 141t323.5 51q140 0 268 -29t222 -80v-356h-2q-129 61 -238 91t-229 30q-172 0 -265.5 -87.5t-93.5 -240.5q0 -148 85.5 -229.5t252.5 -81.5q114 0 187.5 44.5t74.5 127.5h-352v270h721q6 -64 6 -149
q0 -160 -49.5 -280t-140.5 -193.5t-212 -109.5t-272 -36zM510 -629l113 447h421v-41l-290 -406h-244z" />
    <glyph glyph-name="gdotaccent.sc" horiz-adv-x="1581" 
d="M803 1397q-118 0 -182 55t-64 145v2q0 92 64 146.5t184 54.5q119 0 182.5 -54.5t63.5 -146.5v-2q0 -91 -64 -145.5t-184 -54.5zM823 -41q-343 0 -532 174t-189 467q0 143 50.5 264.5t145 211.5t239 141t323.5 51q140 0 268 -29t222 -80v-356h-2q-129 61 -238 91t-229 30
q-172 0 -265.5 -87.5t-93.5 -240.5q0 -148 85.5 -229.5t252.5 -81.5q114 0 187.5 44.5t74.5 127.5h-352v270h721q6 -64 6 -149q0 -160 -49.5 -280t-140.5 -193.5t-212 -109.5t-272 -36z" />
    <glyph glyph-name="hbar.sc" horiz-adv-x="1855" 
d="M268 0v827h-194l16 283h178v123h416v-146h490v146h413v-123h178l17 -283h-195v-827h-413v385h-490v-385h-416zM684 707h490v145h-490v-145z" />
    <glyph glyph-name="iacute.sc" horiz-adv-x="770" 
d="M207 1384l254 365h463v-29l-361 -336h-356zM176 0v1233h418v-1233h-418z" />
    <glyph glyph-name="ibreve.sc" horiz-adv-x="770" 
d="M385 1364q-205 0 -322.5 82t-117.5 237q0 54 16 129h283q-6 -38 -6 -59q0 -64 38 -90.5t109 -26.5t108 26.5t37 90.5q0 9 -4 59h283q16 -75 16 -129q0 -155 -117.5 -237t-322.5 -82zM176 0v1233h418v-1233h-418z" />
    <glyph glyph-name="icircumflex.sc" horiz-adv-x="770" 
d="M-121 1380l268 400h476l268 -400h-356l-113 162h-76l-113 -162h-354zM176 0v1233h418v-1233h-418z" />
    <glyph glyph-name="idieresis.sc" horiz-adv-x="770" 
d="M111 1364q-96 0 -152.5 54t-56.5 141t56.5 140.5t152.5 53.5q97 0 152.5 -53t55.5 -141t-55.5 -141.5t-152.5 -53.5zM662 1364q-96 0 -152.5 54t-56.5 141t56.5 140.5t152.5 53.5q97 0 152.5 -53t55.5 -141t-55.5 -141.5t-152.5 -53.5zM176 0v1233h418v-1233h-418z" />
    <glyph glyph-name="idotaccent.sc" horiz-adv-x="770" 
d="M383 1364q-118 0 -182 55t-64 146v2q0 92 64 146t184 54q119 0 182.5 -54t63.5 -146v-2q0 -91 -64 -146t-184 -55zM176 0v1233h418v-1233h-418z" />
    <glyph glyph-name="dotlessi.sc" horiz-adv-x="770" 
d="M176 0v1233h418v-1233h-418z" />
    <glyph glyph-name="igrave.sc" horiz-adv-x="770" 
d="M563 1384h-358l-361 336v29h465zM176 0v1233h418v-1233h-418z" />
    <glyph glyph-name="imacron.sc" horiz-adv-x="770" 
d="M-39 1415v273h848v-273h-848zM176 0v1233h418v-1233h-418z" />
    <glyph glyph-name="iogonek.sc" horiz-adv-x="770" 
d="M176 0v1233h418v-1233l-107 -100q-97 -93 -116 -118q-23 -32 -23 -61q0 -71 121 -71q85 0 166 33v-275q-127 -39 -248 -39q-94 0 -166.5 16.5t-114 41.5t-68 59.5t-35.5 66t-9 66.5q0 92 68 177t208 179l37 25h-131z" />
    <glyph glyph-name="uni0137.sc" horiz-adv-x="1597" 
d="M172 0v1233h420v-440h133l340 440h473v-2l-459 -590l486 -639v-2h-490l-350 455h-133v-455h-420zM477 -580l113 447h422v-41l-291 -406h-244z" />
    <glyph glyph-name="lacute.sc" horiz-adv-x="1304" 
d="M203 1384l254 365h463v-29l-361 -336h-356zM172 0v1233h420v-885h647l-18 -348h-1049z" />
    <glyph glyph-name="lcaron.sc" horiz-adv-x="1304" 
d="M172 0v1233h420v-885h647l-18 -348h-1049zM756 860v373h377v-49l-160 -324h-217z" />
    <glyph glyph-name="uni013C.sc" horiz-adv-x="1304" 
d="M172 0v1233h420v-885h647l-18 -348h-1049zM385 -602l113 446h422v-41l-291 -405h-244z" />
    <glyph glyph-name="ldot.sc" horiz-adv-x="1304" 
d="M172 0v1233h420v-885h647l-18 -348h-1049zM1034 600q-99 0 -158 56.5t-59 146.5t59 146.5t158 56.5t158 -56.5t59 -146.5t-59 -146.5t-158 -56.5z" />
    <glyph glyph-name="lslash.sc" horiz-adv-x="1394" 
d="M262 0v379l-186 -80v309l186 80v545h420v-365l373 160v-305l-373 -162v-213h645l-14 -348h-1051z" />
    <glyph glyph-name="nacute.sc" horiz-adv-x="1656" 
d="M616 1360l254 364h463v-28l-360 -336h-357zM172 0v1233h428l483 -653h7v653h395v-1233h-414l-498 668h-6v-668h-395z" />
    <glyph glyph-name="ncaron.sc" horiz-adv-x="1656" 
d="M1362 1755l-268 -399h-476l-268 399h357l112 -160h76l113 160h354zM172 0v1233h428l483 -653h7v653h395v-1233h-414l-498 668h-6v-668h-395z" />
    <glyph glyph-name="uni0146.sc" horiz-adv-x="1656" 
d="M172 0v1233h428l483 -653h7v653h395v-1233h-414l-498 668h-6v-668h-395zM502 -578l112 447h422v-41l-291 -406h-243z" />
    <glyph glyph-name="ntilde.sc" horiz-adv-x="1656" 
d="M674 1772q57 0 103 -14.5t130 -53.5q107 -47 152 -47q55 0 104.5 31.5t114.5 107.5h2v-315q-109 -113 -242 -113q-57 0 -104.5 14.5t-128.5 51.5q-102 47 -152 47q-56 0 -105.5 -31.5t-115.5 -106.5h-2v314q115 115 244 115zM172 0v1233h428l483 -653h7v653h395v-1233
h-414l-498 668h-6v-668h-395z" />
    <glyph glyph-name="oacute.sc" horiz-adv-x="1652" 
d="M588 1425l254 365h463v-29l-361 -336h-356zM825 -45q-333 0 -528 177t-195 482t196.5 483.5t528.5 178.5t527.5 -177t195.5 -481q0 -305 -196.5 -484t-528.5 -179zM827 307q140 0 221.5 80t81.5 227q0 148 -82 230t-223 82t-222 -81t-81 -229t81 -228.5t224 -80.5z" />
    <glyph glyph-name="obreve.sc" horiz-adv-x="1652" 
d="M825 1405q-205 0 -322.5 82t-117.5 237q0 54 16 129h283q-6 -37 -6 -59q0 -64 38 -90.5t109 -26.5t108.5 26.5t37.5 90.5q0 9 -4 59h282q17 -80 17 -129q0 -155 -118 -237t-323 -82zM825 -45q-333 0 -528 177t-195 482t196.5 483.5t528.5 178.5t527.5 -177t195.5 -481
q0 -305 -196.5 -484t-528.5 -179zM827 307q140 0 221.5 80t81.5 227q0 148 -82 230t-223 82t-222 -81t-81 -229t81 -228.5t224 -80.5z" />
    <glyph glyph-name="ocircumflex.sc" horiz-adv-x="1652" 
d="M319 1421l269 400h475l268 -400h-356l-113 162h-76l-112 -162h-355zM825 -45q-333 0 -528 177t-195 482t196.5 483.5t528.5 178.5t527.5 -177t195.5 -481q0 -305 -196.5 -484t-528.5 -179zM827 307q140 0 221.5 80t81.5 227q0 148 -82 230t-223 82t-222 -81t-81 -229
t81 -228.5t224 -80.5z" />
    <glyph glyph-name="odieresis.sc" horiz-adv-x="1652" 
d="M551 1405q-96 0 -152.5 53.5t-56.5 140.5t56.5 141t152.5 54q97 0 153 -53.5t56 -141.5q0 -87 -56 -140.5t-153 -53.5zM1102 1405q-96 0 -152.5 53.5t-56.5 140.5t56.5 141t152.5 54q97 0 153 -53.5t56 -141.5q0 -87 -56 -140.5t-153 -53.5zM825 -45q-333 0 -528 177
t-195 482t196.5 483.5t528.5 178.5t527.5 -177t195.5 -481q0 -305 -196.5 -484t-528.5 -179zM827 307q140 0 221.5 80t81.5 227q0 148 -82 230t-223 82t-222 -81t-81 -229t81 -228.5t224 -80.5z" />
    <glyph glyph-name="oe.sc" horiz-adv-x="2263" 
d="M102 616q0 294 168.5 455.5t464.5 161.5h1383l16 -309h-709v-174h549v-269h-549v-170h732l-17 -311h-1405q-296 0 -464.5 160.5t-168.5 455.5zM1010 905h-211q-136 0 -205.5 -68t-69.5 -219t69.5 -220.5t205.5 -69.5h211v577z" />
    <glyph glyph-name="ograve.sc" horiz-adv-x="1652" 
d="M1071 1425h-358l-361 336v29h465zM825 -45q-333 0 -528 177t-195 482t196.5 483.5t528.5 178.5t527.5 -177t195.5 -481q0 -305 -196.5 -484t-528.5 -179zM827 307q140 0 221.5 80t81.5 227q0 148 -82 230t-223 82t-222 -81t-81 -229t81 -228.5t224 -80.5z" />
    <glyph glyph-name="ohungarumlaut.sc" horiz-adv-x="1652" 
d="M922 1421l219 365h403v-29l-338 -336h-284zM418 1421l219 365h401v-29l-338 -336h-282zM825 -45q-333 0 -528 177t-195 482t196.5 483.5t528.5 178.5t527.5 -177t195.5 -481q0 -305 -196.5 -484t-528.5 -179zM827 307q140 0 221.5 80t81.5 227q0 148 -82 230t-223 82
t-222 -81t-81 -229t81 -228.5t224 -80.5z" />
    <glyph glyph-name="omacron.sc" horiz-adv-x="1652" 
d="M401 1456v273h848v-273h-848zM825 -45q-333 0 -528 177t-195 482t196.5 483.5t528.5 178.5t527.5 -177t195.5 -481q0 -305 -196.5 -484t-528.5 -179zM827 307q140 0 221.5 80t81.5 227q0 148 -82 230t-223 82t-222 -81t-81 -229t81 -228.5t224 -80.5z" />
    <glyph glyph-name="oslash.sc" horiz-adv-x="1652" 
d="M825 -45q-179 0 -321 53l-101 -125h-385l236 293q-152 172 -152 438q0 305 196.5 483.5t528.5 178.5q180 0 322 -53l102 127h383l-237 -293q153 -173 153 -439q0 -305 -196.5 -484t-528.5 -179zM494 616q0 -105 36 -176l402 498q-49 12 -107 12q-154 0 -242.5 -88
t-88.5 -246zM827 281q154 0 243 87t89 246q0 103 -39 179l-401 -500q49 -12 108 -12z" />
    <glyph glyph-name="oslashacute.sc" horiz-adv-x="1652" 
d="M586 1405l254 364h463v-28l-361 -336h-356zM825 -45q-179 0 -321 53l-101 -125h-385l236 293q-152 172 -152 438q0 305 196.5 483.5t528.5 178.5q180 0 322 -53l102 127h383l-237 -293q153 -173 153 -439q0 -305 -196.5 -484t-528.5 -179zM494 616q0 -105 36 -176
l402 498q-49 12 -107 12q-154 0 -242.5 -88t-88.5 -246zM827 281q154 0 243 87t89 246q0 103 -39 179l-401 -500q49 -12 108 -12z" />
    <glyph glyph-name="otilde.sc" horiz-adv-x="1652" 
d="M645 1812q57 0 104.5 -14.5t129.5 -52.5q64 -28 93.5 -37.5t57.5 -9.5q55 0 104.5 31.5t114.5 107.5h2v-315q-109 -113 -241 -113q-58 0 -105.5 14.5t-128.5 51.5q-102 47 -151 47q-56 0 -106 -31.5t-116 -106.5h-2v314q114 114 244 114zM825 -45q-333 0 -528 177
t-195 482t196.5 483.5t528.5 178.5t527.5 -177t195.5 -481q0 -305 -196.5 -484t-528.5 -179zM827 307q140 0 221.5 80t81.5 227q0 148 -82 230t-223 82t-222 -81t-81 -229t81 -228.5t224 -80.5z" />
    <glyph glyph-name="racute.sc" horiz-adv-x="1550" 
d="M551 1384l254 365h463v-29l-361 -336h-356zM172 0v1233h719q271 0 405 -110t134 -339q0 -284 -242 -387l319 -391v-6h-485l-244 326h-186v-326h-420zM592 621h254q174 0 174 149q0 150 -174 150h-254v-299z" />
    <glyph glyph-name="rcaron.sc" horiz-adv-x="1550" 
d="M1296 1780l-268 -400h-475l-268 400h356l113 -160h75l113 160h354zM172 0v1233h719q271 0 405 -110t134 -339q0 -284 -242 -387l319 -391v-6h-485l-244 326h-186v-326h-420zM592 621h254q174 0 174 149q0 150 -174 150h-254v-299z" />
    <glyph glyph-name="uni0157.sc" horiz-adv-x="1550" 
d="M172 0v1233h719q271 0 405 -110t134 -339q0 -284 -242 -387l319 -391v-6h-485l-244 326h-186v-326h-420zM592 621h254q174 0 174 149q0 150 -174 150h-254v-299zM428 -580l113 447h422v-41l-291 -406h-244z" />
    <glyph glyph-name="sacute.sc" horiz-adv-x="1415" 
d="M500 1417l254 365h463v-29l-361 -336h-356zM733 -37q-304 0 -588 119v356h2q151 -76 310 -116.5t288 -40.5q101 0 144 18t43 55q0 39 -48.5 58.5t-217.5 52.5q-78 14 -129.5 25t-112.5 28.5t-99.5 36t-77.5 46.5t-61 62t-35.5 80t-13.5 103q0 195 156.5 308.5
t447.5 113.5q265 0 508 -101v-350h-2q-116 60 -257 97.5t-267 37.5q-176 0 -176 -78q1 -35 46 -51t214 -49q101 -19 171.5 -37.5t142.5 -50t115 -70.5t70 -98.5t27 -136.5q0 -69 -18 -128t-62 -113.5t-111 -93t-171.5 -61t-237.5 -22.5z" />
    <glyph glyph-name="scaron.sc" horiz-adv-x="1415" 
d="M1245 1812l-268 -399h-475l-269 399h357l112 -159h76l113 159h354zM733 -37q-304 0 -588 119v356h2q151 -76 310 -116.5t288 -40.5q101 0 144 18t43 55q0 39 -48.5 58.5t-217.5 52.5q-78 14 -129.5 25t-112.5 28.5t-99.5 36t-77.5 46.5t-61 62t-35.5 80t-13.5 103
q0 195 156.5 308.5t447.5 113.5q265 0 508 -101v-350h-2q-116 60 -257 97.5t-267 37.5q-176 0 -176 -78q1 -35 46 -51t214 -49q101 -19 171.5 -37.5t142.5 -50t115 -70.5t70 -98.5t27 -136.5q0 -69 -18 -128t-62 -113.5t-111 -93t-171.5 -61t-237.5 -22.5z" />
    <glyph glyph-name="scedilla.sc" horiz-adv-x="1415" 
d="M256 -397v37l303 333q-214 26 -414 109v356h2q151 -76 310 -116.5t288 -40.5q101 0 144 18t43 55q0 39 -48.5 58.5t-217.5 52.5q-78 14 -129.5 25t-112.5 28.5t-99.5 36t-77.5 46.5t-61 62t-35.5 80t-13.5 103q0 195 156.5 308.5t447.5 113.5q265 0 508 -101v-350h-2
q-116 60 -257 97.5t-267 37.5q-176 0 -176 -78q1 -35 46 -51t214 -49q101 -19 171.5 -37.5t142.5 -50t115 -70.5t70 -98.5t27 -136.5q0 -75 -22.5 -139t-72 -120.5t-136.5 -95t-207 -53.5l-164 -370h-475z" />
    <glyph glyph-name="uni0219.sc" horiz-adv-x="1415" 
d="M733 -37q-304 0 -588 119v356h2q151 -76 310 -116.5t288 -40.5q101 0 144 18t43 55q0 39 -48.5 58.5t-217.5 52.5q-78 14 -129.5 25t-112.5 28.5t-99.5 36t-77.5 46.5t-61 62t-35.5 80t-13.5 103q0 195 156.5 308.5t447.5 113.5q265 0 508 -101v-350h-2
q-116 60 -257 97.5t-267 37.5q-176 0 -176 -78q1 -35 46 -51t214 -49q101 -19 171.5 -37.5t142.5 -50t115 -70.5t70 -98.5t27 -136.5q0 -69 -18 -128t-62 -113.5t-111 -93t-171.5 -61t-237.5 -22.5zM408 -629l112 447h422v-41l-291 -406h-243z" />
    <glyph glyph-name="uni1E9E.sc" horiz-adv-x="1675" 
d="M592 0h-420v1233h1333v-313l-311 -244l59 -14q181 -49 257.5 -128t76.5 -212q0 -359 -502 -359q-93 0 -196.5 14.5t-163.5 36.5v305h2q59 -23 145 -41t168 -18q89 0 122.5 23.5t33.5 64.5q0 30 -19 50t-76 40t-169 43l-103 21v198l279 226h-516v-926z" />
    <glyph glyph-name="tcaron.sc" horiz-adv-x="1445" 
d="M1229 1780l-268 -400h-476l-268 400h356l113 -160h76l112 160h355zM514 0v891h-434l18 342h1252l16 -342h-434v-891h-418z" />
    <glyph glyph-name="uni0163.sc" horiz-adv-x="1445" 
d="M514 0v891h-434l18 342h1252l16 -342h-434v-891h-418zM389 -602l113 446h422v-41l-291 -405h-244z" />
    <glyph glyph-name="uacute.sc" horiz-adv-x="1605" 
d="M580 1360l254 364h462v-28l-360 -336h-356zM801 -41q-643 0 -643 535v739h417v-719q0 -110 64 -158.5t164 -48.5q48 0 87 10t71.5 32.5t50.5 63.5t18 97v723h420v-735q0 -539 -649 -539z" />
    <glyph glyph-name="ubreve.sc" horiz-adv-x="1605" 
d="M803 1339q-205 0 -323 82.5t-118 237.5q0 49 17 129h283q-7 -44 -7 -59q0 -64 38.5 -90.5t109.5 -26.5t108 26.5t37 90.5q0 9 -4 59h283q16 -75 16 -129q0 -155 -117.5 -237.5t-322.5 -82.5zM801 -41q-643 0 -643 535v739h417v-719q0 -110 64 -158.5t164 -48.5
q48 0 87 10t71.5 32.5t50.5 63.5t18 97v723h420v-735q0 -539 -649 -539z" />
    <glyph glyph-name="ucircumflex.sc" horiz-adv-x="1605" 
d="M297 1380l268 400h475l269 -400h-357l-112 162h-76l-113 -162h-354zM801 -41q-643 0 -643 535v739h417v-719q0 -110 64 -158.5t164 -48.5q48 0 87 10t71.5 32.5t50.5 63.5t18 97v723h420v-735q0 -539 -649 -539z" />
    <glyph glyph-name="udieresis.sc" horiz-adv-x="1605" 
d="M528 1364q-96 0 -152.5 54t-56.5 141t56.5 140.5t152.5 53.5q97 0 153 -53.5t56 -140.5q0 -88 -56 -141.5t-153 -53.5zM1079 1364q-96 0 -152.5 54t-56.5 141t56.5 140.5t152.5 53.5q97 0 153 -53.5t56 -140.5q0 -88 -56 -141.5t-153 -53.5zM801 -41q-643 0 -643 535v739
h417v-719q0 -110 64 -158.5t164 -48.5q48 0 87 10t71.5 32.5t50.5 63.5t18 97v723h420v-735q0 -539 -649 -539z" />
    <glyph glyph-name="ugrave.sc" horiz-adv-x="1605" 
d="M1032 1360h-358l-361 336v28h465zM801 -41q-643 0 -643 535v739h417v-719q0 -110 64 -158.5t164 -48.5q48 0 87 10t71.5 32.5t50.5 63.5t18 97v723h420v-735q0 -539 -649 -539z" />
    <glyph glyph-name="uhungarumlaut.sc" horiz-adv-x="1605" 
d="M877 1380l219 365h403v-29l-338 -336h-284zM373 1380l219 365h401v-29l-338 -336h-282zM801 -41q-643 0 -643 535v739h417v-719q0 -110 64 -158.5t164 -48.5q48 0 87 10t71.5 32.5t50.5 63.5t18 97v723h420v-735q0 -539 -649 -539z" />
    <glyph glyph-name="umacron.sc" horiz-adv-x="1605" 
d="M379 1415v273h848v-273h-848zM801 -41q-643 0 -643 535v739h417v-719q0 -110 64 -158.5t164 -48.5q48 0 87 10t71.5 32.5t50.5 63.5t18 97v723h420v-735q0 -539 -649 -539z" />
    <glyph glyph-name="uogonek.sc" horiz-adv-x="1605" 
d="M1110 -594q-127 -39 -248 -39q-94 0 -166.5 16.5t-114 41.5t-68 59.5t-35.5 66t-9 66.5q0 89 63.5 171t194.5 173q-569 30 -569 533v739h417v-719q0 -110 64 -158.5t164 -48.5q48 0 87 10t71.5 32.5t50.5 63.5t18 97v723h420v-735q0 -423 -395 -512l-92 -88
q-97 -93 -115 -116q-25 -33 -25 -63q0 -71 121 -71q85 0 166 33v-275z" />
    <glyph glyph-name="uring.sc" horiz-adv-x="1605" 
d="M801 1339q-181 0 -284 85t-103 241q0 159 103.5 245.5t285.5 86.5q184 0 288.5 -85.5t104.5 -244.5q0 -156 -106 -242t-289 -86zM803 1548q67 0 104 30.5t37 88.5q0 60 -37.5 91.5t-105.5 31.5q-66 0 -104 -31.5t-38 -91.5q0 -58 38.5 -88.5t105.5 -30.5zM801 -41
q-643 0 -643 535v739h417v-719q0 -110 64 -158.5t164 -48.5q48 0 87 10t71.5 32.5t50.5 63.5t18 97v723h420v-735q0 -539 -649 -539z" />
    <glyph glyph-name="wacute.sc" horiz-adv-x="2195" 
d="M930 1384l254 365h463v-29l-361 -336h-356zM395 0l-327 1233h430l184 -774h16l226 774h374l222 -774h16l184 774h408l-324 -1233h-493l-205 688h-10l-209 -688h-492z" />
    <glyph glyph-name="wcircumflex.sc" horiz-adv-x="2195" 
d="M592 1380l268 400h475l269 -400h-357l-112 162h-76l-113 -162h-354zM395 0l-327 1233h430l184 -774h16l226 774h374l222 -774h16l184 774h408l-324 -1233h-493l-205 688h-10l-209 -688h-492z" />
    <glyph glyph-name="wdieresis.sc" horiz-adv-x="2195" 
d="M823 1364q-96 0 -152.5 54t-56.5 141t56.5 140.5t152.5 53.5q97 0 153 -53.5t56 -140.5q0 -88 -56 -141.5t-153 -53.5zM1374 1364q-96 0 -152.5 54t-56.5 141t56.5 140.5t152.5 53.5q97 0 153 -53.5t56 -140.5q0 -88 -56 -141.5t-153 -53.5zM395 0l-327 1233h430
l184 -774h16l226 774h374l222 -774h16l184 774h408l-324 -1233h-493l-205 688h-10l-209 -688h-492z" />
    <glyph glyph-name="wgrave.sc" horiz-adv-x="2195" 
d="M1288 1384h-358l-361 336v29h465zM395 0l-327 1233h430l184 -774h16l226 774h374l222 -774h16l184 774h408l-324 -1233h-493l-205 688h-10l-209 -688h-492z" />
    <glyph glyph-name="yacute.sc" horiz-adv-x="1503" 
d="M516 1360l254 364h463v-28l-361 -336h-356zM545 0v377l-541 854v2h463l278 -473h23l285 473h446v-2l-536 -850v-381h-418z" />
    <glyph glyph-name="ycircumflex.sc" horiz-adv-x="1503" 
d="M250 1380l268 400h475l269 -400h-357l-112 162h-76l-113 -162h-354zM545 0v377l-541 854v2h463l278 -473h23l285 473h446v-2l-536 -850v-381h-418z" />
    <glyph glyph-name="ydieresis.sc" horiz-adv-x="1503" 
d="M481 1364q-96 0 -152.5 54t-56.5 141t56.5 140.5t152.5 53.5q97 0 153 -53.5t56 -140.5q0 -88 -56 -141.5t-153 -53.5zM1032 1364q-96 0 -152.5 54t-56.5 141t56.5 140.5t152.5 53.5q97 0 153 -53.5t56 -140.5q0 -88 -56 -141.5t-153 -53.5zM545 0v377l-541 854v2h463
l278 -473h23l285 473h446v-2l-536 -850v-381h-418z" />
    <glyph glyph-name="ygrave.sc" horiz-adv-x="1503" 
d="M999 1360h-358l-360 336v28h464zM545 0v377l-541 854v2h463l278 -473h23l285 473h446v-2l-536 -850v-381h-418z" />
    <glyph glyph-name="zacute.sc" horiz-adv-x="1478" 
d="M512 1384l254 365h463v-29l-361 -336h-356zM133 0v328l670 571h-658l17 334h1186v-309l-684 -590h686v-334h-1217z" />
    <glyph glyph-name="zcaron.sc" horiz-adv-x="1478" 
d="M1255 1780l-268 -400h-475l-268 400h356l113 -160h75l113 160h354zM133 0v328l670 571h-658l17 334h1186v-309l-684 -590h686v-334h-1217z" />
    <glyph glyph-name="zdotaccent.sc" horiz-adv-x="1478" 
d="M750 1364q-118 0 -182 55t-64 146v2q0 92 64 146t184 54q119 0 182 -54t63 -146v-2q0 -91 -64 -146t-183 -55zM133 0v328l670 571h-658l17 334h1186v-309l-684 -590h686v-334h-1217z" />
    <glyph glyph-name="thorn.sc" horiz-adv-x="1507" 
d="M172 0v1233h420v-148h373q229 0 351 -121.5t122 -336.5q0 -118 -37.5 -209t-105.5 -147.5t-159 -85.5t-202 -29h-342v-156h-420zM592 471h291q73 0 109 40.5t36 104.5q0 148 -149 148h-287v-293z" />
    <glyph glyph-name="one.alt" horiz-adv-x="866" 
d="M223 1434h420v-1434h-420v1434z" />
    <glyph glyph-name="two.alt" horiz-adv-x="1435" 
d="M768 1475q264 0 423 -109.5t159 -316.5q0 -55 -11.5 -102t-30 -83.5t-54.5 -71.5t-70.5 -60.5t-92 -55.5t-106.5 -52t-127 -55q-175 -76 -238 -118t-67 -105l774 4v-350h-1229v129q0 114 22 204t61.5 158t108 127t147.5 104.5t194 96.5q187 83 241 119.5t54 79.5
q0 56 -44 80t-128 24q-127 0 -278.5 -51t-285.5 -131h-2v385q292 150 580 150z" />
    <glyph glyph-name="three.alt" horiz-adv-x="1429" 
d="M1337 391q0 -133 -86 -232t-235.5 -149.5t-341.5 -50.5q-322 0 -565 92v365h2q122 -54 265 -84.5t257 -30.5q280 0 280 139q0 76 -84 107t-282 31h-135v290h135q192 0 274 33.5t82 106.5q0 69 -64 98t-180 29q-241 0 -505 -121h-2v358q270 105 555 105q180 0 313.5 -42.5
t213 -136t79.5 -229.5q0 -121 -69.5 -209t-213.5 -129v-4q307 -68 307 -336z" />
    <glyph glyph-name="seven.alt" horiz-adv-x="1429" 
d="M346 0q36 155 87.5 290.5t102.5 231t125 195t129 161.5t142 152v70h-475v-234h-373v568h1274v-494q-57 -55 -86 -84t-80.5 -82.5t-80.5 -88t-72.5 -90t-69.5 -99.5t-59.5 -104.5t-55 -118.5t-43 -128t-35.5 -145h-430z" />
    <glyph glyph-name="zero.osf" horiz-adv-x="1527" 
d="M764 -45q-309 0 -493.5 176t-184.5 483q0 306 185.5 484t494.5 178t492.5 -176t183.5 -482q0 -308 -184.5 -485.5t-493.5 -177.5zM766 295q129 0 203.5 83t74.5 236q0 155 -75.5 239.5t-204.5 84.5q-131 0 -206 -83.5t-75 -236.5q0 -154 76 -238.5t207 -84.5z" />
    <glyph glyph-name="one.osf" horiz-adv-x="991" 
d="M350 0v893h-272l51 340h639v-1233h-418z" />
    <glyph glyph-name="two.osf" horiz-adv-x="1345" 
d="M119 0v328l284 170q136 79 220.5 134t122 91t48.5 56.5t11 43.5q0 101 -154 101q-196 0 -477 -154v365q139 70 266.5 103.5t278.5 33.5q231 0 370.5 -103.5t139.5 -277.5q0 -155 -108.5 -269t-381.5 -260l-65 -36l573 4v-330h-1128z" />
    <glyph glyph-name="three.osf" horiz-adv-x="1298" 
d="M596 -242q-275 0 -481 72v350h2q244 -90 454 -90q260 0 260 146q0 79 -105 113t-355 34h-25v211l389 307h-622l16 332h1049v-332l-367 -285q420 -70 420 -395q0 -144 -80.5 -249.5t-223 -159.5t-331.5 -54z" />
    <glyph glyph-name="four.osf" horiz-adv-x="1511" 
d="M848 -201v285h-764v297l403 852h746v-827h235l-16 -322h-219v-285h-385zM498 399h358v508h-127z" />
    <glyph glyph-name="five.osf" horiz-adv-x="1290" 
d="M616 -242q-206 0 -493 66v350h2q272 -84 465 -84q57 0 101 10.5t69 26.5t40.5 38t21 42t5.5 41q0 57 -28 82q-35 37 -120 49t-312 12h-213l16 842h967l16 -332h-627l-4 -211h103q303 -5 452.5 -109.5t149.5 -336.5q0 -225 -165 -355.5t-446 -130.5z" />
    <glyph glyph-name="six.osf" horiz-adv-x="1425" 
d="M739 -41q-147 0 -265 42t-205.5 126.5t-135 220t-47.5 314.5q0 382 205 597.5t559 215.5q216 0 401 -68v-334h-2q-117 41 -197 57.5t-178 16.5q-168 0 -267 -80t-120 -223q165 92 353 92q105 0 194 -26.5t158.5 -79t109 -138.5t39.5 -198q0 -246 -166.5 -390.5
t-435.5 -144.5zM739 655q-137 0 -256 -75q5 -297 258 -297q89 0 152 53.5t63 146.5q0 49 -20 84.5t-53.5 53.5t-68.5 26t-75 8z" />
    <glyph glyph-name="seven.osf" horiz-adv-x="1353" 
d="M1274 1233v-416l-576 -1018h-438l598 1051v57h-399v-227h-363v553h1178z" />
    <glyph glyph-name="eight.osf" horiz-adv-x="1437" 
d="M719 -51q-193 0 -334 47t-221 144t-80 237q0 128 67.5 211.5t192.5 138.5q-225 99 -225 317q0 202 161.5 318.5t438.5 116.5t438.5 -117t161.5 -318q0 -218 -225 -317q125 -55 192.5 -138.5t67.5 -211.5q0 -209 -169.5 -318.5t-465.5 -109.5zM719 844q101 0 160 39.5
t59 122.5q0 79 -58 122t-161 43t-161 -43t-58 -122q0 -83 59 -122.5t160 -39.5zM719 258q113 0 176 45t63 129q0 82 -65 124t-174 42q-111 0 -175.5 -41.5t-64.5 -124.5q0 -84 62.5 -129t177.5 -45z" />
    <glyph glyph-name="nine.osf" horiz-adv-x="1425" 
d="M686 1274q147 0 265 -42t205.5 -126.5t135 -220t47.5 -314.5q0 -382 -205 -597.5t-559 -215.5q-216 0 -401 68v334h2q117 -41 197 -57.5t178 -16.5q168 0 267 80t120 223q-165 -92 -352 -92q-105 0 -194.5 26.5t-159 79t-109 138.5t-39.5 198q0 246 166.5 390.5
t435.5 144.5zM469 750q0 -49 20 -84.5t53.5 -53.5t68.5 -26t75 -8q137 0 256 75q-5 297 -258 297q-89 0 -152 -53.5t-63 -146.5z" />
    <glyph glyph-name="colon.fig" horiz-adv-x="864" 
d="M432 840q-119 0 -186.5 64.5t-67.5 166.5v2q0 102 67.5 166t186.5 64q118 0 186 -64t68 -166v-2q0 -102 -68 -166.5t-186 -64.5zM432 129q-119 0 -186.5 64t-67.5 165v2q0 102 67.5 167t186.5 65q117 0 185.5 -64.5t68.5 -165.5v-2q0 -102 -68 -166.5t-186 -64.5z" />
    <glyph glyph-name="periodcentered.cap" horiz-adv-x="845" 
d="M422 485q-117 0 -184.5 64.5t-67.5 165.5v2q0 102 67.5 166.5t184.5 64.5t185.5 -64t68.5 -165v-2q0 -102 -68.5 -167t-185.5 -65z" />
    <glyph glyph-name="ampersand.sc" horiz-adv-x="1705" 
d="M553 -39q-198 0 -317 89.5t-119 246.5q0 71 21 129.5t67.5 109.5t100.5 92t138 93l45 27l-182 180v305h1028l15 -297h-582l383 -387l389 289h2v-373l-180 -133l326 -332h-439l-147 143q-144 -92 -273 -137t-276 -45zM500 352q0 -42 28.5 -65t81.5 -23q108 0 271 101
l-187 182l-20 -12q-101 -59 -137.5 -100t-36.5 -83z" />
    <glyph glyph-name="exclamdown.cap" horiz-adv-x="866" 
d="M434 1456q117 0 184.5 -64t67.5 -165v-2q0 -102 -67.5 -167t-184.5 -65t-185.5 64.5t-68.5 165.5v2q0 102 68 166.5t186 64.5zM588 860l106 -821v-39h-520v39l105 821h309z" />
    <glyph glyph-name="questiondown.cap" horiz-adv-x="1249" 
d="M694 1456q118 0 185 -64t67 -165v-2q0 -103 -67 -167.5t-185 -64.5q-117 0 -185.5 64.5t-68.5 165.5v2q0 102 68 166.5t186 64.5zM1141 80q-145 -63 -274 -94t-275 -31q-116 0 -215.5 22.5t-179 68.5t-125 123.5t-45.5 178.5q0 97 39.5 175.5t109.5 136.5t176.5 103.5
t230 76.5t281.5 55h2v-309q-162 -37 -252 -70.5t-123.5 -63.5t-33.5 -69q0 -96 186 -96q116 0 247.5 41t248.5 110h2v-358z" />
    <glyph glyph-name="guillemotleft.cap" horiz-adv-x="1622" 
d="M854 1202l-371 -485l371 -484h-428l-360 467v35l360 467h428zM1534 1202l-371 -485l371 -484h-426l-363 467v35l363 467h426z" />
    <glyph glyph-name="guillemotright.cap" horiz-adv-x="1622" 
d="M768 233l371 486l-371 483h428l360 -467v-35l-360 -467h-428zM88 233l371 486l-371 483h426l363 -467v-35l-363 -467h-426z" />
    <glyph glyph-name="guilsinglleft.cap" horiz-adv-x="983" 
d="M891 233h-465l-360 467v35l360 467h465l-371 -485z" />
    <glyph glyph-name="guilsinglright.cap" horiz-adv-x="983" 
d="M88 1202h465l360 -467v-35l-360 -467h-465l371 486z" />
    <glyph glyph-name="hyphen.cap" horiz-adv-x="917" 
d="M96 535v362h723v-362h-723z" />
    <glyph glyph-name="endash.cap" horiz-adv-x="1417" 
d="M135 539v354h1145v-354h-1145z" />
    <glyph glyph-name="emdash.cap" horiz-adv-x="1777" 
d="M135 539v354h1507v-354h-1507z" />
    <glyph glyph-name="slash.cap" horiz-adv-x="1218" 
d="M78 -289l678 2011h387l-678 -2011h-387z" />
    <glyph glyph-name="bar.cap" horiz-adv-x="1140" 
d="M381 -289v2011h379v-2011h-379z" />
    <glyph glyph-name="backslash.cap" horiz-adv-x="1220" 
d="M1143 -289h-389l-678 2011h391z" />
    <glyph glyph-name="parenleft.cap" horiz-adv-x="983" 
d="M541 717q0 -251 109.5 -507t336.5 -499h-436q-215 220 -322.5 481.5t-107.5 524.5q0 260 107.5 521.5t322.5 483.5h436q-446 -482 -446 -1005z" />
    <glyph glyph-name="parenright.cap" horiz-adv-x="983" 
d="M442 715q0 251 -109.5 506.5t-336.5 498.5h436q215 -220 322.5 -481t107.5 -524q0 -260 -107.5 -522t-322.5 -484h-436q446 482 446 1006z" />
    <glyph glyph-name="bracketleft.cap" horiz-adv-x="987" 
d="M135 -289v2011h768v-313h-385v-1384h385v-314h-768z" />
    <glyph glyph-name="bracketright.cap" horiz-adv-x="987" 
d="M852 1720v-2011h-768v314h385v1384h-385v313h768z" />
    <glyph glyph-name="braceleft.cap" horiz-adv-x="1177" 
d="M25 686v62l329 313l-14 121q-18 144 13 256.5t102.5 182t172.5 105t228 35.5q142 0 248 -35v-323h-2q-76 31 -164 31q-122 0 -183.5 -76.5t-37.5 -241.5l24 -180l-270 -219l270 -219l-24 -181q-23 -164 38 -239.5t183 -75.5q88 0 164 31h2v-328q-116 -35 -248 -35
q-126 0 -227.5 36t-173 106t-102.5 182t-13 256l14 123z" />
    <glyph glyph-name="braceright.cap" horiz-adv-x="1177" 
d="M1153 748v-62l-330 -313l15 -121q18 -144 -13 -256.5t-102.5 -182.5t-173 -105.5t-227.5 -35.5q-142 0 -248 35v324h2q76 -31 164 -31q122 0 183 76.5t38 240.5l-25 181l271 219l-271 219l25 180q23 164 -38 240t-183 76q-88 0 -164 -31h-2v328q112 34 248 34
q126 0 227.5 -36t173 -105.5t102.5 -181.5t13 -256l-15 -123z" />
    <glyph glyph-name="at.cap" horiz-adv-x="2283" 
d="M1681 274q-229 0 -338 144q-140 -146 -323 -146q-135 0 -209 64.5t-74 171.5q0 98 68 166q118 121 483 145q-3 111 -137 111q-166 0 -334 -105v269q180 92 387 92q393 0 393 -359v-196q0 -62 25 -90.5t78 -28.5q47 0 77.5 27.5t48 98t17.5 187.5q0 128 -37.5 229.5
t-114 176.5t-200.5 115t-291 40q-359 0 -547 -179t-188 -525q0 -321 178.5 -478t548.5 -157q167 0 304.5 31t275.5 88l-5 -289q-279 -108 -591 -108q-506 0 -765 233t-259 678q0 301 127.5 524t364.5 342t556 119q229 0 408 -58.5t295.5 -167t176.5 -259.5t60 -338
q0 -267 -114 -417.5t-345 -150.5zM1128 483q48 0 92 19t68 43v119q-182 -19 -231 -68q-19 -16 -19 -47q0 -30 24 -48t66 -18z" />
    <glyph glyph-name="bullet.cap" horiz-adv-x="929" 
d="M465 373q-170 0 -266.5 99t-96.5 243v6q0 144 96.5 242t266.5 98q168 0 264 -98t96 -242v-6q0 -144 -96 -243t-264 -99z" />
    <glyph glyph-name="R_p" horiz-adv-x="3063" 
d="M174 0v1434h784q279 0 418.5 -130t139.5 -382q0 -342 -269 -457l338 -465h-475l-264 381h-252v-381h-420zM1714 -426v1559h408l4 -150q137 186 362 186q223 0 362.5 -155t139.5 -414q0 -140 -46.5 -259t-127 -200t-190.5 -126.5t-236 -45.5q-147 0 -256 56v-451h-420z
M594 709h307q102 0 149.5 52t47.5 142q0 195 -197 195h-307v-389zM2312 293q117 0 187.5 74t70.5 206q0 126 -65 196.5t-170 70.5q-116 0 -201 -72v-420q83 -55 178 -55z" />
    <glyph glyph-name="one.sup_alt" horiz-adv-x="970" 
d="M864 967v-236h-698v236h217v381h-219l35 239h479v-620h186z" />
    <glyph glyph-name="one.inf_alt" horiz-adv-x="970" 
d="M864 -186v-236h-698v236h217v381h-219l35 239h479v-620h186z" />
    <glyph glyph-name="zero.tab" horiz-adv-x="1482" 
d="M741 -41q-175 0 -307.5 55t-214 157t-122 238t-40.5 306q0 169 40.5 306.5t122.5 239.5t214.5 158t306.5 56q172 0 303.5 -55.5t214 -156.5t124.5 -238t42 -306t-42 -306.5t-125 -239.5t-214.5 -158t-302.5 -56zM741 305q148 0 212.5 103.5t64.5 308.5q0 202 -65 306.5
t-212 104.5q-148 0 -212 -103.5t-64 -307.5q0 -202 65 -307t211 -105z" />
    <glyph glyph-name="one.tab" horiz-adv-x="1482" 
d="M1368 342v-342h-1192v342h410v760h-410l51 332h779v-1092h362z" />
    <glyph glyph-name="two.tab" horiz-adv-x="1482" 
d="M117 0v334l372 264q49 35 132 94q195 138 251 190t56 111q0 125 -199 125q-258 0 -551 -221h-2v389q277 189 598 189q275 0 424.5 -117t149.5 -316q0 -60 -10.5 -108.5t-39 -96t-63 -87t-100.5 -91.5t-132.5 -97.5t-175.5 -117.5l-155 -104l674 4v-344h-1229z" />
    <glyph glyph-name="three.tab" horiz-adv-x="1482" 
d="M723 -41q-308 0 -573 107v368h2q132 -60 273.5 -96.5t258.5 -36.5q136 0 213.5 35t77.5 108q0 80 -109.5 114t-384.5 34h-45v190l402 308h-678l16 344h1153v-314l-391 -289q455 -61 455 -395q0 -223 -184 -350t-486 -127z" />
    <glyph glyph-name="four.tab" horiz-adv-x="1482" 
d="M860 0v268h-803v303l396 863h790v-836h201l-19 -330h-182v-268h-383zM477 594h391v512h-163z" />
    <glyph glyph-name="five.tab" horiz-adv-x="1482" 
d="M731 -41q-293 0 -569 100v365h2q301 -121 549 -121q60 0 106.5 10t72.5 25.5t42.5 36.5t21.5 39.5t5 38.5q0 46 -29 75q-34 34 -130.5 47t-332.5 13h-283l21 846h1083l15 -338h-736l-6 -201h55q275 0 424.5 -36t235.5 -124q104 -110 104 -286q0 -223 -174.5 -356.5
t-476.5 -133.5z" />
    <glyph glyph-name="six.tab" horiz-adv-x="1482" 
d="M764 -41q-321 0 -496.5 183t-175.5 542q0 375 202.5 583t565.5 208q231 0 445 -86v-349h-2q-129 56 -219 79.5t-199 23.5q-178 0 -279.5 -74t-118.5 -240q162 109 381 109q119 0 215.5 -27t168 -80.5t110.5 -139t39 -197.5q0 -161 -85 -284t-229 -187t-323 -64zM774 643
q-141 0 -287 -86q13 -274 287 -274q105 0 171.5 52t66.5 144q0 164 -238 164z" />
    <glyph glyph-name="seven.tab" horiz-adv-x="1482" 
d="M111 866v568h1275v-445l-604 -989h-454l633 1030v70h-476v-234h-374z" />
    <glyph glyph-name="eight.tab" horiz-adv-x="1482" 
d="M741 -49q-331 0 -498 111t-167 315q0 127 69.5 211.5t216.5 138.5q-127 47 -189 123t-62 194q0 199 160.5 317t469.5 118q308 0 470.5 -118.5t162.5 -316.5q0 -117 -63 -193.5t-189 -123.5q147 -54 217 -138.5t70 -211.5q0 -203 -167.5 -314.5t-500.5 -111.5zM741 846
q236 0 236 160q0 78 -59.5 119.5t-176.5 41.5q-235 0 -235 -161q0 -160 235 -160zM741 262q258 0 258 170q0 79 -66.5 121.5t-191.5 42.5q-258 0 -258 -164q0 -170 258 -170z" />
    <glyph glyph-name="nine.tab" horiz-adv-x="1482" 
d="M719 1479q321 0 496.5 -183t175.5 -542q0 -375 -202.5 -583t-565.5 -208q-231 0 -445 86v348h2q128 -55 218.5 -78.5t199.5 -23.5q178 0 279 74t118 239q-161 -108 -381 -108q-160 0 -277.5 46.5t-186 147.5t-68.5 250q0 161 85 284t229 187t323 64zM471 958
q0 -163 238 -163q140 0 286 86q-13 274 -286 274q-105 0 -171.5 -52t-66.5 -145z" />
    <glyph glyph-name="dollar.tab" horiz-adv-x="1482" 
d="M561 -246v275q-188 28 -391 110v361h2q159 -83 321.5 -125.5t292.5 -42.5q197 0 197 102q0 37 -24.5 58.5t-86.5 38t-198 40.5q-98 16 -170 35.5t-139.5 51.5t-109 74.5t-66.5 104.5t-25 142q0 154 105 266t304 152v252h379v-242q180 -26 340 -96v-357h-2
q-116 67 -263 107.5t-265 40.5q-197 0 -197 -105q0 -49 53 -72q36 -15 173 -39q56 -10 88 -16q96 -17 167 -37t137 -52.5t107 -75.5t65.5 -106.5t24.5 -145.5q0 -74 -24 -140.5t-74.5 -125t-137.5 -100.5t-204 -60v-242z" />
    <glyph glyph-name="cent.tab" horiz-adv-x="1482" 
d="M621 -86v281q-189 50 -297.5 182.5t-108.5 327.5q0 192 113 330.5t305 191.5v248h373v-234q135 -23 239 -92v-320h-2q-160 113 -346 113q-133 0 -214 -64t-81 -173q0 -105 82 -165.5t221 -60.5q176 0 338 111h2v-320q-109 -68 -254 -92v-233z" />
    <glyph glyph-name="sterling.tab" horiz-adv-x="1482" 
d="M111 588l45 282h223q48 158 104 267.5t133.5 187t179.5 114t236 36.5q158 0 291 -62v-334h-2q-127 62 -242 62q-114 0 -180.5 -61t-107.5 -210h477v-282h-553l-68 -256h713v-332h-1223l164 588h-190z" />
    <glyph glyph-name="Euro.tab" horiz-adv-x="1482" 
d="M37 418l22 244h179v43q0 52 4 79h-172l24 244h201q77 204 258 324.5t455 120.5q206 0 389 -89v-333h-2q-197 96 -369 96q-243 0 -340 -154h453v-209h-516q-2 -23 -2 -73q0 -33 2 -49h516v-209h-465q88 -168 348 -168q175 0 373 92h2v-336q-84 -39 -194 -59.5t-216 -20.5
q-291 0 -466 122t-242 335h-242z" />
    <glyph glyph-name="yen.tab" horiz-adv-x="1482" 
d="M94 272l12 254h406l-63 121h-336l10 252h194l-280 535h424l276 -566h15l278 566h416l-281 -535h193l12 -252h-338l-63 -121h407l10 -254h-440v-272h-409v272h-443z" />
    <glyph glyph-name="uni20B9.tab" horiz-adv-x="1482" 
d="M1368 758h-192q-27 -175 -149 -279t-310 -104l557 -375h-596l-531 362v285h394q97 0 150 36.5t71 109.5h-615v200h615q-19 77 -78.5 111.5t-177.5 34.5h-359v295h1268l-20 -295h-295q45 -57 65 -131h217z" />
    <glyph glyph-name="period.tab" horiz-adv-x="741" 
d="M369 -23q-117 0 -184.5 64.5t-67.5 165.5v2q0 102 67.5 166.5t184.5 64.5t185.5 -64t68.5 -165v-2q0 -102 -68.5 -167t-185.5 -65z" />
    <glyph glyph-name="comma.tab" horiz-adv-x="741" 
d="M96 -328l97 715h466v-86l-331 -629h-232z" />
    <glyph glyph-name="colon.tab" horiz-adv-x="741" 
d="M369 688q-119 0 -186.5 65t-67.5 167v2q0 102 67.5 165.5t186.5 63.5q118 0 186 -63.5t68 -165.5v-2q0 -102 -68.5 -167t-185.5 -65zM369 -23q-118 0 -186 64.5t-68 165.5v2q0 102 67.5 166.5t186.5 64.5q117 0 185.5 -64t68.5 -165v-2q0 -102 -68.5 -167t-185.5 -65z
" />
    <glyph glyph-name="semicolon.tab" horiz-adv-x="741" 
d="M395 688q-119 0 -186.5 65t-67.5 167v2q0 102 67.5 165.5t186.5 63.5q118 0 186 -63.5t68 -165.5v-2q0 -102 -68.5 -167t-185.5 -65zM82 -328l96 715h467v-86l-332 -629h-231z" />
    <glyph glyph-name="periodcentered.tab" horiz-adv-x="741" 
d="M369 485q-117 0 -184.5 64.5t-67.5 165.5v2q0 102 67.5 166.5t184.5 64.5t185.5 -64t68.5 -165v-2q0 -102 -68.5 -167t-185.5 -65z" />
    <glyph glyph-name="hyphen.tab" horiz-adv-x="741" 
d="M41 535v364h659v-364h-659z" />
    <glyph glyph-name="endash.tab" horiz-adv-x="1482" 
d="M160 541v356h1165v-356h-1165z" />
    <glyph glyph-name="underscore.tab" horiz-adv-x="1482" 
d="M-6 -406v273h1495v-273h-1495z" />
    <glyph glyph-name="slash.tab" horiz-adv-x="1112" 
d="M25 -289l677 2011h388l-678 -2011h-387z" />
    <glyph glyph-name="bar.tab" horiz-adv-x="1112" 
d="M367 -289v2011h378v-2011h-378z" />
    <glyph glyph-name="numbersign.tab" horiz-adv-x="1482" 
d="M131 0l47 252h-164v297h222l63 336h-201v297h258l47 252h332l-49 -252h287l49 252h330l-47 -252h163v-297h-221l-63 -336h200v-297h-258l-47 -252h-331l49 252h-287l-49 -252h-330zM565 549h287l66 336h-287z" />
    <glyph glyph-name="percent.tab" horiz-adv-x="2224" 
d="M510 659q-209 0 -325.5 105.5t-116.5 294.5q0 191 117.5 298t326.5 107q208 0 325 -106t117 -297q0 -187 -118.5 -294.5t-325.5 -107.5zM287 2l641 715l618 717h391v-2l-641 -715l-620 -717h-389v2zM512 907q66 0 101.5 39.5t35.5 112.5q0 76 -36 114.5t-103 38.5
q-66 0 -102.5 -38.5t-36.5 -112.5t37 -114t104 -40zM1712 774q209 0 325.5 -105t116.5 -294q0 -190 -117.5 -298t-324.5 -108q-209 0 -325.5 106t-116.5 298q0 187 118 294t324 107zM1712 526q-66 0 -102.5 -39t-36.5 -112q0 -74 37 -114t102 -40q67 0 103 39t36 113
t-36 113.5t-103 39.5z" />
    <glyph glyph-name="degree.tab" horiz-adv-x="1298" 
d="M649 547q-229 0 -365.5 124.5t-136.5 336.5t136.5 336t365.5 124q231 0 366.5 -124t135.5 -336t-136 -336.5t-366 -124.5zM649 813q91 0 141 52.5t50 142.5t-50 142t-141 52q-90 0 -139 -52t-49 -142t49 -142.5t139 -52.5z" />
    <glyph glyph-name="quotedbl.tab" horiz-adv-x="1298" 
d="M154 750v684h446v-86l-227 -598h-219zM739 750v684h447v-86l-228 -598h-219z" />
    <glyph glyph-name="quotesingle.tab" horiz-adv-x="741" 
d="M172 750v684h451v-86l-228 -598h-223z" />
    <glyph glyph-name="plus.tab" horiz-adv-x="1482" 
d="M143 547v342h416v420h365v-420h415v-342h-415v-420h-365v420h-416z" />
    <glyph glyph-name="minus.tab" horiz-adv-x="1482" 
d="M201 539v358h1081v-358h-1081z" />
    <glyph glyph-name="equal.tab" horiz-adv-x="1482" 
d="M166 827v334h1149v-334h-1149zM166 274v334h1149v-334h-1149z" />
    <glyph glyph-name="divide.tab" horiz-adv-x="1482" 
d="M739 1374q107 0 168.5 -55t61.5 -143q0 -89 -61 -144t-167 -55q-105 0 -166 54.5t-61 142.5v2q0 88 60.5 143t164.5 55zM121 557v322h1239v-322h-1239zM741 61q-105 0 -166 55.5t-61 143.5q0 89 60.5 144t166.5 55t167 -54.5t61 -142.5v-2q0 -88 -61.5 -143.5
t-166.5 -55.5z" />
    <glyph glyph-name="multiply.tab" horiz-adv-x="1482" 
d="M141 1059l242 250l358 -348l357 348l241 -250l-350 -340l350 -342l-241 -250l-357 348l-358 -348l-242 250l351 342z" />
    <glyph glyph-name="dotmath.tab" horiz-adv-x="741" 
d="M369 485q-117 0 -184.5 64.5t-67.5 165.5v2q0 102 67 165.5t185 63.5q119 0 187.5 -63.5t68.5 -165.5t-68.5 -167t-187.5 -65z" />
    <glyph glyph-name="plusminus.tab" horiz-adv-x="1482" 
d="M209 809v324h350v327h365v-327h352v-324h-352v-330h-365v330h-350zM209 27v315h1067v-315h-1067z" />
    <glyph glyph-name="less.tab" horiz-adv-x="1482" 
d="M1225 70l-1010 452v391l1010 451v-395l-570 -250l570 -254v-395z" />
    <glyph glyph-name="greater.tab" horiz-adv-x="1482" 
d="M258 1368l1010 -453v-391l-1010 -450v395l569 250l-569 254v395z" />
    <glyph glyph-name="asciicircum.tab" horiz-adv-x="1482" 
d="M90 684l371 750h553l377 -750h-414l-201 401h-80l-194 -401h-412z" />
    <glyph glyph-name="asciitilde.tab" horiz-adv-x="1482" 
d="M129 840q159 176 340 176q89 0 159.5 -27.5t180.5 -91.5q79 -46 122 -62t93 -16q80 0 153 55t173 170h2v-448q-159 -176 -338 -176q-62 0 -123 17.5t-101.5 37.5t-117.5 64q-79 46 -121 61.5t-92 15.5q-81 0 -153 -54t-175 -171h-2v449z" />
    <glyph glyph-name="onehalf.tab" horiz-adv-x="2224" 
d="M834 813v-235h-699v235h217v381h-219l35 240h479v-621h187zM485 2l1057 1432h291v-2l-1057 -1432h-291v2zM1411 0v231l197 144q110 75 162.5 117t63.5 58t11 34q0 49 -90 49q-62 0 -143 -28t-164 -81h-2v267q179 96 360 96q163 0 251.5 -66.5t88.5 -189.5
q0 -52 -16 -93.5t-58.5 -85t-94.5 -82.5t-144 -100l-43 -30h348v-240h-727z" />
    <glyph glyph-name="onethird.tab" horiz-adv-x="2224" 
d="M834 813v-235h-699v235h217v381h-219l35 240h479v-621h187zM459 2l1057 1432h290v-2l-1056 -1432h-291v2zM1753 -31q-174 0 -332 51v246h2q181 -55 308 -55q77 0 111 14.5t34 48.5q0 39 -50.5 53.5t-207.5 14.5h-35v125l229 154h-387l7 235h686v-217l-215 -145
q127 -15 193.5 -74t66.5 -162q0 -138 -112.5 -213.5t-297.5 -75.5z" />
    <glyph glyph-name="twothirds.tab" horiz-adv-x="2224" 
d="M96 578v231l197 143q110 75 162.5 117t63.5 58t11 34q0 49 -90 49q-62 0 -143.5 -28t-163.5 -80h-2v266q179 96 361 96q163 0 251 -66.5t88 -189.5q0 -99 -66 -170t-247 -190l-43 -31h348v-239h-727zM453 2l1056 1432h291v-2l-1057 -1432h-290v2zM1753 -31
q-174 0 -332 51v246h2q181 -55 308 -55q77 0 111 14.5t34 48.5q0 39 -50.5 53.5t-207.5 14.5h-35v125l229 154h-387l7 235h686v-217l-215 -145q127 -15 193.5 -74t66.5 -162q0 -138 -112.5 -213.5t-297.5 -75.5z" />
    <glyph glyph-name="onequarter.tab" horiz-adv-x="2224" 
d="M834 813v-235h-699v235h217v381h-219l35 240h479v-621h187zM496 2l1056 1432h291v-2l-1057 -1432h-290v2zM1817 0v154h-465v213l204 489h535v-477h111l-15 -225h-96v-154h-274zM1626 371h203v264h-98z" />
    <glyph glyph-name="threequarters.tab" horiz-adv-x="2224" 
d="M438 547q-174 0 -332 51v246h3q184 -56 307 -56q76 0 110.5 15t34.5 49q0 39 -50.5 53.5t-207.5 14.5h-35v124l230 154h-387l6 236h686v-217l-215 -146q260 -31 260 -235q0 -138 -112.5 -213.5t-297.5 -75.5zM451 2l1056 1432h291v-2l-1057 -1432h-290v2zM1817 0v154
h-465v213l204 489h535v-477h111l-15 -225h-96v-154h-274zM1626 371h203v264h-98z" />
    <glyph glyph-name="uni2155.tab" horiz-adv-x="2224" 
d="M834 813v-235h-699v235h217v381h-219l35 240h479v-621h187zM465 2l1057 1432h290v-2l-1056 -1432h-291v2zM1767 -29q-190 0 -342 47v244h2q162 -51 316 -51q79 0 105 17t26 46q0 23 -19 37q-42 29 -251 29h-166l12 516h653l11 -235h-414l-2 -91h12q159 0 246 -20t137 -70
q66 -66 66 -178q0 -136 -105 -213.5t-287 -77.5z" />
    <glyph glyph-name="uni2156.tab" horiz-adv-x="2224" 
d="M96 578v231l197 143q110 75 162.5 117t63.5 58t11 34q0 49 -90 49q-62 0 -143.5 -28t-163.5 -80h-2v266q179 96 361 96q163 0 251 -66.5t88 -189.5q0 -99 -66 -170t-247 -190l-43 -31h348v-239h-727zM465 2l1057 1432h290v-2l-1056 -1432h-291v2zM1767 -29
q-190 0 -342 47v244h2q162 -51 316 -51q79 0 105 17t26 46q0 23 -19 37q-42 29 -251 29h-166l12 516h653l11 -235h-414l-2 -91h12q159 0 246 -20t137 -70q66 -66 66 -178q0 -136 -105 -213.5t-287 -77.5z" />
    <glyph glyph-name="uni2157.tab" horiz-adv-x="2224" 
d="M438 547q-174 0 -332 51v246h3q184 -56 307 -56q76 0 110.5 15t34.5 49q0 39 -50.5 53.5t-207.5 14.5h-35v124l230 154h-387l6 236h686v-217l-215 -146q260 -31 260 -235q0 -138 -112.5 -213.5t-297.5 -75.5zM434 2l1057 1432h291v-2l-1057 -1432h-291v2zM1767 -29
q-190 0 -342 47v244h2q162 -51 316 -51q79 0 105 17t26 46q0 23 -19 37q-42 29 -251 29h-166l12 516h653l11 -235h-414l-2 -91h12q159 0 246 -20t137 -70q66 -66 66 -178q0 -136 -105 -213.5t-287 -77.5z" />
    <glyph glyph-name="uni2158.tab" horiz-adv-x="2224" 
d="M502 578v153h-465v213l205 490h534v-478h111l-15 -225h-96v-153h-274zM455 2l1056 1432h291v-2l-1057 -1432h-290v2zM311 948h203v264h-98zM1767 -29q-190 0 -342 47v244h2q162 -51 316 -51q79 0 105 17t26 46q0 23 -19 37q-42 29 -251 29h-166l12 516h653l11 -235h-414
l-2 -91h12q159 0 246 -20t137 -70q66 -66 66 -178q0 -136 -105 -213.5t-287 -77.5z" />
    <glyph glyph-name="uni2159.tab" horiz-adv-x="2224" 
d="M834 813v-235h-699v235h217v381h-219l35 240h479v-621h187zM504 2l1057 1432h290v-2l-1056 -1432h-291v2zM1790 -29q-203 0 -308.5 108.5t-105.5 326.5q0 227 124 354t343 127q138 0 271 -47v-244q-124 55 -252 55q-96 0 -153 -42.5t-56 -123.5q91 60 217 60
q142 0 222.5 -65t80.5 -191q0 -148 -105.5 -233t-277.5 -85zM1798 358q-79 0 -145 -39q4 -67 38 -94.5t95 -27.5q53 0 82.5 23t29.5 63q0 42 -26 58.5t-74 16.5z" />
    </font>
</defs>
</svg>
