<?xml version="1.0" standalone="no"?>
<!DOCTYPE svg PUBLIC "-//W3C//DTD SVG 1.1//EN" "http://www.w3.org/Graphics/SVG/1.1/DTD/svg11.dtd" >
<svg xmlns="http://www.w3.org/2000/svg" xmlns:xlink="http://www.w3.org/1999/xlink" version="1.1">
<metadata>
Created by FontForge 20170731 at Fri Oct  8 16:18:06 2021
 By Aleksey,,,
Copyright (C) 1996-2005, Hoefler &#38; Frere-Jones, Inc. www.typography.com
</metadata>
<defs>
<font id="MercuryTextG1-Roman" horiz-adv-x="1024" >
  <font-face 
    font-family="Mercury Text G1"
    font-weight="500"
    font-stretch="normal"
    units-per-em="2048"
    panose-1="0 0 0 0 0 0 0 0 0 0"
    ascent="1638"
    descent="-410"
    x-height="918"
    cap-height="1305"
    bbox="-190 -545 2062 1884"
    underline-thickness="40"
    underline-position="-245"
    unicode-range="U+0005-00FF"
  />
<missing-glyph 
 />
    <glyph glyph-name=".notdef" 
 />
    <glyph glyph-name=".null" horiz-adv-x="0" 
 />
    <glyph glyph-name="nonmarkingreturn" horiz-adv-x="682" 
 />
    <glyph glyph-name="breve" horiz-adv-x="688" 
d="M346 1243q85 0 133.5 42t85.5 138l51 -14q-11 -139 -81 -219t-189 -80t-190.5 80t-83.5 219l51 14q36 -95 86.5 -137.5t136.5 -42.5z" />
    <glyph glyph-name="dotaccent" horiz-adv-x="393" 
d="M315 1239q0 -51 -36 -88t-89 -37q-49 0 -80.5 32.5t-31.5 82.5q0 51 36 88t89 37q49 0 80.5 -32.5t31.5 -82.5z" />
    <glyph glyph-name="ring" horiz-adv-x="530" 
d="M473 1315q0 -79 -60.5 -141t-152.5 -62t-147.5 58t-55.5 145q0 79 60.5 141t152.5 62t147.5 -58t55.5 -145zM391 1315q0 78 -37 119t-92 41q-53 0 -89 -42t-36 -120q0 -75 38 -117.5t91 -42.5t89 42t36 120z" />
    <glyph glyph-name="hungarumlaut" unicode="&#xa;" horiz-adv-x="655" 
d="M608 1358q-12 -21 -41.5 -56t-53 -61t-74 -80.5t-68.5 -73.5l-35 25l18 54t20 58.5t18 52t19.5 54t17.5 43.5t18 42t16 30q22 35 58 47.5t65 -6.5q32 -21 38 -55t-16 -74zM319 1358q-12 -21 -41.5 -56t-53 -61t-74 -80.5t-68.5 -73.5l-35 25l18 54t20 58.5t18 52t19.5 54
t17.5 43.5t18 42t16 30q22 35 58 47.5t65 -6.5q32 -21 38 -55t-16 -74z" />
    <glyph glyph-name="ogonek" horiz-adv-x="550" 
d="M428 63q-165 -131 -227 -205t-62 -157q0 -70 38 -106.5t104 -36.5q49 0 116 45l25 -25q-88 -96 -199 -96q-95 0 -151 53t-56 139q0 108 90.5 201.5t296.5 216.5z" />
    <glyph glyph-name="caron" horiz-adv-x="612" 
d="M307 1282l223 221l37 -33l-237 -358h-60l-221 358l37 33z" />
    <glyph glyph-name="dotlessi" unicode="&#xd;" horiz-adv-x="591" 
d="M227 80v698l-143 66v35l301 73l8 -6v-866l137 -37v-43h-448v43z" />
    <glyph glyph-name="fraction" horiz-adv-x="1146" 
d="M1083 1262l-475 -652l-467 -676l-78 54l476 653l467 676z" />
    <glyph glyph-name="fi" horiz-adv-x="1202" 
d="M414 817v-737l166 -37v-43h-478v43l146 37v737h-185v41l185 53v58q0 176 52.5 289.5t166.5 187.5q109 70 256 70q108 0 174 -48t66 -102q0 -44 -24 -70t-67 -26q-121 0 -157 182q-139 0 -220 -109t-81 -305v-133h389l192 47l9 -6v-866l137 -37v-43h-449v43l146 37v737
h-424z" />
    <glyph glyph-name="fl" horiz-adv-x="1202" 
d="M1004 80l137 -37v-43h-449v43l146 37v737h-424v-737l166 -37v-43h-478v43l146 37v737h-185v41l185 53v58q0 176 52.5 289.5t166.5 187.5q109 70 256 70q104 0 172 -48l90 50l19 -15v-1423zM838 905v369q-92 23 -123 178q-139 0 -220 -109t-81 -305v-133h424z" />
    <glyph glyph-name="Lslash" horiz-adv-x="1286" 
d="M1210 416l-53 -416h-1079v51l225 37v477l-164 -43l-22 82l186 49v564l-225 36v52h649v-52l-235 -36v-512l247 65l23 -80l-270 -74v-530h317q45 0 74.5 5.5t53 22.5t37 31.5t40.5 49.5l168 229z" />
    <glyph glyph-name="lslash" horiz-adv-x="669" 
d="M430 713v-633l137 -37v-43h-448v43l145 37v588l-176 -47l-22 81l198 52v579l-160 68v37l308 80l18 -15v-704l188 51l23 -80z" />
    <glyph glyph-name="Zcaron" horiz-adv-x="1327" 
d="M690 1663l223 221l37 -33l-237 -358h-60l-221 358l37 33zM1229 410l-53 -410h-1078l-8 31l860 1196h-391q-59 0 -99 -15t-63.5 -36.5t-64.5 -71.5l-148 -174l-28 14l49 361h989l8 -31l-860 -1194h485q55 0 91 11.5t59.5 33t54.5 63.5l168 230z" />
    <glyph glyph-name="zcaron" horiz-adv-x="1007" 
d="M520 1282l223 221l37 -33l-237 -358h-60l-221 358l37 33zM920 893l-615 -825h371l205 219l34 -13l-32 -274h-799l-6 25l612 825h-342l-188 -219l-33 12l25 275h761z" />
    <glyph glyph-name="space" unicode=" " horiz-adv-x="450" 
 />
    <glyph glyph-name="exclam" unicode="!" horiz-adv-x="569" 
d="M399 1206q0 -31 -4.5 -87.5t-15 -147.5t-19.5 -163t-25.5 -205.5t-25.5 -203.5h-45q-9 70 -25.5 203.5t-25.5 205.5t-19.5 163t-15 147.5t-4.5 87.5q0 61 31 95t82 34q52 0 82 -33.5t30 -95.5zM408 92q0 -51 -36 -87t-87 -36t-87 36t-36 87t36 87t87 36t87 -36t36 -87z
" />
    <glyph glyph-name="quotedbl" unicode="&#x22;" horiz-adv-x="759" 
d="M694 1257q0 -24 -8 -45q-22 -57 -123 -213l-90 -139l-39 19l35 159q45 207 57 236q28 61 82 61q29 0 57.5 -23t28.5 -55zM371 1257q0 -21 -9 -45q-24 -61 -122 -213l-90 -139l-39 19l34 159q44 202 58 236q28 61 82 61q29 0 57.5 -23t28.5 -55z" />
    <glyph glyph-name="numbersign" unicode="#" horiz-adv-x="1271" 
d="M1169 797h-243l-54 -181l-45 -176h258v-80h-276l-86 -307l-96 21l88 286h-297l-86 -307l-96 21l88 286h-222v80h242l57 193l41 164h-256v80h279l90 323l94 -20l-90 -303h297l90 323l94 -20l-90 -303h219v-80zM834 797h-299l-54 -181l-45 -176h299l58 193z" />
    <glyph glyph-name="dollar" unicode="$" horiz-adv-x="1120" 
d="M977 354q0 -166 -117.5 -270t-312.5 -113l-17 -215l-75 8l16 205q-178 6 -330 74l-20 350l35 4q63 -171 136 -257t187 -107l41 542q-192 68 -276 145.5t-84 201.5q0 149 113 252t296 112l15 187l75 -11l-14 -178q124 -5 270 -49l9 -309l-35 -6q-65 135 -118 202.5
t-136 91.5l-35 -493q206 -70 291.5 -154.5t85.5 -212.5zM569 1227q-101 8 -183.5 -56.5t-82.5 -177.5q0 -93 53 -150t176 -100zM831 285q0 101 -55.5 160.5t-189.5 107.5l-39 -526q119 -5 201.5 65.5t82.5 192.5z" />
    <glyph glyph-name="percent" unicode="%" horiz-adv-x="1658" 
d="M723 967q0 -130 -92 -231t-236 -101q-142 0 -225.5 92t-83.5 227q0 131 92.5 230.5t237.5 99.5q142 0 224.5 -90.5t82.5 -226.5zM309 -18l490 661l473 674l78 -49l-490 -660l-473 -674zM1573 299q0 -130 -92 -231t-236 -101q-142 0 -225.5 92t-83.5 228q0 131 92.5 230
t237.5 99q142 0 224.5 -90.5t82.5 -226.5zM575 963q0 130 -47.5 200t-126.5 70q-76 0 -123 -72t-47 -205q0 -130 50 -200t127 -70q79 0 123 70.5t44 206.5zM1081 289q0 -130 49.5 -200.5t126.5 -70.5q79 0 123.5 70.5t44.5 206.5q0 130 -47.5 200t-126.5 70q-76 0 -123 -72
t-47 -204z" />
    <glyph glyph-name="ampersand" unicode="&#x26;" horiz-adv-x="1443" 
d="M1409 713v-43l-137 -52l-285 -356q75 -99 126.5 -131.5t139.5 -32.5q47 0 117 4l10 -30q-143 -103 -266 -103q-63 0 -119.5 39t-128.5 135q-101 -94 -190 -134t-193 -40q-178 0 -291.5 98.5t-113.5 247.5q0 121 73 215t197 158l80 41q-117 149 -117 270q0 130 96 208.5
t230 78.5q136 0 217.5 -73t81.5 -171q0 -78 -51 -145.5t-168 -142.5l-66 -41l299 -402l195 305l-109 60v37h373zM780 1047q0 82 -42.5 131t-112.5 49q-72 0 -117 -43t-45 -125q0 -93 94 -219l66 -86q86 86 121.5 150t35.5 143zM827 193l-366 497l-47 -43
q-75 -70 -112.5 -139t-37.5 -154q0 -116 83 -186t208 -70q75 0 136.5 22t135.5 73z" />
    <glyph glyph-name="quotesingle" unicode="'" horiz-adv-x="436" 
d="M371 1257q0 -21 -9 -45q-24 -61 -122 -213l-90 -139l-39 19l34 159q44 202 58 236q28 61 82 61q29 0 57.5 -23t28.5 -55z" />
    <glyph glyph-name="parenleft" unicode="(" horiz-adv-x="739" 
d="M283 578q0 -321 135 -552t366 -345l-22 -43q-130 53 -241.5 138.5t-200 202t-139 271t-50.5 328.5t50.5 328.5t139 271t200 202t241.5 138.5l22 -43q-231 -114 -366 -345t-135 -552z" />
    <glyph glyph-name="parenright" unicode=")" horiz-adv-x="739" 
d="M608 578q0 -174 -50.5 -328.5t-139 -271t-200 -202t-241.5 -138.5l-22 43q231 114 366.5 345t135.5 552t-135.5 552t-366.5 345l22 43q130 -53 241.5 -138.5t200 -202t139 -271t50.5 -328.5z" />
    <glyph glyph-name="asterisk" unicode="*" horiz-adv-x="868" 
d="M84 1094l49 98l273 -205l14 6l-43 336h115l-43 -336l14 -6l272 205l49 -98l-307 -131v-19l307 -131l-49 -98l-272 205l-14 -7l43 -335h-115l43 335l-14 7l-273 -205l-49 98l307 131v19z" />
    <glyph glyph-name="plus" unicode="+" horiz-adv-x="1064" 
d="M967 578h-379v-385h-107v385h-381v100h381v379h107v-379h379v-100z" />
    <glyph glyph-name="comma" unicode="," horiz-adv-x="473" 
d="M375 53q0 -115 -77 -216.5t-210 -182.5l-31 35q90 69 144 147t65 154l-12 6l-4 -2q-20 -10 -51 -10q-38 0 -63 30t-25 74q0 52 35 88.5t87 36.5q65 0 103.5 -44.5t38.5 -115.5z" />
    <glyph glyph-name="hyphen" unicode="-" horiz-adv-x="749" 
d="M637 412h-524v137h524v-137z" />
    <glyph glyph-name="period" unicode="." horiz-adv-x="473" 
d="M360 90q0 -51 -35.5 -87t-86.5 -36q-52 0 -88.5 36t-36.5 87t36.5 87t88.5 36q51 0 86.5 -36t35.5 -87z" />
    <glyph glyph-name="slash" unicode="/" horiz-adv-x="882" 
d="M942 1489l-426 -957l-405 -962l-101 31l426 954l406 963z" />
    <glyph glyph-name="zero" unicode="0" horiz-adv-x="1171" 
d="M1071 627q0 -186 -58 -334t-171 -236t-264 -88q-119 0 -212 50.5t-151 140.5t-87.5 208t-29.5 259q0 186 58 335t171.5 236.5t264.5 87.5q119 0 212 -50.5t150.5 -140.5t87 -208.5t29.5 -259.5zM870 627q0 152 -25 270t-68 188.5t-96.5 106t-113.5 35.5q-55 0 -100.5 -29
t-84.5 -94t-61 -186.5t-22 -290.5q0 -136 17 -242t44.5 -172.5t67.5 -109t82.5 -59.5t91.5 -17q112 0 190 152.5t78 447.5z" />
    <glyph glyph-name="one" unicode="1" horiz-adv-x="806" 
d="M508 113l223 -64v-49h-627v49l228 64v983l-230 67v41l385 68l21 -17v-1142z" />
    <glyph glyph-name="two" unicode="2" horiz-adv-x="1071" 
d="M702 885q0 119 -66.5 188.5t-174.5 69.5q-83 0 -141 -36t-150 -132l-35 26q74 135 177.5 210t222.5 75q168 0 262 -95.5t94 -260.5q0 -78 -23 -143.5t-90 -154t-180 -196t-301 -266.5l8 -18h443l178 204l30 -16l-82 -340h-811l-12 35q270 232 449 434q114 129 158 215.5
t44 200.5z" />
    <glyph glyph-name="three" unicode="3" horiz-adv-x="1009" 
d="M891 362q0 -162 -129 -277.5t-311 -115.5q-161 0 -260 55.5t-99 139.5q0 51 32 84t81 33q67 0 104 -54t19 -143q65 -53 153 -53q103 0 172.5 72t69.5 184q0 133 -104 207.5t-324 91.5v45q112 42 188.5 84t117.5 84t58 82.5t17 87.5q0 80 -58 132t-157 52
q-72 0 -142.5 -33.5t-154.5 -101.5l-31 33q79 103 182 169t215 66q149 0 229.5 -78t80.5 -182q0 -110 -71.5 -188t-205.5 -144v-20q328 -64 328 -312z" />
    <glyph glyph-name="four" unicode="4" horiz-adv-x="1148" 
d="M1057 383h-252v-270l213 -64v-49h-596v49l217 64v270h-543l-16 57l610 844l115 -12v-780h252v-109zM639 492v565h-21l-407 -565h428z" />
    <glyph glyph-name="five" unicode="5" horiz-adv-x="1030" 
d="M913 403q0 -119 -61.5 -219t-166 -157.5t-226.5 -57.5q-156 0 -255.5 55.5t-99.5 139.5q0 51 32 84t81 33q69 0 105 -54t18 -143q65 -53 147 -53q116 0 188.5 84.5t72.5 224.5q0 138 -87 217.5t-231 79.5q-107 0 -225 -39l-27 18l72 637h518l86 97l33 -7l-45 -251h-529
l-34 -310l14 -12q79 21 176 21q209 0 326.5 -103t117.5 -285z" />
    <glyph glyph-name="six" unicode="6" horiz-adv-x="1079" 
d="M977 440q0 -199 -125.5 -335t-316.5 -136q-189 0 -307.5 122.5t-118.5 354.5q0 161 62.5 312.5t186.5 269.5q111 106 237 173.5t288 107.5l12 -45q-215 -93 -350 -217q-137 -126 -213 -318l16 -8q58 43 129 69.5t135 26.5q114 0 199 -55.5t125.5 -139.5t40.5 -182z
M805 352q0 167 -73 266t-220 99q-91 0 -188 -53q-35 -103 -35 -218q0 -179 74 -299t196 -120q109 0 177.5 93t68.5 232z" />
    <glyph glyph-name="seven" unicode="7" horiz-adv-x="987" 
d="M803 1094h-541l-112 -154l-37 6l57 371l35 6l47 -70h686l18 -24l-620 -1260h-168l295 500z" />
    <glyph glyph-name="eight" unicode="8" horiz-adv-x="1077" 
d="M676 672q158 -76 223.5 -160t65.5 -188q0 -157 -121.5 -256t-304.5 -99q-192 0 -304 91t-112 223q0 217 303 331q-128 58 -197 134t-69 190q0 147 117 247.5t280 100.5q174 0 275.5 -85t101.5 -214q0 -104 -67 -183.5t-191 -131.5zM625 692q77 77 113 145.5t36 159.5
q0 104 -60.5 167t-170.5 63q-99 0 -163.5 -66.5t-64.5 -159.5q0 -104 63 -164.5t247 -144.5zM467 598q-87 -67 -130.5 -138t-43.5 -165q0 -122 74.5 -195t201.5 -73q98 0 168 69t70 164q0 106 -72 178.5t-268 159.5z" />
    <glyph glyph-name="nine" unicode="9" horiz-adv-x="1079" 
d="M971 809q0 -179 -60 -317t-184 -256q-229 -216 -530 -289l-13 45q217 94 351 217q75 69 123 138t83 159l-16 8q-58 -43 -129 -69.5t-135 -26.5q-111 0 -194.5 55.5t-124 142t-40.5 189.5q0 209 120.5 345t318.5 136q189 0 309.5 -127t120.5 -350zM791 809
q0 191 -73.5 305.5t-201.5 114.5q-111 0 -176.5 -90.5t-65.5 -245.5q0 -174 72 -274.5t215 -100.5q98 0 195 53q35 103 35 238z" />
    <glyph glyph-name="colon" unicode=":" horiz-adv-x="493" 
d="M371 698q0 -51 -36 -87t-87 -36q-52 0 -88.5 36t-36.5 87t36.5 87t88.5 36q51 0 87 -36t36 -87zM371 90q0 -51 -36 -87t-87 -36q-52 0 -88.5 36t-36.5 87t36.5 87t88.5 36q51 0 87 -36t36 -87z" />
    <glyph glyph-name="semicolon" unicode=";" horiz-adv-x="493" 
d="M377 698q0 -51 -36 -87t-87 -36t-87 36t-36 87t36 87t87 36t87 -36t36 -87zM375 53q0 -115 -77 -216.5t-210 -182.5l-31 35q90 69 144 147t65 154l-12 6l-4 -2q-20 -10 -51 -10q-38 0 -63 30t-25 74q0 52 35 88.5t87 36.5q65 0 103.5 -44.5t38.5 -115.5z" />
    <glyph glyph-name="less" unicode="&#x3c;" horiz-adv-x="1064" 
d="M901 285l-24 -90l-727 385v96l727 383l24 -88l-653 -344z" />
    <glyph glyph-name="equal" unicode="=" horiz-adv-x="1064" 
d="M948 868v-100h-831v100h831zM948 385h-831v100h831v-100z" />
    <glyph glyph-name="greater" unicode="&#x3e;" horiz-adv-x="1064" 
d="M813 627l-653 344l24 88l727 -383v-96l-727 -385l-24 90z" />
    <glyph glyph-name="question" unicode="?" horiz-adv-x="839" 
d="M774 1042q0 -95 -56.5 -158t-193.5 -136q-112 -60 -149 -97.5t-37 -85.5q0 -43 34.5 -69.5t92.5 -26.5q51 0 110 18l17 -43q-77 -45 -164 -45q-100 0 -170 51t-70 140q0 81 52 138t178 124q57 31 88 50.5t61 47.5t42 60.5t12 76.5q0 85 -56 137t-151 52q-77 0 -119 -45
q29 -51 29 -92q0 -52 -31.5 -85.5t-81.5 -33.5q-48 0 -82.5 35t-34.5 88q0 84 87 138t220 54q163 0 268 -83.5t105 -209.5zM506 92q0 -51 -36 -87t-87 -36t-87 36t-36 87t36 87t87 36t87 -36t36 -87z" />
    <glyph glyph-name="at" unicode="@" horiz-adv-x="1892" 
d="M1665 666q0 169 -88 307t-241.5 215.5t-340.5 77.5q-154 0 -293 -59.5t-240 -161.5t-160.5 -246t-59.5 -305q0 -221 91 -394t265 -272.5t406 -99.5q143 0 260.5 30.5t240.5 96.5l31 -31q-247 -189 -578 -189q-242 0 -432.5 96t-301.5 281.5t-111 431.5q0 188 72.5 354
t197 283.5t296.5 185.5t365 68q206 0 375.5 -82t268 -229t98.5 -328q0 -137 -45 -255.5t-117 -195.5t-159 -121t-173 -44q-104 0 -164.5 45t-72.5 121l-17 4q-72 -78 -131 -116t-125 -38q-90 0 -146 61t-56 169q0 96 47 201.5t117.5 187t158.5 135t166 53.5q52 0 82 -11.5
t63 -35.5l84 94l33 -10l-129 -582q-22 -93 9.5 -153t103.5 -60q67 0 130 38.5t112 105t78.5 165.5t29.5 212zM1161 741q-66 72 -145 72q-74 0 -143 -62.5t-110.5 -164t-41.5 -209.5q0 -91 36 -134.5t95 -43.5q44 0 88.5 29.5t130.5 113.5z" />
    <glyph glyph-name="A" unicode="A" horiz-adv-x="1382" 
d="M1212 98l166 -47v-51h-571v51l205 37l-138 379h-477l-133 -367l160 -49v-51h-424v51l166 55l463 1211h119zM846 547l-203 557h-16l-201 -557h420z" />
    <glyph glyph-name="B" unicode="B" horiz-adv-x="1298" 
d="M1198 375q0 -158 -126 -266.5t-339 -108.5h-667v51l225 37v1129l-225 36v52h614q206 0 319 -82.5t113 -210.5q0 -118 -69.5 -194.5t-219.5 -115.5v-22q375 -55 375 -305zM483 715h181q118 0 182.5 70t64.5 202q0 70 -23 121t-62.5 78.5t-84.5 40t-98 12.5
q-101 0 -160 -12v-512zM977 358q0 136 -78.5 211.5t-243.5 75.5h-172v-565q68 -14 174 -14q320 0 320 292z" />
    <glyph glyph-name="C" unicode="C" horiz-adv-x="1390" 
d="M1257 348l-38 -270q-107 -57 -200 -83t-224 -26q-204 0 -363 83t-247.5 235.5t-88.5 351.5q0 201 95.5 362t253 247.5t343.5 86.5q154 0 312 -63l67 69h43l17 -438l-43 -4q-94 185 -196 278t-240 93q-187 0 -308 -163.5t-121 -447.5q0 -152 40.5 -271.5t112 -193
t163.5 -111.5t199 -38q88 0 161 31l234 280z" />
    <glyph glyph-name="D" unicode="D" horiz-adv-x="1513" 
d="M291 1217l-223 36v52h643q164 0 298 -50t223 -137.5t137 -207t48 -257.5t-52.5 -258.5t-146 -207.5t-228 -137t-292.5 -50h-630v51l223 37v1129zM1194 653q0 124 -27 222t-73.5 163.5t-113.5 108.5t-143.5 61.5t-166.5 18.5h-187v-1149h232q107 0 191.5 30.5t150.5 96.5
t101.5 179.5t35.5 268.5z" />
    <glyph glyph-name="E" unicode="E" horiz-adv-x="1323" 
d="M1102 1305l49 -347l-29 -14l-145 174q-54 65 -94 84t-133 19h-267v-527h129q92 0 135 38t72 145l19 67h41v-571h-41l-19 63q-31 108 -73.5 146.5t-133.5 38.5h-129v-535h361q91 0 128.5 15.5t76.5 72.5l165 229l31 -8l-55 -395h-1122v51l223 37v1129l-223 36v52h1034z
" />
    <glyph glyph-name="F" unicode="F" horiz-adv-x="1214" 
d="M1153 958l-31 -14l-145 174q-53 64 -93.5 83.5t-133.5 19.5h-267v-535h133q90 0 128.5 37t68.5 147l18 68h41v-571h-41l-18 63q-31 110 -69 146t-128 36h-133v-524l236 -37v-51h-651v51l223 37v1129l-223 36v52h1036z" />
    <glyph glyph-name="G" unicode="G" horiz-adv-x="1452" 
d="M1212 903l-43 -4q-100 199 -205 284t-243 85q-61 0 -117.5 -20.5t-109 -66.5t-91 -113.5t-61.5 -168.5t-23 -225q0 -153 37 -272t103 -193t154.5 -112t195.5 -38q112 0 240 64v369l-197 36v52h559v-52l-170 -36v-508l-41 -9l-119 99q-160 -105 -352 -105
q-280 0 -456.5 186t-176.5 482q0 188 88.5 347.5t249 255t357.5 95.5q174 0 294 -63l70 69h43z" />
    <glyph glyph-name="H" unicode="H" horiz-adv-x="1683" 
d="M1200 719v498l-213 36v52h629v-52l-223 -36v-1129l223 -37v-51h-629v51l213 37v547h-717v-547l213 -37v-51h-628v51l223 37v1129l-223 36v52h628v-52l-213 -36v-498h717z" />
    <glyph glyph-name="I" unicode="I" horiz-adv-x="835" 
d="M514 88l229 -37v-51h-653v51l232 37v1129l-232 36v52h653v-52l-229 -36v-1129z" />
    <glyph glyph-name="J" unicode="J" horiz-adv-x="1056" 
d="M778 475q0 -147 -19 -230.5t-79 -150.5q-118 -131 -334 -131q-146 0 -213 51.5t-67 124.5q0 52 37.5 85.5t86.5 33.5q68 0 108 -61t40 -174q125 11 186.5 97.5t61.5 266.5v830l-226 36v52h637v-52l-219 -36v-742z" />
    <glyph glyph-name="K" unicode="K" horiz-adv-x="1470" 
d="M774 731l504 -620l172 -60v-51h-532v47l139 49l-408 535h-166v-543l205 -37v-51h-620v51l223 37v1129l-223 36v52h620v-52l-205 -36v-506h181l419 479l-153 63v52h459v-52l-185 -73z" />
    <glyph glyph-name="L" unicode="L" horiz-adv-x="1275" 
d="M1200 416l-53 -416h-1079v51l223 37v1129l-223 36v52h649v-52l-234 -36v-1131h316q45 0 74.5 5.5t53 22.5t37 31.5t40.5 49.5l167 229z" />
    <glyph glyph-name="M" unicode="M" horiz-adv-x="1945" 
d="M1655 88l223 -37v-51h-639v51l223 37v1116h-24l-480 -1204h-88l-473 1204h-24v-1098l182 -55v-51h-457v51l183 55v1106l-183 41v52h473l76 -211l311 -836h31l314 836l77 211h498v-52l-223 -36v-1129z" />
    <glyph glyph-name="N" unicode="N" horiz-adv-x="1566" 
d="M281 106v1090l-183 53v56h414l152 -209l530 -746h23v848l-203 55v52h477v-52l-182 -55v-1210h-88l-150 209l-674 933h-24v-1024l202 -55v-51h-477v51z" />
    <glyph glyph-name="O" unicode="O" horiz-adv-x="1462" 
d="M1362 653q0 -139 -45 -263.5t-126.5 -218t-202.5 -148t-265 -54.5q-150 0 -271 54.5t-198 148.5t-117.5 217t-40.5 264q0 138 45 262t126.5 217.5t202.5 148t265 54.5q150 0 271 -54.5t197.5 -148.5t117.5 -216.5t41 -262.5zM1139 653q0 153 -38.5 276t-101 197t-138 113
t-154.5 39q-59 0 -112.5 -18.5t-105 -64t-88.5 -115t-59.5 -179t-22.5 -248.5t25.5 -248.5t67.5 -179t99.5 -115.5t116.5 -64.5t124 -18.5q73 0 140.5 38.5t123.5 113t89.5 197.5t33.5 277z" />
    <glyph glyph-name="P" unicode="P" horiz-adv-x="1228" 
d="M1143 938q0 -159 -123.5 -273t-314.5 -114q-103 0 -222 18v-481l230 -37v-51h-645v51l223 37v1129l-223 36v52h606q215 0 342 -103.5t127 -263.5zM928 932q0 154 -78 228.5t-219 74.5q-87 0 -148 -12v-588q62 -10 144 -10q145 0 223 75.5t78 231.5z" />
    <glyph glyph-name="Q" unicode="Q" horiz-adv-x="1462" 
d="M1362 653q0 -139 -40.5 -256t-112 -199t-164.5 -136.5t-203 -77.5q138 -207 250 -279q110 -73 276 -90l-4 -43h-190q-115 0 -187 14.5t-123 51.5q-31 23 -61.5 64t-81.5 128l-86 145q-252 43 -395.5 220.5t-143.5 457.5q0 138 45 262t126.5 217.5t202.5 148t265 54.5
q150 0 271 -54.5t197.5 -148.5t117.5 -216.5t41 -262.5zM1139 653q0 153 -38.5 276t-101 197t-138 113t-154.5 39q-59 0 -112.5 -18.5t-105 -64t-88.5 -115t-59.5 -179t-22.5 -248.5q0 -116 17.5 -212.5t49.5 -163.5t72.5 -117t90 -79t100 -42.5t103.5 -13.5q73 0 140.5 39
t123.5 113.5t89.5 198t33.5 277.5z" />
    <glyph glyph-name="R" unicode="R" horiz-adv-x="1363" 
d="M1163 971q0 -124 -99 -207t-278 -119v-22q150 -48 234 -209l32.5 -65t36.5 -72t29.5 -54.5t34 -56t27.5 -33.5q67 -67 204 -84v-49h-196q-60 0 -100.5 10t-73.5 38.5t-56.5 65.5t-56.5 103l-115 236q-42 88 -88 118.5t-135 30.5h-80v-514l213 -37v-51h-628v51l223 37
v1129l-223 36v52h602q231 0 362 -90.5t131 -243.5zM948 961q0 141 -84 207.5t-233 66.5q-87 0 -148 -12v-547h148q145 0 231 72t86 213z" />
    <glyph glyph-name="S" unicode="S" horiz-adv-x="1091" 
d="M979 383q0 -102 -40.5 -184t-104.5 -130.5t-138 -74t-147 -25.5q-78 0 -160.5 17.5t-140.5 46.5l-62 -70h-51l-24 449l49 4q100 -229 182.5 -310t216.5 -81q115 0 187.5 66t72.5 179q0 101 -52 164.5t-196 124.5q-23 10 -88.5 36t-101.5 44q-114 57 -169.5 133t-55.5 193
q0 86 33.5 157.5t88.5 117t123 70.5t140 25q133 0 235 -63l64 69h49l35 -393l-50 -4q-87 188 -164 262t-188 74q-88 0 -147.5 -59.5t-59.5 -159.5q0 -87 46.5 -147.5t154.5 -106.5q23 -10 67 -28t80 -33.5t70 -32.5q126 -61 186 -140t60 -190z" />
    <glyph glyph-name="T" unicode="T" horiz-adv-x="1378" 
d="M1321 920l-33 -13l-114 158q-74 101 -118 131.5t-122 30.5h-137v-1139l237 -37v-51h-667v51l237 37v1139h-151q-76 0 -122.5 -32t-117.5 -130l-115 -158l-30 13l71 385h1108z" />
    <glyph glyph-name="U" unicode="U" horiz-adv-x="1531" 
d="M1190 1198l-182 55v52h456v-52l-182 -55v-743q0 -136 -57 -246t-173 -177t-274 -67q-252 0 -385 112.5t-133 336.5v803l-203 36v52h623v-52l-223 -36v-760q0 -209 99 -302.5t286 -93.5q163 0 255.5 111.5t92.5 282.5v743z" />
    <glyph glyph-name="V" unicode="V" horiz-adv-x="1388" 
d="M1229 1196l-484 -1208h-79l-488 1218l-180 47v52h602v-52l-213 -36l371 -981l375 960l-166 57v52h432v-52z" />
    <glyph glyph-name="W" unicode="W" horiz-adv-x="2064" 
d="M1161 1217l336 -957h4l303 936l-166 57v52h424v-52l-170 -57l-413 -1208h-72l-352 964h-4l-381 -964h-72l-405 1218l-181 47v52h586v-52l-201 -36l291 -955h4l316 819l-45 125l-168 47v52h557v-52z" />
    <glyph glyph-name="X" unicode="X" horiz-adv-x="1480" 
d="M1223 1198l-406 -496l420 -604l180 -47v-51h-590v47l189 37l-305 485l-351 -473l160 -49v-47h-452v51l178 55l422 521l-402 579l-190 47v52h600v-48l-189 -36l289 -463l332 450l-160 49v48h453v-52z" />
    <glyph glyph-name="Y" unicode="Y" horiz-adv-x="1347" 
d="M1198 1198l-412 -620v-490l238 -37v-51h-668v51l238 37v455l-420 663l-180 47v52h581v-52l-186 -36l354 -584l344 571l-180 49v52h453v-52z" />
    <glyph glyph-name="Z" unicode="Z" horiz-adv-x="1327" 
d="M1229 410l-53 -410h-1078l-8 31l860 1196h-391q-59 0 -99 -15t-63.5 -36.5t-64.5 -71.5l-148 -174l-28 14l49 361h989l8 -31l-860 -1194h485q55 0 91 11.5t59.5 33t54.5 63.5l168 230z" />
    <glyph glyph-name="bracketleft" unicode="[" horiz-adv-x="661" 
d="M707 1448h-365v-1739h365v-69h-517v1878h517v-70z" />
    <glyph glyph-name="backslash" unicode="\" horiz-adv-x="882" 
d="M41 1518l405 -963l426 -954l-100 -31l-405 962l-426 957z" />
    <glyph glyph-name="bracketright" unicode="]" horiz-adv-x="661" 
d="M319 1448h-364v70h516v-1878h-516v69h364v1739z" />
    <glyph glyph-name="asciicircum" unicode="^" horiz-adv-x="612" 
d="M307 1288l-223 -211l-37 33l238 358h59l221 -358l-37 -33z" />
    <glyph glyph-name="underscore" unicode="_" horiz-adv-x="901" 
d="M905 84v-84h-909v84h909z" />
    <glyph glyph-name="grave" unicode="`" horiz-adv-x="487" 
d="M350 1116l-33 -24q-19 19 -58 57t-61.5 61t-51 52.5t-47 52t-29.5 39.5q-23 38 -18 72.5t36 56.5q30 20 64.5 8.5t58.5 -45.5q38 -58 139 -330z" />
    <glyph glyph-name="a" unicode="a" horiz-adv-x="974" 
d="M799 678v-531q0 -46 37 -64.5t135 -12.5l4 -31q-32 -22 -95.5 -42t-115.5 -20q-60 0 -88.5 34t-32.5 114l-18 4q-152 -152 -293 -152q-103 0 -164.5 58t-61.5 151q0 134 148 223.5t381 110.5v125q0 117 -50.5 165t-160.5 48q-91 0 -160 -43q80 -53 80 -110
q0 -44 -29.5 -72.5t-72.5 -28.5q-46 0 -75.5 28.5t-29.5 74.5q0 66 61.5 122.5t155 87.5t191.5 31q131 0 192.5 -65.5t61.5 -204.5zM635 180v281q-183 0 -275 -59t-92 -154q0 -73 39.5 -113.5t110.5 -40.5q92 0 217 86z" />
    <glyph glyph-name="b" unicode="b" horiz-adv-x="1095" 
d="M1006 483q0 -134 -64.5 -251t-186.5 -191t-274 -74q-77 0 -168 22t-153 54v1290l-160 68v37l307 80l19 -15v-684l18 -4q78 71 141.5 103t149.5 32q69 0 135 -31t119 -88t85 -147.5t32 -200.5zM834 422q0 193 -83.5 297t-234.5 104q-94 0 -190 -59v-629q112 -98 241 -98
q115 0 191 98.5t76 286.5z" />
    <glyph glyph-name="c" unicode="c" horiz-adv-x="962" 
d="M870 766q0 -53 -31.5 -88t-78.5 -35q-53 0 -85 37t-32 86q0 68 37 108q-54 15 -92 15q-62 0 -119.5 -26t-106 -75.5t-77.5 -133t-29 -189.5q0 -173 98.5 -275t245.5 -102q72 0 129 18.5t143 63.5l21 -27q-153 -176 -363 -176q-198 0 -322 128.5t-124 334.5
q0 226 141.5 373t362.5 147q130 0 206 -52.5t76 -131.5z" />
    <glyph glyph-name="d" unicode="d" horiz-adv-x="1142" 
d="M936 137l145 -63v-31l-280 -76l-21 15l15 155l-19 4l-2 -2q-44 -43 -71.5 -66.5t-69.5 -51.5t-88 -40t-101 -12q-65 0 -128 31.5t-113.5 87t-81.5 140.5t-31 184q0 237 145 388.5t371 151.5q80 0 164 -24v405l-160 68v37l308 80l18 -15v-1366zM262 487q0 -185 76.5 -292
t210.5 -107q101 0 221 98v582q-118 115 -248 115q-118 0 -189 -100.5t-71 -295.5z" />
    <glyph glyph-name="e" unicode="e" horiz-adv-x="989" 
d="M909 512h-647q-6 -197 79.5 -305.5t262.5 -108.5q70 0 131.5 22t151.5 75l16 -43q-98 -94 -188 -139.5t-187 -45.5q-197 0 -320.5 132t-123.5 345q0 216 128.5 361t319.5 145q92 0 165.5 -36t119 -98t69 -139.5t23.5 -164.5zM264 571l457 15q-12 303 -207 303
q-102 0 -171.5 -89t-78.5 -229z" />
    <glyph glyph-name="f" unicode="f" horiz-adv-x="671" 
d="M668 817h-254v-737l176 -37v-43h-488v43l146 37v737h-185v41l185 53v99q0 147 37.5 242.5t117.5 164.5q114 99 256 99q76 0 120 -33.5t44 -81.5q0 -45 -27.5 -73t-72.5 -28q-48 0 -86.5 31.5t-83.5 110.5q-72 -44 -105.5 -124t-33.5 -226v-187h254v-88z" />
    <glyph glyph-name="g" unicode="g" horiz-adv-x="1017" 
d="M834 637q0 -146 -103 -232t-262 -86q-77 0 -139 27q-20 -19 -32 -32t-24 -34.5t-12 -41.5q0 -44 35.5 -62t116.5 -20l239 -4q310 -6 310 -228q0 -65 -35.5 -127.5t-99.5 -113t-165 -82t-221 -31.5q-191 0 -298 65t-107 160q0 65 57 131.5t148 102.5l-2 18
q-65 21 -97 50.5t-32 74.5q0 94 163 182v17q-75 41 -119 109.5t-44 154.5q0 142 107 228.5t261 86.5q128 0 234 -69q143 92 239 92q50 0 81.5 -29t31.5 -72q0 -46 -26 -72t-66 -26q-38 0 -65 29.5t-27 70.5l-109 -12l-24 -31q86 -83 86 -194zM662 635q0 119 -49.5 188.5
t-139.5 69.5q-190 0 -190 -258q0 -145 49 -203.5t149 -58.5q82 0 131.5 72t49.5 190zM825 -150q0 82 -54 119t-159 39l-319 4q-42 -28 -68 -72t-26 -96q0 -92 83.5 -149t233.5 -57q135 0 222 63.5t87 148.5z" />
    <glyph glyph-name="h" unicode="h" horiz-adv-x="1179" 
d="M831 604q0 223 -192 223q-69 0 -130 -23t-130 -71v-653l137 -37v-43h-448v43l145 37v1253l-160 68v37l307 80l19 -15v-715l8 -4q83 78 164 122t184 44q128 0 195 -77.5t67 -206.5v-586l146 -37v-43h-451v43l139 37v524z" />
    <glyph glyph-name="i" unicode="i" horiz-adv-x="591" 
d="M180 1313q0 51 37 91t92 40q52 0 85.5 -34.5t33.5 -84.5q0 -53 -37 -93t-94 -40q-51 0 -84 35t-33 86zM227 778l-143 66v35l301 73l8 -6v-866l137 -37v-43h-448v43l145 37v698z" />
    <glyph glyph-name="j" unicode="j" horiz-adv-x="583" 
d="M188 1313q0 52 38 91.5t91 39.5q51 0 85 -34t34 -85q0 -53 -38 -93t-93 -40q-51 0 -84 34t-33 87zM401 23q0 -125 -22.5 -201.5t-77.5 -140.5q-94 -111 -235 -111q-57 0 -94.5 30.5t-37.5 69.5q0 42 25.5 68t63.5 26q46 0 76.5 -32.5t39.5 -96.5q97 54 97 261v882
l-144 66v35l301 73l8 -6v-923z" />
    <glyph glyph-name="k" unicode="k" horiz-adv-x="1079" 
d="M575 539l359 -453l115 -43v-43h-394v43l86 43l-266 356h-96v-362l123 -37v-43h-434v43l145 37v1253l-160 68v37l307 80l19 -15v-991h96l266 297l-110 72v37h381v-44l-138 -53z" />
    <glyph glyph-name="l" unicode="l" horiz-adv-x="587" 
d="M389 80l137 -37v-43h-448v43l145 37v1253l-160 68v37l308 80l18 -15v-1423z" />
    <glyph glyph-name="m" unicode="m" horiz-adv-x="1720" 
d="M1374 598q0 116 -40.5 172.5t-131.5 56.5q-97 0 -244 -106v-641l146 -37v-43h-449v43l138 37v518q0 227 -172 227q-106 0 -238 -92v-653l137 -37v-43h-448v43l145 37v698l-143 66v35l288 73l19 -16l-14 -154l18 -4q94 89 170.5 130.5t157.5 41.5q171 0 227 -180l16 -4
q94 90 174 137t164 47q114 0 179 -75t65 -209v-586l148 -37v-43h-451v43l139 37v518z" />
    <glyph glyph-name="n" unicode="n" horiz-adv-x="1159" 
d="M977 666v-586l145 -37v-43h-450v43l139 37v524q0 223 -188 223q-101 0 -240 -94v-653l137 -37v-43h-448v43l145 37v698l-143 66v35l288 73l19 -16l-14 -154l18 -4q95 89 174 130.5t160 41.5q123 0 190.5 -73t67.5 -211z" />
    <glyph glyph-name="o" unicode="o" horiz-adv-x="1079" 
d="M995 465q0 -133 -54.5 -245t-163.5 -182.5t-251 -70.5q-207 0 -324.5 137.5t-117.5 354.5q0 132 55.5 243t164.5 179.5t251 68.5q210 0 325 -134t115 -351zM805 465q0 214 -75 319t-198 105q-114 0 -186 -109t-72 -327q0 -211 78 -317.5t195 -106.5q120 0 189 107.5
t69 328.5z" />
    <glyph glyph-name="p" unicode="p" horiz-adv-x="1142" 
d="M1053 506q0 -103 -34.5 -199.5t-97 -172t-157.5 -121.5t-207 -46q-90 0 -184 23v-328l176 -49v-43h-488v43l146 49v1116l-144 66v35l289 73l19 -16l-15 -154l19 -4q84 89 152 130.5t153 41.5q157 0 265 -125.5t108 -318.5zM881 436q0 187 -78 287t-211 100
q-55 0 -104 -23t-115 -71v-577q118 -115 248 -115q111 0 185.5 99t74.5 300z" />
    <glyph glyph-name="q" unicode="q" horiz-adv-x="1095" 
d="M1081 -430h-487v43l176 49v430l-18 6l-2 -2q-76 -67 -140 -98t-137 -31q-72 0 -139.5 30t-122.5 86.5t-88 146.5t-33 200q0 105 40.5 201t109 166t164.5 111.5t202 41.5q107 0 213 -45l84 86l33 -4v-1325l145 -49v-43zM573 96q120 0 197 62v618q-114 105 -235 105
q-55 0 -102.5 -22.5t-86.5 -67.5t-61.5 -121t-22.5 -174q0 -187 83 -293.5t228 -106.5z" />
    <glyph glyph-name="r" unicode="r" horiz-adv-x="833" 
d="M797 821q0 -55 -32 -88t-77 -33q-55 0 -83 41.5t-17 94.5q-48 7 -107 -41t-98 -117v-598l152 -37v-43h-463v43l145 37v698l-143 66v35l288 73l19 -16l-16 -178l20 -6q65 105 128 151.5t136 46.5q66 0 107 -36t41 -93z" />
    <glyph glyph-name="s" unicode="s" horiz-adv-x="843" 
d="M760 276q0 -136 -101.5 -218.5t-259.5 -82.5q-157 0 -303 56v258l49 4q51 -140 118 -200t171 -60q89 0 139 44t50 126q0 60 -50 101t-180 91q-146 55 -214 114.5t-68 162.5q0 118 91 199t236 81q154 0 264 -43l7 -227l-43 -10q-60 123 -119.5 173t-145.5 50
q-69 0 -116 -41t-47 -100t46.5 -98.5t166.5 -84.5q172 -65 240.5 -128t68.5 -167z" />
    <glyph glyph-name="t" unicode="t" horiz-adv-x="694" 
d="M680 78q-154 -94 -285 -94q-200 0 -200 235v606h-158v43l174 80l94 244h53v-264h316v-103h-316v-549q0 -59 11.5 -93.5t42.5 -55.5q37 -25 131 -25q52 0 135 13z" />
    <glyph glyph-name="u" unicode="u" horiz-adv-x="1148" 
d="M944 111l146 -33v-37l-291 -72l-19 15l15 151l-19 4q-99 -92 -171.5 -132t-160.5 -40q-126 0 -193 82.5t-67 212.5v531l-143 61v25l291 73l18 -16v-612q0 -118 46 -175t141 -57q104 0 241 92v609l-145 61v25l293 73l18 -16v-825z" />
    <glyph glyph-name="v" unicode="v" horiz-adv-x="1021" 
d="M317 831l238 -616h18l103 264l112 336l-141 59v44h383v-44l-149 -63l-338 -834h-58l-358 854l-127 43v44h451v-44z" />
    <glyph glyph-name="w" unicode="w" horiz-adv-x="1609" 
d="M907 831l217 -624h11l229 608l-129 59v44h367v-44l-150 -63l-356 -834h-49l-222 603l-295 -603h-51l-340 854l-125 43v44h445v-44l-137 -43l239 -641h10l220 478l-60 163l-113 43v44h426v-44z" />
    <glyph glyph-name="x" unicode="x" horiz-adv-x="1105" 
d="M571 543l215 282l-104 56v37h348v-44l-149 -63l-271 -313l320 -412l125 -43v-43h-455v37l131 43l-215 305l-215 -293l102 -55v-37h-346v43l150 61l272 324l-309 403l-127 43v44h455v-37l-131 -43z" />
    <glyph glyph-name="y" unicode="y" horiz-adv-x="1007" 
d="M877 811l-396 -971q-60 -148 -124 -209t-152 -61q-67 0 -102 34.5t-35 80.5q0 41 30.5 69.5t73.5 28.5q44 0 74 -22.5t67 -71.5q59 56 107 161l59 136l-354 845l-125 43v44h440v-44l-123 -43l242 -634h10l217 618l-149 59v44h379v-44z" />
    <glyph glyph-name="z" unicode="z" horiz-adv-x="1007" 
d="M920 893l-615 -825h371l205 219l34 -13l-32 -274h-799l-6 25l612 825h-342l-188 -219l-33 12l25 275h761z" />
    <glyph glyph-name="braceleft" unicode="{" horiz-adv-x="794" 
d="M489 930q0 -72 -12 -124.5t-33 -87t-57.5 -59t-76 -38.5t-99.5 -27v-21q49 -11 84 -22t68.5 -28.5t55 -41t38.5 -57.5t24.5 -80t7.5 -106v-191q0 -93 14.5 -151.5t54 -97.5t97 -59.5t154.5 -35.5v-53q-135 5 -222 26.5t-147.5 71.5t-86 131.5t-25.5 206.5v190
q0 138 -61 197t-214 78v65q153 19 214 78t61 197v190q0 125 25.5 206.5t86 131.5t147.5 72t222 27v-54q-97 -15 -154.5 -35.5t-97 -60t-54 -98t-14.5 -152.5v-188z" />
    <glyph glyph-name="bar" unicode="|" horiz-adv-x="602" 
d="M354 -494h-106l10 965l-10 965h106l-10 -965z" />
    <glyph glyph-name="braceright" unicode="}" horiz-adv-x="794" 
d="M467 891q0 -138 60.5 -197t213.5 -78v-65q-153 -19 -213.5 -78t-60.5 -197v-190q0 -125 -25.5 -206.5t-86 -131.5t-147.5 -71.5t-222 -26.5v53q97 15 154.5 35.5t96.5 59.5t53.5 97.5t14.5 151.5v191q0 89 17 148.5t55.5 96t85 55.5t121.5 35v21q-75 16 -121.5 35.5
t-85 56t-55.5 96t-17 148.5v188q0 94 -14.5 152.5t-53.5 98t-96.5 60t-154.5 35.5v54q135 -5 222 -27t147.5 -72t86 -131.5t25.5 -206.5v-190z" />
    <glyph glyph-name="asciitilde" unicode="~" horiz-adv-x="759" 
d="M252 760q56 0 159 -49t132 -49q25 0 42 24t50 98l51 -12q-22 -126 -61.5 -183t-108.5 -57q-56 0 -159 49.5t-132 49.5q-25 0 -42 -24t-50 -99l-51 12q22 126 61.5 183t108.5 57z" />
    <glyph glyph-name="quotesinglbase" horiz-adv-x="473" 
d="M375 53q0 -115 -77 -216.5t-210 -182.5l-31 35q90 69 144 147t65 154l-12 6l-4 -2q-20 -10 -51 -10q-38 0 -63 30t-25 74q0 52 35 88.5t87 36.5q65 0 103.5 -44.5t38.5 -115.5z" />
    <glyph glyph-name="florin" horiz-adv-x="1073" 
d="M1032 1163q0 -39 -32 -67.5t-78 -28.5q-137 0 -166 147q-57 -28 -96.5 -74.5t-73 -138t-60.5 -237.5l-10 -55h232l-21 -95h-229l-78 -368q-47 -233 -89.5 -336t-133.5 -193q-46 -45 -108 -70.5t-120 -25.5q-77 0 -118 29.5t-41 75.5q0 41 32 69.5t82 28.5q94 0 168 -111
q43 40 71 107t54 194l123 600h-217l10 48l227 59l7 31q37 183 88.5 276.5t150.5 169.5q53 40 121.5 64t126.5 24q78 0 128 -33.5t50 -89.5z" />
    <glyph glyph-name="quotedblbase" horiz-adv-x="843" 
d="M786 53q0 -115 -76.5 -216.5t-209.5 -182.5l-31 35q90 69 144 147t65 154l-12 6l-4 -2q-20 -10 -52 -10q-38 0 -63 30t-25 74q0 52 35.5 88.5t87.5 36.5q65 0 103 -44t38 -116zM375 53q0 -115 -77 -216.5t-210 -182.5l-31 35q90 69 144 147t65 154l-12 6l-4 -2
q-20 -10 -51 -10q-38 0 -63 30t-25 74q0 52 35 88.5t87 36.5q65 0 103.5 -44.5t38.5 -115.5z" />
    <glyph glyph-name="ellipsis" unicode="&#x85;" horiz-adv-x="1378" 
d="M1266 90q0 -51 -36 -87t-87 -36q-52 0 -88.5 36t-36.5 87t36.5 87t88.5 36q51 0 87 -36t36 -87zM813 90q0 -51 -36 -87t-87 -36q-52 0 -88.5 36t-36.5 87t36.5 87t88.5 36q51 0 87 -36t36 -87zM360 90q0 -51 -35.5 -87t-86.5 -36q-52 0 -88.5 36t-36.5 87t36.5 87
t88.5 36q51 0 86.5 -36t35.5 -87z" />
    <glyph glyph-name="dagger" horiz-adv-x="970" 
d="M889 811l-367 10l10 -991h-94l11 991l-367 -10v88l367 -10l-11 483h94l-10 -483l367 10v-88z" />
    <glyph glyph-name="daggerdbl" horiz-adv-x="970" 
d="M889 295l-367 10l10 -475h-94l11 475l-367 -10v88l367 -10v456l-367 -10v88l367 -10l-11 475h94l-10 -475l367 10v-88l-367 10v-456l367 10v-88z" />
    <glyph glyph-name="circumflex" horiz-adv-x="612" 
d="M307 1298l-223 -221l-37 33l238 358h59l221 -358l-37 -33z" />
    <glyph glyph-name="perthousand" horiz-adv-x="1613" 
d="M1524 653q0 -196 -96.5 -361.5t-262 -261.5t-360.5 -96q-146 0 -278.5 56.5t-228.5 152.5t-153 229.5t-57 280.5q0 145 57 277.5t153 228.5t228.5 152.5t278.5 56.5t279.5 -56.5t229.5 -152.5t153 -228t57 -278zM1464 653q0 178 -88 330t-240 241t-331 89
q-177 0 -328.5 -89t-240.5 -241t-89 -330q0 -180 89 -333t240.5 -241.5t328.5 -88.5q134 0 256.5 52.5t210.5 141t140 211.5t52 258zM1108 852q0 -68 -54 -117t-157 -69v-13q102 -22 150 -127q48 -112 83 -149q17 -19 35 -26.5t49 -12.5v-37h-127q-61 0 -86.5 26t-60.5 103
l-53 117q-23 49 -51 64.5t-78 15.5h-45v-265l104 -24v-37h-344v37l105 24v611l-105 24v39h379q121 0 188.5 -52.5t67.5 -131.5zM963 834q0 74 -44.5 113.5t-113.5 39.5q-82 0 -92 -2v-313l92 2q69 2 113.5 43.5t44.5 116.5z" />
    <glyph glyph-name="Scaron" horiz-adv-x="1091" 
d="M547 1663l223 221l37 -33l-238 -358h-59l-221 358l37 33zM979 383q0 -102 -40.5 -184t-104.5 -130.5t-138 -74t-147 -25.5q-78 0 -160.5 17.5t-140.5 46.5l-62 -70h-51l-24 449l49 4q100 -229 182.5 -310t216.5 -81q115 0 187.5 66t72.5 179q0 101 -52 164.5t-196 124.5
q-23 10 -88.5 36t-101.5 44q-114 57 -169.5 133t-55.5 193q0 86 33.5 157.5t88.5 117t123 70.5t140 25q133 0 235 -63l64 69h49l35 -393l-50 -4q-87 188 -164 262t-188 74q-88 0 -147.5 -59.5t-59.5 -159.5q0 -87 46.5 -147.5t154.5 -106.5q23 -10 67 -28t80 -33.5t70 -32.5
q126 -61 186 -140t60 -190z" />
    <glyph glyph-name="guilsinglleft" horiz-adv-x="614" 
d="M272 459l244 -367l-47 -31l-391 381v33l391 381l47 -33z" />
    <glyph glyph-name="OE" horiz-adv-x="2062" 
d="M1985 395l-56 -395h-1126q-164 0 -298 50t-223 137.5t-137.5 207t-48.5 258.5q0 183 89.5 331.5t254.5 234.5t375 86h1026l49 -347l-28 -14l-146 174q-54 65 -94 84t-133 19h-266v-527h129q92 0 135 38t72 145l18 67h41v-571h-41l-18 63q-31 108 -73.5 146.5t-133.5 38.5
h-129v-535h360q91 0 128.5 15.5t76.5 72.5l166 229zM319 653q0 -151 40.5 -263t114 -177.5t166 -97t206.5 -31.5h184v1137h-231q-106 0 -191 -31.5t-151 -97.5t-102 -177.5t-36 -261.5z" />
    <glyph glyph-name="quoteleft" horiz-adv-x="473" 
d="M362 915q0 -52 -35 -88t-87 -36q-65 0 -103.5 44t-38.5 115q0 115 77 217t210 183l31 -35q-90 -69 -144 -147t-65 -154l12 -6l4 2q20 10 51 10q38 0 63 -30t25 -75z" />
    <glyph glyph-name="quoteright" horiz-adv-x="473" 
d="M375 1176q0 -115 -77 -217t-210 -183l-31 35q90 69 144 147t65 154l-12 6l-4 -2q-20 -10 -51 -10q-38 0 -63 30t-25 74q0 52 35 88.5t87 36.5q65 0 103.5 -44t38.5 -115z" />
    <glyph glyph-name="quotedblleft" horiz-adv-x="884" 
d="M774 915q0 -51 -35.5 -87.5t-87.5 -36.5q-65 0 -103 44t-38 115q0 115 77 217t210 183l30 -35q-90 -69 -144 -147t-65 -154l13 -6l4 2q20 10 51 10q38 0 63 -30t25 -75zM362 915q0 -52 -35 -88t-87 -36q-65 0 -103.5 44t-38.5 115q0 115 77 217t210 183l31 -35
q-90 -69 -144 -147t-65 -154l12 -6l4 2q20 10 51 10q38 0 63 -30t25 -75z" />
    <glyph glyph-name="quotedblright" horiz-adv-x="884" 
d="M786 1176q0 -115 -76.5 -217t-209.5 -183l-31 35q90 69 144 147t65 154l-12 6l-4 -2q-20 -10 -52 -10q-38 0 -63 30t-25 74q0 52 35.5 88.5t87.5 36.5q65 0 103 -44t38 -115zM375 1176q0 -115 -77 -217t-210 -183l-31 35q90 69 144 147t65 154l-12 6l-4 -2
q-20 -10 -51 -10q-38 0 -63 30t-25 74q0 52 35 88.5t87 36.5q65 0 103.5 -44t38.5 -115z" />
    <glyph glyph-name="bullet" horiz-adv-x="1003" 
d="M776 653q0 -115 -80 -195.5t-196 -80.5q-114 0 -194.5 80.5t-80.5 195.5q0 114 80.5 194.5t194.5 80.5q115 0 195.5 -80.5t80.5 -194.5z" />
    <glyph glyph-name="endash" horiz-adv-x="1105" 
d="M993 453h-880v104h880v-104z" />
    <glyph glyph-name="emdash" horiz-adv-x="1617" 
d="M1505 453h-1392v104h1392v-104z" />
    <glyph glyph-name="tilde" horiz-adv-x="677" 
d="M37 1110q22 126 61.5 183t108.5 57q43 0 102 -25t111 -49.5t78 -24.5q25 0 42 24t50 99l51 -12q-22 -126 -61.5 -183t-108.5 -57q-55 0 -158.5 49.5t-132.5 49.5q-25 0 -42 -24t-50 -99z" />
    <glyph glyph-name="trademark" horiz-adv-x="1679" 
d="M1507 1249v-477l90 -29v-26h-280v26l74 29v461h-19l-198 -516h-54l-205 516h-22v-455l70 -35v-26h-209v26l77 35v467l-77 31v29h254l34 -103l129 -330h13l125 336l30 97h258v-29zM682 1114l-20 -4l-66 84q-31 40 -47.5 53t-46.5 13h-60v-488l95 -29v-26h-304v26l95 29
v488h-66q-30 0 -46.5 -13t-47.5 -53l-66 -84l-20 4l27 191h546z" />
    <glyph glyph-name="scaron" horiz-adv-x="843" 
d="M434 1282l223 221l37 -33l-237 -358h-60l-221 358l37 33zM760 276q0 -136 -101.5 -218.5t-259.5 -82.5q-157 0 -303 56v258l49 4q51 -140 118 -200t171 -60q89 0 139 44t50 126q0 60 -50 101t-180 91q-146 55 -214 114.5t-68 162.5q0 118 91 199t236 81q154 0 264 -43
l7 -227l-43 -10q-60 123 -119.5 173t-145.5 50q-69 0 -116 -41t-47 -100t46.5 -98.5t166.5 -84.5q172 -65 240.5 -128t68.5 -167z" />
    <glyph glyph-name="guilsinglright" horiz-adv-x="614" 
d="M537 475v-33l-392 -381l-47 31l244 367l-244 364l47 33z" />
    <glyph glyph-name="oe" horiz-adv-x="1720" 
d="M993 512q-6 -196 79.5 -305t260.5 -109q72 0 132 21.5t153 75.5l16 -43q-102 -95 -190 -140t-180 -45q-226 0 -365 207q-145 -207 -383 -207q-195 0 -313.5 139t-118.5 353q0 132 55.5 243t162.5 179.5t243 68.5q227 0 370 -202q142 202 349 202q122 0 209 -63t127 -160
t40 -215h-647zM995 571l457 15q-12 303 -207 303q-102 0 -171.5 -89t-78.5 -229zM805 465q0 214 -75 319t-198 105q-114 0 -186 -109t-72 -327q0 -211 78 -317.5t195 -106.5q120 0 189 107.5t69 328.5z" />
    <glyph glyph-name="Ydieresis" horiz-adv-x="1347" 
d="M915 1499q-47 0 -77.5 31.5t-30.5 79.5t35 84.5t86 36.5q47 0 77.5 -31.5t30.5 -79.5t-35 -84.5t-86 -36.5zM535 1499q-47 0 -78 32t-31 79q0 48 35 84.5t86 36.5q47 0 77.5 -31.5t30.5 -79.5q0 -49 -34.5 -85t-85.5 -36zM1198 1198l-412 -620v-490l238 -37v-51h-668v51
l238 37v455l-420 663l-180 47v52h581v-52l-186 -36l354 -584l344 571l-180 49v52h453v-52z" />
    <glyph glyph-name="exclamdown" unicode="&#xa1;" horiz-adv-x="569" 
d="M408 698q0 -51 -36 -87t-87 -36t-87 36t-36 87t36 87t87 36t87 -36t36 -87zM260 391h45q9 -70 25.5 -203.5t25.5 -205.5t19.5 -163t15 -147.5t4.5 -87.5q0 -62 -30.5 -95.5t-81.5 -33.5q-52 0 -82.5 33.5t-30.5 95.5q0 31 4.5 87.5t15 147.5t19.5 163t25.5 205.5
t25.5 203.5z" />
    <glyph glyph-name="cent" unicode="&#xa2;" horiz-adv-x="983" 
d="M520 90q34 -6 72 -6q46 0 96.5 13.5t85.5 29.5t92 45l23 -31q-167 -176 -377 -170l-16 -202l-72 8l18 203q-163 29 -257.5 150.5t-94.5 291.5q0 186 121 329t307 167l14 186l70 -8l-14 -174q125 0 222 -60t97 -139q0 -40 -27 -67t-69 -27q-53 0 -84.5 57t-21.5 145
q-45 36 -121 39l-39 -440zM252 453q0 -126 55 -214t148 -128l28 325l31 428q-119 -26 -190.5 -140.5t-71.5 -270.5z" />
    <glyph glyph-name="sterling" unicode="&#xa3;" horiz-adv-x="1142" 
d="M868 674v-82h-301q4 -32 4 -55q0 -105 -43.5 -178t-152.5 -156l12 -25q74 8 222 -17.5t200 -25.5q77 0 121 54t74 180l61 -2q-9 -108 -42 -195.5t-96 -145t-145 -57.5q-69 0 -195 44t-257 108q-27 -69 -74.5 -110.5t-95.5 -41.5t-73.5 23.5t-25.5 62.5q0 57 58 96.5
t176 45.5q50 61 77 135t27 135q0 53 -26 125h-269v82h232q-45 95 -45 184q0 88 40.5 168.5t106 136.5t151 89.5t173.5 33.5q71 0 123 -15t77.5 -39t36.5 -46.5t11 -44.5q0 -48 -31 -81.5t-80 -33.5q-59 0 -109 47.5t-69 140.5q-114 -17 -180 -95.5t-66 -190.5q0 -37 7.5 -75
t15.5 -60.5t24.5 -62.5t22.5 -56h323z" />
    <glyph glyph-name="currency" unicode="&#xa4;" horiz-adv-x="1220" 
d="M246 725h-189v76h205q58 213 218 349t368 136q134 0 202 -40t68 -105q0 -48 -30.5 -81.5t-79.5 -33.5q-60 0 -111.5 50t-67.5 145h-4q-133 -9 -241.5 -120t-145.5 -300h559v-76h-571q-4 -62 -4 -98q0 -57 6 -109h569v-76h-557q40 -176 153 -265t265 -89q127 0 256 55
l21 -32q-62 -66 -157.5 -104t-195.5 -38q-215 0 -358.5 123.5t-179.5 349.5h-187v76h179q-3 34 -3 70q0 64 13 137z" />
    <glyph glyph-name="yen" unicode="&#xa5;" horiz-adv-x="1339" 
d="M231 639h314l-326 516l-168 47v51h561v-51l-178 -37l289 -501l295 489l-150 49v51h418v-51l-160 -55l-342 -508h320v-70h-346v-155h346v-70h-346v-256l211 -37v-51h-602v51l208 37v256h-344v70h344v155h-344v70z" />
    <glyph glyph-name="brokenbar" unicode="&#xa6;" horiz-adv-x="602" 
d="M354 612h-106l10 412l-10 412h106l-10 -412zM354 -494h-106l10 412l-10 412h106l-10 -412z" />
    <glyph glyph-name="section" unicode="&#xa7;" horiz-adv-x="1075" 
d="M942 383q0 -253 -144 -418.5t-364 -165.5q-122 0 -204.5 47.5t-82.5 122.5q0 50 36 84.5t83 34.5q55 0 89 -31.5t34 -79.5q0 -30 -14 -65q49 -39 123 -39q96 0 172 62t114 163q-163 36 -291 111t-204.5 170.5t-116 200t-39.5 211.5q0 253 144 418t364 165
q122 0 204.5 -47.5t82.5 -122.5q0 -50 -36 -84.5t-83 -34.5q-55 0 -89 31.5t-34 79.5q0 31 14 66q-48 38 -122 38q-96 0 -172.5 -62t-114.5 -163q131 -29 240.5 -84t184 -123.5t126.5 -150.5t76 -165.5t24 -168.5zM260 905q0 -213 136 -410t407 -341q12 56 12 114
q0 213 -136 410.5t-407 341.5q-12 -56 -12 -115z" />
    <glyph glyph-name="dieresis" unicode="&#xa8;" horiz-adv-x="659" 
d="M514 1118q-47 0 -77.5 31.5t-30.5 79.5q0 49 34.5 85t85.5 36q47 0 78 -32t31 -79q0 -48 -35 -84.5t-86 -36.5zM133 1118q-47 0 -77.5 31.5t-30.5 79.5q0 49 34.5 85t85.5 36q47 0 78 -32t31 -79q0 -48 -35 -84.5t-86 -36.5z" />
    <glyph glyph-name="copyright" unicode="&#xa9;" horiz-adv-x="1613" 
d="M1524 653q0 -196 -96.5 -361.5t-262 -261.5t-360.5 -96q-146 0 -278.5 56.5t-228.5 152.5t-153 229.5t-57 280.5q0 145 57 277.5t153 228.5t228.5 152.5t278.5 56.5t279.5 -56.5t229.5 -152.5t153 -228t57 -278zM1464 653q0 178 -88 330t-240 241t-331 89
q-177 0 -328.5 -89t-240.5 -241t-89 -330q0 -180 89 -333t240.5 -241.5t328.5 -88.5q134 0 256.5 52.5t210.5 141t140 211.5t52 258zM598 664q0 -157 71 -241.5t189 -84.5q52 0 76 12l125 166l31 -8l-25 -182q-111 -54 -238 -54q-175 0 -282 101.5t-107 269.5
q0 160 112.5 273.5t280.5 113.5q95 0 166 -33l29 45h35l14 -274l-37 -4q-51 111 -106 159t-133 48q-84 0 -142.5 -74t-58.5 -233z" />
    <glyph glyph-name="ordfeminine" unicode="&#xaa;" horiz-adv-x="839" 
d="M147 1161q0 47 48 88t119 63.5t143 22.5q100 0 147 -49t47 -147v-367q0 -33 27.5 -46.5t91.5 -10.5l4 -29q-76 -39 -147 -39q-44 0 -66.5 23.5t-25.5 77.5l-17 2q-62 -51 -115 -77t-112 -26q-77 0 -122.5 43.5t-45.5 110.5q0 99 101.5 158t293.5 69v100q0 69 -36.5 100.5
t-116.5 31.5q-56 0 -115 -19q51 -39 51 -82q0 -30 -21.5 -52t-54.5 -22q-35 0 -56.5 22.5t-21.5 53.5zM258 838q0 -103 109 -103q62 0 151 49v197q-134 -6 -197 -44t-63 -99z" />
    <glyph glyph-name="guillemotleft" unicode="&#xab;" 
d="M682 459l244 -367l-47 -31l-392 381v33l392 381l47 -33zM272 459l244 -367l-47 -31l-391 381v33l391 381l47 -33z" />
    <glyph glyph-name="logicalnot" unicode="&#xac;" horiz-adv-x="1064" 
d="M952 575h-839v105h839v-105z" />
    <glyph glyph-name="minus" unicode="&#xad;" horiz-adv-x="1064" 
d="M952 575h-839v105h839v-105z" />
    <glyph glyph-name="registered" unicode="&#xae;" horiz-adv-x="856" 
d="M428 594q-163 0 -272 108t-109 271t109 272t272 109t272 -109t109 -272t-109 -271t-272 -108zM428 631q148 0 244 97t96 245t-96.5 246t-243.5 98t-243.5 -98t-96.5 -246t96 -245t244 -97zM594 1077q0 -80 -117 -100v-14q37 -5 56 -17.5t28 -38.5q21 -56 41 -76
q17 -17 60 -20v-25h-89q-34 0 -47 12.5t-30 53.5l-27 61q-10 24 -23.5 32.5t-39.5 8.5h-25v-127l68 -16v-25h-218v25l70 16v308l-70 14v27h224q66 0 102.5 -28t36.5 -71zM510 1069q0 37 -23 55.5t-63 18.5h-43v-156h49q35 0 57.5 21.5t22.5 60.5z" />
    <glyph glyph-name="macron" unicode="&#xaf;" horiz-adv-x="657" 
d="M586 1262v-117h-514v117h514z" />
    <glyph glyph-name="degree" unicode="&#xb0;" horiz-adv-x="806" 
d="M719 1030q0 -77 -37 -146.5t-112.5 -116t-172.5 -46.5q-96 0 -167.5 44.5t-106.5 113t-35 149.5q0 120 89.5 213.5t234.5 93.5q96 0 167 -44t105.5 -112t34.5 -149zM584 1030q0 113 -50.5 180.5t-132.5 67.5q-79 0 -128.5 -69t-49.5 -183q0 -112 52.5 -180t130.5 -68
q82 0 130 68t48 184z" />
    <glyph glyph-name="plusminus" unicode="&#xb1;" 
d="M51 -410v2048h922v-2048h-922z" />
    <glyph glyph-name="twosuperior" unicode="&#xb2;" horiz-adv-x="798" 
d="M188 504l7 -21h385l102 166l35 -10l-45 -285h-584l-22 125q181 149 292 269q91 97 126.5 160t35.5 130q0 71 -44 115.5t-116 44.5q-82 0 -133.5 -48t-81.5 -144l-51 16q19 137 104 219t210 82q126 0 199 -74t73 -186q0 -119 -103.5 -236.5t-388.5 -322.5z" />
    <glyph glyph-name="threesuperior" unicode="&#xb3;" horiz-adv-x="798" 
d="M242 774v74q165 55 221.5 104.5t56.5 128.5q0 53 -40.5 90t-108.5 37q-133 0 -230 -149l-47 26q44 108 132.5 173t203.5 65q109 0 175.5 -57t66.5 -146q0 -174 -209 -235v-29q125 -20 187.5 -81t62.5 -157q0 -127 -99 -210.5t-245 -83.5q-128 0 -212.5 48t-84.5 115
q0 41 27 70t65 29q57 0 85 -44.5t15 -117.5q51 -39 117 -39q76 0 128 48t52 130q0 191 -319 211z" />
    <glyph glyph-name="acute" unicode="&#xb4;" horiz-adv-x="487" 
d="M373 1483q31 -22 36 -56.5t-18 -72.5q-13 -21 -43.5 -55t-55.5 -59.5t-77.5 -77t-71.5 -70.5l-32 24q101 272 139 330q23 35 58.5 46t64.5 -9z" />
    <glyph glyph-name="mu" unicode="&#xb5;" horiz-adv-x="1064" 
d="M600 625l289 -295l-74 -70l-283 293l-282 -293l-74 70l289 295l-289 295l74 69l282 -293l283 293l74 -69z" />
    <glyph glyph-name="paragraph" unicode="&#xb6;" horiz-adv-x="1284" 
d="M631 424q-113 2 -207 28.5t-166.5 76.5t-113 130.5t-40.5 184.5q0 198 143 309t388 111h598v-45l-225 -39v-1385h-99v1387h-180v-1387h-98v629zM631 506v676q-157 0 -241.5 -85.5t-84.5 -242.5t81.5 -246t244.5 -102z" />
    <glyph glyph-name="periodcentered" unicode="&#xb7;" horiz-adv-x="473" 
d="M360 651q0 -51 -35.5 -87t-86.5 -36q-52 0 -88.5 36t-36.5 87t36.5 87t88.5 36q51 0 86.5 -36t35.5 -87z" />
    <glyph glyph-name="cedilla" unicode="&#xb8;" horiz-adv-x="577" 
d="M350 -338q0 -88 -66 -144.5t-163 -56.5q-71 0 -113.5 25.5t-42.5 60.5q0 28 15.5 45t42.5 17q25 0 41 -17t16 -41q0 -19 -12 -40q21 -9 59 -9q48 0 84.5 35.5t36.5 93.5q0 59 -39.5 93t-106.5 34q-15 0 -45 -6l-28 33l366 307l27 -39l-250 -211q72 -8 125 -54.5
t53 -125.5z" />
    <glyph glyph-name="onesuperior" unicode="&#xb9;" horiz-adv-x="798" 
d="M508 457l211 -64v-39h-586v39l215 64v733l-211 57v37l350 45l21 -12v-860z" />
    <glyph glyph-name="ordmasculine" unicode="&#xba;" horiz-adv-x="860" 
d="M768 995q0 -144 -94 -246t-254 -102q-157 0 -242.5 96.5t-85.5 247.5q0 142 94.5 243t253.5 101t243.5 -94.5t84.5 -245.5zM610 995q0 143 -49 216t-135 73q-81 0 -128.5 -75t-47.5 -220q0 -142 51 -216.5t133 -74.5q84 0 130 74.5t46 222.5z" />
    <glyph glyph-name="guillemotright" unicode="&#xbb;" 
d="M946 442l-391 -381l-47 31l244 367l-244 364l47 33l391 -381v-33zM537 442l-392 -381l-47 31l244 367l-244 364l47 33l392 -381v-33z" />
    <glyph glyph-name="onequarter" unicode="&#xbc;" horiz-adv-x="2129" 
d="M508 457l211 -64v-39h-586v39l215 64v733l-211 57v37l350 45l21 -12v-860zM1667 1313l-530 -768l-521 -781l-75 56l530 768l520 780zM1290 213l408 596l164 -12v-564h153v-106h-153v-195l135 -47v-43h-449v45l166 45v199h-397zM1720 227v455h-34l-289 -455h323z" />
    <glyph glyph-name="onehalf" unicode="&#xbd;" horiz-adv-x="2129" 
d="M508 457l211 -64v-39h-586v39l215 64v733l-211 57v37l350 45l21 -12v-860zM1657 1313l-531 -768l-520 -781l-76 56l531 768l520 780zM1499 -8l6 -21h385l103 166l35 -10l-46 -285h-583l-23 125q185 153 293 269q91 97 126.5 160t35.5 130q0 71 -44 115.5t-116 44.5
q-82 0 -133.5 -48t-81.5 -144l-51 16q19 137 103.5 219t209.5 82q126 0 199.5 -74.5t73.5 -185.5q0 -119 -103.5 -236.5t-388.5 -322.5z" />
    <glyph glyph-name="threequarters" unicode="&#xbe;" horiz-adv-x="2129" 
d="M303 774v74q166 55 222.5 104.5t56.5 128.5q0 53 -41 90t-109 37q-132 0 -229 -149l-47 26q44 108 132.5 173t203.5 65q109 0 175 -57t66 -146q0 -174 -209 -235v-29q125 -20 187.5 -81t62.5 -157q0 -127 -99 -210.5t-245 -83.5q-128 0 -212.5 48t-84.5 115q0 41 27 70
t65 29q58 0 86 -44.5t15 -117.5q51 -39 116 -39q77 0 129 48t52 130q0 92 -79 146.5t-241 64.5zM1677 1313l-530 -768l-520 -781l-76 56l530 768l521 780zM1290 213l408 596l164 -12v-564h153v-106h-153v-195l135 -47v-43h-449v45l166 45v199h-397zM1720 227v455h-34
l-289 -455h323z" />
    <glyph glyph-name="questiondown" unicode="&#xbf;" horiz-adv-x="839" 
d="M580 698q0 -51 -36 -87t-87 -36t-87 36t-36 87t36 87t87 36t87 -36t36 -87zM745 -352q0 -84 -87 -138.5t-220 -54.5q-163 0 -267.5 83.5t-104.5 209.5q0 96 56.5 159t192.5 136q112 60 149.5 97.5t37.5 84.5q0 43 -34.5 70t-92.5 27q-48 0 -111 -19l-16 43q77 45 164 45
q100 0 169.5 -50.5t69.5 -139.5q0 -81 -52 -138t-177 -124q-57 -30 -88.5 -50.5t-61 -48.5t-41.5 -60.5t-12 -76.5q0 -85 56 -136.5t151 -51.5q77 0 119 45q-29 51 -29 92q0 52 31.5 85.5t81.5 33.5q48 0 82 -35t34 -88z" />
    <glyph glyph-name="Agrave" unicode="&#xc0;" horiz-adv-x="1382" 
d="M725 1497l-33 -24q-19 19 -71.5 70.5t-77.5 77t-55.5 59.5t-43.5 55q-23 39 -17.5 73t36.5 56q30 20 64.5 8.5t58.5 -45.5q38 -58 139 -330zM1212 98l166 -47v-51h-571v51l205 37l-138 379h-477l-133 -367l160 -49v-51h-424v51l166 55l463 1211h119zM846 547l-203 557
h-16l-201 -557h420z" />
    <glyph glyph-name="Aacute" unicode="&#xc1;" horiz-adv-x="1382" 
d="M870 1864q31 -22 36.5 -56t-17.5 -73q-13 -21 -43.5 -55t-55.5 -59.5t-77.5 -77t-71.5 -70.5l-33 24q99 269 140 330q23 36 58 46.5t64 -9.5zM1212 98l166 -47v-51h-571v51l205 37l-138 379h-477l-133 -367l160 -49v-51h-424v51l166 55l463 1211h119zM846 547l-203 557
h-16l-201 -557h420z" />
    <glyph glyph-name="Acircumflex" unicode="&#xc2;" horiz-adv-x="1382" 
d="M686 1659l-223 -221l-37 32l238 359h59l221 -359l-37 -32zM1212 98l166 -47v-51h-571v51l205 37l-138 379h-477l-133 -367l160 -49v-51h-424v51l166 55l463 1211h119zM846 547l-203 557h-16l-201 -557h420z" />
    <glyph glyph-name="Atilde" unicode="&#xc3;" horiz-adv-x="1382" 
d="M393 1491q22 126 61.5 183t108.5 57q55 0 158.5 -49.5t132.5 -49.5q25 0 42 24t50 99l51 -12q-22 -126 -61.5 -183t-108.5 -57q-55 0 -158 49.5t-132 49.5q-25 0 -42.5 -24.5t-50.5 -98.5zM1212 98l166 -47v-51h-571v51l205 37l-138 379h-477l-133 -367l160 -49v-51h-424
v51l166 55l463 1211h119zM846 547l-203 557h-16l-201 -557h420z" />
    <glyph glyph-name="Adieresis" unicode="&#xc4;" horiz-adv-x="1382" 
d="M885 1499q-47 0 -78 32t-31 79q0 48 35 84.5t86 36.5q47 0 78 -32t31 -79q0 -48 -35 -84.5t-86 -36.5zM504 1499q-47 0 -78 32t-31 79q0 48 35 84.5t86 36.5q47 0 78 -32t31 -79q0 -48 -35 -84.5t-86 -36.5zM1212 98l166 -47v-51h-571v51l205 37l-138 379h-477l-133 -367
l160 -49v-51h-424v51l166 55l463 1211h119zM846 547l-203 557h-16l-201 -557h420z" />
    <glyph glyph-name="Aring" unicode="&#xc5;" horiz-adv-x="1382" 
d="M1212 98l166 -47v-51h-571v51l205 37l-138 379h-477l-133 -367l160 -49v-51h-424v51l166 55l450 1180q-64 19 -101.5 72t-37.5 123q0 79 60.5 140.5t152.5 61.5t147.5 -57.5t55.5 -144.5q0 -60 -37 -113t-98 -76zM557 1479q0 -75 38 -117.5t91 -42.5t89 42t36 120
q0 77 -37 118t-92 41q-53 0 -89 -41.5t-36 -119.5zM627 1104l-201 -557h420l-203 557h-16z" />
    <glyph glyph-name="AE" unicode="&#xc6;" horiz-adv-x="1986" 
d="M489 524l-260 -424l160 -49v-51h-434v51l166 55l686 1094l-209 53v52h1167l50 -347l-29 -14l-146 174q-54 65 -94 84t-133 19h-266v-527h129q92 0 135 38t72 145l18 67h41v-571h-41l-18 63q-31 108 -73.5 146.5t-133.5 38.5h-129v-535h360q91 0 128.5 15.5t76.5 72.5
l166 229l31 -8l-56 -395h-1122v51l223 37v436h-465zM954 604v619h-34l-383 -619h417z" />
    <glyph glyph-name="Ccedilla" unicode="&#xc7;" horiz-adv-x="1390" 
d="M319 659q0 -152 40.5 -271.5t112 -193t163.5 -111.5t199 -38q88 0 161 31l234 280l28 -8l-38 -270q-95 -50 -174 -75.5t-179 -31.5l-153 -129q72 -8 125 -54.5t53 -125.5q0 -88 -66 -144.5t-163 -56.5q-71 0 -113.5 25.5t-42.5 60.5q0 28 15 45t42 17q26 0 42 -17t16 -41
q0 -17 -13 -40q21 -9 60 -9q47 0 83.5 35.5t36.5 93.5q0 59 -39 93t-106 34q-15 0 -45 -6l-29 33l222 184q-309 2 -502 186.5t-193 483.5q0 201 95.5 362t253 247.5t343.5 86.5q154 0 312 -63l67 69h43l17 -438l-43 -4q-94 185 -196 278t-240 93q-187 0 -308 -163.5
t-121 -447.5z" />
    <glyph glyph-name="Egrave" unicode="&#xc8;" horiz-adv-x="1323" 
d="M750 1487l-33 -25q-19 19 -71.5 70.5t-77.5 77t-55.5 59.5t-43.5 55q-23 38 -18 72.5t36 56.5q30 20 64.5 9t58.5 -45q41 -61 140 -330zM1102 1305l49 -347l-29 -14l-145 174q-54 65 -94 84t-133 19h-267v-527h129q92 0 135 38t72 145l19 67h41v-571h-41l-19 63
q-31 108 -73.5 146.5t-133.5 38.5h-129v-535h361q91 0 128.5 15.5t76.5 72.5l165 229l31 -8l-55 -395h-1122v51l223 37v1129l-223 36v52h1034z" />
    <glyph glyph-name="Eacute" unicode="&#xc9;" horiz-adv-x="1323" 
d="M821 1853q31 -22 36.5 -56t-17.5 -73q-13 -21 -43.5 -55t-55.5 -59.5t-77.5 -77t-71.5 -70.5l-33 25q101 272 139 330q23 35 58.5 45.5t64.5 -9.5zM1102 1305l49 -347l-29 -14l-145 174q-54 65 -94 84t-133 19h-267v-527h129q92 0 135 38t72 145l19 67h41v-571h-41
l-19 63q-31 108 -73.5 146.5t-133.5 38.5h-129v-535h361q91 0 128.5 15.5t76.5 72.5l165 229l31 -8l-55 -395h-1122v51l223 37v1129l-223 36v52h1034z" />
    <glyph glyph-name="Ecircumflex" unicode="&#xca;" horiz-adv-x="1323" 
d="M662 1665l-224 -221l-37 33l238 358h59l222 -358l-37 -33zM1102 1305l49 -347l-29 -14l-145 174q-54 65 -94 84t-133 19h-267v-527h129q92 0 135 38t72 145l19 67h41v-571h-41l-19 63q-31 108 -73.5 146.5t-133.5 38.5h-129v-535h361q91 0 128.5 15.5t76.5 72.5l165 229
l31 -8l-55 -395h-1122v51l223 37v1129l-223 36v52h1034z" />
    <glyph glyph-name="Edieresis" unicode="&#xcb;" horiz-adv-x="1323" 
d="M840 1489q-47 0 -78 31.5t-31 78.5q0 48 35 84.5t86 36.5q47 0 78 -31.5t31 -78.5q0 -48 -35 -84.5t-86 -36.5zM459 1489q-47 0 -78 31.5t-31 78.5q0 48 35 84.5t86 36.5q47 0 78 -31.5t31 -78.5q0 -48 -35 -84.5t-86 -36.5zM1102 1305l49 -347l-29 -14l-145 174
q-54 65 -94 84t-133 19h-267v-527h129q92 0 135 38t72 145l19 67h41v-571h-41l-19 63q-31 108 -73.5 146.5t-133.5 38.5h-129v-535h361q91 0 128.5 15.5t76.5 72.5l165 229l31 -8l-55 -395h-1122v51l223 37v1129l-223 36v52h1034z" />
    <glyph glyph-name="Igrave" unicode="&#xcc;" horiz-adv-x="835" 
d="M489 1497l-32 -24q-19 19 -71.5 70.5t-77.5 77t-55.5 59.5t-43.5 55q-23 38 -18 72.5t36 56.5q30 20 64.5 8.5t58.5 -45.5q38 -58 139 -330zM514 88l229 -37v-51h-653v51l232 37v1129l-232 36v52h653v-52l-229 -36v-1129z" />
    <glyph glyph-name="Iacute" unicode="&#xcd;" horiz-adv-x="835" 
d="M588 1864q31 -22 36 -56.5t-18 -72.5q-13 -21 -43.5 -55t-55.5 -59.5t-77.5 -77t-71.5 -70.5l-32 24q101 272 139 330q23 35 58.5 46t64.5 -9zM514 88l229 -37v-51h-653v51l232 37v1129l-232 36v52h653v-52l-229 -36v-1129z" />
    <glyph glyph-name="Icircumflex" unicode="&#xce;" horiz-adv-x="835" 
d="M422 1679l-223 -221l-37 33l237 358h60l221 -358l-37 -33zM514 88l229 -37v-51h-653v51l232 37v1129l-232 36v52h653v-52l-229 -36v-1129z" />
    <glyph glyph-name="Idieresis" unicode="&#xcf;" horiz-adv-x="835" 
d="M606 1499q-47 0 -77.5 31.5t-30.5 79.5q0 49 34.5 85t85.5 36q47 0 78 -32t31 -79q0 -48 -35 -84.5t-86 -36.5zM225 1499q-47 0 -77.5 31.5t-30.5 79.5t35 84.5t86 36.5q47 0 77.5 -31.5t30.5 -79.5t-35 -84.5t-86 -36.5zM514 88l229 -37v-51h-653v51l232 37v1129
l-232 36v52h653v-52l-229 -36v-1129z" />
    <glyph glyph-name="Eth" unicode="&#xd0;" horiz-adv-x="1523" 
d="M1427 653q0 -184 -89.5 -333t-254 -234.5t-374.5 -85.5h-631v51l225 37v547h-197v84h197v498l-225 36v52h643q164 0 298 -50t223 -137.5t137 -207t48 -257.5zM1204 653q0 124 -27 222t-73.5 163.5t-113.5 108.5t-143.5 61.5t-166.5 18.5h-188v-508h260v-84h-260v-557h233
q107 0 191.5 30.5t150.5 96.5t101.5 179.5t35.5 268.5z" />
    <glyph glyph-name="Ntilde" unicode="&#xd1;" horiz-adv-x="1566" 
d="M496 1491q22 126 61.5 183t108.5 57q43 0 101.5 -24.5t110.5 -49.5t78 -25q25 0 42.5 24.5t50.5 98.5l51 -12q-22 -126 -61.5 -183t-108.5 -57q-56 0 -159 49.5t-132 49.5q-25 0 -42 -24t-50 -99zM281 106v1090l-183 53v56h414l152 -209l530 -746h23v848l-203 55v52h477
v-52l-182 -55v-1210h-88l-150 209l-674 933h-24v-1024l202 -55v-51h-477v51z" />
    <glyph glyph-name="Ograve" unicode="&#xd2;" horiz-adv-x="1462" 
d="M770 1497l-33 -24q-19 19 -71.5 70.5t-77.5 77t-55.5 59.5t-43.5 55q-23 39 -17.5 73t36.5 56q30 20 64.5 8.5t58.5 -45.5q38 -58 139 -330zM1362 653q0 -139 -45 -263.5t-126.5 -218t-202.5 -148t-265 -54.5q-150 0 -271 54.5t-198 148.5t-117.5 217t-40.5 264
q0 138 45 262t126.5 217.5t202.5 148t265 54.5q150 0 271 -54.5t197.5 -148.5t117.5 -216.5t41 -262.5zM1139 653q0 153 -38.5 276t-101 197t-138 113t-154.5 39q-59 0 -112.5 -18.5t-105 -64t-88.5 -115t-59.5 -179t-22.5 -248.5t25.5 -248.5t67.5 -179t99.5 -115.5
t116.5 -64.5t124 -18.5q73 0 140.5 38.5t123.5 113t89.5 197.5t33.5 277z" />
    <glyph glyph-name="Oacute" unicode="&#xd3;" horiz-adv-x="1462" 
d="M891 1864q31 -22 36 -56.5t-18 -72.5q-11 -17 -29.5 -39.5t-47 -52t-51 -52.5t-61.5 -61t-58 -57l-33 24q101 272 139 330q23 35 58.5 46t64.5 -9zM1362 653q0 -139 -45 -263.5t-126.5 -218t-202.5 -148t-265 -54.5q-150 0 -271 54.5t-198 148.5t-117.5 217t-40.5 264
q0 138 45 262t126.5 217.5t202.5 148t265 54.5q150 0 271 -54.5t197.5 -148.5t117.5 -216.5t41 -262.5zM1139 653q0 153 -38.5 276t-101 197t-138 113t-154.5 39q-59 0 -112.5 -18.5t-105 -64t-88.5 -115t-59.5 -179t-22.5 -248.5t25.5 -248.5t67.5 -179t99.5 -115.5
t116.5 -64.5t124 -18.5q73 0 140.5 38.5t123.5 113t89.5 197.5t33.5 277z" />
    <glyph glyph-name="Ocircumflex" unicode="&#xd4;" horiz-adv-x="1462" 
d="M725 1679l-223 -221l-37 33l237 358h60l221 -358l-37 -33zM1362 653q0 -139 -45 -263.5t-126.5 -218t-202.5 -148t-265 -54.5q-150 0 -271 54.5t-198 148.5t-117.5 217t-40.5 264q0 138 45 262t126.5 217.5t202.5 148t265 54.5q150 0 271 -54.5t197.5 -148.5
t117.5 -216.5t41 -262.5zM1139 653q0 153 -38.5 276t-101 197t-138 113t-154.5 39q-59 0 -112.5 -18.5t-105 -64t-88.5 -115t-59.5 -179t-22.5 -248.5t25.5 -248.5t67.5 -179t99.5 -115.5t116.5 -64.5t124 -18.5q73 0 140.5 38.5t123.5 113t89.5 197.5t33.5 277z" />
    <glyph glyph-name="Otilde" unicode="&#xd5;" horiz-adv-x="1462" 
d="M428 1491q22 126 61.5 183t108.5 57q56 0 159 -49.5t132 -49.5q25 0 42 24t50 99l51 -12q-22 -126 -61.5 -183t-108.5 -57q-56 0 -159 49.5t-132 49.5q-25 0 -42 -24t-50 -99zM1362 653q0 -139 -45 -263.5t-126.5 -218t-202.5 -148t-265 -54.5q-150 0 -271 54.5
t-198 148.5t-117.5 217t-40.5 264q0 138 45 262t126.5 217.5t202.5 148t265 54.5q150 0 271 -54.5t197.5 -148.5t117.5 -216.5t41 -262.5zM1139 653q0 153 -38.5 276t-101 197t-138 113t-154.5 39q-59 0 -112.5 -18.5t-105 -64t-88.5 -115t-59.5 -179t-22.5 -248.5
t25.5 -248.5t67.5 -179t99.5 -115.5t116.5 -64.5t124 -18.5q73 0 140.5 38.5t123.5 113t89.5 197.5t33.5 277z" />
    <glyph glyph-name="Odieresis" unicode="&#xd6;" horiz-adv-x="1462" 
d="M909 1499q-47 0 -77.5 31.5t-30.5 79.5t35 84.5t86 36.5q47 0 77.5 -31.5t30.5 -79.5t-35 -84.5t-86 -36.5zM528 1499q-47 0 -77.5 31.5t-30.5 79.5t35 84.5t86 36.5q47 0 77.5 -31.5t30.5 -79.5t-35 -84.5t-86 -36.5zM1362 653q0 -139 -45 -263.5t-126.5 -218
t-202.5 -148t-265 -54.5q-150 0 -271 54.5t-198 148.5t-117.5 217t-40.5 264q0 138 45 262t126.5 217.5t202.5 148t265 54.5q150 0 271 -54.5t197.5 -148.5t117.5 -216.5t41 -262.5zM1139 653q0 153 -38.5 276t-101 197t-138 113t-154.5 39q-59 0 -112.5 -18.5t-105 -64
t-88.5 -115t-59.5 -179t-22.5 -248.5t25.5 -248.5t67.5 -179t99.5 -115.5t116.5 -64.5t124 -18.5q73 0 140.5 38.5t123.5 113t89.5 197.5t33.5 277z" />
    <glyph glyph-name="multiply" unicode="&#xd7;" horiz-adv-x="1064" 
d="M600 625l289 -295l-74 -70l-283 293l-282 -293l-74 70l289 295l-289 295l74 69l282 -293l283 293l74 -69z" />
    <glyph glyph-name="Oslash" unicode="&#xd8;" horiz-adv-x="1462" 
d="M1362 653q0 -139 -45 -263.5t-126.5 -218t-202.5 -148t-265 -54.5q-234 0 -404 150l-157 -185l-51 41l161 191q-85 94 -130.5 220t-45.5 267q0 138 45 262t126.5 217.5t202.5 148t265 54.5q236 0 404 -149l157 184l52 -43l-162 -190q85 -92 130.5 -218t45.5 -266z
M379 293l659 774q-61 104 -149 157.5t-182 53.5q-59 0 -112.5 -18.5t-105 -64t-88.5 -115t-59.5 -179t-22.5 -248.5q0 -214 60 -360zM1073 1004l-661 -777q59 -104 149 -152t191 -48q73 0 140.5 38.5t123.5 113t89.5 197.5t33.5 277q0 203 -66 351z" />
    <glyph glyph-name="Ugrave" unicode="&#xd9;" horiz-adv-x="1531" 
d="M911 1497l-32 -24q-19 19 -71.5 70.5t-77.5 77t-55.5 59.5t-43.5 55q-23 38 -18 72.5t36 56.5q30 20 64.5 8.5t58.5 -45.5q38 -58 139 -330zM1190 1198l-182 55v52h456v-52l-182 -55v-743q0 -136 -57 -246t-173 -177t-274 -67q-252 0 -385 112.5t-133 336.5v803l-203 36
v52h623v-52l-223 -36v-760q0 -209 99 -302.5t286 -93.5q163 0 255.5 111.5t92.5 282.5v743z" />
    <glyph glyph-name="Uacute" unicode="&#xda;" horiz-adv-x="1531" 
d="M1026 1864q31 -22 36 -56.5t-18 -72.5q-11 -17 -29.5 -39.5t-47 -52t-51 -52.5t-61.5 -61t-58 -57l-33 24q101 272 139 330q23 35 58.5 46t64.5 -9zM1190 1198l-182 55v52h456v-52l-182 -55v-743q0 -136 -57 -246t-173 -177t-274 -67q-252 0 -385 112.5t-133 336.5v803
l-203 36v52h623v-52l-223 -36v-760q0 -209 99 -302.5t286 -93.5q163 0 255.5 111.5t92.5 282.5v743z" />
    <glyph glyph-name="Ucircumflex" unicode="&#xdb;" horiz-adv-x="1531" 
d="M844 1679l-223 -221l-37 33l237 358h60l221 -358l-37 -33zM1190 1198l-182 55v52h456v-52l-182 -55v-743q0 -136 -57 -246t-173 -177t-274 -67q-252 0 -385 112.5t-133 336.5v803l-203 36v52h623v-52l-223 -36v-760q0 -209 99 -302.5t286 -93.5q163 0 255.5 111.5
t92.5 282.5v743z" />
    <glyph glyph-name="Udieresis" unicode="&#xdc;" horiz-adv-x="1531" 
d="M1016 1499q-47 0 -78 32t-31 79q0 48 35 84.5t86 36.5q47 0 78 -32t31 -79q0 -48 -35 -84.5t-86 -36.5zM635 1499q-47 0 -78 32t-31 79q0 48 35 84.5t86 36.5q47 0 78 -32t31 -79q0 -48 -35 -84.5t-86 -36.5zM1190 1198l-182 55v52h456v-52l-182 -55v-743
q0 -136 -57 -246t-173 -177t-274 -67q-252 0 -385 112.5t-133 336.5v803l-203 36v52h623v-52l-223 -36v-760q0 -209 99 -302.5t286 -93.5q163 0 255.5 111.5t92.5 282.5v743z" />
    <glyph glyph-name="Yacute" unicode="&#xdd;" horiz-adv-x="1347" 
d="M954 1864q31 -22 36.5 -56t-17.5 -73q-13 -21 -43.5 -55t-55.5 -59.5t-77.5 -77t-71.5 -70.5l-33 24q101 272 139 330q23 35 58.5 46t64.5 -9zM1198 1198l-412 -620v-490l238 -37v-51h-668v51l238 37v455l-420 663l-180 47v52h581v-52l-186 -36l354 -584l344 571l-180 49
v52h453v-52z" />
    <glyph glyph-name="Thorn" unicode="&#xde;" horiz-adv-x="1239" 
d="M1143 662q0 -159 -123.5 -273.5t-314.5 -114.5q-97 0 -222 19v-205l230 -37v-51h-645v51l223 37v1129l-223 36v52h645v-52l-230 -36v-207q99 18 191 18q215 0 342 -103t127 -263zM928 655q0 154 -78 228.5t-219 74.5q-87 0 -148 -12v-588q62 -10 144 -10q145 0 223 75.5
t78 231.5z" />
    <glyph glyph-name="germandbls" unicode="&#xdf;" horiz-adv-x="1245" 
d="M1167 268q0 -130 -84.5 -213.5t-224.5 -83.5q-100 0 -164.5 40t-64.5 106q0 41 26 68.5t66 27.5q57 0 83.5 -41.5t20.5 -118.5q30 -24 74 -24q56 0 93.5 46t37.5 122q0 74 -38 138.5t-140.5 140.5t-278.5 161v27q169 180 221 274.5t52 210.5t-62.5 191t-160.5 75
q-101 0 -155 -71t-54 -238v-1028l104 -35v-43h-416v43l146 37v737h-185v41l185 53v66q0 145 43 245t129 175q142 121 287 121q132 0 219.5 -90t87.5 -224q0 -119 -67.5 -226t-209.5 -226v-23q224 -111 327 -217.5t103 -243.5z" />
    <glyph glyph-name="agrave" unicode="&#xe0;" horiz-adv-x="974" 
d="M561 1116l-33 -24q-19 19 -58 57t-61.5 61t-51 52.5t-47 52t-29.5 39.5q-23 38 -18 72.5t36 56.5q30 20 64.5 8.5t58.5 -45.5q38 -58 139 -330zM799 678v-531q0 -46 37 -64.5t135 -12.5l4 -31q-32 -22 -95.5 -42t-115.5 -20q-60 0 -88.5 34t-32.5 114l-18 4
q-152 -152 -293 -152q-103 0 -164.5 58t-61.5 151q0 134 148 223.5t381 110.5v125q0 117 -50.5 165t-160.5 48q-91 0 -160 -43q80 -53 80 -110q0 -44 -29.5 -72.5t-72.5 -28.5q-46 0 -75.5 28.5t-29.5 74.5q0 66 61.5 122.5t155 87.5t191.5 31q131 0 192.5 -65.5
t61.5 -204.5zM635 180v281q-183 0 -275 -59t-92 -154q0 -73 39.5 -113.5t110.5 -40.5q92 0 217 86z" />
    <glyph glyph-name="aacute" unicode="&#xe1;" horiz-adv-x="974" 
d="M676 1483q31 -22 36 -56.5t-18 -72.5q-13 -21 -43.5 -55t-55.5 -59.5t-77.5 -77t-71.5 -70.5l-32 24q101 272 139 330q23 35 58.5 46t64.5 -9zM799 678v-531q0 -46 37 -64.5t135 -12.5l4 -31q-32 -22 -95.5 -42t-115.5 -20q-60 0 -88.5 34t-32.5 114l-18 4
q-152 -152 -293 -152q-103 0 -164.5 58t-61.5 151q0 134 148 223.5t381 110.5v125q0 117 -50.5 165t-160.5 48q-91 0 -160 -43q80 -53 80 -110q0 -44 -29.5 -72.5t-72.5 -28.5q-46 0 -75.5 28.5t-29.5 74.5q0 66 61.5 122.5t155 87.5t191.5 31q131 0 192.5 -65.5
t61.5 -204.5zM635 180v281q-183 0 -275 -59t-92 -154q0 -73 39.5 -113.5t110.5 -40.5q92 0 217 86z" />
    <glyph glyph-name="acircumflex" unicode="&#xe2;" horiz-adv-x="974" 
d="M506 1298l-223 -221l-37 33l237 358h60l221 -358l-37 -33zM799 678v-531q0 -46 37 -64.5t135 -12.5l4 -31q-32 -22 -95.5 -42t-115.5 -20q-60 0 -88.5 34t-32.5 114l-18 4q-152 -152 -293 -152q-103 0 -164.5 58t-61.5 151q0 134 148 223.5t381 110.5v125
q0 117 -50.5 165t-160.5 48q-91 0 -160 -43q80 -53 80 -110q0 -44 -29.5 -72.5t-72.5 -28.5q-46 0 -75.5 28.5t-29.5 74.5q0 66 61.5 122.5t155 87.5t191.5 31q131 0 192.5 -65.5t61.5 -204.5zM635 180v281q-183 0 -275 -59t-92 -154q0 -73 39.5 -113.5t110.5 -40.5
q92 0 217 86z" />
    <glyph glyph-name="atilde" unicode="&#xe3;" horiz-adv-x="974" 
d="M190 1110q22 126 61.5 183t108.5 57q43 0 102 -25t111 -49.5t78 -24.5q25 0 42 24t50 99l52 -12q-22 -126 -61.5 -183t-108.5 -57q-43 0 -102 25t-111 49.5t-78 24.5q-25 0 -42 -24t-50 -99zM799 678v-531q0 -46 37 -64.5t135 -12.5l4 -31q-32 -22 -95.5 -42t-115.5 -20
q-60 0 -88.5 34t-32.5 114l-18 4q-152 -152 -293 -152q-103 0 -164.5 58t-61.5 151q0 134 148 223.5t381 110.5v125q0 117 -50.5 165t-160.5 48q-91 0 -160 -43q80 -53 80 -110q0 -44 -29.5 -72.5t-72.5 -28.5q-46 0 -75.5 28.5t-29.5 74.5q0 66 61.5 122.5t155 87.5
t191.5 31q131 0 192.5 -65.5t61.5 -204.5zM635 180v281q-183 0 -275 -59t-92 -154q0 -73 39.5 -113.5t110.5 -40.5q92 0 217 86z" />
    <glyph glyph-name="adieresis" unicode="&#xe4;" horiz-adv-x="974" 
d="M672 1118q-47 0 -78 32t-31 79q0 48 35 84.5t86 36.5q47 0 78 -32t31 -79q0 -48 -35 -84.5t-86 -36.5zM291 1118q-47 0 -78 32t-31 79q0 48 35 84.5t86 36.5q47 0 78 -32t31 -79q0 -48 -35 -84.5t-86 -36.5zM799 678v-531q0 -46 37 -64.5t135 -12.5l4 -31
q-32 -22 -95.5 -42t-115.5 -20q-60 0 -88.5 34t-32.5 114l-18 4q-152 -152 -293 -152q-103 0 -164.5 58t-61.5 151q0 134 148 223.5t381 110.5v125q0 117 -50.5 165t-160.5 48q-91 0 -160 -43q80 -53 80 -110q0 -44 -29.5 -72.5t-72.5 -28.5q-46 0 -75.5 28.5t-29.5 74.5
q0 66 61.5 122.5t155 87.5t191.5 31q131 0 192.5 -65.5t61.5 -204.5zM635 180v281q-183 0 -275 -59t-92 -154q0 -73 39.5 -113.5t110.5 -40.5q92 0 217 86z" />
    <glyph glyph-name="aring" unicode="&#xe5;" horiz-adv-x="974" 
d="M707 1315q0 -79 -60.5 -141t-152.5 -62t-147.5 58t-55.5 145q0 79 60.5 141t152.5 62t147.5 -58t55.5 -145zM799 678v-531q0 -46 37 -64.5t135 -12.5l4 -31q-32 -22 -95.5 -42t-115.5 -20q-60 0 -88.5 34t-32.5 114l-18 4q-152 -152 -293 -152q-103 0 -164.5 58
t-61.5 151q0 134 148 223.5t381 110.5v125q0 117 -50.5 165t-160.5 48q-91 0 -160 -43q80 -53 80 -110q0 -44 -29.5 -72.5t-72.5 -28.5q-46 0 -75.5 28.5t-29.5 74.5q0 66 61.5 122.5t155 87.5t191.5 31q131 0 192.5 -65.5t61.5 -204.5zM625 1315q0 78 -37 119t-92 41
q-53 0 -89 -42t-36 -120q0 -75 38 -117.5t91 -42.5t89 42t36 120zM635 180v281q-183 0 -275 -59t-92 -154q0 -73 39.5 -113.5t110.5 -40.5q92 0 217 86z" />
    <glyph glyph-name="ae" unicode="&#xe6;" horiz-adv-x="1533" 
d="M1454 512h-647q-5 -200 79.5 -307t262.5 -107q70 0 131.5 22t151.5 75l16 -43q-103 -96 -190.5 -140.5t-184.5 -44.5q-244 0 -364 195h-17q-96 -93 -181.5 -139t-178.5 -46q-103 0 -164.5 58t-61.5 151q0 134 148 223.5t381 110.5v125q0 117 -50.5 165t-160.5 48
q-91 0 -160 -43q80 -53 80 -110q0 -44 -29.5 -72.5t-72.5 -28.5q-46 0 -75.5 28.5t-29.5 74.5q0 66 62 122.5t153.5 87.5t184.5 31q98 0 150.5 -39t80.5 -118q118 159 301 159q92 0 166.5 -36t121.5 -97.5t72 -139.5t25 -165zM1059 889q-102 0 -171.5 -89t-78.5 -229l457 15
q-12 303 -207 303zM678 217q-41 83 -45 244q-182 0 -273.5 -59t-91.5 -154q0 -73 39.5 -113.5t110.5 -40.5q61 0 129.5 32.5t130.5 90.5z" />
    <glyph glyph-name="ccedilla" unicode="&#xe7;" horiz-adv-x="962" 
d="M256 465q0 -173 98.5 -275t245.5 -102q72 0 129 18.5t143 63.5l21 -27q-97 -111 -223 -153l-174 -148q72 -8 125 -54.5t53 -125.5q0 -88 -66.5 -144.5t-163.5 -56.5q-71 0 -113 25.5t-42 60.5q0 28 15 45t42 17q25 0 41 -17t16 -41q0 -19 -12 -40q21 -9 60 -9
q47 0 83.5 35.5t36.5 93.5q0 59 -39 93t-106 34q-15 0 -45 -6l-29 33l219 184q-12 -2 -41 -2q-198 0 -322 128.5t-124 334.5q0 226 141.5 373t362.5 147q130 0 206 -52.5t76 -131.5q0 -53 -31.5 -88t-78.5 -35q-53 0 -85 37t-32 86q0 68 37 108q-54 15 -92 15
q-62 0 -119.5 -26t-106 -75.5t-77.5 -133t-29 -189.5z" />
    <glyph glyph-name="egrave" unicode="&#xe8;" horiz-adv-x="989" 
d="M590 1116l-33 -24q-19 19 -71.5 70.5t-77.5 77t-55.5 59.5t-43.5 55q-23 39 -17.5 73t36.5 56q30 20 64.5 8.5t58.5 -45.5q38 -58 139 -330zM909 512h-647q-6 -197 79.5 -305.5t262.5 -108.5q70 0 131.5 22t151.5 75l16 -43q-98 -94 -188 -139.5t-187 -45.5
q-197 0 -320.5 132t-123.5 345q0 216 128.5 361t319.5 145q92 0 165.5 -36t119 -98t69 -139.5t23.5 -164.5zM264 571l457 15q-12 303 -207 303q-102 0 -171.5 -89t-78.5 -229z" />
    <glyph glyph-name="eacute" unicode="&#xe9;" horiz-adv-x="989" 
d="M684 1483q31 -22 36 -56.5t-18 -72.5q-11 -17 -29.5 -39.5t-47 -52t-51 -52.5t-61.5 -61t-58 -57l-33 24q101 272 139 330q23 35 58.5 46t64.5 -9zM909 512h-647q-6 -197 79.5 -305.5t262.5 -108.5q70 0 131.5 22t151.5 75l16 -43q-98 -94 -188 -139.5t-187 -45.5
q-197 0 -320.5 132t-123.5 345q0 216 128.5 361t319.5 145q92 0 165.5 -36t119 -98t69 -139.5t23.5 -164.5zM264 571l457 15q-12 303 -207 303q-102 0 -171.5 -89t-78.5 -229z" />
    <glyph glyph-name="ecircumflex" unicode="&#xea;" horiz-adv-x="989" 
d="M524 1298l-223 -221l-37 33l238 358h59l221 -358l-37 -33zM909 512h-647q-6 -197 79.5 -305.5t262.5 -108.5q70 0 131.5 22t151.5 75l16 -43q-98 -94 -188 -139.5t-187 -45.5q-197 0 -320.5 132t-123.5 345q0 216 128.5 361t319.5 145q92 0 165.5 -36t119 -98t69 -139.5
t23.5 -164.5zM264 571l457 15q-12 303 -207 303q-102 0 -171.5 -89t-78.5 -229z" />
    <glyph glyph-name="edieresis" unicode="&#xeb;" horiz-adv-x="989" 
d="M715 1118q-47 0 -78 32t-31 79q0 48 35 84.5t86 36.5q47 0 78 -32t31 -79q0 -48 -35 -84.5t-86 -36.5zM334 1118q-47 0 -78 32t-31 79q0 48 35 84.5t86 36.5q47 0 78 -32t31 -79q0 -48 -35 -84.5t-86 -36.5zM909 512h-647q-6 -197 79.5 -305.5t262.5 -108.5
q70 0 131.5 22t151.5 75l16 -43q-98 -94 -188 -139.5t-187 -45.5q-197 0 -320.5 132t-123.5 345q0 216 128.5 361t319.5 145q92 0 165.5 -36t119 -98t69 -139.5t23.5 -164.5zM264 571l457 15q-12 303 -207 303q-102 0 -171.5 -89t-78.5 -229z" />
    <glyph glyph-name="igrave" unicode="&#xec;" horiz-adv-x="591" 
d="M358 1116l-32 -24q-19 19 -71.5 70.5t-77.5 77t-55.5 59.5t-43.5 55q-23 38 -18 72.5t36 56.5q30 20 64.5 8.5t58.5 -45.5q38 -58 139 -330zM227 80v698l-143 66v35l301 73l8 -6v-866l137 -37v-43h-448v43z" />
    <glyph glyph-name="iacute" unicode="&#xed;" horiz-adv-x="591" 
d="M475 1483q31 -22 36.5 -56t-17.5 -73q-13 -21 -43.5 -55t-55.5 -59.5t-77.5 -77t-71.5 -70.5l-33 24q101 272 139 330q23 35 58.5 46t64.5 -9zM227 80v698l-143 66v35l301 73l8 -6v-866l137 -37v-43h-448v43z" />
    <glyph glyph-name="icircumflex" unicode="&#xee;" horiz-adv-x="591" 
d="M297 1298l-223 -221l-37 33l237 358h60l221 -358l-37 -33zM227 80v698l-143 66v35l301 73l8 -6v-866l137 -37v-43h-448v43z" />
    <glyph glyph-name="idieresis" unicode="&#xef;" horiz-adv-x="591" 
d="M477 1118q-47 0 -77.5 31.5t-30.5 79.5q0 49 34.5 85t85.5 36q47 0 78 -32t31 -79q0 -48 -35 -84.5t-86 -36.5zM96 1118q-47 0 -77.5 31.5t-30.5 79.5t35 84.5t86 36.5q47 0 77.5 -31.5t30.5 -79.5t-35 -84.5t-86 -36.5zM227 80v698l-143 66v35l301 73l8 -6v-866l137 -37
v-43h-448v43z" />
    <glyph glyph-name="eth" unicode="&#xf0;" horiz-adv-x="1122" 
d="M1028 600q0 -280 -138 -456.5t-349 -176.5q-201 0 -329 134t-128 358q0 131 57.5 242.5t162.5 179t235 67.5q129 0 231 -65l18 8q-52 176 -178 321l-207 -90l-28 74l180 78q-110 110 -266 196l20 48q204 -67 363 -193l231 100l29 -71l-195 -86q136 -128 213.5 -298
t77.5 -370zM840 528q0 162 -39 295q-93 37 -203 37q-138 0 -231 -111.5t-93 -304.5q0 -186 91 -295.5t208 -109.5q127 0 197 126t70 363z" />
    <glyph glyph-name="ntilde" unicode="&#xf1;" horiz-adv-x="1159" 
d="M272 1110q22 126 61.5 183t108.5 57q56 0 159 -49.5t132 -49.5q25 0 42 24t50 99l52 -12q-22 -126 -61.5 -183t-108.5 -57q-43 0 -102 25t-111 49.5t-78 24.5q-25 0 -42 -24t-50 -99zM977 666v-586l145 -37v-43h-450v43l139 37v524q0 223 -188 223q-101 0 -240 -94v-653
l137 -37v-43h-448v43l145 37v698l-143 66v35l288 73l19 -16l-14 -154l18 -4q95 89 174 130.5t160 41.5q123 0 190.5 -73t67.5 -211z" />
    <glyph glyph-name="ograve" unicode="&#xf2;" horiz-adv-x="1079" 
d="M629 1116l-33 -24q-19 19 -71.5 70.5t-77.5 77t-55.5 59.5t-43.5 55q-23 39 -17.5 73t36.5 56q30 20 64 8.5t58 -45.5q41 -61 140 -330zM995 465q0 -133 -54.5 -245t-163.5 -182.5t-251 -70.5q-207 0 -324.5 137.5t-117.5 354.5q0 132 55.5 243t164.5 179.5t251 68.5
q210 0 325 -134t115 -351zM805 465q0 214 -75 319t-198 105q-114 0 -186 -109t-72 -327q0 -211 78 -317.5t195 -106.5q120 0 189 107.5t69 328.5z" />
    <glyph glyph-name="oacute" unicode="&#xf3;" horiz-adv-x="1079" 
d="M709 1483q31 -22 36 -56.5t-18 -72.5q-13 -21 -43.5 -55t-55.5 -59.5t-77.5 -77t-71.5 -70.5l-33 24q99 269 140 330q23 35 58.5 46t64.5 -9zM995 465q0 -133 -54.5 -245t-163.5 -182.5t-251 -70.5q-207 0 -324.5 137.5t-117.5 354.5q0 132 55.5 243t164.5 179.5
t251 68.5q210 0 325 -134t115 -351zM805 465q0 214 -75 319t-198 105q-114 0 -186 -109t-72 -327q0 -211 78 -317.5t195 -106.5q120 0 189 107.5t69 328.5z" />
    <glyph glyph-name="ocircumflex" unicode="&#xf4;" horiz-adv-x="1079" 
d="M537 1298l-224 -221l-37 33l238 358h59l222 -358l-37 -33zM995 465q0 -133 -54.5 -245t-163.5 -182.5t-251 -70.5q-207 0 -324.5 137.5t-117.5 354.5q0 132 55.5 243t164.5 179.5t251 68.5q210 0 325 -134t115 -351zM805 465q0 214 -75 319t-198 105q-114 0 -186 -109
t-72 -327q0 -211 78 -317.5t195 -106.5q120 0 189 107.5t69 328.5z" />
    <glyph glyph-name="otilde" unicode="&#xf5;" horiz-adv-x="1079" 
d="M229 1110q22 126 61.5 183t108.5 57q43 0 102 -25t111 -49.5t78 -24.5q25 0 42 24t50 99l52 -12q-22 -126 -61.5 -183t-108.5 -57q-56 0 -159 49.5t-132 49.5q-25 0 -42 -24t-50 -99zM995 465q0 -133 -54.5 -245t-163.5 -182.5t-251 -70.5q-207 0 -324.5 137.5
t-117.5 354.5q0 132 55.5 243t164.5 179.5t251 68.5q210 0 325 -134t115 -351zM805 465q0 214 -75 319t-198 105q-114 0 -186 -109t-72 -327q0 -211 78 -317.5t195 -106.5q120 0 189 107.5t69 328.5z" />
    <glyph glyph-name="odieresis" unicode="&#xf6;" horiz-adv-x="1079" 
d="M721 1118q-47 0 -78 32t-31 79q0 48 35 84.5t86 36.5q47 0 78 -32t31 -79q0 -48 -35 -84.5t-86 -36.5zM340 1118q-47 0 -78 32t-31 79q0 48 35 84.5t86 36.5q47 0 78 -32t31 -79q0 -48 -35 -84.5t-86 -36.5zM995 465q0 -133 -54.5 -245t-163.5 -182.5t-251 -70.5
q-207 0 -324.5 137.5t-117.5 354.5q0 132 55.5 243t164.5 179.5t251 68.5q210 0 325 -134t115 -351zM805 465q0 214 -75 319t-198 105q-114 0 -186 -109t-72 -327q0 -211 78 -317.5t195 -106.5q120 0 189 107.5t69 328.5z" />
    <glyph glyph-name="divide" unicode="&#xf7;" horiz-adv-x="1064" 
d="M530 1055q47 0 81 -34t34 -81t-34 -81t-81 -34t-80.5 34t-33.5 81t33.5 81t80.5 34zM965 580h-867v96h867v-96zM530 430q47 0 81 -34t34 -81t-34 -80.5t-81 -33.5t-80.5 33.5t-33.5 80.5t33.5 81t80.5 34z" />
    <glyph glyph-name="oslash" unicode="&#xf8;" horiz-adv-x="1079" 
d="M877 809q118 -134 118 -344q0 -133 -54.5 -245t-163.5 -182.5t-251 -70.5q-158 0 -274 96l-100 -118l-52 41l105 123q-121 140 -121 350q0 132 55.5 243t164.5 179.5t251 68.5q156 0 274 -94l99 117l51 -43zM745 756q-68 133 -213 133q-114 0 -186 -109t-72 -327
q0 -119 31 -224zM805 465q0 128 -29 223l-442 -524q37 -68 93 -101.5t120 -33.5q120 0 189 107.5t69 328.5z" />
    <glyph glyph-name="ugrave" unicode="&#xf9;" horiz-adv-x="1148" 
d="M625 1116l-33 -24q-19 19 -71.5 70.5t-77.5 77t-55.5 59.5t-43.5 55q-23 38 -18 72.5t36 56.5q30 20 64.5 8.5t58.5 -45.5q41 -61 140 -330zM944 111l146 -33v-37l-291 -72l-19 15l15 151l-19 4q-99 -92 -171.5 -132t-160.5 -40q-126 0 -193 82.5t-67 212.5v531l-143 61
v25l291 73l18 -16v-612q0 -118 46 -175t141 -57q104 0 241 92v609l-145 61v25l293 73l18 -16v-825z" />
    <glyph glyph-name="uacute" unicode="&#xfa;" horiz-adv-x="1148" 
d="M737 1483q31 -22 36.5 -56t-17.5 -73q-13 -21 -43.5 -55t-55.5 -59.5t-77.5 -77t-71.5 -70.5l-33 24q101 272 139 330q23 35 58.5 46t64.5 -9zM944 111l146 -33v-37l-291 -72l-19 15l15 151l-19 4q-99 -92 -171.5 -132t-160.5 -40q-126 0 -193 82.5t-67 212.5v531
l-143 61v25l291 73l18 -16v-612q0 -118 46 -175t141 -57q104 0 241 92v609l-145 61v25l293 73l18 -16v-825z" />
    <glyph glyph-name="ucircumflex" unicode="&#xfb;" horiz-adv-x="1148" 
d="M555 1298l-223 -221l-37 33l237 358h60l221 -358l-37 -33zM944 111l146 -33v-37l-291 -72l-19 15l15 151l-19 4q-99 -92 -171.5 -132t-160.5 -40q-126 0 -193 82.5t-67 212.5v531l-143 61v25l291 73l18 -16v-612q0 -118 46 -175t141 -57q104 0 241 92v609l-145 61v25
l293 73l18 -16v-825z" />
    <glyph glyph-name="udieresis" unicode="&#xfc;" horiz-adv-x="1148" 
d="M731 1118q-47 0 -77.5 31.5t-30.5 79.5q0 49 34.5 85t85.5 36q47 0 78 -32t31 -79q0 -48 -35 -84.5t-86 -36.5zM350 1118q-47 0 -77.5 31.5t-30.5 79.5q0 49 34.5 85t85.5 36q47 0 78 -32t31 -79q0 -48 -35 -84.5t-86 -36.5zM944 111l146 -33v-37l-291 -72l-19 15l15 151
l-19 4q-99 -92 -171.5 -132t-160.5 -40q-126 0 -193 82.5t-67 212.5v531l-143 61v25l291 73l18 -16v-612q0 -118 46 -175t141 -57q104 0 241 92v609l-145 61v25l293 73l18 -16v-825z" />
    <glyph glyph-name="yacute" unicode="&#xfd;" horiz-adv-x="1007" 
d="M760 1483q31 -22 36 -56.5t-18 -72.5q-13 -21 -43.5 -55t-55.5 -59.5t-77.5 -77t-71.5 -70.5l-32 24q101 272 139 330q23 35 58.5 46t64.5 -9zM877 811l-396 -971q-60 -148 -124 -209t-152 -61q-67 0 -102 34.5t-35 80.5q0 41 30.5 69.5t73.5 28.5q44 0 74 -22.5
t67 -71.5q59 56 107 161l59 136l-354 845l-125 43v44h440v-44l-123 -43l242 -634h10l217 618l-149 59v44h379v-44z" />
    <glyph glyph-name="thorn" unicode="&#xfe;" horiz-adv-x="1095" 
d="M1006 483q0 -133 -65.5 -251t-183.5 -191.5t-259 -73.5q-78 0 -172 23v-328l176 -49v-43h-488v43l146 49v1671l-160 68v37l307 80l19 -15v-684l18 -4q78 71 141.5 103t149.5 32q69 0 135 -31t119 -88t85 -147.5t32 -200.5zM834 422q0 193 -83.5 297t-234.5 104
q-94 0 -190 -59v-629q112 -98 241 -98q115 0 191 98.5t76 286.5z" />
    <glyph glyph-name="ydieresis" unicode="&#xff;" horiz-adv-x="1007" 
d="M731 1118q-47 0 -77.5 31.5t-30.5 79.5q0 49 34.5 85t85.5 36q47 0 78 -32t31 -79q0 -48 -35 -84.5t-86 -36.5zM350 1118q-47 0 -77.5 31.5t-30.5 79.5q0 49 34.5 85t85.5 36q47 0 78 -32t31 -79q0 -48 -35 -84.5t-86 -36.5zM877 811l-396 -971q-60 -148 -124 -209
t-152 -61q-67 0 -102 34.5t-35 80.5q0 41 30.5 69.5t73.5 28.5q44 0 74 -22.5t67 -71.5q59 56 107 161l59 136l-354 845l-125 43v44h440v-44l-123 -43l242 -634h10l217 618l-149 59v44h379v-44z" />
    <glyph glyph-name="Delta" 
d="M51 -410v2048h922v-2048h-922z" />
    <glyph glyph-name="NUL" horiz-adv-x="0" 
 />
    <glyph glyph-name="Omega" horiz-adv-x="1261" 
d="M1004 905h253v-88h-253v-737l176 -37v-43h-488v43l146 37v737h-424v-737l166 -37v-43h-478v43l146 37v737h-185v41l185 53v27q0 176 52.5 289.5t166.5 187.5q109 70 256 70q86 0 145.5 -31.5t81.5 -77.5q29 29 43 41q114 99 256 99q76 0 120 -33.5t44 -81.5
q0 -45 -27.5 -73t-72.5 -28q-48 0 -86.5 31.5t-83.5 110.5q-72 -44 -105.5 -124t-33.5 -226v-187zM414 905h424v105q0 141 32 229q-118 0 -155 182q-140 0 -220.5 -108.5t-80.5 -304.5v-103z" />
    <glyph glyph-name="apple" horiz-adv-x="1421" 
d="M1319 -410h-426l-16 29h-334l-17 -29h-424v621q28 0 47 18.5t19 46.5q0 27 -19.5 46.5t-46.5 19.5v1135h205l62 161h684l59 -161h207v-1887zM819 1153v-352h31v160h78v28h-78v135h88v29h-119zM377 1153v-352h31v162h96v-162h31v352h-31v-162h-96v162h-31zM942 807
q16 -8 43 -8q64 0 64 73v281h-33v-281q0 -45 -33 -45q-19 0 -41 13v-33zM715 897l-33 64q47 44 47 86q0 25 -14.5 44t-40.5 19q-25 0 -41.5 -19t-16.5 -44q0 -9 1 -16.5t4.5 -16.5t6 -13.5t9 -16.5t8.5 -17q-47 -38 -47 -93q0 -34 18 -56.5t46 -22.5q35 0 55 49h2l24 -49
l23 16l-33 61q22 54 27 80l-27 6q-5 -21 -18 -61zM1071 662v-95h16v27l15 14l33 -41h18l-39 54l37 41h-21l-43 -50v50h-16zM999 598l21 -31h18l-24 35q20 7 20 31q0 10 -9.5 19.5t-23.5 9.5h-43v-95h17v31h24zM872 565q23 0 36.5 14t13.5 35q0 19 -14.5 34.5t-35.5 15.5
t-34 -15t-13 -35q0 -21 13 -35t34 -14zM758 616l-27 46h-18l37 -60v-35h16v35l37 60h-19zM395 662v-95h68v15h-51v26h45v15h-45v24h51v15h-68zM270 662v-95h17v66l51 -66h14v95h-16v-66l-51 66h-15zM494 662l30 -97h17l20 70h2l23 -70h16l29 97h-17l-20 -72h-2l-21 72h-16
l-23 -72h-2l-20 72h-16zM670 981q-25 48 -25 66q0 15 8.5 26.5t20.5 11.5t19 -11t7 -27q0 -31 -30 -66zM700 866q-5 -16 -15.5 -29.5t-20.5 -13.5q-15 0 -25 16.5t-10 39.5q0 37 30 67zM999 612h-24v35h22q21 0 21 -16q0 -7 -6 -13t-13 -6zM872 580q-13 0 -21.5 10t-8.5 24
q0 13 8.5 24t21.5 11t23 -11t10 -24q0 -14 -10 -24t-23 -10z" />
    <glyph glyph-name="approxequal" horiz-adv-x="1792" 
d="M1004 905h389l192 47l8 -6v-866l138 -37v-43h-449v43l145 37v737h-423v-737l165 -37v-43h-477v43l146 37v737h-424v-737l166 -37v-43h-478v43l146 37v737h-185v41l185 53v27q0 176 52.5 289.5t166.5 187.5q109 70 256 70q94 0 156 -37t79 -86q40 46 99 84q109 70 256 70
q108 0 173.5 -48t65.5 -102q0 -45 -24 -70.5t-66 -25.5q-121 0 -157 182q-139 0 -220 -109t-81 -305v-133zM414 905h424v64q0 163 45 270q-64 -2 -105.5 39t-62.5 143q-140 0 -220.5 -108.5t-80.5 -304.5v-103z" />
    <glyph glyph-name="greaterequal" 
d="M51 -410v2048h922v-2048h-922z" />
    <glyph glyph-name="infinity" 
d="M51 -410v2048h922v-2048h-922z" />
    <glyph glyph-name="integral" 
d="M51 -410v2048h922v-2048h-922z" />
    <glyph glyph-name="lessequal" 
d="M51 -410v2048h922v-2048h-922z" />
    <glyph glyph-name="lozenge" horiz-adv-x="1597" 
d="M561 885q0 -81 -64 -133t-153 -52q-94 0 -170 39l-33 -47h-26l-9 228l25 4q60 -100 109.5 -139.5t107.5 -39.5q53 0 86 24.5t33 70.5q0 48 -37 72.5t-117 48.5q-45 13 -73 24.5t-58 32t-44.5 51t-14.5 72.5q0 72 59.5 125t134.5 53q79 0 144 -35l33 47h26l12 -209l-24 -4
q-64 89 -110 122.5t-85 33.5q-41 0 -68.5 -24.5t-27.5 -61.5q0 -20 8.5 -36.5t20 -27.5t35.5 -22t41.5 -17t50.5 -16q46 -14 74 -26t57 -32.5t43 -51.5t14 -74zM1425 1249v-477l91 -29v-26h-281v26l74 29v461h-19l-198 -516h-54l-204 516h-23v-455l70 -35v-26h-209v26l78 35
v467l-78 31v29h254l35 -103l129 -330h12l125 336l30 97h259v-29z" />
    <glyph glyph-name="nbspace" horiz-adv-x="225" 
 />
    <glyph glyph-name="notequal" 
d="M51 -410v2048h922v-2048h-922z" />
    <glyph glyph-name="partialdiff" 
d="M51 -410v2048h922v-2048h-922z" />
    <glyph glyph-name="pi" horiz-adv-x="1613" 
d="M1524 653q0 -196 -96.5 -361.5t-262 -261.5t-360.5 -96q-146 0 -278.5 56.5t-228.5 152.5t-153 229.5t-57 280.5q0 145 57 277.5t153 228.5t228.5 152.5t278.5 56.5t279.5 -56.5t229.5 -152.5t153 -228t57 -278zM1464 653q0 178 -88 330t-240 241t-331 89
q-177 0 -328.5 -89t-240.5 -241t-89 -330q0 -180 89 -333t240.5 -241.5t328.5 -88.5q134 0 256.5 52.5t210.5 141t140 211.5t52 258zM1137 807q0 -88 -68.5 -154.5t-185.5 -66.5q-65 0 -127 10v-250l110 -24v-41h-352v41l109 24v610l-109 25v37h346q133 0 205 -61t72 -150z
M991 807q0 76 -40.5 118t-112.5 44q-72 0 -82 -2v-330q8 -4 86 -4q72 3 110.5 47t38.5 127z" />
    <glyph glyph-name="product" 
d="M51 -410v2048h922v-2048h-922z" />
    <glyph glyph-name="radical" horiz-adv-x="1792" 
d="M1593 80l138 -37v-43h-449v43l145 37v737h-423v-737l165 -37v-43h-477v43l146 37v737h-424v-737l166 -37v-43h-478v43l146 37v737h-185v41l185 53v27q0 176 52.5 289.5t166.5 187.5q109 70 256 70q94 0 156 -37t79 -86q40 46 99 84q109 70 256 70q104 0 172 -48l90 50
l18 -15v-1423zM1004 905h423v369q-90 23 -122 178q-139 0 -220 -109t-81 -305v-133zM414 905h424v64q0 163 45 270q-63 -2 -105 39t-63 143q-140 0 -220.5 -108.5t-80.5 -304.5v-103z" />
    <glyph glyph-name="summation" 
d="M51 -410v2048h922v-2048h-922z" />
    </font>
</defs>
</svg>
