<?xml version="1.0" standalone="no"?>
<!DOCTYPE svg PUBLIC "-//W3C//DTD SVG 1.1//EN" "http://www.w3.org/Graphics/SVG/1.1/DTD/svg11.dtd" >
<svg xmlns="http://www.w3.org/2000/svg" xmlns:xlink="http://www.w3.org/1999/xlink" version="1.1">
<metadata>
Created by FontForge 20170731 at Fri Oct  8 16:18:06 2021
 By Aleksey,,,
Copyright (C) 2019 Hoefler &#38; Co. http://www.typography.com
</metadata>
<defs>
<font id="Decimal-Bold" horiz-adv-x="888" >
  <font-face 
    font-family="Decimal Bold"
    font-weight="400"
    font-stretch="normal"
    units-per-em="2048"
    panose-1="2 11 8 4 3 4 4 2 2 4"
    ascent="1638"
    descent="-410"
    x-height="1120"
    cap-height="1434"
    bbox="-434 -637 4037 2677"
    underline-thickness="0"
    underline-position="0"
    unicode-range="U+000D-1F6E1"
  />
<missing-glyph horiz-adv-x="921" 
d="M0 -369v1844h922v-1844h-922zM461 664l330 718h-660zM92 -139l318 692l-318 692v-1384zM829 -139v1384l-317 -692zM131 -276h660l-330 718z" />
    <glyph glyph-name=".notdef" horiz-adv-x="921" 
d="M0 -369v1844h922v-1844h-922zM461 664l330 718h-660zM92 -139l318 692l-318 692v-1384zM829 -139v1384l-317 -692zM131 -276h660l-330 718z" />
    <glyph glyph-name=".null" horiz-adv-x="0" 
 />
    <glyph glyph-name="uni000D" unicode="&#xd;" horiz-adv-x="509" 
 />
    <glyph glyph-name="space" unicode=" " horiz-adv-x="509" 
 />
    <glyph glyph-name="exclam" unicode="!" horiz-adv-x="860" 
d="M295 563l-98 848v23h467v-23l-99 -848h-270zM430 -23q-111 0 -174 62.5t-63 157.5v4q0 95 62.5 157t174.5 62q111 0 175.5 -62.5t64.5 -156.5v-2q0 -95 -64.5 -158.5t-175.5 -63.5z" />
    <glyph glyph-name="quotedbl" unicode="&#x22;" horiz-adv-x="1294" 
d="M195 778v656h409v-60l-219 -596h-190zM764 778v656h410v-60l-220 -596h-190z" />
    <glyph glyph-name="numbersign" unicode="#" horiz-adv-x="1949" 
d="M287 0l67 272h-223v267h289l86 356h-248v266h313l68 273h317l-67 -273h387l67 273h318l-68 -273h226v-266h-291l-86 -356h250v-267h-316l-67 -272h-318l68 272h-387l-68 -272h-317zM737 539h387l86 356h-387z" />
    <glyph glyph-name="dollar" unicode="$" horiz-adv-x="1466" 
d="M569 -246v275q-180 26 -385 116v328h2q151 -79 313 -122.5t283 -43.5q103 0 159 31t56 90t-59 87t-268 73q-60 12 -104.5 23t-98.5 28.5t-92 37.5t-77 50t-62.5 65.5t-38.5 84t-15 106.5q0 149 104 263.5t302 154.5v248h332v-240q177 -25 346 -104v-330h-2
q-113 70 -254.5 110.5t-253.5 40.5q-215 0 -215 -118q0 -38 24.5 -59.5t87.5 -41t211 -51.5q60 -12 105.5 -23t99 -29.5t92.5 -39.5t77 -51.5t62 -67.5t39 -87t15 -109q0 -54 -13 -105.5t-45.5 -105.5t-82.5 -97t-130 -76t-182 -45v-235z" />
    <glyph glyph-name="percent" unicode="%" horiz-adv-x="2215" 
d="M516 670q-202 0 -316 102.5t-114 286.5q0 187 115.5 293t316.5 106q200 0 315 -105t115 -292q0 -181 -116 -286t-316 -105zM305 2l635 715l627 717h344v-2l-637 -715l-625 -717h-344v2zM518 897q73 0 114.5 42t41.5 122t-42 122t-116 42q-73 0 -114.5 -41.5t-41.5 -122.5
q0 -78 42.5 -121t115.5 -43zM1700 764q202 0 316 -102.5t114 -286.5q0 -186 -115.5 -293t-316.5 -107t-315.5 105.5t-114.5 292.5q0 181 116 286t316 105zM1698 537q-72 0 -114 -42t-42 -122q0 -78 42.5 -121t115.5 -43t114 41.5t41 122.5q0 80 -41.5 122t-115.5 42z" />
    <glyph glyph-name="ampersand" unicode="&#x26;" horiz-adv-x="1738" 
d="M571 -37q-217 0 -345 102.5t-128 284.5q0 80 30 151t90 134t138 118.5t187 114.5l-224 246v320h1049l14 -291h-645l467 -529l395 347l3 -3v-383l-211 -180l350 -395h-420l-170 188q-150 -112 -286 -168.5t-294 -56.5zM459 389q0 -56 41 -91.5t114 -35.5q146 0 344 146
l-225 247q-153 -87 -213.5 -144.5t-60.5 -121.5z" />
    <glyph glyph-name="quotesingle" unicode="'" horiz-adv-x="727" 
d="M195 778v656h411v-60l-219 -596h-192z" />
    <glyph glyph-name="parenleft" unicode="(" horiz-adv-x="954" 
d="M500 578q0 -520 440 -992h-389q-212 221 -315 480.5t-103 511.5q0 251 103.5 510.5t314.5 482.5h389q-440 -472 -440 -993z" />
    <glyph glyph-name="parenright" unicode=")" horiz-adv-x="954" 
d="M455 580q0 518 -441 991h389q212 -221 315 -480t103 -511q0 -251 -103.5 -511t-314.5 -483h-389q441 473 441 994z" />
    <glyph glyph-name="asterisk" unicode="*" horiz-adv-x="1126" 
d="M793 668l-185 86l-123 -158l-63 14l-47 197h-201l-29 57l127 160l-127 158l29 59h201l45 199l63 14l127 -158l185 88l51 -38l-45 -199l182 -88v-66l-184 -90l45 -194z" />
    <glyph glyph-name="plus" unicode="+" horiz-adv-x="1517" 
d="M180 563v307h416v422h326v-422h415v-307h-415v-420h-326v420h-416z" />
    <glyph glyph-name="comma" unicode="," horiz-adv-x="796" 
d="M133 -307l90 692h441v-61l-332 -631h-199z" />
    <glyph glyph-name="hyphen" unicode="-" horiz-adv-x="913" 
d="M109 500v327h694v-327h-694z" />
    <glyph glyph-name="period" unicode="." horiz-adv-x="849" 
d="M424 -23q-112 0 -175 62.5t-63 157.5v4q0 95 63 157t175 62t176 -62.5t64 -156.5v-2q0 -96 -64 -159t-176 -63z" />
    <glyph glyph-name="slash" unicode="/" horiz-adv-x="1171" 
d="M90 -414l668 1985h336l-670 -1985h-334z" />
    <glyph glyph-name="zero" unicode="0" horiz-adv-x="1591" 
d="M795 -37q-175 0 -310 56.5t-220 158t-128 237.5t-43 300q0 163 44 299.5t129 239t220.5 159.5t309.5 57q169 0 303 -56.5t220.5 -157.5t131.5 -237.5t45 -299.5q0 -162 -45.5 -299.5t-132 -239.5t-221 -159.5t-303.5 -57.5zM797 279q165 0 249 113t84 323q0 212 -85 326
t-250 114q-167 0 -251.5 -113t-84.5 -323q0 -211 86 -325.5t252 -114.5z" />
    <glyph glyph-name="one" unicode="1" horiz-adv-x="966" 
d="M358 0v1135h-268l45 299h586v-1434h-363z" />
    <glyph glyph-name="two" unicode="2" horiz-adv-x="1386" 
d="M102 0v307l404 297q239 175 299 229q87 77 99 141q3 15 3 32q0 69 -49 109t-149 40q-261 0 -543 -223h-2v350q259 188 571 188q258 0 401.5 -117t143.5 -311q0 -51 -10 -95.5t-25.5 -82.5t-49 -79.5t-65 -74t-91.5 -79.5t-110 -84t-136 -98l-193 -138h686v-311h-1184z
" />
    <glyph glyph-name="three" unicode="3" horiz-adv-x="1413" 
d="M674 -37q-290 0 -559 103v331h2q129 -58 278 -92.5t252 -34.5q135 0 215 42t80 126q0 92 -114 130t-377 38h-56v178l410 340h-674l14 310h1115v-281l-408 -322q465 -64 465 -393q0 -148 -85 -257t-229.5 -163.5t-328.5 -54.5z" />
    <glyph glyph-name="four" unicode="4" horiz-adv-x="1570" 
d="M903 0v303h-825v266l504 865h665v-834h254l-14 -297h-240v-303h-344zM907 1133h-133l-307 -535h440v535z" />
    <glyph glyph-name="five" unicode="5" horiz-adv-x="1411" 
d="M694 -37q-294 0 -557 88v330h2q143 -53 286 -81t255 -28q76 0 132.5 16.5t85 44t41.5 55.5t13 58q0 55 -34 89q-39 39 -142.5 55t-351.5 16h-250l21 828h1028l14 -308h-721l-8 -231h49q273 0 426.5 -35t245.5 -129q100 -106 100 -280q0 -212 -172.5 -350t-462.5 -138z
" />
    <glyph glyph-name="six" unicode="6" horiz-adv-x="1458" 
d="M758 -37q-151 0 -272.5 45.5t-209 134t-135 226.5t-47.5 317q0 188 56.5 338t157 247t237.5 148t301 51q230 0 444 -90v-317h-2q-141 58 -228 82t-196 24q-176 0 -286.5 -84t-128.5 -264q174 122 409 119q114 -1 208 -28t165.5 -80t111 -139t39.5 -197
q0 -161 -82.5 -283.5t-223.5 -186t-318 -63.5zM766 666q-160 0 -317 -99q4 -84 31.5 -146t73 -96.5t99 -50.5t117.5 -16q112 0 188 58t76 163q0 54 -22.5 92t-63 58t-85 28.5t-97.5 8.5z" />
    <glyph glyph-name="seven" unicode="7" horiz-adv-x="1413" 
d="M94 895v539h1239v-418l-628 -1016h-402l662 1067v66h-539v-238h-332z" />
    <glyph glyph-name="eight" unicode="8" horiz-adv-x="1529" 
d="M766 -49q-326 0 -493 111t-167 309q0 130 69.5 215.5t211.5 138.5q-248 94 -248 322q0 193 159.5 311.5t467.5 118.5q306 0 465.5 -119t159.5 -311q0 -228 -246 -322q141 -53 209.5 -138.5t68.5 -215.5q0 -199 -164 -309.5t-493 -110.5zM766 840q125 0 196.5 44.5
t71.5 133.5q0 84 -70 131t-198 47q-131 0 -200.5 -46t-69.5 -132q0 -89 72.5 -133.5t197.5 -44.5zM766 233q142 0 217.5 48.5t75.5 136.5q0 89 -78.5 136.5t-214.5 47.5q-140 0 -216.5 -46t-76.5 -136t74.5 -138.5t218.5 -48.5z" />
    <glyph glyph-name="nine" unicode="9" horiz-adv-x="1458" 
d="M700 1470q151 0 272.5 -45t209 -133.5t135 -226.5t47.5 -317q0 -188 -56.5 -338t-157 -247t-237.5 -148.5t-301 -51.5q-230 0 -444 90v318h2q142 -59 228.5 -83t195.5 -24q177 0 287.5 84t128.5 264q-173 -121 -410 -118q-114 1 -208 28t-165.5 80t-111 139t-39.5 197
q0 161 82.5 283t223.5 185.5t318 63.5zM424 954q0 -186 268 -186q163 0 318 98q-4 84 -32 146t-73.5 97t-99 51t-117.5 16q-112 0 -188 -58.5t-76 -163.5z" />
    <glyph glyph-name="colon" unicode=":" horiz-adv-x="860" 
d="M430 694q-112 0 -176 63t-64 158v3q0 95 64 157t176 62q111 0 174.5 -61.5t63.5 -155.5v-5q0 -94 -64 -157.5t-174 -63.5zM430 -23q-112 0 -176 63t-64 157v4q0 94 64 156.5t176 62.5q110 0 174 -62.5t64 -156.5v-2q0 -96 -63.5 -159t-174.5 -63z" />
    <glyph glyph-name="semicolon" unicode=";" horiz-adv-x="860" 
d="M430 694q-112 0 -176 63t-64 158v3q0 95 64 157t176 62q111 0 174.5 -61.5t63.5 -155.5v-5q0 -94 -64 -157.5t-174 -63.5zM131 -307l92 692h441v-61l-332 -631h-201z" />
    <glyph glyph-name="less" unicode="&#x3c;" horiz-adv-x="1357" 
d="M1145 100l-971 445v344l971 442v-348l-594 -266l594 -268v-349z" />
    <glyph glyph-name="equal" unicode="=" horiz-adv-x="1550" 
d="M209 842v301h1132v-301h-1132zM209 291v301h1132v-301h-1132z" />
    <glyph glyph-name="greater" unicode="&#x3e;" horiz-adv-x="1357" 
d="M213 1331l971 -444v-344l-971 -443v349l594 266l-594 268v348z" />
    <glyph glyph-name="question" unicode="?" horiz-adv-x="1257" 
d="M119 1339q136 65 269 99.5t288 34.5q112 0 209 -23t175.5 -69t123.5 -123t45 -177q0 -215 -198 -339.5t-621 -200.5h-2v290q138 31 229 61t137 58.5t63 53.5t17 55q0 115 -215 115q-125 0 -260 -44.5t-258 -121.5h-2v331zM563 -23q-113 0 -176 62.5t-63 157.5v4
q0 95 63 157t176 62q110 0 174 -62.5t64 -156.5v-2q0 -96 -63.5 -159t-174.5 -63z" />
    <glyph glyph-name="at" unicode="@" horiz-adv-x="2258" 
d="M1663 242q-221 0 -317 147q-142 -145 -322 -145q-138 0 -212.5 66t-74.5 173q0 102 66 168q50 50 168.5 91t320.5 53v8q0 117 -141 117q-165 0 -336 -111v248q180 98 379 98q375 0 375 -352v-207q0 -70 26.5 -102.5t85.5 -32.5q75 0 114.5 75.5t39.5 245.5
q0 128 -36.5 231t-112 182.5t-202.5 123t-298 43.5q-353 0 -545 -183.5t-192 -529.5q0 -322 180 -482.5t547 -160.5q171 0 307 32t274 93l-2 -262q-111 -48 -267.5 -80.5t-322.5 -32.5q-496 0 -746.5 232.5t-250.5 658.5q0 221 73 402.5t205.5 305t321 190.5t416.5 67
q226 0 401.5 -59.5t288 -168t170 -258.5t57.5 -335q0 -119 -24.5 -216t-75 -173t-137 -118t-201.5 -42zM1110 440q54 0 104.5 22.5t77.5 49.5v129q-208 -19 -262 -76q-20 -20 -20 -51q0 -34 25.5 -54t74.5 -20z" />
    <glyph glyph-name="A" unicode="A" horiz-adv-x="1746" 
d="M49 0l529 1434h591l527 -1434h-391l-115 317h-639l-115 -317h-387zM834 1102l-175 -484h424l-174 484h-75z" />
    <glyph glyph-name="B" unicode="B" horiz-adv-x="1652" 
d="M190 0v1434h861q226 0 350.5 -92.5t124.5 -268.5q0 -126 -56.5 -208t-185.5 -120q141 -57 206.5 -137t65.5 -205q0 -403 -540 -403h-826zM559 858h414q97 0 138.5 32.5t41.5 108.5q0 70 -43.5 102t-136.5 32h-414v-275zM559 301l432 2q102 1 146.5 37t44.5 113
q0 76 -44 111.5t-147 35.5h-432v-299z" />
    <glyph glyph-name="C" unicode="C" horiz-adv-x="1597" 
d="M905 -35q-198 0 -352 58t-249.5 160.5t-144 236t-48.5 291.5t54.5 295t156 240t258.5 162.5t350 59.5q165 0 301.5 -45.5t234.5 -115.5v-363h-2q-147 97 -262.5 146t-259.5 49q-209 0 -329.5 -117.5t-120.5 -308.5q0 -188 118 -303t330 -115q151 0 275 48t249 142h2v-366
q-91 -63 -237.5 -108.5t-323.5 -45.5z" />
    <glyph glyph-name="D" unicode="D" horiz-adv-x="1759" 
d="M190 0v1434h740q338 0 529.5 -188.5t191.5 -526.5q0 -339 -191.5 -529t-529.5 -190h-740zM565 322h340q365 0 365 393q0 201 -94.5 299t-270.5 98h-340v-790z" />
    <glyph glyph-name="E" unicode="E" horiz-adv-x="1568" 
d="M190 0v1434h1225l15 -318h-867v-229h688v-301h-688v-269h893l-12 -317h-1254z" />
    <glyph glyph-name="F" unicode="F" horiz-adv-x="1507" 
d="M190 0v1434h1211l12 -320h-848v-291h711v-309h-711v-514h-375z" />
    <glyph glyph-name="G" unicode="G" horiz-adv-x="1765" 
d="M909 -37q-189 0 -341.5 55.5t-252 154.5t-153 233t-53.5 292t57 297t162.5 245.5t268 168t361.5 61.5q157 0 301 -40.5t244 -108.5v-352h-2q-141 86 -264.5 131t-269.5 45q-226 0 -350.5 -120.5t-124.5 -326.5q0 -189 115.5 -304t330.5 -115q163 0 269.5 73.5
t113.5 204.5h-467v285h823q6 -123 6 -148q0 -153 -41.5 -277t-113 -207.5t-171 -140t-211 -81.5t-237.5 -25z" />
    <glyph glyph-name="H" unicode="H" horiz-adv-x="1808" 
d="M190 0v1434h375v-533h676v533h377v-1434h-377v571h-676v-571h-375z" />
    <glyph glyph-name="I" unicode="I" horiz-adv-x="763" 
d="M195 0v1434h374v-1434h-374z" />
    <glyph glyph-name="J" unicode="J" horiz-adv-x="1456" 
d="M657 -35q-291 0 -520 141v359h2q232 -170 486 -170q278 0 278 244v577h-526l14 318h887v-949q0 -263 -160.5 -391.5t-460.5 -128.5z" />
    <glyph glyph-name="K" unicode="K" horiz-adv-x="1705" 
d="M190 0v1434h375v-543h207l447 543h428v-2l-570 -687l600 -743v-2h-446l-467 571h-199v-571h-375z" />
    <glyph glyph-name="L" unicode="L" horiz-adv-x="1429" 
d="M190 0v1434h375v-1102h789l-15 -332h-1149z" />
    <glyph glyph-name="M" unicode="M" horiz-adv-x="2093" 
d="M190 0v1434h437l424 -740l413 740h439v-1434h-369v889h-6l-473 -807h-25l-467 807h-8v-889h-365z" />
    <glyph glyph-name="N" unicode="N" horiz-adv-x="1816" 
d="M190 0v1434h400l667 -881h9v881h360v-1434h-383l-684 907h-8v-907h-361z" />
    <glyph glyph-name="O" unicode="O" horiz-adv-x="1828" 
d="M913 -39q-368 0 -585 205t-217 551t217 551t585 205q370 0 587.5 -205t217.5 -551t-217.5 -551t-587.5 -205zM913 289q202 0 315 113.5t113 314.5q0 202 -111.5 315t-314.5 113q-202 0 -315 -113.5t-113 -314.5q0 -202 111.5 -315t314.5 -113z" />
    <glyph glyph-name="P" unicode="P" horiz-adv-x="1605" 
d="M190 0v1434h803q257 0 394 -139.5t137 -387.5q0 -135 -41.5 -239t-117 -169t-177 -97.5t-225.5 -32.5h-398v-369h-375zM565 682h377q104 0 156.5 59t52.5 158q0 217 -215 217h-371v-434z" />
    <glyph glyph-name="Q" unicode="Q" horiz-adv-x="1853" 
d="M913 1473q370 0 587.5 -205t217.5 -551q0 -198 -88 -359l131 -90v-354h-2l-315 211q-215 -164 -531 -164q-368 0 -585 205t-217 551t217 551t585 205zM922 1145q-206 0 -320.5 -115t-114.5 -317q0 -203 115 -321t320 -118q136 0 235 52l-358 221l166 237l366 -237
q23 80 23 166q0 202 -114 317t-318 115z" />
    <glyph glyph-name="R" unicode="R" horiz-adv-x="1665" 
d="M190 0v1434h801q279 0 418 -128t139 -376q0 -353 -293 -459l353 -471h-432l-285 399h-326v-399h-375zM565 707h393q213 0 213 206q0 203 -213 203h-393v-409z" />
    <glyph glyph-name="S" unicode="S" horiz-adv-x="1531" 
d="M799 -35q-338 0 -652 137v361h3q166 -87 337.5 -133.5t323.5 -46.5q128 0 194 33.5t66 95.5q0 22 -6 37.5t-23.5 30t-42.5 25t-71 22t-101 22t-139 24.5q-96 15 -170 34.5t-147.5 52.5t-121 77t-77 110t-29.5 150q0 97 42 181t122.5 149.5t211 103t296.5 37.5
q139 0 281.5 -31.5t263.5 -90.5v-359h-2q-127 75 -281 119.5t-291 44.5q-258 0 -258 -127q0 -32 19 -54.5t60.5 -37t92 -25t128.5 -24.5q50 -8 77 -13q69 -12 123 -24.5t113.5 -31.5t103 -42t85 -56t67.5 -73.5t41.5 -94.5t15.5 -118q0 -66 -17.5 -127.5t-64.5 -124.5
t-118 -109t-188.5 -75t-266.5 -29z" />
    <glyph glyph-name="T" unicode="T" horiz-adv-x="1542" 
d="M584 0v1102h-510l14 332h1368l12 -332h-510v-1102h-374z" />
    <glyph glyph-name="U" unicode="U" horiz-adv-x="1773" 
d="M885 -39q-159 0 -284.5 32.5t-222 101.5t-148.5 186t-52 276v877h377v-852q0 -78 26.5 -134.5t74 -88t104.5 -46t127 -14.5t127 13.5t105 44t75 85.5t27 131v861h374v-869q0 -130 -35 -233t-97 -172t-152 -114t-195 -65t-231 -20z" />
    <glyph glyph-name="V" unicode="V" horiz-adv-x="1697" 
d="M547 0l-498 1434h406l366 -1086h60l366 1086h402l-498 -1434h-604z" />
    <glyph glyph-name="W" unicode="W" horiz-adv-x="2519" 
d="M463 0l-387 1434h397l262 -1055h23l332 1055h366l326 -1055h24l254 1055h383l-385 -1434h-502l-286 922h-13l-288 -922h-506z" />
    <glyph glyph-name="X" unicode="X" horiz-adv-x="1726" 
d="M473 0h-442v2l592 737l-553 693v2h450l348 -451l351 451h440v-2l-551 -689l590 -741v-2h-453l-385 498z" />
    <glyph glyph-name="Y" unicode="Y" horiz-adv-x="1669" 
d="M647 0v475l-637 959h430l385 -600h23l393 600h416l-635 -953v-481h-375z" />
    <glyph glyph-name="Z" unicode="Z" horiz-adv-x="1593" 
d="M137 0v336l826 776h-803l12 322h1290v-306l-856 -806h858v-322h-1327z" />
    <glyph glyph-name="bracketleft" unicode="[" horiz-adv-x="948" 
d="M150 -414v1985h714v-277h-379v-1431h379v-277h-714z" />
    <glyph glyph-name="backslash" unicode="\" horiz-adv-x="1173" 
d="M1083 -414h-335l-670 1985h338z" />
    <glyph glyph-name="bracketright" unicode="]" horiz-adv-x="948" 
d="M799 1571v-1985h-715v277h379v1431h-379v277h715z" />
    <glyph glyph-name="asciicircum" unicode="^" horiz-adv-x="1513" 
d="M129 705l383 729h481l391 -729h-372l-217 413h-88l-211 -413h-367z" />
    <glyph glyph-name="underscore" unicode="_" horiz-adv-x="1458" 
d="M-12 -406v263h1482v-263h-1482z" />
    <glyph glyph-name="grave" unicode="`" horiz-adv-x="1024" 
d="M807 1274h-322l-358 328v22h428z" />
    <glyph glyph-name="a" unicode="a" horiz-adv-x="1294" 
d="M461 -33q-182 0 -279.5 85.5t-97.5 226.5q0 131 86 217q67 67 223 118.5t418 65.5v14q0 162 -193 162q-211 0 -430 -143h-2v319q232 123 488 123q249 0 369 -118t120 -341v-696h-332l-6 125q-149 -158 -364 -158zM567 217q73 0 140 28t104 64v176q-283 -27 -356 -96
q-29 -29 -29 -72q0 -45 37.5 -72.5t103.5 -27.5z" />
    <glyph glyph-name="b" unicode="b" horiz-adv-x="1456" 
d="M514 1571v-567q135 149 344 149q142 0 257.5 -65t185 -192t69.5 -294q0 -284 -177.5 -459.5t-457.5 -175.5q-172 0 -344 68h-239v1536h362zM741 860q-130 0 -227 -69v-490q100 -49 199 -49q126 0 210.5 87t84.5 239q0 137 -73 209.5t-194 72.5z" />
    <glyph glyph-name="c" unicode="c" horiz-adv-x="1226" 
d="M729 -37q-286 0 -464.5 156.5t-178.5 425.5q0 173 83 312.5t231 218.5t333 79q229 0 385 -106v-322h-2q-170 125 -352 125q-139 0 -226 -82t-87 -215t87 -211t226 -78q182 0 352 125h2v-319q-170 -109 -389 -109z" />
    <glyph glyph-name="d" unicode="d" horiz-adv-x="1458" 
d="M1307 1571v-1571h-353l-2 141q-144 -176 -364 -176q-107 0 -199 39t-159 111t-105.5 179t-38.5 236q0 181 80 323.5t217 220t305 77.5q143 0 256 -55v475h363zM741 860q-133 0 -212.5 -82t-79.5 -225q0 -142 74 -218.5t196 -76.5q61 0 120.5 22.5t104.5 59.5v457
q-99 63 -203 63z" />
    <glyph glyph-name="e" unicode="e" horiz-adv-x="1345" 
d="M700 1157q137 0 245 -44t176 -123t103.5 -184.5t35.5 -232.5q0 -47 -7 -108h-807q42 -215 326 -215q211 0 416 115h2v-291q-205 -109 -451 -109q-315 0 -484 154.5t-169 417.5q0 178 75 319t215.5 221t323.5 80zM696 881q-98 0 -160.5 -56.5t-84.5 -158.5h483
q-8 98 -71.5 156.5t-166.5 58.5z" />
    <glyph glyph-name="f" unicode="f" horiz-adv-x="954" 
d="M268 0v838h-225l51 282h174v6q0 229 101.5 353.5t330.5 124.5q104 0 199 -27v-277h-2q-68 21 -127 21q-80 0 -112.5 -39t-32.5 -125v-37h293v-282h-293v-838h-357z" />
    <glyph glyph-name="g" unicode="g" horiz-adv-x="1277" 
d="M637 342q-30 0 -84 4l-16 -102q271 -22 432 -66.5t231 -112.5t70 -171q0 -48 -18.5 -95t-64.5 -94t-115.5 -82.5t-181 -57.5t-251.5 -22q-297 0 -450.5 79t-153.5 210q0 71 48 132t167 116l65 321q-108 50 -163.5 136t-55.5 196q0 183 145 301.5t396 118.5q84 0 156 -16
l102 184h373v-16l-248 -269q75 -53 115.5 -128.5t40.5 -164.5q0 -179 -144 -290t-395 -111zM639 573q91 0 147 45.5t56 129.5q0 80 -56.5 126t-146.5 46q-92 0 -148.5 -47t-56.5 -128q0 -84 55.5 -128t149.5 -44zM674 -229q130 0 202 27t72 69q0 23 -32 43t-98 37.5
t-179.5 30.5t-265.5 20q-56 -45 -56 -90q0 -69 101 -103t256 -34z" />
    <glyph glyph-name="h" unicode="h" horiz-adv-x="1425" 
d="M150 0v1571h360v-613q85 95 179 146t216 51q176 0 278.5 -104.5t102.5 -302.5v-748h-362v659q0 185 -166 185q-123 0 -246 -107v-737h-362z" />
    <glyph glyph-name="i" unicode="i" horiz-adv-x="669" 
d="M336 1255q-104 0 -162.5 54t-58.5 135v2q0 82 58 135t161 53q104 0 162.5 -53t58.5 -135v-2q0 -81 -58.5 -135t-160.5 -54zM154 0v1120h362v-1120h-362z" />
    <glyph glyph-name="j" unicode="j" horiz-adv-x="694" 
d="M360 1255q-104 0 -162.5 54t-58.5 135v2q0 82 58 135t161 53q104 0 163 -53t59 -135v-2q0 -81 -59 -135t-161 -54zM145 -455q-134 0 -241 39v281h2q77 -31 147 -31q66 0 95.5 32t29.5 103v1151h363v-1171q0 -404 -396 -404z" />
    <glyph glyph-name="k" unicode="k" horiz-adv-x="1366" 
d="M150 0v1571h362v-856h143l267 405h405v-2l-364 -528l395 -588v-2h-418l-281 432h-147v-432h-362z" />
    <glyph glyph-name="l" unicode="l" horiz-adv-x="669" 
d="M154 0v1571h362v-1571h-362z" />
    <glyph glyph-name="m" unicode="m" horiz-adv-x="2150" 
d="M150 0v1120h358l2 -172q166 207 383 207q122 0 210.5 -57t129.5 -166q100 116 195 169.5t214 53.5q168 0 268.5 -105t100.5 -302v-748h-362v659q0 185 -154 185q-110 0 -233 -107v-737h-363v659q0 185 -154 185q-110 0 -233 -107v-737h-362z" />
    <glyph glyph-name="n" unicode="n" horiz-adv-x="1425" 
d="M150 0v1120h358l2 -162q85 95 179 146t216 51q176 0 278.5 -104.5t102.5 -302.5v-748h-362v659q0 185 -166 185q-123 0 -246 -107v-737h-362z" />
    <glyph glyph-name="o" unicode="o" horiz-adv-x="1429" 
d="M715 -37q-192 0 -336 78t-218.5 212.5t-74.5 305.5q0 263 170 430.5t459 167.5t458.5 -167.5t169.5 -430.5q0 -128 -43.5 -237.5t-123 -189t-198 -124.5t-263.5 -45zM715 254q125 0 197.5 83.5t72.5 221.5t-72.5 222.5t-197.5 84.5q-126 0 -198.5 -84.5t-72.5 -222.5
t72.5 -221.5t198.5 -83.5z" />
    <glyph glyph-name="p" unicode="p" horiz-adv-x="1458" 
d="M150 -416v1536h352l4 -143q142 178 362 178t362 -153.5t142 -413.5q0 -180 -80 -322.5t-217 -220.5t-305 -78q-145 0 -258 58v-441h-362zM717 258q133 0 213 83t80 226q0 142 -74 217.5t-197 75.5q-124 0 -227 -82v-454q98 -66 205 -66z" />
    <glyph glyph-name="q" unicode="q" horiz-adv-x="1454" 
d="M942 -416v533q-135 -152 -344 -152q-142 0 -257.5 65.5t-185 193t-69.5 294.5q0 284 177.5 459.5t457.5 175.5q171 0 344 -70h240v-1499h-363zM713 260q130 0 229 70v487q-103 49 -199 49q-127 0 -210.5 -85.5t-83.5 -239.5q0 -137 72 -209t192 -72z" />
    <glyph glyph-name="r" unicode="r" horiz-adv-x="915" 
d="M150 0v1120h360v-207q62 111 143 171.5t170 60.5q24 0 47 -2v-363q-29 4 -77 4q-213 0 -281 -127v-657h-362z" />
    <glyph glyph-name="s" unicode="s" horiz-adv-x="1202" 
d="M623 -37q-264 0 -496 123v303h2q117 -72 251 -112.5t257 -40.5q80 0 115.5 20.5t35.5 62.5q0 26 -14.5 41t-68.5 33.5t-166 42.5q-224 48 -319 122t-95 224q0 168 134 270.5t364 102.5q114 0 235.5 -31t194.5 -73v-297h-2q-99 58 -223 93.5t-222 35.5q-137 0 -137 -76
q0 -26 18.5 -42t72 -33.5t169.5 -43.5q221 -51 310 -129.5t89 -224.5q0 -76 -27.5 -140.5t-85 -117.5t-158 -83t-234.5 -30z" />
    <glyph glyph-name="t" unicode="t" horiz-adv-x="935" 
d="M285 0v838h-244l53 282h191v252l358 41v-293h248v-282h-248v-838h-358z" />
    <glyph glyph-name="u" unicode="u" horiz-adv-x="1425" 
d="M1276 1120v-1120h-358l-3 158q-85 -95 -178 -145t-215 -50q-177 0 -280 106t-103 304v747h363v-659q0 -185 166 -185q125 0 245 105v739h363z" />
    <glyph glyph-name="v" unicode="v" horiz-adv-x="1331" 
d="M412 0l-385 1120h376l250 -805h33l248 805h371l-387 -1120h-506z" />
    <glyph glyph-name="w" unicode="w" horiz-adv-x="2068" 
d="M375 0l-328 1120h377l190 -776h29l209 766h377l213 -766h31l188 776h360l-329 -1120h-459l-182 690h-31l-186 -690h-459z" />
    <glyph glyph-name="x" unicode="x" horiz-adv-x="1333" 
d="M18 0v2l428 578l-405 538l2 2h403l230 -315l223 315h393v-2l-405 -547l428 -569v-2h-404l-254 346l-245 -346h-394z" />
    <glyph glyph-name="y" unicode="y" horiz-adv-x="1325" 
d="M367 -416l133 369l-469 1167h370l283 -755l260 755h363l-590 -1536h-350z" />
    <glyph glyph-name="z" unicode="z" horiz-adv-x="1253" 
d="M119 0v266l581 568h-569l14 286h1002v-258l-598 -575h598v-287h-1028z" />
    <glyph glyph-name="braceleft" unicode="{" horiz-adv-x="1138" 
d="M33 549v59l313 293l-16 137q-15 120 3 217t61 161.5t109.5 108t145.5 62.5t172 19q121 0 240 -33v-293h-2q-81 33 -172 33q-264 0 -221 -320l24 -202l-258 -213l258 -211l-24 -203q-12 -90 0 -153.5t45 -97.5t76 -48.5t100 -14.5q91 0 172 33h2v-299q-119 -33 -240 -33
q-93 0 -172 19t-145.5 62.5t-109.5 108t-61 161.5t-3 217l16 137z" />
    <glyph glyph-name="bar" unicode="|" horiz-adv-x="1081" 
d="M375 -414v1985h332v-1985h-332z" />
    <glyph glyph-name="braceright" unicode="}" horiz-adv-x="1138" 
d="M1106 602v-59l-313 -293l16 -137q15 -120 -3 -217t-61.5 -161.5t-110 -108t-145.5 -62.5t-172 -19q-120 0 -239 33v293h2q81 -33 172 -33q264 0 221 320l-24 202l258 213l-258 211l24 203q12 90 0 153t-45 97t-76 48.5t-100 14.5q-94 0 -172 -32h-2v299q115 32 239 32
q93 0 172 -19t145.5 -62t110 -108t61.5 -161.5t3 -216.5l-16 -137z" />
    <glyph glyph-name="asciitilde" unicode="~" horiz-adv-x="1546" 
d="M178 823q75 79 155 122.5t177 43.5q87 0 156.5 -27.5t173.5 -89.5q80 -46 120 -60.5t87 -14.5q77 0 147 52t172 169h2v-408q-77 -78 -156 -122t-174 -44q-61 0 -120.5 17.5t-98 37t-112.5 62.5q-80 48 -120 63t-85 15q-77 0 -148.5 -53t-173.5 -170h-2v407z" />
    <glyph glyph-name="uni00A0" unicode="&#xa0;" horiz-adv-x="509" 
 />
    <glyph glyph-name="exclamdown" unicode="&#xa1;" horiz-adv-x="860" 
d="M430 1157q111 0 174.5 -63t63.5 -158v-2q0 -95 -63 -157t-175 -62q-111 0 -175.5 62.5t-64.5 156.5v2q0 94 65 157.5t175 63.5zM565 571l99 -847v-23h-467v23l98 847h270z" />
    <glyph glyph-name="cent" unicode="&#xa2;" horiz-adv-x="1228" 
d="M506 -84v289q-177 48 -280 179t-103 321q0 189 109.5 328.5t291.5 191.5v248h324v-234q130 -19 237 -90v-299h-4q-152 115 -321 115q-133 0 -214 -70.5t-81 -189.5q0 -108 82.5 -176t216.5 -68q162 0 317 117h4v-302q-111 -70 -254 -90v-239z" />
    <glyph glyph-name="sterling" unicode="&#xa3;" horiz-adv-x="1454" 
d="M109 594l43 270h233q45 154 96.5 261t125 187.5t174.5 119t235 38.5q153 0 272 -61v-307h-2q-118 59 -233 59q-120 0 -187.5 -64.5t-111.5 -222.5l-2 -10h493v-270h-571l-84 -291h743v-303h-1196l170 594h-198z" />
    <glyph glyph-name="yen" unicode="&#xa5;" horiz-adv-x="1691" 
d="M180 281l13 239h458l-73 131h-377l12 238h229l-309 545h387l318 -588h18l326 588h377l-312 -545h230l14 -238h-381l-74 -131h461l12 -239h-485v-281h-358v281h-486z" />
    <glyph glyph-name="section" unicode="&#xa7;" horiz-adv-x="1603" 
d="M694 -442q-150 0 -285 33.5t-231 86.5v310h2q256 -146 512 -146q207 0 324 88q-225 42 -394.5 125t-271.5 187q-209 209 -209 514q0 153 53 284t151.5 227.5t248.5 151t336 54.5q266 0 444 -97v-309h-2q-204 121 -442 121q-210 0 -330 -88q224 -43 393 -126t273 -186
q207 -210 207 -516q0 -153 -52.5 -283t-150 -226t-246 -150.5t-330.5 -54.5zM623 424q171 -174 524 -266q6 43 6 90q0 196 -162 358q-175 175 -522 266q-8 -36 -8 -90q0 -196 162 -358z" />
    <glyph glyph-name="dieresis" unicode="&#xa8;" horiz-adv-x="1024" 
d="M244 1255q-88 0 -141.5 52t-53.5 129v2q0 77 53 127.5t142 50.5q90 0 142 -50.5t52 -127.5v-2q0 -78 -52 -129.5t-142 -51.5zM782 1255q-88 0 -141 52t-53 129v2q0 77 52.5 127.5t141.5 50.5q90 0 142.5 -50.5t52.5 -127.5v-2q0 -78 -52.5 -129.5t-142.5 -51.5z" />
    <glyph glyph-name="copyright" unicode="&#xa9;" horiz-adv-x="2000" 
d="M1001 -111q-270 0 -475.5 102t-317.5 290.5t-112 437.5q0 188 65 343t182.5 262.5t286 166.5t371.5 59q270 0 475 -101.5t317 -290.5t112 -439q0 -249 -112 -437.5t-317 -290.5t-475 -102zM1001 111q299 0 471.5 159.5t172.5 448.5q0 290 -172 450t-472 160
q-301 0 -472 -159.5t-171 -450.5q0 -289 171.5 -448.5t471.5 -159.5zM1038 338q-203 0 -312.5 106.5t-109.5 278.5q0 170 116.5 278.5t314.5 108.5q159 0 280 -80v-217h-2q-134 88 -250 88q-94 0 -150.5 -49t-56.5 -127q0 -84 51.5 -131t151.5 -47q70 0 129 22t125 66h2
v-221q-135 -76 -289 -76z" />
    <glyph glyph-name="ordfeminine" unicode="&#xaa;" horiz-adv-x="1124" 
d="M385 512q-148 0 -226.5 68.5t-78.5 181.5q0 109 74 180q55 55 185 99.5t343 56.5v2q0 61 -36 87.5t-114 26.5q-90 0 -187.5 -29t-180.5 -83h-2v268q185 96 405 96q412 0 412 -368v-557h-281l-4 112q-128 -141 -309 -141zM477 729q115 0 205 86v117q-227 -18 -287 -78
q-22 -22 -22 -51q0 -74 104 -74z" />
    <glyph glyph-name="guillemotleft" unicode="&#xab;" horiz-adv-x="1583" 
d="M829 1036l-374 -477l374 -477h-383l-372 465v26l372 463h383zM1489 1036l-377 -477l377 -477h-385l-373 465v26l373 463h385z" />
    <glyph glyph-name="uni00AD" unicode="&#xad;" horiz-adv-x="0" 
 />
    <glyph glyph-name="registered" unicode="&#xae;" horiz-adv-x="1445" 
d="M723 385q-288 0 -461.5 159.5t-173.5 424.5t173.5 424t461.5 159t461.5 -159t173.5 -424t-173.5 -424.5t-461.5 -159.5zM723 561q201 0 314.5 106.5t113.5 301.5q0 193 -113.5 299t-314.5 106q-200 0 -314 -106t-114 -299q0 -195 114 -301.5t314 -106.5zM479 719v512h291
q229 0 229 -195q0 -115 -94 -159l115 -144v-14h-189l-94 129h-88v-129h-170zM649 975h103q40 0 58.5 13.5t18.5 45.5t-18.5 46t-58.5 14h-103v-119z" />
    <glyph glyph-name="macron" unicode="&#xaf;" horiz-adv-x="1024" 
d="M102 1305v251h820v-251h-820z" />
    <glyph glyph-name="degree" unicode="&#xb0;" horiz-adv-x="1204" 
d="M602 547q-224 0 -357.5 125t-133.5 332q0 209 133 332.5t358 123.5t358.5 -123.5t133.5 -332.5q0 -207 -134 -332t-358 -125zM602 795q95 0 149 56t54 153t-54 152.5t-149 55.5t-149 -55.5t-54 -152.5t54 -153t149 -56z" />
    <glyph glyph-name="plusminus" unicode="&#xb1;" horiz-adv-x="1503" 
d="M231 793v297h359v344h323v-344h359v-297h-359v-344h-323v344h-359zM231 0v285h1041v-285h-1041z" />
    <glyph glyph-name="two.sup" unicode="&#xb2;" horiz-adv-x="970" 
d="M135 723v213l234 176q141 100 177 135.5t36 63.5q0 57 -95 57q-135 0 -315 -119h-2v248q173 100 352 100q162 0 248 -66t86 -185q0 -42 -12.5 -77.5t-31.5 -64t-63 -66.5t-83.5 -67.5t-116.5 -83.5l-57 -43h358v-221h-715z" />
    <glyph glyph-name="three.sup" unicode="&#xb3;" horiz-adv-x="970" 
d="M465 696q-158 0 -322 52v229h2q183 -62 295 -62q162 0 162 74q0 29 -20.5 44.5t-78 23.5t-167.5 8h-31v119l236 170h-394l7 217h673v-205l-215 -154q254 -40 254 -233q0 -134 -110 -208.5t-291 -74.5z" />
    <glyph glyph-name="acute" unicode="&#xb4;" horiz-adv-x="1024" 
d="M219 1274l252 350h428v-22l-360 -328h-320z" />
    <glyph glyph-name="paragraph" unicode="&#xb6;" horiz-adv-x="1779" 
d="M1235 0v1137h-277v-791h-71q-151 0 -264.5 14t-209.5 49t-156.5 92t-94 145.5t-33.5 207.5q0 300 178 440t533 140h727v-1434h-332z" />
    <glyph glyph-name="periodcentered" unicode="&#xb7;" horiz-adv-x="849" 
d="M424 453q-111 0 -174.5 63t-63.5 158v2q0 96 63 157.5t175 61.5t176 -61.5t64 -155.5v-4q0 -95 -64 -158t-176 -63z" />
    <glyph glyph-name="cedilla" unicode="&#xb8;" horiz-adv-x="1024" 
d="M111 -383v27l319 356h295l-184 -383h-430z" />
    <glyph glyph-name="one.sup" unicode="&#xb9;" horiz-adv-x="749" 
d="M272 723v631h-180l37 217h418v-848h-275z" />
    <glyph glyph-name="ordmasculine" unicode="&#xba;" horiz-adv-x="1206" 
d="M604 510q-244 0 -383 133.5t-139 345.5t139 345.5t383 133.5q242 0 381 -133.5t139 -345.5t-139 -345.5t-381 -133.5zM604 758q102 0 157.5 63.5t55.5 167.5t-55.5 168t-157.5 64q-103 0 -158 -63.5t-55 -168.5t55 -168t158 -63z" />
    <glyph glyph-name="guillemotright" unicode="&#xbb;" horiz-adv-x="1583" 
d="M754 84l374 477l-374 477h383l372 -465v-26l-372 -463h-383zM94 84l377 477l-377 477h385l373 -465v-26l-373 -463h-385z" />
    <glyph glyph-name="onequarter" unicode="&#xbc;" horiz-adv-x="2064" 
d="M272 586v631h-180l37 217h418v-848h-275zM281 2l1046 1432h270v-2l-1044 -1432h-272v2zM1640 0v158h-475v196l213 494h510v-481h119l-12 -209h-107v-158h-248zM1423 360h226v281h-111z" />
    <glyph glyph-name="onehalf" unicode="&#xbd;" horiz-adv-x="2084" 
d="M272 586v631h-180l37 217h418v-848h-275zM281 2l1046 1432h270v-2l-1044 -1432h-272v2zM1249 0v213l234 176q141 100 177 135.5t36 63.5q0 57 -94 57q-136 0 -316 -119h-2v248q173 100 352 100q162 0 248 -66t86 -185q0 -42 -12.5 -77.5t-31.5 -64t-63 -66.5t-83.5 -67.5
t-116.5 -83.5l-57 -43h358v-221h-715z" />
    <glyph glyph-name="threequarters" unicode="&#xbe;" horiz-adv-x="2267" 
d="M465 559q-161 0 -322 51v230h2q183 -62 295 -62q162 0 162 74q0 29 -20.5 44.5t-78 23.5t-167.5 8h-31v119l236 170h-394l7 217h673v-205l-215 -154q254 -40 254 -233q0 -134 -110 -208.5t-291 -74.5zM483 2l1047 1432h270v-2l-1044 -1432h-273v2zM1843 0v158h-475v196
l213 494h510v-481h119l-12 -209h-107v-158h-248zM1626 360h225v281h-110z" />
    <glyph glyph-name="questiondown" unicode="&#xbf;" horiz-adv-x="1257" 
d="M696 1157q111 0 174.5 -63t63.5 -158v-2q0 -95 -63 -157t-175 -62t-175.5 62.5t-63.5 156.5v2q0 95 63.5 158t175.5 63zM1139 -207q-138 -64 -270 -98.5t-285 -34.5q-112 0 -210 23t-176 69t-123.5 123.5t-45.5 177.5q0 215 198.5 340t620.5 199h2v-289
q-181 -42 -283 -82.5t-133 -72.5t-31 -72q0 -115 215 -115q125 0 260.5 45t258.5 121h2v-334z" />
    <glyph glyph-name="Agrave" unicode="&#xc0;" horiz-adv-x="1746" 
d="M1090 1587h-322l-358 328v22h428zM49 0l529 1434h591l527 -1434h-391l-115 317h-639l-115 -317h-387zM834 1102l-175 -484h424l-174 484h-75z" />
    <glyph glyph-name="Aacute" unicode="&#xc1;" horiz-adv-x="1746" 
d="M659 1587l252 350h428v-22l-360 -328h-320zM49 0l529 1434h591l527 -1434h-391l-115 317h-639l-115 -317h-387zM834 1102l-175 -484h424l-174 484h-75z" />
    <glyph glyph-name="Acircumflex" unicode="&#xc2;" horiz-adv-x="1746" 
d="M385 1585l274 385h431l274 -385h-334l-119 166h-75l-119 -166h-332zM49 0l529 1434h591l527 -1434h-391l-115 317h-639l-115 -317h-387zM834 1102l-175 -484h424l-174 484h-75z" />
    <glyph glyph-name="Atilde" unicode="&#xc3;" horiz-adv-x="1746" 
d="M696 1942q54 0 98 -13.5t126 -50.5q61 -28 89 -37.5t54 -9.5q51 0 98.5 30.5t114.5 106.5h2v-297q-108 -104 -227 -104q-56 0 -99.5 13.5t-124.5 49.5q-61 28 -89 37.5t-54 9.5q-51 0 -99 -30t-114 -105h-2v295q109 105 227 105zM49 0l529 1434h591l527 -1434h-391
l-115 317h-639l-115 -317h-387zM834 1102l-175 -484h424l-174 484h-75z" />
    <glyph glyph-name="Adieresis" unicode="&#xc4;" horiz-adv-x="1746" 
d="M606 1569q-88 0 -141 51.5t-53 128.5v2q0 77 52.5 127.5t141.5 50.5q90 0 142.5 -50.5t52.5 -127.5v-2q0 -77 -52.5 -128.5t-142.5 -51.5zM1145 1569q-89 0 -142 51.5t-53 128.5v2q0 77 53 127.5t142 50.5q90 0 142 -50.5t52 -127.5v-2q0 -78 -52 -129t-142 -51zM49 0
l529 1434h591l527 -1434h-391l-115 317h-639l-115 -317h-387zM834 1102l-175 -484h424l-174 484h-75z" />
    <glyph glyph-name="Aring" unicode="&#xc5;" horiz-adv-x="1746" 
d="M870 1569q-174 0 -273 82.5t-99 232.5q0 153 99.5 238.5t276.5 85.5q176 0 276.5 -84.5t100.5 -237.5q0 -149 -102.5 -233t-278.5 -84zM874 1761q68 0 107 33t39 92q0 61 -40 95t-108 34q-69 0 -109 -33.5t-40 -95.5q0 -58 41 -91.5t110 -33.5zM49 0l529 1434h591
l527 -1434h-391l-115 317h-639l-115 -317h-387zM834 1102l-175 -484h424l-174 484h-75z" />
    <glyph glyph-name="AE" unicode="&#xc6;" horiz-adv-x="2598" 
d="M1221 0v317h-590l-182 -317h-426l847 1434h1575l13 -318h-865v-229h688v-301h-688v-269h893l-14 -317h-1251zM1085 1106l-282 -490h418v490h-136z" />
    <glyph glyph-name="Ccedilla" unicode="&#xc7;" horiz-adv-x="1597" 
d="M436 -385v27l301 335q-157 22 -278 88t-196 164t-113.5 219.5t-38.5 262.5q0 158 54.5 295t156 240t258.5 162.5t350 59.5q165 0 301.5 -45.5t234.5 -115.5v-363h-2q-147 97 -262.5 146t-259.5 49q-209 0 -329.5 -117.5t-120.5 -308.5q0 -188 118 -303t330 -115
q151 0 275 48t249 142h2v-366q-74 -51 -184.5 -91.5t-243.5 -54.5l-172 -358h-430z" />
    <glyph glyph-name="Egrave" unicode="&#xc8;" horiz-adv-x="1568" 
d="M1038 1587h-321l-359 328v22h428zM190 0v1434h1225l15 -318h-867v-229h688v-301h-688v-269h893l-12 -317h-1254z" />
    <glyph glyph-name="Eacute" unicode="&#xc9;" horiz-adv-x="1568" 
d="M606 1587l252 350h428v-22l-360 -328h-320zM190 0v1434h1225l15 -318h-867v-229h688v-301h-688v-269h893l-12 -317h-1254z" />
    <glyph glyph-name="Ecircumflex" unicode="&#xca;" horiz-adv-x="1568" 
d="M332 1585l274 385h430l275 -385h-334l-119 166h-76l-118 -166h-332zM190 0v1434h1225l15 -318h-867v-229h688v-301h-688v-269h893l-12 -317h-1254z" />
    <glyph glyph-name="Edieresis" unicode="&#xcb;" horiz-adv-x="1568" 
d="M553 1569q-89 0 -142 51.5t-53 128.5v2q0 77 53 127.5t142 50.5q90 0 142.5 -50.5t52.5 -127.5v-2q0 -77 -52.5 -128.5t-142.5 -51.5zM1092 1569q-89 0 -142 51.5t-53 128.5v2q0 77 53 127.5t142 50.5q90 0 142 -50.5t52 -127.5v-2q0 -78 -52 -129t-142 -51zM190 0v1434
h1225l15 -318h-867v-229h688v-301h-688v-269h893l-12 -317h-1254z" />
    <glyph glyph-name="Igrave" unicode="&#xcc;" horiz-adv-x="763" 
d="M543 1587h-322l-358 328v22h428zM195 0v1434h374v-1434h-374z" />
    <glyph glyph-name="Iacute" unicode="&#xcd;" horiz-adv-x="763" 
d="M223 1587l252 350h428v-22l-360 -328h-320zM195 0v1434h374v-1434h-374z" />
    <glyph glyph-name="Icircumflex" unicode="&#xce;" horiz-adv-x="763" 
d="M-109 1585l275 385h430l274 -385h-333l-119 166h-76l-119 -166h-332zM195 0v1434h374v-1434h-374z" />
    <glyph glyph-name="Idieresis" unicode="&#xcf;" horiz-adv-x="763" 
d="M113 1569q-89 0 -142 51.5t-53 128.5v2q0 77 53 127.5t142 50.5q90 0 142 -50.5t52 -127.5v-2q0 -78 -52 -129t-142 -51zM651 1569q-88 0 -141 51.5t-53 128.5v2q0 77 52.5 127.5t141.5 50.5q90 0 142.5 -50.5t52.5 -127.5v-2q0 -77 -52.5 -128.5t-142.5 -51.5zM195 0
v1434h374v-1434h-374z" />
    <glyph glyph-name="Eth" unicode="&#xd0;" horiz-adv-x="1837" 
d="M268 0v584h-194l22 272h172v578h740q339 0 530 -188t191 -527t-191 -529t-530 -190h-740zM643 319h340q365 0 365 396q0 201 -94.5 300t-270.5 99h-340v-266h387v-258h-387v-271z" />
    <glyph glyph-name="Ntilde" unicode="&#xd1;" horiz-adv-x="1816" 
d="M762 1942q54 0 97 -13.5t126 -50.5q61 -28 89 -37.5t54 -9.5q51 0 98.5 30.5t114.5 106.5h2v-297q-108 -104 -227 -104q-55 0 -98 13t-125 50q-61 28 -89 37.5t-54 9.5q-51 0 -99 -30t-114 -105h-2v295q109 105 227 105zM190 0v1434h400l667 -881h9v881h360v-1434h-383
l-684 907h-8v-907h-361z" />
    <glyph glyph-name="Ograve" unicode="&#xd2;" horiz-adv-x="1828" 
d="M1130 1626h-321l-358 328v22h428zM913 -39q-368 0 -585 205t-217 551t217 551t585 205q370 0 587.5 -205t217.5 -551t-217.5 -551t-587.5 -205zM913 289q202 0 315 113.5t113 314.5q0 202 -111.5 315t-314.5 113q-202 0 -315 -113.5t-113 -314.5q0 -202 111.5 -315
t314.5 -113z" />
    <glyph glyph-name="Oacute" unicode="&#xd3;" horiz-adv-x="1828" 
d="M700 1626l252 350h428v-22l-360 -328h-320zM913 -39q-368 0 -585 205t-217 551t217 551t585 205q370 0 587.5 -205t217.5 -551t-217.5 -551t-587.5 -205zM913 289q202 0 315 113.5t113 314.5q0 202 -111.5 315t-314.5 113q-202 0 -315 -113.5t-113 -314.5
q0 -202 111.5 -315t314.5 -113z" />
    <glyph glyph-name="Ocircumflex" unicode="&#xd4;" horiz-adv-x="1828" 
d="M424 1624l274 385h430l275 -385h-334l-119 166h-76l-118 -166h-332zM913 -39q-368 0 -585 205t-217 551t217 551t585 205q370 0 587.5 -205t217.5 -551t-217.5 -551t-587.5 -205zM913 289q202 0 315 113.5t113 314.5q0 202 -111.5 315t-314.5 113q-202 0 -315 -113.5
t-113 -314.5q0 -202 111.5 -315t314.5 -113z" />
    <glyph glyph-name="Otilde" unicode="&#xd5;" horiz-adv-x="1828" 
d="M737 1980q54 0 99 -13.5t125 -49.5q61 -28 89 -37.5t54 -9.5q51 0 98.5 30.5t114.5 106.5h2v-297q-108 -104 -227 -104q-56 0 -99.5 13.5t-124.5 49.5q-61 28 -89 37.5t-54 9.5q-51 0 -99 -30t-114 -105h-2v295q108 104 227 104zM913 -39q-368 0 -585 205t-217 551
t217 551t585 205q370 0 587.5 -205t217.5 -551t-217.5 -551t-587.5 -205zM913 289q202 0 315 113.5t113 314.5q0 202 -111.5 315t-314.5 113q-202 0 -315 -113.5t-113 -314.5q0 -202 111.5 -315t314.5 -113z" />
    <glyph glyph-name="Odieresis" unicode="&#xd6;" horiz-adv-x="1828" 
d="M645 1608q-88 0 -141 51.5t-53 128.5v2q0 77 52.5 127.5t141.5 50.5q90 0 142.5 -50.5t52.5 -127.5v-2q0 -77 -52.5 -128.5t-142.5 -51.5zM1184 1608q-89 0 -142 51.5t-53 128.5v2q0 77 53 127.5t142 50.5q90 0 142 -50.5t52 -127.5v-2q0 -78 -52 -129t-142 -51zM913 -39
q-368 0 -585 205t-217 551t217 551t585 205q370 0 587.5 -205t217.5 -551t-217.5 -551t-587.5 -205zM913 289q202 0 315 113.5t113 314.5q0 202 -111.5 315t-314.5 113q-202 0 -315 -113.5t-113 -314.5q0 -202 111.5 -315t314.5 -113z" />
    <glyph glyph-name="multiply" unicode="&#xd7;" horiz-adv-x="1507" 
d="M180 1067l215 219l359 -352l358 352l215 -219l-354 -348l354 -350l-215 -219l-358 352l-359 -352l-215 219l355 350z" />
    <glyph glyph-name="Oslash" unicode="&#xd8;" horiz-adv-x="1828" 
d="M59 -123l244 313q-192 201 -192 527q0 346 217 551t585 205q204 0 367 -66l119 149h370l-243 -315q192 -198 192 -524q0 -346 -217.5 -551t-587.5 -205q-201 0 -364 66l-115 -150h-375zM477 717q0 -155 66 -262l536 678q-77 22 -164 22q-208 0 -323 -116t-115 -322z
M911 279q210 0 325.5 116t115.5 322q0 156 -68 262l-534 -678q74 -22 161 -22z" />
    <glyph glyph-name="Ugrave" unicode="&#xd9;" horiz-adv-x="1773" 
d="M1090 1552h-322l-358 328v23h428zM885 -39q-159 0 -284.5 32.5t-222 101.5t-148.5 186t-52 276v877h377v-852q0 -78 26.5 -134.5t74 -88t104.5 -46t127 -14.5t127 13.5t105 44t75 85.5t27 131v861h374v-869q0 -130 -35 -233t-97 -172t-152 -114t-195 -65t-231 -20z" />
    <glyph glyph-name="Uacute" unicode="&#xda;" horiz-adv-x="1773" 
d="M686 1552l252 351h428v-23l-360 -328h-320zM885 -39q-159 0 -284.5 32.5t-222 101.5t-148.5 186t-52 276v877h377v-852q0 -78 26.5 -134.5t74 -88t104.5 -46t127 -14.5t127 13.5t105 44t75 85.5t27 131v861h374v-869q0 -130 -35 -233t-97 -172t-152 -114t-195 -65
t-231 -20z" />
    <glyph glyph-name="Ucircumflex" unicode="&#xdb;" horiz-adv-x="1773" 
d="M397 1585l275 385h430l274 -385h-334l-118 166h-76l-119 -166h-332zM885 -39q-159 0 -284.5 32.5t-222 101.5t-148.5 186t-52 276v877h377v-852q0 -78 26.5 -134.5t74 -88t104.5 -46t127 -14.5t127 13.5t105 44t75 85.5t27 131v861h374v-869q0 -130 -35 -233t-97 -172
t-152 -114t-195 -65t-231 -20z" />
    <glyph glyph-name="Udieresis" unicode="&#xdc;" horiz-adv-x="1773" 
d="M618 1569q-88 0 -141 51.5t-53 128.5v2q0 77 52.5 127.5t141.5 50.5q90 0 142.5 -50.5t52.5 -127.5v-2q0 -77 -52.5 -128.5t-142.5 -51.5zM1157 1569q-88 0 -141 51.5t-53 128.5v2q0 77 52.5 127.5t141.5 50.5q90 0 142.5 -50.5t52.5 -127.5v-2q0 -77 -52.5 -128.5
t-142.5 -51.5zM885 -39q-159 0 -284.5 32.5t-222 101.5t-148.5 186t-52 276v877h377v-852q0 -78 26.5 -134.5t74 -88t104.5 -46t127 -14.5t127 13.5t105 44t75 85.5t27 131v861h374v-869q0 -130 -35 -233t-97 -172t-152 -114t-195 -65t-231 -20z" />
    <glyph glyph-name="Yacute" unicode="&#xdd;" horiz-adv-x="1669" 
d="M621 1552l251 351h428v-23l-360 -328h-319zM647 0v475l-637 959h430l385 -600h23l393 600h416l-635 -953v-481h-375z" />
    <glyph glyph-name="Thorn" unicode="&#xde;" horiz-adv-x="1624" 
d="M190 0v1434h375v-191h432q267 0 407 -136.5t140 -377.5q0 -132 -42 -233.5t-118.5 -165.5t-181.5 -96.5t-235 -32.5h-402v-201h-375zM565 514h381q114 0 168.5 56t54.5 149q0 207 -229 207h-375v-412z" />
    <glyph glyph-name="germandbls" unicode="&#xdf;" horiz-adv-x="1622" 
d="M43 838l51 282h191q45 241 202 362.5t396 121.5q426 0 624 -394l-336 -362l76 -39q151 -77 225 -166t74 -231q0 -202 -137 -323.5t-350 -121.5q-145 0 -281 45v291h2q127 -53 234 -53q86 0 135 45t49 121q0 67 -50.5 107.5t-191.5 101.5l-122 51l-5 196l283 322
q-87 113 -217 113q-270 0 -270 -389v-918h-357v838h-225z" />
    <glyph glyph-name="agrave" unicode="&#xe0;" horiz-adv-x="1294" 
d="M866 1305h-321l-359 327v23h428zM461 -33q-182 0 -279.5 85.5t-97.5 226.5q0 131 86 217q67 67 223 118.5t418 65.5v14q0 162 -193 162q-211 0 -430 -143h-2v319q232 123 488 123q249 0 369 -118t120 -341v-696h-332l-6 125q-149 -158 -364 -158zM567 217q73 0 140 28
t104 64v176q-283 -27 -356 -96q-29 -29 -29 -72q0 -45 37.5 -72.5t103.5 -27.5z" />
    <glyph glyph-name="aacute" unicode="&#xe1;" horiz-adv-x="1294" 
d="M453 1305l252 350h428v-23l-361 -327h-319zM461 -33q-182 0 -279.5 85.5t-97.5 226.5q0 131 86 217q67 67 223 118.5t418 65.5v14q0 162 -193 162q-211 0 -430 -143h-2v319q232 123 488 123q249 0 369 -118t120 -341v-696h-332l-6 125q-149 -158 -364 -158zM567 217
q73 0 140 28t104 64v176q-283 -27 -356 -96q-29 -29 -29 -72q0 -45 37.5 -72.5t103.5 -27.5z" />
    <glyph glyph-name="acircumflex" unicode="&#xe2;" horiz-adv-x="1294" 
d="M166 1303l274 385h430l275 -385h-334l-119 165h-76l-118 -165h-332zM461 -33q-182 0 -279.5 85.5t-97.5 226.5q0 131 86 217q67 67 223 118.5t418 65.5v14q0 162 -193 162q-211 0 -430 -143h-2v319q232 123 488 123q249 0 369 -118t120 -341v-696h-332l-6 125
q-149 -158 -364 -158zM567 217q73 0 140 28t104 64v176q-283 -27 -356 -96q-29 -29 -29 -72q0 -45 37.5 -72.5t103.5 -27.5z" />
    <glyph glyph-name="atilde" unicode="&#xe3;" horiz-adv-x="1294" 
d="M479 1659q54 0 97 -13.5t126 -50.5q61 -28 89.5 -37.5t54.5 -9.5q51 0 98 30.5t115 107.5h2v-297q-109 -105 -227 -105q-55 0 -98 13.5t-126 50.5q-61 28 -89 37.5t-54 9.5q-51 0 -99 -30t-114 -105h-2v294q109 105 227 105zM461 -33q-182 0 -279.5 85.5t-97.5 226.5
q0 131 86 217q67 67 223 118.5t418 65.5v14q0 162 -193 162q-211 0 -430 -143h-2v319q232 123 488 123q249 0 369 -118t120 -341v-696h-332l-6 125q-149 -158 -364 -158zM567 217q73 0 140 28t104 64v176q-283 -27 -356 -96q-29 -29 -29 -72q0 -45 37.5 -72.5t103.5 -27.5z
" />
    <glyph glyph-name="adieresis" unicode="&#xe4;" horiz-adv-x="1294" 
d="M387 1286q-88 0 -141 51.5t-53 128.5v2q0 77 52.5 128t141.5 51q90 0 142.5 -51t52.5 -128v-2q0 -77 -52.5 -128.5t-142.5 -51.5zM926 1286q-89 0 -142 51.5t-53 128.5v2q0 77 53 128t142 51q90 0 142 -51t52 -128v-2q0 -78 -52 -129t-142 -51zM461 -33
q-182 0 -279.5 85.5t-97.5 226.5q0 131 86 217q67 67 223 118.5t418 65.5v14q0 162 -193 162q-211 0 -430 -143h-2v319q232 123 488 123q249 0 369 -118t120 -341v-696h-332l-6 125q-149 -158 -364 -158zM567 217q73 0 140 28t104 64v176q-283 -27 -356 -96q-29 -29 -29 -72
q0 -45 37.5 -72.5t103.5 -27.5z" />
    <glyph glyph-name="aring" unicode="&#xe5;" horiz-adv-x="1294" 
d="M653 1286q-174 0 -273 83t-99 233q0 153 99.5 238t276.5 85q176 0 276.5 -84t100.5 -237q0 -150 -102.5 -234t-278.5 -84zM657 1479q68 0 107 33t39 92q0 61 -40 95t-108 34q-69 0 -109 -33.5t-40 -95.5q0 -58 41 -91.5t110 -33.5zM461 -33q-182 0 -279.5 85.5
t-97.5 226.5q0 131 86 217q67 67 223 118.5t418 65.5v14q0 162 -193 162q-211 0 -430 -143h-2v319q232 123 488 123q249 0 369 -118t120 -341v-696h-332l-6 125q-149 -158 -364 -158zM567 217q73 0 140 28t104 64v176q-283 -27 -356 -96q-29 -29 -29 -72q0 -45 37.5 -72.5
t103.5 -27.5z" />
    <glyph glyph-name="ae" unicode="&#xe6;" horiz-adv-x="2068" 
d="M1915 74q-209 -109 -451 -109q-353 0 -520 197q-107 -102 -223.5 -148.5t-255.5 -46.5q-187 0 -284 85t-97 227q0 131 86 217q67 67 223.5 118.5t423.5 67.5v12q0 162 -199 162q-211 0 -430 -143h-2v319q232 123 482 123q264 0 374 -154q68 73 169.5 114.5t222.5 41.5
q135 0 240.5 -44t173 -123t102.5 -184.5t35 -232.5q0 -55 -9 -108h-807q42 -215 328 -215q208 0 416 115h2v-291zM1421 881q-99 0 -162 -56.5t-85 -158.5h483q-8 98 -70.5 156.5t-165.5 58.5zM426 317q0 -45 37.5 -72.5t103.5 -27.5q159 0 285 105q-30 84 -35 163
q-289 -26 -362 -96q-29 -29 -29 -72z" />
    <glyph glyph-name="ccedilla" unicode="&#xe7;" horiz-adv-x="1226" 
d="M246 -385v27l305 340q-214 45 -339.5 192.5t-125.5 370.5q0 173 83 312.5t231 218.5t333 79q229 0 385 -106v-322h-2q-170 125 -352 125q-139 0 -226 -82t-87 -215t87 -211t226 -78q182 0 352 125h2v-319q-124 -78 -270 -101l-172 -356h-430z" />
    <glyph glyph-name="egrave" unicode="&#xe8;" horiz-adv-x="1345" 
d="M922 1303h-322l-358 327v23h428zM700 1157q137 0 245 -44t176 -123t103.5 -184.5t35.5 -232.5q0 -47 -7 -108h-807q42 -215 326 -215q211 0 416 115h2v-291q-205 -109 -451 -109q-315 0 -484 154.5t-169 417.5q0 178 75 319t215.5 221t323.5 80zM696 881
q-98 0 -160.5 -56.5t-84.5 -158.5h483q-8 98 -71.5 156.5t-166.5 58.5z" />
    <glyph glyph-name="eacute" unicode="&#xe9;" horiz-adv-x="1345" 
d="M489 1303l252 350h428v-23l-360 -327h-320zM700 1157q137 0 245 -44t176 -123t103.5 -184.5t35.5 -232.5q0 -47 -7 -108h-807q42 -215 326 -215q211 0 416 115h2v-291q-205 -109 -451 -109q-315 0 -484 154.5t-169 417.5q0 178 75 319t215.5 221t323.5 80zM696 881
q-98 0 -160.5 -56.5t-84.5 -158.5h483q-8 98 -71.5 156.5t-166.5 58.5z" />
    <glyph glyph-name="ecircumflex" unicode="&#xea;" horiz-adv-x="1345" 
d="M215 1300l274 386h431l274 -386h-334l-119 166h-75l-119 -166h-332zM700 1157q137 0 245 -44t176 -123t103.5 -184.5t35.5 -232.5q0 -47 -7 -108h-807q42 -215 326 -215q211 0 416 115h2v-291q-205 -109 -451 -109q-315 0 -484 154.5t-169 417.5q0 178 75 319t215.5 221
t323.5 80zM696 881q-98 0 -160.5 -56.5t-84.5 -158.5h483q-8 98 -71.5 156.5t-166.5 58.5z" />
    <glyph glyph-name="edieresis" unicode="&#xeb;" horiz-adv-x="1345" 
d="M436 1284q-88 0 -141 51.5t-53 128.5v2q0 77 52.5 128t141.5 51q90 0 142.5 -51t52.5 -128v-2q0 -77 -52.5 -128.5t-142.5 -51.5zM975 1284q-89 0 -142 51.5t-53 128.5v2q0 77 53 128t142 51q90 0 142 -51t52 -128v-2q0 -78 -52 -129t-142 -51zM700 1157q137 0 245 -44
t176 -123t103.5 -184.5t35.5 -232.5q0 -47 -7 -108h-807q42 -215 326 -215q211 0 416 115h2v-291q-205 -109 -451 -109q-315 0 -484 154.5t-169 417.5q0 178 75 319t215.5 221t323.5 80zM696 881q-98 0 -160.5 -56.5t-84.5 -158.5h483q-8 98 -71.5 156.5t-166.5 58.5z" />
    <glyph glyph-name="igrave" unicode="&#xec;" horiz-adv-x="669" 
d="M496 1274h-322l-358 328v22h428zM154 0v1120h362v-1120h-362z" />
    <glyph glyph-name="iacute" unicode="&#xed;" horiz-adv-x="669" 
d="M178 1274l252 350h428v-22l-360 -328h-320zM154 0v1120h362v-1120h-362z" />
    <glyph glyph-name="icircumflex" unicode="&#xee;" horiz-adv-x="669" 
d="M-156 1272l275 385h430l274 -385h-334l-118 166h-76l-119 -166h-332zM154 0v1120h362v-1120h-362z" />
    <glyph glyph-name="idieresis" unicode="&#xef;" horiz-adv-x="669" 
d="M66 1255q-88 0 -141.5 52t-53.5 129v2q0 77 53 127.5t142 50.5q90 0 142 -50.5t52 -127.5v-2q0 -78 -52 -129.5t-142 -51.5zM604 1255q-88 0 -141 52t-53 129v2q0 77 52.5 127.5t141.5 50.5q90 0 142.5 -50.5t52.5 -127.5v-2q0 -78 -52.5 -129.5t-142.5 -51.5zM154 0
v1120h362v-1120h-362z" />
    <glyph glyph-name="eth" unicode="&#xf0;" horiz-adv-x="1406" 
d="M684 -37q-273 0 -440.5 145.5t-167.5 387.5q0 133 48 239.5t127.5 171t175 98t198.5 33.5q202 0 325 -123q-56 149 -178 285l-369 -115v213l195 60q-130 100 -291 194v19h438q85 -49 168 -117l379 117v-211l-215 -66q242 -285 242 -645q0 -170 -48 -302t-134 -215
t-200.5 -126t-252.5 -43zM434 508q0 -120 73 -186t185 -66q134 0 204.5 93.5t70.5 250.5q0 30 -4 80q-38 45 -110 73.5t-146 28.5q-113 0 -193 -69.5t-80 -204.5z" />
    <glyph glyph-name="ntilde" unicode="&#xf1;" horiz-adv-x="1425" 
d="M551 1653q54 0 97 -13.5t126 -50.5q61 -28 89.5 -37.5t54.5 -9.5q51 0 97.5 30t114.5 107h3v-297q-108 -104 -228 -104q-55 0 -98 13t-125 50q-63 29 -90.5 38.5t-52.5 9.5q-51 0 -99 -30.5t-114 -105.5h-2v295q109 105 227 105zM150 0v1120h358l2 -162q85 95 179 146
t216 51q176 0 278.5 -104.5t102.5 -302.5v-748h-362v659q0 185 -166 185q-123 0 -246 -107v-737h-362z" />
    <glyph glyph-name="ograve" unicode="&#xf2;" horiz-adv-x="1429" 
d="M932 1303h-322l-358 327v23h428zM715 -37q-192 0 -336 78t-218.5 212.5t-74.5 305.5q0 263 170 430.5t459 167.5t458.5 -167.5t169.5 -430.5q0 -128 -43.5 -237.5t-123 -189t-198 -124.5t-263.5 -45zM715 254q125 0 197.5 83.5t72.5 221.5t-72.5 222.5t-197.5 84.5
q-126 0 -198.5 -84.5t-72.5 -222.5t72.5 -221.5t198.5 -83.5z" />
    <glyph glyph-name="oacute" unicode="&#xf3;" horiz-adv-x="1429" 
d="M500 1303l252 350h428v-23l-361 -327h-319zM715 -37q-192 0 -336 78t-218.5 212.5t-74.5 305.5q0 263 170 430.5t459 167.5t458.5 -167.5t169.5 -430.5q0 -128 -43.5 -237.5t-123 -189t-198 -124.5t-263.5 -45zM715 254q125 0 197.5 83.5t72.5 221.5t-72.5 222.5
t-197.5 84.5q-126 0 -198.5 -84.5t-72.5 -222.5t72.5 -221.5t198.5 -83.5z" />
    <glyph glyph-name="ocircumflex" unicode="&#xf4;" horiz-adv-x="1429" 
d="M225 1300l275 386h430l274 -386h-334l-118 166h-76l-119 -166h-332zM715 -37q-192 0 -336 78t-218.5 212.5t-74.5 305.5q0 263 170 430.5t459 167.5t458.5 -167.5t169.5 -430.5q0 -128 -43.5 -237.5t-123 -189t-198 -124.5t-263.5 -45zM715 254q125 0 197.5 83.5
t72.5 221.5t-72.5 222.5t-197.5 84.5q-126 0 -198.5 -84.5t-72.5 -222.5t72.5 -221.5t198.5 -83.5z" />
    <glyph glyph-name="otilde" unicode="&#xf5;" horiz-adv-x="1429" 
d="M539 1657q54 0 97 -13.5t126 -50.5q61 -28 89 -37.5t54 -9.5q51 0 98.5 30.5t114.5 106.5h2v-297q-108 -104 -227 -104q-55 0 -97 13.5t-126 50.5q-61 28 -89.5 37.5t-54.5 9.5q-51 0 -99 -30.5t-114 -105.5h-2v295q109 105 228 105zM715 -37q-192 0 -336 78
t-218.5 212.5t-74.5 305.5q0 263 170 430.5t459 167.5t458.5 -167.5t169.5 -430.5q0 -128 -43.5 -237.5t-123 -189t-198 -124.5t-263.5 -45zM715 254q125 0 197.5 83.5t72.5 221.5t-72.5 222.5t-197.5 84.5q-126 0 -198.5 -84.5t-72.5 -222.5t72.5 -221.5t198.5 -83.5z" />
    <glyph glyph-name="odieresis" unicode="&#xf6;" horiz-adv-x="1429" 
d="M446 1284q-88 0 -141 51.5t-53 128.5v2q0 77 52.5 128t141.5 51q90 0 142.5 -51t52.5 -128v-2q0 -77 -52.5 -128.5t-142.5 -51.5zM985 1284q-88 0 -141 51.5t-53 128.5v2q0 77 52.5 128t141.5 51q90 0 142.5 -51t52.5 -128v-2q0 -77 -52.5 -128.5t-142.5 -51.5zM715 -37
q-192 0 -336 78t-218.5 212.5t-74.5 305.5q0 263 170 430.5t459 167.5t458.5 -167.5t169.5 -430.5q0 -128 -43.5 -237.5t-123 -189t-198 -124.5t-263.5 -45zM715 254q125 0 197.5 83.5t72.5 221.5t-72.5 222.5t-197.5 84.5q-126 0 -198.5 -84.5t-72.5 -222.5t72.5 -221.5
t198.5 -83.5z" />
    <glyph glyph-name="divide" unicode="&#xf7;" horiz-adv-x="1579" 
d="M788 1356q97 0 154 -53.5t57 -135.5t-57 -135t-154 -53t-153.5 52.5t-56.5 133.5v2q0 82 56.5 135.5t153.5 53.5zM180 569v295h1219v-295h-1219zM791 80q-97 0 -154 53t-57 133v2q0 82 56 135.5t152 53.5q99 0 156 -53.5t57 -135.5v-2q0 -81 -56.5 -133.5t-153.5 -52.5z
" />
    <glyph glyph-name="oslash" unicode="&#xf8;" horiz-adv-x="1429" 
d="M715 -37q-165 0 -297 57l-92 -118h-308l203 264q-135 160 -135 393q0 263 170 430.5t459 167.5q167 0 297 -59l92 119h307l-203 -265q135 -156 135 -393q0 -128 -43.5 -237.5t-123 -189t-198 -124.5t-263.5 -45zM430 559q0 -83 29 -156l370 457q-58 21 -114 21
q-132 0 -208.5 -88t-76.5 -234zM715 240q132 0 208 86.5t76 232.5q0 88 -28 158l-373 -455q55 -22 117 -22z" />
    <glyph glyph-name="ugrave" unicode="&#xf9;" horiz-adv-x="1425" 
d="M911 1251h-321l-359 328v23h428zM1276 1120v-1120h-358l-3 158q-85 -95 -178 -145t-215 -50q-177 0 -280 106t-103 304v747h363v-659q0 -185 166 -185q125 0 245 105v739h363z" />
    <glyph glyph-name="uacute" unicode="&#xfa;" horiz-adv-x="1425" 
d="M492 1251l251 351h428v-23l-360 -328h-319zM1276 1120v-1120h-358l-3 158q-85 -95 -178 -145t-215 -50q-177 0 -280 106t-103 304v747h363v-659q0 -185 166 -185q125 0 245 105v739h363z" />
    <glyph glyph-name="ucircumflex" unicode="&#xfb;" horiz-adv-x="1425" 
d="M217 1272l275 385h430l274 -385h-334l-119 166h-75l-119 -166h-332zM1276 1120v-1120h-358l-3 158q-85 -95 -178 -145t-215 -50q-177 0 -280 106t-103 304v747h363v-659q0 -185 166 -185q125 0 245 105v739h363z" />
    <glyph glyph-name="udieresis" unicode="&#xfc;" horiz-adv-x="1425" 
d="M438 1255q-88 0 -141 52t-53 129v2q0 77 52.5 127.5t141.5 50.5q90 0 142.5 -50.5t52.5 -127.5v-2q0 -78 -52.5 -129.5t-142.5 -51.5zM977 1255q-88 0 -141.5 52t-53.5 129v2q0 77 53 127.5t142 50.5q90 0 142 -50.5t52 -127.5v-2q0 -78 -52 -129.5t-142 -51.5z
M1276 1120v-1120h-358l-3 158q-85 -95 -178 -145t-215 -50q-177 0 -280 106t-103 304v747h363v-659q0 -185 166 -185q125 0 245 105v739h363z" />
    <glyph glyph-name="yacute" unicode="&#xfd;" horiz-adv-x="1325" 
d="M461 1251l252 351h428v-23l-361 -328h-319zM367 -416l133 369l-469 1167h370l283 -755l260 755h363l-590 -1536h-350z" />
    <glyph glyph-name="thorn" unicode="&#xfe;" horiz-adv-x="1458" 
d="M150 -416v1987h360v-584q141 166 358 166q220 0 362 -152.5t142 -412.5q-1 -181 -81 -323.5t-216.5 -220t-304.5 -77.5q-142 0 -258 58v-441h-362zM717 258q133 0 213 83t80 226q-1 142 -75 217.5t-196 75.5t-227 -80v-456q98 -66 205 -66z" />
    <glyph glyph-name="ydieresis" unicode="&#xff;" horiz-adv-x="1325" 
d="M408 1255q-88 0 -141.5 52t-53.5 129v2q0 77 53 127.5t142 50.5q90 0 142 -50.5t52 -127.5v-2q0 -78 -52 -129.5t-142 -51.5zM946 1255q-88 0 -141 52t-53 129v2q0 77 52.5 127.5t141.5 50.5q90 0 142.5 -50.5t52.5 -127.5v-2q0 -78 -52.5 -129.5t-142.5 -51.5zM367 -416
l133 369l-469 1167h370l283 -755l260 755h363l-590 -1536h-350z" />
    <glyph glyph-name="Amacron" unicode="&#x100;" horiz-adv-x="1746" 
d="M465 1618v252h819v-252h-819zM49 0l529 1434h591l527 -1434h-391l-115 317h-639l-115 -317h-387zM834 1102l-175 -484h424l-174 484h-75z" />
    <glyph glyph-name="amacron" unicode="&#x101;" horiz-adv-x="1294" 
d="M246 1335v252h819v-252h-819zM461 -33q-182 0 -279.5 85.5t-97.5 226.5q0 131 86 217q67 67 223 118.5t418 65.5v14q0 162 -193 162q-211 0 -430 -143h-2v319q232 123 488 123q249 0 369 -118t120 -341v-696h-332l-6 125q-149 -158 -364 -158zM567 217q73 0 140 28
t104 64v176q-283 -27 -356 -96q-29 -29 -29 -72q0 -45 37.5 -72.5t103.5 -27.5z" />
    <glyph glyph-name="Abreve" unicode="&#x102;" horiz-adv-x="1746" 
d="M874 1569q-197 0 -309 80t-112 233q0 60 14 117h262q-6 -35 -6 -60q0 -69 40.5 -95.5t110.5 -26.5t110 26t40 94q0 27 -6 62h262q14 -57 14 -119q0 -151 -111.5 -231t-308.5 -80zM49 0l529 1434h591l527 -1434h-391l-115 317h-639l-115 -317h-387zM834 1102l-175 -484
h424l-174 484h-75z" />
    <glyph glyph-name="abreve" unicode="&#x103;" horiz-adv-x="1294" 
d="M655 1286q-197 0 -309.5 80.5t-112.5 232.5q0 55 15 117h262q-6 -34 -6 -59q0 -69 40.5 -96t110.5 -27t110 26.5t40 94.5q0 27 -6 61h262q14 -57 14 -119q0 -151 -111.5 -231t-308.5 -80zM461 -33q-182 0 -279.5 85.5t-97.5 226.5q0 131 86 217q67 67 223 118.5t418 65.5
v14q0 162 -193 162q-211 0 -430 -143h-2v319q232 123 488 123q249 0 369 -118t120 -341v-696h-332l-6 125q-149 -158 -364 -158zM567 217q73 0 140 28t104 64v176q-283 -27 -356 -96q-29 -29 -29 -72q0 -45 37.5 -72.5t103.5 -27.5z" />
    <glyph glyph-name="Aogonek" unicode="&#x104;" horiz-adv-x="1746" 
d="M49 0l531 1434h591l525 -1432l2 -2l-111 -104q-97 -93 -117 -119q-24 -33 -24 -62q0 -73 123 -73q87 0 164 34v-251q-115 -37 -238 -37q-90 0 -158 17t-107 42t-63 60.5t-31.5 66.5t-7.5 66q0 82 47 155.5t144 155.5l-131 366h-637l-115 -317h-387zM834 1102l-175 -484
h426l-174 484h-77z" />
    <glyph glyph-name="aogonek" unicode="&#x105;" horiz-adv-x="1294" 
d="M461 -33q-182 0 -279.5 85.5t-97.5 226.5q0 131 86 217q67 67 223 118.5t418 65.5v14q0 162 -193 162q-211 0 -430 -143h-2v319q232 123 488 123q249 0 369 -118t120 -341v-696l-110 -104q-97 -93 -116 -118q-26 -33 -26 -63q0 -73 123 -73q87 0 164 34v-251
q-115 -37 -237 -37q-90 0 -158 17t-107 42t-63 60.5t-31.5 66.5t-7.5 66q0 90 58 171t179 177l-6 137q-149 -158 -364 -158zM567 217q73 0 140 28t104 64v176q-283 -27 -356 -96q-29 -29 -29 -72q0 -45 37.5 -72.5t103.5 -27.5z" />
    <glyph glyph-name="Cacute" unicode="&#x106;" horiz-adv-x="1597" 
d="M688 1624l252 350h428v-22l-360 -328h-320zM905 -35q-198 0 -352 58t-249.5 160.5t-144 236t-48.5 291.5t54.5 295t156 240t258.5 162.5t350 59.5q165 0 301.5 -45.5t234.5 -115.5v-363h-2q-147 97 -262.5 146t-259.5 49q-209 0 -329.5 -117.5t-120.5 -308.5
q0 -188 118 -303t330 -115q151 0 275 48t249 142h2v-366q-91 -63 -237.5 -108.5t-323.5 -45.5z" />
    <glyph glyph-name="cacute" unicode="&#x107;" horiz-adv-x="1226" 
d="M481 1303l252 350h428v-23l-360 -327h-320zM729 -37q-286 0 -464.5 156.5t-178.5 425.5q0 173 83 312.5t231 218.5t333 79q229 0 385 -106v-322h-2q-170 125 -352 125q-139 0 -226 -82t-87 -215t87 -211t226 -78q182 0 352 125h2v-319q-170 -109 -389 -109z" />
    <glyph glyph-name="Cdotaccent" unicode="&#x10a;" horiz-adv-x="1597" 
d="M903 1606q-104 0 -162.5 53.5t-58.5 134.5v2q0 82 58 135.5t161 53.5q104 0 162.5 -53t58.5 -136v-2q0 -81 -58.5 -134.5t-160.5 -53.5zM905 -35q-198 0 -352 58t-249.5 160.5t-144 236t-48.5 291.5t54.5 295t156 240t258.5 162.5t350 59.5q165 0 301.5 -45.5
t234.5 -115.5v-363h-2q-147 97 -262.5 146t-259.5 49q-209 0 -329.5 -117.5t-120.5 -308.5q0 -188 118 -303t330 -115q151 0 275 48t249 142h2v-366q-91 -63 -237.5 -108.5t-323.5 -45.5z" />
    <glyph glyph-name="cdotaccent" unicode="&#x10b;" horiz-adv-x="1226" 
d="M696 1284q-104 0 -162.5 54t-58.5 135v2q0 82 58 135t161 53q104 0 162.5 -53t58.5 -135v-2q0 -81 -58.5 -135t-160.5 -54zM729 -37q-286 0 -464.5 156.5t-178.5 425.5q0 173 83 312.5t231 218.5t333 79q229 0 385 -106v-322h-2q-170 125 -352 125q-139 0 -226 -82
t-87 -215t87 -211t226 -78q182 0 352 125h2v-319q-170 -109 -389 -109z" />
    <glyph glyph-name="Ccaron" unicode="&#x10c;" horiz-adv-x="1597" 
d="M1393 2007l-275 -385h-430l-274 385h334l118 -164h76l119 164h332zM905 -35q-198 0 -352 58t-249.5 160.5t-144 236t-48.5 291.5t54.5 295t156 240t258.5 162.5t350 59.5q165 0 301.5 -45.5t234.5 -115.5v-363h-2q-147 97 -262.5 146t-259.5 49q-209 0 -329.5 -117.5
t-120.5 -308.5q0 -188 118 -303t330 -115q151 0 275 48t249 142h2v-366q-91 -63 -237.5 -108.5t-323.5 -45.5z" />
    <glyph glyph-name="ccaron" unicode="&#x10d;" horiz-adv-x="1226" 
d="M1186 1686l-275 -386h-430l-274 386h334l118 -164h76l119 164h332zM729 -37q-286 0 -464.5 156.5t-178.5 425.5q0 173 83 312.5t231 218.5t333 79q229 0 385 -106v-322h-2q-170 125 -352 125q-139 0 -226 -82t-87 -215t87 -211t226 -78q182 0 352 125h2v-319
q-170 -109 -389 -109z" />
    <glyph glyph-name="Dcaron" unicode="&#x10e;" horiz-adv-x="1759" 
d="M1341 1970l-274 -385h-430l-275 385h334l119 -164h76l119 164h331zM190 0v1434h740q338 0 529.5 -188.5t191.5 -526.5q0 -339 -191.5 -529t-529.5 -190h-740zM565 322h340q365 0 365 393q0 201 -94.5 299t-270.5 98h-340v-790z" />
    <glyph glyph-name="dcaron" unicode="&#x10f;" horiz-adv-x="1458" 
d="M1307 1571v-1571h-353l-2 141q-144 -176 -364 -176q-107 0 -199 39t-159 111t-105.5 179t-38.5 236q0 181 80 323.5t217 220t305 77.5q143 0 256 -55v475h363zM1458 1204v367h348v-39l-153 -328h-195zM741 860q-133 0 -212.5 -82t-79.5 -225q0 -142 74 -218.5t196 -76.5
q61 0 120.5 22.5t104.5 59.5v457q-99 63 -203 63z" />
    <glyph glyph-name="Dcroat" unicode="&#x110;" horiz-adv-x="1837" 
d="M268 0v584h-194l22 272h172v578h740q339 0 530 -188t191 -527t-191 -529t-530 -190h-740zM643 319h340q365 0 365 396q0 201 -94.5 300t-270.5 99h-340v-266h387v-258h-387v-271z" />
    <glyph glyph-name="dcroat" unicode="&#x111;" horiz-adv-x="1484" 
d="M1493 1192h-186v-1192h-353l-2 139q-140 -174 -364 -174q-217 0 -359.5 146.5t-142.5 384.5q0 166 79.5 301t217.5 210.5t305 75.5q143 0 256 -55v164h-352v215h352v164h363v-164h172zM741 793q-131 0 -211.5 -76.5t-80.5 -198.5q0 -121 74.5 -190.5t195.5 -69.5
q61 0 120.5 22.5t104.5 59.5v389q-100 64 -203 64z" />
    <glyph glyph-name="Emacron" unicode="&#x112;" horiz-adv-x="1568" 
d="M412 1618v252h819v-252h-819zM190 0v1434h1225l15 -318h-867v-229h688v-301h-688v-269h893l-12 -317h-1254z" />
    <glyph glyph-name="emacron" unicode="&#x113;" horiz-adv-x="1345" 
d="M295 1333v252h819v-252h-819zM700 1157q137 0 245 -44t176 -123t103.5 -184.5t35.5 -232.5q0 -47 -7 -108h-807q42 -215 326 -215q211 0 416 115h2v-291q-205 -109 -451 -109q-315 0 -484 154.5t-169 417.5q0 178 75 319t215.5 221t323.5 80zM696 881q-98 0 -160.5 -56.5
t-84.5 -158.5h483q-8 98 -71.5 156.5t-166.5 58.5z" />
    <glyph glyph-name="Ebreve" unicode="&#x114;" horiz-adv-x="1568" 
d="M821 1569q-197 0 -309.5 80.5t-112.5 232.5q0 56 15 117h262q-6 -35 -6 -60q0 -69 40.5 -95.5t110.5 -26.5t110 26t40 94q0 27 -6 62h262q14 -57 14 -119q0 -151 -111.5 -231t-308.5 -80zM190 0v1434h1225l15 -318h-867v-229h688v-301h-688v-269h893l-12 -317h-1254z" />
    <glyph glyph-name="ebreve" unicode="&#x115;" horiz-adv-x="1345" 
d="M705 1284q-197 0 -309.5 80.5t-112.5 232.5q0 60 14 117h262q-6 -34 -6 -59q0 -69 41 -96t111 -27t109.5 26.5t39.5 94.5q0 27 -6 61h262q14 -57 14 -119q0 -151 -111 -231t-308 -80zM700 1157q137 0 245 -44t176 -123t103.5 -184.5t35.5 -232.5q0 -47 -7 -108h-807
q42 -215 326 -215q211 0 416 115h2v-291q-205 -109 -451 -109q-315 0 -484 154.5t-169 417.5q0 178 75 319t215.5 221t323.5 80zM696 881q-98 0 -160.5 -56.5t-84.5 -158.5h483q-8 98 -71.5 156.5t-166.5 58.5z" />
    <glyph glyph-name="Edotaccent" unicode="&#x116;" horiz-adv-x="1568" 
d="M821 1569q-104 0 -162.5 53.5t-58.5 134.5v2q0 82 58 135.5t161 53.5q104 0 162.5 -53t58.5 -136v-2q0 -81 -58.5 -134.5t-160.5 -53.5zM190 0v1434h1225l15 -318h-867v-229h688v-301h-688v-269h893l-12 -317h-1254z" />
    <glyph glyph-name="edotaccent" unicode="&#x117;" horiz-adv-x="1345" 
d="M707 1284q-104 0 -163 54t-59 135v2q0 82 58.5 135t161.5 53q104 0 162.5 -53t58.5 -135v-2q0 -81 -58.5 -135t-160.5 -54zM700 1157q137 0 245 -44t176 -123t103.5 -184.5t35.5 -232.5q0 -47 -7 -108h-807q42 -215 326 -215q211 0 416 115h2v-291q-205 -109 -451 -109
q-315 0 -484 154.5t-169 417.5q0 178 75 319t215.5 221t323.5 80zM696 881q-98 0 -160.5 -56.5t-84.5 -158.5h483q-8 98 -71.5 156.5t-166.5 58.5z" />
    <glyph glyph-name="Eogonek" unicode="&#x118;" horiz-adv-x="1568" 
d="M190 0v1434h1225l15 -318h-867v-229h688v-301h-688v-269h893l-12 -317l-111 -104q-97 -93 -117 -119q-24 -33 -24 -62q0 -73 123 -73q87 0 164 34v-251q-115 -37 -238 -37q-90 0 -158 17t-107 42t-63 60.5t-31.5 66.5t-7.5 66q0 92 61 175t189 183l2 2h-936z" />
    <glyph glyph-name="eogonek" unicode="&#x119;" horiz-adv-x="1345" 
d="M739 -35q-315 0 -484 154.5t-169 417.5q0 178 75 319t215.5 221t323.5 80q137 0 245 -44t176 -123t103.5 -184.5t35.5 -232.5q0 -47 -7 -108h-807q42 -215 326 -215q211 0 416 115h2v-291l-121 -144q-91 -107 -116 -152t-25 -85q0 -76 123 -76q77 0 163 35v-250
q-121 -39 -237 -39q-90 0 -158 17t-106.5 42t-63 60t-32 66t-7.5 65q0 90 55 167.5t177 182.5l10 8q-56 -6 -113 -6zM696 881q-98 0 -160.5 -56.5t-84.5 -158.5h483q-8 98 -71.5 156.5t-166.5 58.5z" />
    <glyph glyph-name="Ecaron" unicode="&#x11a;" horiz-adv-x="1568" 
d="M1311 1970l-275 -385h-430l-274 385h334l118 -164h76l119 164h332zM190 0v1434h1225l15 -318h-867v-229h688v-301h-688v-269h893l-12 -317h-1254z" />
    <glyph glyph-name="ecaron" unicode="&#x11b;" horiz-adv-x="1345" 
d="M1194 1686l-274 -386h-431l-274 386h334l119 -164h75l119 164h332zM700 1157q137 0 245 -44t176 -123t103.5 -184.5t35.5 -232.5q0 -47 -7 -108h-807q42 -215 326 -215q211 0 416 115h2v-291q-205 -109 -451 -109q-315 0 -484 154.5t-169 417.5q0 178 75 319t215.5 221
t323.5 80zM696 881q-98 0 -160.5 -56.5t-84.5 -158.5h483q-8 98 -71.5 156.5t-166.5 58.5z" />
    <glyph glyph-name="Gbreve" unicode="&#x11e;" horiz-adv-x="1765" 
d="M897 1606q-197 0 -309.5 80.5t-112.5 232.5q0 60 14 117h263q-7 -40 -7 -60q0 -69 41 -96t111 -27t110 26.5t40 94.5q0 22 -7 62h263q14 -57 14 -119q0 -151 -111.5 -231t-308.5 -80zM909 -37q-189 0 -341.5 55.5t-252 154.5t-153 233t-53.5 292t57 297t162.5 245.5
t268 168t361.5 61.5q157 0 301 -40.5t244 -108.5v-352h-2q-141 86 -264.5 131t-269.5 45q-226 0 -350.5 -120.5t-124.5 -326.5q0 -189 115.5 -304t330.5 -115q163 0 269.5 73.5t113.5 204.5h-467v285h823q6 -123 6 -148q0 -153 -41.5 -277t-113 -207.5t-171 -140t-211 -81.5
t-237.5 -25z" />
    <glyph glyph-name="gbreve" unicode="&#x11f;" horiz-adv-x="1277" 
d="M606 1292q-197 0 -309.5 80.5t-112.5 233.5q0 54 15 116h262q-6 -34 -6 -59q0 -69 40.5 -96t110.5 -27t110 26.5t40 94.5q0 27 -6 61h262q14 -57 14 -118q0 -151 -111.5 -231.5t-308.5 -80.5zM637 342q-30 0 -84 4l-16 -102q271 -22 432 -66.5t231 -112.5t70 -171
q0 -48 -18.5 -95t-64.5 -94t-115.5 -82.5t-181 -57.5t-251.5 -22q-297 0 -450.5 79t-153.5 210q0 71 48 132t167 116l65 321q-108 50 -163.5 136t-55.5 196q0 183 145 301.5t396 118.5q95 0 168 -18l104 157h375v-16l-254 -248q146 -109 146 -285q0 -179 -144 -290
t-395 -111zM639 573q91 0 147 45.5t56 129.5q0 80 -56.5 126t-146.5 46q-92 0 -148.5 -47t-56.5 -128q0 -84 55.5 -128t149.5 -44zM674 -229q130 0 202 27t72 69q0 23 -32 43t-98 37.5t-179.5 30.5t-265.5 20q-56 -45 -56 -90q0 -69 101 -103t256 -34z" />
    <glyph glyph-name="Gdotaccent" unicode="&#x120;" horiz-adv-x="1765" 
d="M897 1606q-104 0 -162.5 53.5t-58.5 134.5v2q0 82 58 135.5t161 53.5q104 0 162.5 -53t58.5 -136v-2q0 -81 -58.5 -134.5t-160.5 -53.5zM909 -37q-189 0 -341.5 55.5t-252 154.5t-153 233t-53.5 292t57 297t162.5 245.5t268 168t361.5 61.5q157 0 301 -40.5t244 -108.5
v-352h-2q-141 86 -264.5 131t-269.5 45q-226 0 -350.5 -120.5t-124.5 -326.5q0 -189 115.5 -304t330.5 -115q163 0 269.5 73.5t113.5 204.5h-467v285h823q6 -123 6 -148q0 -153 -41.5 -277t-113 -207.5t-171 -140t-211 -81.5t-237.5 -25z" />
    <glyph glyph-name="gdotaccent" unicode="&#x121;" horiz-adv-x="1277" 
d="M608 1292q-104 0 -162.5 54t-58.5 135v2q0 82 58 135t161 53q104 0 162.5 -53t58.5 -135v-2q0 -81 -58.5 -135t-160.5 -54zM637 342q-30 0 -84 4l-16 -102q271 -22 432 -66.5t231 -112.5t70 -171q0 -48 -18.5 -95t-64.5 -94t-115.5 -82.5t-181 -57.5t-251.5 -22
q-297 0 -450.5 79t-153.5 210q0 71 48 132t167 116l65 321q-108 50 -163.5 136t-55.5 196q0 183 145 301.5t396 118.5q95 0 168 -18l104 157h375v-16l-254 -248q146 -109 146 -285q0 -179 -144 -290t-395 -111zM639 573q91 0 147 45.5t56 129.5q0 80 -56.5 126t-146.5 46
q-92 0 -148.5 -47t-56.5 -128q0 -84 55.5 -128t149.5 -44zM674 -229q130 0 202 27t72 69q0 23 -32 43t-98 37.5t-179.5 30.5t-265.5 20q-56 -45 -56 -90q0 -69 101 -103t256 -34z" />
    <glyph glyph-name="uni0122" unicode="&#x122;" horiz-adv-x="1765" 
d="M909 -37q-189 0 -341.5 55.5t-252 154.5t-153 233t-53.5 292t57 297t162.5 245.5t268 168t361.5 61.5q157 0 301 -40.5t244 -108.5v-352h-2q-141 86 -264.5 131t-269.5 45q-226 0 -350.5 -120.5t-124.5 -326.5q0 -189 115.5 -304t330.5 -115q163 0 269.5 73.5
t113.5 204.5h-467v285h823q6 -123 6 -148q0 -153 -41.5 -277t-113 -207.5t-171 -140t-211 -81.5t-237.5 -25zM623 -637l116 434h383v-37l-282 -397h-217z" />
    <glyph glyph-name="uni0123" unicode="&#x123;" horiz-adv-x="1277" 
d="M903 1735l-117 -435h-383v37l283 398h217zM637 342q-30 0 -84 4l-16 -102q271 -22 432 -66.5t231 -112.5t70 -171q0 -48 -18.5 -95t-64.5 -94t-115.5 -82.5t-181 -57.5t-251.5 -22q-297 0 -450.5 79t-153.5 210q0 71 48 132t167 116l65 321q-108 50 -163.5 136t-55.5 196
q0 183 145 301.5t396 118.5q95 0 168 -18l104 157h375v-16l-254 -248q146 -109 146 -285q0 -179 -144 -290t-395 -111zM639 573q91 0 147 45.5t56 129.5q0 80 -56.5 126t-146.5 46q-92 0 -148.5 -47t-56.5 -128q0 -84 55.5 -128t149.5 -44zM674 -229q130 0 202 27t72 69
q0 23 -32 43t-98 37.5t-179.5 30.5t-265.5 20q-56 -45 -56 -90q0 -69 101 -103t256 -34z" />
    <glyph glyph-name="Hbar" unicode="&#x126;" horiz-adv-x="1964" 
d="M268 0v989h-194l14 273h180v172h375v-185h678v185h375v-172h180l12 -273h-192v-989h-375v494h-678v-494h-375zM643 823h678v181h-678v-181z" />
    <glyph glyph-name="hbar" unicode="&#x127;" horiz-adv-x="1452" 
d="M176 0v1192h-184l12 215h172v164h361v-164h354v-215h-354v-293q85 94 179.5 144.5t215.5 50.5q176 0 278.5 -106t102.5 -304v-684h-363v596q0 101 -44.5 142.5t-121.5 41.5q-126 0 -245 -104v-676h-363z" />
    <glyph glyph-name="Imacron" unicode="&#x12a;" horiz-adv-x="763" 
d="M-29 1618v252h820v-252h-820zM195 0v1434h374v-1434h-374z" />
    <glyph glyph-name="imacron" unicode="&#x12b;" horiz-adv-x="669" 
d="M-76 1305v251h819v-251h-819zM154 0v1120h362v-1120h-362z" />
    <glyph glyph-name="Ibreve" unicode="&#x12c;" horiz-adv-x="763" 
d="M381 1569q-197 0 -309.5 80.5t-112.5 232.5q0 60 14 117h263q-7 -40 -7 -60q0 -69 40.5 -95.5t111.5 -26.5q70 0 109.5 26t39.5 94q0 27 -6 62h262q15 -62 15 -119q0 -151 -111.5 -231t-308.5 -80zM195 0v1434h374v-1434h-374z" />
    <glyph glyph-name="ibreve" unicode="&#x12d;" horiz-adv-x="669" 
d="M334 1255q-197 0 -309.5 80.5t-112.5 233.5q0 60 14 117h262q-6 -34 -6 -60q0 -69 41 -96t111 -27t109.5 26.5t39.5 94.5q0 28 -6 62h262q15 -61 15 -119q0 -151 -111.5 -231.5t-308.5 -80.5zM154 0v1120h362v-1120h-362z" />
    <glyph glyph-name="Iogonek" unicode="&#x12e;" horiz-adv-x="763" 
d="M606 -575q-115 -37 -237 -37q-90 0 -158 17t-107 42t-63 60.5t-31.5 66.5t-7.5 66q0 81 48 155t145 156v1483h374v-1432l2 -2l-110 -104q-97 -93 -116 -118q-26 -33 -26 -63q0 -73 123 -73q87 0 164 34v-251z" />
    <glyph glyph-name="iogonek" unicode="&#x12f;" horiz-adv-x="669" 
d="M336 1255q-104 0 -162.5 54t-58.5 135v2q0 82 58 135t161 53q104 0 162.5 -53t58.5 -135v-2q0 -81 -58.5 -135t-160.5 -54zM551 -575q-115 -37 -238 -37q-90 0 -158 17t-106.5 42t-62.5 60.5t-31.5 66.5t-7.5 66q0 84 50.5 159.5t156.5 163.5v1157h362v-1120l-110 -104
q-97 -93 -116 -118q-26 -33 -26 -63q0 -73 123 -73q87 0 164 34v-251z" />
    <glyph glyph-name="Idotaccent" unicode="&#x130;" horiz-adv-x="763" 
d="M383 1569q-104 0 -162.5 53.5t-58.5 134.5v2q0 82 58 135.5t161 53.5q104 0 162.5 -53t58.5 -136v-2q0 -81 -58.5 -134.5t-160.5 -53.5zM195 0v1434h374v-1434h-374z" />
    <glyph glyph-name="dotlessi" unicode="&#x131;" horiz-adv-x="669" 
d="M154 0v1120h362v-1120h-362z" />
    <glyph glyph-name="uni0136" unicode="&#x136;" horiz-adv-x="1705" 
d="M190 0v1434h375v-543h207l447 543h428v-2l-570 -687l600 -743v-2h-446l-467 571h-199v-571h-375zM555 -565l117 434h383v-37l-283 -397h-217z" />
    <glyph glyph-name="uni0137" unicode="&#x137;" horiz-adv-x="1366" 
d="M150 0v1571h362v-856h143l267 405h405v-2l-364 -528l395 -588v-2h-418l-281 432h-147v-432h-362zM401 -567l117 434h383v-37l-283 -397h-217z" />
    <glyph glyph-name="Lacute" unicode="&#x139;" horiz-adv-x="1429" 
d="M219 1587l252 350h428v-22l-360 -328h-320zM190 0v1434h375v-1102h789l-15 -332h-1149z" />
    <glyph glyph-name="lacute" unicode="&#x13a;" horiz-adv-x="669" 
d="M178 1726l252 351h428v-23l-360 -328h-320zM154 0v1571h362v-1571h-362z" />
    <glyph glyph-name="uni013B" unicode="&#x13b;" horiz-adv-x="1429" 
d="M190 0v1434h375v-1102h789l-15 -332h-1149zM473 -600l117 434h383v-37l-283 -397h-217z" />
    <glyph glyph-name="uni013C" unicode="&#x13c;" horiz-adv-x="669" 
d="M154 0v1571h362v-1571h-362zM18 -600l117 434h383v-37l-282 -397h-218z" />
    <glyph glyph-name="Lcaron" unicode="&#x13d;" horiz-adv-x="1429" 
d="M190 0v1434h375v-1102h789l-15 -332h-1149zM745 1067v367h349v-39l-154 -328h-195z" />
    <glyph glyph-name="lcaron" unicode="&#x13e;" horiz-adv-x="669" 
d="M154 0v1571h362v-1571h-362zM668 1204v367h348v-39l-154 -328h-194z" />
    <glyph glyph-name="Ldot" unicode="&#x13f;" horiz-adv-x="1429" 
d="M190 0v1434h375v-1102h789l-15 -332h-1149zM1094 707q-93 0 -149 53.5t-56 134.5v2q0 81 56 134.5t149 53.5t148.5 -53t55.5 -135v-2q0 -82 -55.5 -135t-148.5 -53z" />
    <glyph glyph-name="ldot" unicode="&#x140;" horiz-adv-x="1054" 
d="M154 0v1571h362v-1571h-362zM862 608q-93 0 -149 54.5t-56 136.5q0 83 55.5 136.5t147.5 53.5q95 0 151 -53.5t56 -136.5q0 -82 -56 -136.5t-149 -54.5z" />
    <glyph glyph-name="Lslash" unicode="&#x141;" horiz-adv-x="1497" 
d="M258 0v442l-184 -88v314l184 90v676h375v-494l444 217v-315l-444 -217v-293h786l-12 -332h-1149z" />
    <glyph glyph-name="lslash" unicode="&#x142;" horiz-adv-x="860" 
d="M248 0v557l-211 -117v277l211 117v737h362v-535l213 119v-278l-213 -119v-758h-362z" />
    <glyph glyph-name="Nacute" unicode="&#x143;" horiz-adv-x="1816" 
d="M733 1550l252 351h428v-23l-360 -328h-320zM190 0v1434h400l667 -881h9v881h360v-1434h-383l-684 907h-8v-907h-361z" />
    <glyph glyph-name="nacute" unicode="&#x144;" horiz-adv-x="1425" 
d="M514 1298l252 351h428v-23l-360 -328h-320zM150 0v1120h358l2 -162q85 95 179 146t216 51q176 0 278.5 -104.5t102.5 -302.5v-748h-362v659q0 185 -166 185q-123 0 -246 -107v-737h-362z" />
    <glyph glyph-name="uni0145" unicode="&#x145;" horiz-adv-x="1816" 
d="M190 0v1434h400l667 -881h9v881h360v-1434h-383l-684 907h-8v-907h-361zM592 -563l117 434h383v-37l-283 -397h-217z" />
    <glyph glyph-name="uni0146" unicode="&#x146;" horiz-adv-x="1425" 
d="M150 0v1120h358l2 -162q85 95 179 146t216 51q176 0 278.5 -104.5t102.5 -302.5v-748h-362v659q0 185 -166 185q-123 0 -246 -107v-737h-362zM432 -575l117 434h383v-37l-283 -397h-217z" />
    <glyph glyph-name="Ncaron" unicode="&#x147;" horiz-adv-x="1816" 
d="M1427 1933l-274 -385h-430l-274 385h333l119 -164h76l119 164h331zM190 0v1434h400l667 -881h9v881h360v-1434h-383l-684 907h-8v-907h-361z" />
    <glyph glyph-name="ncaron" unicode="&#x148;" horiz-adv-x="1425" 
d="M1219 1681l-275 -385h-430l-274 385h333l119 -163h76l119 163h332zM150 0v1120h358l2 -162q85 95 179 146t216 51q176 0 278.5 -104.5t102.5 -302.5v-748h-362v659q0 185 -166 185q-123 0 -246 -107v-737h-362z" />
    <glyph glyph-name="Omacron" unicode="&#x14c;" horiz-adv-x="1828" 
d="M504 1657v252h819v-252h-819zM913 -39q-368 0 -585 205t-217 551t217 551t585 205q370 0 587.5 -205t217.5 -551t-217.5 -551t-587.5 -205zM913 289q202 0 315 113.5t113 314.5q0 202 -111.5 315t-314.5 113q-202 0 -315 -113.5t-113 -314.5q0 -202 111.5 -315
t314.5 -113z" />
    <glyph glyph-name="omacron" unicode="&#x14d;" horiz-adv-x="1429" 
d="M305 1333v252h819v-252h-819zM715 -37q-192 0 -336 78t-218.5 212.5t-74.5 305.5q0 263 170 430.5t459 167.5t458.5 -167.5t169.5 -430.5q0 -128 -43.5 -237.5t-123 -189t-198 -124.5t-263.5 -45zM715 254q125 0 197.5 83.5t72.5 221.5t-72.5 222.5t-197.5 84.5
q-126 0 -198.5 -84.5t-72.5 -222.5t72.5 -221.5t198.5 -83.5z" />
    <glyph glyph-name="Obreve" unicode="&#x14e;" horiz-adv-x="1828" 
d="M913 1608q-197 0 -309 80t-112 233q0 60 14 117h262q-6 -34 -6 -60q0 -69 40.5 -96t110.5 -27t110 26.5t40 94.5q0 28 -6 62h262q14 -57 14 -119q0 -151 -111.5 -231t-308.5 -80zM913 -39q-368 0 -585 205t-217 551t217 551t585 205q370 0 587.5 -205t217.5 -551
t-217.5 -551t-587.5 -205zM913 289q202 0 315 113.5t113 314.5q0 202 -111.5 315t-314.5 113q-202 0 -315 -113.5t-113 -314.5q0 -202 111.5 -315t314.5 -113z" />
    <glyph glyph-name="obreve" unicode="&#x14f;" horiz-adv-x="1429" 
d="M715 1284q-197 0 -309.5 80.5t-112.5 232.5q0 60 14 117h262q-6 -34 -6 -59q0 -69 41 -96t111 -27t109.5 26.5t39.5 94.5q0 27 -6 61h262q15 -62 15 -119q0 -151 -111.5 -231t-308.5 -80zM715 -37q-192 0 -336 78t-218.5 212.5t-74.5 305.5q0 263 170 430.5t459 167.5
t458.5 -167.5t169.5 -430.5q0 -128 -43.5 -237.5t-123 -189t-198 -124.5t-263.5 -45zM715 254q125 0 197.5 83.5t72.5 221.5t-72.5 222.5t-197.5 84.5q-126 0 -198.5 -84.5t-72.5 -222.5t72.5 -221.5t198.5 -83.5z" />
    <glyph glyph-name="Ohungarumlaut" unicode="&#x150;" horiz-adv-x="1828" 
d="M1016 1624l217 352h373v-24l-336 -328h-254zM530 1624l220 352h372v-24l-336 -328h-256zM913 -39q-368 0 -585 205t-217 551t217 551t585 205q370 0 587.5 -205t217.5 -551t-217.5 -551t-587.5 -205zM913 289q202 0 315 113.5t113 314.5q0 202 -111.5 315t-314.5 113
q-202 0 -315 -113.5t-113 -314.5q0 -202 111.5 -315t314.5 -113z" />
    <glyph glyph-name="ohungarumlaut" unicode="&#x151;" horiz-adv-x="1429" 
d="M815 1300l217 353h373v-25l-336 -328h-254zM330 1300l219 353h373v-25l-336 -328h-256zM715 -37q-192 0 -336 78t-218.5 212.5t-74.5 305.5q0 263 170 430.5t459 167.5t458.5 -167.5t169.5 -430.5q0 -128 -43.5 -237.5t-123 -189t-198 -124.5t-263.5 -45zM715 254
q125 0 197.5 83.5t72.5 221.5t-72.5 222.5t-197.5 84.5q-126 0 -198.5 -84.5t-72.5 -222.5t72.5 -221.5t198.5 -83.5z" />
    <glyph glyph-name="OE" unicode="&#x152;" horiz-adv-x="2574" 
d="M111 715q0 339 190.5 529t527.5 190h1592l12 -318h-864v-229h688v-301h-688v-269h893l-15 -317h-1618q-338 0 -528 188t-190 527zM1194 1112h-338q-364 0 -364 -393q0 -397 364 -397h338v790z" />
    <glyph glyph-name="oe" unicode="&#x153;" horiz-adv-x="2242" 
d="M1645 -35q-336 0 -488 193q-150 -195 -450 -195q-142 0 -259 45t-196 124.5t-122.5 189t-43.5 237.5q0 129 43.5 238.5t122.5 189.5t196 125t259 45q311 0 460 -213q149 213 441 213q135 0 240.5 -44t173 -123t102.5 -184.5t35 -232.5q0 -47 -7 -108h-806
q42 -215 325 -215q211 0 416 115h2v-291q-209 -109 -444 -109zM1595 881q-100 0 -162 -56.5t-83 -158.5h483q-8 98 -71.5 156.5t-166.5 58.5zM715 254q127 0 198.5 83t71.5 222t-71.5 223t-198.5 84q-126 0 -198.5 -84.5t-72.5 -222.5t72.5 -221.5t198.5 -83.5z" />
    <glyph glyph-name="Racute" unicode="&#x154;" horiz-adv-x="1665" 
d="M616 1587l252 350h428v-22l-360 -328h-320zM190 0v1434h801q279 0 418 -128t139 -376q0 -353 -293 -459l353 -471h-432l-285 399h-326v-399h-375zM565 707h393q213 0 213 206q0 203 -213 203h-393v-409z" />
    <glyph glyph-name="racute" unicode="&#x155;" horiz-adv-x="915" 
d="M305 1292l252 350h428v-22l-360 -328h-320zM150 0v1120h360v-207q62 111 143 171.5t170 60.5q24 0 47 -2v-363q-29 4 -77 4q-213 0 -281 -127v-657h-362z" />
    <glyph glyph-name="uni0156" unicode="&#x156;" horiz-adv-x="1665" 
d="M190 0v1434h801q279 0 418 -128t139 -376q0 -353 -293 -459l353 -471h-432l-285 399h-326v-399h-375zM565 707h393q213 0 213 206q0 203 -213 203h-393v-409zM561 -565l117 434h383v-37l-283 -397h-217z" />
    <glyph glyph-name="uni0157" unicode="&#x157;" horiz-adv-x="915" 
d="M150 0v1120h360v-207q62 111 143 171.5t170 60.5q24 0 47 -2v-363q-29 4 -77 4q-213 0 -281 -127v-657h-362zM23 -600l116 434h383v-37l-282 -397h-217z" />
    <glyph glyph-name="Rcaron" unicode="&#x158;" horiz-adv-x="1665" 
d="M1321 1970l-274 -385h-431l-274 385h334l119 -164h75l119 164h332zM190 0v1434h801q279 0 418 -128t139 -376q0 -353 -293 -459l353 -471h-432l-285 399h-326v-399h-375zM565 707h393q213 0 213 206q0 203 -213 203h-393v-409z" />
    <glyph glyph-name="rcaron" unicode="&#x159;" horiz-adv-x="915" 
d="M1006 1675l-275 -385h-430l-274 385h333l119 -164h76l119 164h332zM150 0v1120h360v-207q62 111 143 171.5t170 60.5q24 0 47 -2v-363q-29 4 -77 4q-213 0 -281 -127v-657h-362z" />
    <glyph glyph-name="Sacute" unicode="&#x15a;" horiz-adv-x="1531" 
d="M604 1624l252 350h428v-22l-360 -328h-320zM799 -35q-338 0 -652 137v361h3q166 -87 337.5 -133.5t323.5 -46.5q128 0 194 33.5t66 95.5q0 22 -6 37.5t-23.5 30t-42.5 25t-71 22t-101 22t-139 24.5q-96 15 -170 34.5t-147.5 52.5t-121 77t-77 110t-29.5 150q0 97 42 181
t122.5 149.5t211 103t296.5 37.5q139 0 281.5 -31.5t263.5 -90.5v-359h-2q-127 75 -281 119.5t-291 44.5q-258 0 -258 -127q0 -32 19 -54.5t60.5 -37t92 -25t128.5 -24.5q50 -8 77 -13q69 -12 123 -24.5t113.5 -31.5t103 -42t85 -56t67.5 -73.5t41.5 -94.5t15.5 -118
q0 -66 -17.5 -127.5t-64.5 -124.5t-118 -109t-188.5 -75t-266.5 -29z" />
    <glyph glyph-name="sacute" unicode="&#x15b;" horiz-adv-x="1202" 
d="M399 1303l252 350h428v-23l-360 -327h-320zM623 -37q-264 0 -496 123v303h2q117 -72 251 -112.5t257 -40.5q80 0 115.5 20.5t35.5 62.5q0 26 -14.5 41t-68.5 33.5t-166 42.5q-224 48 -319 122t-95 224q0 168 134 270.5t364 102.5q114 0 235.5 -31t194.5 -73v-297h-2
q-99 58 -223 93.5t-222 35.5q-137 0 -137 -76q0 -26 18.5 -42t72 -33.5t169.5 -43.5q221 -51 310 -129.5t89 -224.5q0 -76 -27.5 -140.5t-85 -117.5t-158 -83t-234.5 -30z" />
    <glyph glyph-name="Scedilla" unicode="&#x15e;" horiz-adv-x="1531" 
d="M350 -385v27l297 329q-258 24 -500 131v361h3q166 -87 337.5 -133.5t323.5 -46.5q128 0 194 33.5t66 95.5q0 22 -6 37.5t-23.5 30t-42.5 25t-71 22t-101 22t-139 24.5q-96 15 -170 34.5t-147.5 52.5t-121 77t-77 110t-29.5 150q0 97 42 181t122.5 149.5t211 103
t296.5 37.5q139 0 281.5 -31.5t263.5 -90.5v-359h-2q-127 75 -281 119.5t-291 44.5q-258 0 -258 -127q0 -32 19 -54.5t60.5 -37t92 -25t128.5 -24.5q50 -8 77 -13q69 -12 123 -24.5t113.5 -31.5t103 -42t85 -56t67.5 -73.5t41.5 -94.5t15.5 -118q0 -58 -14 -113t-50 -112.5
t-91 -103t-144.5 -80t-202.5 -48.5l-172 -358h-430z" />
    <glyph glyph-name="scedilla" unicode="&#x15f;" horiz-adv-x="1202" 
d="M199 -385v27l295 329q-192 22 -367 115v303h2q117 -72 251 -112.5t257 -40.5q80 0 115.5 20.5t35.5 62.5q0 26 -14.5 41t-68.5 33.5t-166 42.5q-224 48 -319 122t-95 224q0 168 134 270.5t364 102.5q114 0 235.5 -31t194.5 -73v-297h-2q-99 58 -223 93.5t-222 35.5
q-137 0 -137 -76q0 -26 18.5 -42t72 -33.5t169.5 -43.5q221 -51 310 -129.5t89 -224.5q0 -128 -79 -223.5t-244 -130.5l-176 -365h-430z" />
    <glyph glyph-name="Scaron" unicode="&#x160;" horiz-adv-x="1531" 
d="M1309 2007l-275 -385h-430l-274 385h334l118 -164h76l119 164h332zM799 -35q-338 0 -652 137v361h3q166 -87 337.5 -133.5t323.5 -46.5q128 0 194 33.5t66 95.5q0 22 -6 37.5t-23.5 30t-42.5 25t-71 22t-101 22t-139 24.5q-96 15 -170 34.5t-147.5 52.5t-121 77t-77 110
t-29.5 150q0 97 42 181t122.5 149.5t211 103t296.5 37.5q139 0 281.5 -31.5t263.5 -90.5v-359h-2q-127 75 -281 119.5t-291 44.5q-258 0 -258 -127q0 -32 19 -54.5t60.5 -37t92 -25t128.5 -24.5q50 -8 77 -13q69 -12 123 -24.5t113.5 -31.5t103 -42t85 -56t67.5 -73.5
t41.5 -94.5t15.5 -118q0 -66 -17.5 -127.5t-64.5 -124.5t-118 -109t-188.5 -75t-266.5 -29z" />
    <glyph glyph-name="scaron" unicode="&#x161;" horiz-adv-x="1202" 
d="M1104 1686l-275 -386h-430l-274 386h334l119 -164h75l119 164h332zM623 -37q-264 0 -496 123v303h2q117 -72 251 -112.5t257 -40.5q80 0 115.5 20.5t35.5 62.5q0 26 -14.5 41t-68.5 33.5t-166 42.5q-224 48 -319 122t-95 224q0 168 134 270.5t364 102.5q114 0 235.5 -31
t194.5 -73v-297h-2q-99 58 -223 93.5t-222 35.5q-137 0 -137 -76q0 -26 18.5 -42t72 -33.5t169.5 -43.5q221 -51 310 -129.5t89 -224.5q0 -76 -27.5 -140.5t-85 -117.5t-158 -83t-234.5 -30z" />
    <glyph glyph-name="uni0162" unicode="&#x162;" horiz-adv-x="1542" 
d="M584 0v1102h-510l14 332h1368l12 -332h-510v-1102h-374zM455 -600l116 434h383v-37l-282 -397h-217z" />
    <glyph glyph-name="uni0163" unicode="&#x163;" horiz-adv-x="935" 
d="M285 0v838h-244l53 282h191v252l358 41v-293h248v-282h-248v-838h-358zM143 -600l117 434h383v-37l-283 -397h-217z" />
    <glyph glyph-name="Tcaron" unicode="&#x164;" horiz-adv-x="1542" 
d="M1262 1970l-275 -385h-430l-274 385h333l119 -164h76l119 164h332zM584 0v1102h-510l14 332h1368l12 -332h-510v-1102h-374z" />
    <glyph glyph-name="tcaron" unicode="&#x165;" horiz-adv-x="935" 
d="M791 1255v367h348v-39l-154 -328h-194zM285 0v838h-244l53 282h191v252l358 41v-293h248v-282h-248v-838h-358z" />
    <glyph glyph-name="Umacron" unicode="&#x16a;" horiz-adv-x="1773" 
d="M477 1618v252h819v-252h-819zM885 -39q-159 0 -284.5 32.5t-222 101.5t-148.5 186t-52 276v877h377v-852q0 -78 26.5 -134.5t74 -88t104.5 -46t127 -14.5t127 13.5t105 44t75 85.5t27 131v861h374v-869q0 -130 -35 -233t-97 -172t-152 -114t-195 -65t-231 -20z" />
    <glyph glyph-name="umacron" unicode="&#x16b;" horiz-adv-x="1425" 
d="M297 1305v251h819v-251h-819zM1276 1120v-1120h-358l-3 158q-85 -95 -178 -145t-215 -50q-177 0 -280 106t-103 304v747h363v-659q0 -185 166 -185q125 0 245 105v739h363z" />
    <glyph glyph-name="Ubreve" unicode="&#x16c;" horiz-adv-x="1773" 
d="M887 1534q-197 0 -309.5 80.5t-112.5 232.5q0 60 14 117h262q-6 -35 -6 -59q0 -69 41 -96t111 -27t109.5 26.5t39.5 94.5q0 26 -6 61h262q15 -62 15 -119q0 -151 -111.5 -231t-308.5 -80zM885 -39q-159 0 -284.5 32.5t-222 101.5t-148.5 186t-52 276v877h377v-852
q0 -78 26.5 -134.5t74 -88t104.5 -46t127 -14.5t127 13.5t105 44t75 85.5t27 131v861h374v-869q0 -130 -35 -233t-97 -172t-152 -114t-195 -65t-231 -20z" />
    <glyph glyph-name="ubreve" unicode="&#x16d;" horiz-adv-x="1425" 
d="M707 1233q-197 0 -309.5 80.5t-112.5 232.5q0 60 14 117h262q-6 -35 -6 -59q0 -69 41 -96t111 -27t109.5 26.5t39.5 94.5q0 26 -6 61h262q14 -57 14 -119q0 -151 -111 -231t-308 -80zM1276 1120v-1120h-358l-3 158q-85 -95 -178 -145t-215 -50q-177 0 -280 106t-103 304
v747h363v-659q0 -185 166 -185q125 0 245 105v739h363z" />
    <glyph glyph-name="Uring" unicode="&#x16e;" horiz-adv-x="1773" 
d="M883 1534q-175 0 -274 82.5t-99 232.5q0 153 100 238.5t277 85.5q176 0 276.5 -84.5t100.5 -237.5q0 -149 -102.5 -233t-278.5 -84zM887 1726q68 0 106.5 32.5t38.5 92.5q0 61 -39.5 95t-107.5 34q-69 0 -109.5 -33.5t-40.5 -95.5q0 -58 41 -91.5t111 -33.5zM885 -39
q-159 0 -284.5 32.5t-222 101.5t-148.5 186t-52 276v877h377v-852q0 -78 26.5 -134.5t74 -88t104.5 -46t127 -14.5t127 13.5t105 44t75 85.5t27 131v861h374v-869q0 -130 -35 -233t-97 -172t-152 -114t-195 -65t-231 -20z" />
    <glyph glyph-name="uring" unicode="&#x16f;" horiz-adv-x="1425" 
d="M702 1233q-174 0 -273 82.5t-99 232.5q0 153 100 238.5t277 85.5q176 0 276 -84.5t100 -237.5q0 -149 -102.5 -233t-278.5 -84zM707 1425q68 0 106.5 32.5t38.5 92.5q0 61 -39.5 95t-107.5 34q-69 0 -109.5 -33.5t-40.5 -95.5q0 -58 41 -91.5t111 -33.5zM1276 1120v-1120
h-358l-3 158q-85 -95 -178 -145t-215 -50q-177 0 -280 106t-103 304v747h363v-659q0 -185 166 -185q125 0 245 105v739h363z" />
    <glyph glyph-name="Uhungarumlaut" unicode="&#x170;" horiz-adv-x="1773" 
d="M977 1585l217 352h373v-24l-336 -328h-254zM492 1585l219 352h372v-24l-335 -328h-256zM885 -39q-159 0 -284.5 32.5t-222 101.5t-148.5 186t-52 276v877h377v-852q0 -78 26.5 -134.5t74 -88t104.5 -46t127 -14.5t127 13.5t105 44t75 85.5t27 131v861h374v-869
q0 -130 -35 -233t-97 -172t-152 -114t-195 -65t-231 -20z" />
    <glyph glyph-name="uhungarumlaut" unicode="&#x171;" horiz-adv-x="1425" 
d="M801 1272l217 352h373v-25l-336 -327h-254zM315 1272l220 352h372v-25l-336 -327h-256zM1276 1120v-1120h-358l-3 158q-85 -95 -178 -145t-215 -50q-177 0 -280 106t-103 304v747h363v-659q0 -185 166 -185q125 0 245 105v739h363z" />
    <glyph glyph-name="Uogonek" unicode="&#x172;" horiz-adv-x="1773" 
d="M1174 -582q-112 -36 -238 -36q-90 0 -158 16.5t-107 42t-63 60.5t-31.5 66.5t-7.5 65.5q0 85 53 162.5t162 169.5q-137 10 -245.5 47.5t-190.5 107.5t-126 180.5t-44 256.5v877h377v-852q0 -78 26.5 -134.5t74 -88t104.5 -46t127 -14.5t127 13.5t105 44t75 85.5t27 131
v861h374v-869q0 -252 -123 -394t-344 -187l-100 -95q-97 -93 -115 -117q-26 -33 -26 -63q0 -74 123 -74q84 0 164 35v-252z" />
    <glyph glyph-name="uogonek" unicode="&#x173;" horiz-adv-x="1425" 
d="M1276 1120v-1120l-111 -104q-97 -93 -117 -119q-24 -33 -24 -62q0 -73 123 -73q87 0 164 34v-251q-115 -37 -238 -37q-90 0 -158 17t-106.5 42t-62.5 60.5t-31.5 66.5t-7.5 66q0 85 53 162t162 167l-4 189q-86 -95 -180 -145t-216 -50q-177 0 -280 106t-103 304v747h363
v-659q0 -185 166 -185q125 0 245 105v739h363z" />
    <glyph glyph-name="Wcircumflex" unicode="&#x174;" horiz-adv-x="2519" 
d="M770 1585l274 385h431l274 -385h-334l-119 166h-75l-119 -166h-332zM463 0l-387 1434h397l262 -1055h23l332 1055h366l326 -1055h24l254 1055h383l-385 -1434h-502l-286 922h-13l-288 -922h-506z" />
    <glyph glyph-name="wcircumflex" unicode="&#x175;" horiz-adv-x="2068" 
d="M551 1272l274 385h430l275 -385h-334l-119 166h-76l-118 -166h-332zM375 0l-328 1120h377l190 -776h29l209 766h377l213 -766h31l188 776h360l-329 -1120h-459l-182 690h-31l-186 -690h-459z" />
    <glyph glyph-name="Ycircumflex" unicode="&#x176;" horiz-adv-x="1669" 
d="M344 1585l274 385h431l274 -385h-334l-119 166h-75l-119 -166h-332zM647 0v475l-637 959h430l385 -600h23l393 600h416l-635 -953v-481h-375z" />
    <glyph glyph-name="ycircumflex" unicode="&#x177;" horiz-adv-x="1325" 
d="M186 1272l275 385h430l274 -385h-334l-118 166h-76l-119 -166h-332zM367 -416l133 369l-469 1167h370l283 -755l260 755h363l-590 -1536h-350z" />
    <glyph glyph-name="Ydieresis" unicode="&#x178;" horiz-adv-x="1669" 
d="M565 1569q-88 0 -141 51.5t-53 128.5v2q0 77 52.5 127.5t141.5 50.5q90 0 142.5 -50.5t52.5 -127.5v-2q0 -77 -52.5 -128.5t-142.5 -51.5zM1104 1569q-89 0 -142 51.5t-53 128.5v2q0 77 53 127.5t142 50.5q90 0 142 -50.5t52 -127.5v-2q0 -78 -52 -129t-142 -51zM647 0
v475l-637 959h430l385 -600h23l393 600h416l-635 -953v-481h-375z" />
    <glyph glyph-name="Zacute" unicode="&#x179;" horiz-adv-x="1593" 
d="M598 1587l252 350h428v-22l-360 -328h-320zM137 0v336l826 776h-803l12 322h1290v-306l-856 -806h858v-322h-1327z" />
    <glyph glyph-name="zacute" unicode="&#x17a;" horiz-adv-x="1253" 
d="M436 1274l252 350h428v-22l-360 -328h-320zM119 0v266l581 568h-569l14 286h1002v-258l-598 -575h598v-287h-1028z" />
    <glyph glyph-name="Zdotaccent" unicode="&#x17b;" horiz-adv-x="1593" 
d="M815 1569q-104 0 -162.5 53.5t-58.5 134.5v2q0 82 58 135.5t161 53.5q104 0 162.5 -53t58.5 -136v-2q0 -81 -58.5 -134.5t-160.5 -53.5zM137 0v336l826 776h-803l12 322h1290v-306l-856 -806h858v-322h-1327z" />
    <glyph glyph-name="zdotaccent" unicode="&#x17c;" horiz-adv-x="1253" 
d="M651 1255q-104 0 -162.5 54t-58.5 135v2q0 82 58 135t161 53q104 0 162.5 -53t58.5 -135v-2q0 -81 -58.5 -135t-160.5 -54zM119 0v266l581 568h-569l14 286h1002v-258l-598 -575h598v-287h-1028z" />
    <glyph glyph-name="Zcaron" unicode="&#x17d;" horiz-adv-x="1593" 
d="M1303 1970l-275 -385h-430l-274 385h333l119 -164h76l119 164h332zM137 0v336l826 776h-803l12 322h1290v-306l-856 -806h858v-322h-1327z" />
    <glyph glyph-name="zcaron" unicode="&#x17e;" horiz-adv-x="1253" 
d="M1139 1657l-275 -385h-430l-274 385h334l118 -164h76l119 164h332zM119 0v266l581 568h-569l14 286h1002v-258l-598 -575h598v-287h-1028z" />
    <glyph glyph-name="Aringacute" unicode="&#x1fa;" horiz-adv-x="1746" 
d="M715 2327l252 350h428v-23l-361 -327h-319zM870 1569q-174 0 -273 82.5t-99 232.5q0 153 99.5 238.5t276.5 85.5q176 0 276.5 -84.5t100.5 -237.5q0 -149 -102.5 -233t-278.5 -84zM874 1761q68 0 107 33t39 92q0 61 -40 95t-108 34q-69 0 -109 -33.5t-40 -95.5
q0 -58 41 -91.5t110 -33.5zM49 0l529 1434h591l527 -1434h-391l-115 317h-639l-115 -317h-387zM834 1102l-175 -484h424l-174 484h-75z" />
    <glyph glyph-name="aringacute" unicode="&#x1fb;" horiz-adv-x="1294" 
d="M461 2044l252 350h428v-22l-361 -328h-319zM653 1286q-174 0 -273 83t-99 233q0 153 99.5 238t276.5 85q176 0 276.5 -84t100.5 -237q0 -150 -102.5 -234t-278.5 -84zM657 1479q68 0 107 33t39 92q0 61 -40 95t-108 34q-69 0 -109 -33.5t-40 -95.5q0 -58 41 -91.5
t110 -33.5zM461 -33q-182 0 -279.5 85.5t-97.5 226.5q0 131 86 217q67 67 223 118.5t418 65.5v14q0 162 -193 162q-211 0 -430 -143h-2v319q232 123 488 123q249 0 369 -118t120 -341v-696h-332l-6 125q-149 -158 -364 -158zM567 217q73 0 140 28t104 64v176
q-283 -27 -356 -96q-29 -29 -29 -72q0 -45 37.5 -72.5t103.5 -27.5z" />
    <glyph glyph-name="AEacute" unicode="&#x1fc;" horiz-adv-x="2598" 
d="M1233 1587l252 350h428v-22l-361 -328h-319zM1221 0v317h-590l-182 -317h-426l847 1434h1575l13 -318h-865v-229h688v-301h-688v-269h893l-14 -317h-1251zM1085 1106l-282 -490h418v490h-136z" />
    <glyph glyph-name="aeacute" unicode="&#x1fd;" horiz-adv-x="2068" 
d="M852 1278l252 350h428v-22l-361 -328h-319zM1915 74q-209 -109 -451 -109q-353 0 -520 197q-107 -102 -223.5 -148.5t-255.5 -46.5q-187 0 -284 85t-97 227q0 131 86 217q67 67 223.5 118.5t423.5 67.5v12q0 162 -199 162q-211 0 -430 -143h-2v319q232 123 482 123
q264 0 374 -154q68 73 169.5 114.5t222.5 41.5q135 0 240.5 -44t173 -123t102.5 -184.5t35 -232.5q0 -55 -9 -108h-807q42 -215 328 -215q208 0 416 115h2v-291zM1421 881q-99 0 -162 -56.5t-85 -158.5h483q-8 98 -70.5 156.5t-165.5 58.5zM426 317q0 -45 37.5 -72.5
t103.5 -27.5q159 0 285 105q-30 84 -35 163q-289 -26 -362 -96q-29 -29 -29 -72z" />
    <glyph glyph-name="Oslashacute" unicode="&#x1fe;" horiz-adv-x="1828" 
d="M700 1626l252 350h428v-22l-360 -328h-320zM59 -123l244 313q-192 201 -192 527q0 346 217 551t585 205q204 0 367 -66l119 149h370l-243 -315q192 -198 192 -524q0 -346 -217.5 -551t-587.5 -205q-201 0 -364 66l-115 -150h-375zM477 717q0 -155 66 -262l536 678
q-77 22 -164 22q-208 0 -323 -116t-115 -322zM911 279q210 0 325.5 116t115.5 322q0 156 -68 262l-534 -678q74 -22 161 -22z" />
    <glyph glyph-name="oslashacute" unicode="&#x1ff;" horiz-adv-x="1429" 
d="M500 1311l252 350h428v-23l-361 -327h-319zM715 -37q-165 0 -297 57l-92 -118h-308l203 264q-135 160 -135 393q0 263 170 430.5t459 167.5q167 0 297 -59l92 119h307l-203 -265q135 -156 135 -393q0 -128 -43.5 -237.5t-123 -189t-198 -124.5t-263.5 -45zM430 559
q0 -83 29 -156l370 457q-58 21 -114 21q-132 0 -208.5 -88t-76.5 -234zM715 240q132 0 208 86.5t76 232.5q0 88 -28 158l-373 -455q55 -22 117 -22z" />
    <glyph glyph-name="uni0218" unicode="&#x218;" horiz-adv-x="1531" 
d="M799 -35q-338 0 -652 137v361h3q166 -87 337.5 -133.5t323.5 -46.5q128 0 194 33.5t66 95.5q0 22 -6 37.5t-23.5 30t-42.5 25t-71 22t-101 22t-139 24.5q-96 15 -170 34.5t-147.5 52.5t-121 77t-77 110t-29.5 150q0 97 42 181t122.5 149.5t211 103t296.5 37.5
q139 0 281.5 -31.5t263.5 -90.5v-359h-2q-127 75 -281 119.5t-291 44.5q-258 0 -258 -127q0 -32 19 -54.5t60.5 -37t92 -25t128.5 -24.5q50 -8 77 -13q69 -12 123 -24.5t113.5 -31.5t103 -42t85 -56t67.5 -73.5t41.5 -94.5t15.5 -118q0 -66 -17.5 -127.5t-64.5 -124.5
t-118 -109t-188.5 -75t-266.5 -29zM477 -629l117 434h383v-36l-283 -398h-217z" />
    <glyph glyph-name="uni0219" unicode="&#x219;" horiz-adv-x="1202" 
d="M623 -37q-264 0 -496 123v303h2q117 -72 251 -112.5t257 -40.5q80 0 115.5 20.5t35.5 62.5q0 26 -14.5 41t-68.5 33.5t-166 42.5q-224 48 -319 122t-95 224q0 168 134 270.5t364 102.5q114 0 235.5 -31t194.5 -73v-297h-2q-99 58 -223 93.5t-222 35.5q-137 0 -137 -76
q0 -26 18.5 -42t72 -33.5t169.5 -43.5q221 -51 310 -129.5t89 -224.5q0 -76 -27.5 -140.5t-85 -117.5t-158 -83t-234.5 -30zM307 -629l117 434h383v-36l-283 -398h-217z" />
    <glyph glyph-name="uni0259" unicode="&#x259;" horiz-adv-x="1345" 
d="M645 -37q-137 0 -245 44t-176 123t-103 184.5t-35 232.5q0 55 6 108h807q-42 215 -326 215q-212 0 -415 -114h-2v291q203 108 450 108q316 0 485 -154t169 -417q0 -178 -75 -319t-216 -221.5t-324 -80.5zM649 240q98 0 161 56.5t85 158.5h-483q8 -98 71 -156.5t166 -58.5
z" />
    <glyph glyph-name="uni02BB" unicode="&#x2bb;" horiz-adv-x="794" 
d="M131 778v60l307 596h197l-88 -656h-416z" />
    <glyph glyph-name="circumflex" unicode="&#x2c6;" horiz-adv-x="1024" 
d="M23 1272l274 385h430l274 -385h-333l-119 166h-76l-119 -166h-331z" />
    <glyph glyph-name="caron" unicode="&#x2c7;" horiz-adv-x="1024" 
d="M1001 1657l-274 -385h-430l-274 385h333l119 -164h76l119 164h331z" />
    <glyph glyph-name="breve" unicode="&#x2d8;" horiz-adv-x="1024" 
d="M512 1255q-197 0 -309.5 80.5t-112.5 233.5q0 60 14 117h263q-7 -40 -7 -60q0 -69 41 -96t111 -27t110 26.5t40 94.5q0 22 -7 62h263q14 -57 14 -119q0 -151 -111.5 -231.5t-308.5 -80.5z" />
    <glyph glyph-name="dotaccent" unicode="&#x2d9;" horiz-adv-x="1024" 
d="M510 1255q-104 0 -162.5 54t-58.5 135v2q0 82 58 135t161 53q104 0 162.5 -53t58.5 -135v-2q0 -81 -58.5 -135t-160.5 -54z" />
    <glyph glyph-name="ring" unicode="&#x2da;" horiz-adv-x="1024" 
d="M508 1255q-174 0 -273.5 83t-99.5 233q0 153 99.5 238t277.5 85q176 0 276.5 -84t100.5 -237q0 -150 -102.5 -234t-278.5 -84zM512 1448q68 0 106.5 32.5t38.5 92.5q0 61 -39.5 95t-107.5 34q-69 0 -109.5 -33.5t-40.5 -95.5q0 -58 41 -91.5t111 -33.5z" />
    <glyph glyph-name="ogonek" unicode="&#x2db;" horiz-adv-x="1024" 
d="M618 121l164 -121l-110 -104q-97 -93 -116 -118q-26 -33 -26 -63q0 -73 123 -73q87 0 164 34v-251q-115 -37 -237 -37q-90 0 -158 17t-107 42t-63 60.5t-31.5 66.5t-7.5 66q0 92 61 175t189 183z" />
    <glyph glyph-name="tilde" unicode="&#x2dc;" horiz-adv-x="1024" 
d="M332 1628q54 0 98 -13.5t125 -49.5q61 -28 89 -37.5t54 -9.5q51 0 98.5 30.5t114.5 106.5h2v-297q-109 -105 -227 -105q-55 0 -97 13.5t-126 50.5q-61 28 -89.5 37.5t-54.5 9.5q-51 0 -99 -30t-114 -105h-2v295q108 104 228 104z" />
    <glyph glyph-name="hungarumlaut" unicode="&#x2dd;" horiz-adv-x="1024" 
d="M494 1272l217 352h372v-25l-335 -327h-254zM8 1272l219 352h373v-25l-336 -327h-256z" />
    <glyph glyph-name="uni0326" unicode="&#x326;" horiz-adv-x="1024" 
d="M252 -600l117 434h383v-37l-283 -397h-217z" />
    <glyph glyph-name="Wgrave" unicode="&#x1e80;" horiz-adv-x="2519" 
d="M1434 1587h-322l-358 328v22h428zM463 0l-387 1434h397l262 -1055h23l332 1055h366l326 -1055h24l254 1055h383l-385 -1434h-502l-286 922h-13l-288 -922h-506z" />
    <glyph glyph-name="wgrave" unicode="&#x1e81;" horiz-adv-x="2068" 
d="M1200 1274h-321l-359 328v22h428zM375 0l-328 1120h377l190 -776h29l209 766h377l213 -766h31l188 776h360l-329 -1120h-459l-182 690h-31l-186 -690h-459z" />
    <glyph glyph-name="Wacute" unicode="&#x1e82;" horiz-adv-x="2519" 
d="M1114 1587l252 350h428v-22l-360 -328h-320zM463 0l-387 1434h397l262 -1055h23l332 1055h366l326 -1055h24l254 1055h383l-385 -1434h-502l-286 922h-13l-288 -922h-506z" />
    <glyph glyph-name="wacute" unicode="&#x1e83;" horiz-adv-x="2068" 
d="M881 1274l252 350h428v-22l-361 -328h-319zM375 0l-328 1120h377l190 -776h29l209 766h377l213 -766h31l188 776h360l-329 -1120h-459l-182 690h-31l-186 -690h-459z" />
    <glyph glyph-name="Wdieresis" unicode="&#x1e84;" horiz-adv-x="2519" 
d="M991 1569q-88 0 -141 51.5t-53 128.5v2q0 77 52.5 127.5t141.5 50.5q90 0 142.5 -50.5t52.5 -127.5v-2q0 -77 -52.5 -128.5t-142.5 -51.5zM1530 1569q-89 0 -142 51.5t-53 128.5v2q0 77 53 127.5t142 50.5q90 0 142 -50.5t52 -127.5v-2q0 -78 -52 -129t-142 -51zM463 0
l-387 1434h397l262 -1055h23l332 1055h366l326 -1055h24l254 1055h383l-385 -1434h-502l-286 922h-13l-288 -922h-506z" />
    <glyph glyph-name="wdieresis" unicode="&#x1e85;" horiz-adv-x="2068" 
d="M772 1255q-88 0 -141 52t-53 129v2q0 77 52.5 127.5t141.5 50.5q90 0 142.5 -50.5t52.5 -127.5v-2q0 -78 -52.5 -129.5t-142.5 -51.5zM1311 1255q-88 0 -141.5 52t-53.5 129v2q0 77 53 127.5t142 50.5q90 0 142 -50.5t52 -127.5v-2q0 -78 -52 -129.5t-142 -51.5zM375 0
l-328 1120h377l190 -776h29l209 766h377l213 -766h31l188 776h360l-329 -1120h-459l-182 690h-31l-186 -690h-459z" />
    <glyph glyph-name="uni1E9E" unicode="&#x1e9e;" horiz-adv-x="1769" 
d="M565 0h-375v1434h1401v-324l-354 -297l98 -29q195 -62 277 -158t82 -239q0 -204 -142 -313t-419 -109q-211 0 -394 62v317h2q184 -78 379 -78q203 0 203 135q0 67 -68 104.5t-266 86.5l-133 33v213l340 288h-631v-1126z" />
    <glyph glyph-name="Ygrave" unicode="&#x1ef2;" horiz-adv-x="1669" 
d="M1051 1552h-322l-358 328v23h428zM647 0v475l-637 959h430l385 -600h23l393 600h416l-635 -953v-481h-375z" />
    <glyph glyph-name="ygrave" unicode="&#x1ef3;" horiz-adv-x="1325" 
d="M893 1251h-322l-358 328v23h428zM367 -416l133 369l-469 1167h370l283 -755l260 755h363l-590 -1536h-350z" />
    <glyph glyph-name="uni2002" unicode="&#x2002;" horiz-adv-x="1024" 
 />
    <glyph glyph-name="uni2003" unicode="&#x2003;" horiz-adv-x="2048" 
 />
    <glyph glyph-name="uni2004" unicode="&#x2004;" horiz-adv-x="681" 
 />
    <glyph glyph-name="uni2005" unicode="&#x2005;" horiz-adv-x="512" 
 />
    <glyph glyph-name="uni2007" unicode="&#x2007;" horiz-adv-x="1482" 
 />
    <glyph glyph-name="uni2008" unicode="&#x2008;" horiz-adv-x="849" 
 />
    <glyph glyph-name="uni2009" unicode="&#x2009;" horiz-adv-x="272" 
 />
    <glyph glyph-name="uni200A" unicode="&#x200a;" horiz-adv-x="153" 
 />
    <glyph glyph-name="uni200B" unicode="&#x200b;" horiz-adv-x="0" 
 />
    <glyph glyph-name="uni200C" unicode="&#x200c;" horiz-adv-x="0" 
 />
    <glyph glyph-name="uni200D" unicode="&#x200d;" horiz-adv-x="0" 
 />
    <glyph glyph-name="endash" unicode="&#x2013;" horiz-adv-x="1435" 
d="M154 502v321h1130v-321h-1130z" />
    <glyph glyph-name="emdash" unicode="&#x2014;" horiz-adv-x="1771" 
d="M154 502v321h1466v-321h-1466z" />
    <glyph glyph-name="quoteleft" unicode="&#x2018;" horiz-adv-x="794" 
d="M131 778v60l307 596h197l-88 -656h-416z" />
    <glyph glyph-name="quoteright" unicode="&#x2019;" horiz-adv-x="794" 
d="M162 778l86 656h416v-60l-308 -596h-194z" />
    <glyph glyph-name="quotesinglbase" unicode="&#x201a;" horiz-adv-x="765" 
d="M133 -272l86 655h416v-59l-307 -596h-195z" />
    <glyph glyph-name="quotedblleft" unicode="&#x201c;" horiz-adv-x="1355" 
d="M131 778v60l301 596h193l-88 -656h-406zM702 778v60l299 596h193l-88 -656h-404z" />
    <glyph glyph-name="quotedblright" unicode="&#x201d;" horiz-adv-x="1355" 
d="M162 778l86 656h405v-60l-299 -596h-192zM731 778l88 656h404v-60l-299 -596h-193z" />
    <glyph glyph-name="quotedblbase" unicode="&#x201e;" horiz-adv-x="1327" 
d="M133 -272l86 655h406v-59l-299 -596h-193zM702 -272l89 655h403v-59l-299 -596h-193z" />
    <glyph glyph-name="dagger" unicode="&#x2020;" horiz-adv-x="1067" 
d="M387 344v586h-281l13 250h268v254h293v-254h274v-250h-274v-586h-293z" />
    <glyph glyph-name="daggerdbl" unicode="&#x2021;" horiz-adv-x="1069" 
d="M387 244v254h-272v239h272v203h-281l13 240h268v254h293v-254h274v-240h-274v-203h283l-15 -239h-268v-254h-293z" />
    <glyph glyph-name="bullet" unicode="&#x2022;" horiz-adv-x="917" 
d="M459 330q-162 0 -254 94.5t-92 232.5v7q0 137 92 231t254 94q161 0 253.5 -94t92.5 -231v-7q0 -137 -92.5 -232t-253.5 -95z" />
    <glyph glyph-name="ellipsis" unicode="&#x2026;" horiz-adv-x="2537" 
d="M424 -23q-112 0 -175 62.5t-63 157.5v4q0 95 63 157t175 62t176 -62.5t64 -156.5v-2q0 -96 -64 -159t-176 -63zM1268 -23q-112 0 -175 62.5t-63 157.5v4q0 95 63 157t175 62t175.5 -62.5t63.5 -156.5v-2q0 -96 -63.5 -159t-175.5 -63zM2111 -23q-111 0 -174 62.5
t-63 157.5v4q0 95 62.5 157t174.5 62t176 -62.5t64 -156.5v-2q0 -96 -64 -159t-176 -63z" />
    <glyph glyph-name="uni202F" unicode="&#x202f;" horiz-adv-x="272" 
 />
    <glyph glyph-name="guilsinglleft" unicode="&#x2039;" horiz-adv-x="948" 
d="M854 82h-408l-372 465v26l372 463h408l-377 -477z" />
    <glyph glyph-name="guilsinglright" unicode="&#x203a;" horiz-adv-x="948" 
d="M94 1038h408l372 -465v-26l-372 -463h-408l377 477z" />
    <glyph glyph-name="fraction" unicode="&#x2044;" horiz-adv-x="544" 
d="M-387 2l1046 1432h271v-2l-1045 -1432h-272v2z" />
    <glyph glyph-name="zero.sup" unicode="&#x2070;" horiz-adv-x="970" 
d="M483 696q-205 0 -306 116.5t-101 332.5q0 215 104.5 333.5t306.5 118.5q205 0 306.5 -117t101.5 -333q0 -213 -105 -332t-307 -119zM483 920q79 0 115.5 56t36.5 171t-35.5 171t-112.5 56q-79 0 -115 -56t-36 -171q0 -116 35 -171.5t112 -55.5z" />
    <glyph glyph-name="four.sup" unicode="&#x2074;" horiz-adv-x="970" 
d="M547 723v158h-475v196l213 494h510v-481h118l-12 -209h-106v-158h-248zM330 1083h225v281h-111z" />
    <glyph glyph-name="five.sup" unicode="&#x2075;" horiz-adv-x="970" 
d="M483 696q-188 0 -333 49v228h2q153 -55 317 -55q135 0 135 73q0 24 -18 39q-20 17 -78 24t-186 7h-158l12 510h637l8 -219h-413l-2 -105h14q159 0 246 -20t137 -70q65 -65 65 -172q0 -133 -104 -211t-281 -78z" />
    <glyph glyph-name="six.sup" unicode="&#x2076;" horiz-adv-x="970" 
d="M502 696q-196 0 -299 108t-103 322q0 222 122 346.5t333 124.5q135 0 268 -47v-223h-2q-124 55 -252 55q-93 0 -152 -43t-63 -131q101 58 224 58q139 0 220 -63.5t81 -192.5q0 -147 -105 -230.5t-272 -83.5zM520 1083q-92 0 -166 -41q8 -139 146 -139q61 0 95 25.5
t34 72.5q0 82 -109 82z" />
    <glyph glyph-name="seven.sup" unicode="&#x2077;" horiz-adv-x="970" 
d="M125 1217v354h743v-275l-338 -573h-290l344 584v53h-217v-143h-242z" />
    <glyph glyph-name="eight.sup" unicode="&#x2078;" horiz-adv-x="970" 
d="M485 696q-199 0 -297 65t-98 187q0 147 168 205q-76 26 -111.5 71t-35.5 115q0 120 96 188t278 68t278.5 -68.5t96.5 -187.5q0 -70 -35.5 -115t-111.5 -71q168 -58 168 -205q0 -122 -98.5 -187t-297.5 -65zM485 1231q129 0 129 80q0 88 -129 88t-129 -88q0 -80 129 -80z
M485 893q71 0 106.5 23.5t35.5 64.5q0 42 -36 66t-106 24q-141 0 -141 -90q0 -88 141 -88z" />
    <glyph glyph-name="nine.sup" unicode="&#x2079;" horiz-adv-x="970" 
d="M471 1595q196 0 298.5 -108t102.5 -322q0 -223 -121.5 -347t-332.5 -124q-135 0 -268 47v224h2q126 -56 251 -56q93 0 152 43t63 131q-99 -57 -223 -57q-139 0 -220 63.5t-81 192.5q0 147 105 230t272 83zM344 1290q0 -82 109 -82q91 0 165 41q-8 140 -145 140
q-60 0 -94.5 -26t-34.5 -73z" />
    <glyph glyph-name="zero.inf" unicode="&#x2080;" horiz-adv-x="970" 
d="M483 -440q-205 0 -306 116t-101 332q0 215 104.5 334t306.5 119q205 0 306.5 -117.5t101.5 -333.5q0 -213 -105 -331.5t-307 -118.5zM483 -217q79 0 115.5 56t36.5 171q0 116 -35.5 172t-112.5 56q-79 0 -115 -56t-36 -172t35 -171.5t112 -55.5z" />
    <glyph glyph-name="one.inf" unicode="&#x2081;" horiz-adv-x="749" 
d="M272 -414v631h-180l37 217h418v-848h-275z" />
    <glyph glyph-name="two.inf" unicode="&#x2082;" horiz-adv-x="970" 
d="M135 -414v213l234 176q141 100 177 135.5t36 63.5q0 57 -95 57q-137 0 -315 -118h-2v247q175 101 352 101q161 0 247.5 -66t86.5 -186q0 -42 -12.5 -77.5t-31.5 -64t-63 -66.5t-83.5 -67.5t-116.5 -83.5l-57 -43h358v-221h-715z" />
    <glyph glyph-name="three.inf" unicode="&#x2083;" horiz-adv-x="970" 
d="M465 -440q-161 0 -322 51v229h2q180 -61 295 -61q162 0 162 74q0 29 -20.5 44.5t-78 23t-167.5 7.5h-31v119l236 170h-394l7 217h673v-205l-215 -153q254 -40 254 -234q0 -134 -110 -208t-291 -74z" />
    <glyph glyph-name="four.inf" unicode="&#x2084;" horiz-adv-x="970" 
d="M547 -414v158h-475v197l213 493h510v-481h118l-12 -209h-106v-158h-248zM330 -53h225v280h-111z" />
    <glyph glyph-name="five.inf" unicode="&#x2085;" horiz-adv-x="970" 
d="M483 -440q-188 0 -333 49v227h2q153 -55 317 -55q135 0 135 74q0 24 -18 39q-20 17 -77 23.5t-187 6.5h-158l12 510h637l8 -219h-413l-2 -104h14q159 0 246 -20.5t137 -70.5q65 -65 65 -172q0 -133 -104 -210.5t-281 -77.5z" />
    <glyph glyph-name="six.inf" unicode="&#x2086;" horiz-adv-x="970" 
d="M502 -440q-196 0 -299 108t-103 322q0 222 122 346.5t333 124.5q135 0 268 -47v-224h-2q-126 56 -252 56q-93 0 -152 -43t-63 -131q99 57 224 57q139 0 220 -63.5t81 -192.5q0 -147 -105 -230t-272 -83zM520 -53q-92 0 -166 -41q8 -139 146 -139q61 0 95 25.5t34 72.5
q0 82 -109 82z" />
    <glyph glyph-name="seven.inf" unicode="&#x2087;" horiz-adv-x="970" 
d="M125 80v354h743v-274l-338 -574h-290l344 584v53h-217v-143h-242z" />
    <glyph glyph-name="eight.inf" unicode="&#x2088;" horiz-adv-x="970" 
d="M485 -440q-199 0 -297 65t-98 187q0 73 40 123.5t128 80.5q-147 51 -147 187q0 120 96 188t278 68t278.5 -68.5t96.5 -187.5q0 -136 -147 -187q88 -30 128 -80.5t40 -123.5q0 -122 -98.5 -187t-297.5 -65zM485 94q129 0 129 80q0 88 -129 88t-129 -88q0 -80 129 -80z
M485 -244q71 0 106.5 23.5t35.5 64.5q0 42 -36 66t-106 24q-141 0 -141 -90q0 -88 141 -88z" />
    <glyph glyph-name="nine.inf" unicode="&#x2089;" horiz-adv-x="970" 
d="M471 459q196 0 298.5 -108t102.5 -322q0 -223 -121.5 -347t-332.5 -124q-135 0 -268 47v223h2q124 -55 251 -55q93 0 152 43t63 131q-101 -58 -223 -58q-139 0 -220 63.5t-81 192.5q0 147 105 230.5t272 83.5zM344 154q0 -82 109 -82q91 0 165 41q-8 139 -145 139
q-61 0 -95 -25.5t-34 -72.5z" />
    <glyph glyph-name="colonmonetary" unicode="&#x20a1;" horiz-adv-x="1417" 
d="M260 -225l88 327q-145 99 -219 257t-74 348q0 139 43 264t124 224.5t205.5 167t279.5 89.5l53 197h254l-51 -191q83 -10 141 -26l57 217h256l-364 -1370q96 23 211 77h2v-303q-122 -55 -293 -73l-55 -205h-256l55 202q-70 6 -139 25l-64 -227h-254zM645 291
q74 -29 178 -35l236 891q-78 22 -178 22zM379 713q0 -160 72 -273l196 705q-131 -50 -199.5 -162.5t-68.5 -269.5z" />
    <glyph glyph-name="uni20A6" unicode="&#x20a6;" horiz-adv-x="1902" 
d="M336 0v436h-254l22 226h232v139h-219l20 225h199v408h389l233 -408h326v408h318v-408h208v-225h-208v-139h208v-226h-208v-436h-375l-250 436h-324v-436h-317zM653 971v-322h203l-184 322h-19zM1264 489h20v324h-205z" />
    <glyph glyph-name="uni20A8" unicode="&#x20a8;" horiz-adv-x="2744" 
d="M190 0v1434h744q276 0 413.5 -128t137.5 -376q0 -345 -287 -455l350 -475h-418l-284 403h-291v-403h-365zM2163 -37q-266 0 -498 123v305h2q116 -73 250 -113t258 -40q81 0 117.5 20t36.5 61q0 26 -15 41t-68 32t-167 42q-112 24 -186 51t-128 67.5t-78 96t-24 133.5
q0 168 134 270.5t364 102.5q117 0 238.5 -31t193.5 -73v-299l-2 2q-99 58 -222.5 93.5t-222.5 35.5q-139 0 -139 -76q0 -26 18.5 -42.5t73.5 -34t170 -42.5q222 -51 311 -129.5t89 -224.5q0 -76 -27.5 -140.5t-85.5 -117.5t-158.5 -83t-234.5 -30zM555 702h346q113 0 166 57
t53 156q0 213 -219 213h-346v-426z" />
    <glyph glyph-name="Euro" unicode="&#x20ac;" horiz-adv-x="1638" 
d="M96 430l23 225h184q-2 16 -2 52q0 30 4 84h-174l23 225h204q82 204 267.5 326t457.5 122q214 0 396 -90v-311h-2q-210 106 -381 106q-259 0 -373 -172h491v-206h-563q-4 -50 -4 -80q0 -38 2 -56h565v-206h-505q108 -185 381 -185q181 0 387 98h2v-311q-83 -38 -195 -60
t-225 -22q-288 0 -467.5 125t-249.5 336h-246z" />
    <glyph glyph-name="uni20B1" unicode="&#x20b1;" horiz-adv-x="1761" 
d="M324 0v768h-242l45 248h197v418h716q220 0 349 -108.5t159 -309.5h176v-248h-178q-34 -209 -175.5 -314.5t-358.5 -105.5h-328v-348h-360zM684 1147v-158h522q-17 81 -68.5 119.5t-142.5 38.5h-311zM684 631h317q166 0 205 153h-522v-153z" />
    <glyph glyph-name="uni20B9" unicode="&#x20b9;" horiz-adv-x="1574" 
d="M1276 0h-522l-557 383v254h415q208 0 250 160h-665v211h665q-22 85 -89 122t-202 37h-374v267h1259l-16 -267h-303q52 -61 73 -149h215l-12 -244h-196q-31 -178 -159.5 -282.5t-326.5 -104.5h-35z" />
    <glyph glyph-name="uni20BD" unicode="&#x20bd;" horiz-adv-x="1679" 
d="M82 174l24 240h238v133h-231l24 244h207v643h739q248 0 377 -118t129 -323q0 -218 -141 -332t-395 -114h-348v-133h628v-240h-628v-174h-361v174h-262zM705 791h319q119 0 168 46.5t49 129.5q0 93 -50.5 137.5t-166.5 44.5h-319v-358z" />
    <glyph glyph-name="uni2116" unicode="&#x2116;" horiz-adv-x="2953" 
d="M2329 1456q250 0 392 -138.5t142 -359.5t-142 -359t-394 -138q-125 0 -226.5 37.5t-169 103.5t-103.5 157t-36 199q0 221 143 359.5t394 138.5zM227 0v1434h391l574 -883h16v883h340v-1434h-370l-594 909h-17v-909h-340zM2329 1192q-106 0 -163 -64t-57 -172
q0 -107 56.5 -169t161.5 -62q106 0 163.5 64t57.5 172q0 107 -56.5 169t-162.5 62zM1866 281h923v-281h-923v281z" />
    <glyph glyph-name="uni2117" unicode="&#x2117;" horiz-adv-x="2000" 
d="M1001 -111q-270 0 -475.5 102t-317.5 290.5t-112 437.5q0 188 65 343t182.5 262.5t286 166.5t371.5 59q270 0 475 -101.5t317 -290.5t112 -439q0 -249 -112 -437.5t-317 -290.5t-475 -102zM1001 111q299 0 471.5 159.5t172.5 448.5q0 290 -172 450t-472 160
q-301 0 -472 -159.5t-171 -450.5q0 -289 171.5 -448.5t471.5 -159.5zM672 356v740h456q137 0 214 -75t77 -208q0 -98 -42.5 -164.5t-110.5 -95.5t-156 -29h-201v-168h-237zM909 713h183q48 0 70 27t22 67q0 96 -94 96h-181v-190z" />
    <glyph glyph-name="uni2120" unicode="&#x2120;" horiz-adv-x="2082" 
d="M518 647q-190 0 -356 76v211q86 -47 186.5 -72.5t179.5 -25.5q72 0 99.5 10.5t27.5 38.5t-31 40t-159 38q-65 13 -107 24.5t-83 30t-64 42.5t-37 59.5t-14 82.5q0 113 93.5 182.5t274.5 69.5q158 0 308 -63v-211q-72 38 -158.5 62t-165.5 24q-123 0 -123 -49
q0 -27 30.5 -38.5t158.5 -37.5q76 -14 127.5 -31.5t94.5 -45t64 -69.5t21 -100q0 -37 -8.5 -69.5t-33 -66.5t-64 -57.5t-106.5 -39t-155 -15.5zM1026 670v764h272l181 -330l174 330h272v-764h-219v458l-219 -383h-23l-219 383v-458h-219z" />
    <glyph glyph-name="trademark" unicode="&#x2122;" horiz-adv-x="2117" 
d="M422 670v561h-281l9 203h780l8 -203h-279v-561h-237zM1061 670v764h272l180 -330l175 330h272v-764h-219v458l-219 -383h-25l-219 388v-463h-217z" />
    <glyph glyph-name="onethird" unicode="&#x2153;" horiz-adv-x="2101" 
d="M272 586v631h-180l37 217h418v-848h-275zM281 2l1046 1432h270v-2l-1044 -1432h-272v2zM1595 -27q-157 0 -321 52v229h2q180 -61 295 -61q162 0 162 73q0 29 -20.5 44.5t-78.5 23.5t-168 8h-30v119l235 170h-393l6 217h674v-205l-215 -154q254 -40 254 -233
q0 -134 -110.5 -208.5t-291.5 -74.5z" />
    <glyph glyph-name="twothirds" unicode="&#x2154;" horiz-adv-x="2347" 
d="M135 586v213l234 176q141 100 177 135.5t36 63.5q0 57 -95 57q-135 0 -315 -119h-2v248q173 100 352 100q161 0 247.5 -66t86.5 -186q0 -42 -12.5 -77.5t-31.5 -63.5t-63 -66.5t-83 -67t-117 -83.5l-57 -43h358v-221h-715zM528 2l1047 1432h270v-2l-1044 -1432h-273v2z
M1841 -27q-157 0 -321 52v229h2q180 -61 295 -61q161 0 161 73q0 29 -20.5 44.5t-78 23.5t-167.5 8h-31v119l236 170h-393l6 217h674v-205l-215 -154q254 -40 254 -233q0 -134 -110.5 -208.5t-291.5 -74.5z" />
    <glyph glyph-name="uni2155" unicode="&#x2155;" horiz-adv-x="2078" 
d="M272 586v631h-180l37 217h418v-848h-275zM281 2l1046 1432h270v-2l-1044 -1432h-272v2zM1591 -27q-186 0 -334 50v227h3q153 -55 317 -55q135 0 135 73q0 24 -18 39q-20 17 -78 24t-186 7h-158l12 510h637l8 -219h-413l-3 -105h15q159 0 246 -20t137 -70q65 -65 65 -172
q0 -133 -104 -211t-281 -78z" />
    <glyph glyph-name="uni2156" unicode="&#x2156;" horiz-adv-x="2324" 
d="M135 586v213l234 176q141 100 177 135.5t36 63.5q0 57 -95 57q-135 0 -315 -119h-2v248q173 100 352 100q161 0 247.5 -66t86.5 -186q0 -42 -12.5 -77.5t-31.5 -63.5t-63 -66.5t-83 -67t-117 -83.5l-57 -43h358v-221h-715zM528 2l1047 1432h270v-2l-1044 -1432h-273v2z
M1837 -27q-186 0 -334 50v227h2q153 -55 318 -55q135 0 135 73q0 23 -19 39q-20 17 -78 24t-186 7h-157l12 510h637l8 -219h-414l-2 -105h15q159 0 246 -20t137 -70q65 -65 65 -172q0 -133 -104 -211t-281 -78z" />
    <glyph glyph-name="uni2157" unicode="&#x2157;" horiz-adv-x="2281" 
d="M465 559q-161 0 -322 51v230h2q183 -62 295 -62q162 0 162 74q0 29 -20.5 44.5t-78 23.5t-167.5 8h-31v119l236 170h-394l7 217h673v-205l-215 -154q254 -40 254 -233q0 -134 -110 -208.5t-291 -74.5zM483 2l1047 1432h270v-2l-1044 -1432h-273v2zM1794 -27
q-186 0 -334 50v227h2q153 -55 318 -55q135 0 135 73q0 23 -19 39q-20 17 -78 24t-186 7h-157l12 510h637l8 -219h-414l-2 -105h15q159 0 246 -20t137 -70q65 -65 65 -172q0 -133 -104 -211t-281 -78z" />
    <glyph glyph-name="uni2158" unicode="&#x2158;" horiz-adv-x="2320" 
d="M547 586v157h-475v197l213 494h510v-482h118l-12 -209h-106v-157h-248zM522 2l1047 1432h270v-2l-1044 -1432h-273v2zM330 946h225v281h-111zM1833 -27q-186 0 -334 50v227h2q153 -55 318 -55q135 0 135 73q0 23 -19 39q-20 17 -78 24t-186 7h-158l13 510h637l8 -219
h-414l-2 -105h14q159 0 246 -20t137 -70q66 -66 66 -172q0 -133 -104 -211t-281 -78z" />
    <glyph glyph-name="uni2159" unicode="&#x2159;" horiz-adv-x="2062" 
d="M272 586v631h-180l37 217h418v-848h-275zM281 2l1046 1432h270v-2l-1044 -1432h-272v2zM1593 -27q-196 0 -298.5 108t-102.5 322q0 222 122 346.5t333 124.5q135 0 268 -47v-223h-2q-124 55 -252 55q-93 0 -152 -43t-63 -131q101 58 223 58q139 0 220 -63.5t81 -192.5
q0 -147 -105 -230.5t-272 -83.5zM1612 360q-92 0 -166 -41q8 -139 145 -139q60 0 94.5 26t34.5 73q0 81 -108 81z" />
    <glyph glyph-name="uni215A" unicode="&#x215a;" horiz-adv-x="2275" 
d="M483 559q-188 0 -333 49v228h2q156 -56 317 -56q135 0 135 74q0 24 -18 39q-20 17 -78 24t-186 7h-158l12 510h637l8 -220h-413l-2 -104h14q159 0 246 -20t137 -70q65 -65 65 -172q0 -133 -104 -211t-281 -78zM494 2l1046 1432h270v-2l-1044 -1432h-272v2zM1806 -27
q-196 0 -298.5 108t-102.5 322q0 222 122 346.5t333 124.5q135 0 268 -47v-223h-2q-124 55 -252 55q-93 0 -152 -43t-63 -131q101 58 223 58q139 0 220 -63.5t81 -192.5q0 -147 -105 -230.5t-272 -83.5zM1825 360q-92 0 -166 -41q8 -139 145 -139q60 0 94.5 26t34.5 73
q0 81 -108 81z" />
    <glyph glyph-name="oneeighth" unicode="&#x215b;" horiz-adv-x="2088" 
d="M272 586v631h-180l37 217h418v-848h-275zM281 2l1046 1432h270v-2l-1044 -1432h-272v2zM1604 -27q-199 0 -297.5 65t-98.5 187q0 147 168 205q-76 26 -111.5 71t-35.5 115q0 119 96.5 187.5t278.5 68.5t278 -68t96 -188q0 -70 -35.5 -115t-111.5 -71q168 -58 168 -205
q0 -122 -98 -187t-297 -65zM1604 508q129 0 129 80q0 88 -129 88t-129 -88q0 -80 129 -80zM1604 170q141 0 141 88q0 42 -35.5 66t-105.5 24q-142 0 -142 -90q0 -41 35.5 -64.5t106.5 -23.5z" />
    <glyph glyph-name="threeeighths" unicode="&#x215c;" horiz-adv-x="2291" 
d="M465 559q-161 0 -322 51v230h2q183 -62 295 -62q162 0 162 74q0 29 -20.5 44.5t-78 23.5t-167.5 8h-31v119l236 170h-394l7 217h673v-205l-215 -154q254 -40 254 -233q0 -134 -110 -208.5t-291 -74.5zM483 2l1047 1432h270v-2l-1044 -1432h-273v2zM1806 -27
q-199 0 -297 65t-98 187q0 147 168 205q-76 26 -111.5 71t-35.5 115q0 120 96 188t278 68t278.5 -68.5t96.5 -187.5q0 -70 -35.5 -115t-111.5 -71q168 -58 168 -205q0 -122 -98.5 -187t-297.5 -65zM1806 508q129 0 129 80q0 88 -129 88t-129 -88q0 -80 129 -80zM1806 170
q71 0 106.5 23.5t35.5 64.5q0 42 -36 66t-106 24q-141 0 -141 -90q0 -88 141 -88z" />
    <glyph glyph-name="fiveeighths" unicode="&#x215d;" horiz-adv-x="2299" 
d="M483 559q-188 0 -333 49v228h2q156 -56 317 -56q135 0 135 74q0 24 -18 39q-20 17 -78 24t-186 7h-158l12 510h637l8 -220h-413l-2 -104h14q159 0 246 -20t137 -70q65 -65 65 -172q0 -133 -104 -211t-281 -78zM494 2l1046 1432h270v-2l-1044 -1432h-272v2zM1815 -27
q-199 0 -297.5 65t-98.5 187q0 147 168 205q-76 26 -111.5 71t-35.5 115q0 119 96.5 187.5t278.5 68.5t278 -68t96 -188q0 -70 -35.5 -115t-111.5 -71q168 -58 168 -205q0 -122 -98 -187t-297 -65zM1815 508q129 0 129 80q0 88 -129 88t-129 -88q0 -80 129 -80zM1815 170
q141 0 141 88q0 42 -35.5 66t-105.5 24q-142 0 -142 -90q0 -41 35.5 -64.5t106.5 -23.5z" />
    <glyph glyph-name="seveneighths" unicode="&#x215e;" horiz-adv-x="2201" 
d="M125 1079v355h743v-275l-338 -573h-290l344 583v54h-217v-144h-242zM393 2l1047 1432h270v-2l-1044 -1432h-273v2zM1716 -27q-199 0 -297 65t-98 187q0 147 168 205q-76 26 -112 71t-36 115q0 119 96.5 187.5t278.5 68.5t278.5 -68.5t96.5 -187.5q0 -70 -35.5 -115
t-111.5 -71q87 -30 127 -80.5t40 -124.5q0 -122 -98 -187t-297 -65zM1716 508q129 0 129 80q0 88 -129 88t-129 -88q0 -80 129 -80zM1716 170q71 0 106.5 23.5t35.5 64.5q0 42 -36 66t-106 24q-141 0 -141 -90q0 -88 141 -88z" />
    <glyph glyph-name="uni2190" unicode="&#x2190;" horiz-adv-x="2088" 
d="M836 909l987 4v-327l-981 4l510 -451h-471l-691 611l691 610h471z" />
    <glyph glyph-name="uni2191" unicode="&#x2191;" horiz-adv-x="1822" 
d="M737 -45l4 969l-467 -506v452l637 672l637 -672v-452l-467 506l4 -969h-348z" />
    <glyph glyph-name="uni2192" unicode="&#x2192;" horiz-adv-x="2088" 
d="M1253 586l-987 -4v327l981 -4l-510 451h471l690 -611l-690 -610h-471z" />
    <glyph glyph-name="uni2193" unicode="&#x2193;" horiz-adv-x="1822" 
d="M911 -109l-637 672v453l467 -506l-4 969h348l-4 -969l467 506v-453z" />
    <glyph glyph-name="uni21A2" unicode="&#x21a2;" horiz-adv-x="4198" 
d="M1501 199l-1339 546l1339 547l10 -30l-180 -361h1249l326 252h1067l-455 -408l455 -407h-1067l-326 252h-1249l180 -361z" />
    <glyph glyph-name="uni21A3" unicode="&#x21a3;" horiz-adv-x="4198" 
d="M2697 199l-10 30l180 361h-1249l-326 -252h-1067l455 407l-455 408h1067l326 -252h1249l-180 361l10 30l1340 -547z" />
    <glyph glyph-name="minus" unicode="&#x2212;" horiz-adv-x="1421" 
d="M182 555v324h1057v-324h-1057z" />
    <glyph glyph-name="uni2295" unicode="&#x2295;" horiz-adv-x="2207" 
d="M1104 -94q-256 0 -448 100t-295 283.5t-103 427.5q0 368 229.5 589.5t616.5 221.5q389 0 617.5 -220.5t228.5 -590.5q0 -368 -229.5 -589.5t-616.5 -221.5zM635 602h350v-350h238v350h350v238h-350v350h-238v-350h-350v-238z" />
    <glyph glyph-name="uni2296" unicode="&#x2296;" horiz-adv-x="2207" 
d="M1104 -94q-256 0 -448 100t-295 283.5t-103 427.5q0 368 229.5 589.5t616.5 221.5q389 0 617.5 -220.5t228.5 -590.5q0 -368 -229.5 -589.5t-616.5 -221.5zM633 602h940v238h-940v-238z" />
    <glyph glyph-name="uni2297" unicode="&#x2297;" horiz-adv-x="2207" 
d="M1104 -94q-256 0 -448 100t-295 283.5t-103 427.5q0 368 229.5 589.5t616.5 221.5q389 0 617.5 -220.5t228.5 -590.5q0 -368 -229.5 -589.5t-616.5 -221.5zM637 418l170 -168l299 301l299 -301l168 168l-301 299l301 299l-168 168l-299 -301l-299 301l-170 -168l303 -299
z" />
    <glyph glyph-name="circle.checked" unicode="&#x2299;" horiz-adv-x="2207" 
d="M1104 -94q-392 0 -625 220.5t-233 590.5q0 182 60.5 333t171.5 256.5t271.5 163.5t354.5 58q260 0 455 -100t299 -283.5t104 -427.5q0 -182 -60.5 -333t-171.5 -256.5t-271.5 -163.5t-354.5 -58zM1104 215q236 0 371 136t135 366t-135 366t-371 136t-371 -136t-135 -366
t135 -366t371 -136zM1104 457q-122 0 -193 70.5t-71 189.5t71 189.5t193 70.5q124 0 194 -70.5t70 -189.5t-70 -189.5t-194 -70.5z" />
    <glyph glyph-name="dotmath" unicode="&#x22c5;" horiz-adv-x="851" 
d="M426 496q-112 0 -175 62t-63 157v2q0 96 63 157.5t175 61.5t176 -61.5t64 -155.5v-4q0 -94 -64 -156.5t-176 -62.5z" />
    <glyph glyph-name="uni2302" unicode="&#x2302;" horiz-adv-x="2150" 
d="M1810 -59h-1470v1001l735 600l735 -600v-1001z" />
    <glyph glyph-name="uni238C" unicode="&#x238c;" horiz-adv-x="2131" 
d="M811 569h311q90 0 161.5 16.5t128 51.5t86 96t28.5 144q1 160 -107 229.5t-297 69.5h-757l55 317h762q216 0 375 -67.5t248 -205.5t87 -335q2 -198 -87 -339.5t-248.5 -212.5t-374.5 -71h-375l344 -309h-444l-476 463l474 463h446z" />
    <glyph glyph-name="uniE015.previous" unicode="&#x2397;" horiz-adv-x="2215" 
d="M1337 1493v-1077h-1007v1077h1007zM1556 1124h297v-1183h-1128l-23 262h854v921z" />
    <glyph glyph-name="uniE015.next" unicode="&#x2398;" horiz-adv-x="2215" 
d="M659 309h-297v1184h1129l22 -262h-854v-922zM879 -59v1077h1007v-1077h-1007z" />
    <glyph glyph-name="uni25A0" unicode="&#x25a0;" horiz-adv-x="2287" 
d="M346 -59v1552h1596v-1552h-1596z" />
    <glyph glyph-name="uni25A1" unicode="&#x25a1;" horiz-adv-x="2287" 
d="M346 -59v1552h1596v-1552h-1596zM692 252h903v930h-903v-930z" />
    <glyph glyph-name="uni25AA" unicode="&#x25aa;" horiz-adv-x="1654" 
d="M334 242v950h987v-950h-987z" />
    <glyph glyph-name="uni25AB" unicode="&#x25ab;" horiz-adv-x="1654" 
d="M334 242v950h987v-950h-987zM637 516h381v402h-381v-402z" />
    <glyph glyph-name="uni25B2" unicode="&#x25b2;" horiz-adv-x="2048" 
d="M238 -59l776 1601h20l776 -1601h-1572z" />
    <glyph glyph-name="uni25B4" unicode="&#x25b4;" horiz-adv-x="1892" 
d="M956 1624l742 -889h-1503l741 889h20z" />
    <glyph glyph-name="uni25B6" unicode="&#x25b6;" horiz-adv-x="2150" 
d="M346 1503l1602 -776v-20l-1602 -777v1573z" />
    <glyph glyph-name="uni25B8" unicode="&#x25b8;" horiz-adv-x="2068" 
d="M344 1309l1501 -547v-25l-1501 -547v1119z" />
    <glyph glyph-name="uni25BC" unicode="&#x25bc;" horiz-adv-x="2048" 
d="M1810 1493l-776 -1602h-20l-776 1602h1572z" />
    <glyph glyph-name="uni25BE" unicode="&#x25be;" horiz-adv-x="1892" 
d="M936 -135l-741 889h1503l-742 -889h-20z" />
    <glyph glyph-name="uni25C0" unicode="&#x25c0;" horiz-adv-x="2150" 
d="M1804 -70l-1601 777v20l1601 776v-1573z" />
    <glyph glyph-name="uni25C2" unicode="&#x25c2;" horiz-adv-x="2068" 
d="M1724 190l-1501 547v25l1501 547v-1119z" />
    <glyph glyph-name="circle.open" unicode="&#x25cb;" horiz-adv-x="2207" 
d="M1104 -94q-392 0 -625 220.5t-233 590.5q0 182 60.5 333t171.5 256.5t271.5 163.5t354.5 58q260 0 455 -100t299 -283.5t104 -427.5q0 -182 -60.5 -333t-171.5 -256.5t-271.5 -163.5t-354.5 -58zM1104 215q233 0 365.5 135.5t132.5 366.5t-132.5 366.5t-365.5 135.5
t-365.5 -135.5t-132.5 -366.5t132.5 -366.5t365.5 -135.5z" />
    <glyph glyph-name="circle.solid" unicode="&#x25cf;" horiz-adv-x="2207" 
d="M1104 -94q-392 0 -625 220.5t-233 590.5q0 182 60.5 333t171.5 256.5t271.5 163.5t354.5 58q260 0 455 -100t299 -283.5t104 -427.5q0 -182 -60.5 -333t-171.5 -256.5t-271.5 -163.5t-354.5 -58z" />
    <glyph glyph-name="circle.half" unicode="&#x25d0;" horiz-adv-x="2207" 
d="M1104 -94q-392 0 -625 220.5t-233 590.5q0 182 60.5 333t171.5 256.5t271.5 163.5t354.5 58q260 0 455 -100t299 -283.5t104 -427.5q0 -182 -60.5 -333t-171.5 -256.5t-271.5 -163.5t-354.5 -58zM1083 203q238 0 380.5 139t142.5 375t-142.5 375t-380.5 139v-1028z" />
    <glyph glyph-name="uni25E9" unicode="&#x25e9;" horiz-adv-x="2287" 
d="M346 -59v1552h1596v-1552h-1596zM684 252h915v926z" />
    <glyph glyph-name="uni2600" unicode="&#x2600;" horiz-adv-x="2127" 
d="M1911 760v-70l-285 -155l105 -316l-50 -57l-313 65l-131 -309l-70 -14l-198 252l-299 -154l-58 37l6 321l-327 72l-25 68l219 239l-211 267l25 69l328 45l4 334l65 37l277 -168l221 248l74 -15l102 -307l328 49l47 -57l-119 -301z" />
    <glyph glyph-name="uni2605" unicode="&#x2605;" horiz-adv-x="2150" 
d="M1321 1028l612 6l39 -100l-497 -346l204 -588l-88 -59l-516 381l-518 -381l-86 59l205 588l-498 346l39 100l612 -6l193 580h106z" />
    <glyph glyph-name="uni260E" unicode="&#x260e;" horiz-adv-x="2371" 
d="M1972 -59h-1573l-51 401l287 512l-344 -4q-60 126 -60 227q0 212 241 331.5t714 119.5t713.5 -119.5t240.5 -331.5q0 -103 -59 -227l-344 4l286 -512zM1552 1176h-733l-22 -185q202 35 389 35t389 -35zM1511 510q0 103 -87 171.5t-238 68.5q-152 0 -240 -69t-88 -171
q0 -103 88 -171.5t240 -68.5t238.5 68t86.5 172z" />
    <glyph glyph-name="uni2611" unicode="&#x2611;" horiz-adv-x="2287" 
d="M1755 1815l-668 -1323h-196l395 1323h469zM1794 1493h166v-1552h-1632v1552h676l-310 -1145h492z" />
    <glyph glyph-name="uni2612" unicode="&#x2612;" horiz-adv-x="2287" 
d="M352 -59v1552h1583v-1552h-1583zM797 201l348 350l346 -350l170 168l-350 348l350 348l-170 168l-346 -350l-348 350l-170 -168l350 -348l-350 -348z" />
    <glyph glyph-name="uni261A" unicode="&#x261a;" horiz-adv-x="3584" 
d="M3226 135l-818 180l-774 -268q-50 -17 -100 10l-31 17q-37 25 -45 56.5t6 98.5l-61 -20q-23 -9 -52 -7.5t-51 13.5l-51 27q-38 19 -46 54.5t7 111.5l-63 -27q-23 -11 -52.5 -10.5t-50.5 12.5l-57 33q-56 30 -41 94l80 326l-473 -41q-75 -6 -139 1t-108.5 25t-79 44
t-49.5 57.5t-19.5 66.5t10.5 70l4 12l1239 162q100 14 133 14q42 0 127 -10l1555 -160v-942z" />
    <glyph glyph-name="uni261B" unicode="&#x261b;" horiz-adv-x="3584" 
d="M1929 47l-770 268l-821 -180v942l1554 160q85 10 127 10q33 0 133 -14l1239 -162l5 -12q15 -35 10.5 -70t-20 -66.5t-49.5 -57.5t-79 -44t-109 -25t-138 -1l-474 41l78 -326q18 -63 -39 -94l-57 -33q-48 -26 -102 -2l-62 29q14 -76 5.5 -112.5t-46.5 -55.5l-51 -27
q-22 -12 -50.5 -13.5t-51.5 7.5l-60 18q12 -66 3.5 -98t-44.5 -55l-30 -17q-22 -12 -50.5 -15t-50.5 5z" />
    <glyph glyph-name="uni263C" unicode="&#x263c;" horiz-adv-x="2127" 
d="M1911 760v-70l-285 -155l105 -316l-50 -57l-313 65l-131 -309l-70 -14l-198 252l-299 -154l-58 37l6 321l-327 72l-25 68l219 239l-211 267l25 69l328 45l4 334l65 37l277 -168l221 248l74 -15l102 -307l328 49l47 -57l-119 -301zM1360 741q0 117 -76 195t-205 78
t-204.5 -78t-75.5 -195t75.5 -194.5t204.5 -77.5q130 0 205.5 77.5t75.5 194.5z" />
    <glyph glyph-name="heart" unicode="&#x2665;" horiz-adv-x="2068" 
d="M1030 1231h8q49 141 154 219t242 78q62 0 121.5 -17.5t113 -54.5t94 -91t64.5 -132t24 -172q0 -137 -66.5 -291.5t-184 -306.5t-256 -292t-304.5 -277h-12q-131 109 -244.5 218t-220 233t-181.5 241.5t-120 241t-45 233.5q0 116 36.5 208t97 147t133 83.5t151.5 28.5
q137 0 241.5 -78t153.5 -219z" />
    <glyph glyph-name="uni2691" unicode="&#x2691;" horiz-adv-x="1822" 
d="M1448 -82h-334v715h-868v860h1202v-1575z" />
    <glyph glyph-name="uni2698" unicode="&#x2698;" horiz-adv-x="2170" 
d="M1544 41q-70 0 -129 36.5t-92 104.5q-53 -41 -84 -102.5t-41 -161.5h-225q-10 100 -41 161.5t-84 102.5q-33 -68 -92 -104.5t-129 -36.5q-117 0 -239.5 84.5t-229.5 245.5v35q87 47 182.5 74.5t177.5 27.5q50 0 102.5 -10.5t114.5 -35t123 -75t109 -121.5l-25 291
q-192 59 -301.5 133.5t-165 189.5t-65.5 296l-15 254l37 18q102 -50 211 -132.5t186 -178.5q44 136 108 249.5t136 176.5h25q72 -63 135.5 -176.5t107.5 -249.5q77 96 186.5 178t211.5 133l37 -18l-15 -254q-10 -181 -65.5 -296t-165 -189.5t-301.5 -133.5l-25 -291
q48 71 109 121.5t123 75t114.5 35t102.5 10.5q82 0 177.5 -27.5t182.5 -74.5v-35q-107 -161 -229.5 -245.5t-239.5 -84.5z" />
    <glyph glyph-name="uni2709" unicode="&#x2709;" horiz-adv-x="2902" 
d="M1454 571l-999 922h1992zM352 209v1118l578 -541zM2550 209l-576 573l576 545v-1118zM367 -59l710 718l377 -358l375 358l708 -718h-2170z" />
    <glyph glyph-name="uni272B" unicode="&#x272b;" horiz-adv-x="2150" 
d="M1321 1028l612 6l39 -100l-497 -346l204 -588l-88 -59l-516 381l-518 -381l-86 59l205 588l-498 346l39 100l612 -6l193 580h106zM1075 483l250 240l-250 240l-250 -240z" />
    <glyph glyph-name="uni2731" unicode="&#x2731;" horiz-adv-x="2088" 
d="M549 35l-215 219l328 315l-441 -4v305l449 -4l-326 314l207 215l338 -340l-4 461h319l-4 -467l344 348l211 -219l-328 -312l441 4v-305l-449 4l334 -317l-209 -213l-344 348l4 -469h-319l4 463z" />
    <glyph glyph-name="uni2735" unicode="&#x2735;" horiz-adv-x="2004" 
d="M1849 764v-78l-415 -104l237 -359l-53 -65l-383 188l-55 -426l-78 -16l-174 385l-316 -289l-65 41l110 405l-426 -18l-28 76l352 235l-344 262l29 78l422 -45l-97 418l74 41l291 -303l198 381l82 -17l27 -421l397 170l52 -66l-252 -344z" />
    <glyph glyph-name="uni274C" unicode="&#x274c;" horiz-adv-x="2088" 
d="M483 -51l-233 237l559 531l-559 532l227 236l563 -549l564 549l231 -240l-559 -530l559 -533l-229 -233l-562 547z" />
    <glyph glyph-name="uniE023.open" unicode="&#x276c;" horiz-adv-x="1886" 
d="M930 -348l-785 1032v25l785 1032h643v-2089h-643zM1110 -18h109v1429h-109l-539 -721z" />
    <glyph glyph-name="uniE024.open" unicode="&#x276d;" horiz-adv-x="1886" 
d="M313 -348v2089h643l785 -1032v-25l-785 -1032h-643zM668 -18h108l539 720l-539 709h-108v-1429z" />
    <glyph glyph-name="uniE023.solid" unicode="&#x2770;" horiz-adv-x="1886" 
d="M1561 1741v-2089h-646l-770 1032v25l770 1032h646z" />
    <glyph glyph-name="uniE024.solid" unicode="&#x2771;" horiz-adv-x="1886" 
d="M326 -348v2089h645l770 -1032v-25l-770 -1032h-645z" />
    <glyph glyph-name="uni2795" unicode="&#x2795;" horiz-adv-x="2088" 
d="M227 561v322h641v633h353v-633h641v-322h-641v-643h-353v643h-641z" />
    <glyph glyph-name="uni27A1" unicode="&#x27a1;" horiz-adv-x="2088" 
d="M999 18l-47 25l17 430l-711 -10v573l711 -10l-17 430l47 25l940 -731z" />
    <glyph glyph-name="uniE000" unicode="&#xe000;" horiz-adv-x="1601" 
d="M799 205q-244 0 -388.5 140t-144.5 372q0 231 144.5 371.5t388.5 140.5q248 0 392 -140t144 -372q0 -231 -144.5 -371.5t-391.5 -140.5z" />
    <glyph glyph-name="uniE001" unicode="&#xe001;" horiz-adv-x="1601" 
d="M799 205q-244 0 -388.5 140t-144.5 372q0 231 144.5 371.5t388.5 140.5q248 0 392 -140t144 -372q0 -231 -144.5 -371.5t-391.5 -140.5zM799 494q105 0 166 61t61 162t-61 162t-166 61q-102 0 -163 -61.5t-61 -161.5t61 -161.5t163 -61.5z" />
    <glyph glyph-name="uniE002" unicode="&#xe002;" horiz-adv-x="2252" 
d="M559 1059q-91 0 -146 51.5t-55 138.5q0 88 55 140.5t146 52.5q92 0 146.5 -52.5t54.5 -140.5t-54.5 -139t-146.5 -51zM1126 1059q-91 0 -145.5 51.5t-54.5 138.5q0 88 54.5 140.5t145.5 52.5q92 0 146.5 -52.5t54.5 -140.5t-54.5 -139t-146.5 -51zM1694 1059
q-91 0 -146 51.5t-55 138.5q0 88 55 140.5t146 52.5q92 0 146 -52.5t54 -140.5t-54 -139t-146 -51zM559 524q-91 0 -146 52.5t-55 140.5q0 86 55 139t146 53q92 0 146.5 -52.5t54.5 -139.5q0 -88 -54.5 -140.5t-146.5 -52.5zM1126 524q-91 0 -145.5 52.5t-54.5 140.5
q0 86 54.5 139t145.5 53q92 0 146.5 -52.5t54.5 -139.5q0 -88 -54.5 -140.5t-146.5 -52.5zM1694 524q-91 0 -146 52.5t-55 140.5q0 86 55 139t146 53q92 0 146 -52.5t54 -139.5q0 -88 -54 -140.5t-146 -52.5zM559 -8q-91 0 -146 51.5t-55 140.5q0 86 55 138.5t146 52.5
q92 0 146.5 -52t54.5 -139q0 -89 -54 -140.5t-147 -51.5zM1126 -8q-91 0 -145.5 51.5t-54.5 140.5q0 86 54.5 138.5t145.5 52.5q92 0 146.5 -52t54.5 -139q0 -89 -54 -140.5t-147 -51.5zM1694 -8q-91 0 -146 51.5t-55 140.5q0 86 55 138.5t146 52.5q92 0 146 -52t54 -139
q0 -89 -54 -140.5t-146 -51.5z" />
    <glyph glyph-name="uniE003" unicode="&#xe003;" horiz-adv-x="2088" 
d="M1090 18l-940 732l940 731l47 -25l-17 -430l711 10v-573l-711 10l17 -430z" />
    <glyph glyph-name="uniE004" unicode="&#xe004;" horiz-adv-x="1863" 
d="M633 -45l14 633l-442 -8l-25 49l752 913l751 -913l-24 -49l-442 8l14 -633h-598z" />
    <glyph glyph-name="uniE005" unicode="&#xe005;" horiz-adv-x="1863" 
d="M932 -109l-752 914l25 49l442 -8l-14 633h598l-14 -633l442 8l24 -49z" />
    <glyph glyph-name="uniE006" unicode="&#xe006;" horiz-adv-x="3045" 
d="M297 266v967h2011l512 -483l-512 -484h-2011z" />
    <glyph glyph-name="uniE007" unicode="&#xe007;" horiz-adv-x="3045" 
d="M297 266v967h2011l512 -483l-512 -484h-2011zM649 586h1522l166 164l-166 163h-1522v-327z" />
    <glyph glyph-name="uniE008" unicode="&#xe008;" horiz-adv-x="3045" 
d="M297 266v967h2011l512 -483l-512 -484h-2011zM649 586h1413v327h-1413v-327z" />
    <glyph glyph-name="uniE009" unicode="&#xe009;" horiz-adv-x="2662" 
d="M297 465v569h2068v-569h-2068z" />
    <glyph glyph-name="uniE00A" unicode="&#xe00a;" horiz-adv-x="2662" 
d="M297 844v332h2068v-332h-2068zM297 305v330h2068v-330h-2068z" />
    <glyph glyph-name="uniE00B" unicode="&#xe00b;" horiz-adv-x="2662" 
d="M297 1075v289h2068v-289h-2068zM297 600v281h2068v-281h-2068zM297 117v289h2068v-289h-2068z" />
    <glyph glyph-name="uniE00C" unicode="&#xe00c;" horiz-adv-x="2248" 
d="M1124 266q-346 0 -546.5 76.5t-200.5 187.5t200.5 187t546.5 76q347 0 547.5 -76t200.5 -187t-201 -187.5t-547 -76.5zM373 139v191h10q16 -37 66.5 -73t137 -68.5t226.5 -53t311 -20.5t311 20.5t226.5 53t137.5 68.5t67 73h10v-191q0 -53 -51 -100.5t-144.5 -84
t-237.5 -58t-319 -21.5q-346 0 -548.5 76.5t-202.5 187.5z" />
    <glyph glyph-name="uniE00D" unicode="&#xe00d;" horiz-adv-x="2248" 
d="M1124 649q-346 0 -546.5 76.5t-200.5 187.5t200.5 187t546.5 76q347 0 547.5 -76t200.5 -187t-201 -187.5t-547 -76.5zM373 522v191h10q16 -37 66.5 -73t137 -68.5t226.5 -53t311 -20.5t311 20.5t226.5 53t137.5 68.5t67 73h10v-191q0 -53 -51 -100.5t-144.5 -84
t-237.5 -58t-319 -21.5q-346 0 -548.5 76.5t-202.5 187.5zM373 139v191h10q16 -37 66.5 -73t137 -68.5t226.5 -53t311 -20.5t311 20.5t226.5 53t137.5 68.5t67 73h10v-191q0 -53 -51 -100.5t-144.5 -84t-237.5 -58t-319 -21.5q-346 0 -548.5 76.5t-202.5 187.5z" />
    <glyph glyph-name="uniE00E" unicode="&#xe00e;" horiz-adv-x="2248" 
d="M1124 1032q-346 0 -546.5 76.5t-200.5 187.5t200.5 187t546.5 76q347 0 547.5 -76t200.5 -187t-201 -187.5t-547 -76.5zM373 905v191h10q16 -37 66.5 -73t137 -68.5t226.5 -53t311 -20.5t311 20.5t226.5 53t137.5 68.5t67 73h10v-191q0 -53 -51 -100.5t-144.5 -84
t-237.5 -58t-319 -21.5q-346 0 -548.5 76.5t-202.5 187.5zM373 522v191h10q16 -37 66.5 -73t137 -68.5t226.5 -53t311 -20.5t311 20.5t226.5 53t137.5 68.5t67 73h10v-191q0 -53 -51 -100.5t-144.5 -84t-237.5 -58t-319 -21.5q-346 0 -548.5 76.5t-202.5 187.5zM373 139v191
h10q16 -37 66.5 -73t137 -68.5t226.5 -53t311 -20.5t311 20.5t226.5 53t137.5 68.5t67 73h10v-191q0 -53 -51 -100.5t-144.5 -84t-237.5 -58t-319 -21.5q-346 0 -548.5 76.5t-202.5 187.5z" />
    <glyph glyph-name="uniE00F" unicode="&#xe00f;" horiz-adv-x="2248" 
d="M1124 227l-837 297v37l837 297l838 -297v-37zM1124 -156l-827 293v230l827 -293l828 293v-230z" />
    <glyph glyph-name="uniE010" unicode="&#xe010;" horiz-adv-x="2248" 
d="M1124 598l-837 297v37l837 297l838 -297v-37zM1124 215l-827 293v229l827 -293l828 293v-229zM1124 -156l-827 293v230l827 -293l828 293v-230z" />
    <glyph glyph-name="uniE011" unicode="&#xe011;" horiz-adv-x="2248" 
d="M1124 969l-837 297v37l837 296l838 -296v-37zM1124 586l-827 293v229l827 -293l828 293v-229zM1124 215l-827 293v229l827 -293l828 293v-229zM1124 -156l-827 293v230l827 -293l828 293v-230z" />
    <glyph glyph-name="uniE012" unicode="&#xe012;" horiz-adv-x="2207" 
d="M1104 -94q-256 0 -448 100t-295 283.5t-103 427.5q0 368 229.5 589.5t616.5 221.5q389 0 617.5 -220.5t228.5 -590.5q0 -368 -229.5 -589.5t-616.5 -221.5zM750 1149v-236q190 119 372 119q162 0 162 -90q0 -22 -13.5 -41t-47.5 -40.5t-101 -43.5t-166 -43v-203h2
q305 54 448.5 144.5t143.5 245.5q0 96 -57.5 162t-145 94t-198.5 28q-195 0 -399 -96zM1075 141q78 0 124 43t46 109v2q0 66 -46 107.5t-124 41.5q-80 0 -126 -41.5t-46 -107.5v-2q0 -66 46 -109t126 -43z" />
    <glyph glyph-name="uniE013" unicode="&#xe013;" horiz-adv-x="2207" 
d="M1104 -94q-256 0 -448 100t-295 283.5t-103 427.5q0 368 229.5 589.5t616.5 221.5q389 0 617.5 -220.5t228.5 -590.5q0 -368 -229.5 -589.5t-616.5 -221.5zM1006 608h198l74 623v18h-348v-18zM1106 141q78 0 124 43t46 109v2q0 66 -46 107.5t-124 41.5q-80 0 -126 -41.5
t-46 -107.5v-2q0 -66 46 -109t126 -43z" />
    <glyph glyph-name="uniE014" unicode="&#xe014;" horiz-adv-x="2209" 
d="M733 -74l-434 434v713l434 434h744l434 -434v-713l-434 -434h-744zM633 602h940v238h-940v-238z" />
    <glyph glyph-name="uniE015" unicode="&#xe015;" horiz-adv-x="2117" 
d="M1292 956v541h51l488 -489v-52h-539zM352 -59v1552h731v-735h744v-817h-1475z" />
    <glyph glyph-name="uniE016" unicode="&#xe016;" horiz-adv-x="2324" 
d="M492 1087q-95 0 -153 55t-58 146t58 147t153 56q96 0 152 -55.5t56 -147.5q0 -91 -56 -146t-152 -55zM885 1147v285h1126l-61 -285h-1065zM492 514q-95 0 -153 55.5t-58 147.5q0 91 58 147t153 56q96 0 152 -55.5t56 -147.5q0 -93 -56 -148t-152 -55zM885 573v287h1126
l-61 -287h-1065zM492 -57q-96 0 -153.5 55t-57.5 147q0 90 58 145.5t153 55.5q96 0 152 -55.5t56 -145.5q0 -93 -56 -147.5t-152 -54.5zM885 2v285h1126l-61 -285h-1065z" />
    <glyph glyph-name="uniE017" unicode="&#xe017;" horiz-adv-x="1689" 
d="M369 182l28 1334l70 30l1006 -903l-5 -49l-452 -2l256 -545l-289 -135l-256 567l-305 -299z" />
    <glyph glyph-name="uniE018" unicode="&#xe018;" horiz-adv-x="1966" 
d="M522 422q-145 0 -235 82.5t-90 218.5q0 135 90 218t235 83q79 0 148 -29l366 217v15q0 124 87.5 212.5t226.5 88.5q146 0 233.5 -82t87.5 -219t-87.5 -219t-233.5 -82q-106 0 -176 43l-340 -199q2 -14 2 -47q0 -14 -5 -49l347 -207q74 41 172 41q146 0 233.5 -82.5
t87.5 -218.5q0 -138 -87.5 -219.5t-233.5 -81.5q-139 0 -226.5 88t-87.5 213v18l-368 224q-73 -27 -146 -27z" />
    <glyph glyph-name="uniE019" unicode="&#xe019;" horiz-adv-x="2207" 
d="M1104 -94q-256 0 -448 100t-295 283.5t-103 427.5q0 368 229.5 589.5t616.5 221.5q389 0 617.5 -220.5t228.5 -590.5q0 -368 -229.5 -589.5t-616.5 -221.5zM760 246h688v20l-254 469q93 26 146 92t53 150q0 115 -80.5 188.5t-208.5 73.5q-127 0 -208 -74t-81 -188
q0 -84 53 -150t146 -92l-254 -469v-20z" />
    <glyph glyph-name="uniE01A" unicode="&#xe01a;" horiz-adv-x="2285" 
d="M633 14l-15 58l95 143l-426 344l-45 107l8 98l82 92l-8 129l38 82l107 57l35 131l65 64l125 18l78 109l78 35l127 -33l115 80h102l115 -80l127 33l77 -35l78 -109l125 -18l66 -64l35 -131l106 -57l39 -82l-8 -129l82 -92l8 -98l-45 -107l-426 -344l94 -143l-14 -58h-330
l-152 -123h-57l-151 123h-330z" />
    <glyph glyph-name="uniE01B" unicode="&#xe01b;" horiz-adv-x="2088" 
d="M1044 -139q-157 42 -295.5 109t-246.5 152.5t-170 192.5t-60 220q0 106 40 254t40 225q0 109 -90 248l246 221q72 -40 128 -59t118 -19q76 0 140 38t132 118h37q68 -80 132 -118t140 -38q62 0 118 19t128 59l246 -221q-90 -139 -90 -248q0 -77 40 -225t40 -254
q2 -113 -60 -220t-170.5 -192.5t-247 -152.5t-295.5 -109z" />
    <glyph glyph-name="uniE01C" unicode="&#xe01c;" horiz-adv-x="1781" 
d="M1073 -82v623h-868v34l366 441l-366 442v35h1202v-1575h-334z" />
    <glyph glyph-name="uniE01D" unicode="&#xe01d;" horiz-adv-x="2088" 
d="M874 -82l5 422l-365 -199l-39 254l-268 164v51l276 148l-168 370l35 58l434 -119l230 496h61l230 -496l434 119l35 -58l-168 -370l276 -148v-51l-268 -164l-39 -254l-365 199l4 -422h-340z" />
    <glyph glyph-name="uniE01E" unicode="&#xe01e;" horiz-adv-x="2088" 
d="M874 -82l3 240l-705 104l-10 47l383 299l-199 76l-10 41l356 276l-143 60l-10 39l483 463h45l483 -463l-10 -39l-143 -57l356 -279l-10 -41l-199 -76l383 -299l-10 -47l-705 -104l2 -240h-340z" />
    <glyph glyph-name="uniE01F" unicode="&#xe01f;" horiz-adv-x="2048" 
d="M360 -59l138 899l-213 247l26 406h307l17 -238h215l18 238h312l18 -238h215l17 238h307l26 -406l-213 -247l138 -899h-1328z" />
    <glyph glyph-name="uniE020" unicode="&#xe020;" horiz-adv-x="1679" 
d="M1305 -82h-334v596l-908 465v35l1188 530h54v-1626z" />
    <glyph glyph-name="uniE021" unicode="&#xe021;" horiz-adv-x="2088" 
d="M803 1100v307h483v-307h-483zM508 561v299h1073v-299h-1073zM201 23v299h1687v-299h-1687z" />
    <glyph glyph-name="uniE022" unicode="&#xe022;" horiz-adv-x="2088" 
d="M201 1104v299h1687v-299h-1687zM508 565v297h1073v-297h-1073zM803 18v306h483v-306h-483z" />
    <glyph glyph-name="uniE023" unicode="&#xe023;" horiz-adv-x="1669" 
d="M1055 -348l-865 1032v25l865 1032h456l-868 -1043l868 -1046h-456z" />
    <glyph glyph-name="uniE024" unicode="&#xe024;" horiz-adv-x="1669" 
d="M154 -348l866 1048l-866 1041h456l863 -1032v-25l-863 -1032h-456z" />
    <glyph glyph-name="uniE025" unicode="&#xe025;" horiz-adv-x="1847" 
d="M393 -129v1622h1061v-1622h-41l-489 446l-490 -446h-41z" />
    <glyph glyph-name="uniE026" unicode="&#xe026;" horiz-adv-x="2056" 
d="M1028 1538q217 0 339 -139.5t122 -366.5q0 -79 -19.5 -155t-58.5 -144t-93 -119.5t-129 -81.5t-161 -30t-161 30t-129 81.5t-93 119.5t-58.5 144t-19.5 155q0 227 122 366.5t339 139.5zM1862 -59h-1667l20 252q5 65 29.5 105t85.5 71.5t172 54.5l160 37
q156 -146 366 -146q211 0 367 146l159 -37q111 -23 172 -54.5t85.5 -71.5t29.5 -105z" />
    <glyph glyph-name="uniE027" unicode="&#xe027;" horiz-adv-x="2048" 
d="M1024 1073q-92 0 -148.5 54t-56.5 143q0 88 56.5 142t148.5 54q93 0 149 -54t56 -142q0 -89 -55.5 -143t-149.5 -54zM510 801q-93 0 -149 53.5t-56 142.5q0 88 56.5 142.5t148.5 54.5q94 0 149.5 -54t55.5 -143q0 -90 -55 -143t-150 -53zM1538 801q-94 0 -149.5 53.5
t-55.5 142.5q0 88 56 142.5t149 54.5t149 -54.5t56 -142.5q0 -89 -55.5 -142.5t-149.5 -53.5zM1024 512q-95 0 -154 56.5t-59 148.5q0 91 59 148t154 57q96 0 154.5 -57t58.5 -148q0 -92 -58 -148.5t-155 -56.5zM510 240q-93 0 -149 53.5t-56 142.5q0 88 56.5 142.5
t148.5 54.5q94 0 149.5 -54t55.5 -143q0 -90 -55 -143t-150 -53zM1538 240q-94 0 -149.5 53.5t-55.5 142.5q0 88 56 142.5t149 54.5t149 -54.5t56 -142.5q0 -89 -55.5 -142.5t-149.5 -53.5zM1024 -33q-93 0 -149 53.5t-56 143.5q0 88 56.5 142t148.5 54q93 0 149 -54
t56 -142q0 -91 -55.5 -144t-149.5 -53z" />
    <glyph glyph-name="uniE028" unicode="&#xe028;" horiz-adv-x="1630" 
d="M268 954q0 272 147 423t400 151q257 0 402 -149.5t145 -424.5v-475q0 -273 -145.5 -423t-401.5 -150q-254 0 -400.5 150t-146.5 423v475zM815 754q119 0 184.5 67.5t65.5 182.5t-65.5 182t-184.5 67q-116 0 -183 -67t-67 -182t67 -182.5t183 -67.5z" />
    <glyph glyph-name="uniE029" unicode="&#xe029;" horiz-adv-x="1630" 
d="M815 -94q-257 0 -402 149.5t-145 423.5v475q0 273 145.5 423.5t401.5 150.5q254 0 400.5 -150.5t146.5 -423.5v-475q0 -272 -146.5 -422.5t-400.5 -150.5zM815 180q116 0 183 67.5t67 182.5t-67 182.5t-183 67.5q-119 0 -184.5 -67.5t-65.5 -182.5t65.5 -182.5
t184.5 -67.5z" />
    <glyph glyph-name="uniE02A" unicode="&#xe02a;" horiz-adv-x="2195" 
d="M1735 1505l211 -200l-160 -197l164 -197l-164 -196l164 -197l-164 -196l160 -197l-211 -201l-207 160l-207 -164l-207 164l-207 -164l-207 164l-206 -160l-211 201l159 197l-163 196l163 197l-163 196l163 197l-159 197l211 200l206 -159l207 163l207 -163l207 163
l207 -163z" />
    <glyph glyph-name="hcoslug" unicode="&#xe10b;" horiz-adv-x="1439" 
d="M111 -205v1639h1216v-1639h-1216zM469 319q129 0 213 93q51 -52 89.5 -72.5t84.5 -20.5q68 0 114.5 53t49.5 140l-14 4q-34 -59 -88 -59q-30 0 -59 19.5t-68 64.5q42 56 94 86q30 -52 88 -52q43 0 72.5 32t29.5 79t-29.5 77t-72.5 30q-70 0 -123 -78q-6 79 -100 76
q18 30 18 69q0 59 -52.5 105.5t-142.5 46.5q-99 0 -161 -52.5t-62 -121.5q0 -43 15 -75t49 -67q-168 -57 -168 -186q0 -81 65 -136t158 -55zM592 756q-30 29 -42.5 42.5t-24 35t-11.5 43.5q0 26 15 42.5t40 16.5q26 0 43 -21.5t17 -56.5q0 -46 -37 -102zM731 606
q-67 78 -84 94q61 42 86 70q23 -23 29 -49t-2 -52.5t-29 -62.5zM543 449q-46 0 -76.5 31.5t-30.5 78.5q0 49 33 82q76 -72 152 -168q-31 -24 -78 -24zM729 150h12l9 16q10 -16 28 -16q17 0 25 13.5t8 29.5q0 18 -8.5 29t-22.5 11q-20 0 -26 -18v55h-37v-14h12v-106zM264 152
h62v14h-21v33h8q7 0 9 -3t4 -14h14v47h-14q-1 -6 -1.5 -8.5t-2 -4.5t-3.5 -2.5t-6 -0.5h-8v37h25q11 0 15 -5t7 -22h17v41h-105v-14h15v-84h-15v-14zM594 150q23 0 29 26l-11 4q-3 -14 -10 -14q-8 0 -8 10v41h27v14h-27v23l-25 -4v-19h-14v-14h14v-41q0 -26 25 -26zM457 152
h45v14h-8v31q0 20 14 20q12 0 12 -14v-37h-8v-14h45v14h-12v39q0 28 -25 28q-19 0 -28 -22v20h-35v-14h12v-51h-12v-14zM408 150q19 0 31 12t12 31q0 18 -12 29t-31 11t-31 -11t-12 -29q0 -20 12 -31.5t31 -11.5zM670 150q13 0 20.5 7.5t7.5 18.5q0 19 -24.5 25t-24.5 12
q0 8 10 8q11 0 21 -14h14v26h-12l-4 -10q-7 10 -23 10q-13 0 -20.5 -7t-7.5 -17q0 -19 24.5 -26t24.5 -13q0 -8 -10 -8q-13 0 -25 18h-14v-28h14l2 8q15 -10 27 -10zM836 121q23 0 36 33l27 63h10v14h-35v-14h11l-17 -41l-18 41h12v14h-51v-14h10q25 -47 33 -67
q-3 -17 -16 -17q5 5 2 13t-13 8q-14 0 -14 -15q0 -18 23 -18zM408 160q-17 0 -17 33q0 30 17 30q16 0 16 -30q0 -33 -16 -33zM770 164q-16 0 -16 26q0 27 16 27q14 0 14 -27q0 -26 -14 -26zM573 0h48v14h-11v52h29v-52h-10v-14h47v14h-12v107l-21 -4q-8 4 -18 4
q-16 0 -27.5 -10t-11.5 -29v-2h-15v-14h15v-52h-13v-14zM1028 -2q46 0 49 47h-16q-4 -33 -29 -33q-33 0 -33 45t29 45q12 0 18.5 -6.5t12.5 -25.5h16v45h-16l-2 -13q-15 15 -33 15q-22 0 -38.5 -17.5t-16.5 -44.5q0 -26 15.5 -41.5t43.5 -15.5zM262 0h60v14h-17v37h45v-37
h-16v-14h59v14h-16v84h16v15h-59v-15h16v-32h-45v32h17v15h-60v-15h17v-84h-17v-14zM610 80v6q0 25 13 25l6 -2q-2 -3 -2 -7q0 -12 12 -12v-10h-29zM879 -2q18 0 30 12q10 -12 25 -12q20 0 27 25l-11 2q-3 -11 -8 -11t-12 11q12 16 18 28h10v15h-36v-15h12q-3 -9 -12 -18
q-4 4 -12 12.5t-13 13.5q23 10 23 25q0 10 -8 17.5t-21 7.5q-14 0 -24.5 -9t-10.5 -20q0 -13 12 -25q-26 -7 -26 -30q0 -29 37 -29zM891 68q-12 12 -12 20q0 10 10 10q12 0 12 -12q0 -11 -10 -18zM530 -2q30 0 37 29h-14q-3 -15 -18 -15q-21 0 -21 25h53q3 45 -39 45
q-17 0 -29 -12t-12 -31t11.5 -30t31.5 -11zM721 -2q30 0 37 29h-15q-3 -15 -18 -15q-20 0 -20 25h53q3 45 -39 45q-17 0 -29 -12t-12 -31t11.5 -30t31.5 -11zM438 -2q19 0 31 12t12 31t-12 30t-31 11t-31 -11t-12 -30q0 -20 12 -31.5t31 -11.5zM1126 -2q19 0 31 12t12 31
t-12 30t-31 11t-31 -11t-12 -30q0 -20 12 -31.5t31 -11.5zM762 0h53v14h-16v33q8 19 14 19v-3q0 -12 12 -12q6 0 10.5 4.5t4.5 10.5q0 16 -17 16q-15 0 -24 -23v21h-37v-14h12v-52h-12v-14zM438 8q-16 0 -16 33q0 31 16 31q17 0 17 -31q0 -33 -17 -33zM1126 8q-16 0 -16 33
q0 31 16 31q17 0 17 -31q0 -33 -17 -33zM514 47q0 25 14 25q15 0 15 -25h-29zM705 47q0 25 14 25t14 -25h-28zM887 12q-9 0 -15 6t-6 15q0 10 8 18q9 -9 29 -33q-9 -6 -16 -6zM1188 -2q14 0 14 14q0 15 -14 15t-14 -15q0 -14 14 -14z" />
    <glyph glyph-name="uniFEFF" unicode="&#xfeff;" horiz-adv-x="0" 
 />
    <glyph glyph-name="uni1F441" unicode="&#x1f441;" horiz-adv-x="2002" 
d="M1001 102q-516 0 -880 615q363 614 880 614q520 0 881 -614q-362 -615 -881 -615zM1001 332q179 0 291.5 108t112.5 277q0 171 -111.5 278t-292.5 107q-178 0 -290.5 -108t-112.5 -277q0 -170 112.5 -277.5t290.5 -107.5zM1001 541q-83 0 -129.5 47t-46.5 129t46.5 129
t129.5 47q84 0 130.5 -47t46.5 -129t-46.5 -129t-130.5 -47z" />
    <glyph glyph-name="uni1F451" unicode="&#x1f451;" horiz-adv-x="2416" 
d="M467 229l-262 899l74 43l286 -245l41 6l58 366l75 15l232 -318h41l157 467h78l158 -467h41l231 320l76 -17l57 -366l41 -6l287 245l74 -43l-262 -899h-1483z" />
    <glyph glyph-name="uni1F4AC" unicode="&#x1f4ac;" horiz-adv-x="2248" 
d="M297 -109l-21 60q349 237 512 479q-232 57 -360.5 184.5t-128.5 303.5q0 117 60.5 226.5t167.5 195t268.5 137t349.5 51.5t350.5 -53.5t269 -140t166.5 -194t60 -218.5q0 -100 -25.5 -185t-87 -173t-175.5 -173t-280 -166q-450 -218 -1126 -334z" />
    <glyph glyph-name="uni1F4C8" unicode="&#x1f4c8;" horiz-adv-x="2174" 
d="M1491 -82v1575h338v-1575h-338zM879 -82v1145h338v-1145h-338zM266 -82v715h336v-715h-336z" />
    <glyph glyph-name="uni1F4C9" unicode="&#x1f4c9;" horiz-adv-x="2174" 
d="M346 -82v1575h338v-1575h-338zM958 -82v1145h338v-1145h-338zM1573 -82v715h336v-715h-336z" />
    <glyph glyph-name="uni1F4D5" unicode="&#x1f4d5;" horiz-adv-x="2086" 
d="M799 -59q-72 0 -132.5 16t-111.5 48.5t-88.5 65.5t-83.5 83q-50 54 -69 110t-19 135v731q0 199 94 293q72 72 217 72h967v-379h-19l-204 184h-682q-43 0 -65 -17.5t-19 -47.5q3 -23 18.5 -44.5t54.5 -55.5q57 -52 105.5 -72.5t116.5 -20.5h948v-1101h-1028z" />
    <glyph glyph-name="uni1F4F1" unicode="&#x1f4f1;" horiz-adv-x="1878" 
d="M629 -86q-152 0 -218.5 66.5t-66.5 218.5v1036q0 152 66.5 218.5t218.5 66.5h620q152 0 218.5 -66.5t66.5 -218.5v-1036q0 -152 -66.5 -218.5t-218.5 -66.5h-620zM766 150h344q45 0 70.5 26.5t25.5 71.5q0 44 -25 69t-71 25h-344q-46 0 -71 -25t-25 -69q0 -45 25.5 -71.5
t70.5 -26.5z" />
    <glyph glyph-name="uni1F50D" unicode="&#x1f50d;" horiz-adv-x="1882" 
d="M944 199q-314 0 -505 182.5t-191 478.5q0 145 50 269t140 212t220.5 137.5t285.5 49.5q313 0 504.5 -184t191.5 -484q0 -164 -64 -297.5t-181 -224.5l262 -463l-311 -162l-271 496q-72 -10 -131 -10zM952 522q150 0 241 93.5t91 244.5q0 152 -92.5 246t-247.5 94
q-154 0 -246 -94t-92 -246q0 -153 92.5 -245.5t253.5 -92.5z" />
    <glyph glyph-name="uni1F512" unicode="&#x1f512;" horiz-adv-x="2183" 
d="M285 -59v878h229v164q0 253 154.5 399t423.5 146q268 0 422.5 -145.5t154.5 -399.5v-164h229v-878h-1613zM848 979v-160h487v160q0 122 -58 192t-185 70t-185.5 -70t-58.5 -192z" />
    <glyph glyph-name="uni1F514" unicode="&#x1f514;" horiz-adv-x="2117" 
d="M242 186l20 254q1 12 3.5 22.5t5 18t8.5 17.5l9 15t13 15.5t14 14.5l18 18l19 19l101 98l36 219q23 191 122 306.5t245 160.5l27 180h352l27 -180q94 -29 168 -85t128 -154t70 -228l37 -219l100 -98q6 -6 17.5 -17t15.5 -15.5t13 -14t12.5 -14t9.5 -13t8.5 -14.5t6 -15
t5 -18t2.5 -19l21 -254h-647q63 -57 63 -147v-4q0 -88 -63.5 -149.5t-169.5 -61.5q-109 0 -171.5 61t-62.5 150v4q0 86 64 147h-647z" />
    <glyph glyph-name="uni1F517" unicode="&#x1f517;" horiz-adv-x="2994" 
d="M754 -33q-252 135 -381 311.5t-129 413.5q0 162 63 306.5t176.5 252.5t282.5 171t369 63q202 0 367.5 -53.5t273.5 -146.5t166.5 -216.5t58.5 -265.5q0 -95 -31 -213l-336 -43q31 91 31 209q0 192 -139 303.5t-385 111.5q-119 0 -220 -37t-169.5 -100t-107 -147.5
t-38.5 -177.5q0 -178 105 -303.5t321 -243.5zM1874 -49q-202 0 -367.5 53.5t-273.5 146.5t-166.5 216.5t-58.5 265.5q0 99 30 213l336 43q-31 -91 -31 -209q0 -192 139.5 -304t385.5 -112q237 0 385.5 135.5t148.5 329.5q0 88 -28 163t-85.5 141t-132 122.5t-180.5 118.5
l279 194q251 -141 380.5 -318t129.5 -407q0 -162 -63.5 -306.5t-177 -252t-282 -170.5t-368.5 -63z" />
    <glyph glyph-name="uni1F553" unicode="&#x1f553;" horiz-adv-x="2207" 
d="M1104 -94q-256 0 -448 100t-295 283.5t-103 427.5q0 368 229.5 589.5t616.5 221.5q389 0 617.5 -220.5t228.5 -590.5q0 -368 -229.5 -589.5t-616.5 -221.5zM991 618l568 -360v272l-330 207v539h-238v-658z" />
    <glyph glyph-name="uni1F5DD" unicode="&#x1f5dd;" horiz-adv-x="1746" 
d="M1393 479v-422l-402 6v-145h-307v795q-208 28 -338.5 128.5t-130.5 266.5q0 101 51 182.5t138.5 132.5t198.5 78t235 27t234.5 -26.5t197.5 -77.5t138.5 -132.5t51.5 -183.5q0 -84 -36.5 -153.5t-101.5 -118t-148.5 -79.5t-182.5 -44v-240zM838 1253q-130 0 -210.5 -38
t-80.5 -107q0 -68 80.5 -105.5t210.5 -37.5q129 0 209.5 37.5t80.5 105.5q0 69 -80.5 107t-209.5 38z" />
    <glyph glyph-name="uni1F6AB" unicode="&#x1f6ab;" horiz-adv-x="2207" 
d="M1106 -94q-391 0 -625.5 223t-234.5 588q0 182 60.5 333t170.5 256.5t270.5 163.5t354.5 58q260 0 455.5 -101.5t300 -285t104.5 -424.5q0 -182 -60.5 -333t-170.5 -256.5t-270.5 -163.5t-354.5 -58zM592 711q0 -123 39 -211l364 338l367 331q-109 56 -258 56
q-235 0 -373.5 -138.5t-138.5 -375.5zM1104 209q235 0 373.5 138.5t138.5 375.5q0 123 -39 211l-365 -338l-364 -332q107 -55 256 -55z" />
    <glyph glyph-name="uni1F6D2" unicode="&#x1f6d2;" horiz-adv-x="2205" 
d="M164 1210l10 283h500l61 -291h1159l-116 -596l-1221 -98l-143 702h-250zM692 -23q-105 0 -164 61t-59 148v4q0 87 59 147t164 60q103 0 162 -60.5t59 -146.5v-4q0 -87 -59 -148t-162 -61zM1632 -23q-105 0 -164 61t-59 148v4q0 87 59 147t164 60q103 0 162 -60.5
t59 -146.5v-4q0 -87 -59 -148t-162 -61z" />
    <glyph glyph-name="uni1F6E1" unicode="&#x1f6e1;" horiz-adv-x="2088" 
d="M1034 -109q-145 80 -255 157t-208 173.5t-160.5 202t-98.5 238t-36 286.5q0 210 68 453q355 133 700 133q346 0 701 -133q67 -239 67 -453q0 -154 -36 -286.5t-98 -238t-160 -202t-208 -173.5t-255 -157h-21z" />
    <glyph glyph-name="NUL" horiz-adv-x="0" 
 />
    <glyph glyph-name="j.alt" horiz-adv-x="669" 
d="M336 1255q-104 0 -162.5 54t-58.5 135v2q0 82 58 135t161 53q104 0 162.5 -53t58.5 -135v-2q0 -81 -58.5 -135t-160.5 -54zM154 -469v1589h362v-1470z" />
    <glyph glyph-name="a.sc" horiz-adv-x="1583" 
d="M68 0l419 1227h609l420 -1227h-377l-78 240h-547l-74 -240h-372zM739 926l-139 -416h377l-137 416h-101z" />
    <glyph glyph-name="b.sc" horiz-adv-x="1536" 
d="M193 0v1227h786q199 0 309.5 -78.5t110.5 -230.5q0 -105 -49.5 -175.5t-161.5 -105.5q122 -48 178.5 -115.5t56.5 -173.5q0 -348 -475 -348h-755zM547 739h340q77 0 114 26t37 85q0 106 -149 106h-342v-217zM547 272l362 2q79 2 116.5 29t37.5 88q0 59 -37.5 87
t-122.5 28h-356v-234z" />
    <glyph glyph-name="c.sc" horiz-adv-x="1433" 
d="M821 -35q-171 0 -306 48t-221.5 135t-131.5 204.5t-45 259.5q0 138 49 256.5t140 205.5t227.5 136.5t302.5 49.5q264 0 464 -130v-337h-4q-227 157 -442 157q-163 0 -266 -94.5t-103 -241.5q0 -155 97 -247.5t272 -92.5q212 0 442 158h4v-342q-217 -125 -479 -125z" />
    <glyph glyph-name="d.sc" horiz-adv-x="1595" 
d="M193 0v1227h657q294 0 461.5 -161.5t167.5 -451.5q0 -289 -168 -451.5t-461 -162.5h-657zM553 295h250q154 0 231.5 76t77.5 241q0 320 -309 320h-250v-637z" />
    <glyph glyph-name="e.sc" horiz-adv-x="1431" 
d="M193 0v1227h1079l14 -285h-733v-199h577v-258h-577v-200h760l-15 -285h-1105z" />
    <glyph glyph-name="f.sc" horiz-adv-x="1384" 
d="M193 0v1227h1067l14 -295h-719v-234h604v-274h-604v-424h-362z" />
    <glyph glyph-name="g.sc" horiz-adv-x="1583" 
d="M821 -37q-171 0 -306.5 48.5t-221.5 134.5t-131 202t-45 254t48.5 257t139.5 208.5t232.5 141t316.5 51.5q289 0 483 -125v-326h-2q-122 70 -234.5 106.5t-240.5 36.5q-179 0 -278 -97t-99 -257q0 -156 92.5 -249t274.5 -93q133 0 216.5 56.5t84.5 152.5h-389v258h721
q4 -74 4 -135q0 -135 -35.5 -242.5t-96 -178t-146.5 -117.5t-182 -67t-206 -20z" />
    <glyph glyph-name="h.sc" horiz-adv-x="1660" 
d="M193 0v1227h362v-459h553v459h360v-1227h-360v465h-553v-465h-362z" />
    <glyph glyph-name="i.sc" horiz-adv-x="753" 
d="M195 0v1227h362v-1227h-362z" />
    <glyph glyph-name="j.sc" horiz-adv-x="1323" 
d="M596 -33q-260 0 -465 123v334h2q212 -148 426 -148q227 0 227 191v469h-450l14 291h799v-817q0 -225 -143.5 -334t-409.5 -109z" />
    <glyph glyph-name="k.sc" horiz-adv-x="1568" 
d="M193 0v1227h362v-453h162l370 453h412v-2l-485 -586l508 -637v-2h-428l-383 473h-156v-473h-362z" />
    <glyph glyph-name="l.sc" horiz-adv-x="1300" 
d="M193 0v1227h362v-918h672l-15 -309h-1019z" />
    <glyph glyph-name="m.sc" horiz-adv-x="1896" 
d="M193 0v1227h399l362 -604l349 604h403v-1227h-346v733h-8l-396 -659h-22l-391 653h-6v-727h-344z" />
    <glyph glyph-name="n.sc" horiz-adv-x="1652" 
d="M193 0v1227h378l537 -715h6v715h348v-1227h-364l-553 735h-6v-735h-346z" />
    <glyph glyph-name="o.sc" horiz-adv-x="1654" 
d="M825 -43q-324 0 -516 176t-192 475q0 301 193.5 480.5t518.5 179.5q326 0 518.5 -177t192.5 -477q0 -299 -194.5 -478t-520.5 -179zM829 268q159 0 252 90t93 252t-95 254t-254 92q-158 0 -250 -90.5t-92 -251.5q0 -164 93 -255t253 -91z" />
    <glyph glyph-name="p.sc" horiz-adv-x="1474" 
d="M193 0v1227h731q228 0 348.5 -120.5t120.5 -336.5q0 -232 -136 -349.5t-362 -117.5h-340v-303h-362zM555 590h315q84 0 125 48t41 124q0 176 -172 176h-309v-348z" />
    <glyph glyph-name="q.sc" horiz-adv-x="1677" 
d="M827 -43q-326 0 -518 176t-192 475q0 301 193.5 480.5t518.5 179.5q326 0 518.5 -177t192.5 -477q0 -166 -72 -301l101 -65v-326h-2l-277 178q-188 -143 -463 -143zM834 250q112 0 190 35l-305 184l147 211l314 -193q12 53 12 117q0 167 -97 260.5t-264 93.5
q-163 0 -256.5 -92t-93.5 -258q0 -171 94 -264.5t259 -93.5z" />
    <glyph glyph-name="r.sc" horiz-adv-x="1536" 
d="M193 0v1227h661q276 0 411.5 -103.5t135.5 -330.5q0 -152 -67 -245.5t-204 -141.5l357 -398v-8h-434l-285 346h-213v-346h-362zM555 623h291q102 0 149 38.5t47 120.5q0 80 -47 119t-149 39h-291v-317z" />
    <glyph glyph-name="s.sc" horiz-adv-x="1406" 
d="M733 -35q-149 0 -300.5 34t-276.5 89v324h2q141 -73 301.5 -115.5t281.5 -42.5q118 0 167.5 23.5t49.5 68.5q0 46 -53.5 68t-249.5 63q-74 15 -121.5 26t-106.5 28.5t-95 35.5t-74 45t-58.5 60t-34 77.5t-13.5 98.5q0 186 149.5 299t435.5 113q256 0 496 -107v-322h-2
q-117 62 -253.5 101t-260.5 39q-104 0 -155.5 -24.5t-49.5 -69.5q1 -43 52 -63t243 -60q95 -18 162.5 -36.5t136.5 -49.5t111.5 -69.5t69 -96.5t26.5 -131q0 -42 -6.5 -80.5t-24 -80t-45.5 -76.5t-73.5 -67t-104.5 -54t-142 -35t-184 -13z" />
    <glyph glyph-name="t.sc" horiz-adv-x="1433" 
d="M537 0v922h-443l15 305h1218l12 -305h-442v-922h-360z" />
    <glyph glyph-name="u.sc" horiz-adv-x="1599" 
d="M797 -35q-110 0 -202.5 17.5t-171.5 56.5t-133.5 98.5t-85 147.5t-30.5 200v742h363v-725q0 -63 22 -108.5t60 -71t83 -37t99 -11.5t98.5 11t82.5 35.5t59.5 69.5t21.5 106v731h362v-735q0 -114 -31 -203.5t-86 -149.5t-134.5 -99.5t-172.5 -57t-204 -17.5z" />
    <glyph glyph-name="v.sc" horiz-adv-x="1550" 
d="M494 0l-428 1227h389l297 -901h53l295 901h385l-426 -1227h-565z" />
    <glyph glyph-name="w.sc" horiz-adv-x="2181" 
d="M424 0l-344 1227h379l205 -815h16l268 815h312l262 -815h14l205 815h358l-338 -1227h-415l-248 748h-8l-248 -748h-418z" />
    <glyph glyph-name="x.sc" horiz-adv-x="1542" 
d="M37 0v2l500 631l-469 592v2h419l291 -365l287 365h412v-2l-471 -592l501 -631v-2h-422l-321 403l-315 -403h-412z" />
    <glyph glyph-name="y.sc" horiz-adv-x="1499" 
d="M569 0v391l-549 834v2h406l315 -506h25l319 506h394v-2l-547 -830v-395h-363z" />
    <glyph glyph-name="z.sc" horiz-adv-x="1482" 
d="M147 0v305l715 623h-698l14 299h1161v-281l-735 -647h737v-299h-1194z" />
    <glyph glyph-name="aacute.sc" horiz-adv-x="1583" 
d="M580 1382l251 351h429v-23l-361 -328h-319zM68 0l419 1227h609l420 -1227h-377l-78 240h-547l-74 -240h-372zM739 926l-139 -416h377l-137 416h-101z" />
    <glyph glyph-name="abreve.sc" horiz-adv-x="1583" 
d="M793 1364q-197 0 -309.5 80.5t-112.5 232.5q0 60 14 117h262q-6 -34 -6 -59q0 -69 41 -96t111 -27t109.5 26.5t39.5 94.5q0 27 -6 61h262q14 -57 14 -119q0 -151 -111 -231t-308 -80zM68 0l419 1227h609l420 -1227h-377l-78 240h-547l-74 -240h-372zM739 926l-139 -416
h377l-137 416h-101z" />
    <glyph glyph-name="acircumflex.sc" horiz-adv-x="1583" 
d="M303 1380l275 385h430l274 -385h-334l-119 166h-75l-119 -166h-332zM68 0l419 1227h609l420 -1227h-377l-78 240h-547l-74 -240h-372zM739 926l-139 -416h377l-137 416h-101z" />
    <glyph glyph-name="adieresis.sc" horiz-adv-x="1583" 
d="M524 1364q-88 0 -141 51.5t-53 128.5v2q0 77 52.5 127.5t141.5 50.5q90 0 142.5 -50.5t52.5 -127.5v-2q0 -77 -52.5 -128.5t-142.5 -51.5zM1063 1364q-89 0 -142 51.5t-53 128.5v2q0 77 53 127.5t142 50.5q90 0 142 -50.5t52 -127.5v-2q0 -78 -52 -129t-142 -51zM68 0
l419 1227h609l420 -1227h-377l-78 240h-547l-74 -240h-372zM739 926l-139 -416h377l-137 416h-101z" />
    <glyph glyph-name="ae.sc" horiz-adv-x="2295" 
d="M1057 0v254h-498l-141 -254h-391l700 1227h1411l12 -285h-733v-199h578v-258h-578v-200h760l-14 -285h-1106zM940 944l-231 -418h348v418h-117z" />
    <glyph glyph-name="aeacute.sc" horiz-adv-x="2295" 
d="M1063 1382l252 351h428v-23l-361 -328h-319zM1057 0v254h-498l-141 -254h-391l700 1227h1411l12 -285h-733v-199h578v-258h-578v-200h760l-14 -285h-1106zM940 944l-231 -418h348v418h-117z" />
    <glyph glyph-name="agrave.sc" horiz-adv-x="1583" 
d="M1010 1382h-322l-358 328v23h428zM68 0l419 1227h609l420 -1227h-377l-78 240h-547l-74 -240h-372zM739 926l-139 -416h377l-137 416h-101z" />
    <glyph glyph-name="amacron.sc" horiz-adv-x="1583" 
d="M383 1413v252h819v-252h-819zM68 0l419 1227h609l420 -1227h-377l-78 240h-547l-74 -240h-372zM739 926l-139 -416h377l-137 416h-101z" />
    <glyph glyph-name="aogonek.sc" horiz-adv-x="1583" 
d="M68 0l419 1227h609l420 -1227l-111 -104q-97 -93 -117 -119q-24 -33 -24 -62q0 -73 122 -73q87 0 164 34v-251q-115 -37 -237 -37q-90 0 -158 17t-107 42t-63 60.5t-31.5 66.5t-7.5 66q0 84 49.5 158.5t153.5 160.5l-90 281h-545l-74 -240h-372zM739 926l-139 -416h377
l-137 416h-101z" />
    <glyph glyph-name="aring.sc" horiz-adv-x="1583" 
d="M791 1364q-175 0 -274 82.5t-99 232.5q0 153 100 238.5t277 85.5q176 0 276 -84.5t100 -237.5q0 -150 -102 -233.5t-278 -83.5zM795 1556q68 0 106.5 32.5t38.5 92.5q0 61 -39.5 95t-107.5 34q-69 0 -109.5 -33.5t-40.5 -95.5q0 -58 41 -91.5t111 -33.5zM68 0l419 1227
h609l420 -1227h-377l-78 240h-547l-74 -240h-372zM739 926l-139 -416h377l-137 416h-101z" />
    <glyph glyph-name="aringacute.sc" horiz-adv-x="1583" 
d="M600 2122l252 350h428v-23l-360 -327h-320zM791 1364q-175 0 -274 82.5t-99 232.5q0 153 100 238.5t277 85.5q176 0 276 -84.5t100 -237.5q0 -150 -102 -233.5t-278 -83.5zM795 1556q68 0 106.5 32.5t38.5 92.5q0 61 -39.5 95t-107.5 34q-69 0 -109.5 -33.5t-40.5 -95.5
q0 -58 41 -91.5t111 -33.5zM68 0l419 1227h609l420 -1227h-377l-78 240h-547l-74 -240h-372zM739 926l-139 -416h377l-137 416h-101z" />
    <glyph glyph-name="atilde.sc" horiz-adv-x="1583" 
d="M616 1737q54 0 98 -13.5t126 -50.5q61 -28 89 -37.5t54 -9.5q51 0 98.5 30.5t114.5 106.5h2v-297q-108 -104 -227 -104q-55 0 -98 13t-125 50q-62 29 -90.5 38.5t-53.5 9.5q-51 0 -99 -30.5t-114 -105.5h-2v295q109 105 227 105zM68 0l419 1227h609l420 -1227h-377
l-78 240h-547l-74 -240h-372zM739 926l-139 -416h377l-137 416h-101z" />
    <glyph glyph-name="cacute.sc" horiz-adv-x="1433" 
d="M584 1413l252 350h428v-22l-361 -328h-319zM821 -35q-171 0 -306 48t-221.5 135t-131.5 204.5t-45 259.5q0 138 49 256.5t140 205.5t227.5 136.5t302.5 49.5q264 0 464 -130v-337h-4q-227 157 -442 157q-163 0 -266 -94.5t-103 -241.5q0 -155 97 -247.5t272 -92.5
q212 0 442 158h4v-342q-217 -125 -479 -125z" />
    <glyph glyph-name="ccaron.sc" horiz-adv-x="1433" 
d="M1288 1796l-274 -385h-430l-275 385h334l119 -164h76l118 164h332zM821 -35q-171 0 -306 48t-221.5 135t-131.5 204.5t-45 259.5q0 138 49 256.5t140 205.5t227.5 136.5t302.5 49.5q264 0 464 -130v-337h-4q-227 157 -442 157q-163 0 -266 -94.5t-103 -241.5
q0 -155 97 -247.5t272 -92.5q212 0 442 158h4v-342q-217 -125 -479 -125z" />
    <glyph glyph-name="ccedilla.sc" horiz-adv-x="1433" 
d="M362 -385v27l302 335q-265 40 -406 210.5t-141 424.5q0 138 49 256.5t140 205.5t227.5 136.5t302.5 49.5q264 0 464 -130v-337h-4q-227 157 -442 157q-163 0 -266 -94.5t-103 -241.5q0 -155 97 -247.5t272 -92.5q212 0 442 158h4v-342q-147 -86 -333 -115l-174 -360h-431
z" />
    <glyph glyph-name="cdotaccent.sc" horiz-adv-x="1433" 
d="M799 1395q-104 0 -162.5 53.5t-58.5 134.5v2q0 82 58 135.5t161 53.5q104 0 162.5 -53t58.5 -136v-2q0 -81 -58.5 -134.5t-160.5 -53.5zM821 -35q-171 0 -306 48t-221.5 135t-131.5 204.5t-45 259.5q0 138 49 256.5t140 205.5t227.5 136.5t302.5 49.5q264 0 464 -130
v-337h-4q-227 157 -442 157q-163 0 -266 -94.5t-103 -241.5q0 -155 97 -247.5t272 -92.5q212 0 442 158h4v-342q-217 -125 -479 -125z" />
    <glyph glyph-name="dcaron.sc" horiz-adv-x="1595" 
d="M1249 1765l-274 -385h-430l-275 385h334l119 -163h76l119 163h331zM193 0v1227h657q294 0 461.5 -161.5t167.5 -451.5q0 -289 -168 -451.5t-461 -162.5h-657zM553 295h250q154 0 231.5 76t77.5 241q0 320 -309 320h-250v-637z" />
    <glyph glyph-name="dcroat.sc" horiz-adv-x="1677" 
d="M274 0v489h-192l20 254h172v484h658q294 0 461.5 -161.5t167.5 -451.5q0 -289 -168 -451.5t-461 -162.5h-658zM633 293h252q154 0 231.5 76t77.5 243q0 322 -309 322h-252v-201h301v-235h-301v-205z" />
    <glyph glyph-name="eth.sc" horiz-adv-x="1677" 
d="M274 0v489h-192l20 254h172v484h658q294 0 461.5 -161.5t167.5 -451.5q0 -289 -168 -451.5t-461 -162.5h-658zM633 293h252q154 0 231.5 76t77.5 243q0 322 -309 322h-252v-201h301v-235h-301v-205z" />
    <glyph glyph-name="eacute.sc" horiz-adv-x="1431" 
d="M530 1382l252 351h428v-23l-360 -328h-320zM193 0v1227h1079l14 -285h-733v-199h577v-258h-577v-200h760l-15 -285h-1105z" />
    <glyph glyph-name="ebreve.sc" horiz-adv-x="1431" 
d="M745 1364q-197 0 -309 80t-112 233q0 60 14 117h262q-6 -34 -6 -59q0 -69 40.5 -96t110.5 -27t110 26.5t40 94.5q0 27 -6 61h262q14 -57 14 -119q0 -151 -111.5 -231t-308.5 -80zM193 0v1227h1079l14 -285h-733v-199h577v-258h-577v-200h760l-15 -285h-1105z" />
    <glyph glyph-name="ecaron.sc" horiz-adv-x="1431" 
d="M1235 1765l-274 -385h-431l-274 385h334l119 -163h75l119 163h332zM193 0v1227h1079l14 -285h-733v-199h577v-258h-577v-200h760l-15 -285h-1105z" />
    <glyph glyph-name="ecircumflex.sc" horiz-adv-x="1431" 
d="M256 1380l274 385h431l274 -385h-334l-119 166h-75l-119 -166h-332zM193 0v1227h1079l14 -285h-733v-199h577v-258h-577v-200h760l-15 -285h-1105z" />
    <glyph glyph-name="edieresis.sc" horiz-adv-x="1431" 
d="M477 1364q-88 0 -141 51.5t-53 128.5v2q0 77 52.5 127.5t141.5 50.5q90 0 142.5 -50.5t52.5 -127.5v-2q0 -77 -52.5 -128.5t-142.5 -51.5zM1016 1364q-89 0 -142 51.5t-53 128.5v2q0 77 53 127.5t142 50.5q90 0 142 -50.5t52 -127.5v-2q0 -78 -52 -129t-142 -51zM193 0
v1227h1079l14 -285h-733v-199h577v-258h-577v-200h760l-15 -285h-1105z" />
    <glyph glyph-name="edotaccent.sc" horiz-adv-x="1431" 
d="M745 1364q-104 0 -162.5 53.5t-58.5 134.5v2q0 82 58 135.5t161 53.5q104 0 163 -53.5t59 -135.5v-2q0 -81 -59 -134.5t-161 -53.5zM193 0v1227h1079l14 -285h-733v-199h577v-258h-577v-200h760l-15 -285h-1105z" />
    <glyph glyph-name="egrave.sc" horiz-adv-x="1431" 
d="M963 1382h-322l-358 328v23h428zM193 0v1227h1079l14 -285h-733v-199h577v-258h-577v-200h760l-15 -285h-1105z" />
    <glyph glyph-name="emacron.sc" horiz-adv-x="1431" 
d="M336 1413v252h819v-252h-819zM193 0v1227h1079l14 -285h-733v-199h577v-258h-577v-200h760l-15 -285h-1105z" />
    <glyph glyph-name="eogonek.sc" horiz-adv-x="1431" 
d="M193 0v1227h1079l14 -285h-733v-199h577v-258h-577v-200h760l-15 -283l2 -2l-110 -104q-97 -93 -117 -119q-24 -33 -24 -62q0 -73 122 -73q87 0 164 34v-251q-115 -37 -237 -37q-90 0 -158 17t-107 42t-63 60.5t-31.5 66.5t-7.5 66q0 92 61 175t189 183l2 2h-790z" />
    <glyph glyph-name="gbreve.sc" horiz-adv-x="1583" 
d="M807 1395q-197 0 -309.5 80.5t-112.5 232.5q0 60 14 117h263q-7 -40 -7 -60q0 -69 41 -96t111 -27t109.5 26.5t39.5 94.5q0 27 -6 62h262q15 -62 15 -119q0 -151 -111.5 -231t-308.5 -80zM821 -37q-171 0 -306.5 48.5t-221.5 134.5t-131 202t-45 254t48.5 257
t139.5 208.5t232.5 141t316.5 51.5q289 0 483 -125v-326h-2q-122 70 -234.5 106.5t-240.5 36.5q-179 0 -278 -97t-99 -257q0 -156 92.5 -249t274.5 -93q133 0 216.5 56.5t84.5 152.5h-389v258h721q4 -74 4 -135q0 -135 -35.5 -242.5t-96 -178t-146.5 -117.5t-182 -67
t-206 -20z" />
    <glyph glyph-name="uni0123.sc" horiz-adv-x="1583" 
d="M821 -37q-171 0 -306.5 48.5t-221.5 134.5t-131 202t-45 254t48.5 257t139.5 208.5t232.5 141t316.5 51.5q289 0 483 -125v-326h-2q-122 70 -234.5 106.5t-240.5 36.5q-179 0 -278 -97t-99 -257q0 -156 92.5 -249t274.5 -93q133 0 216.5 56.5t84.5 152.5h-389v258h721
q4 -74 4 -135q0 -135 -35.5 -242.5t-96 -178t-146.5 -117.5t-182 -67t-206 -20zM526 -629l117 434h383v-36l-283 -398h-217z" />
    <glyph glyph-name="gdotaccent.sc" horiz-adv-x="1583" 
d="M807 1395q-104 0 -162.5 53.5t-58.5 134.5v2q0 82 58 135.5t161 53.5q104 0 162.5 -53t58.5 -136v-2q0 -81 -58.5 -134.5t-160.5 -53.5zM821 -37q-171 0 -306.5 48.5t-221.5 134.5t-131 202t-45 254t48.5 257t139.5 208.5t232.5 141t316.5 51.5q289 0 483 -125v-326h-2
q-122 70 -234.5 106.5t-240.5 36.5q-179 0 -278 -97t-99 -257q0 -156 92.5 -249t274.5 -93q133 0 216.5 56.5t84.5 152.5h-389v258h721q4 -74 4 -135q0 -135 -35.5 -242.5t-96 -178t-146.5 -117.5t-182 -67t-206 -20z" />
    <glyph glyph-name="hbar.sc" horiz-adv-x="1822" 
d="M274 0v838h-192l14 252h178v137h359v-154h559v154h358v-137h179l14 -252h-193v-838h-358v410h-559v-410h-359zM633 700h559v156h-559v-156z" />
    <glyph glyph-name="iacute.sc" horiz-adv-x="753" 
d="M217 1382l252 351h428v-23l-360 -328h-320zM195 0v1227h362v-1227h-362z" />
    <glyph glyph-name="ibreve.sc" horiz-adv-x="753" 
d="M377 1364q-197 0 -309.5 80.5t-112.5 232.5q0 60 14 117h262q-6 -34 -6 -59q0 -69 41 -96t111 -27t109.5 26.5t39.5 94.5q0 27 -6 61h262q15 -62 15 -119q0 -151 -111.5 -231t-308.5 -80zM195 0v1227h362v-1227h-362z" />
    <glyph glyph-name="icircumflex.sc" horiz-adv-x="753" 
d="M-113 1380l275 385h430l274 -385h-334l-118 166h-76l-119 -166h-332zM195 0v1227h362v-1227h-362z" />
    <glyph glyph-name="idieresis.sc" horiz-adv-x="753" 
d="M109 1364q-89 0 -142 51.5t-53 128.5v2q0 77 53 127.5t142 50.5q90 0 142 -50.5t52 -127.5v-2q0 -78 -52 -129t-142 -51zM647 1364q-88 0 -141 51.5t-53 128.5v2q0 77 52.5 127.5t141.5 50.5q90 0 142.5 -50.5t52.5 -127.5v-2q0 -77 -52.5 -128.5t-142.5 -51.5zM195 0
v1227h362v-1227h-362z" />
    <glyph glyph-name="idotaccent.sc" horiz-adv-x="753" 
d="M377 1364q-104 0 -162.5 53.5t-58.5 134.5v2q0 82 58 135.5t161 53.5q104 0 162.5 -53t58.5 -136v-2q0 -81 -58.5 -134.5t-160.5 -53.5zM195 0v1227h362v-1227h-362z" />
    <glyph glyph-name="dotlessi.sc" horiz-adv-x="753" 
d="M195 0v1227h362v-1227h-362z" />
    <glyph glyph-name="igrave.sc" horiz-adv-x="753" 
d="M537 1382h-322l-358 328v23h428zM195 0v1227h362v-1227h-362z" />
    <glyph glyph-name="imacron.sc" horiz-adv-x="753" 
d="M-33 1413v252h819v-252h-819zM195 0v1227h362v-1227h-362z" />
    <glyph glyph-name="iogonek.sc" horiz-adv-x="753" 
d="M594 -575q-115 -37 -238 -37q-90 0 -158 17t-106.5 42t-62.5 60.5t-31.5 66.5t-7.5 66q0 84 50.5 159t154.5 162v1266h362v-1225l2 -2l-110 -104q-97 -93 -116 -118q-26 -33 -26 -63q0 -73 123 -73q87 0 164 34v-251z" />
    <glyph glyph-name="uni0137.sc" horiz-adv-x="1568" 
d="M193 0v1227h362v-453h162l370 453h412v-2l-485 -586l508 -637v-2h-428l-383 473h-156v-473h-362zM487 -565l117 434h383v-37l-282 -397h-218z" />
    <glyph glyph-name="lacute.sc" horiz-adv-x="1300" 
d="M213 1382l252 351h428v-23l-361 -328h-319zM193 0v1227h362v-918h672l-15 -309h-1019z" />
    <glyph glyph-name="lcaron.sc" horiz-adv-x="1300" 
d="M193 0v1227h362v-918h672l-15 -309h-1019zM729 858v367h348v-39l-153 -328h-195z" />
    <glyph glyph-name="uni013C.sc" horiz-adv-x="1300" 
d="M193 0v1227h362v-918h672l-15 -309h-1019zM408 -600l116 434h383v-37l-282 -397h-217z" />
    <glyph glyph-name="ldot.sc" horiz-adv-x="1300" 
d="M193 0v1227h362v-918h672l-15 -309h-1019zM1024 592q-94 0 -150.5 54t-56.5 134v2q0 81 56.5 135t148.5 54q95 0 151 -53.5t56 -135.5v-2q0 -80 -56.5 -134t-148.5 -54z" />
    <glyph glyph-name="lslash.sc" horiz-adv-x="1380" 
d="M272 0v387l-186 -84v281l186 84v559h363v-396l395 181v-283l-395 -178v-242h672l-13 -309h-1022z" />
    <glyph glyph-name="nacute.sc" horiz-adv-x="1652" 
d="M639 1346l252 350h428v-23l-361 -327h-319zM193 0v1227h378l537 -715h6v715h348v-1227h-364l-553 735h-6v-735h-346z" />
    <glyph glyph-name="ncaron.sc" horiz-adv-x="1652" 
d="M1343 1729l-274 -386h-430l-274 386h333l119 -164h76l119 164h331zM193 0v1227h378l537 -715h6v715h348v-1227h-364l-553 735h-6v-735h-346z" />
    <glyph glyph-name="uni0146.sc" horiz-adv-x="1652" 
d="M193 0v1227h378l537 -715h6v715h348v-1227h-364l-553 735h-6v-735h-346zM516 -563l117 434h383v-37l-283 -397h-217z" />
    <glyph glyph-name="ntilde.sc" horiz-adv-x="1652" 
d="M676 1737q54 0 97.5 -13.5t125.5 -50.5q61 -28 89 -37.5t54 -9.5q51 0 98.5 30.5t114.5 106.5h2v-297q-108 -104 -227 -104q-55 0 -98 13t-125 50q-63 29 -90.5 38.5t-52.5 9.5q-51 0 -99 -30.5t-114 -105.5h-2v295q109 105 227 105zM193 0v1227h378l537 -715h6v715h348
v-1227h-364l-553 735h-6v-735h-346z" />
    <glyph glyph-name="oacute.sc" horiz-adv-x="1654" 
d="M614 1421l252 351h428v-23l-360 -328h-320zM825 -43q-324 0 -516 176t-192 475q0 301 193.5 480.5t518.5 179.5q326 0 518.5 -177t192.5 -477q0 -299 -194.5 -478t-520.5 -179zM829 268q159 0 252 90t93 252t-95 254t-254 92q-158 0 -250 -90.5t-92 -251.5
q0 -164 93 -255t253 -91z" />
    <glyph glyph-name="obreve.sc" horiz-adv-x="1654" 
d="M827 1403q-197 0 -309 80t-112 233q0 60 14 117h262q-6 -34 -6 -59q0 -69 40.5 -96t110.5 -27t110 26.5t40 94.5q0 27 -6 61h262q14 -57 14 -119q0 -151 -111.5 -231t-308.5 -80zM825 -43q-324 0 -516 176t-192 475q0 301 193.5 480.5t518.5 179.5q326 0 518.5 -177
t192.5 -477q0 -299 -194.5 -478t-520.5 -179zM829 268q159 0 252 90t93 252t-95 254t-254 92q-158 0 -250 -90.5t-92 -251.5q0 -164 93 -255t253 -91z" />
    <glyph glyph-name="ocircumflex.sc" horiz-adv-x="1654" 
d="M338 1419l274 385h430l275 -385h-334l-119 166h-76l-118 -166h-332zM825 -43q-324 0 -516 176t-192 475q0 301 193.5 480.5t518.5 179.5q326 0 518.5 -177t192.5 -477q0 -299 -194.5 -478t-520.5 -179zM829 268q159 0 252 90t93 252t-95 254t-254 92q-158 0 -250 -90.5
t-92 -251.5q0 -164 93 -255t253 -91z" />
    <glyph glyph-name="odieresis.sc" horiz-adv-x="1654" 
d="M559 1403q-88 0 -141 51.5t-53 128.5v2q0 77 52.5 127.5t141.5 50.5q90 0 142.5 -50.5t52.5 -127.5v-2q0 -77 -52.5 -128.5t-142.5 -51.5zM1098 1403q-89 0 -142 51.5t-53 128.5v2q0 77 53 127.5t142 50.5q90 0 142 -50.5t52 -127.5v-2q0 -78 -52 -129t-142 -51zM825 -43
q-324 0 -516 176t-192 475q0 301 193.5 480.5t518.5 179.5q326 0 518.5 -177t192.5 -477q0 -299 -194.5 -478t-520.5 -179zM829 268q159 0 252 90t93 252t-95 254t-254 92q-158 0 -250 -90.5t-92 -251.5q0 -164 93 -255t253 -91z" />
    <glyph glyph-name="oe.sc" horiz-adv-x="2281" 
d="M117 612q0 290 167.5 452.5t460.5 162.5h1377l14 -285h-733v-199h577v-258h-577v-200h760l-15 -285h-1403q-294 0 -461 161t-167 451zM1042 932h-249q-154 0 -232 -76.5t-78 -241.5q0 -319 310 -319h249v637z" />
    <glyph glyph-name="ograve.sc" horiz-adv-x="1654" 
d="M1044 1421h-321l-358 328v23h428zM825 -43q-324 0 -516 176t-192 475q0 301 193.5 480.5t518.5 179.5q326 0 518.5 -177t192.5 -477q0 -299 -194.5 -478t-520.5 -179zM829 268q159 0 252 90t93 252t-95 254t-254 92q-158 0 -250 -90.5t-92 -251.5q0 -164 93 -255t253 -91
z" />
    <glyph glyph-name="ohungarumlaut.sc" horiz-adv-x="1654" 
d="M928 1419l217 353h373v-25l-336 -328h-254zM442 1419l220 353h372v-25l-336 -328h-256zM825 -43q-324 0 -516 176t-192 475q0 301 193.5 480.5t518.5 179.5q326 0 518.5 -177t192.5 -477q0 -299 -194.5 -478t-520.5 -179zM829 268q159 0 252 90t93 252t-95 254t-254 92
q-158 0 -250 -90.5t-92 -251.5q0 -164 93 -255t253 -91z" />
    <glyph glyph-name="omacron.sc" horiz-adv-x="1654" 
d="M418 1452v252h819v-252h-819zM825 -43q-324 0 -516 176t-192 475q0 301 193.5 480.5t518.5 179.5q326 0 518.5 -177t192.5 -477q0 -299 -194.5 -478t-520.5 -179zM829 268q159 0 252 90t93 252t-95 254t-254 92q-158 0 -250 -90.5t-92 -251.5q0 -164 93 -255t253 -91z
" />
    <glyph glyph-name="oslash.sc" horiz-adv-x="1654" 
d="M825 -43q-179 0 -327 57l-109 -135h-354l239 289q-157 171 -157 440q0 301 193.5 480.5t518.5 179.5q181 0 328 -58l113 133h352l-240 -286q158 -172 158 -443q0 -299 -194.5 -478t-520.5 -179zM465 614q0 -119 51 -204l447 542q-61 21 -138 21q-166 0 -263 -95t-97 -264
zM829 252q167 0 265 94.5t98 263.5q0 120 -51 205l-449 -543q59 -20 137 -20z" />
    <glyph glyph-name="oslashacute.sc" horiz-adv-x="1654" 
d="M612 1411l252 350h428v-22l-360 -328h-320zM825 -43q-179 0 -327 57l-109 -135h-354l239 289q-157 171 -157 440q0 301 193.5 480.5t518.5 179.5q181 0 328 -58l113 133h352l-240 -286q158 -172 158 -443q0 -299 -194.5 -478t-520.5 -179zM465 614q0 -119 51 -204
l447 542q-61 21 -138 21q-166 0 -263 -95t-97 -264zM829 252q167 0 265 94.5t98 263.5q0 120 -51 205l-449 -543q59 -20 137 -20z" />
    <glyph glyph-name="otilde.sc" horiz-adv-x="1654" 
d="M651 1776q54 0 97 -13.5t126 -50.5q61 -28 89.5 -37.5t54.5 -9.5q51 0 98.5 30.5t114.5 106.5h2v-297q-108 -104 -227 -104q-56 0 -99.5 13.5t-124.5 49.5q-61 28 -89 37.5t-54 9.5q-51 0 -99 -30t-114 -105h-2v295q109 105 227 105zM825 -43q-324 0 -516 176t-192 475
q0 301 193.5 480.5t518.5 179.5q326 0 518.5 -177t192.5 -477q0 -299 -194.5 -478t-520.5 -179zM829 268q159 0 252 90t93 252t-95 254t-254 92q-158 0 -250 -90.5t-92 -251.5q0 -164 93 -255t253 -91z" />
    <glyph glyph-name="racute.sc" horiz-adv-x="1536" 
d="M582 1382l252 351h428v-23l-361 -328h-319zM193 0v1227h661q276 0 411.5 -103.5t135.5 -330.5q0 -152 -67 -245.5t-204 -141.5l357 -398v-8h-434l-285 346h-213v-346h-362zM555 623h291q102 0 149 38.5t47 120.5q0 80 -47 119t-149 39h-291v-317z" />
    <glyph glyph-name="rcaron.sc" horiz-adv-x="1536" 
d="M1286 1765l-274 -385h-430l-275 385h334l119 -163h76l118 163h332zM193 0v1227h661q276 0 411.5 -103.5t135.5 -330.5q0 -152 -67 -245.5t-204 -141.5l357 -398v-8h-434l-285 346h-213v-346h-362zM555 623h291q102 0 149 38.5t47 120.5q0 80 -47 119t-149 39h-291v-317z
" />
    <glyph glyph-name="uni0157.sc" horiz-adv-x="1536" 
d="M193 0v1227h661q276 0 411.5 -103.5t135.5 -330.5q0 -152 -67 -245.5t-204 -141.5l357 -398v-8h-434l-285 346h-213v-346h-362zM555 623h291q102 0 149 38.5t47 120.5q0 80 -47 119t-149 39h-291v-317zM446 -565l117 434h383v-37l-282 -397h-218z" />
    <glyph glyph-name="sacute.sc" horiz-adv-x="1406" 
d="M532 1413l252 350h428v-22l-360 -328h-320zM733 -35q-149 0 -300.5 34t-276.5 89v324h2q141 -73 301.5 -115.5t281.5 -42.5q118 0 167.5 23.5t49.5 68.5q0 46 -53.5 68t-249.5 63q-74 15 -121.5 26t-106.5 28.5t-95 35.5t-74 45t-58.5 60t-34 77.5t-13.5 98.5
q0 186 149.5 299t435.5 113q256 0 496 -107v-322h-2q-117 62 -253.5 101t-260.5 39q-104 0 -155.5 -24.5t-49.5 -69.5q1 -43 52 -63t243 -60q95 -18 162.5 -36.5t136.5 -49.5t111.5 -69.5t69 -96.5t26.5 -131q0 -42 -6.5 -80.5t-24 -80t-45.5 -76.5t-73.5 -67t-104.5 -54
t-142 -35t-184 -13z" />
    <glyph glyph-name="scaron.sc" horiz-adv-x="1406" 
d="M1235 1796l-274 -385h-431l-274 385h334l119 -164h75l119 164h332zM733 -35q-149 0 -300.5 34t-276.5 89v324h2q141 -73 301.5 -115.5t281.5 -42.5q118 0 167.5 23.5t49.5 68.5q0 46 -53.5 68t-249.5 63q-74 15 -121.5 26t-106.5 28.5t-95 35.5t-74 45t-58.5 60t-34 77.5
t-13.5 98.5q0 186 149.5 299t435.5 113q256 0 496 -107v-322h-2q-117 62 -253.5 101t-260.5 39q-104 0 -155.5 -24.5t-49.5 -69.5q1 -43 52 -63t243 -60q95 -18 162.5 -36.5t136.5 -49.5t111.5 -69.5t69 -96.5t26.5 -131q0 -42 -6.5 -80.5t-24 -80t-45.5 -76.5t-73.5 -67
t-104.5 -54t-142 -35t-184 -13z" />
    <glyph glyph-name="scedilla.sc" horiz-adv-x="1406" 
d="M272 -385v27l299 333q-214 25 -415 113v324h2q141 -73 301.5 -115.5t281.5 -42.5q118 0 167.5 23.5t49.5 68.5q0 46 -53.5 68t-249.5 63q-74 15 -121.5 26t-106.5 28.5t-95 35.5t-74 45t-58.5 60t-34 77.5t-13.5 98.5q0 186 149.5 299t435.5 113q256 0 496 -107v-322h-2
q-117 62 -253.5 101t-260.5 39q-104 0 -155.5 -24.5t-49.5 -69.5q1 -43 52 -63t243 -60q95 -18 162.5 -36.5t136.5 -49.5t111.5 -69.5t69 -96.5t26.5 -131q0 -53 -10.5 -101t-40.5 -98.5t-77.5 -89t-127 -68.5t-183.5 -41l-172 -358h-430z" />
    <glyph glyph-name="uni0219.sc" horiz-adv-x="1406" 
d="M733 -35q-149 0 -300.5 34t-276.5 89v324h2q141 -73 301.5 -115.5t281.5 -42.5q118 0 167.5 23.5t49.5 68.5q0 46 -53.5 68t-249.5 63q-74 15 -121.5 26t-106.5 28.5t-95 35.5t-74 45t-58.5 60t-34 77.5t-13.5 98.5q0 186 149.5 299t435.5 113q256 0 496 -107v-322h-2
q-117 62 -253.5 101t-260.5 39q-104 0 -155.5 -24.5t-49.5 -69.5q1 -43 52 -63t243 -60q95 -18 162.5 -36.5t136.5 -49.5t111.5 -69.5t69 -96.5t26.5 -131q0 -42 -6.5 -80.5t-24 -80t-45.5 -76.5t-73.5 -67t-104.5 -54t-142 -35t-184 -13zM420 -629l117 434h383v-36
l-283 -398h-217z" />
    <glyph glyph-name="uni1E9E.sc" horiz-adv-x="1669" 
d="M555 0h-362v1227h1290v-281l-328 -268l72 -21q101 -27 168 -62t104 -79.5t51.5 -92t14.5 -110.5q0 -168 -123 -258t-373 -90q-91 0 -197 16t-167 39v283h2q61 -26 154 -46.5t181 -20.5q175 0 175 100q0 33 -20 54.5t-81.5 44.5t-179.5 48l-119 25v194l289 244h-551v-946z
" />
    <glyph glyph-name="tcaron.sc" horiz-adv-x="1433" 
d="M1206 1765l-274 -385h-430l-275 385h334l119 -163h76l118 163h332zM537 0v922h-443l15 305h1218l12 -305h-442v-922h-360z" />
    <glyph glyph-name="uni0163.sc" horiz-adv-x="1433" 
d="M537 0v922h-443l15 305h1218l12 -305h-442v-922h-360zM399 -600l117 434h383v-37l-283 -397h-217z" />
    <glyph glyph-name="uacute.sc" horiz-adv-x="1599" 
d="M594 1346l252 350h428v-23l-361 -327h-319zM797 -35q-110 0 -202.5 17.5t-171.5 56.5t-133.5 98.5t-85 147.5t-30.5 200v742h363v-725q0 -63 22 -108.5t60 -71t83 -37t99 -11.5t98.5 11t82.5 35.5t59.5 69.5t21.5 106v731h362v-735q0 -114 -31 -203.5t-86 -149.5
t-134.5 -99.5t-172.5 -57t-204 -17.5z" />
    <glyph glyph-name="ubreve.sc" horiz-adv-x="1599" 
d="M801 1327q-197 0 -309.5 80.5t-112.5 232.5q0 60 14 117h262q-6 -35 -6 -59q0 -69 41 -96t111 -27t109.5 26.5t39.5 94.5q0 26 -6 61h262q15 -61 15 -119q0 -151 -111.5 -231t-308.5 -80zM797 -35q-110 0 -202.5 17.5t-171.5 56.5t-133.5 98.5t-85 147.5t-30.5 200v742
h363v-725q0 -63 22 -108.5t60 -71t83 -37t99 -11.5t98.5 11t82.5 35.5t59.5 69.5t21.5 106v731h362v-735q0 -114 -31 -203.5t-86 -149.5t-134.5 -99.5t-172.5 -57t-204 -17.5z" />
    <glyph glyph-name="ucircumflex.sc" horiz-adv-x="1599" 
d="M311 1380l275 385h430l274 -385h-334l-118 166h-76l-119 -166h-332zM797 -35q-110 0 -202.5 17.5t-171.5 56.5t-133.5 98.5t-85 147.5t-30.5 200v742h363v-725q0 -63 22 -108.5t60 -71t83 -37t99 -11.5t98.5 11t82.5 35.5t59.5 69.5t21.5 106v731h362v-735
q0 -114 -31 -203.5t-86 -149.5t-134.5 -99.5t-172.5 -57t-204 -17.5z" />
    <glyph glyph-name="udieresis.sc" horiz-adv-x="1599" 
d="M532 1364q-88 0 -141 51.5t-53 128.5v2q0 77 52.5 127.5t141.5 50.5q90 0 142.5 -50.5t52.5 -127.5v-2q0 -77 -52.5 -128.5t-142.5 -51.5zM1071 1364q-88 0 -141 51.5t-53 128.5v2q0 77 52.5 127.5t141.5 50.5q90 0 142.5 -50.5t52.5 -127.5v-2q0 -77 -52.5 -128.5
t-142.5 -51.5zM797 -35q-110 0 -202.5 17.5t-171.5 56.5t-133.5 98.5t-85 147.5t-30.5 200v742h363v-725q0 -63 22 -108.5t60 -71t83 -37t99 -11.5t98.5 11t82.5 35.5t59.5 69.5t21.5 106v731h362v-735q0 -114 -31 -203.5t-86 -149.5t-134.5 -99.5t-172.5 -57t-204 -17.5z
" />
    <glyph glyph-name="ugrave.sc" horiz-adv-x="1599" 
d="M1008 1346h-322l-358 327v23h428zM797 -35q-110 0 -202.5 17.5t-171.5 56.5t-133.5 98.5t-85 147.5t-30.5 200v742h363v-725q0 -63 22 -108.5t60 -71t83 -37t99 -11.5t98.5 11t82.5 35.5t59.5 69.5t21.5 106v731h362v-735q0 -114 -31 -203.5t-86 -149.5t-134.5 -99.5
t-172.5 -57t-204 -17.5z" />
    <glyph glyph-name="uhungarumlaut.sc" horiz-adv-x="1599" 
d="M889 1380l217 353h373v-25l-336 -328h-254zM403 1380l220 353h372v-25l-336 -328h-256zM797 -35q-110 0 -202.5 17.5t-171.5 56.5t-133.5 98.5t-85 147.5t-30.5 200v742h363v-725q0 -63 22 -108.5t60 -71t83 -37t99 -11.5t98.5 11t82.5 35.5t59.5 69.5t21.5 106v731h362
v-735q0 -114 -31 -203.5t-86 -149.5t-134.5 -99.5t-172.5 -57t-204 -17.5z" />
    <glyph glyph-name="umacron.sc" horiz-adv-x="1599" 
d="M391 1413v252h819v-252h-819zM797 -35q-110 0 -202.5 17.5t-171.5 56.5t-133.5 98.5t-85 147.5t-30.5 200v742h363v-725q0 -63 22 -108.5t60 -71t83 -37t99 -11.5t98.5 11t82.5 35.5t59.5 69.5t21.5 106v731h362v-735q0 -114 -31 -203.5t-86 -149.5t-134.5 -99.5
t-172.5 -57t-204 -17.5z" />
    <glyph glyph-name="uogonek.sc" horiz-adv-x="1599" 
d="M1073 -580q-112 -36 -237 -36q-90 0 -158 16.5t-107 42t-63 60.5t-31.5 66.5t-7.5 65.5q0 87 53.5 165t165.5 169q-116 10 -207.5 44.5t-161.5 95t-107.5 156t-37.5 220.5v742h363v-725q0 -63 22 -108.5t60 -71t83 -37t99 -11.5t98.5 11t82.5 35.5t59.5 69.5t21.5 106
v731h362v-735q0 -214 -103.5 -337t-289.5 -165l-104 -99q-97 -93 -114 -115q-28 -35 -28 -65q0 -73 123 -73q87 0 164 34v-252z" />
    <glyph glyph-name="uring.sc" horiz-adv-x="1599" 
d="M797 1327q-175 0 -274 82.5t-99 232.5q0 153 100 238.5t277 85.5q176 0 276.5 -84t100.5 -237q0 -150 -102.5 -234t-278.5 -84zM801 1520q68 0 106.5 32.5t38.5 92.5q0 61 -39.5 95t-107.5 34q-69 0 -109.5 -33.5t-40.5 -95.5q0 -58 41 -91.5t111 -33.5zM797 -35
q-110 0 -202.5 17.5t-171.5 56.5t-133.5 98.5t-85 147.5t-30.5 200v742h363v-725q0 -63 22 -108.5t60 -71t83 -37t99 -11.5t98.5 11t82.5 35.5t59.5 69.5t21.5 106v731h362v-735q0 -114 -31 -203.5t-86 -149.5t-134.5 -99.5t-172.5 -57t-204 -17.5z" />
    <glyph glyph-name="wacute.sc" horiz-adv-x="2181" 
d="M942 1382l252 351h428v-23l-360 -328h-320zM424 0l-344 1227h379l205 -815h16l268 815h312l262 -815h14l205 815h358l-338 -1227h-415l-248 748h-8l-248 -748h-418z" />
    <glyph glyph-name="wcircumflex.sc" horiz-adv-x="2181" 
d="M600 1380l274 385h431l274 -385h-334l-119 166h-75l-119 -166h-332zM424 0l-344 1227h379l205 -815h16l268 815h312l262 -815h14l205 815h358l-338 -1227h-415l-248 748h-8l-248 -748h-418z" />
    <glyph glyph-name="wdieresis.sc" horiz-adv-x="2181" 
d="M821 1364q-88 0 -141 51.5t-53 128.5v2q0 77 52.5 127.5t141.5 50.5q90 0 142.5 -50.5t52.5 -127.5v-2q0 -77 -52.5 -128.5t-142.5 -51.5zM1360 1364q-89 0 -142 51.5t-53 128.5v2q0 77 53 127.5t142 50.5q90 0 142 -50.5t52 -127.5v-2q0 -78 -52 -129t-142 -51zM424 0
l-344 1227h379l205 -815h16l268 815h312l262 -815h14l205 815h358l-338 -1227h-415l-248 748h-8l-248 -748h-418z" />
    <glyph glyph-name="wgrave.sc" horiz-adv-x="2181" 
d="M1262 1382h-322l-358 328v23h428zM424 0l-344 1227h379l205 -815h16l268 815h312l262 -815h14l205 815h358l-338 -1227h-415l-248 748h-8l-248 -748h-418z" />
    <glyph glyph-name="yacute.sc" horiz-adv-x="1499" 
d="M539 1346l252 350h428v-23l-361 -327h-319zM569 0v391l-549 834v2h406l315 -506h25l319 506h394v-2l-547 -830v-395h-363z" />
    <glyph glyph-name="ycircumflex.sc" horiz-adv-x="1499" 
d="M262 1380l275 385h430l274 -385h-334l-119 166h-75l-119 -166h-332zM569 0v391l-549 834v2h406l315 -506h25l319 506h394v-2l-547 -830v-395h-363z" />
    <glyph glyph-name="ydieresis.sc" horiz-adv-x="1499" 
d="M483 1364q-88 0 -141 51.5t-53 128.5v2q0 77 52.5 127.5t141.5 50.5q90 0 142.5 -50.5t52.5 -127.5v-2q0 -77 -52.5 -128.5t-142.5 -51.5zM1022 1364q-89 0 -142 51.5t-53 128.5v2q0 77 53 127.5t142 50.5q90 0 142.5 -50.5t52.5 -127.5v-2q0 -77 -52.5 -128.5
t-142.5 -51.5zM569 0v391l-549 834v2h406l315 -506h25l319 506h394v-2l-547 -830v-395h-363z" />
    <glyph glyph-name="ygrave.sc" horiz-adv-x="1499" 
d="M969 1346h-322l-358 327v23h428zM569 0v391l-549 834v2h406l315 -506h25l319 506h394v-2l-547 -830v-395h-363z" />
    <glyph glyph-name="zacute.sc" horiz-adv-x="1482" 
d="M539 1382l252 351h428v-23l-361 -328h-319zM147 0v305l715 623h-698l14 299h1161v-281l-735 -647h737v-299h-1194z" />
    <glyph glyph-name="zcaron.sc" horiz-adv-x="1482" 
d="M1243 1765l-274 -385h-430l-275 385h334l119 -163h76l118 163h332zM147 0v305l715 623h-698l14 299h1161v-281l-735 -647h737v-299h-1194z" />
    <glyph glyph-name="zdotaccent.sc" horiz-adv-x="1482" 
d="M754 1364q-104 0 -163 53.5t-59 134.5v2q0 82 58.5 135.5t161.5 53.5q104 0 162.5 -53t58.5 -136v-2q0 -81 -58.5 -134.5t-160.5 -53.5zM147 0v305l715 623h-698l14 299h1161v-281l-735 -647h737v-299h-1194z" />
    <glyph glyph-name="thorn.sc" horiz-adv-x="1490" 
d="M193 0v1227h362v-156h387q226 0 346.5 -119.5t120.5 -328.5q0 -152 -65 -257.5t-174.5 -154.5t-256.5 -49h-358v-162h-362zM555 451h334q81 0 121.5 45.5t40.5 115.5q0 168 -168 168h-328v-329z" />
    <glyph glyph-name="one.alt" horiz-adv-x="856" 
d="M246 1434h364v-1434h-364v1434z" />
    <glyph glyph-name="two.alt" horiz-adv-x="1423" 
d="M762 1470q255 0 407 -108.5t152 -306.5q0 -75 -23.5 -135.5t-55.5 -102t-103 -86.5t-129 -73.5t-170 -77.5q-74 -34 -116 -54.5t-88.5 -48t-69.5 -50.5t-39 -52.5t-17 -63.5l795 2v-313h-1196v109q0 116 22.5 208t62.5 161t109 129t147.5 106t192.5 98
q192 88 248.5 127.5t56.5 93.5q0 68 -52 96.5t-148 28.5q-126 0 -273 -51t-278 -133h-2v346q281 151 567 151z" />
    <glyph glyph-name="three.alt" horiz-adv-x="1423" 
d="M1319 395q0 -132 -86 -231t-231.5 -150t-327.5 -51q-314 0 -559 94v330h2q125 -56 272.5 -86.5t257.5 -30.5q297 0 297 162q0 84 -91 119t-294 35h-129v274h129q199 0 289 39.5t90 120.5q0 78 -65 111.5t-193 33.5q-237 0 -512 -125h-2v326q274 107 549 107
q262 0 421.5 -105.5t159.5 -298.5q0 -119 -71 -208t-221 -130v-2q89 -18 152.5 -52.5t98 -80.5t49.5 -95.5t15 -105.5z" />
    <glyph glyph-name="seven.alt" horiz-adv-x="1413" 
d="M358 0q27 116 62.5 220.5t70.5 185.5t83.5 163.5t87 139t98.5 128t100 115.5t107 115v66h-541v-238h-332v539h1239v-461q-60 -59 -89.5 -88.5t-83 -85.5t-82.5 -91.5t-74.5 -92.5t-72.5 -102.5t-61.5 -108t-57.5 -122t-45 -132.5t-38 -150h-371z" />
    <glyph glyph-name="zero.osf" horiz-adv-x="1525" 
d="M762 -43q-299 0 -480.5 175t-181.5 476q0 304 182.5 482t481.5 178q301 0 481 -175t180 -479q0 -302 -182 -479.5t-481 -177.5zM764 258q141 0 225 91.5t84 260.5q0 170 -85.5 263.5t-225.5 93.5q-142 0 -225.5 -91t-83.5 -262q0 -169 85.5 -262.5t225.5 -93.5z" />
    <glyph glyph-name="one.osf" horiz-adv-x="970" 
d="M362 0v924h-270l47 303h586v-1227h-363z" />
    <glyph glyph-name="two.osf" horiz-adv-x="1343" 
d="M129 0v301l330 203q130 78 211 133.5t116.5 93t45.5 59.5t10 48q0 114 -168 114q-207 0 -486 -161h-2v333q142 70 264 104t271 34q220 0 354.5 -102.5t134.5 -274.5q0 -153 -110.5 -267t-386.5 -268l-97 -55l615 2v-297h-1102z" />
    <glyph glyph-name="three.osf" horiz-adv-x="1288" 
d="M590 -244q-258 0 -467 70v315h2q237 -88 448 -88q130 0 204.5 40.5t74.5 127.5t-116.5 128.5t-368.5 41.5h-33v189l428 350h-643l14 297h1020v-312l-385 -307q436 -74 436 -395q0 -143 -82 -248t-219.5 -157t-312.5 -52z" />
    <glyph glyph-name="four.osf" horiz-adv-x="1484" 
d="M860 -207v297h-770v260l440 877h664v-852h242l-13 -285h-229v-297h-334zM459 371h405v559h-133z" />
    <glyph glyph-name="five.osf" horiz-adv-x="1280" 
d="M602 -244q-203 0 -471 64v313h2q262 -80 453 -80q75 0 129.5 17t82.5 45.5t41 58.5t13 64q0 61 -35 96q-39 39 -135 54t-330 15h-188l14 824h938l14 -297h-638l-5 -250l109 -2q308 -6 459 -110.5t151 -331.5q0 -214 -163.5 -347t-440.5 -133z" />
    <glyph glyph-name="six.osf" horiz-adv-x="1417" 
d="M733 -37q-142 0 -256.5 42t-199.5 126t-131 219.5t-46 313.5q0 188 54 340t152.5 254t237.5 157t308 55q210 0 383 -61v-301h-2q-117 39 -193 53.5t-166 14.5q-181 0 -289 -90.5t-132 -247.5q176 100 370 100q102 0 190.5 -26.5t158 -78.5t109.5 -137.5t40 -195.5
q0 -163 -76.5 -286t-209.5 -187t-302 -64zM733 676q-143 0 -284 -86q2 -334 292 -334q97 0 167.5 59.5t70.5 167.5q0 55 -23.5 95t-62 60.5t-78 29t-82.5 8.5z" />
    <glyph glyph-name="seven.osf" horiz-adv-x="1341" 
d="M1255 1227v-389l-591 -1045h-388l617 1084v59h-459v-231h-321v522h1142z" />
    <glyph glyph-name="eight.osf" horiz-adv-x="1425" 
d="M715 -49q-291 0 -454 111.5t-163 312.5q0 126 65 210t187 140q-217 106 -217 319q0 194 153.5 313.5t428.5 119.5q272 0 425.5 -119.5t153.5 -313.5q0 -212 -219 -319q122 -56 187 -140t65 -210q0 -201 -160.5 -312.5t-451.5 -111.5zM715 836q106 0 171.5 44t65.5 136
q0 88 -64 136t-173 48q-114 0 -177 -47t-63 -137q0 -91 66 -135.5t174 -44.5zM715 227q122 0 191 49.5t69 141.5q0 91 -72 138.5t-188 47.5q-121 0 -192.5 -45.5t-71.5 -138.5q0 -94 69 -143.5t195 -49.5z" />
    <glyph glyph-name="nine.osf" horiz-adv-x="1417" 
d="M684 1262q142 0 256.5 -42t199.5 -126t131 -219.5t46 -313.5q0 -250 -94 -433.5t-263.5 -278.5t-394.5 -95q-207 0 -383 62v301h2q117 -39 193 -53.5t166 -14.5q181 0 289.5 90.5t132.5 247.5q-176 -100 -371 -100q-102 0 -190.5 26.5t-158 78.5t-109.5 137.5t-40 195.5
q0 163 76.5 286t209.5 187t302 64zM438 741q0 -55 23.5 -95t62 -60t78 -28.5t82.5 -8.5q144 0 285 86q-2 334 -293 334q-97 0 -167.5 -60t-70.5 -168z" />
    <glyph glyph-name="colon.fig" horiz-adv-x="860" 
d="M430 852q-112 0 -176 63t-64 158v2q0 95 64 157t176 62q111 0 174.5 -61.5t63.5 -155.5v-4q0 -94 -64 -157.5t-174 -63.5zM430 135q-112 0 -176 62.5t-64 156.5v4q0 94 64 157t176 63q110 0 174 -63t64 -157v-2q0 -96 -63.5 -158.5t-174.5 -62.5z" />
    <glyph glyph-name="periodcentered.cap" horiz-adv-x="849" 
d="M424 494q-111 0 -174.5 63t-63.5 158v2q0 96 63 157.5t175 61.5t176 -61.5t64 -155.5v-4q0 -95 -64 -158t-176 -63z" />
    <glyph glyph-name="ampersand.sc" horiz-adv-x="1693" 
d="M553 -35q-192 0 -307 88t-115 240q0 71 21 129.5t68.5 110.5t102.5 94t144 98l39 25l-191 184v293h1006l12 -269h-618l428 -423l381 296h2v-346l-193 -149l338 -336h-401l-170 162q-147 -101 -275 -149t-272 -48zM473 340q0 -46 33 -72t88 -26q61 0 131.5 25.5
t175.5 94.5l-205 201l-20 -12q-117 -71 -160 -117t-43 -94z" />
    <glyph glyph-name="exclamdown.cap" horiz-adv-x="860" 
d="M430 1456q112 0 175 -62t63 -157v-4q0 -95 -63 -157t-175 -62q-111 0 -175.5 62.5t-64.5 156.5v2q0 95 64.5 158t175.5 63zM565 870l99 -847v-23h-467v23l98 847h270z" />
    <glyph glyph-name="questiondown.cap" horiz-adv-x="1257" 
d="M694 1456q113 0 176.5 -62t63.5 -157v-4q0 -95 -63.5 -157t-176.5 -62q-110 0 -173.5 62.5t-63.5 156.5v2q0 96 63 158.5t174 62.5zM1139 94q-280 -133 -557 -133q-89 0 -169 14t-150.5 44.5t-122 75.5t-81.5 111t-30 146q0 215 198.5 340t620.5 201h2v-291
q-138 -31 -229 -60.5t-137.5 -58t-63.5 -53.5t-17 -55q0 -115 215 -115q125 0 260.5 45t258.5 121h2v-332z" />
    <glyph glyph-name="guillemotleft.cap" horiz-adv-x="1583" 
d="M829 1194l-374 -477l374 -477h-383l-372 465v26l372 463h383zM1489 1194l-377 -477l377 -477h-385l-373 465v26l373 463h385z" />
    <glyph glyph-name="guillemotright.cap" horiz-adv-x="1583" 
d="M754 242l374 477l-374 477h383l372 -465v-26l-372 -463h-383zM94 242l377 477l-377 477h385l373 -465v-26l-373 -463h-385z" />
    <glyph glyph-name="guilsinglleft.cap" horiz-adv-x="950" 
d="M854 240h-408l-372 465v26l372 463h408l-377 -477z" />
    <glyph glyph-name="guilsinglright.cap" horiz-adv-x="950" 
d="M94 1196h408l372 -465v-26l-372 -463h-408l377 477z" />
    <glyph glyph-name="hyphen.cap" horiz-adv-x="913" 
d="M109 553v328h694v-328h-694z" />
    <glyph glyph-name="endash.cap" horiz-adv-x="1435" 
d="M154 557v322h1130v-322h-1130z" />
    <glyph glyph-name="emdash.cap" horiz-adv-x="1771" 
d="M154 557v322h1466v-322h-1466z" />
    <glyph glyph-name="slash.cap" horiz-adv-x="1171" 
d="M84 -274l668 1984h335l-669 -1984h-334z" />
    <glyph glyph-name="bar.cap" horiz-adv-x="1081" 
d="M375 -274v1984h332v-1984h-332z" />
    <glyph glyph-name="backslash.cap" horiz-adv-x="1173" 
d="M1090 -274h-336l-670 1984h338z" />
    <glyph glyph-name="parenleft.cap" horiz-adv-x="954" 
d="M500 717q0 -519 440 -991h-389q-212 221 -315 480t-103 511q0 251 103.5 510.5t314.5 482.5h389q-440 -472 -440 -993z" />
    <glyph glyph-name="parenright.cap" horiz-adv-x="954" 
d="M455 719q0 518 -441 991h389q212 -221 315 -480t103 -511q0 -251 -103.5 -510.5t-314.5 -482.5h-389q441 473 441 993z" />
    <glyph glyph-name="bracketleft.cap" horiz-adv-x="948" 
d="M150 -274v1984h714v-276h-379v-1432h379v-276h-714z" />
    <glyph glyph-name="bracketright.cap" horiz-adv-x="948" 
d="M799 1710v-1984h-715v276h379v1432h-379v276h715z" />
    <glyph glyph-name="braceleft.cap" horiz-adv-x="1138" 
d="M33 688v60l313 292l-16 138q-15 120 3 216.5t61 161.5t109.5 108t145.5 62t172 19q121 0 240 -33v-293h-2q-81 33 -172 33q-263 0 -221 -319l24 -203l-258 -213l258 -211l-24 -203q-12 -90 0 -153t45 -97t76 -48.5t100 -14.5q91 0 172 33h2v-299q-119 -33 -240 -33
q-93 0 -172 19t-145.5 62t-109.5 108t-61 161.5t-3 216.5l16 137z" />
    <glyph glyph-name="braceright.cap" horiz-adv-x="1138" 
d="M1106 745v-59l-313 -293l16 -137q15 -120 -3 -216.5t-61.5 -161.5t-110 -108t-145.5 -62t-172 -19q-124 0 -239 32v293h2q78 -32 172 -32q263 0 221 319l-24 203l258 213l-258 211l24 202q12 90 0 153.5t-45 97.5t-76 48.5t-100 14.5q-91 0 -172 -33h-2v299
q119 33 239 33q93 0 172 -19t145.5 -62t110 -108t61.5 -161.5t3 -216.5l-16 -138z" />
    <glyph glyph-name="at.cap" horiz-adv-x="2258" 
d="M1663 274q-220 0 -317 148q-143 -146 -322 -146q-138 0 -212.5 66.5t-74.5 173.5q0 102 66 168q50 50 168.5 90.5t320.5 52.5v9q0 116 -141 116q-166 0 -336 -110v248q180 98 379 98q375 0 375 -352v-207q0 -70 26.5 -102.5t85.5 -32.5q75 0 114.5 75.5t39.5 245.5
q0 128 -36.5 231t-112 182.5t-202.5 123t-298 43.5q-353 0 -545 -183.5t-192 -529.5q0 -322 180 -482.5t547 -160.5q171 0 307 32t274 93l-2 -262q-111 -48 -267.5 -80.5t-322.5 -32.5q-496 0 -746.5 232.5t-250.5 658.5q0 221 73 402.5t205.5 305t321 190.5t416.5 67
q226 0 401.5 -59.5t288 -168.5t170 -259t57.5 -335q0 -119 -24.5 -216t-75 -173t-137 -118t-201.5 -42zM1110 473q54 0 104.5 22.5t77.5 49.5v129q-208 -19 -262 -76q-20 -20 -20 -51q0 -34 25.5 -54t74.5 -20z" />
    <glyph glyph-name="bullet.cap" horiz-adv-x="917" 
d="M459 387q-162 0 -254 95t-92 233v6q0 138 92 232t254 94q161 0 253.5 -94.5t92.5 -231.5v-6q0 -137 -92.5 -232.5t-253.5 -95.5z" />
    <glyph glyph-name="R_p" horiz-adv-x="3018" 
d="M190 0v1434h744q276 0 413.5 -128t137.5 -376q0 -345 -287 -455l350 -475h-418l-284 403h-291v-403h-365zM1710 -416v1536h354l4 -141q141 176 361 176t362 -153.5t142 -413.5q0 -180 -80 -322.5t-217 -220.5t-305 -78q-143 0 -256 58v-441h-365zM555 702h346
q113 0 166 57t53 156q0 213 -219 213h-346v-426zM2277 260q132 0 211.5 83t79.5 224t-73.5 216t-194.5 75q-130 0 -225 -82v-452q100 -64 202 -64z" />
    <glyph glyph-name="one.sup_alt" horiz-adv-x="970" 
d="M860 938v-215h-682v215h221v416h-225l33 217h463v-633h190z" />
    <glyph glyph-name="one.inf_alt" horiz-adv-x="970" 
d="M860 -199v-215h-682v215h221v416h-225l33 217h463v-633h190z" />
    <glyph glyph-name="zero.tab" horiz-adv-x="1482" 
d="M739 -37q-139 0 -251.5 37t-190.5 103t-130 160.5t-76.5 207t-24.5 244.5q0 165 39.5 300t120 238t212 160t305.5 57q168 0 298 -56t211.5 -157.5t123 -237.5t41.5 -300t-42 -300t-124 -238.5t-213 -160t-299 -57.5zM743 274q162 0 237 112t75 329q0 444 -316 444
q-162 0 -236.5 -111.5t-74.5 -328.5q0 -445 315 -445z" />
    <glyph glyph-name="one.tab" horiz-adv-x="1482" 
d="M1364 305v-305h-1174v305h433v830h-433l48 299h749v-1129h377z" />
    <glyph glyph-name="two.tab" horiz-adv-x="1482" 
d="M125 0v307l416 295q251 180 282 204q105 82 130 138q12 30 12 62q0 68 -52.5 107.5t-164.5 39.5q-266 0 -562 -240h-2v353q264 204 588 204q272 0 418.5 -116t146.5 -312q0 -51 -9.5 -95.5t-25.5 -82t-49.5 -78t-67.5 -74t-95 -79t-116 -84t-145 -98.5l-208 -144l714 2
v-309h-1210z" />
    <glyph glyph-name="three.tab" horiz-adv-x="1482" 
d="M729 -37q-294 0 -567 117v334h2q132 -65 281.5 -104.5t259.5 -39.5q144 0 226.5 41.5t82.5 126.5q0 92 -117.5 130t-390.5 38h-55v178l419 340h-694l14 310h1137v-281l-416 -322q473 -60 473 -393q0 -148 -85.5 -256.5t-232.5 -163.5t-337 -55z" />
    <glyph glyph-name="four.tab" horiz-adv-x="1482" 
d="M883 0v283h-820v268l435 883h723v-854h211l-15 -297h-196v-283h-338zM446 575h439v558h-174z" />
    <glyph glyph-name="five.tab" horiz-adv-x="1482" 
d="M731 -37q-278 0 -559 105v331h2q302 -127 545 -127q80 0 137 16.5t85 44.5t40 56.5t12 59.5q0 56 -32 88q-39 37 -140 52t-356 15h-266l20 830h1057l12 -308h-747l-9 -233h60q285 0 436 -36t240 -128q100 -103 100 -280q0 -212 -170 -349t-467 -137z" />
    <glyph glyph-name="six.tab" horiz-adv-x="1482" 
d="M760 -37q-151 0 -272 45t-208 134t-133.5 227t-46.5 317q0 188 55.5 337.5t155.5 247t237.5 148.5t303.5 51q228 0 442 -90v-315h-2q-136 58 -225 82t-199 24q-87 0 -157 -19t-126 -59.5t-90 -109t-42 -162.5q174 119 401 119q117 0 213 -27t168 -80t111.5 -138.5
t39.5 -196.5q0 -161 -83.5 -284t-225 -187t-317.5 -64zM770 668q-160 0 -317 -101q4 -86 31 -148t72 -96.5t98 -50.5t118 -16q113 0 189.5 58.5t76.5 164.5q0 44 -15.5 78t-41 54.5t-61 33.5t-72 18t-78.5 5z" />
    <glyph glyph-name="seven.tab" horiz-adv-x="1482" 
d="M125 895v539h1247v-418l-637 -1016h-401l670 1067v66h-547v-238h-332z" />
    <glyph glyph-name="eight.tab" horiz-adv-x="1482" 
d="M743 -49q-323 0 -488 112.5t-165 311.5q0 127 70 212t213 138q-122 46 -185 123.5t-63 195.5q0 194 156.5 313.5t461.5 119.5q302 0 459.5 -120t157.5 -313q0 -226 -250 -319q144 -53 213.5 -137.5t69.5 -212.5q0 -200 -163 -312t-487 -112zM743 840q122 0 191.5 43.5
t69.5 132.5q0 85 -67 131.5t-194 46.5q-131 0 -197.5 -45.5t-66.5 -132.5q0 -89 69.5 -132.5t194.5 -43.5zM743 233q140 0 212.5 48t72.5 137t-76 136.5t-209 47.5q-138 0 -213 -45.5t-75 -136.5q0 -90 72.5 -138.5t215.5 -48.5z" />
    <glyph glyph-name="nine.tab" horiz-adv-x="1482" 
d="M723 1473q308 0 483.5 -183.5t175.5 -539.5q0 -188 -55.5 -338t-155.5 -247t-237 -148.5t-303 -51.5q-229 0 -443 90v316h2q137 -58 226 -82.5t198 -24.5q117 0 203.5 33t144 113t68.5 204q-173 -118 -401 -118q-117 0 -213 27t-168 80t-112 138.5t-40 196.5
q0 161 83.5 284t225.5 187t318 64zM444 956q0 -188 269 -188q161 0 317 100q-4 86 -31 148t-72 97t-98 51t-118 16q-113 0 -190 -59t-77 -165z" />
    <glyph glyph-name="dollar.tab" horiz-adv-x="1482" 
d="M578 -246v273q-190 31 -392 118v328h2q152 -79 314.5 -122.5t288.5 -43.5q219 0 219 123q0 61 -62.5 90t-269.5 68q-72 13 -127 26t-115 34.5t-102.5 50.5t-78 68.5t-53.5 94t-18 121.5q0 150 105 265t307 155v246h332v-240q192 -26 352 -104v-330h-2q-114 70 -256 110.5
t-258 40.5q-221 0 -221 -122q0 -22 7 -38.5t24 -29t34.5 -21t51 -16.5t59.5 -13t73.5 -14t81.5 -16q62 -12 108 -23.5t100.5 -30t93.5 -39t77 -51.5t62 -67.5t38.5 -86.5t14.5 -109q0 -54 -13 -106t-46.5 -106.5t-84 -97t-131.5 -75t-184 -44.5v-235z" />
    <glyph glyph-name="cent.tab" horiz-adv-x="1482" 
d="M633 -84v287q-186 47 -294 178.5t-108 323.5q0 191 114 330.5t306 189.5v248h326v-232q146 -19 254 -94v-297h-2q-160 115 -342 115q-145 0 -229.5 -70t-84.5 -190q0 -109 86.5 -176.5t233.5 -67.5q178 0 336 117h2v-299q-119 -76 -273 -95v-237z" />
    <glyph glyph-name="sterling.tab" horiz-adv-x="1482" 
d="M119 594l43 270h229q44 154 95 261t125.5 187.5t177 119t239.5 38.5q157 0 279 -61v-305h-2q-118 59 -242 59t-192.5 -64.5t-112.5 -224.5l-2 -10h506v-270h-582l-82 -291h754v-303h-1205l168 594h-196z" />
    <glyph glyph-name="Euro.tab" horiz-adv-x="1482" 
d="M43 430l23 225h182q-2 16 -2 52q0 30 4 84h-174l22 225h199q76 206 254.5 328t452.5 122q202 0 378 -84v-309h-2q-200 98 -372 98q-256 0 -359 -174h471v-206h-530q-4 -50 -4 -80q0 -38 2 -56h532v-206h-483q96 -187 364 -187q183 0 379 90h2v-309q-80 -36 -189 -56
t-214 -20q-148 0 -268 34.5t-203.5 98t-138.5 145.5t-86 185h-240z" />
    <glyph glyph-name="yen.tab" horiz-adv-x="1482" 
d="M100 281l13 239h430l-70 131h-352l12 238h213l-291 545h381l299 -598h17l305 598h370l-292 -545h213l14 -238h-354l-72 -131h432l12 -239h-462v-281h-355v281h-463z" />
    <glyph glyph-name="uni20B9.tab" horiz-adv-x="1482" 
d="M1348 774h-193q-30 -178 -156 -282.5t-323 -104.5h-2l573 -387h-522l-553 381v256h381q109 0 168 40.5t78 119.5h-627v211h627q-20 85 -86.5 122t-198.5 37h-342v267h1219l-17 -267h-299q54 -63 74 -149h213z" />
    <glyph glyph-name="period.tab" horiz-adv-x="741" 
d="M369 -23q-112 0 -175 62.5t-63 157.5v4q0 95 63 157t175 62t175.5 -62.5t63.5 -156.5v-2q0 -96 -63.5 -159t-175.5 -63z" />
    <glyph glyph-name="comma.tab" horiz-adv-x="741" 
d="M123 -307l90 692h440v-61l-331 -631h-199z" />
    <glyph glyph-name="colon.tab" horiz-adv-x="741" 
d="M371 694q-112 0 -176 63t-64 158v3q0 95 64 157t176 62q111 0 174 -61.5t63 -155.5v-5q0 -95 -63.5 -158t-173.5 -63zM371 -23q-112 0 -176 63t-64 157v4q0 94 64 156.5t176 62.5q110 0 173.5 -62.5t63.5 -156.5v-2q0 -96 -63.5 -159t-173.5 -63z" />
    <glyph glyph-name="semicolon.tab" horiz-adv-x="741" 
d="M410 694q-112 0 -176 63t-64 158v3q0 95 64 157t176 62q111 0 174 -61.5t63 -155.5v-5q0 -95 -63.5 -158t-173.5 -63zM111 -307l92 692h440v-61l-332 -631h-200z" />
    <glyph glyph-name="periodcentered.tab" horiz-adv-x="741" 
d="M369 494q-111 0 -174.5 63t-63.5 158v2q0 96 63 157.5t175 61.5t175.5 -61.5t63.5 -155.5v-4q0 -95 -63.5 -158t-175.5 -63z" />
    <glyph glyph-name="hyphen.tab" horiz-adv-x="741" 
d="M49 553v328h643v-328h-643z" />
    <glyph glyph-name="endash.tab" horiz-adv-x="1482" 
d="M162 557v322h1159v-322h-1159z" />
    <glyph glyph-name="underscore.tab" horiz-adv-x="1482" 
d="M-8 -406v263h1499v-263h-1499z" />
    <glyph glyph-name="slash.tab" horiz-adv-x="1112" 
d="M55 -274l668 1984h336l-670 -1984h-334z" />
    <glyph glyph-name="bar.tab" horiz-adv-x="1112" 
d="M389 -274v1984h332v-1984h-332z" />
    <glyph glyph-name="numbersign.tab" horiz-adv-x="1482" 
d="M139 0l51 258h-174v266h226l75 383h-217v269h269l51 258h303l-51 -258h319l51 258h301l-51 -258h174v-269h-225l-76 -383h217v-266h-268l-51 -258h-303l51 258h-319l-52 -258h-301zM543 524h319l76 383h-320z" />
    <glyph glyph-name="percent.tab" horiz-adv-x="2224" 
d="M516 670q-202 0 -316 102.5t-114 286.5q0 187 115.5 293t316.5 106q200 0 315 -105t115 -292q0 -181 -116.5 -286t-315.5 -105zM303 2l641 717l631 715h344v-2l-641 -715l-631 -717h-344v2zM518 897q73 0 114.5 42t41.5 122t-42 122t-116 42q-73 0 -115.5 -41.5
t-42.5 -122.5q0 -78 43.5 -121t116.5 -43zM1708 764q202 0 316 -102.5t114 -286.5q0 -186 -115.5 -293t-316.5 -107q-200 0 -315 105.5t-115 292.5q0 181 116 286t316 105zM1706 537q-72 0 -114 -42t-42 -122q0 -78 43 -121t115 -43q73 0 114.5 41.5t41.5 122.5
q0 80 -42 122t-116 42z" />
    <glyph glyph-name="degree.tab" horiz-adv-x="1298" 
d="M649 547q-224 0 -357.5 125t-133.5 332q0 209 133 332.5t358 123.5t358.5 -123.5t133.5 -332.5q0 -207 -134 -332t-358 -125zM649 795q95 0 149 56t54 153t-54 152.5t-149 55.5t-149 -55.5t-54 -152.5t54 -153t149 -56z" />
    <glyph glyph-name="quotedbl.tab" horiz-adv-x="1298" 
d="M180 778v656h410v-60l-217 -596h-193zM750 778v656h409v-60l-217 -596h-192z" />
    <glyph glyph-name="quotesingle.tab" horiz-adv-x="741" 
d="M190 778v656h412v-60l-219 -596h-193z" />
    <glyph glyph-name="plus.tab" horiz-adv-x="1482" 
d="M162 563v307h416v422h325v-422h416v-307h-416v-420h-325v420h-416z" />
    <glyph glyph-name="minus.tab" horiz-adv-x="1482" 
d="M213 555v324h1057v-324h-1057z" />
    <glyph glyph-name="equal.tab" horiz-adv-x="1482" 
d="M174 842v301h1133v-301h-1133zM174 291v301h1133v-301h-1133z" />
    <glyph glyph-name="divide.tab" horiz-adv-x="1482" 
d="M741 1356q97 0 154 -53.5t57 -135.5t-57 -135t-154 -53t-154 53t-57 133v2q0 82 57 135.5t154 53.5zM133 569v295h1219v-295h-1219zM743 80q-97 0 -154 53t-57 133v2q0 82 56.5 135.5t152.5 53.5q99 0 156 -53.5t57 -135.5v-2q0 -80 -57 -133t-154 -53z" />
    </font>
</defs>
</svg>
