<?xml version="1.0" standalone="no"?>
<!DOCTYPE svg PUBLIC "-//W3C//DTD SVG 1.1//EN" "http://www.w3.org/Graphics/SVG/1.1/DTD/svg11.dtd" >
<svg xmlns="http://www.w3.org/2000/svg" xmlns:xlink="http://www.w3.org/1999/xlink" version="1.1">
<metadata>
Created by FontForge 20170731 at Fri Oct  8 16:18:08 2021
 By Aleksey,,,
Copyright (C) 2019 Hoefler &#38; Co. http://www.typography.com
</metadata>
<defs>
<font id="Decimal-Medium" horiz-adv-x="888" >
  <font-face 
    font-family="Decimal Medium"
    font-weight="350"
    font-stretch="normal"
    units-per-em="2048"
    panose-1="2 11 6 4 3 4 4 2 2 4"
    ascent="1638"
    descent="-410"
    x-height="1098"
    cap-height="1434"
    bbox="-393 -651 4037 2658"
    underline-thickness="0"
    underline-position="0"
    unicode-range="U+000D-1F6E1"
  />
<missing-glyph horiz-adv-x="919" 
d="M0 -369v1844h922v-1844h-922zM461 664l330 718h-660zM92 -139l318 692l-318 692v-1384zM829 -139v1384l-317 -692zM131 -276h660l-330 718z" />
    <glyph glyph-name=".notdef" horiz-adv-x="919" 
d="M0 -369v1844h922v-1844h-922zM461 664l330 718h-660zM92 -139l318 692l-318 692v-1384zM829 -139v1384l-317 -692zM131 -276h660l-330 718z" />
    <glyph glyph-name=".null" horiz-adv-x="0" 
 />
    <glyph glyph-name="uni000D" unicode="&#xd;" horiz-adv-x="559" 
 />
    <glyph glyph-name="space" unicode=" " horiz-adv-x="559" 
 />
    <glyph glyph-name="exclam" unicode="!" horiz-adv-x="825" 
d="M315 520l-71 910v4h338v-4l-72 -910h-195zM414 -23q-90 0 -140.5 52t-50.5 127v2q0 74 50.5 125t140.5 51q87 0 137.5 -51t50.5 -125v-2q0 -74 -50.5 -126.5t-137.5 -52.5z" />
    <glyph glyph-name="quotedbl" unicode="&#x22;" horiz-adv-x="1204" 
d="M217 831v603h309v-25l-172 -578h-137zM741 831v603h310v-25l-170 -578h-140z" />
    <glyph glyph-name="numbersign" unicode="#" horiz-adv-x="1927" 
d="M319 0l74 303h-254v195h303l107 438h-283v194h332l74 304h229l-74 -304h478l73 304h230l-74 -304h254v-194h-303l-107 -438h283v-195h-332l-74 -303h-229l74 303h-477l-74 -303h-230zM672 498h477l106 438h-477z" />
    <glyph glyph-name="dollar" unicode="$" horiz-adv-x="1456" 
d="M614 -242v269q-215 31 -417 135v248h2q135 -79 295 -124.5t286 -45.5q133 0 207 47t74 129q0 54 -33 87.5t-108.5 59.5t-233.5 62q-48 10 -78 17.5t-75 20t-74.5 24t-67 29t-61.5 36.5t-49.5 45t-40 55t-24 66.5t-9.5 80.5q0 150 109.5 263.5t316.5 144.5v242h233v-240
q213 -27 381 -121v-250h-2q-116 73 -250.5 114.5t-246.5 41.5q-132 0 -206.5 -45.5t-74.5 -124.5q0 -30 10 -52t32.5 -40.5t68 -35.5t105 -33t155.5 -38q60 -13 102.5 -24.5t97 -30t92 -38t76.5 -49t63 -64t39 -81.5t15 -102q0 -52 -12.5 -102.5t-46 -105.5t-85.5 -97.5
t-138 -73.5t-195 -39v-233z" />
    <glyph glyph-name="percent" unicode="%" horiz-adv-x="2174" 
d="M514 702q-186 0 -295.5 100t-109.5 271q0 176 110 278.5t295 102.5q187 0 296.5 -101.5t109.5 -277.5q0 -170 -111 -271.5t-295 -101.5zM326 2l637 715l641 717h245v-2l-639 -715l-637 -717h-247v2zM514 877q92 0 146.5 51t54.5 145q0 96 -55 149.5t-146 53.5
q-92 0 -147.5 -52.5t-55.5 -148.5q0 -93 56 -145.5t147 -52.5zM1663 731q185 0 294 -100t109 -271q0 -174 -110 -277t-295 -103q-186 0 -296 101t-110 277q0 170 112 271.5t296 101.5zM1661 557q-91 0 -146 -52t-55 -145q0 -95 56 -148.5t147 -53.5q90 0 145.5 52t55.5 148
q0 95 -55.5 147t-147.5 52z" />
    <glyph glyph-name="ampersand" unicode="&#x26;" horiz-adv-x="1744" 
d="M569 -33q-200 0 -319 96.5t-119 272.5q0 148 110 268.5t339 251.5l30 18l-274 308v252h1032l8 -217h-743l584 -666l389 360h2v-288l-256 -230l346 -393h-312l-210 231q-169 -135 -306.5 -199.5t-300.5 -64.5zM389 358q0 -77 56 -123.5t151 -46.5q99 0 202 47t242 158
l-288 324l-13 -8q-195 -115 -272.5 -189.5t-77.5 -161.5z" />
    <glyph glyph-name="quotesingle" unicode="'" horiz-adv-x="679" 
d="M217 831v603h309v-25l-172 -578h-137z" />
    <glyph glyph-name="parenleft" unicode="(" horiz-adv-x="909" 
d="M410 573q0 -501 421 -970h-280q-207 229 -302 478.5t-95 491.5q0 240 96 490.5t301 480.5h280q-421 -469 -421 -971z" />
    <glyph glyph-name="parenright" unicode=")" horiz-adv-x="909" 
d="M500 573q0 501 -422 971h280q207 -229 302.5 -479t95.5 -492q0 -240 -96.5 -490t-301.5 -480h-280q422 470 422 970z" />
    <glyph glyph-name="asterisk" unicode="*" horiz-adv-x="1050" 
d="M735 741l-172 107l-106 -170l-58 14l-22 199l-203 -23l-24 54l143 145l-143 141l26 56l199 -23l22 201l58 12l108 -170l174 109l47 -37l-67 -193l190 -65v-62l-192 -67l67 -191z" />
    <glyph glyph-name="plus" unicode="+" horiz-adv-x="1505" 
d="M201 606v221h434v443h235v-443h437v-221h-437v-442h-235v442h-434z" />
    <glyph glyph-name="comma" unicode="," horiz-adv-x="735" 
d="M143 -301l99 637h342v-25l-301 -612h-140z" />
    <glyph glyph-name="hyphen" unicode="-" horiz-adv-x="903" 
d="M121 535v241h663v-241h-663z" />
    <glyph glyph-name="period" unicode="." horiz-adv-x="806" 
d="M403 -23q-89 0 -139.5 52t-50.5 127v2q0 75 50 125.5t140 50.5q89 0 140 -51t51 -125v-2q0 -74 -51.5 -126.5t-139.5 -52.5z" />
    <glyph glyph-name="slash" unicode="/" horiz-adv-x="1103" 
d="M117 -397l653 1941h234l-656 -1941h-231z" />
    <glyph glyph-name="zero" unicode="0" horiz-adv-x="1585" 
d="M791 -33q-168 0 -298 56.5t-211 158t-122 235.5t-41 296q0 161 42 296.5t123.5 238.5t212 160.5t298.5 57.5q162 0 290.5 -56.5t211 -157t126 -236t43.5 -295.5t-44 -297t-127 -239t-212.5 -160t-291.5 -58zM795 195q200 0 305.5 136.5t105.5 383.5t-107.5 385.5
t-307.5 138.5t-306 -136.5t-106 -383.5t108 -385.5t308 -138.5z" />
    <glyph glyph-name="one" unicode="1" horiz-adv-x="937" 
d="M397 0v1212h-288l34 222h506v-1434h-252z" />
    <glyph glyph-name="two" unicode="2" horiz-adv-x="1386" 
d="M125 0v229l469 367q208 163 253 203q107 95 130 172q10 32 10 67q0 94 -64 147.5t-190 53.5q-271 0 -549 -240h-2v261q246 206 555 206q246 0 381 -111.5t135 -295.5q0 -40 -6.5 -76t-15 -66.5t-30 -64.5t-38 -58.5t-52.5 -60t-61 -59t-76 -64t-84 -66t-99 -75.5
l-310 -242h783v-227h-1139z" />
    <glyph glyph-name="three" unicode="3" horiz-adv-x="1415" 
d="M680 -33q-275 0 -549 113v246h2q135 -63 285.5 -99.5t253.5 -36.5q161 0 257.5 62.5t96.5 171.5q0 118 -129 171.5t-401 53.5h-72v137l481 420h-753l10 228h1089v-205l-483 -406q524 -47 524 -393q0 -141 -81 -247.5t-219 -161t-312 -54.5z" />
    <glyph glyph-name="four" unicode="4" horiz-adv-x="1548" 
d="M958 0v334h-856v192l560 908h540v-883h275l-11 -217h-264v-334h-244zM958 1206h-172l-401 -655h573v655z" />
    <glyph glyph-name="five" unicode="5" horiz-adv-x="1423" 
d="M698 -33q-122 0 -267 24.5t-277 71.5v246h2q291 -116 534 -116q92 0 161 21.5t107.5 57t57 76t18.5 84.5q0 80 -47 127q-48 48 -158.5 70t-355.5 22h-272l20 783h987l9 -228h-764l-13 -332h115q264 0 415.5 -37t237.5 -126q97 -100 97 -271q0 -96 -41 -181t-116.5 -150.5
t-192 -103.5t-257.5 -38z" />
    <glyph glyph-name="six" unicode="6" horiz-adv-x="1452" 
d="M754 -33q-140 0 -255.5 45t-200 132t-131 223t-46.5 311q0 155 37.5 285t104 222t158 156t198 94.5t225.5 30.5q222 0 430 -96v-235h-2q-134 60 -223.5 85t-196.5 25q-97 0 -178 -26t-146 -79.5t-104.5 -144.5t-46.5 -213q93 73 210 110.5t236 37.5q156 0 274 -47.5
t187.5 -147.5t69.5 -243q0 -119 -47.5 -219t-129 -166.5t-190.5 -103t-233 -36.5zM766 721q-200 0 -391 -135q4 -105 36.5 -184t87.5 -126t122.5 -69.5t146.5 -22.5q88 0 161.5 31t122 99t48.5 161q0 67 -28 116.5t-76.5 77t-105.5 40t-124 12.5z" />
    <glyph glyph-name="seven" unicode="7" horiz-adv-x="1396" 
d="M125 952v482h1178v-347l-668 -1087h-285l699 1141v71h-687v-260h-237z" />
    <glyph glyph-name="eight" unicode="8" horiz-adv-x="1517" 
d="M762 -47q-309 0 -469 111t-160 301q0 133 76 220t227 138q-270 84 -270 328q0 90 36.5 166t108.5 134t187.5 91t263.5 33q146 0 261 -33t186 -91.5t108 -134.5t37 -165q0 -123 -70.5 -205t-200.5 -123q150 -51 226.5 -138.5t76.5 -219.5q0 -191 -157 -301.5t-467 -110.5z
M762 813q152 0 242 56.5t90 166.5q0 107 -87.5 168.5t-244.5 61.5q-162 0 -249 -60.5t-87 -169.5q0 -110 90.5 -166.5t245.5 -56.5zM762 162q173 0 266.5 60.5t93.5 170.5q0 112 -98 173t-262 61q-169 0 -267 -60t-98 -174q0 -110 94 -170.5t271 -60.5z" />
    <glyph glyph-name="nine" unicode="9" horiz-adv-x="1452" 
d="M698 1466q140 0 255.5 -44.5t200 -131.5t131 -223t46.5 -311q0 -155 -37.5 -285t-104 -222t-158 -156.5t-198 -95t-225.5 -30.5q-222 0 -430 96v236h2q135 -60 224.5 -85.5t195.5 -25.5q97 0 178 26t146 79.5t104.5 144.5t46.5 213q-92 -73 -209 -110t-237 -37
q-156 0 -274 47.5t-187.5 147.5t-69.5 243q0 159 81.5 279.5t217 182.5t301.5 62zM352 958q0 -54 19 -96.5t50 -70t75 -45.5t90.5 -25.5t99.5 -7.5q200 0 391 135q-4 105 -36.5 184t-87.5 125.5t-122 69t-147 22.5q-88 0 -161.5 -31t-122 -99t-48.5 -161z" />
    <glyph glyph-name="colon" unicode=":" horiz-adv-x="806" 
d="M403 705q-89 0 -139.5 52t-50.5 126v2q0 75 50 126.5t140 51.5q88 0 139.5 -52t51.5 -126v-2q0 -73 -51.5 -125.5t-139.5 -52.5zM403 -23q-89 0 -139.5 52t-50.5 127v2q0 75 50 125.5t140 50.5q89 0 140 -51t51 -125v-2q0 -74 -51.5 -126.5t-139.5 -52.5z" />
    <glyph glyph-name="semicolon" unicode=";" horiz-adv-x="806" 
d="M403 705q-89 0 -139.5 52t-50.5 126v2q0 75 50 126.5t140 51.5q88 0 139.5 -52t51.5 -126v-2q0 -73 -51.5 -125.5t-139.5 -52.5zM143 -301l99 637h342v-25l-301 -612h-140z" />
    <glyph glyph-name="less" unicode="&#x3c;" horiz-adv-x="1363" 
d="M1118 154l-909 444v242l909 440v-250l-653 -311l653 -316v-249z" />
    <glyph glyph-name="equal" unicode="=" horiz-adv-x="1572" 
d="M233 883v221h1104v-221h-1104zM233 330v221h1104v-221h-1104z" />
    <glyph glyph-name="greater" unicode="&#x3e;" horiz-adv-x="1363" 
d="M246 1276l909 -445v-241l-909 -440v249l653 312l-653 315v250z" />
    <glyph glyph-name="question" unicode="?" horiz-adv-x="1282" 
d="M121 1317q280 149 579 149q89 0 168.5 -14.5t148 -46t118 -76t78 -109t28.5 -141.5q0 -128 -76 -223t-246.5 -171.5t-457.5 -143.5h-2v223q159 42 265.5 81.5t160.5 78t75 72.5t21 75q0 88 -79.5 131t-215.5 43q-274 0 -563 -182h-2v254zM573 -23q-89 0 -139.5 52
t-50.5 127v2q0 75 50 125.5t140 50.5q89 0 140 -51t51 -125v-2q0 -74 -51.5 -126.5t-139.5 -52.5z" />
    <glyph glyph-name="at" unicode="@" horiz-adv-x="2236" 
d="M1655 244q-221 0 -289 157q-148 -151 -332 -151q-135 0 -208.5 64t-73.5 167q0 101 65 166q119 119 510 141v27q0 146 -168 146q-176 0 -338 -119v190q172 107 365 107q173 0 258.5 -87.5t85.5 -246.5v-227q0 -87 34 -126.5t105 -39.5q195 0 195 356q0 105 -24 196.5
t-77 170.5t-131.5 135.5t-193.5 88.5t-258 32q-362 0 -570.5 -197t-208.5 -555q0 -336 192.5 -508t561.5 -172q174 0 315 33.5t279 99.5v-196q-110 -55 -270 -89t-326 -34q-239 0 -421.5 60.5t-300 173.5t-177 272t-59.5 360q0 216 72 392.5t201 295.5t311 183.5t399 64.5
q216 0 385 -59t277 -166.5t164 -254t56 -325.5q0 -111 -22.5 -203t-69 -166t-126.5 -115.5t-187 -41.5zM1081 401q71 0 136 30t110 75v151q-278 -22 -346 -90q-27 -27 -27 -69q0 -45 33.5 -71t93.5 -26z" />
    <glyph glyph-name="A" unicode="A" horiz-adv-x="1718" 
d="M78 0l569 1434h426l567 -1434h-274l-143 365h-731l-144 -365h-270zM817 1188l-235 -594h551l-234 594h-82z" />
    <glyph glyph-name="B" unicode="B" horiz-adv-x="1642" 
d="M225 0v1434h797q222 0 345.5 -93t123.5 -268q0 -265 -262 -330q148 -50 219.5 -132.5t71.5 -211.5q0 -399 -533 -399h-762zM479 838h510q125 0 182.5 44.5t57.5 141.5q0 180 -234 180h-516v-366zM479 229l516 4q139 1 202 49t63 150q0 197 -259 197h-522v-400z" />
    <glyph glyph-name="C" unicode="C" horiz-adv-x="1615" 
d="M911 -31q-157 0 -286 39t-219 107t-151.5 162t-90.5 203t-29 231q0 153 53 288t152 239.5t253.5 165t344.5 60.5q161 0 298 -49t234 -123v-268h-2q-70 48 -119 77t-118.5 62t-143.5 48.5t-155 15.5q-243 0 -384.5 -144.5t-141.5 -369.5q0 -146 58.5 -259t178 -180
t285.5 -67q158 0 286.5 51t253.5 145h2v-268q-95 -69 -239.5 -117.5t-319.5 -48.5z" />
    <glyph glyph-name="D" unicode="D" horiz-adv-x="1765" 
d="M225 0v1434h682q341 0 531 -189t190 -526q0 -336 -190.5 -527.5t-530.5 -191.5h-682zM487 238h418q221 0 338 119.5t117 357.5q0 239 -117 360t-338 121h-418v-958z" />
    <glyph glyph-name="E" unicode="E" horiz-adv-x="1572" 
d="M225 0v1434h1178l8 -238h-926v-336h754v-235h-754v-387h959l-10 -238h-1209z" />
    <glyph glyph-name="F" unicode="F" horiz-adv-x="1509" 
d="M225 0v1434h1168l10 -238h-916v-387h777v-236h-777v-573h-262z" />
    <glyph glyph-name="G" unicode="G" horiz-adv-x="1773" 
d="M911 -35q-181 0 -329 56.5t-245 155.5t-149.5 232.5t-52.5 288.5q0 156 55.5 294.5t157 243.5t257 166.5t343.5 61.5q159 0 304.5 -45.5t242.5 -122.5v-266h-2q-128 94 -260 145.5t-287 51.5q-252 0 -396 -145.5t-144 -381.5q0 -222 136.5 -360.5t381.5 -138.5
q212 0 342 103.5t137 285.5h-549v219h809q4 -58 4 -109q-1 -152 -42.5 -276.5t-112 -208.5t-167.5 -141t-205.5 -83t-228.5 -26z" />
    <glyph glyph-name="H" unicode="H" horiz-adv-x="1794" 
d="M225 0v1434h262v-572h820v572h262v-1434h-262v621h-820v-621h-262z" />
    <glyph glyph-name="I" unicode="I" horiz-adv-x="722" 
d="M229 0v1434h263v-1434h-263z" />
    <glyph glyph-name="J" unicode="J" horiz-adv-x="1466" 
d="M678 -33q-285 0 -520 156v268h2q242 -184 516 -184q317 0 317 295v694h-573l10 238h825v-967q0 -250 -150 -375t-427 -125z" />
    <glyph glyph-name="K" unicode="K" horiz-adv-x="1671" 
d="M225 0v1434h262v-584h281l510 584h303v-2l-602 -689l639 -741v-2h-320l-538 616h-273v-616h-262z" />
    <glyph glyph-name="L" unicode="L" horiz-adv-x="1429" 
d="M225 0v1434h262v-1192h850l-8 -242h-1104z" />
    <glyph glyph-name="M" unicode="M" horiz-adv-x="2084" 
d="M225 0v1434h312l507 -887l498 887h318v-1434h-261v1024h-14l-536 -928h-21l-532 928h-15v-1024h-256z" />
    <glyph glyph-name="N" unicode="N" horiz-adv-x="1802" 
d="M225 0v1434h299l785 -1039h12v1039h256v-1434h-283l-800 1065h-15v-1065h-254z" />
    <glyph glyph-name="O" unicode="O" horiz-adv-x="1843" 
d="M922 -35q-360 0 -573.5 204.5t-213.5 547.5q0 342 213.5 546.5t573.5 204.5t572 -204t212 -547q0 -342 -212 -547t-572 -205zM920 203q243 0 380.5 137.5t137.5 376.5t-135.5 376.5t-378.5 137.5t-380.5 -137.5t-137.5 -376.5t135.5 -376.5t378.5 -137.5z" />
    <glyph glyph-name="P" unicode="P" horiz-adv-x="1585" 
d="M225 0v1434h727q258 0 394.5 -132.5t136.5 -371.5q0 -255 -149 -386.5t-406 -131.5h-441v-412h-262zM487 647h445q143 0 214 73.5t71 201.5q0 274 -289 274h-441v-549z" />
    <glyph glyph-name="Q" unicode="Q" horiz-adv-x="1857" 
d="M922 1468q360 0 572 -204t212 -547q0 -233 -113 -412l160 -112v-273h-2l-305 215q-210 -170 -524 -170q-360 0 -573.5 204.5t-213.5 547.5q0 342 213.5 546.5t573.5 204.5zM924 1231q-243 0 -380.5 -138t-137.5 -376q0 -239 137 -378.5t381 -139.5q192 0 317 84l-416 274
l140 186l421 -292q56 112 56 266q0 237 -138 375.5t-380 138.5z" />
    <glyph glyph-name="R" unicode="R" horiz-adv-x="1648" 
d="M225 0v1434h748q266 0 400 -124t134 -358q0 -178 -83 -294t-244 -160l381 -498h-310l-331 451h-433v-451h-262zM487 682h478q144 0 210 70t66 188t-66 187t-210 69h-478v-514z" />
    <glyph glyph-name="S" unicode="S" horiz-adv-x="1523" 
d="M805 -33q-346 0 -643 152v268h2q152 -85 320.5 -132.5t322.5 -47.5q164 0 251 51t87 141q0 87 -86 128.5t-346 86.5q-67 12 -120 24t-111 30.5t-101.5 40t-84 51.5t-66 66t-41 84t-15.5 104q0 91 39 171.5t114 143.5t196.5 100t275.5 37q139 0 282.5 -36t257.5 -101v-268
h-2q-124 79 -271.5 122.5t-287.5 43.5q-161 0 -245 -50.5t-84 -136.5q0 -83 96 -126q67 -31 269 -69h1h1h1h1l1 -1h1h1h1h1h1l1 -1h1h1h1h1l1 -1h1h1h1h1q26 -5 40 -8q69 -12 121.5 -24t111.5 -30.5t102.5 -40t85 -53t67.5 -69.5t41.5 -89t15.5 -112q0 -42 -7.5 -83
t-27 -86.5t-50 -85t-79 -75.5t-110.5 -62t-149.5 -41.5t-190.5 -15.5z" />
    <glyph glyph-name="T" unicode="T" horiz-adv-x="1527" 
d="M633 0v1192h-547l10 242h1336l10 -242h-547v-1192h-262z" />
    <glyph glyph-name="U" unicode="U" horiz-adv-x="1769" 
d="M881 -33q-149 0 -268 32.5t-210.5 100t-141.5 182t-50 269.5v883h262v-871q0 -96 32.5 -167t90.5 -110.5t129.5 -58t159.5 -18.5t159 18t129.5 57t90.5 108t32 163v879h263v-875q0 -158 -51 -274t-144.5 -184.5t-213.5 -101t-269 -32.5z" />
    <glyph glyph-name="V" unicode="V" horiz-adv-x="1660" 
d="M606 0l-528 1434h284l433 -1188h75l430 1188h283l-528 -1434h-449z" />
    <glyph glyph-name="W" unicode="W" horiz-adv-x="2514" 
d="M516 0l-410 1434h277l319 -1174h41l392 1174h264l387 -1174h41l311 1174h270l-407 -1434h-381l-350 1065h-17l-352 -1065h-385z" />
    <glyph glyph-name="X" unicode="X" horiz-adv-x="1683" 
d="M377 0h-311v2l606 739l-563 691v2h317l418 -525l422 525h311v-2l-561 -687l602 -743v-2h-320l-456 575z" />
    <glyph glyph-name="Y" unicode="Y" horiz-adv-x="1644" 
d="M690 0v494l-645 940h307l461 -686h21l469 686h296l-647 -936v-498h-262z" />
    <glyph glyph-name="Z" unicode="Z" horiz-adv-x="1595" 
d="M156 0v252l944 944h-918l8 238h1256v-228l-965 -968h965v-238h-1290z" />
    <glyph glyph-name="bracketleft" unicode="[" horiz-adv-x="915" 
d="M186 -397v1941h625v-198h-385v-1545h385v-198h-625z" />
    <glyph glyph-name="backslash" unicode="\" horiz-adv-x="1103" 
d="M987 -397h-231l-656 1941h234z" />
    <glyph glyph-name="bracketright" unicode="]" horiz-adv-x="915" 
d="M729 1544v-1941h-625v198h385v1545h-385v198h625z" />
    <glyph glyph-name="asciicircum" unicode="^" horiz-adv-x="1472" 
d="M160 741l395 693h354l404 -693h-273l-262 459h-96l-254 -459h-268z" />
    <glyph glyph-name="underscore" unicode="_" horiz-adv-x="1462" 
d="M-10 -365v211h1483v-211h-1483z" />
    <glyph glyph-name="grave" unicode="`" horiz-adv-x="1024" 
d="M764 1278h-234l-346 324v12h328z" />
    <glyph glyph-name="a" unicode="a" horiz-adv-x="1282" 
d="M485 -31q-179 0 -275.5 83.5t-96.5 217.5q0 127 88 215q152 156 667 181v41q0 206 -231 206q-217 0 -432 -157h-2v237q221 135 467 135q224 0 336 -113t112 -319v-696h-231l-6 147q-160 -178 -396 -178zM541 156q97 0 183.5 40.5t143.5 100.5v209q-377 -27 -471 -121
q-39 -39 -39 -94q0 -62 49.5 -98.5t133.5 -36.5z" />
    <glyph glyph-name="b" unicode="b" horiz-adv-x="1419" 
d="M430 1544v-561q149 145 365 145q141 0 257 -63t187.5 -187.5t71.5 -289.5q0 -135 -45.5 -251t-126 -196.5t-192.5 -126t-242 -45.5q-172 0 -359 76h-166v1499h250zM729 915q-174 0 -299 -112v-557q130 -70 264 -70q156 0 261.5 106.5t105.5 288.5q0 165 -91 254.5
t-241 89.5z" />
    <glyph glyph-name="c" unicode="c" horiz-adv-x="1228" 
d="M719 -31q-270 0 -440 155.5t-170 414.5q0 124 46.5 233t127.5 187t196 123.5t246 45.5q223 0 381 -114v-240h-2q-184 137 -369 137q-166 0 -270.5 -103.5t-104.5 -262.5q0 -162 104 -259.5t269 -97.5q188 0 371 136h2v-240q-169 -115 -387 -115z" />
    <glyph glyph-name="d" unicode="d" horiz-adv-x="1423" 
d="M1243 1544v-1544h-244l-2 145q-154 -176 -383 -176q-104 0 -195.5 38t-160.5 108t-109 177t-40 238q0 127 45.5 238.5t124.5 190t189 124t234 45.5q163 0 291 -75v491h250zM723 915q-165 0 -264 -102.5t-99 -267.5q0 -176 93.5 -269.5t242.5 -93.5q82 0 161 34.5
t136 88.5v512q-125 98 -270 98z" />
    <glyph glyph-name="e" unicode="e" horiz-adv-x="1323" 
d="M690 1128q106 0 193.5 -29t149 -80.5t104 -123t62.5 -155.5t20 -179q0 -35 -7 -82h-854q17 -144 114 -221.5t263 -77.5q216 0 418 127h2v-223q-191 -115 -428 -115q-152 0 -271.5 42t-194.5 117t-113.5 175.5t-38.5 220.5q0 262 160 433t421 171zM684 924
q-125 0 -207.5 -73t-109.5 -202h614q-9 124 -86 199.5t-211 75.5z" />
    <glyph glyph-name="f" unicode="f" 
d="M285 0v891h-222l41 207h181v39q0 438 370 438q99 0 179 -27v-209h-3q-73 25 -133 25q-87 0 -126.5 -50t-39.5 -149v-67h318v-207h-318v-891h-247z" />
    <glyph glyph-name="g" unicode="g" horiz-adv-x="1247" 
d="M625 350q-55 0 -105 6l-24 -139q381 -28 552 -105.5t171 -222.5q0 -58 -33 -112.5t-99.5 -102t-182.5 -76t-267 -28.5q-277 0 -424 76t-147 204q0 162 227 259l59 290q-112 49 -167.5 136t-55.5 194q0 78 31.5 149t91.5 127t157.5 89.5t219.5 33.5q96 0 176 -22l115 190
h274v-2l-225 -266q71 -51 110 -126.5t39 -162.5q0 -78 -31.5 -147.5t-91 -124t-155 -86t-215.5 -31.5zM625 528q115 0 186.5 57t71.5 156q0 95 -70.5 152t-183.5 57q-116 0 -188 -59.5t-72 -155.5q0 -98 70 -152.5t186 -54.5zM657 -254q153 0 242.5 36.5t89.5 90.5
q0 135 -608 162q-109 -62 -109 -133q0 -49 53 -85t139 -53.5t193 -17.5z" />
    <glyph glyph-name="h" unicode="h" horiz-adv-x="1388" 
d="M180 0v1544h246v-626q89 99 189 154.5t225 55.5q177 0 279 -102t102 -305v-721h-250v670q0 237 -217 237q-162 0 -324 -166v-741h-250z" />
    <glyph glyph-name="i" unicode="i" horiz-adv-x="620" 
d="M311 1268q-75 0 -120.5 43.5t-45.5 105.5v2q0 62 45 105t119 43t119 -43t45 -105v-2q0 -62 -44.5 -105.5t-117.5 -43.5zM184 0v1098h250v-1098h-250z" />
    <glyph glyph-name="j" unicode="j" horiz-adv-x="649" 
d="M340 1268q-74 0 -119 43.5t-45 105.5v2q0 62 44.5 105t117.5 43q76 0 121 -43t45 -105v-2q0 -62 -45 -105.5t-119 -43.5zM131 -428q-116 0 -217 37v211h2q78 -37 162 -37q71 0 104 37t33 119v1159h250v-1182q0 -170 -79.5 -257t-254.5 -87z" />
    <glyph glyph-name="k" unicode="k" horiz-adv-x="1300" 
d="M180 0v1544h250v-864h207l313 418h287v-2l-393 -516l424 -578v-2h-295l-338 463h-205v-463h-250z" />
    <glyph glyph-name="l" unicode="l" horiz-adv-x="620" 
d="M184 0v1544h250v-1544h-250z" />
    <glyph glyph-name="m" unicode="m" horiz-adv-x="2121" 
d="M180 0v1098h246v-195q84 107 180.5 166t218.5 59q126 0 216.5 -60t127.5 -179q101 121 200.5 180t219.5 59q167 0 267 -102.5t100 -304.5v-721h-252v670q0 237 -203 237q-147 0 -309 -166v-20v-721h-250v670q0 127 -56 182t-147 55q-150 0 -309 -166v-741h-250z" />
    <glyph glyph-name="n" unicode="n" horiz-adv-x="1388" 
d="M180 0v1098h246v-180q89 99 189 154.5t225 55.5q177 0 279 -102t102 -305v-721h-250v670q0 237 -217 237q-162 0 -324 -166v-741h-250z" />
    <glyph glyph-name="o" unicode="o" horiz-adv-x="1415" 
d="M707 -31q-183 0 -320.5 78t-207.5 208.5t-70 293.5q0 121 41.5 227t117.5 184t189.5 123t251.5 45q137 0 251 -45t189.5 -123t116.5 -183.5t41 -227.5q0 -121 -41.5 -227t-117.5 -184.5t-190 -123.5t-251 -45zM709 180q157 0 250.5 103t93.5 266t-93.5 266t-252.5 103
q-158 0 -252.5 -103.5t-94.5 -265.5t95 -265.5t254 -103.5z" />
    <glyph glyph-name="p" unicode="p" horiz-adv-x="1423" 
d="M180 -397v1495h244l2 -146q154 176 383 176q104 0 195.5 -38t161 -108t109.5 -177t40 -238q0 -127 -46 -238.5t-125 -190t-189 -124t-234 -45.5q-162 0 -291 76v-442h-250zM700 182q165 0 264 103t99 268q0 176 -93.5 269t-242.5 93q-83 0 -161.5 -34t-135.5 -88v-510
q125 -101 270 -101z" />
    <glyph glyph-name="q" unicode="q" horiz-adv-x="1419" 
d="M989 -397v510q-151 -144 -364 -144q-104 0 -197 37.5t-164 105t-113 171t-42 227.5q0 273 171 445.5t435 172.5q176 0 358 -75h168v-1450h-252zM692 182q171 0 297 113v557q-130 72 -262 72q-157 0 -262 -108t-105 -290q0 -166 90.5 -255t241.5 -89z" />
    <glyph glyph-name="r" unicode="r" horiz-adv-x="856" 
d="M180 0v1098h246v-228q63 124 150.5 188t185.5 64q21 0 41 -2v-250q-20 4 -53 4q-115 0 -198 -46.5t-122 -137.5v-690h-250z" />
    <glyph glyph-name="s" unicode="s" horiz-adv-x="1191" 
d="M625 -31q-255 0 -482 127v228h2q106 -69 235.5 -108.5t254.5 -39.5q211 0 211 127q0 39 -21.5 63t-85 46.5t-194.5 50.5q-209 43 -302 113.5t-93 205.5q0 149 120.5 247.5t333.5 98.5q116 0 231 -31.5t191 -74.5v-227h-2q-103 59 -222.5 94t-217.5 35q-92 0 -140.5 -33
t-48.5 -88t59 -84.5t246 -71.5q215 -47 303.5 -123t88.5 -213q0 -48 -12.5 -93.5t-45.5 -91.5t-84 -80t-134.5 -55.5t-190.5 -21.5z" />
    <glyph glyph-name="t" unicode="t" horiz-adv-x="880" 
d="M309 0v891h-252l41 207h211v256l248 26v-282h272v-207h-272v-891h-248z" />
    <glyph glyph-name="u" unicode="u" horiz-adv-x="1388" 
d="M1208 1098v-1098h-245v180q-90 -99 -189.5 -155t-224.5 -56q-177 0 -279 102.5t-102 305.5v721h250v-670q0 -238 217 -238q161 0 323 166v742h250z" />
    <glyph glyph-name="v" unicode="v" horiz-adv-x="1280" 
d="M457 0l-404 1098h264l306 -875h41l305 875h258l-408 -1098h-362z" />
    <glyph glyph-name="w" unicode="w" horiz-adv-x="2029" 
d="M412 0l-340 1098h264l239 -869h41l258 858h287l264 -858h41l238 869h254l-342 -1098h-354l-230 795h-33l-233 -795h-354z" />
    <glyph glyph-name="x" unicode="x" horiz-adv-x="1282" 
d="M51 0v2l436 565l-411 529v2h293l280 -373l275 373h286v-2l-413 -537l434 -557v-2h-295l-301 401l-295 -401h-289z" />
    <glyph glyph-name="y" unicode="y" horiz-adv-x="1284" 
d="M395 -397l133 358l-473 1137h267l344 -854l317 854h256l-594 -1495h-250z" />
    <glyph glyph-name="z" unicode="z" horiz-adv-x="1232" 
d="M133 0v197l660 692h-641l8 209h952v-185l-680 -704h680v-209h-979z" />
    <glyph glyph-name="braceleft" unicode="{" horiz-adv-x="1093" 
d="M57 549v49l297 266q-6 36 -15 112.5t-9 84.5q-12 112 5.5 200.5t57 145.5t99.5 95t128.5 53.5t149.5 15.5q110 0 219 -31v-213h-2q-88 31 -180 31q-268 0 -234 -314q0 -5 6.5 -57.5t14.5 -116.5t10 -86l-252 -211l252 -211q-2 -22 -10 -86t-14.5 -116.5t-6.5 -57.5
q-8 -73 0.5 -128t29 -88.5t54 -53.5t69 -27.5t81.5 -7.5q101 0 180 31h2v-221q-109 -31 -219 -31q-81 0 -149.5 15.5t-128.5 53.5t-99.5 95t-57 145.5t-5.5 200.5q0 8 9 84.5t15 112.5z" />
    <glyph glyph-name="bar" unicode="|" horiz-adv-x="1026" 
d="M397 -397v1941h232v-1941h-232z" />
    <glyph glyph-name="braceright" unicode="}" horiz-adv-x="1093" 
d="M1036 598v-49l-297 -266q25 -159 25 -197q12 -112 -5.5 -200.5t-57 -145.5t-99.5 -95t-128.5 -53.5t-149.5 -15.5q-112 0 -220 31v213h2q88 -31 181 -31q57 0 100.5 14t78.5 47.5t49.5 97t4.5 154.5q0 5 -6.5 57.5t-14.5 116.5t-10 86l252 211l-252 211q2 22 10 86
t14.5 116.5t6.5 57.5q10 91 -4.5 153.5t-50 94.5t-78 45t-100.5 13q-102 0 -181 -31h-2v221q109 31 220 31q81 0 149.5 -15.5t128.5 -53.5t99.5 -95t57 -145.5t5.5 -200.5q0 -38 -25 -197z" />
    <glyph glyph-name="asciitilde" unicode="~" horiz-adv-x="1540" 
d="M195 776q150 164 315 164q82 0 146.5 -26t166.5 -89q86 -53 125.5 -68.5t85.5 -15.5q75 0 145.5 53.5t163.5 170.5h3v-308q-147 -161 -318 -161q-81 0 -146.5 25.5t-164.5 86.5q-87 53 -126 68.5t-85 15.5q-75 0 -145.5 -53t-163.5 -168h-2v305z" />
    <glyph glyph-name="uni00A0" unicode="&#xa0;" horiz-adv-x="559" 
 />
    <glyph glyph-name="exclamdown" unicode="&#xa1;" horiz-adv-x="825" 
d="M412 1128q90 0 140 -51.5t50 -126.5v-2q0 -75 -50 -125.5t-140 -50.5q-88 0 -138.5 51t-50.5 125v2q0 75 50.5 126.5t138.5 51.5zM510 586l72 -910v-4h-338v4l71 910h195z" />
    <glyph glyph-name="cent" unicode="&#xa2;" horiz-adv-x="1220" 
d="M547 -78v293q-183 39 -291.5 169t-108.5 323q0 190 116.5 331.5t303.5 182.5v245h230v-235q153 -17 268 -96v-230h-2q-162 119 -328 119q-155 0 -249.5 -86.5t-94.5 -230.5q0 -129 94.5 -213t249.5 -84q169 0 326 118h2v-229q-129 -82 -287 -96v-254z" />
    <glyph glyph-name="sterling" unicode="&#xa3;" horiz-adv-x="1439" 
d="M127 621l35 210h248l30 107q79 273 208 400.5t353 127.5q150 0 256 -61v-231h-2q-111 61 -233 61q-125 0 -201 -69t-129 -246l-26 -89h544v-210h-606l-117 -396h820v-225h-1141l182 621h-221z" />
    <glyph glyph-name="yen" unicode="&#xa5;" horiz-adv-x="1656" 
d="M205 287l14 186h486v27l-87 147h-389l13 184h268l-352 603h276l387 -672h15l395 672h268l-354 -603h268l14 -184h-391l-84 -143v-31h486l12 -186h-498v-287h-247v287h-500z" />
    <glyph glyph-name="section" unicode="&#xa7;" horiz-adv-x="1556" 
d="M680 -428q-153 0 -286 36.5t-220 88.5v235h2q239 -147 500 -147q242 0 379 137q-241 38 -415 122.5t-278 188.5q-208 214 -208 523q0 149 50.5 278.5t143.5 225.5t235 151t316 55q142 0 250.5 -28t171.5 -68v-235h-2q-186 118 -416 118q-250 0 -387 -137
q238 -39 413.5 -124t276.5 -189q209 -212 209 -522q0 -199 -85.5 -358.5t-254.5 -255t-395 -95.5zM553 377q197 -200 604 -287q27 89 27 178q0 219 -168 394q-195 195 -604 286q-27 -89 -27 -178q0 -218 168 -393z" />
    <glyph glyph-name="dieresis" unicode="&#xa8;" horiz-adv-x="1024" 
d="M252 1268q-70 0 -113 41.5t-43 99.5v2q0 59 42.5 99t111.5 40q71 0 113.5 -40t42.5 -99v-2q0 -58 -42.5 -99.5t-111.5 -41.5zM774 1268q-69 0 -111 41.5t-42 99.5v2q0 59 41.5 99t111.5 40q71 0 112.5 -40t41.5 -99v-2q0 -58 -41.5 -99.5t-112.5 -41.5z" />
    <glyph glyph-name="copyright" unicode="&#xa9;" horiz-adv-x="1982" 
d="M991 -94q-263 0 -461.5 100.5t-305.5 284t-107 426.5t107 426.5t305.5 284t461.5 100.5q398 0 637.5 -222t239.5 -589t-239.5 -589t-637.5 -222zM991 76q313 0 496.5 171t183.5 470t-183.5 470t-496.5 171q-312 0 -495 -171t-183 -470t183 -470t495 -171zM1024 338
q-199 0 -305.5 108.5t-106.5 276.5q0 164 113.5 274.5t306.5 110.5q168 0 285 -88v-172h-2q-140 98 -264 98q-112 0 -180 -63.5t-68 -159.5q0 -103 61 -163t183 -60q78 0 138.5 24.5t129.5 73.5h2v-174q-126 -86 -293 -86z" />
    <glyph glyph-name="ordfeminine" unicode="&#xaa;" horiz-adv-x="1105" 
d="M408 541q-146 0 -224 67t-78 174q0 109 74 179q129 129 549 151v25q0 74 -44.5 109.5t-137.5 35.5q-190 0 -367 -125h-2v201q180 108 383 108q192 0 285.5 -90t93.5 -256v-553h-197l-4 129q-69 -78 -147 -116.5t-184 -38.5zM457 707q145 0 272 127v139q-167 -13 -255 -36
t-126 -60q-31 -31 -31 -70q0 -100 140 -100z" />
    <glyph glyph-name="guillemotleft" unicode="&#xab;" horiz-adv-x="1527" 
d="M780 1014l-387 -465l387 -465h-280l-389 457v16l389 457h280zM1399 1014l-389 -465l389 -465h-283l-389 457v16l389 457h283z" />
    <glyph glyph-name="uni00AD" unicode="&#xad;" horiz-adv-x="0" 
 />
    <glyph glyph-name="registered" unicode="&#xae;" horiz-adv-x="1415" 
d="M707 424q-270 0 -432 152.5t-162 400.5q0 246 163 398.5t431 152.5q272 0 435 -152.5t163 -398.5q0 -247 -164 -400t-434 -153zM707 559q203 0 322.5 112t119.5 306q0 193 -119.5 304.5t-322.5 111.5q-202 0 -321.5 -111.5t-119.5 -304.5q0 -194 119.5 -306t321.5 -112z
M477 725v508h275q225 0 225 -186q0 -53 -28 -97t-85 -63l129 -156v-6h-143l-115 141h-131v-141h-127zM604 973h141q54 0 78.5 17.5t24.5 58.5q0 40 -23.5 57.5t-76.5 17.5h-144v-151z" />
    <glyph glyph-name="macron" unicode="&#xaf;" horiz-adv-x="1024" 
d="M127 1311v192h770v-192h-770z" />
    <glyph glyph-name="degree" unicode="&#xb0;" horiz-adv-x="1181" 
d="M592 582q-210 0 -337.5 118.5t-127.5 315.5q0 198 128 318t337 120q208 0 335.5 -119.5t127.5 -316.5q0 -196 -128 -316t-335 -120zM592 770q109 0 176.5 66.5t67.5 181.5t-66.5 180.5t-177.5 65.5t-178.5 -66.5t-67.5 -181.5q0 -114 68 -180t178 -66z" />
    <glyph glyph-name="plusminus" unicode="&#xb1;" horiz-adv-x="1531" 
d="M262 807v221h385v385h238v-385h385v-221h-385v-385h-238v385h-385zM262 0v209h1008v-209h-1008z" />
    <glyph glyph-name="two.sup" unicode="&#xb2;" horiz-adv-x="970" 
d="M152 719v162l284 225q127 100 162 137t35 74q0 41 -34 62.5t-93 21.5q-143 0 -320 -131h-2v190q161 113 336 113q155 0 235.5 -64t80.5 -176q0 -89 -51.5 -148.5t-207.5 -179.5q-18 -14 -28 -22l-123 -96h410v-168h-684z" />
    <glyph glyph-name="three.sup" unicode="&#xb3;" horiz-adv-x="970" 
d="M467 696q-146 0 -311 58v178q179 -72 290 -72q90 0 142.5 28.5t52.5 82.5q0 58 -59.5 81t-227.5 23h-30v94l268 217h-428l6 164h647v-159l-242 -195q269 -36 269 -231q0 -124 -103.5 -196.5t-273.5 -72.5z" />
    <glyph glyph-name="acute" unicode="&#xb4;" horiz-adv-x="1024" 
d="M260 1278l252 336h328v-12l-346 -324h-234z" />
    <glyph glyph-name="paragraph" unicode="&#xb6;" horiz-adv-x="1730" 
d="M1274 0v1223h-303v-834h-121q-145 0 -255.5 15t-200.5 50t-147.5 91t-88.5 140t-31 196q0 281 169 417t503 136h708v-1434h-233z" />
    <glyph glyph-name="periodcentered" unicode="&#xb7;" horiz-adv-x="806" 
d="M403 455q-89 0 -139.5 52t-50.5 126v4q0 73 50.5 124.5t139.5 51.5q88 0 139.5 -51.5t51.5 -124.5v-4q0 -73 -51.5 -125.5t-139.5 -52.5z" />
    <glyph glyph-name="cedilla" unicode="&#xb8;" horiz-adv-x="1024" 
d="M164 -383v12l315 371h217l-213 -383h-319z" />
    <glyph glyph-name="one.sup" unicode="&#xb9;" horiz-adv-x="749" 
d="M305 719v670h-196l30 161h371v-831h-205z" />
    <glyph glyph-name="ordmasculine" unicode="&#xba;" horiz-adv-x="1206" 
d="M604 541q-116 0 -210 35t-156 97.5t-95.5 147t-33.5 183.5q0 202 132.5 332t362.5 130q229 0 361.5 -129.5t132.5 -332.5q0 -202 -132.5 -332.5t-361.5 -130.5zM604 725q126 0 199.5 78t73.5 201q0 124 -72 201t-201 77q-128 0 -201 -77.5t-73 -200.5q0 -124 72.5 -201.5
t201.5 -77.5z" />
    <glyph glyph-name="guillemotright" unicode="&#xbb;" horiz-adv-x="1527" 
d="M748 84l387 465l-387 465h280l389 -457v-16l-389 -457h-280zM129 84l389 465l-389 465h283l389 -457v-16l-389 -457h-283z" />
    <glyph glyph-name="onequarter" unicode="&#xbc;" horiz-adv-x="2048" 
d="M305 602v670h-196l30 162h371v-832h-205zM319 2l1022 1432h211v-2l-1024 -1432h-209v2zM1659 0v170h-496v149l244 512h438v-497h135l-8 -164h-127v-170h-186zM1366 330h297v340h-135z" />
    <glyph glyph-name="onehalf" unicode="&#xbd;" horiz-adv-x="2076" 
d="M305 602v670h-196l30 162h371v-832h-205zM319 2l1022 1432h211v-2l-1024 -1432h-209v2zM1257 0v162l285 225q127 100 162 137t35 74q0 41 -34 62.5t-93 21.5q-143 0 -320 -131h-2v190q161 113 336 113q155 0 235.5 -64t80.5 -176q0 -89 -51.5 -148.5t-207.5 -179.5
q-18 -14 -28 -22l-123 -96h410v-168h-685z" />
    <glyph glyph-name="threequarters" unicode="&#xbe;" horiz-adv-x="2252" 
d="M467 580q-149 0 -311 57v178q179 -72 290 -72q90 0 142.5 28.5t52.5 82.5q0 58 -59.5 81t-227.5 23h-30v95l268 217h-428l6 164h647v-160l-242 -195q269 -36 269 -231q0 -124 -103.5 -196t-273.5 -72zM524 2l1022 1432h211v-2l-1024 -1432h-209v2zM1864 0v170h-496v149
l244 512h438v-497h135l-8 -164h-127v-170h-186zM1571 330h297v340h-135z" />
    <glyph glyph-name="questiondown" unicode="&#xbf;" horiz-adv-x="1282" 
d="M709 1128q90 0 140 -51.5t50 -126.5v-2q0 -75 -50 -125.5t-140 -50.5q-89 0 -140 51t-51 125v2q0 74 51.5 126t139.5 52zM1161 -211q-280 -149 -579 -149q-89 0 -168.5 14.5t-148 46t-118 76t-78 109t-28.5 141.5q0 129 76.5 224t247.5 171.5t458 142.5h2v-223
q-159 -42 -265.5 -81.5t-160.5 -78t-75 -72.5t-21 -75q0 -88 79 -131t214 -43q278 0 563 182h2v-254z" />
    <glyph glyph-name="Agrave" unicode="&#xc0;" horiz-adv-x="1718" 
d="M1016 1614h-234l-346 323v13h328zM78 0l569 1434h426l567 -1434h-274l-143 365h-731l-144 -365h-270zM817 1188l-235 -594h551l-234 594h-82z" />
    <glyph glyph-name="Aacute" unicode="&#xc1;" horiz-adv-x="1718" 
d="M707 1614l251 336h328v-13l-346 -323h-233zM78 0l569 1434h426l567 -1434h-274l-143 365h-731l-144 -365h-270zM817 1188l-235 -594h551l-234 594h-82z" />
    <glyph glyph-name="Acircumflex" unicode="&#xc2;" horiz-adv-x="1718" 
d="M414 1614l282 362h332l283 -362h-258l-152 192h-78l-151 -192h-258zM78 0l569 1434h426l567 -1434h-274l-143 365h-731l-144 -365h-270zM817 1188l-235 -594h551l-234 594h-82z" />
    <glyph glyph-name="Atilde" unicode="&#xc3;" horiz-adv-x="1718" 
d="M690 1907q51 0 90 -13.5t113 -52.5q62 -32 88 -41.5t53 -9.5q47 0 92.5 31.5t108.5 109.5h2v-235q-94 -105 -207 -105q-51 0 -90 13.5t-113 52.5q-62 32 -88 41.5t-53 9.5q-46 0 -92.5 -32t-108.5 -109h-2v235q94 105 207 105zM78 0l569 1434h426l567 -1434h-274
l-143 365h-731l-144 -365h-270zM817 1188l-235 -594h551l-234 594h-82z" />
    <glyph glyph-name="Adieresis" unicode="&#xc4;" horiz-adv-x="1718" 
d="M602 1604q-70 0 -113 41.5t-43 99.5v2q0 59 42.5 99t111.5 40q71 0 113.5 -40t42.5 -99v-2q0 -58 -42.5 -99.5t-111.5 -41.5zM1124 1604q-69 0 -111 41.5t-42 99.5v2q0 59 41.5 99t111.5 40q71 0 112.5 -40t41.5 -99v-2q0 -58 -41.5 -99.5t-112.5 -41.5zM78 0l569 1434
h426l567 -1434h-274l-143 365h-731l-144 -365h-270zM817 1188l-235 -594h551l-234 594h-82z" />
    <glyph glyph-name="Aring" unicode="&#xc5;" horiz-adv-x="1718" 
d="M858 1597q-160 0 -251 78t-91 215t92 218t252 81q161 0 253.5 -79.5t92.5 -217.5q0 -135 -93.5 -215t-254.5 -80zM860 1747q77 0 122.5 39t45.5 106t-46.5 107.5t-123.5 40.5q-76 0 -123 -40t-47 -108q0 -67 47.5 -106t124.5 -39zM78 0l569 1434h426l567 -1434h-274
l-143 365h-731l-144 -365h-270zM817 1188l-235 -594h551l-234 594h-82z" />
    <glyph glyph-name="AE" unicode="&#xc6;" horiz-adv-x="2609" 
d="M1262 0v365h-676l-226 -365h-305l910 1434h1474l8 -238h-925v-336h753v-235h-753v-387h958l-10 -238h-1208zM1102 1188l-373 -594h533v594h-160z" />
    <glyph glyph-name="Ccedilla" unicode="&#xc7;" horiz-adv-x="1615" 
d="M502 -381v12l293 344q-133 13 -242.5 58t-186 113.5t-129 158t-77.5 191.5t-25 215q0 153 53 288t152 239.5t253.5 165t344.5 60.5q161 0 298 -49t234 -123v-268h-2q-70 48 -119 77t-118.5 62t-143.5 48.5t-155 15.5q-243 0 -384.5 -144.5t-141.5 -369.5
q0 -146 58.5 -259t178 -180t285.5 -67q158 0 286.5 51t253.5 145h2v-268q-79 -58 -195 -103t-255 -57l-199 -356h-319z" />
    <glyph glyph-name="Egrave" unicode="&#xc8;" horiz-adv-x="1572" 
d="M995 1614h-233l-346 323v13h327zM225 0v1434h1178l8 -238h-926v-336h754v-235h-754v-387h959l-10 -238h-1209z" />
    <glyph glyph-name="Eacute" unicode="&#xc9;" horiz-adv-x="1572" 
d="M668 1614l252 336h327v-13l-346 -323h-233zM225 0v1434h1178l8 -238h-926v-336h754v-235h-754v-387h959l-10 -238h-1209z" />
    <glyph glyph-name="Ecircumflex" unicode="&#xca;" horiz-adv-x="1572" 
d="M383 1614l283 362h331l283 -362h-258l-152 192h-77l-152 -192h-258zM225 0v1434h1178l8 -238h-926v-336h754v-235h-754v-387h959l-10 -238h-1209z" />
    <glyph glyph-name="Edieresis" unicode="&#xcb;" horiz-adv-x="1572" 
d="M571 1604q-70 0 -112.5 41.5t-42.5 99.5v2q0 59 42 99t111 40q71 0 113.5 -40t42.5 -99v-2q0 -58 -42.5 -99.5t-111.5 -41.5zM1094 1604q-69 0 -111.5 41.5t-42.5 99.5v2q0 59 42 99t112 40q71 0 112 -40t41 -99v-2q0 -59 -41.5 -100t-111.5 -41zM225 0v1434h1178l8 -238
h-926v-336h754v-235h-754v-387h959l-10 -238h-1209z" />
    <glyph glyph-name="Igrave" unicode="&#xcc;" horiz-adv-x="722" 
d="M477 1614h-233l-346 323v13h327zM229 0v1434h263v-1434h-263z" />
    <glyph glyph-name="Iacute" unicode="&#xcd;" horiz-adv-x="722" 
d="M246 1614l252 336h327v-13l-346 -323h-233zM229 0v1434h263v-1434h-263z" />
    <glyph glyph-name="Icircumflex" unicode="&#xce;" horiz-adv-x="722" 
d="M-88 1614l283 362h331l283 -362h-258l-152 192h-77l-152 -192h-258zM229 0v1434h263v-1434h-263z" />
    <glyph glyph-name="Idieresis" unicode="&#xcf;" horiz-adv-x="722" 
d="M100 1604q-70 0 -112.5 41.5t-42.5 99.5v2q0 59 42 99t111 40q71 0 113.5 -40t42.5 -99v-2q0 -58 -42.5 -99.5t-111.5 -41.5zM623 1604q-69 0 -111.5 41.5t-42.5 99.5v2q0 59 42 99t112 40q71 0 112 -40t41 -99v-2q0 -59 -41 -100t-112 -41zM229 0v1434h263v-1434h-263z
" />
    <glyph glyph-name="Eth" unicode="&#xd0;" horiz-adv-x="1822" 
d="M283 0v618h-205l18 201h187v615h682q342 0 531.5 -188.5t189.5 -526.5q0 -336 -190 -527.5t-531 -191.5h-682zM545 238h418q221 0 337.5 119t116.5 358t-116.5 360t-337.5 121h-418v-377h452v-201h-452v-380z" />
    <glyph glyph-name="Ntilde" unicode="&#xd1;" horiz-adv-x="1802" 
d="M768 1907q51 0 90 -13.5t113 -52.5q62 -32 88 -41.5t53 -9.5q47 0 92.5 31.5t108.5 109.5h2v-235q-94 -105 -207 -105q-51 0 -90 13.5t-113 52.5q-62 32 -88 41.5t-53 9.5q-46 0 -92.5 -32t-108.5 -109h-2v235q94 105 207 105zM225 0v1434h299l785 -1039h12v1039h256
v-1434h-283l-800 1065h-15v-1065h-254z" />
    <glyph glyph-name="Ograve" unicode="&#xd2;" horiz-adv-x="1843" 
d="M1085 1649h-233l-346 323v13h328zM922 -35q-360 0 -573.5 204.5t-213.5 547.5q0 342 213.5 546.5t573.5 204.5t572 -204t212 -547q0 -342 -212 -547t-572 -205zM920 203q243 0 380.5 137.5t137.5 376.5t-135.5 376.5t-378.5 137.5t-380.5 -137.5t-137.5 -376.5
t135.5 -376.5t378.5 -137.5z" />
    <glyph glyph-name="Oacute" unicode="&#xd3;" horiz-adv-x="1843" 
d="M758 1649l252 336h327v-13l-346 -323h-233zM922 -35q-360 0 -573.5 204.5t-213.5 547.5q0 342 213.5 546.5t573.5 204.5t572 -204t212 -547q0 -342 -212 -547t-572 -205zM920 203q243 0 380.5 137.5t137.5 376.5t-135.5 376.5t-378.5 137.5t-380.5 -137.5t-137.5 -376.5
t135.5 -376.5t378.5 -137.5z" />
    <glyph glyph-name="Ocircumflex" unicode="&#xd4;" horiz-adv-x="1843" 
d="M473 1649l283 362h331l283 -362h-258l-151 192h-78l-152 -192h-258zM922 -35q-360 0 -573.5 204.5t-213.5 547.5q0 342 213.5 546.5t573.5 204.5t572 -204t212 -547q0 -342 -212 -547t-572 -205zM920 203q243 0 380.5 137.5t137.5 376.5t-135.5 376.5t-378.5 137.5
t-380.5 -137.5t-137.5 -376.5t135.5 -376.5t378.5 -137.5z" />
    <glyph glyph-name="Otilde" unicode="&#xd5;" horiz-adv-x="1843" 
d="M752 1942q50 0 88.5 -13.5t113.5 -52.5q61 -32 88 -41.5t54 -9.5q47 0 92 31.5t108 109.5h2v-235q-94 -105 -206 -105q-51 0 -90 13.5t-113 52.5q-62 32 -88 41.5t-53 9.5q-46 0 -92.5 -32t-108.5 -109h-2v235q94 105 207 105zM922 -35q-360 0 -573.5 204.5t-213.5 547.5
q0 342 213.5 546.5t573.5 204.5t572 -204t212 -547q0 -342 -212 -547t-572 -205zM920 203q243 0 380.5 137.5t137.5 376.5t-135.5 376.5t-378.5 137.5t-380.5 -137.5t-137.5 -376.5t135.5 -376.5t378.5 -137.5z" />
    <glyph glyph-name="Odieresis" unicode="&#xd6;" horiz-adv-x="1843" 
d="M662 1638q-70 0 -113 42t-43 100v2q0 59 42 99t111 40q71 0 113.5 -40t42.5 -99v-2q0 -58 -42 -100t-111 -42zM1184 1638q-69 0 -111.5 42t-42.5 100v2q0 59 42 99t112 40q71 0 112 -40t41 -99v-2q0 -59 -41.5 -100.5t-111.5 -41.5zM922 -35q-360 0 -573.5 204.5
t-213.5 547.5q0 342 213.5 546.5t573.5 204.5t572 -204t212 -547q0 -342 -212 -547t-572 -205zM920 203q243 0 380.5 137.5t137.5 376.5t-135.5 376.5t-378.5 137.5t-380.5 -137.5t-137.5 -376.5t135.5 -376.5t378.5 -137.5z" />
    <glyph glyph-name="multiply" unicode="&#xd7;" horiz-adv-x="1472" 
d="M211 1085l158 156l366 -367l369 367l156 -156l-367 -366l367 -369l-156 -155l-369 366l-366 -366l-158 155l369 369z" />
    <glyph glyph-name="Oslash" unicode="&#xd8;" horiz-adv-x="1843" 
d="M102 -125l240 299q-207 204 -207 543q0 342 213.5 546.5t573.5 204.5q223 0 395 -82l139 173h283l-240 -302q207 -201 207 -540q0 -342 -212 -547t-572 -205q-224 0 -396 82l-137 -172h-287zM397 717q0 -221 113 -355l666 826q-107 49 -252 49q-248 0 -387.5 -138.5
t-139.5 -381.5zM920 197q246 0 385 138.5t139 381.5q0 220 -113 354l-665 -825q107 -49 254 -49z" />
    <glyph glyph-name="Ugrave" unicode="&#xd9;" horiz-adv-x="1769" 
d="M1049 1561h-234l-346 323v12h328zM881 -33q-149 0 -268 32.5t-210.5 100t-141.5 182t-50 269.5v883h262v-871q0 -96 32.5 -167t90.5 -110.5t129.5 -58t159.5 -18.5t159 18t129.5 57t90.5 108t32 163v879h263v-875q0 -158 -51 -274t-144.5 -184.5t-213.5 -101t-269 -32.5z
" />
    <glyph glyph-name="Uacute" unicode="&#xda;" horiz-adv-x="1769" 
d="M721 1561l252 335h327v-12l-346 -323h-233zM881 -33q-149 0 -268 32.5t-210.5 100t-141.5 182t-50 269.5v883h262v-871q0 -96 32.5 -167t90.5 -110.5t129.5 -58t159.5 -18.5t159 18t129.5 57t90.5 108t32 163v879h263v-875q0 -158 -51 -274t-144.5 -184.5t-213.5 -101
t-269 -32.5z" />
    <glyph glyph-name="Ucircumflex" unicode="&#xdb;" horiz-adv-x="1769" 
d="M436 1614l283 362h332l282 -362h-258l-151 192h-78l-152 -192h-258zM881 -33q-149 0 -268 32.5t-210.5 100t-141.5 182t-50 269.5v883h262v-871q0 -96 32.5 -167t90.5 -110.5t129.5 -58t159.5 -18.5t159 18t129.5 57t90.5 108t32 163v879h263v-875q0 -158 -51 -274
t-144.5 -184.5t-213.5 -101t-269 -32.5z" />
    <glyph glyph-name="Udieresis" unicode="&#xdc;" horiz-adv-x="1769" 
d="M625 1604q-70 0 -113 41.5t-43 99.5v2q0 59 42.5 99t111.5 40q71 0 113 -40t42 -99v-2q0 -58 -42 -99.5t-111 -41.5zM1147 1604q-69 0 -111.5 41.5t-42.5 99.5v2q0 59 42 99t112 40q71 0 112 -40t41 -99v-2q0 -59 -41 -100t-112 -41zM881 -33q-149 0 -268 32.5
t-210.5 100t-141.5 182t-50 269.5v883h262v-871q0 -96 32.5 -167t90.5 -110.5t129.5 -58t159.5 -18.5t159 18t129.5 57t90.5 108t32 163v879h263v-875q0 -158 -51 -274t-144.5 -184.5t-213.5 -101t-269 -32.5z" />
    <glyph glyph-name="Yacute" unicode="&#xdd;" horiz-adv-x="1644" 
d="M657 1561l252 335h328v-12l-346 -323h-234zM690 0v494l-645 940h307l461 -686h21l469 686h296l-647 -936v-498h-262z" />
    <glyph glyph-name="Thorn" unicode="&#xde;" horiz-adv-x="1601" 
d="M225 0v1434h262v-213h465q269 0 408 -130t139 -362q0 -250 -152 -379t-419 -129h-441v-221h-262zM487 457h447q152 0 225.5 71t73.5 193q0 264 -305 264h-441v-528z" />
    <glyph glyph-name="germandbls" unicode="&#xdf;" horiz-adv-x="1560" 
d="M63 891l41 207h195q38 241 183.5 358t369.5 117q381 0 567 -354l-358 -385l94 -50q75 -39 124.5 -72.5t94.5 -79.5t66.5 -104.5t21.5 -132.5q0 -190 -131 -309t-332 -119q-131 0 -274 51v220h2q141 -66 262 -66q108 0 173 60t65 155q0 83 -61 134t-232 128l-121 53
l-4 154l326 361q-111 147 -277 147q-51 0 -94.5 -10.5t-87.5 -41t-74.5 -78.5t-50 -128t-19.5 -186v-920h-247v891h-222z" />
    <glyph glyph-name="agrave" unicode="&#xe0;" horiz-adv-x="1282" 
d="M815 1309h-233l-346 323v13h327zM485 -31q-179 0 -275.5 83.5t-96.5 217.5q0 127 88 215q152 156 667 181v41q0 206 -231 206q-217 0 -432 -157h-2v237q221 135 467 135q224 0 336 -113t112 -319v-696h-231l-6 147q-160 -178 -396 -178zM541 156q97 0 183.5 40.5
t143.5 100.5v209q-377 -27 -471 -121q-39 -39 -39 -94q0 -62 49.5 -98.5t133.5 -36.5z" />
    <glyph glyph-name="aacute" unicode="&#xe1;" horiz-adv-x="1282" 
d="M487 1309l252 336h328v-13l-346 -323h-234zM485 -31q-179 0 -275.5 83.5t-96.5 217.5q0 127 88 215q152 156 667 181v41q0 206 -231 206q-217 0 -432 -157h-2v237q221 135 467 135q224 0 336 -113t112 -319v-696h-231l-6 147q-160 -178 -396 -178zM541 156
q97 0 183.5 40.5t143.5 100.5v209q-377 -27 -471 -121q-39 -39 -39 -94q0 -62 49.5 -98.5t133.5 -36.5z" />
    <glyph glyph-name="acircumflex" unicode="&#xe2;" horiz-adv-x="1282" 
d="M201 1309l282 362h332l283 -362h-258l-152 192h-78l-151 -192h-258zM485 -31q-179 0 -275.5 83.5t-96.5 217.5q0 127 88 215q152 156 667 181v41q0 206 -231 206q-217 0 -432 -157h-2v237q221 135 467 135q224 0 336 -113t112 -319v-696h-231l-6 147q-160 -178 -396 -178
zM541 156q97 0 183.5 40.5t143.5 100.5v209q-377 -27 -471 -121q-39 -39 -39 -94q0 -62 49.5 -98.5t133.5 -36.5z" />
    <glyph glyph-name="atilde" unicode="&#xe3;" horiz-adv-x="1282" 
d="M477 1602q51 0 90 -13.5t113 -52.5q62 -32 88 -41.5t53 -9.5q47 0 92.5 31.5t108.5 109.5h2v-235q-94 -105 -207 -105q-51 0 -90 13.5t-113 52.5q-62 32 -88 41.5t-53 9.5q-46 0 -92.5 -32t-108.5 -109h-2v235q94 105 207 105zM485 -31q-179 0 -275.5 83.5t-96.5 217.5
q0 127 88 215q152 156 667 181v41q0 206 -231 206q-217 0 -432 -157h-2v237q221 135 467 135q224 0 336 -113t112 -319v-696h-231l-6 147q-160 -178 -396 -178zM541 156q97 0 183.5 40.5t143.5 100.5v209q-377 -27 -471 -121q-39 -39 -39 -94q0 -62 49.5 -98.5t133.5 -36.5z
" />
    <glyph glyph-name="adieresis" unicode="&#xe4;" horiz-adv-x="1282" 
d="M387 1298q-70 0 -113 42t-43 100v2q0 59 42.5 99t111.5 40q71 0 113.5 -40t42.5 -99v-2q0 -58 -42.5 -100t-111.5 -42zM909 1298q-69 0 -111 42t-42 100v2q0 59 41.5 99t111.5 40q71 0 112.5 -40t41.5 -99v-2q0 -58 -41.5 -100t-112.5 -42zM485 -31q-179 0 -275.5 83.5
t-96.5 217.5q0 127 88 215q152 156 667 181v41q0 206 -231 206q-217 0 -432 -157h-2v237q221 135 467 135q224 0 336 -113t112 -319v-696h-231l-6 147q-160 -178 -396 -178zM541 156q97 0 183.5 40.5t143.5 100.5v209q-377 -27 -471 -121q-39 -39 -39 -94q0 -62 49.5 -98.5
t133.5 -36.5z" />
    <glyph glyph-name="aring" unicode="&#xe5;" horiz-adv-x="1282" 
d="M647 1292q-160 0 -251 78t-91 215t92 218t252 81q161 0 253.5 -79.5t92.5 -217.5q0 -135 -93.5 -215t-254.5 -80zM649 1442q77 0 122.5 39t45.5 106t-46.5 107.5t-123.5 40.5q-76 0 -123 -40t-47 -108q0 -67 47.5 -106t124.5 -39zM485 -31q-179 0 -275.5 83.5
t-96.5 217.5q0 127 88 215q152 156 667 181v41q0 206 -231 206q-217 0 -432 -157h-2v237q221 135 467 135q224 0 336 -113t112 -319v-696h-231l-6 147q-160 -178 -396 -178zM541 156q97 0 183.5 40.5t143.5 100.5v209q-377 -27 -471 -121q-39 -39 -39 -94q0 -62 49.5 -98.5
t133.5 -36.5z" />
    <glyph glyph-name="ae" unicode="&#xe6;" horiz-adv-x="2084" 
d="M1917 84q-191 -115 -428 -115q-357 0 -512 215q-111 -114 -228.5 -164.5t-259.5 -50.5q-184 0 -280 82.5t-96 218.5q0 127 88 215q159 155 673 183v43q0 98 -60 150t-177 52q-217 0 -432 -157h-2v237q221 135 459 135q144 0 241.5 -48.5t140.5 -139.5q63 87 169.5 137.5
t236.5 50.5q106 0 194 -29t149.5 -80.5t104 -122.5t62.5 -154.5t20 -178.5q0 -43 -6 -80h-856q15 -147 113.5 -225t265.5 -78q211 0 418 127h2v-223zM1444 924q-122 0 -206 -73t-110 -200h613q-8 123 -86 198t-211 75zM358 291q0 -63 49 -99t134 -36q206 0 368 151
q-33 87 -39 197q-206 -14 -315.5 -43.5t-157.5 -75.5q-39 -39 -39 -94z" />
    <glyph glyph-name="ccedilla" unicode="&#xe7;" horiz-adv-x="1228" 
d="M299 -383v12l297 348q-222 34 -354.5 183.5t-132.5 378.5q0 124 46.5 233t127.5 187t196 123.5t246 45.5q223 0 381 -114v-240h-2q-184 137 -369 137q-166 0 -270.5 -103.5t-104.5 -262.5q0 -162 104 -259.5t269 -97.5q188 0 371 136h2v-240q-133 -89 -289 -109
l-199 -358h-319z" />
    <glyph glyph-name="egrave" unicode="&#xe8;" horiz-adv-x="1323" 
d="M858 1309h-233l-346 323v13h327zM690 1128q106 0 193.5 -29t149 -80.5t104 -123t62.5 -155.5t20 -179q0 -35 -7 -82h-854q17 -144 114 -221.5t263 -77.5q216 0 418 127h2v-223q-191 -115 -428 -115q-152 0 -271.5 42t-194.5 117t-113.5 175.5t-38.5 220.5q0 262 160 433
t421 171zM684 924q-125 0 -207.5 -73t-109.5 -202h614q-9 124 -86 199.5t-211 75.5z" />
    <glyph glyph-name="eacute" unicode="&#xe9;" horiz-adv-x="1323" 
d="M530 1309l252 336h328v-13l-346 -323h-234zM690 1128q106 0 193.5 -29t149 -80.5t104 -123t62.5 -155.5t20 -179q0 -35 -7 -82h-854q17 -144 114 -221.5t263 -77.5q216 0 418 127h2v-223q-191 -115 -428 -115q-152 0 -271.5 42t-194.5 117t-113.5 175.5t-38.5 220.5
q0 262 160 433t421 171zM684 924q-125 0 -207.5 -73t-109.5 -202h614q-9 124 -86 199.5t-211 75.5z" />
    <glyph glyph-name="ecircumflex" unicode="&#xea;" horiz-adv-x="1323" 
d="M246 1309l282 362h332l283 -362h-258l-152 192h-78l-151 -192h-258zM690 1128q106 0 193.5 -29t149 -80.5t104 -123t62.5 -155.5t20 -179q0 -35 -7 -82h-854q17 -144 114 -221.5t263 -77.5q216 0 418 127h2v-223q-191 -115 -428 -115q-152 0 -271.5 42t-194.5 117
t-113.5 175.5t-38.5 220.5q0 262 160 433t421 171zM684 924q-125 0 -207.5 -73t-109.5 -202h614q-9 124 -86 199.5t-211 75.5z" />
    <glyph glyph-name="edieresis" unicode="&#xeb;" horiz-adv-x="1323" 
d="M434 1298q-69 0 -112 42t-43 100v2q0 59 42 99t111 40q71 0 113.5 -40t42.5 -99v-2q0 -58 -42.5 -100t-111.5 -42zM956 1298q-69 0 -111 42t-42 100v2q0 59 41.5 99t111.5 40q71 0 112.5 -40t41.5 -99v-2q0 -58 -42 -100t-112 -42zM690 1128q106 0 193.5 -29t149 -80.5
t104 -123t62.5 -155.5t20 -179q0 -35 -7 -82h-854q17 -144 114 -221.5t263 -77.5q216 0 418 127h2v-223q-191 -115 -428 -115q-152 0 -271.5 42t-194.5 117t-113.5 175.5t-38.5 220.5q0 262 160 433t421 171zM684 924q-125 0 -207.5 -73t-109.5 -202h614q-9 124 -86 199.5
t-211 75.5z" />
    <glyph glyph-name="igrave" unicode="&#xec;" horiz-adv-x="620" 
d="M428 1278h-233l-347 324v12h328zM184 0v1098h250v-1098h-250z" />
    <glyph glyph-name="iacute" unicode="&#xed;" horiz-adv-x="620" 
d="M197 1278l252 336h327v-12l-346 -324h-233zM184 0v1098h250v-1098h-250z" />
    <glyph glyph-name="icircumflex" unicode="&#xee;" horiz-adv-x="620" 
d="M-139 1278l282 362h332l283 -362h-258l-152 192h-78l-151 -192h-258zM184 0v1098h250v-1098h-250z" />
    <glyph glyph-name="idieresis" unicode="&#xef;" horiz-adv-x="620" 
d="M49 1268q-70 0 -112.5 41.5t-42.5 99.5v2q0 59 42 99t111 40q71 0 113.5 -40t42.5 -99v-2q0 -58 -42.5 -99.5t-111.5 -41.5zM571 1268q-69 0 -111 41.5t-42 99.5v2q0 59 41.5 99t111.5 40q71 0 112.5 -40t41.5 -99v-2q0 -58 -41.5 -99.5t-112.5 -41.5zM184 0v1098h250
v-1098h-250z" />
    <glyph glyph-name="eth" unicode="&#xf0;" horiz-adv-x="1372" 
d="M674 -31q-253 0 -413.5 143t-160.5 377q0 104 31 193t84 151.5t123 107t148.5 66t160.5 21.5q223 0 359 -156q-65 197 -220 355l-354 -123v164l219 75q-138 104 -280 185v16h317q90 -50 184 -125l361 125v-164l-236 -82q265 -288 265 -673q0 -310 -163 -483t-425 -173z
M352 498q0 -148 92.5 -232t233.5 -84q162 0 251 114.5t89 305.5q0 28 -4 78q-45 70 -135 112t-189 42q-65 0 -124 -20t-107.5 -59t-77.5 -105.5t-29 -151.5z" />
    <glyph glyph-name="ntilde" unicode="&#xf1;" horiz-adv-x="1388" 
d="M539 1602q50 0 88.5 -13.5t113.5 -52.5q61 -32 88 -41.5t54 -9.5q47 0 92 31.5t108 109.5h2v-235q-94 -105 -206 -105q-51 0 -90 13.5t-113 52.5q-62 32 -88 41.5t-53 9.5q-46 0 -92.5 -32t-108.5 -109h-2v235q94 105 207 105zM180 0v1098h246v-180q89 99 189 154.5
t225 55.5q177 0 279 -102t102 -305v-721h-250v670q0 237 -217 237q-162 0 -324 -166v-741h-250z" />
    <glyph glyph-name="ograve" unicode="&#xf2;" horiz-adv-x="1415" 
d="M870 1309h-233l-346 323v13h327zM707 -31q-183 0 -320.5 78t-207.5 208.5t-70 293.5q0 121 41.5 227t117.5 184t189.5 123t251.5 45q137 0 251 -45t189.5 -123t116.5 -183.5t41 -227.5q0 -121 -41.5 -227t-117.5 -184.5t-190 -123.5t-251 -45zM709 180q157 0 250.5 103
t93.5 266t-93.5 266t-252.5 103q-158 0 -252.5 -103.5t-94.5 -265.5t95 -265.5t254 -103.5z" />
    <glyph glyph-name="oacute" unicode="&#xf3;" horiz-adv-x="1415" 
d="M543 1309l252 336h327v-13l-346 -323h-233zM707 -31q-183 0 -320.5 78t-207.5 208.5t-70 293.5q0 121 41.5 227t117.5 184t189.5 123t251.5 45q137 0 251 -45t189.5 -123t116.5 -183.5t41 -227.5q0 -121 -41.5 -227t-117.5 -184.5t-190 -123.5t-251 -45zM709 180
q157 0 250.5 103t93.5 266t-93.5 266t-252.5 103q-158 0 -252.5 -103.5t-94.5 -265.5t95 -265.5t254 -103.5z" />
    <glyph glyph-name="ocircumflex" unicode="&#xf4;" horiz-adv-x="1415" 
d="M258 1309l283 362h331l283 -362h-258l-152 192h-77l-152 -192h-258zM707 -31q-183 0 -320.5 78t-207.5 208.5t-70 293.5q0 121 41.5 227t117.5 184t189.5 123t251.5 45q137 0 251 -45t189.5 -123t116.5 -183.5t41 -227.5q0 -121 -41.5 -227t-117.5 -184.5t-190 -123.5
t-251 -45zM709 180q157 0 250.5 103t93.5 266t-93.5 266t-252.5 103q-158 0 -252.5 -103.5t-94.5 -265.5t95 -265.5t254 -103.5z" />
    <glyph glyph-name="otilde" unicode="&#xf5;" horiz-adv-x="1415" 
d="M537 1602q50 0 88.5 -13.5t113.5 -52.5q61 -32 88 -41.5t54 -9.5q47 0 92 31.5t108 109.5h2v-235q-94 -105 -206 -105q-51 0 -90 13.5t-113 52.5q-61 32 -88 41.5t-54 9.5q-46 0 -92 -32t-108 -109h-2v235q94 105 207 105zM707 -31q-183 0 -320.5 78t-207.5 208.5
t-70 293.5q0 121 41.5 227t117.5 184t189.5 123t251.5 45q137 0 251 -45t189.5 -123t116.5 -183.5t41 -227.5q0 -121 -41.5 -227t-117.5 -184.5t-190 -123.5t-251 -45zM709 180q157 0 250.5 103t93.5 266t-93.5 266t-252.5 103q-158 0 -252.5 -103.5t-94.5 -265.5t95 -265.5
t254 -103.5z" />
    <glyph glyph-name="odieresis" unicode="&#xf6;" horiz-adv-x="1415" 
d="M446 1298q-69 0 -112 42t-43 100v2q0 59 42 99t111 40q71 0 113.5 -40t42.5 -99v-2q0 -58 -42.5 -100t-111.5 -42zM969 1298q-69 0 -111.5 42t-42.5 100v2q0 59 42 99t112 40q71 0 112 -40t41 -99v-2q0 -59 -41.5 -100.5t-111.5 -41.5zM707 -31q-183 0 -320.5 78
t-207.5 208.5t-70 293.5q0 121 41.5 227t117.5 184t189.5 123t251.5 45q137 0 251 -45t189.5 -123t116.5 -183.5t41 -227.5q0 -121 -41.5 -227t-117.5 -184.5t-190 -123.5t-251 -45zM709 180q157 0 250.5 103t93.5 266t-93.5 266t-252.5 103q-158 0 -252.5 -103.5
t-94.5 -265.5t95 -265.5t254 -103.5z" />
    <glyph glyph-name="divide" unicode="&#xf7;" horiz-adv-x="1587" 
d="M793 1315q76 0 122 -43.5t46 -108.5v-2q0 -63 -46 -107t-120 -44q-77 0 -122.5 43.5t-45.5 107.5v2q0 65 45 108.5t121 43.5zM205 606v221h1179v-221h-1179zM795 119q-76 0 -121 43t-45 108v2q0 64 45 108t121 44t122 -44t46 -108v-2q0 -65 -46 -108t-122 -43z" />
    <glyph glyph-name="oslash" unicode="&#xf8;" horiz-adv-x="1415" 
d="M707 -31q-180 0 -320 78l-117 -141h-229l209 252q-141 156 -141 391q0 121 41.5 227t117.5 184t189.5 123t251.5 45q177 0 317 -75l119 139h229l-209 -252q142 -157 142 -391q0 -121 -41.5 -227t-117.5 -184.5t-190 -123.5t-251 -45zM352 549q0 -125 58 -221l481 551
q-77 47 -184 47q-161 0 -258 -106t-97 -271zM709 172q160 0 256 105.5t96 271.5q0 125 -57 219l-480 -551q79 -45 185 -45z" />
    <glyph glyph-name="ugrave" unicode="&#xf9;" horiz-adv-x="1388" 
d="M852 1241h-234l-346 324v12h328zM1208 1098v-1098h-245v180q-90 -99 -189.5 -155t-224.5 -56q-177 0 -279 102.5t-102 305.5v721h250v-670q0 -238 217 -238q161 0 323 166v742h250z" />
    <glyph glyph-name="uacute" unicode="&#xfa;" horiz-adv-x="1388" 
d="M524 1241l252 336h328v-12l-346 -324h-234zM1208 1098v-1098h-245v180q-90 -99 -189.5 -155t-224.5 -56q-177 0 -279 102.5t-102 305.5v721h250v-670q0 -238 217 -238q161 0 323 166v742h250z" />
    <glyph glyph-name="ucircumflex" unicode="&#xfb;" horiz-adv-x="1388" 
d="M240 1278l282 362h332l283 -362h-258l-152 192h-78l-151 -192h-258zM1208 1098v-1098h-245v180q-90 -99 -189.5 -155t-224.5 -56q-177 0 -279 102.5t-102 305.5v721h250v-670q0 -238 217 -238q161 0 323 166v742h250z" />
    <glyph glyph-name="udieresis" unicode="&#xfc;" horiz-adv-x="1388" 
d="M428 1268q-70 0 -113 41.5t-43 99.5v2q0 59 42.5 99t111.5 40q71 0 113.5 -40t42.5 -99v-2q0 -58 -42.5 -99.5t-111.5 -41.5zM950 1268q-69 0 -111 41.5t-42 99.5v2q0 59 41.5 99t111.5 40q71 0 112.5 -40t41.5 -99v-2q0 -58 -41.5 -99.5t-112.5 -41.5zM1208 1098v-1098
h-245v180q-90 -99 -189.5 -155t-224.5 -56q-177 0 -279 102.5t-102 305.5v721h250v-670q0 -238 217 -238q161 0 323 166v742h250z" />
    <glyph glyph-name="yacute" unicode="&#xfd;" horiz-adv-x="1284" 
d="M492 1241l251 336h328v-12l-346 -324h-233zM395 -397l133 358l-473 1137h267l344 -854l317 854h256l-594 -1495h-250z" />
    <glyph glyph-name="thorn" unicode="&#xfe;" horiz-adv-x="1423" 
d="M180 -397v1941h246v-590q155 174 385 174q105 0 197 -38.5t160.5 -108.5t107.5 -176t39 -234q0 -173 -79 -311t-215 -214.5t-302 -76.5q-163 0 -289 76v-442h-250zM698 182q166 0 265.5 102.5t99.5 274.5q0 169 -92 262.5t-244 93.5q-84 0 -162 -33.5t-135 -88.5v-517
q123 -94 268 -94z" />
    <glyph glyph-name="ydieresis" unicode="&#xff;" horiz-adv-x="1284" 
d="M395 1268q-70 0 -112.5 41.5t-42.5 99.5v2q0 59 42 99t111 40q71 0 113.5 -40t42.5 -99v-2q0 -58 -42.5 -99.5t-111.5 -41.5zM918 1268q-69 0 -111.5 41.5t-42.5 99.5v2q0 59 42 99t112 40q71 0 112 -40t41 -99v-2q0 -59 -41.5 -100t-111.5 -41zM395 -397l133 358
l-473 1137h267l344 -854l317 854h256l-594 -1495h-250z" />
    <glyph glyph-name="Amacron" unicode="&#x100;" horiz-adv-x="1718" 
d="M477 1647v192h770v-192h-770zM78 0l569 1434h426l567 -1434h-274l-143 365h-731l-144 -365h-270zM817 1188l-235 -594h551l-234 594h-82z" />
    <glyph glyph-name="amacron" unicode="&#x101;" horiz-adv-x="1282" 
d="M262 1341v193h770v-193h-770zM485 -31q-179 0 -275.5 83.5t-96.5 217.5q0 127 88 215q152 156 667 181v41q0 206 -231 206q-217 0 -432 -157h-2v237q221 135 467 135q224 0 336 -113t112 -319v-696h-231l-6 147q-160 -178 -396 -178zM541 156q97 0 183.5 40.5
t143.5 100.5v209q-377 -27 -471 -121q-39 -39 -39 -94q0 -62 49.5 -98.5t133.5 -36.5z" />
    <glyph glyph-name="Abreve" unicode="&#x102;" horiz-adv-x="1718" 
d="M862 1597q-179 0 -282 77t-103 222q0 46 12 101h201q-6 -38 -6 -64q0 -149 178 -149t178 147q0 33 -8 66h203q10 -62 10 -103q0 -144 -102.5 -220.5t-280.5 -76.5zM78 0l569 1434h426l567 -1434h-274l-143 365h-731l-144 -365h-270zM817 1188l-235 -594h551l-234 594h-82
z" />
    <glyph glyph-name="abreve" unicode="&#x103;" horiz-adv-x="1282" 
d="M649 1292q-179 0 -282 77t-103 222q0 45 12 101h201q-6 -37 -6 -64q0 -149 178 -149t178 147q0 33 -8 66h203q10 -62 10 -103q0 -144 -102.5 -220.5t-280.5 -76.5zM485 -31q-179 0 -275.5 83.5t-96.5 217.5q0 127 88 215q152 156 667 181v41q0 206 -231 206
q-217 0 -432 -157h-2v237q221 135 467 135q224 0 336 -113t112 -319v-696h-231l-6 147q-160 -178 -396 -178zM541 156q97 0 183.5 40.5t143.5 100.5v209q-377 -27 -471 -121q-39 -39 -39 -94q0 -62 49.5 -98.5t133.5 -36.5z" />
    <glyph glyph-name="Aogonek" unicode="&#x104;" horiz-adv-x="1718" 
d="M78 0l571 1434h424l567 -1434h-2l-112 -109q-90 -87 -121 -127t-31 -79q0 -43 35.5 -67t103.5 -24q81 0 170 44v-191q-107 -39 -219 -39q-75 0 -133.5 15t-92.5 38t-56 55t-29.5 62.5t-7.5 63.5q0 83 54 161.5t169 178.5l4 2l-149 381h-731l-144 -365h-270zM817 1188
l-235 -594h553l-234 594h-84z" />
    <glyph glyph-name="aogonek" unicode="&#x105;" horiz-adv-x="1282" 
d="M485 -31q-179 0 -275.5 83.5t-96.5 217.5q0 127 88 215q152 156 667 181v41q0 206 -231 206q-217 0 -432 -157h-2v237q221 135 467 135q224 0 336 -113t112 -319v-696h-2l-112 -109q-90 -87 -121 -127t-31 -79q0 -43 35.5 -67t103.5 -24q81 0 170 44v-191
q-107 -39 -219 -39q-75 0 -133.5 15t-92.5 38t-56 55t-29.5 62.5t-7.5 63.5q0 83 54 161.5t169 178.5l39 34l-4 129q-161 -176 -396 -176zM541 156q97 0 183.5 40.5t143.5 100.5v209q-377 -27 -471 -121q-39 -39 -39 -94q0 -62 49.5 -98.5t133.5 -36.5z" />
    <glyph glyph-name="Cacute" unicode="&#x106;" horiz-adv-x="1615" 
d="M743 1645l252 335h328v-12l-346 -323h-234zM911 -31q-157 0 -286 39t-219 107t-151.5 162t-90.5 203t-29 231q0 153 53 288t152 239.5t253.5 165t344.5 60.5q161 0 298 -49t234 -123v-268h-2q-70 48 -119 77t-118.5 62t-143.5 48.5t-155 15.5q-243 0 -384.5 -144.5
t-141.5 -369.5q0 -146 58.5 -259t178 -180t285.5 -67q158 0 286.5 51t253.5 145h2v-268q-95 -69 -239.5 -117.5t-319.5 -48.5z" />
    <glyph glyph-name="cacute" unicode="&#x107;" horiz-adv-x="1228" 
d="M530 1309l252 336h328v-13l-346 -323h-234zM719 -31q-270 0 -440 155.5t-170 414.5q0 124 46.5 233t127.5 187t196 123.5t246 45.5q223 0 381 -114v-240h-2q-184 137 -369 137q-166 0 -270.5 -103.5t-104.5 -262.5q0 -162 104 -259.5t269 -97.5q188 0 371 136h2v-240
q-169 -115 -387 -115z" />
    <glyph glyph-name="Cdotaccent" unicode="&#x10a;" horiz-adv-x="1615" 
d="M909 1634q-74 0 -119 44t-45 106v2q0 62 44.5 104.5t117.5 42.5q76 0 121 -42.5t45 -104.5v-2q0 -62 -45 -106t-119 -44zM911 -31q-157 0 -286 39t-219 107t-151.5 162t-90.5 203t-29 231q0 153 53 288t152 239.5t253.5 165t344.5 60.5q161 0 298 -49t234 -123v-268h-2
q-70 48 -119 77t-118.5 62t-143.5 48.5t-155 15.5q-243 0 -384.5 -144.5t-141.5 -369.5q0 -146 58.5 -259t178 -180t285.5 -67q158 0 286.5 51t253.5 145h2v-268q-95 -69 -239.5 -117.5t-319.5 -48.5z" />
    <glyph glyph-name="cdotaccent" unicode="&#x10b;" horiz-adv-x="1228" 
d="M694 1298q-74 0 -119 44t-45 106v2q0 62 44.5 104.5t117.5 42.5q76 0 121 -42.5t45 -104.5v-2q0 -62 -45 -106t-119 -44zM719 -31q-270 0 -440 155.5t-170 414.5q0 124 46.5 233t127.5 187t196 123.5t246 45.5q223 0 381 -114v-240h-2q-184 137 -369 137
q-166 0 -270.5 -103.5t-104.5 -262.5q0 -162 104 -259.5t269 -97.5q188 0 371 136h2v-240q-169 -115 -387 -115z" />
    <glyph glyph-name="Ccaron" unicode="&#x10c;" horiz-adv-x="1615" 
d="M1356 2007l-283 -362h-332l-282 362h258l151 -192h78l152 192h258zM911 -31q-157 0 -286 39t-219 107t-151.5 162t-90.5 203t-29 231q0 153 53 288t152 239.5t253.5 165t344.5 60.5q161 0 298 -49t234 -123v-268h-2q-70 48 -119 77t-118.5 62t-143.5 48.5t-155 15.5
q-243 0 -384.5 -144.5t-141.5 -369.5q0 -146 58.5 -259t178 -180t285.5 -67q158 0 286.5 51t253.5 145h2v-268q-95 -69 -239.5 -117.5t-319.5 -48.5z" />
    <glyph glyph-name="ccaron" unicode="&#x10d;" horiz-adv-x="1228" 
d="M1143 1671l-283 -362h-332l-282 362h258l151 -192h78l152 192h258zM719 -31q-270 0 -440 155.5t-170 414.5q0 124 46.5 233t127.5 187t196 123.5t246 45.5q223 0 381 -114v-240h-2q-184 137 -369 137q-166 0 -270.5 -103.5t-104.5 -262.5q0 -162 104 -259.5t269 -97.5
q188 0 371 136h2v-240q-169 -115 -387 -115z" />
    <glyph glyph-name="Dcaron" unicode="&#x10e;" horiz-adv-x="1765" 
d="M1307 1976l-283 -362h-332l-282 362h258l151 -192h78l152 192h258zM225 0v1434h682q341 0 531 -189t190 -526q0 -336 -190.5 -527.5t-530.5 -191.5h-682zM487 238h418q221 0 338 119.5t117 357.5q0 239 -117 360t-338 121h-418v-958z" />
    <glyph glyph-name="dcaron" unicode="&#x10f;" horiz-adv-x="1423" 
d="M1243 1544v-1544h-244l-2 145q-154 -176 -383 -176q-104 0 -195.5 38t-160.5 108t-109 177t-40 238q0 127 45.5 238.5t124.5 190t189 124t234 45.5q163 0 291 -75v491h250zM1421 1186v358h265v-24l-121 -334h-144zM723 915q-165 0 -264 -102.5t-99 -267.5
q0 -176 93.5 -269.5t242.5 -93.5q82 0 161 34.5t136 88.5v512q-125 98 -270 98z" />
    <glyph glyph-name="Dcroat" unicode="&#x110;" horiz-adv-x="1822" 
d="M283 0v618h-205l18 201h187v615h682q342 0 531.5 -188.5t189.5 -526.5q0 -336 -190 -527.5t-531 -191.5h-682zM545 238h418q221 0 337.5 119t116.5 358t-116.5 360t-337.5 121h-418v-377h452v-201h-452v-380z" />
    <glyph glyph-name="dcroat" unicode="&#x111;" horiz-adv-x="1445" 
d="M1436 1206h-193v-1206h-244l-2 145q-154 -176 -383 -176q-218 0 -361.5 145t-143.5 382q0 159 78.5 289.5t215 205t302.5 74.5q156 0 288 -74v215h-381v164h381v174h250v-174h182zM725 852q-164 0 -264.5 -96.5t-100.5 -247.5t93 -238.5t245 -87.5q83 0 159.5 33.5
t135.5 89.5v451q-126 96 -268 96z" />
    <glyph glyph-name="Emacron" unicode="&#x112;" horiz-adv-x="1572" 
d="M446 1647v192h771v-192h-771zM225 0v1434h1178l8 -238h-926v-336h754v-235h-754v-387h959l-10 -238h-1209z" />
    <glyph glyph-name="emacron" unicode="&#x113;" horiz-adv-x="1323" 
d="M309 1341v193h770v-193h-770zM690 1128q106 0 193.5 -29t149 -80.5t104 -123t62.5 -155.5t20 -179q0 -35 -7 -82h-854q17 -144 114 -221.5t263 -77.5q216 0 418 127h2v-223q-191 -115 -428 -115q-152 0 -271.5 42t-194.5 117t-113.5 175.5t-38.5 220.5q0 262 160 433
t421 171zM684 924q-125 0 -207.5 -73t-109.5 -202h614q-9 124 -86 199.5t-211 75.5z" />
    <glyph glyph-name="Ebreve" unicode="&#x114;" horiz-adv-x="1572" 
d="M831 1597q-179 0 -282 77t-103 222q0 41 13 101h200q-6 -38 -6 -64q0 -149 178 -149q179 0 179 147q0 29 -9 66h203q10 -62 10 -103q0 -144 -102.5 -220.5t-280.5 -76.5zM225 0v1434h1178l8 -238h-926v-336h754v-235h-754v-387h959l-10 -238h-1209z" />
    <glyph glyph-name="ebreve" unicode="&#x115;" horiz-adv-x="1323" 
d="M694 1292q-179 0 -282 77t-103 222q0 41 13 101h200q-6 -37 -6 -64q0 -149 178 -149t178 147q0 33 -8 66h203q10 -62 10 -103q0 -144 -102.5 -220.5t-280.5 -76.5zM690 1128q106 0 193.5 -29t149 -80.5t104 -123t62.5 -155.5t20 -179q0 -35 -7 -82h-854
q17 -144 114 -221.5t263 -77.5q216 0 418 127h2v-223q-191 -115 -428 -115q-152 0 -271.5 42t-194.5 117t-113.5 175.5t-38.5 220.5q0 262 160 433t421 171zM684 924q-125 0 -207.5 -73t-109.5 -202h614q-9 124 -86 199.5t-211 75.5z" />
    <glyph glyph-name="Edotaccent" unicode="&#x116;" horiz-adv-x="1572" 
d="M831 1604q-74 0 -118.5 43.5t-44.5 105.5v2q0 62 44 105t117 43q76 0 121 -43t45 -105v-2q0 -62 -45 -105.5t-119 -43.5zM225 0v1434h1178l8 -238h-926v-336h754v-235h-754v-387h959l-10 -238h-1209z" />
    <glyph glyph-name="edotaccent" unicode="&#x117;" horiz-adv-x="1323" 
d="M694 1298q-74 0 -119 44t-45 106v2q0 62 44.5 104.5t117.5 42.5q76 0 121 -42.5t45 -104.5v-2q0 -62 -45 -106t-119 -44zM690 1128q106 0 193.5 -29t149 -80.5t104 -123t62.5 -155.5t20 -179q0 -35 -7 -82h-854q17 -144 114 -221.5t263 -77.5q216 0 418 127h2v-223
q-191 -115 -428 -115q-152 0 -271.5 42t-194.5 117t-113.5 175.5t-38.5 220.5q0 262 160 433t421 171zM684 924q-125 0 -207.5 -73t-109.5 -202h614q-9 124 -86 199.5t-211 75.5z" />
    <glyph glyph-name="Eogonek" unicode="&#x118;" horiz-adv-x="1572" 
d="M225 0v1434h1178l8 -238h-926v-336h754v-235h-754v-387h959l-10 -238l-113 -109q-90 -87 -121 -127t-31 -79q0 -43 36 -67t104 -24q81 0 170 44v-191q-107 -39 -219 -39q-93 0 -159.5 21.5t-99.5 58t-47 74t-14 80.5q0 83 54 161.5t169 178.5l21 18h-959z" />
    <glyph glyph-name="eogonek" unicode="&#x119;" horiz-adv-x="1323" 
d="M727 -31q-152 0 -271.5 42t-194.5 117t-113.5 175.5t-38.5 220.5q0 262 160 433t421 171q106 0 193.5 -29t149 -80.5t104 -123t62.5 -155.5t20 -179q0 -35 -7 -82h-854q17 -144 114 -221.5t263 -77.5q216 0 418 127h2v-223l-92 -113q-118 -136 -154.5 -196t-36.5 -115
q0 -92 140 -92q81 0 168 43v-191q-104 -38 -219 -38q-75 0 -133 14.5t-92.5 37.5t-56.5 55t-30 62.5t-8 63.5q0 48 15.5 91.5t52 91.5t72.5 86t100 100q-73 -15 -154 -15zM684 924q-125 0 -207.5 -73t-109.5 -202h614q-9 124 -86 199.5t-211 75.5z" />
    <glyph glyph-name="Ecaron" unicode="&#x11a;" horiz-adv-x="1572" 
d="M1280 1976l-283 -362h-331l-283 362h258l152 -192h77l152 192h258zM225 0v1434h1178l8 -238h-926v-336h754v-235h-754v-387h959l-10 -238h-1209z" />
    <glyph glyph-name="ecaron" unicode="&#x11b;" horiz-adv-x="1323" 
d="M1143 1671l-283 -362h-332l-282 362h258l151 -192h78l152 192h258zM690 1128q106 0 193.5 -29t149 -80.5t104 -123t62.5 -155.5t20 -179q0 -35 -7 -82h-854q17 -144 114 -221.5t263 -77.5q216 0 418 127h2v-223q-191 -115 -428 -115q-152 0 -271.5 42t-194.5 117
t-113.5 175.5t-38.5 220.5q0 262 160 433t421 171zM684 924q-125 0 -207.5 -73t-109.5 -202h614q-9 124 -86 199.5t-211 75.5z" />
    <glyph glyph-name="Gbreve" unicode="&#x11e;" horiz-adv-x="1773" 
d="M897 1628q-179 0 -282 77t-103 222q0 45 12 101h201q-6 -38 -6 -64q0 -149 178 -149t178 147q0 33 -8 66h203q10 -62 10 -103q0 -144 -102.5 -220.5t-280.5 -76.5zM911 -35q-181 0 -329 56.5t-245 155.5t-149.5 232.5t-52.5 288.5q0 156 55.5 294.5t157 243.5t257 166.5
t343.5 61.5q159 0 304.5 -45.5t242.5 -122.5v-266h-2q-128 94 -260 145.5t-287 51.5q-252 0 -396 -145.5t-144 -381.5q0 -222 136.5 -360.5t381.5 -138.5q212 0 342 103.5t137 285.5h-549v219h809q4 -58 4 -109q-1 -152 -42.5 -276.5t-112 -208.5t-167.5 -141t-205.5 -83
t-228.5 -26z" />
    <glyph glyph-name="gbreve" unicode="&#x11f;" horiz-adv-x="1247" 
d="M594 1292q-179 0 -282 77t-103 222q0 45 12 101h201q-6 -37 -6 -64q0 -149 178 -149t178 147q0 33 -8 66h203q10 -62 10 -103q0 -144 -102.5 -220.5t-280.5 -76.5zM625 350q-55 0 -105 6l-24 -139q381 -28 552 -105.5t171 -222.5q0 -58 -33 -112.5t-99.5 -102t-182.5 -76
t-267 -28.5q-277 0 -424 76t-147 204q0 162 227 259l59 290q-112 49 -167.5 136t-55.5 194q0 78 31.5 149t91.5 127t157.5 89.5t219.5 33.5q98 0 178 -22l117 178h274v-2l-227 -256q70 -49 108.5 -124.5t38.5 -162.5q0 -78 -31.5 -147.5t-91 -124t-155 -86t-215.5 -31.5z
M625 528q115 0 186.5 57t71.5 156q0 95 -70.5 152t-183.5 57q-116 0 -188 -59.5t-72 -155.5q0 -98 70 -152.5t186 -54.5zM657 -254q153 0 242.5 36.5t89.5 90.5q0 135 -608 162q-109 -62 -109 -133q0 -49 53 -85t139 -53.5t193 -17.5z" />
    <glyph glyph-name="Gdotaccent" unicode="&#x120;" horiz-adv-x="1773" 
d="M897 1634q-74 0 -119 44t-45 106v2q0 62 44.5 104.5t117.5 42.5q76 0 121 -42.5t45 -104.5v-2q0 -62 -45 -106t-119 -44zM911 -35q-181 0 -329 56.5t-245 155.5t-149.5 232.5t-52.5 288.5q0 156 55.5 294.5t157 243.5t257 166.5t343.5 61.5q159 0 304.5 -45.5
t242.5 -122.5v-266h-2q-128 94 -260 145.5t-287 51.5q-252 0 -396 -145.5t-144 -381.5q0 -222 136.5 -360.5t381.5 -138.5q212 0 342 103.5t137 285.5h-549v219h809q4 -58 4 -109q-1 -152 -42.5 -276.5t-112 -208.5t-167.5 -141t-205.5 -83t-228.5 -26z" />
    <glyph glyph-name="gdotaccent" unicode="&#x121;" horiz-adv-x="1247" 
d="M594 1298q-74 0 -119 44t-45 106v2q0 62 44.5 104.5t117.5 42.5q76 0 121 -42.5t45 -104.5v-2q0 -62 -45 -106t-119 -44zM625 350q-55 0 -105 6l-24 -139q381 -28 552 -105.5t171 -222.5q0 -58 -33 -112.5t-99.5 -102t-182.5 -76t-267 -28.5q-277 0 -424 76t-147 204
q0 162 227 259l59 290q-112 49 -167.5 136t-55.5 194q0 78 31.5 149t91.5 127t157.5 89.5t219.5 33.5q98 0 178 -22l117 178h274v-2l-227 -256q70 -49 108.5 -124.5t38.5 -162.5q0 -78 -31.5 -147.5t-91 -124t-155 -86t-215.5 -31.5zM625 528q115 0 186.5 57t71.5 156
q0 95 -70.5 152t-183.5 57q-116 0 -188 -59.5t-72 -155.5q0 -98 70 -152.5t186 -54.5zM657 -254q153 0 242.5 36.5t89.5 90.5q0 135 -608 162q-109 -62 -109 -133q0 -49 53 -85t139 -53.5t193 -17.5z" />
    <glyph glyph-name="uni0122" unicode="&#x122;" horiz-adv-x="1773" 
d="M911 -35q-181 0 -329 56.5t-245 155.5t-149.5 232.5t-52.5 288.5q0 156 55.5 294.5t157 243.5t257 166.5t343.5 61.5q159 0 304.5 -45.5t242.5 -122.5v-266h-2q-128 94 -260 145.5t-287 51.5q-252 0 -396 -145.5t-144 -381.5q0 -222 136.5 -360.5t381.5 -138.5
q212 0 342 103.5t137 285.5h-549v219h809q4 -58 4 -109q-1 -152 -42.5 -276.5t-112 -208.5t-167.5 -141t-205.5 -83t-228.5 -26zM666 -651l131 420h286v-25l-260 -395h-157z" />
    <glyph glyph-name="uni0123" unicode="&#x123;" horiz-adv-x="1247" 
d="M862 1720l-131 -420h-287v25l261 395h157zM625 350q-55 0 -105 6l-24 -139q381 -28 552 -105.5t171 -222.5q0 -58 -33 -112.5t-99.5 -102t-182.5 -76t-267 -28.5q-277 0 -424 76t-147 204q0 162 227 259l59 290q-112 49 -167.5 136t-55.5 194q0 78 31.5 149t91.5 127
t157.5 89.5t219.5 33.5q98 0 178 -22l117 178h274v-2l-227 -256q70 -49 108.5 -124.5t38.5 -162.5q0 -78 -31.5 -147.5t-91 -124t-155 -86t-215.5 -31.5zM625 528q115 0 186.5 57t71.5 156q0 95 -70.5 152t-183.5 57q-116 0 -188 -59.5t-72 -155.5q0 -98 70 -152.5
t186 -54.5zM657 -254q153 0 242.5 36.5t89.5 90.5q0 135 -608 162q-109 -62 -109 -133q0 -49 53 -85t139 -53.5t193 -17.5z" />
    <glyph glyph-name="Hbar" unicode="&#x126;" horiz-adv-x="1908" 
d="M283 0v1022h-205l10 201h195v211h262v-217h819v217h262v-211h195l10 -201h-205v-1022h-262v553h-819v-553h-262zM545 795h819v235h-819v-235z" />
    <glyph glyph-name="hbar" unicode="&#x127;" horiz-adv-x="1411" 
d="M203 0v1206h-193l10 164h183v174h248v-174h380v-164h-380v-348q91 100 189 156.5t224 56.5q177 0 279 -102t102 -305v-664h-252v610q0 240 -217 240q-161 0 -323 -166v-684h-250z" />
    <glyph glyph-name="Imacron" unicode="&#x12a;" horiz-adv-x="722" 
d="M-25 1647v192h770v-192h-770zM229 0v1434h263v-1434h-263z" />
    <glyph glyph-name="imacron" unicode="&#x12b;" horiz-adv-x="620" 
d="M-76 1311v192h770v-192h-770zM184 0v1098h250v-1098h-250z" />
    <glyph glyph-name="Ibreve" unicode="&#x12c;" horiz-adv-x="722" 
d="M360 1597q-179 0 -282 77t-103 222q0 41 13 101h200q-6 -38 -6 -64q0 -149 178 -149q179 0 179 147q0 29 -9 66h203q10 -62 10 -103q0 -144 -102.5 -220.5t-280.5 -76.5zM229 0v1434h263v-1434h-263z" />
    <glyph glyph-name="ibreve" unicode="&#x12d;" horiz-adv-x="620" 
d="M309 1262q-179 0 -282 77t-103 222q0 40 13 100h200q-6 -37 -6 -64q0 -149 178 -149t178 147q0 33 -8 66h203q10 -62 10 -102q0 -144 -102.5 -220.5t-280.5 -76.5zM184 0v1098h250v-1098h-250z" />
    <glyph glyph-name="Iogonek" unicode="&#x12e;" horiz-adv-x="722" 
d="M537 -553q-107 -39 -220 -39q-75 0 -133.5 15t-92.5 38t-56 55t-29.5 62.5t-7.5 63.5q0 83 54 161.5t169 178.5l8 8v1444h263v-1434l-113 -109q-90 -87 -121 -127t-31 -79q0 -43 36 -67t104 -24q81 0 170 44v-191z" />
    <glyph glyph-name="iogonek" unicode="&#x12f;" horiz-adv-x="620" 
d="M311 1268q-75 0 -120.5 43.5t-45.5 105.5v2q0 62 45 105t119 43t119 -43t45 -105v-2q0 -62 -44.5 -105.5t-117.5 -43.5zM479 -553q-107 -39 -219 -39q-75 0 -133.5 15t-92.5 38t-56 55t-29.5 62.5t-7.5 63.5q0 83 54 161.5t169 178.5l20 18v1098h250v-1098l-112 -109
q-90 -87 -121 -127t-31 -79q0 -43 35.5 -67t103.5 -24q81 0 170 44v-191z" />
    <glyph glyph-name="Idotaccent" unicode="&#x130;" horiz-adv-x="722" 
d="M360 1604q-74 0 -118.5 43.5t-44.5 105.5v2q0 62 44 105t117 43q76 0 121 -43t45 -105v-2q0 -62 -45 -105.5t-119 -43.5zM229 0v1434h263v-1434h-263z" />
    <glyph glyph-name="dotlessi" unicode="&#x131;" horiz-adv-x="620" 
d="M184 0v1098h250v-1098h-250z" />
    <glyph glyph-name="uni0136" unicode="&#x136;" horiz-adv-x="1671" 
d="M225 0v1434h262v-584h281l510 584h303v-2l-602 -689l639 -741v-2h-320l-538 616h-273v-616h-262zM578 -563l131 420h286v-25l-260 -395h-157z" />
    <glyph glyph-name="uni0137" unicode="&#x137;" horiz-adv-x="1300" 
d="M180 0v1544h250v-864h207l313 418h287v-2l-393 -516l424 -578v-2h-295l-338 463h-205v-463h-250zM412 -571l131 419h286v-24l-260 -395h-157z" />
    <glyph glyph-name="Lacute" unicode="&#x139;" horiz-adv-x="1429" 
d="M240 1614l252 336h327v-13l-346 -323h-233zM225 0v1434h262v-1192h850l-8 -242h-1104z" />
    <glyph glyph-name="lacute" unicode="&#x13a;" horiz-adv-x="620" 
d="M197 1724l252 336h327v-12l-346 -324h-233zM184 0v1544h250v-1544h-250z" />
    <glyph glyph-name="uni013B" unicode="&#x13b;" horiz-adv-x="1429" 
d="M225 0v1434h262v-1192h850l-8 -242h-1104zM520 -616l131 419h287v-24l-260 -395h-158z" />
    <glyph glyph-name="uni013C" unicode="&#x13c;" horiz-adv-x="620" 
d="M184 0v1544h250v-1544h-250zM31 -616l131 419h287v-24l-261 -395h-157z" />
    <glyph glyph-name="Lcaron" unicode="&#x13d;" horiz-adv-x="1429" 
d="M225 0v1434h262v-1192h850l-8 -242h-1104zM707 1075v359h264v-25l-121 -334h-143z" />
    <glyph glyph-name="lcaron" unicode="&#x13e;" horiz-adv-x="620" 
d="M184 0v1544h250v-1544h-250zM612 1186v358h265v-24l-121 -334h-144z" />
    <glyph glyph-name="Ldot" unicode="&#x13f;" horiz-adv-x="1431" 
d="M225 0v1434h262v-1192h850l-8 -242h-1104zM1071 713q-74 0 -119 44t-45 105v2q0 62 45 106t119 44t119 -44t45 -106v-2q0 -61 -45 -105t-119 -44z" />
    <glyph glyph-name="ldot" unicode="&#x140;" horiz-adv-x="954" 
d="M184 0v1544h250v-1544h-250zM788 635q-75 0 -120 44t-45 105v2q0 64 44.5 107t118.5 43t119 -43t45 -107v-2q0 -61 -45 -105t-117 -44z" />
    <glyph glyph-name="Lslash" unicode="&#x141;" horiz-adv-x="1476" 
d="M270 0v473l-192 -102v241l192 103v719h262v-580l496 264v-241l-496 -267v-368h852l-10 -242h-1104z" />
    <glyph glyph-name="lslash" unicode="&#x142;" horiz-adv-x="821" 
d="M285 0v608l-236 -137v199l236 139v735h250v-590l237 140v-199l-237 -139v-756h-250z" />
    <glyph glyph-name="Nacute" unicode="&#x143;" horiz-adv-x="1802" 
d="M774 1559l252 335h328v-12l-346 -323h-234zM225 0v1434h299l785 -1039h12v1039h256v-1434h-283l-800 1065h-15v-1065h-254z" />
    <glyph glyph-name="nacute" unicode="&#x144;" horiz-adv-x="1388" 
d="M545 1309l252 336h327v-13l-346 -323h-233zM180 0v1098h246v-180q89 99 189 154.5t225 55.5q177 0 279 -102t102 -305v-721h-250v670q0 237 -217 237q-162 0 -324 -166v-741h-250z" />
    <glyph glyph-name="uni0145" unicode="&#x145;" horiz-adv-x="1802" 
d="M225 0v1434h299l785 -1039h12v1039h256v-1434h-283l-800 1065h-15v-1065h-254zM618 -561l132 420h286v-25l-260 -395h-158z" />
    <glyph glyph-name="uni0146" unicode="&#x146;" horiz-adv-x="1388" 
d="M180 0v1098h246v-180q89 99 189 154.5t225 55.5q177 0 279 -102t102 -305v-721h-250v670q0 237 -217 237q-162 0 -324 -166v-741h-250zM446 -580l132 420h286v-24l-260 -396h-158z" />
    <glyph glyph-name="Ncaron" unicode="&#x147;" horiz-adv-x="1802" 
d="M1386 1921l-282 -362h-332l-283 362h259l151 -192h78l151 192h258zM225 0v1434h299l785 -1039h12v1039h256v-1434h-283l-800 1065h-15v-1065h-254z" />
    <glyph glyph-name="ncaron" unicode="&#x148;" horiz-adv-x="1388" 
d="M1157 1671l-283 -362h-331l-283 362h258l152 -192h78l151 192h258zM180 0v1098h246v-180q89 99 189 154.5t225 55.5q177 0 279 -102t102 -305v-721h-250v670q0 237 -217 237q-162 0 -324 -166v-741h-250z" />
    <glyph glyph-name="Omacron" unicode="&#x14c;" horiz-adv-x="1843" 
d="M537 1681v193h770v-193h-770zM922 -35q-360 0 -573.5 204.5t-213.5 547.5q0 342 213.5 546.5t573.5 204.5t572 -204t212 -547q0 -342 -212 -547t-572 -205zM920 203q243 0 380.5 137.5t137.5 376.5t-135.5 376.5t-378.5 137.5t-380.5 -137.5t-137.5 -376.5t135.5 -376.5
t378.5 -137.5z" />
    <glyph glyph-name="omacron" unicode="&#x14d;" horiz-adv-x="1415" 
d="M322 1341v193h770v-193h-770zM707 -31q-183 0 -320.5 78t-207.5 208.5t-70 293.5q0 121 41.5 227t117.5 184t189.5 123t251.5 45q137 0 251 -45t189.5 -123t116.5 -183.5t41 -227.5q0 -121 -41.5 -227t-117.5 -184.5t-190 -123.5t-251 -45zM709 180q157 0 250.5 103
t93.5 266t-93.5 266t-252.5 103q-158 0 -252.5 -103.5t-94.5 -265.5t95 -265.5t254 -103.5z" />
    <glyph glyph-name="Obreve" unicode="&#x14e;" horiz-adv-x="1843" 
d="M922 1632q-179 0 -282 77t-103 222q0 45 12 101h201q-7 -44 -7 -64q0 -149 179 -149q178 0 178 147q0 33 -8 66h202q11 -68 11 -103q0 -144 -102.5 -220.5t-280.5 -76.5zM922 -35q-360 0 -573.5 204.5t-213.5 547.5q0 342 213.5 546.5t573.5 204.5t572 -204t212 -547
q0 -342 -212 -547t-572 -205zM920 203q243 0 380.5 137.5t137.5 376.5t-135.5 376.5t-378.5 137.5t-380.5 -137.5t-137.5 -376.5t135.5 -376.5t378.5 -137.5z" />
    <glyph glyph-name="obreve" unicode="&#x14f;" horiz-adv-x="1415" 
d="M707 1292q-179 0 -282 77t-103 222q0 45 12 101h201q-7 -44 -7 -64q0 -149 179 -149q178 0 178 147q0 33 -8 66h202q11 -68 11 -103q0 -144 -102.5 -220.5t-280.5 -76.5zM707 -31q-183 0 -320.5 78t-207.5 208.5t-70 293.5q0 121 41.5 227t117.5 184t189.5 123t251.5 45
q137 0 251 -45t189.5 -123t116.5 -183.5t41 -227.5q0 -121 -41.5 -227t-117.5 -184.5t-190 -123.5t-251 -45zM709 180q157 0 250.5 103t93.5 266t-93.5 266t-252.5 103q-158 0 -252.5 -103.5t-94.5 -265.5t95 -265.5t254 -103.5z" />
    <glyph glyph-name="Ohungarumlaut" unicode="&#x150;" horiz-adv-x="1843" 
d="M1042 1649l228 336h286v-13l-323 -323h-191zM590 1649l227 336h287v-13l-324 -323h-190zM922 -35q-360 0 -573.5 204.5t-213.5 547.5q0 342 213.5 546.5t573.5 204.5t572 -204t212 -547q0 -342 -212 -547t-572 -205zM920 203q243 0 380.5 137.5t137.5 376.5t-135.5 376.5
t-378.5 137.5t-380.5 -137.5t-137.5 -376.5t135.5 -376.5t378.5 -137.5z" />
    <glyph glyph-name="ohungarumlaut" unicode="&#x151;" horiz-adv-x="1415" 
d="M827 1309l228 336h286v-13l-323 -323h-191zM375 1309l227 336h287v-13l-324 -323h-190zM707 -31q-183 0 -320.5 78t-207.5 208.5t-70 293.5q0 121 41.5 227t117.5 184t189.5 123t251.5 45q137 0 251 -45t189.5 -123t116.5 -183.5t41 -227.5q0 -121 -41.5 -227
t-117.5 -184.5t-190 -123.5t-251 -45zM709 180q157 0 250.5 103t93.5 266t-93.5 266t-252.5 103q-158 0 -252.5 -103.5t-94.5 -265.5t95 -265.5t254 -103.5z" />
    <glyph glyph-name="OE" unicode="&#x152;" horiz-adv-x="2627" 
d="M137 715q0 336 190.5 527.5t530.5 191.5h1600l8 -238h-926v-336h754v-235h-754v-387h959l-11 -238h-1630q-341 0 -531 189t-190 526zM1278 1196h-418q-221 0 -337.5 -119t-116.5 -358t116.5 -360t337.5 -121h418v958z" />
    <glyph glyph-name="oe" unicode="&#x153;" horiz-adv-x="2269" 
d="M2101 84q-191 -115 -430 -115q-360 0 -497 234q-146 -234 -467 -234q-183 0 -320.5 78t-207.5 208.5t-70 293.5q0 121 41.5 227t117 184t189 123t250.5 45q168 0 288 -64.5t187 -184.5q68 121 182 185t268 64q107 0 195 -29t150 -80.5t104 -123t62 -155.5t20 -179
q0 -28 -4 -82h-856q15 -144 112 -221.5t266 -77.5q216 0 418 127h2v-223zM1628 924q-126 0 -208 -73t-109 -202h614q-9 124 -86 199.5t-211 75.5zM709 180q158 0 251 103t93 266q0 164 -92.5 266.5t-253.5 102.5q-158 0 -252.5 -103.5t-94.5 -265.5t95 -265.5t254 -103.5z
" />
    <glyph glyph-name="Racute" unicode="&#x154;" horiz-adv-x="1648" 
d="M659 1614l252 336h328v-13l-346 -323h-234zM225 0v1434h748q266 0 400 -124t134 -358q0 -178 -83 -294t-244 -160l381 -498h-310l-331 451h-433v-451h-262zM487 682h478q144 0 210 70t66 188t-66 187t-210 69h-478v-514z" />
    <glyph glyph-name="racute" unicode="&#x155;" horiz-adv-x="856" 
d="M330 1303l252 335h327v-12l-346 -323h-233zM180 0v1098h246v-228q63 124 150.5 188t185.5 64q21 0 41 -2v-250q-20 4 -53 4q-115 0 -198 -46.5t-122 -137.5v-690h-250z" />
    <glyph glyph-name="uni0156" unicode="&#x156;" horiz-adv-x="1648" 
d="M225 0v1434h748q266 0 400 -124t134 -358q0 -178 -83 -294t-244 -160l381 -498h-310l-331 451h-433v-451h-262zM487 682h478q144 0 210 70t66 188t-66 187t-210 69h-478v-514zM586 -563l131 420h287v-25l-261 -395h-157z" />
    <glyph glyph-name="uni0157" unicode="&#x157;" horiz-adv-x="856" 
d="M180 0v1098h246v-228q63 124 150.5 188t185.5 64q21 0 41 -2v-250q-20 4 -53 4q-115 0 -198 -46.5t-122 -137.5v-690h-250zM29 -616l131 419h286v-24l-260 -395h-157z" />
    <glyph glyph-name="Rcaron" unicode="&#x158;" horiz-adv-x="1648" 
d="M1272 1976l-283 -362h-332l-282 362h258l151 -192h78l152 192h258zM225 0v1434h748q266 0 400 -124t134 -358q0 -178 -83 -294t-244 -160l381 -498h-310l-331 451h-433v-451h-262zM487 682h478q144 0 210 70t66 188t-66 187t-210 69h-478v-514z" />
    <glyph glyph-name="rcaron" unicode="&#x159;" horiz-adv-x="856" 
d="M942 1665l-283 -362h-331l-283 362h258l152 -192h77l152 192h258zM180 0v1098h246v-228q63 124 150.5 188t185.5 64q21 0 41 -2v-250q-20 4 -53 4q-115 0 -198 -46.5t-122 -137.5v-690h-250z" />
    <glyph glyph-name="Sacute" unicode="&#x15a;" horiz-adv-x="1523" 
d="M657 1647l252 335h328v-12l-346 -323h-234zM805 -33q-346 0 -643 152v268h2q152 -85 320.5 -132.5t322.5 -47.5q164 0 251 51t87 141q0 87 -86 128.5t-346 86.5q-67 12 -120 24t-111 30.5t-101.5 40t-84 51.5t-66 66t-41 84t-15.5 104q0 91 39 171.5t114 143.5t196.5 100
t275.5 37q139 0 282.5 -36t257.5 -101v-268h-2q-124 79 -271.5 122.5t-287.5 43.5q-161 0 -245 -50.5t-84 -136.5q0 -83 96 -126q67 -31 269 -69h1h1h1h1l1 -1h1h1h1h1h1l1 -1h1h1h1h1l1 -1h1h1h1h1q26 -5 40 -8q69 -12 121.5 -24t111.5 -30.5t102.5 -40t85 -53t67.5 -69.5
t41.5 -89t15.5 -112q0 -42 -7.5 -83t-27 -86.5t-50 -85t-79 -75.5t-110.5 -62t-149.5 -41.5t-190.5 -15.5z" />
    <glyph glyph-name="sacute" unicode="&#x15b;" horiz-adv-x="1191" 
d="M442 1309l252 336h328v-13l-346 -323h-234zM625 -31q-255 0 -482 127v228h2q106 -69 235.5 -108.5t254.5 -39.5q211 0 211 127q0 39 -21.5 63t-85 46.5t-194.5 50.5q-209 43 -302 113.5t-93 205.5q0 149 120.5 247.5t333.5 98.5q116 0 231 -31.5t191 -74.5v-227h-2
q-103 59 -222.5 94t-217.5 35q-92 0 -140.5 -33t-48.5 -88t59 -84.5t246 -71.5q215 -47 303.5 -123t88.5 -213q0 -48 -12.5 -93.5t-45.5 -91.5t-84 -80t-134.5 -55.5t-190.5 -21.5z" />
    <glyph glyph-name="Scedilla" unicode="&#x15e;" horiz-adv-x="1523" 
d="M401 -383v12l291 342q-279 18 -530 148v268h2q152 -85 320.5 -132.5t322.5 -47.5q164 0 251 51t87 141q0 87 -86 128.5t-346 86.5q-67 12 -120 24t-111 30.5t-101.5 40t-84 51.5t-66 66t-41 84t-15.5 104q0 91 39 171.5t114 143.5t196.5 100t275.5 37q139 0 282.5 -36
t257.5 -101v-268h-2q-124 79 -271.5 122.5t-287.5 43.5q-161 0 -245 -50.5t-84 -136.5q0 -83 96 -126q67 -31 269 -69h1h1h1h1l1 -1h1h1h1h1h1l1 -1h1h1h1h1l1 -1h1h1h1h1q26 -5 40 -8q69 -12 121.5 -24t111.5 -30.5t102.5 -40t85 -53t67.5 -69.5t41.5 -89t15.5 -112
q0 -55 -13 -108t-48 -110.5t-89 -102.5t-144.5 -79t-206.5 -45l-197 -354h-320z" />
    <glyph glyph-name="scedilla" unicode="&#x15f;" horiz-adv-x="1191" 
d="M252 -383v12l293 344q-213 16 -402 123v228h2q106 -69 235.5 -108.5t254.5 -39.5q211 0 211 127q0 39 -21.5 63t-85 46.5t-194.5 50.5q-209 43 -302 113.5t-93 205.5q0 149 120.5 247.5t333.5 98.5q116 0 231 -31.5t191 -74.5v-227h-2q-103 59 -222.5 94t-217.5 35
q-92 0 -140.5 -33t-48.5 -88t59 -84.5t246 -71.5q215 -47 303.5 -123t88.5 -213q0 -51 -15.5 -99t-50 -95.5t-99 -83t-153.5 -51.5l-203 -365h-319z" />
    <glyph glyph-name="Scaron" unicode="&#x160;" horiz-adv-x="1523" 
d="M1270 2009l-283 -362h-332l-282 362h258l151 -192h78l152 192h258zM805 -33q-346 0 -643 152v268h2q152 -85 320.5 -132.5t322.5 -47.5q164 0 251 51t87 141q0 87 -86 128.5t-346 86.5q-67 12 -120 24t-111 30.5t-101.5 40t-84 51.5t-66 66t-41 84t-15.5 104
q0 91 39 171.5t114 143.5t196.5 100t275.5 37q139 0 282.5 -36t257.5 -101v-268h-2q-124 79 -271.5 122.5t-287.5 43.5q-161 0 -245 -50.5t-84 -136.5q0 -83 96 -126q67 -31 269 -69h1h1h1h1l1 -1h1h1h1h1h1l1 -1h1h1h1h1l1 -1h1h1h1h1q26 -5 40 -8q69 -12 121.5 -24
t111.5 -30.5t102.5 -40t85 -53t67.5 -69.5t41.5 -89t15.5 -112q0 -42 -7.5 -83t-27 -86.5t-50 -85t-79 -75.5t-110.5 -62t-149.5 -41.5t-190.5 -15.5z" />
    <glyph glyph-name="scaron" unicode="&#x161;" horiz-adv-x="1191" 
d="M1055 1671l-283 -362h-332l-282 362h258l151 -192h78l152 192h258zM625 -31q-255 0 -482 127v228h2q106 -69 235.5 -108.5t254.5 -39.5q211 0 211 127q0 39 -21.5 63t-85 46.5t-194.5 50.5q-209 43 -302 113.5t-93 205.5q0 149 120.5 247.5t333.5 98.5q116 0 231 -31.5
t191 -74.5v-227h-2q-103 59 -222.5 94t-217.5 35q-92 0 -140.5 -33t-48.5 -88t59 -84.5t246 -71.5q215 -47 303.5 -123t88.5 -213q0 -48 -12.5 -93.5t-45.5 -91.5t-84 -80t-134.5 -55.5t-190.5 -21.5z" />
    <glyph glyph-name="uni0162" unicode="&#x162;" horiz-adv-x="1527" 
d="M633 0v1192h-547l10 242h1336l10 -242h-547v-1192h-262zM483 -616l131 419h287v-24l-260 -395h-158z" />
    <glyph glyph-name="uni0163" unicode="&#x163;" horiz-adv-x="880" 
d="M309 0v891h-252l41 207h211v256l248 26v-282h272v-207h-272v-891h-248zM154 -616l131 419h286v-24l-260 -395h-157z" />
    <glyph glyph-name="Tcaron" unicode="&#x164;" horiz-adv-x="1527" 
d="M1212 1976l-282 -362h-332l-283 362h258l152 -192h78l151 192h258zM633 0v1192h-547l10 242h1336l10 -242h-547v-1192h-262z" />
    <glyph glyph-name="tcaron" unicode="&#x165;" horiz-adv-x="880" 
d="M735 1262v358h264v-25l-120 -333h-144zM309 0v891h-252l41 207h211v256l248 26v-282h272v-207h-272v-891h-248z" />
    <glyph glyph-name="Umacron" unicode="&#x16a;" horiz-adv-x="1769" 
d="M500 1647v192h770v-192h-770zM881 -33q-149 0 -268 32.5t-210.5 100t-141.5 182t-50 269.5v883h262v-871q0 -96 32.5 -167t90.5 -110.5t129.5 -58t159.5 -18.5t159 18t129.5 57t90.5 108t32 163v879h263v-875q0 -158 -51 -274t-144.5 -184.5t-213.5 -101t-269 -32.5z" />
    <glyph glyph-name="umacron" unicode="&#x16b;" horiz-adv-x="1388" 
d="M303 1311v192h770v-192h-770zM1208 1098v-1098h-245v180q-90 -99 -189.5 -155t-224.5 -56q-177 0 -279 102.5t-102 305.5v721h250v-670q0 -238 217 -238q161 0 323 166v742h250z" />
    <glyph glyph-name="Ubreve" unicode="&#x16c;" horiz-adv-x="1769" 
d="M885 1544q-179 0 -282 77t-103 222q0 45 12 101h201q-6 -38 -6 -64q0 -149 178 -149t178 147q0 33 -8 66h202q11 -68 11 -103q0 -144 -102.5 -220.5t-280.5 -76.5zM881 -33q-149 0 -268 32.5t-210.5 100t-141.5 182t-50 269.5v883h262v-871q0 -96 32.5 -167t90.5 -110.5
t129.5 -58t159.5 -18.5t159 18t129.5 57t90.5 108t32 163v879h263v-875q0 -158 -51 -274t-144.5 -184.5t-213.5 -101t-269 -32.5z" />
    <glyph glyph-name="ubreve" unicode="&#x16d;" horiz-adv-x="1388" 
d="M688 1225q-179 0 -282 77t-103 222q0 44 12 100h201q-6 -37 -6 -63q0 -150 178 -150t178 148q0 32 -8 65h203q10 -62 10 -102q0 -144 -102.5 -220.5t-280.5 -76.5zM1208 1098v-1098h-245v180q-90 -99 -189.5 -155t-224.5 -56q-177 0 -279 102.5t-102 305.5v721h250v-670
q0 -238 217 -238q161 0 323 166v742h250z" />
    <glyph glyph-name="Uring" unicode="&#x16e;" horiz-adv-x="1769" 
d="M883 1538q-160 0 -251 78t-91 215t92 218t252 81q161 0 253.5 -79.5t92.5 -217.5q0 -135 -93.5 -215t-254.5 -80zM885 1688q77 0 122.5 39t45.5 106t-46.5 107t-123.5 40q-76 0 -123 -39.5t-47 -107.5q0 -67 47.5 -106t124.5 -39zM881 -33q-149 0 -268 32.5t-210.5 100
t-141.5 182t-50 269.5v883h262v-871q0 -96 32.5 -167t90.5 -110.5t129.5 -58t159.5 -18.5t159 18t129.5 57t90.5 108t32 163v879h263v-875q0 -158 -51 -274t-144.5 -184.5t-213.5 -101t-269 -32.5z" />
    <glyph glyph-name="uring" unicode="&#x16f;" horiz-adv-x="1388" 
d="M686 1223q-160 0 -251 78t-91 215t92 218t252 81q161 0 253.5 -79.5t92.5 -217.5q0 -135 -93.5 -215t-254.5 -80zM688 1372q77 0 122.5 39.5t45.5 106.5t-46.5 107t-123.5 40q-76 0 -123 -39.5t-47 -107.5q0 -67 47.5 -106.5t124.5 -39.5zM1208 1098v-1098h-245v180
q-90 -99 -189.5 -155t-224.5 -56q-177 0 -279 102.5t-102 305.5v721h250v-670q0 -238 217 -238q161 0 323 166v742h250z" />
    <glyph glyph-name="Uhungarumlaut" unicode="&#x170;" horiz-adv-x="1769" 
d="M997 1614l228 336h286v-13l-323 -323h-191zM545 1614l227 336h287v-13l-324 -323h-190zM881 -33q-149 0 -268 32.5t-210.5 100t-141.5 182t-50 269.5v883h262v-871q0 -96 32.5 -167t90.5 -110.5t129.5 -58t159.5 -18.5t159 18t129.5 57t90.5 108t32 163v879h263v-875
q0 -158 -51 -274t-144.5 -184.5t-213.5 -101t-269 -32.5z" />
    <glyph glyph-name="uhungarumlaut" unicode="&#x171;" horiz-adv-x="1388" 
d="M807 1278l227 336h287v-12l-324 -324h-190zM354 1278l228 336h286v-12l-323 -324h-191zM1208 1098v-1098h-245v180q-90 -99 -189.5 -155t-224.5 -56q-177 0 -279 102.5t-102 305.5v721h250v-670q0 -238 217 -238q161 0 323 166v742h250z" />
    <glyph glyph-name="Uogonek" unicode="&#x172;" horiz-adv-x="1769" 
d="M1141 -565q-107 -39 -219 -39q-93 0 -159.5 21.5t-99.5 57.5t-47 73.5t-14 80.5q0 83 54 161.5t169 178.5q-137 5 -246.5 40.5t-193.5 104t-129 179.5t-45 258v883h262v-871q0 -96 32.5 -167t90.5 -110.5t129.5 -58t159.5 -18.5t159 18t129.5 57t90.5 108t32 163v879h263
v-875q0 -249 -123.5 -389t-341.5 -184l-111 -107q-89 -87 -120.5 -127.5t-31.5 -79.5q0 -43 36 -66.5t104 -23.5q83 0 170 43v-190z" />
    <glyph glyph-name="uogonek" unicode="&#x173;" horiz-adv-x="1388" 
d="M1208 1098v-1098l-112 -109q-90 -87 -121 -127t-31 -79q0 -43 35.5 -67t103.5 -24q81 0 170 44v-191q-107 -39 -219 -39q-75 0 -133.5 15t-92.5 38t-56 55t-29.5 62.5t-7.5 63.5q0 83 54 161.5t169 178.5l25 22v176q-90 -99 -189.5 -155t-224.5 -56q-177 0 -279 102.5
t-102 305.5v721h250v-670q0 -238 217 -238q161 0 323 166v742h250z" />
    <glyph glyph-name="Wcircumflex" unicode="&#x174;" horiz-adv-x="2514" 
d="M809 1614l283 362h331l283 -362h-258l-152 192h-77l-152 -192h-258zM516 0l-410 1434h277l319 -1174h41l392 1174h264l387 -1174h41l311 1174h270l-407 -1434h-381l-350 1065h-17l-352 -1065h-385z" />
    <glyph glyph-name="wcircumflex" unicode="&#x175;" horiz-adv-x="2029" 
d="M571 1278l283 362h332l282 -362h-258l-151 192h-78l-152 -192h-258zM412 0l-340 1098h264l239 -869h41l258 858h287l264 -858h41l238 869h254l-342 -1098h-354l-230 795h-33l-233 -795h-354z" />
    <glyph glyph-name="Ycircumflex" unicode="&#x176;" horiz-adv-x="1644" 
d="M373 1614l282 362h332l283 -362h-258l-152 192h-78l-151 -192h-258zM690 0v494l-645 940h307l461 -686h21l469 686h296l-647 -936v-498h-262z" />
    <glyph glyph-name="ycircumflex" unicode="&#x177;" horiz-adv-x="1284" 
d="M207 1278l282 362h332l283 -362h-258l-152 192h-78l-151 -192h-258zM395 -397l133 358l-473 1137h267l344 -854l317 854h256l-594 -1495h-250z" />
    <glyph glyph-name="Ydieresis" unicode="&#x178;" horiz-adv-x="1644" 
d="M561 1604q-70 0 -112.5 41.5t-42.5 99.5v2q0 59 42 99t111 40q71 0 113.5 -40t42.5 -99v-2q0 -58 -42.5 -99.5t-111.5 -41.5zM1083 1604q-69 0 -111 41.5t-42 99.5v2q0 59 41.5 99t111.5 40q71 0 112.5 -40t41.5 -99v-2q0 -58 -41.5 -99.5t-112.5 -41.5zM690 0v494
l-645 940h307l461 -686h21l469 686h296l-647 -936v-498h-262z" />
    <glyph glyph-name="Zacute" unicode="&#x179;" horiz-adv-x="1595" 
d="M647 1614l252 336h328v-13l-346 -323h-234zM156 0v252l944 944h-918l8 238h1256v-228l-965 -968h965v-238h-1290z" />
    <glyph glyph-name="zacute" unicode="&#x17a;" horiz-adv-x="1232" 
d="M477 1278l252 336h328v-12l-346 -324h-234zM133 0v197l660 692h-641l8 209h952v-185l-680 -704h680v-209h-979z" />
    <glyph glyph-name="Zdotaccent" unicode="&#x17b;" horiz-adv-x="1595" 
d="M811 1604q-74 0 -119 43.5t-45 105.5v2q0 62 44.5 105t117.5 43q76 0 121 -43t45 -105v-2q0 -62 -45 -105.5t-119 -43.5zM156 0v252l944 944h-918l8 238h1256v-228l-965 -968h965v-238h-1290z" />
    <glyph glyph-name="zdotaccent" unicode="&#x17c;" horiz-adv-x="1232" 
d="M641 1268q-74 0 -119 43.5t-45 105.5v2q0 62 44.5 105t117.5 43q76 0 121 -43t45 -105v-2q0 -62 -45 -105.5t-119 -43.5zM133 0v197l660 692h-641l8 209h952v-185l-680 -704h680v-209h-979z" />
    <glyph glyph-name="Zcaron" unicode="&#x17d;" horiz-adv-x="1595" 
d="M1260 1976l-283 -362h-332l-283 362h259l151 -192h78l151 192h259zM156 0v252l944 944h-918l8 238h1256v-228l-965 -968h965v-238h-1290z" />
    <glyph glyph-name="zcaron" unicode="&#x17e;" horiz-adv-x="1232" 
d="M1090 1640l-283 -362h-332l-282 362h258l151 -192h78l151 192h259zM133 0v197l660 692h-641l8 209h952v-185l-680 -704h680v-209h-979z" />
    <glyph glyph-name="Aringacute" unicode="&#x1fa;" horiz-adv-x="1718" 
d="M745 2322l252 336h328v-12l-346 -324h-234zM858 1597q-160 0 -251 78t-91 215t92 218t252 81q161 0 253.5 -79.5t92.5 -217.5q0 -135 -93.5 -215t-254.5 -80zM860 1747q77 0 122.5 39t45.5 106t-46.5 107.5t-123.5 40.5q-76 0 -123 -40t-47 -108q0 -67 47.5 -106
t124.5 -39zM78 0l569 1434h426l567 -1434h-274l-143 365h-731l-144 -365h-270zM817 1188l-235 -594h551l-234 594h-82z" />
    <glyph glyph-name="aringacute" unicode="&#x1fb;" horiz-adv-x="1282" 
d="M494 2017l251 336h328v-12l-346 -324h-233zM647 1292q-160 0 -251 78t-91 215t92 218t252 81q161 0 253.5 -79.5t92.5 -217.5q0 -135 -93.5 -215t-254.5 -80zM649 1442q77 0 122.5 39t45.5 106t-46.5 107.5t-123.5 40.5q-76 0 -123 -40t-47 -108q0 -67 47.5 -106
t124.5 -39zM485 -31q-179 0 -275.5 83.5t-96.5 217.5q0 127 88 215q152 156 667 181v41q0 206 -231 206q-217 0 -432 -157h-2v237q221 135 467 135q224 0 336 -113t112 -319v-696h-231l-6 147q-160 -178 -396 -178zM541 156q97 0 183.5 40.5t143.5 100.5v209
q-377 -27 -471 -121q-39 -39 -39 -94q0 -62 49.5 -98.5t133.5 -36.5z" />
    <glyph glyph-name="AEacute" unicode="&#x1fc;" horiz-adv-x="2609" 
d="M1292 1614l252 336h328v-13l-346 -323h-234zM1262 0v365h-676l-226 -365h-305l910 1434h1474l8 -238h-925v-336h753v-235h-753v-387h958l-10 -238h-1208zM1102 1188l-373 -594h533v594h-160z" />
    <glyph glyph-name="aeacute" unicode="&#x1fd;" horiz-adv-x="2084" 
d="M918 1278l251 336h328v-12l-346 -324h-233zM1917 84q-191 -115 -428 -115q-357 0 -512 215q-111 -114 -228.5 -164.5t-259.5 -50.5q-184 0 -280 82.5t-96 218.5q0 127 88 215q159 155 673 183v43q0 98 -60 150t-177 52q-217 0 -432 -157h-2v237q221 135 459 135
q144 0 241.5 -48.5t140.5 -139.5q63 87 169.5 137.5t236.5 50.5q106 0 194 -29t149.5 -80.5t104 -122.5t62.5 -154.5t20 -178.5q0 -43 -6 -80h-856q15 -147 113.5 -225t265.5 -78q211 0 418 127h2v-223zM1444 924q-122 0 -206 -73t-110 -200h613q-8 123 -86 198t-211 75z
M358 291q0 -63 49 -99t134 -36q206 0 368 151q-33 87 -39 197q-206 -14 -315.5 -43.5t-157.5 -75.5q-39 -39 -39 -94z" />
    <glyph glyph-name="Oslashacute" unicode="&#x1fe;" horiz-adv-x="1843" 
d="M758 1649l252 336h327v-13l-346 -323h-233zM102 -125l240 299q-207 204 -207 543q0 342 213.5 546.5t573.5 204.5q223 0 395 -82l139 173h283l-240 -302q207 -201 207 -540q0 -342 -212 -547t-572 -205q-224 0 -396 82l-137 -172h-287zM397 717q0 -221 113 -355l666 826
q-107 49 -252 49q-248 0 -387.5 -138.5t-139.5 -381.5zM920 197q246 0 385 138.5t139 381.5q0 220 -113 354l-665 -825q107 -49 254 -49z" />
    <glyph glyph-name="oslashacute" unicode="&#x1ff;" horiz-adv-x="1415" 
d="M543 1309l252 336h327v-13l-346 -323h-233zM707 -31q-180 0 -320 78l-117 -141h-229l209 252q-141 156 -141 391q0 121 41.5 227t117.5 184t189.5 123t251.5 45q177 0 317 -75l119 139h229l-209 -252q142 -157 142 -391q0 -121 -41.5 -227t-117.5 -184.5t-190 -123.5
t-251 -45zM352 549q0 -125 58 -221l481 551q-77 47 -184 47q-161 0 -258 -106t-97 -271zM709 172q160 0 256 105.5t96 271.5q0 125 -57 219l-480 -551q79 -45 185 -45z" />
    <glyph glyph-name="uni0218" unicode="&#x218;" horiz-adv-x="1523" 
d="M805 -33q-346 0 -643 152v268h2q152 -85 320.5 -132.5t322.5 -47.5q164 0 251 51t87 141q0 87 -86 128.5t-346 86.5q-67 12 -120 24t-111 30.5t-101.5 40t-84 51.5t-66 66t-41 84t-15.5 104q0 91 39 171.5t114 143.5t196.5 100t275.5 37q139 0 282.5 -36t257.5 -101v-268
h-2q-124 79 -271.5 122.5t-287.5 43.5q-161 0 -245 -50.5t-84 -136.5q0 -83 96 -126q67 -31 269 -69h1h1h1h1l1 -1h1h1h1h1h1l1 -1h1h1h1h1l1 -1h1h1h1h1q26 -5 40 -8q69 -12 121.5 -24t111.5 -30.5t102.5 -40t85 -53t67.5 -69.5t41.5 -89t15.5 -112q0 -42 -7.5 -83
t-27 -86.5t-50 -85t-79 -75.5t-110.5 -62t-149.5 -41.5t-190.5 -15.5zM512 -649l131 420h287v-25l-260 -395h-158z" />
    <glyph glyph-name="uni0219" unicode="&#x219;" horiz-adv-x="1191" 
d="M625 -31q-255 0 -482 127v228h2q106 -69 235.5 -108.5t254.5 -39.5q211 0 211 127q0 39 -21.5 63t-85 46.5t-194.5 50.5q-209 43 -302 113.5t-93 205.5q0 149 120.5 247.5t333.5 98.5q116 0 231 -31.5t191 -74.5v-227h-2q-103 59 -222.5 94t-217.5 35q-92 0 -140.5 -33
t-48.5 -88t59 -84.5t246 -71.5q215 -47 303.5 -123t88.5 -213q0 -48 -12.5 -93.5t-45.5 -91.5t-84 -80t-134.5 -55.5t-190.5 -21.5zM344 -643l131 420h287v-25l-260 -395h-158z" />
    <glyph glyph-name="uni0259" unicode="&#x259;" horiz-adv-x="1323" 
d="M633 -31q-132 0 -235 44.5t-166 122.5t-95.5 179.5t-32.5 221.5q0 34 7 81h854q-17 144 -114 222t-263 78q-216 0 -418 -127h-2v223q189 114 428 114q152 0 271.5 -42t194.5 -117t113.5 -175.5t38.5 -220.5q0 -262 -160 -433t-421 -171zM639 174q125 0 207.5 73
t109.5 202h-614q9 -124 86 -199.5t211 -75.5z" />
    <glyph glyph-name="uni02BB" unicode="&#x2bb;" horiz-adv-x="751" 
d="M152 831v25l272 578h137l-92 -603h-317z" />
    <glyph glyph-name="circumflex" unicode="&#x2c6;" horiz-adv-x="1024" 
d="M63 1278l283 362h332l283 -362h-259l-151 192h-78l-151 -192h-259z" />
    <glyph glyph-name="caron" unicode="&#x2c7;" horiz-adv-x="1024" 
d="M961 1640l-283 -362h-332l-283 362h259l151 -192h78l151 192h259z" />
    <glyph glyph-name="breve" unicode="&#x2d8;" horiz-adv-x="1024" 
d="M512 1262q-179 0 -282 77t-103 222q0 45 12 100h201q-6 -37 -6 -64q0 -149 178 -149t178 147q0 33 -8 66h203q10 -62 10 -102q0 -144 -102.5 -220.5t-280.5 -76.5z" />
    <glyph glyph-name="dotaccent" unicode="&#x2d9;" horiz-adv-x="1024" 
d="M510 1268q-74 0 -119 43.5t-45 105.5v2q0 62 44.5 105t117.5 43q76 0 121 -43t45 -105v-2q0 -62 -45 -105.5t-119 -43.5z" />
    <glyph glyph-name="ring" unicode="&#x2da;" horiz-adv-x="1024" 
d="M510 1262q-160 0 -251 78t-91 214q0 137 92 218t252 81q161 0 253.5 -79.5t92.5 -217.5q0 -135 -93.5 -214.5t-254.5 -79.5zM512 1411q77 0 122.5 39t45.5 106t-46.5 107.5t-123.5 40.5q-76 0 -123 -40t-47 -108q0 -67 47.5 -106t124.5 -39z" />
    <glyph glyph-name="ogonek" unicode="&#x2db;" horiz-adv-x="1024" 
d="M600 98l137 -98l-112 -109q-90 -87 -121 -127t-31 -79q0 -43 35.5 -67t103.5 -24q81 0 170 44v-191q-107 -39 -219 -39q-75 0 -133.5 15t-92.5 38t-56 55t-29.5 62.5t-7.5 63.5q0 83 54 161.5t169 178.5z" />
    <glyph glyph-name="tilde" unicode="&#x2dc;" horiz-adv-x="1024" 
d="M342 1571q51 0 90 -13.5t113 -52.5q62 -32 88 -41.5t53 -9.5q47 0 92.5 31.5t108.5 109.5h2v-235q-94 -105 -207 -105q-51 0 -90 13.5t-113 52.5q-62 32 -88 41.5t-53 9.5q-46 0 -92.5 -32t-108.5 -109h-2v235q94 105 207 105z" />
    <glyph glyph-name="hungarumlaut" unicode="&#x2dd;" horiz-adv-x="1024" 
d="M512 1278l227 336h287v-12l-324 -324h-190zM59 1278l228 336h286v-12l-323 -324h-191z" />
    <glyph glyph-name="uni0326" unicode="&#x326;" horiz-adv-x="1024" 
d="M287 -616l131 419h287v-24l-261 -395h-157z" />
    <glyph glyph-name="Wgrave" unicode="&#x1e80;" horiz-adv-x="2514" 
d="M1384 1614h-233l-346 323v13h328zM516 0l-410 1434h277l319 -1174h41l392 1174h264l387 -1174h41l311 1174h270l-407 -1434h-381l-350 1065h-17l-352 -1065h-385z" />
    <glyph glyph-name="wgrave" unicode="&#x1e81;" horiz-adv-x="2029" 
d="M1137 1278h-234l-346 324v12h328zM412 0l-340 1098h264l239 -869h41l258 858h287l264 -858h41l238 869h254l-342 -1098h-354l-230 795h-33l-233 -795h-354z" />
    <glyph glyph-name="Wacute" unicode="&#x1e82;" horiz-adv-x="2514" 
d="M1153 1614l252 336h328v-13l-347 -323h-233zM516 0l-410 1434h277l319 -1174h41l392 1174h264l387 -1174h41l311 1174h270l-407 -1434h-381l-350 1065h-17l-352 -1065h-385z" />
    <glyph glyph-name="wacute" unicode="&#x1e83;" horiz-adv-x="2029" 
d="M903 1278l252 336h328v-12l-346 -324h-234zM412 0l-340 1098h264l239 -869h41l258 858h287l264 -858h41l238 869h254l-342 -1098h-354l-230 795h-33l-233 -795h-354z" />
    <glyph glyph-name="Wdieresis" unicode="&#x1e84;" horiz-adv-x="2514" 
d="M997 1604q-70 0 -112.5 41.5t-42.5 99.5v2q0 59 42 99t111 40q71 0 113.5 -40t42.5 -99v-2q0 -58 -42.5 -99.5t-111.5 -41.5zM1520 1604q-69 0 -111.5 41.5t-42.5 99.5v2q0 59 42 99t112 40q71 0 112 -40t41 -99v-2q0 -59 -41.5 -100t-111.5 -41zM516 0l-410 1434h277
l319 -1174h41l392 1174h264l387 -1174h41l311 1174h270l-407 -1434h-381l-350 1065h-17l-352 -1065h-385z" />
    <glyph glyph-name="wdieresis" unicode="&#x1e85;" horiz-adv-x="2029" 
d="M760 1268q-70 0 -113 41.5t-43 99.5v2q0 59 42.5 99t111.5 40q71 0 113 -40t42 -99v-2q0 -58 -42 -99.5t-111 -41.5zM1282 1268q-69 0 -111.5 41.5t-42.5 99.5v2q0 59 42 99t112 40q71 0 112.5 -40t41.5 -99v-2q0 -58 -41.5 -99.5t-112.5 -41.5zM412 0l-340 1098h264
l239 -869h41l258 858h287l264 -858h41l238 869h254l-342 -1098h-354l-230 795h-33l-233 -795h-354z" />
    <glyph glyph-name="uni1E9E" unicode="&#x1e9e;" horiz-adv-x="1746" 
d="M487 0h-262v1434h1334v-244l-424 -373l120 -37q218 -65 305 -163.5t87 -239.5q0 -196 -137.5 -303t-395.5 -107q-220 0 -414 74v238h2q206 -91 420 -91q132 0 196 49.5t64 139.5q0 91 -80.5 143t-308.5 111l-139 33v176l410 368h-777v-1208z" />
    <glyph glyph-name="Ygrave" unicode="&#x1ef2;" horiz-adv-x="1644" 
d="M985 1561h-233l-346 323v12h327zM690 0v494l-645 940h307l461 -686h21l469 686h296l-647 -936v-498h-262z" />
    <glyph glyph-name="ygrave" unicode="&#x1ef3;" horiz-adv-x="1284" 
d="M819 1241h-233l-346 324v12h327zM395 -397l133 358l-473 1137h267l344 -854l317 854h256l-594 -1495h-250z" />
    <glyph glyph-name="uni2002" unicode="&#x2002;" horiz-adv-x="1024" 
 />
    <glyph glyph-name="uni2003" unicode="&#x2003;" horiz-adv-x="2048" 
 />
    <glyph glyph-name="uni2004" unicode="&#x2004;" horiz-adv-x="681" 
 />
    <glyph glyph-name="uni2005" unicode="&#x2005;" horiz-adv-x="512" 
 />
    <glyph glyph-name="uni2007" unicode="&#x2007;" horiz-adv-x="1191" 
 />
    <glyph glyph-name="uni2008" unicode="&#x2008;" horiz-adv-x="806" 
 />
    <glyph glyph-name="uni2009" unicode="&#x2009;" horiz-adv-x="272" 
 />
    <glyph glyph-name="uni200A" unicode="&#x200a;" horiz-adv-x="153" 
 />
    <glyph glyph-name="uni200B" unicode="&#x200b;" horiz-adv-x="0" 
 />
    <glyph glyph-name="uni200C" unicode="&#x200c;" horiz-adv-x="0" 
 />
    <glyph glyph-name="uni200D" unicode="&#x200d;" horiz-adv-x="0" 
 />
    <glyph glyph-name="endash" unicode="&#x2013;" horiz-adv-x="1447" 
d="M170 539v235h1110v-235h-1110z" />
    <glyph glyph-name="emdash" unicode="&#x2014;" horiz-adv-x="1763" 
d="M170 539v235h1425v-235h-1425z" />
    <glyph glyph-name="quoteleft" unicode="&#x2018;" horiz-adv-x="751" 
d="M152 831v25l272 578h137l-92 -603h-317z" />
    <glyph glyph-name="quoteright" unicode="&#x2019;" horiz-adv-x="751" 
d="M190 831l93 603h319v-25l-272 -578h-140z" />
    <glyph glyph-name="quotesinglbase" unicode="&#x201a;" horiz-adv-x="704" 
d="M143 -266l93 602h319v-25l-272 -577h-140z" />
    <glyph glyph-name="quotedblleft" unicode="&#x201c;" horiz-adv-x="1261" 
d="M152 831v25l264 578h137l-92 -603h-309zM668 831v25l264 578h139l-94 -603h-309z" />
    <glyph glyph-name="quotedblright" unicode="&#x201d;" horiz-adv-x="1261" 
d="M190 831l93 603h311v-25l-264 -578h-140zM707 831l94 603h309v-25l-264 -578h-139z" />
    <glyph glyph-name="quotedblbase" unicode="&#x201e;" horiz-adv-x="1212" 
d="M143 -266l93 602h311v-25l-264 -577h-140zM659 -266l95 602h309v-25l-264 -577h-140z" />
    <glyph glyph-name="dagger" unicode="&#x2020;" horiz-adv-x="1075" 
d="M430 377v610h-293l8 187h285v272h217v-272h287v-187h-287v-610h-217z" />
    <glyph glyph-name="daggerdbl" unicode="&#x2021;" horiz-adv-x="1077" 
d="M430 287v270h-287v186h287v244h-293l8 187h285v272h217v-272h287v-187h-287v-244h293l-10 -186h-283v-270h-217z" />
    <glyph glyph-name="bullet" unicode="&#x2022;" horiz-adv-x="868" 
d="M434 383q-134 0 -210.5 78.5t-76.5 191.5v6q0 113 76.5 191t210.5 78q133 0 210 -78t77 -191v-6q0 -113 -77 -191.5t-210 -78.5z" />
    <glyph glyph-name="ellipsis" unicode="&#x2026;" horiz-adv-x="2420" 
d="M403 -23q-89 0 -139.5 52t-50.5 127v2q0 75 50 125.5t140 50.5q89 0 140 -51t51 -125v-2q0 -74 -51.5 -126.5t-139.5 -52.5zM1210 -23q-89 0 -139.5 52t-50.5 127v2q0 75 50 125.5t140 50.5q89 0 140 -51t51 -125v-2q0 -74 -51.5 -126.5t-139.5 -52.5zM2017 -23
q-89 0 -139.5 52t-50.5 127v2q0 75 50 125.5t140 50.5q89 0 140 -51t51 -125v-2q0 -74 -51.5 -126.5t-139.5 -52.5z" />
    <glyph glyph-name="uni202F" unicode="&#x202f;" horiz-adv-x="272" 
 />
    <glyph glyph-name="guilsinglleft" unicode="&#x2039;" horiz-adv-x="917" 
d="M786 84h-286l-389 457v16l389 457h286l-387 -465z" />
    <glyph glyph-name="guilsinglright" unicode="&#x203a;" horiz-adv-x="917" 
d="M131 1014h287l389 -457v-16l-389 -457h-287l387 465z" />
    <glyph glyph-name="fraction" unicode="&#x2044;" horiz-adv-x="536" 
d="M-348 2l1022 1432h211v-2l-1024 -1432h-209v2z" />
    <glyph glyph-name="zero.sup" unicode="&#x2070;" horiz-adv-x="970" 
d="M481 696q-193 0 -291 117.5t-98 319.5q0 200 102 319t295 119q195 0 292.5 -116.5t97.5 -319.5q0 -200 -102 -319.5t-296 -119.5zM483 862q100 0 148.5 71t48.5 200q0 272 -193 272q-194 0 -194 -270q0 -273 190 -273z" />
    <glyph glyph-name="four.sup" unicode="&#x2074;" horiz-adv-x="970" 
d="M582 719v170h-496v149l244 512h438v-497h135l-8 -164h-127v-170h-186zM289 1049h297v340h-135z" />
    <glyph glyph-name="five.sup" unicode="&#x2075;" horiz-adv-x="970" 
d="M483 696q-170 0 -321 54v180h2q153 -68 317 -68q88 0 126 33t38 78q0 38 -22 57q-23 23 -85 32t-196 9h-162l13 479h602l8 -168h-430l-4 -157h47q152 0 236.5 -20t133.5 -70q62 -62 62 -162q0 -126 -98.5 -201.5t-266.5 -75.5z" />
    <glyph glyph-name="six.sup" unicode="&#x2076;" horiz-adv-x="970" 
d="M502 696q-183 0 -281 105t-98 311q0 219 117 339t313 120q137 0 256 -45v-170h-2q-131 55 -246 55q-107 0 -175.5 -56t-72.5 -171q48 30 116 47.5t130 17.5q136 0 216.5 -62.5t80.5 -189.5q0 -143 -100 -222t-254 -79zM522 1100q-123 0 -209 -58q6 -98 56 -144t133 -46
q75 0 121.5 36t46.5 99q0 113 -148 113z" />
    <glyph glyph-name="seven.sup" unicode="&#x2077;" horiz-adv-x="970" 
d="M150 1235v315h700v-227l-352 -604h-217l360 618v52h-311v-154h-180z" />
    <glyph glyph-name="eight.sup" unicode="&#x2078;" horiz-adv-x="970" 
d="M485 694q-185 0 -279.5 63.5t-94.5 176.5q0 149 178 205q-158 49 -158 186q0 112 92.5 179t261.5 67t262 -67t93 -179q0 -137 -158 -186q178 -56 178 -205q0 -113 -95 -176.5t-280 -63.5zM485 1202q80 0 123 27t43 76q0 55 -42 84.5t-124 29.5t-124 -29.5t-42 -84.5
q0 -49 43 -76t123 -27zM485 846q89 0 135 30t46 82q0 53 -48 84t-133 31t-132.5 -31t-47.5 -84q0 -52 45.5 -82t134.5 -30z" />
    <glyph glyph-name="nine.sup" unicode="&#x2079;" horiz-adv-x="970" 
d="M469 1571q183 0 281 -105t98 -311q0 -219 -117 -339t-313 -120q-137 0 -256 45v170h2q131 -55 246 -55q107 0 175 56t72 171q-48 -30 -115.5 -47.5t-129.5 -17.5q-136 0 -216.5 62.5t-80.5 189.5q0 143 100 222t254 79zM301 1280q0 -113 148 -113q122 0 208 58
q-6 98 -55.5 144t-132.5 46q-75 0 -121.5 -36t-46.5 -99z" />
    <glyph glyph-name="zero.inf" unicode="&#x2080;" horiz-adv-x="970" 
d="M481 -420q-193 0 -291 117t-98 319q0 200 102 319.5t295 119.5q195 0 292.5 -117t97.5 -320q0 -200 -102 -319t-296 -119zM483 -254q100 0 148.5 70.5t48.5 199.5q0 273 -193 273q-194 0 -194 -271q0 -272 190 -272z" />
    <glyph glyph-name="one.inf" unicode="&#x2081;" horiz-adv-x="749" 
d="M305 -397v669h-196l30 162h371v-831h-205z" />
    <glyph glyph-name="two.inf" unicode="&#x2082;" horiz-adv-x="970" 
d="M152 -397v161l284 226q127 100 162 137t35 74q0 41 -34 62.5t-93 21.5q-143 0 -320 -131h-2v190q161 113 336 113q155 0 235.5 -64t80.5 -176q0 -89 -51.5 -148.5t-207.5 -179.5q-18 -14 -28 -22l-123 -96h410v-168h-684z" />
    <glyph glyph-name="three.inf" unicode="&#x2083;" horiz-adv-x="970" 
d="M467 -420q-146 0 -311 58v178q179 -72 290 -72q90 0 142.5 28.5t52.5 82.5q0 58 -59.5 81t-227.5 23h-30v94l268 217h-428l6 164h647v-160l-242 -194q269 -36 269 -232q0 -124 -103.5 -196t-273.5 -72z" />
    <glyph glyph-name="four.inf" unicode="&#x2084;" horiz-adv-x="970" 
d="M582 -397v170h-496v149l244 512h438v-497h135l-8 -164h-127v-170h-186zM289 -68h297v340h-135z" />
    <glyph glyph-name="five.inf" unicode="&#x2085;" horiz-adv-x="970" 
d="M483 -420q-173 0 -321 53v181h2q153 -68 317 -68q88 0 126 33t38 78q0 38 -22 57q-23 23 -85 32t-196 9h-162l13 479h602l8 -168h-430l-4 -157h47q152 0 236.5 -20.5t133.5 -70.5q62 -62 62 -161q0 -126 -98.5 -201.5t-266.5 -75.5z" />
    <glyph glyph-name="six.inf" unicode="&#x2086;" horiz-adv-x="970" 
d="M502 -420q-183 0 -281 105t-98 311q0 219 117 339t313 120q137 0 256 -45v-170h-2q-131 55 -246 55q-107 0 -175.5 -56t-72.5 -171q48 30 116 47.5t130 17.5q136 0 216.5 -62.5t80.5 -189.5q0 -143 -100 -222t-254 -79zM522 -16q-123 0 -209 -58q6 -98 56 -144t133 -46
q75 0 121.5 36t46.5 99q0 113 -148 113z" />
    <glyph glyph-name="seven.inf" unicode="&#x2087;" horiz-adv-x="970" 
d="M150 119v315h700v-227l-352 -604h-217l360 618v51h-311v-153h-180z" />
    <glyph glyph-name="eight.inf" unicode="&#x2088;" horiz-adv-x="970" 
d="M485 -422q-185 0 -279.5 63.5t-94.5 176.5q0 149 178 205q-158 49 -158 186q0 112 92.5 179t261.5 67t262 -67t93 -179q0 -137 -158 -186q178 -56 178 -205q0 -113 -95 -176.5t-280 -63.5zM485 86q80 0 123 26.5t43 75.5q0 55 -42 85t-124 30t-124 -30t-42 -85
q0 -49 43 -75.5t123 -26.5zM485 -270q89 0 135 30t46 82q0 53 -48 84t-133 31t-132.5 -31t-47.5 -84q0 -52 45.5 -82t134.5 -30z" />
    <glyph glyph-name="nine.inf" unicode="&#x2089;" horiz-adv-x="970" 
d="M469 455q183 0 281 -105t98 -311q0 -219 -117 -339t-313 -120q-137 0 -256 45v170h2q131 -55 246 -55q107 0 175 56t72 171q-48 -30 -115.5 -47.5t-129.5 -17.5q-136 0 -216.5 62.5t-80.5 189.5q0 143 100 222t254 79zM301 164q0 -113 148 -113q122 0 208 58
q-6 98 -55.5 144t-132.5 46q-75 0 -121.5 -36t-46.5 -99z" />
    <glyph glyph-name="colonmonetary" unicode="&#x20a1;" horiz-adv-x="1454" 
d="M322 -225l84 321q-152 94 -229 254t-77 355q0 138 43 262.5t124.5 225t209.5 167t287 84.5l53 205h201l-53 -203q82 -5 190 -35l62 238h200l-379 -1438q114 23 238 84h2v-229q-122 -58 -297 -76l-57 -215h-203l57 211q-104 6 -190 30l-68 -241h-198zM635 233
q85 -35 215 -38l262 997q-104 37 -213 37zM344 707q0 -235 133 -371l234 887q-177 -45 -272 -182.5t-95 -333.5z" />
    <glyph glyph-name="uni20A6" unicode="&#x20a6;" horiz-adv-x="1865" 
d="M352 0v469h-250l19 172h231v180h-215l19 172h196v441h312l254 -441h393v441h229v-441h209v-172h-209v-180h209v-172h-209v-469h-297l-270 469h-389v-469h-232zM584 1104v-469h295l-271 469h-24zM1286 354h25v473h-297z" />
    <glyph glyph-name="uni20A8" unicode="&#x20a8;" horiz-adv-x="2742" 
d="M240 0v1434h686q267 0 401.5 -123.5t134.5 -358.5q0 -176 -83.5 -291t-245.5 -159l380 -502h-299l-333 455h-389v-455h-252zM492 680h432q144 0 213 70.5t69 191.5q0 124 -68.5 194t-213.5 70h-432v-526zM2169 -31q-258 0 -483 127v230h2q106 -71 234.5 -110.5
t254.5 -39.5q107 0 160 34t53 93q0 38 -21 61.5t-85.5 46t-194.5 50.5q-212 45 -304.5 115t-92.5 206q0 149 120.5 247.5t335.5 98.5q118 0 231 -31.5t193 -76.5v-227h-2q-103 59 -223 94t-219 35q-91 0 -140 -32.5t-49 -86.5q0 -55 60 -85.5t246 -70.5q216 -47 304.5 -123
t88.5 -213q0 -48 -12.5 -93.5t-45.5 -91.5t-84 -80t-135.5 -55.5t-191.5 -21.5z" />
    <glyph glyph-name="Euro" unicode="&#x20ac;" horiz-adv-x="1628" 
d="M102 455l19 172h201q-5 63 -5 78q0 44 7 102h-187l19 172h206q74 216 257.5 347.5t453.5 131.5q212 0 385 -90v-235h-2q-202 106 -387 106q-161 0 -275.5 -68.5t-172.5 -191.5h571v-172h-623q-6 -50 -6 -100q0 -26 4 -80h625v-172h-580q55 -123 169.5 -191.5t279.5 -68.5
q189 0 395 98h2v-236q-177 -82 -414 -82q-142 0 -260 36t-202.5 101.5t-141.5 151.5t-88 191h-250z" />
    <glyph glyph-name="uni20B1" unicode="&#x20b1;" horiz-adv-x="1728" 
d="M338 0v819h-229l32 180h197v435h643q236 0 370 -113t156 -322h166v-180h-168q-27 -214 -172.5 -323t-376.5 -109h-368v-387h-250zM588 1221v-228h672q-17 117 -90 172.5t-207 55.5h-375zM588 600h381q252 0 291 225h-672v-225z" />
    <glyph glyph-name="uni20B9" unicode="&#x20b9;" horiz-adv-x="1533" 
d="M1214 0h-370l-627 426v188h406q147 0 222 56.5t95 163.5h-723v184h721q-19 112 -99 165.5t-241 53.5h-381v197h1202l-10 -197h-340q89 -80 113 -213h209l-11 -197h-196q-27 -184 -157.5 -292.5t-348.5 -108.5h-107z" />
    <glyph glyph-name="uni20BD" unicode="&#x20bd;" horiz-adv-x="1644" 
d="M98 209l21 186h239v176h-227l21 191h206v672h666q256 0 384 -113.5t128 -314.5q0 -213 -137 -324t-400 -111h-391v-176h662v-186h-662v-209h-250v209h-260zM608 762h389q161 0 227 58.5t66 168.5q0 119 -67.5 175.5t-223.5 56.5h-391v-459z" />
    <glyph glyph-name="uni2116" unicode="&#x2116;" horiz-adv-x="2975" 
d="M2341 1450q242 0 379 -135t137 -350t-138 -351.5t-380 -136.5t-380 136t-138 352q0 212 139 348.5t381 136.5zM272 0v1434h299l684 -1041h25v1041h242v-1434h-279l-706 1067h-23v-1067h-242zM2341 1249q-135 0 -211 -78.5t-76 -207.5q0 -130 75 -208.5t210 -78.5
q134 0 210.5 80t76.5 209t-75 206.5t-210 77.5zM1894 213h891v-213h-893z" />
    <glyph glyph-name="uni2117" unicode="&#x2117;" horiz-adv-x="1982" 
d="M991 -94q-263 0 -461.5 100.5t-305.5 284t-107 426.5t107 426.5t305.5 284t461.5 100.5q398 0 637.5 -222t239.5 -589t-239.5 -589t-637.5 -222zM991 76q313 0 496.5 171t183.5 470t-183.5 470t-496.5 171q-312 0 -495 -171t-183 -470t183 -470t495 -171zM676 354v738
h428q141 0 221 -72t80 -201q0 -140 -87 -211t-228 -71h-232v-183h-182zM858 688h227q71 0 104.5 35t33.5 90q0 125 -140 125h-225v-250z" />
    <glyph glyph-name="uni2120" unicode="&#x2120;" horiz-adv-x="2072" 
d="M518 670q-95 0 -187.5 22.5t-160.5 57.5v163q77 -44 176.5 -71t177.5 -27q88 0 126 18.5t38 57.5q0 40 -39 57.5t-176 46.5q-45 10 -74.5 17.5t-64 18.5t-56 22.5t-43 27.5t-33 35t-19 44.5t-7.5 56.5q0 103 86.5 169t253.5 66q164 0 303 -68v-161h-2q-161 84 -313 84
q-76 0 -117 -20t-41 -56t37.5 -52t175.5 -46q73 -15 122.5 -31.5t93 -42.5t64.5 -64.5t21 -91.5q0 -233 -342 -233zM1042 688v746h213l215 -400l211 400h215v-746h-163v529l-254 -457h-21l-256 463v-535h-160z" />
    <glyph glyph-name="trademark" unicode="&#x2122;" horiz-adv-x="2088" 
d="M440 686v596h-295l5 152h751l6 -152h-295v-596h-172zM1059 688v746h213l215 -400l211 400h215v-746h-164v531l-254 -459h-20l-256 463v-535h-160z" />
    <glyph glyph-name="onethird" unicode="&#x2153;" horiz-adv-x="2097" 
d="M305 602v670h-196l30 162h371v-832h-205zM319 2l1022 1432h211v-2l-1024 -1432h-209v2zM1593 -23q-146 0 -311 58v178q179 -72 291 -72q90 0 142 28.5t52 82.5q0 58 -59 81t-227 23h-31v95l268 217h-428l6 163h648v-159l-242 -195q268 -35 268 -231q0 -124 -103.5 -196.5
t-273.5 -72.5z" />
    <glyph glyph-name="twothirds" unicode="&#x2154;" horiz-adv-x="2347" 
d="M152 602v162l284 225q127 100 162 137t35 74q0 41 -34 62.5t-93 21.5q-143 0 -320 -131h-2v190q161 113 336 113q155 0 235.5 -64t80.5 -175q0 -38 -10.5 -71t-29 -61t-53 -60.5t-72.5 -63t-97 -76.5q-17 -12 -25 -19l-123 -96h410v-168h-684zM569 2l1022 1432h211v-2
l-1024 -1432h-209v2zM1843 -23q-146 0 -311 58v178q179 -72 291 -72q90 0 142 28.5t52 82.5q0 58 -59 81t-227 23h-31v95l268 217h-428l6 163h647v-159l-241 -195q268 -35 268 -231q0 -124 -103.5 -196.5t-273.5 -72.5z" />
    <glyph glyph-name="uni2155" unicode="&#x2155;" horiz-adv-x="2068" 
d="M305 602v670h-196l30 162h371v-832h-205zM319 2l1022 1432h211v-2l-1024 -1432h-209v2zM1581 -23q-170 0 -321 54v180h2q153 -68 317 -68q88 0 126 33t38 78q0 37 -23 57q-23 23 -84.5 32t-195.5 9h-162l12 479h602l9 -167h-431l-4 -158h47q152 0 237 -20t134 -70
q62 -62 62 -162q0 -126 -98.5 -201.5t-266.5 -75.5z" />
    <glyph glyph-name="uni2156" unicode="&#x2156;" horiz-adv-x="2318" 
d="M152 602v162l284 225q127 100 162 137t35 74q0 41 -34 62.5t-93 21.5q-143 0 -320 -131h-2v190q161 113 336 113q155 0 235.5 -64t80.5 -175q0 -38 -10.5 -71t-29 -61t-53 -60.5t-72.5 -63t-97 -76.5q-17 -12 -25 -19l-123 -96h410v-168h-684zM569 2l1022 1432h211v-2
l-1024 -1432h-209v2zM1831 -23q-171 0 -322 54v180h2q153 -68 318 -68q88 0 126 33t38 78q0 37 -23 57q-23 23 -84.5 32t-195.5 9h-162l12 479h602l8 -167h-430l-4 -158h47q152 0 237 -20t134 -70q61 -61 61 -162q0 -127 -98 -202t-266 -75z" />
    <glyph glyph-name="uni2157" unicode="&#x2157;" horiz-adv-x="2273" 
d="M467 580q-149 0 -311 57v178q179 -72 290 -72q90 0 142.5 28.5t52.5 82.5q0 58 -59.5 81t-227.5 23h-30v95l268 217h-428l6 164h647v-160l-242 -195q269 -36 269 -231q0 -124 -103.5 -196t-273.5 -72zM524 2l1022 1432h211v-2l-1024 -1432h-209v2zM1786 -23
q-171 0 -322 54v180h2q153 -68 318 -68q88 0 126 33t38 78q0 37 -23 57q-23 23 -84.5 32t-195.5 9h-162l12 479h602l8 -167h-430l-4 -158h47q152 0 237 -20t134 -70q61 -61 61 -162q0 -127 -98 -202t-266 -75z" />
    <glyph glyph-name="uni2158" unicode="&#x2158;" horiz-adv-x="2306" 
d="M582 602v170h-496v150l244 512h438v-498h135l-8 -164h-127v-170h-186zM557 2l1022 1432h211v-2l-1024 -1432h-209v2zM289 932h297v340h-135zM1819 -23q-171 0 -322 54v180h2q153 -68 318 -68q88 0 125.5 33t37.5 78q0 38 -22 57q-23 23 -85 32t-196 9h-161l12 479h602
l8 -167h-430l-4 -158h47q152 0 237 -20t134 -70q61 -61 61 -162q0 -127 -98 -202t-266 -75z" />
    <glyph glyph-name="uni2159" unicode="&#x2159;" horiz-adv-x="2048" 
d="M305 602v670h-196l30 162h371v-832h-205zM319 2l1022 1432h211v-2l-1024 -1432h-209v2zM1579 -23q-183 0 -281 105t-98 311q0 219 117 339t313 120q137 0 256 -45v-170h-2q-131 55 -246 55q-107 0 -175 -56t-72 -171q48 30 115.5 47.5t129.5 17.5q136 0 216.5 -62
t80.5 -189q0 -143 -100 -222.5t-254 -79.5zM1599 381q-123 0 -208 -57q6 -98 56 -144.5t132 -46.5q75 0 121.5 36t46.5 99q0 113 -148 113z" />
    <glyph glyph-name="uni215A" unicode="&#x215a;" horiz-adv-x="2260" 
d="M483 580q-173 0 -321 53v180h2q153 -68 317 -68q88 0 126 33t38 78q0 38 -22 57q-23 23 -85 32t-196 9h-162l13 480h602l8 -168h-430l-4 -158h47q152 0 236.5 -20t133.5 -70q62 -62 62 -162q0 -126 -98.5 -201t-266.5 -75zM532 2l1022 1432h211v-2l-1024 -1432h-209v2z
M1792 -23q-183 0 -281 105t-98 311q0 219 117 339t313 120q137 0 256 -45v-170h-2q-131 55 -246 55q-107 0 -175 -56t-72 -171q48 30 115.5 47.5t129.5 17.5q136 0 216.5 -62t80.5 -189q0 -143 -100 -222.5t-254 -79.5zM1812 381q-123 0 -208 -57q6 -98 56 -144.5t132 -46.5
q75 0 121.5 36t46.5 99q0 113 -148 113z" />
    <glyph glyph-name="oneeighth" unicode="&#x215b;" horiz-adv-x="2076" 
d="M305 602v670h-196l30 162h371v-832h-205zM319 2l1022 1432h211v-2l-1024 -1432h-209v2zM1591 -25q-185 0 -279.5 63.5t-94.5 176.5q0 149 178 205q-158 49 -158 186q0 112 92.5 179t261.5 67t262 -67t93 -179q0 -137 -158 -186q178 -56 178 -205q0 -113 -95 -176.5
t-280 -63.5zM1591 483q80 0 123 27t43 76q0 55 -42 84.5t-124 29.5t-124 -29.5t-42 -84.5q0 -49 43 -76t123 -27zM1591 127q89 0 135 30.5t46 82.5q0 53 -47.5 83.5t-133.5 30.5q-85 0 -132.5 -30.5t-47.5 -83.5q0 -52 46 -82.5t134 -30.5z" />
    <glyph glyph-name="threeeighths" unicode="&#x215c;" horiz-adv-x="2281" 
d="M467 580q-149 0 -311 57v178q179 -72 290 -72q90 0 142.5 28.5t52.5 82.5q0 58 -59.5 81t-227.5 23h-30v95l268 217h-428l6 164h647v-160l-242 -195q269 -36 269 -231q0 -124 -103.5 -196t-273.5 -72zM524 2l1022 1432h211v-2l-1024 -1432h-209v2zM1796 -25
q-185 0 -280 63.5t-95 176.5q0 149 178 205q-157 49 -157 186q0 112 92.5 179t261.5 67t261.5 -67t92.5 -179q0 -137 -157 -186q178 -56 178 -205q0 -113 -95 -176.5t-280 -63.5zM1796 483q80 0 123 27t43 76q0 55 -42 84.5t-124 29.5t-124 -29.5t-42 -84.5q0 -49 43 -76
t123 -27zM1796 127q88 0 134 30.5t46 82.5q0 53 -47.5 83.5t-132.5 30.5t-132.5 -30.5t-47.5 -83.5q0 -52 46 -82.5t134 -30.5z" />
    <glyph glyph-name="fiveeighths" unicode="&#x215d;" horiz-adv-x="2289" 
d="M483 580q-173 0 -321 53v180h2q153 -68 317 -68q88 0 126 33t38 78q0 38 -22 57q-23 23 -85 32t-196 9h-162l13 480h602l8 -168h-430l-4 -158h47q152 0 236.5 -20t133.5 -70q62 -62 62 -162q0 -126 -98.5 -201t-266.5 -75zM532 2l1022 1432h211v-2l-1024 -1432h-209v2z
M1804 -25q-185 0 -279.5 63.5t-94.5 176.5q0 149 178 205q-158 49 -158 186q0 112 92.5 179t261.5 67t262 -67t93 -179q0 -137 -158 -186q178 -56 178 -205q0 -113 -95 -176.5t-280 -63.5zM1804 483q80 0 123 27t43 76q0 55 -42 84.5t-124 29.5t-124 -29.5t-42 -84.5
q0 -49 43 -76t123 -27zM1804 127q89 0 135 30.5t46 82.5q0 53 -47.5 83.5t-133.5 30.5q-85 0 -132.5 -30.5t-47.5 -83.5q0 -52 46 -82.5t134 -30.5z" />
    <glyph glyph-name="seveneighths" unicode="&#x215e;" horiz-adv-x="2183" 
d="M150 1118v316h700v-228l-352 -604h-217l360 619v51h-311v-154h-180zM426 2l1022 1432h211v-2l-1024 -1432h-209v2zM1698 -25q-185 0 -280 63.5t-95 176.5q0 149 178 205q-158 49 -158 186q0 112 93 179t262 67t261.5 -67t92.5 -179q0 -137 -158 -186q92 -29 135.5 -79.5
t43.5 -125.5q0 -113 -95 -176.5t-280 -63.5zM1698 483q80 0 123 27t43 76q0 55 -42 84.5t-124 29.5t-124 -29.5t-42 -84.5q0 -49 43 -76t123 -27zM1698 127q88 0 134 30.5t46 82.5q0 53 -47.5 83.5t-132.5 30.5t-132.5 -30.5t-47.5 -83.5q0 -52 46 -82.5t134 -30.5z" />
    <glyph glyph-name="uni2190" unicode="&#x2190;" horiz-adv-x="2088" 
d="M682 864l1118 4v-237l-1114 4l551 -485h-346l-678 600l678 600h346z" />
    <glyph glyph-name="uni2191" unicode="&#x2191;" horiz-adv-x="1822" 
d="M786 -45l5 1122l-502 -557v344l622 678l623 -678v-342l-502 551l4 -1118h-250z" />
    <glyph glyph-name="uni2192" unicode="&#x2192;" horiz-adv-x="2088" 
d="M1407 631l-1118 -4v237l1114 -4l-551 486h346l678 -601l-678 -600h-346z" />
    <glyph glyph-name="uni2193" unicode="&#x2193;" horiz-adv-x="1822" 
d="M911 -109l-622 678v342l502 -551l-5 1119h250l-4 -1123l502 557v-344z" />
    <glyph glyph-name="uni21A2" unicode="&#x21a2;" horiz-adv-x="4198" 
d="M1386 258l-1224 487l1224 490v-18l-202 -355h1362l305 217h1102l-396 -334l396 -331h-1102l-305 217h-1362l202 -357v-16z" />
    <glyph glyph-name="uni21A3" unicode="&#x21a3;" horiz-adv-x="4198" 
d="M2812 258v16l203 357h-1362l-305 -217h-1102l395 331l-395 334h1102l305 -217h1362l-203 355v18l1225 -490z" />
    <glyph glyph-name="minus" unicode="&#x2212;" horiz-adv-x="1431" 
d="M205 600v234h1024v-234h-1024z" />
    <glyph glyph-name="uni2295" unicode="&#x2295;" horiz-adv-x="2207" 
d="M1104 -94q-256 0 -448 100t-295 283.5t-103 427.5q0 368 229.5 589.5t616.5 221.5q389 0 617.5 -220.5t228.5 -590.5q0 -368 -229.5 -589.5t-616.5 -221.5zM635 618h364v-366h209v366h365v205h-365v367h-209v-367h-364v-205z" />
    <glyph glyph-name="uni2296" unicode="&#x2296;" horiz-adv-x="2207" 
d="M1104 -94q-256 0 -448 100t-295 283.5t-103 427.5q0 368 229.5 589.5t616.5 221.5q389 0 617.5 -220.5t228.5 -590.5q0 -368 -229.5 -589.5t-616.5 -221.5zM633 618h940v205h-940v-205z" />
    <glyph glyph-name="uni2297" unicode="&#x2297;" horiz-adv-x="2207" 
d="M1104 -94q-256 0 -448 100t-295 283.5t-103 427.5q0 368 229.5 589.5t616.5 221.5q389 0 617.5 -220.5t228.5 -590.5q0 -368 -229.5 -589.5t-616.5 -221.5zM657 420l150 -150l299 301l299 -301l147 150l-301 297l301 297l-147 149l-299 -301l-299 301l-150 -149l301 -297
z" />
    <glyph glyph-name="circle.checked" unicode="&#x2299;" horiz-adv-x="2207" 
d="M1104 -94q-256 0 -448 100t-295 283.5t-103 427.5q0 368 229.5 589.5t616.5 221.5q389 0 617.5 -220.5t228.5 -590.5q0 -368 -229.5 -589.5t-616.5 -221.5zM1104 127q279 0 436.5 159t157.5 431q0 273 -157.5 431.5t-436.5 158.5t-436.5 -159t-157.5 -431
q0 -273 157.5 -431.5t436.5 -158.5zM1104 426q-136 0 -213.5 78.5t-77.5 212.5t77.5 212.5t213.5 78.5q137 0 214 -78t77 -213t-77 -213t-214 -78z" />
    <glyph glyph-name="dotmath" unicode="&#x22c5;" horiz-adv-x="792" 
d="M397 537q-89 0 -139.5 52t-50.5 126v4q0 73 50.5 124.5t139.5 51.5q88 0 138.5 -51.5t50.5 -124.5v-4q0 -73 -50.5 -125.5t-138.5 -52.5z" />
    <glyph glyph-name="uni2302" unicode="&#x2302;" horiz-adv-x="2150" 
d="M1790 -59h-1430v1001l715 600l715 -600v-1001z" />
    <glyph glyph-name="uni238C" unicode="&#x238c;" horiz-adv-x="2131" 
d="M707 549h417q238 0 365.5 84t126.5 274q4 188 -125 273.5t-367 85.5h-757l39 227h763q158 0 286.5 -35t223.5 -105t146.5 -182.5t50.5 -259.5q1 -147 -50 -260.5t-146 -185t-224 -107.5t-287 -36h-467l424 -359h-346l-534 473l530 471h350z" />
    <glyph glyph-name="uniE015.previous" unicode="&#x2397;" horiz-adv-x="2215" 
d="M1378 1493v-1118h-1042v1118h1042zM1141 1280h-568v-696h568v696zM1620 1135h229v-1194h-1128l-16 206h915v988z" />
    <glyph glyph-name="uniE015.next" unicode="&#x2398;" horiz-adv-x="2215" 
d="M596 299h-229v1194h1128l16 -207h-915v-987zM838 -59v1118h1042v-1118h-1042zM1075 154h567v696h-567v-696z" />
    <glyph glyph-name="uni25A0" unicode="&#x25a0;" horiz-adv-x="2287" 
d="M352 -59v1552h1583v-1552h-1583z" />
    <glyph glyph-name="uni25A1" unicode="&#x25a1;" horiz-adv-x="2287" 
d="M352 -59v1552h1583v-1552h-1583zM592 160h1104v1114h-1104v-1114z" />
    <glyph glyph-name="uni25AA" unicode="&#x25aa;" horiz-adv-x="1654" 
d="M352 252v930h951v-930h-951z" />
    <glyph glyph-name="uni25AB" unicode="&#x25ab;" horiz-adv-x="1654" 
d="M352 252v930h951v-930h-951zM578 459h499v516h-499v-516z" />
    <glyph glyph-name="uni25B2" unicode="&#x25b2;" horiz-adv-x="2048" 
d="M238 -59l776 1601h20l776 -1601h-1572z" />
    <glyph glyph-name="uni25B4" unicode="&#x25b4;" horiz-adv-x="1892" 
d="M956 1624l721 -868h-1462l721 868h20z" />
    <glyph glyph-name="uni25B6" unicode="&#x25b6;" horiz-adv-x="2150" 
d="M346 1503l1602 -776v-20l-1602 -777v1573z" />
    <glyph glyph-name="uni25B8" unicode="&#x25b8;" horiz-adv-x="2068" 
d="M344 1309l1501 -547v-25l-1501 -547v1119z" />
    <glyph glyph-name="uni25BC" unicode="&#x25bc;" horiz-adv-x="2048" 
d="M1810 1493l-776 -1602h-20l-776 1602h1572z" />
    <glyph glyph-name="uni25BE" unicode="&#x25be;" horiz-adv-x="1892" 
d="M936 -135l-721 868h1462l-721 -868h-20z" />
    <glyph glyph-name="uni25C0" unicode="&#x25c0;" horiz-adv-x="2150" 
d="M1804 -70l-1601 777v20l1601 776v-1573z" />
    <glyph glyph-name="uni25C2" unicode="&#x25c2;" horiz-adv-x="2068" 
d="M1724 190l-1501 547v25l1501 547v-1119z" />
    <glyph glyph-name="circle.open" unicode="&#x25cb;" horiz-adv-x="2207" 
d="M1104 -94q-256 0 -448 100t-295 283.5t-103 427.5q0 368 229.5 589.5t616.5 221.5q389 0 617.5 -220.5t228.5 -590.5q0 -368 -229.5 -589.5t-616.5 -221.5zM1104 127q279 0 436.5 159t157.5 431q0 273 -157.5 431.5t-436.5 158.5t-436.5 -159t-157.5 -431
q0 -273 157.5 -431.5t436.5 -158.5z" />
    <glyph glyph-name="circle.solid" unicode="&#x25cf;" horiz-adv-x="2207" 
d="M1104 -94q-256 0 -448 100t-295 283.5t-103 427.5q0 368 229.5 589.5t616.5 221.5q389 0 617.5 -220.5t228.5 -590.5q0 -368 -229.5 -589.5t-616.5 -221.5z" />
    <glyph glyph-name="circle.half" unicode="&#x25d0;" horiz-adv-x="2207" 
d="M1104 -94q-256 0 -448 100t-295 283.5t-103 427.5q0 368 229.5 589.5t616.5 221.5q389 0 617.5 -220.5t228.5 -590.5q0 -368 -229.5 -589.5t-616.5 -221.5zM1098 121q281 0 442.5 162t161.5 434q0 273 -161.5 434.5t-442.5 161.5v-1192z" />
    <glyph glyph-name="uni25E9" unicode="&#x25e9;" horiz-adv-x="2287" 
d="M352 -59v1552h1583v-1552h-1583zM584 158h1114v1108z" />
    <glyph glyph-name="uni2600" unicode="&#x2600;" horiz-adv-x="2127" 
d="M1911 760v-70l-314 -143l134 -328l-50 -57l-329 92l-115 -336l-70 -14l-194 282l-303 -184l-58 37l29 342l-350 51l-25 68l248 239l-240 267l25 69l348 27l-16 352l65 37l281 -199l217 279l74 -15l86 -333l344 75l47 -57l-148 -311z" />
    <glyph glyph-name="uni2605" unicode="&#x2605;" horiz-adv-x="2150" 
d="M1309 1014l626 16l37 -96l-518 -340l223 -596l-84 -55l-518 397l-520 -397l-82 55l223 596l-516 340l37 96l625 -16l184 594h98z" />
    <glyph glyph-name="uni260E" unicode="&#x260e;" horiz-adv-x="2371" 
d="M1962 -59h-1552l-52 387l279 522h-346q-60 126 -60 227q0 212 241 331.5t714 119.5t713.5 -119.5t240.5 -331.5q0 -103 -59 -227h-346l278 -522zM1569 1186h-766l-23 -201q218 37 406 37q191 0 405 -37zM1511 512q0 103 -87 171.5t-238 68.5q-152 0 -240 -69t-88 -171
q0 -103 88 -171.5t240 -68.5t238.5 68t86.5 172z" />
    <glyph glyph-name="uni2611" unicode="&#x2611;" horiz-adv-x="2287" 
d="M895 516l598 1299h340l-711 -1299h-227zM352 -59v1552h830l-105 -217h-485v-1116h1104v1091l133 242h106v-1552h-1583z" />
    <glyph glyph-name="uni2612" unicode="&#x2612;" horiz-adv-x="2287" 
d="M352 -59v1552h1583v-1552h-1583zM799 223l346 348l344 -348l149 150l-346 344l346 344l-149 149l-344 -348l-346 348l-150 -149l348 -344l-348 -344z" />
    <glyph glyph-name="uni261A" unicode="&#x261a;" horiz-adv-x="3584" 
d="M3226 174l-832 182l-772 -266q-47 -13 -82 8l-37 23q-30 20 -34 50t12 97l-86 -26q-47 -16 -80 4l-49 26q-30 15 -33.5 48.5t16.5 111.5l-75 -33q-43 -21 -87 2l-57 33q-41 21 -26 82l77 326l-520 -47q-162 -15 -252.5 56t-60.5 171v2l1208 158q96 14 127 14
q41 0 123 -10l1520 -156v-856z" />
    <glyph glyph-name="uni261B" unicode="&#x261b;" horiz-adv-x="3584" 
d="M1980 90l-766 266l-837 -182v856l1519 156q85 10 123 10q29 0 129 -14l1207 -158l2 -2q29 -100 -62.5 -171t-253.5 -56l-522 47l80 -326q15 -60 -27 -82l-57 -33q-42 -22 -86 -2l-74 33q19 -78 15.5 -111.5t-33.5 -48.5l-49 -26q-33 -20 -80 -4l-86 26q18 -69 13.5 -98.5
t-34.5 -48.5l-37 -23q-35 -21 -84 -8z" />
    <glyph glyph-name="uni263C" unicode="&#x263c;" horiz-adv-x="2127" 
d="M1911 760v-70l-314 -143l134 -328l-50 -57l-329 92l-115 -336l-70 -14l-194 282l-303 -184l-58 37l29 342l-350 51l-25 68l248 239l-240 267l25 69l348 27l-16 352l65 37l281 -199l217 279l74 -15l86 -333l344 75l47 -57l-148 -311zM1427 741q0 143 -93.5 239.5
t-254.5 96.5q-160 0 -253 -96t-93 -240t93 -239.5t253 -95.5q161 0 254.5 96t93.5 239z" />
    <glyph glyph-name="heart" unicode="&#x2665;" horiz-adv-x="2068" 
d="M1030 1231h8q50 142 149.5 219.5t235.5 77.5q77 0 147 -28t128 -82t92.5 -144.5t34.5 -204.5q0 -134 -63 -287t-175 -305.5t-247.5 -296t-299.5 -286.5h-12q-164 143 -299 286t-247 296t-175 306t-63 287q0 114 34.5 204.5t92.5 144.5t128.5 82t147.5 28q135 0 234 -77.5
t149 -219.5z" />
    <glyph glyph-name="uni2691" unicode="&#x2691;" horiz-adv-x="1822" 
d="M1427 -82h-239v754h-930v821h1169v-1575z" />
    <glyph glyph-name="uni2698" unicode="&#x2698;" horiz-adv-x="2170" 
d="M1520 47q-68 0 -127 41.5t-86 114.5q-63 -43 -97.5 -107.5t-48.5 -177.5h-151q-14 113 -48.5 177.5t-97.5 107.5q-27 -73 -85 -114.5t-126 -41.5q-117 0 -239 89.5t-224 258.5v19q91 46 190 73t177 27q52 0 103 -11t113 -38t122.5 -86t108.5 -143l-23 335
q-145 44 -237 91.5t-155.5 118t-92 164t-35.5 231.5l-15 266l19 8q93 -45 196.5 -124t180.5 -173q44 134 107 244t132 166h9q69 -56 132 -166t107 -244q77 94 180.5 173t196.5 124l18 -8l-12 -266q-9 -138 -38 -231.5t-92.5 -164.5t-155 -118t-236.5 -91l-23 -335
q48 84 109 143t123.5 86t113.5 38t103 11q77 0 175 -27t189 -73v-19q-102 -170 -222.5 -259t-237.5 -89z" />
    <glyph glyph-name="uni2709" unicode="&#x2709;" horiz-adv-x="2902" 
d="M352 -59v1552h2198v-1552h-2198zM1448 688l641 582h-1282zM584 614l-4 -292l434 473l-432 399l2 -260v-320zM2320 1194l-432 -397l434 -467l-4 284v320zM1450 395l-279 256l-460 -499l247 4h986l243 -4l-458 499z" />
    <glyph glyph-name="uni272B" unicode="&#x272b;" horiz-adv-x="2150" 
d="M1309 1014l626 16l37 -96l-518 -340l223 -596l-84 -55l-518 397l-520 -397l-82 55l223 596l-516 340l37 96l625 -16l184 594h98zM1075 473l260 250l-260 250l-260 -250z" />
    <glyph glyph-name="uni2731" unicode="&#x2731;" horiz-adv-x="2088" 
d="M514 59l-158 162l408 389l-535 -2v221l535 -2l-402 387l156 160l412 -418l-2 560h233l-2 -562l416 422l158 -164l-402 -385l529 2v-221l-535 2l408 -391l-158 -160l-416 422l2 -563h-233l2 561z" />
    <glyph glyph-name="uni2735" unicode="&#x2735;" horiz-adv-x="2004" 
d="M1849 760v-70l-458 -92l278 -379l-49 -57l-410 225l-34 -469l-70 -14l-170 432l-328 -334l-57 37l141 438l-463 -45l-24 68l395 239l-387 267l25 69l458 -71l-127 450l66 37l303 -348l195 428l73 -15l6 -462l424 204l47 -57l-292 -364z" />
    <glyph glyph-name="uni274C" unicode="&#x274c;" horiz-adv-x="2088" 
d="M442 -23l-163 168l602 572l-602 573l157 166l604 -588l607 588l161 -170l-604 -571l604 -572l-159 -166l-605 588z" />
    <glyph glyph-name="uniE023.open" unicode="&#x276c;" horiz-adv-x="1886" 
d="M985 -348l-831 1036v17l831 1036h553v-2089h-553zM1094 -113h202v1618h-202l-641 -811z" />
    <glyph glyph-name="uniE024.open" unicode="&#x276d;" horiz-adv-x="1886" 
d="M348 -348v2089h553l832 -1036v-17l-832 -1036h-553zM590 -113h203l641 811l-641 807h-203v-1618z" />
    <glyph glyph-name="uniE023.solid" unicode="&#x2770;" horiz-adv-x="1886" 
d="M1534 1741v-2089h-571l-811 1032v25l811 1032h571z" />
    <glyph glyph-name="uniE024.solid" unicode="&#x2771;" horiz-adv-x="1886" 
d="M352 -348v2089h572l811 -1032v-25l-811 -1032h-572z" />
    <glyph glyph-name="uni2795" unicode="&#x2795;" horiz-adv-x="2088" 
d="M236 608v228h688v680h241v-680h688v-228h-688v-690h-241v690h-688z" />
    <glyph glyph-name="uni27A1" unicode="&#x27a1;" horiz-adv-x="2088" 
d="M989 47l-31 16l11 453l-701 -12v491l701 -12l-11 453l31 16l928 -702z" />
    <glyph glyph-name="uniE000" unicode="&#xe000;" horiz-adv-x="1601" 
d="M799 215q-237 0 -378.5 137t-141.5 365q0 227 141.5 364.5t378.5 137.5q242 0 383 -136.5t141 -365.5q0 -227 -142 -364.5t-382 -137.5z" />
    <glyph glyph-name="uniE001" unicode="&#xe001;" horiz-adv-x="1601" 
d="M799 215q-237 0 -378.5 137t-141.5 365q0 227 141.5 364.5t378.5 137.5q242 0 383 -136.5t141 -365.5q0 -227 -142 -364.5t-382 -137.5zM799 430q134 0 212.5 78.5t78.5 208.5t-78.5 208.5t-212.5 78.5q-131 0 -209 -78.5t-78 -208.5t78 -208.5t209 -78.5z" />
    <glyph glyph-name="uniE002" unicode="&#xe002;" horiz-adv-x="2252" 
d="M524 1112q-78 0 -125 45.5t-47 120.5q0 74 47 119t125 45t124 -45t46 -119q0 -75 -46 -120.5t-124 -45.5zM1126 1112q-78 0 -124 45.5t-46 120.5q0 74 46 119t124 45q79 0 125.5 -45t46.5 -119q0 -75 -46.5 -120.5t-125.5 -45.5zM1731 1112q-78 0 -125 45.5t-47 120.5
q0 74 47 119t125 45t124 -45t46 -119q0 -75 -46 -120.5t-124 -45.5zM524 553q-78 0 -125 44.5t-47 119.5q0 74 47 119t125 45t124 -45t46 -119q0 -75 -46 -119.5t-124 -44.5zM1126 553q-78 0 -124 44.5t-46 119.5q0 74 46 119t124 45q79 0 125.5 -45t46.5 -119
q0 -75 -46.5 -119.5t-125.5 -44.5zM1731 553q-78 0 -125 44.5t-47 119.5q0 74 47 119t125 45t124 -45t46 -119q0 -75 -46 -119.5t-124 -44.5zM524 -8q-78 0 -125 45t-47 119q0 75 47 120.5t125 45.5t124 -45.5t46 -120.5q0 -74 -46 -119t-124 -45zM1126 -8q-78 0 -124 45
t-46 119q0 75 46 120.5t124 45.5q79 0 125.5 -45.5t46.5 -120.5q0 -74 -46.5 -119t-125.5 -45zM1731 -8q-78 0 -125 45t-47 119q0 75 47 120.5t125 45.5t124 -45.5t46 -120.5q0 -74 -46 -119t-124 -45z" />
    <glyph glyph-name="uniE003" unicode="&#xe003;" horiz-adv-x="2088" 
d="M1100 47l-928 703l928 702l30 -16l-10 -453l701 12v-491l-701 12l10 -453z" />
    <glyph glyph-name="uniE004" unicode="&#xe004;" horiz-adv-x="1863" 
d="M670 -45l16 655l-463 -6l-16 31l725 907l725 -907l-17 -31l-462 6l16 -655h-524z" />
    <glyph glyph-name="uniE005" unicode="&#xe005;" horiz-adv-x="1863" 
d="M932 -109l-725 908l16 30l463 -6l-16 656h524l-16 -656l462 6l17 -30z" />
    <glyph glyph-name="uniE006" unicode="&#xe006;" horiz-adv-x="3045" 
d="M297 340v819h2062l461 -409l-461 -410h-2062z" />
    <glyph glyph-name="uniE007" unicode="&#xe007;" horiz-adv-x="3045" 
d="M297 340v819h2062l461 -409l-461 -410h-2062zM543 565h1738l195 185l-195 184h-1738v-369z" />
    <glyph glyph-name="uniE008" unicode="&#xe008;" horiz-adv-x="3045" 
d="M297 340v819h2062l461 -409l-461 -410h-2062zM543 565h1665v369h-1665v-369z" />
    <glyph glyph-name="uniE009" unicode="&#xe009;" horiz-adv-x="2662" 
d="M297 522v455h2068v-455h-2068z" />
    <glyph glyph-name="uniE00A" unicode="&#xe00a;" horiz-adv-x="2662" 
d="M297 889v241h2068v-241h-2068zM297 369v241h2068v-241h-2068z" />
    <glyph glyph-name="uniE00B" unicode="&#xe00b;" horiz-adv-x="2662" 
d="M297 1116v217h2068v-217h-2068zM297 643v211h2068v-211h-2068zM297 164v217h2068v-217h-2068z" />
    <glyph glyph-name="uniE00C" unicode="&#xe00c;" horiz-adv-x="2248" 
d="M1124 266q-344 0 -535.5 76t-191.5 188t191.5 187.5t535.5 75.5q345 0 536 -75.5t191 -187.5t-191.5 -188t-535.5 -76zM393 139v170h10q12 -29 43 -57.5t90 -57.5t138 -51t195.5 -35.5t254.5 -13.5t254.5 13.5t195.5 35.5t138 51t90 57.5t43 57.5h10v-170
q0 -112 -193.5 -188t-537.5 -76t-537.5 76t-193.5 188z" />
    <glyph glyph-name="uniE00D" unicode="&#xe00d;" horiz-adv-x="2248" 
d="M1124 649q-344 0 -535.5 76t-191.5 188t191.5 187.5t535.5 75.5q345 0 536 -75.5t191 -187.5t-191.5 -188t-535.5 -76zM393 522v170h10q12 -29 43 -57.5t90 -57.5t138 -51t195.5 -35.5t254.5 -13.5t254.5 13.5t195.5 35.5t138 51t90 57.5t43 57.5h10v-170
q0 -112 -193.5 -188t-537.5 -76t-537.5 76t-193.5 188zM393 139v170h10q12 -29 43 -57.5t90 -57.5t138 -51t195.5 -35.5t254.5 -13.5t254.5 13.5t195.5 35.5t138 51t90 57.5t43 57.5h10v-170q0 -112 -193.5 -188t-537.5 -76t-537.5 76t-193.5 188z" />
    <glyph glyph-name="uniE00E" unicode="&#xe00e;" horiz-adv-x="2248" 
d="M1124 1032q-344 0 -535.5 76t-191.5 188t191.5 187.5t535.5 75.5q345 0 536 -75.5t191 -187.5t-191.5 -188t-535.5 -76zM393 905v170h10q12 -29 43 -57.5t90 -57.5t138 -51t195.5 -35.5t254.5 -13.5t254.5 13.5t195.5 35.5t138 51t90 57.5t43 57.5h10v-170
q0 -112 -193.5 -188t-537.5 -76t-537.5 76t-193.5 188zM393 522v170h10q12 -29 43 -57.5t90 -57.5t138 -51t195.5 -35.5t254.5 -13.5t254.5 13.5t195.5 35.5t138 51t90 57.5t43 57.5h10v-170q0 -112 -193.5 -188t-537.5 -76t-537.5 76t-193.5 188zM393 139v170h10
q12 -29 43 -57.5t90 -57.5t138 -51t195.5 -35.5t254.5 -13.5t254.5 13.5t195.5 35.5t138 51t90 57.5t43 57.5h10v-170q0 -112 -193.5 -188t-537.5 -76t-537.5 76t-193.5 188z" />
    <glyph glyph-name="uniE00F" unicode="&#xe00f;" horiz-adv-x="2248" 
d="M1124 227l-817 297v37l817 297l818 -297v-37zM1124 -156l-807 293v209l807 -293l807 293v-209z" />
    <glyph glyph-name="uniE010" unicode="&#xe010;" horiz-adv-x="2248" 
d="M1124 598l-817 297v37l817 297l818 -297v-37zM1124 215l-807 293v209l807 -293l807 293v-209zM1124 -156l-807 293v209l807 -293l807 293v-209z" />
    <glyph glyph-name="uniE011" unicode="&#xe011;" horiz-adv-x="2248" 
d="M1124 969l-817 297v37l817 296l818 -296v-37zM1124 586l-807 293v208l807 -292l807 292v-208zM1124 215l-807 293v209l807 -293l807 293v-209zM1124 -156l-807 293v209l807 -293l807 293v-209z" />
    <glyph glyph-name="uniE012" unicode="&#xe012;" horiz-adv-x="2207" 
d="M1104 -94q-256 0 -448 100t-295 283.5t-103 427.5q0 368 229.5 589.5t616.5 221.5q389 0 617.5 -220.5t228.5 -590.5q0 -368 -229.5 -589.5t-616.5 -221.5zM756 1122v-213h2q190 119 372 119q168 0 168 -94q0 -31 -24.5 -58t-99 -59t-199.5 -61v-183h2q290 55 422.5 147
t132.5 230q0 88 -53.5 150.5t-139 91.5t-192.5 29q-198 0 -391 -99zM1077 182q68 0 108 37.5t40 95.5q0 57 -40 94t-108 37q-67 0 -107 -37t-40 -94q0 -58 39.5 -95.5t107.5 -37.5z" />
    <glyph glyph-name="uniE013" unicode="&#xe013;" horiz-adv-x="2207" 
d="M1104 -94q-256 0 -448 100t-295 283.5t-103 427.5q0 368 229.5 589.5t616.5 221.5q389 0 617.5 -220.5t228.5 -590.5q0 -368 -229.5 -589.5t-616.5 -221.5zM1020 604h170l65 602v15h-303v-15zM1106 182q66 0 105.5 37.5t39.5 95.5q0 57 -39.5 94t-105.5 37
q-69 0 -109.5 -37t-40.5 -94q0 -58 40.5 -95.5t109.5 -37.5z" />
    <glyph glyph-name="uniE014" unicode="&#xe014;" horiz-adv-x="2209" 
d="M735 -74l-436 436v709l436 436h740l436 -436v-709l-436 -436h-740zM647 616h912v207h-912v-207z" />
    <glyph glyph-name="uniE015" unicode="&#xe015;" horiz-adv-x="2117" 
d="M348 -59v1552h938l545 -508v-1044h-1483zM590 160h1003v688h-444v430h-559v-1118z" />
    <glyph glyph-name="uniE016" unicode="&#xe016;" horiz-adv-x="2324" 
d="M463 1118q-79 0 -126.5 46.5t-47.5 121.5t47.5 121.5t126.5 46.5t126.5 -46.5t47.5 -121.5t-47.5 -121.5t-126.5 -46.5zM846 1180v213h1165l-43 -213h-1122zM463 549q-79 0 -126.5 46.5t-47.5 121.5t47.5 121.5t126.5 46.5t126.5 -46.5t47.5 -121.5t-47.5 -121.5
t-126.5 -46.5zM846 610v213h1165l-43 -213h-1122zM463 -20q-79 0 -126.5 46t-47.5 121t47.5 121.5t126.5 46.5t126.5 -46.5t47.5 -121.5t-47.5 -121t-126.5 -46zM846 41v213h1165l-43 -213h-1122z" />
    <glyph glyph-name="uniE017" unicode="&#xe017;" horiz-adv-x="1689" 
d="M403 174v1358l39 16l1012 -940v-14h-485l264 -565l-211 -99l-260 580l-344 -336h-15z" />
    <glyph glyph-name="uniE018" unicode="&#xe018;" horiz-adv-x="1966" 
d="M467 471q-119 0 -192.5 69t-73.5 181t73.5 181t192.5 69q87 0 145 -37l523 299v18q0 104 71.5 176t186.5 72q118 0 190 -68.5t72 -179.5q0 -112 -71.5 -179.5t-190.5 -67.5q-95 0 -162 45l-508 -287q2 -14 2 -41q0 -29 -2 -43l508 -293q65 47 162 47q118 0 190 -68.5
t72 -181.5q0 -112 -71.5 -180t-190.5 -68q-115 0 -186.5 72t-71.5 176v21l-525 303q-59 -35 -143 -35z" />
    <glyph glyph-name="uniE019" unicode="&#xe019;" horiz-adv-x="2207" 
d="M1104 -94q-256 0 -448 100t-295 283.5t-103 427.5q0 368 229.5 589.5t616.5 221.5q389 0 617.5 -220.5t228.5 -590.5q0 -368 -229.5 -589.5t-616.5 -221.5zM797 262h614v19l-225 467q84 23 133 84.5t49 138.5q0 104 -73 172.5t-191 68.5q-117 0 -190.5 -68.5
t-73.5 -172.5q0 -77 49 -138.5t133 -84.5l-225 -467v-19z" />
    <glyph glyph-name="uniE01A" unicode="&#xe01a;" horiz-adv-x="2285" 
d="M678 14l-6 33l96 143l-481 390l-45 104l8 96l82 90l-8 127l38 78l107 58l35 127l65 63l125 18l78 109l78 31l127 -29l115 76h102l115 -76l127 29l77 -31l78 -109l125 -18l66 -63l35 -127l106 -58l39 -78l-8 -127l82 -90l8 -96l-45 -104l-481 -387l98 -146l-8 -33h-310
l-139 -112h-33l-139 112h-309z" />
    <glyph glyph-name="uniE01B" unicode="&#xe01b;" horiz-adv-x="2088" 
d="M1044 -139q-113 35 -218.5 82.5t-203 111.5t-169.5 136t-114 159.5t-40 177.5q0 112 37 251.5t37 219.5q0 111 -92 254l245 242q139 -68 250 -68q74 0 130.5 32.5t121.5 101.5h33q64 -69 122 -101.5t132 -32.5q111 0 250 68l243 -242q-92 -143 -92 -254q0 -80 37 -219.5
t37 -251.5q2 -90 -40 -177.5t-114 -159.5t-169.5 -136t-203.5 -111.5t-219 -82.5z" />
    <glyph glyph-name="uniE01C" unicode="&#xe01c;" horiz-adv-x="1781" 
d="M1147 -82v651h-930v25l356 436l-356 438v25h1169v-1575h-239z" />
    <glyph glyph-name="uniE01D" unicode="&#xe01d;" horiz-adv-x="2088" 
d="M924 -82l4 428l-398 -209l-43 252l-270 170v43l277 135l-177 375l31 57l434 -112l236 506h53l236 -506l434 112l31 -57l-177 -375l277 -135v-43l-270 -170l-43 -252l-398 209l4 -428h-241z" />
    <glyph glyph-name="uniE01E" unicode="&#xe01e;" horiz-adv-x="2088" 
d="M924 -82l2 246l-750 117l-8 24l381 326l-174 78l-8 22l346 287l-131 61l-9 23l455 461h33l455 -461l-7 -23l-131 -61l344 -287l-6 -22l-176 -78l381 -326l-8 -24l-750 -117l2 -246h-241z" />
    <glyph glyph-name="uniE01F" unicode="&#xe01f;" horiz-adv-x="2048" 
d="M391 -59l127 911l-213 248l29 393h282l17 -238h231l17 238h288l17 -238h231l15 238h282l31 -393l-213 -248l125 -911h-1266z" />
    <glyph glyph-name="uniE020" unicode="&#xe020;" horiz-adv-x="1679" 
d="M1284 -82h-240v631l-970 450v25l1179 520h31v-1626z" />
    <glyph glyph-name="uniE021" unicode="&#xe021;" horiz-adv-x="2088" 
d="M831 1137v223h426v-223h-426zM528 608v219h1033v-219h-1033zM209 78v221h1671v-221h-1671z" />
    <glyph glyph-name="uniE022" unicode="&#xe022;" horiz-adv-x="2088" 
d="M209 1137v219h1671v-219h-1671zM528 608v219h1033v-219h-1033zM831 76v223h426v-223h-426z" />
    <glyph glyph-name="uniE023" unicode="&#xe023;" horiz-adv-x="1669" 
d="M1151 -348l-913 1036v17l915 1036h324l-918 -1041l918 -1048h-326z" />
    <glyph glyph-name="uniE024" unicode="&#xe024;" horiz-adv-x="1669" 
d="M193 -348l917 1046l-917 1043h325l914 -1036v-17l-916 -1036h-323z" />
    <glyph glyph-name="uniE025" unicode="&#xe025;" horiz-adv-x="1847" 
d="M414 -117v1610h1020v-1610h-15l-495 455l-496 -455h-14z" />
    <glyph glyph-name="uniE026" unicode="&#xe026;" horiz-adv-x="2056" 
d="M1028 1538q217 0 339 -139.5t122 -366.5q0 -79 -19.5 -155t-58.5 -144t-93 -119.5t-129 -81.5t-161 -30t-161 30t-129 81.5t-93 119.5t-58.5 144t-19.5 155q0 227 122 366.5t339 139.5zM1837 -59h-1618l21 245q5 64 31.5 102t87 65t173.5 50l150 31q153 -143 346 -143
t346 143l150 -31q166 -33 225.5 -78.5t67.5 -138.5z" />
    <glyph glyph-name="uniE027" unicode="&#xe027;" horiz-adv-x="2048" 
d="M1024 1133q-79 0 -126.5 45t-47.5 120t47.5 121.5t126.5 46.5t126.5 -46.5t47.5 -121.5t-47.5 -120t-126.5 -45zM489 838q-79 0 -126.5 45.5t-47.5 120.5t47.5 121t126.5 46t127 -46t48 -121t-48 -120.5t-127 -45.5zM1559 838q-78 0 -126.5 45.5t-48.5 120.5t48.5 121
t126.5 46q79 0 126.5 -46t47.5 -121t-47.5 -120.5t-126.5 -45.5zM1024 543q-83 0 -132.5 48t-49.5 126q0 79 49.5 127.5t132.5 48.5t132.5 -48.5t49.5 -127.5q0 -78 -49.5 -126t-132.5 -48zM489 262q-79 0 -126.5 45.5t-47.5 122.5q0 75 47.5 121.5t126.5 46.5t127 -46.5
t48 -121.5q0 -76 -47.5 -122t-127.5 -46zM1559 262q-78 0 -126.5 46t-48.5 122q0 75 48.5 121.5t126.5 46.5q79 0 126.5 -46.5t47.5 -121.5q0 -77 -47.5 -122.5t-126.5 -45.5zM1024 -25q-79 0 -126.5 45.5t-47.5 122.5q0 75 47.5 121.5t126.5 46.5t126.5 -46.5t47.5 -121.5
q0 -77 -47.5 -122.5t-126.5 -45.5z" />
    <glyph glyph-name="uniE028" unicode="&#xe028;" horiz-adv-x="1630" 
d="M289 975q0 261 146.5 407t379.5 146q238 0 382 -144.5t144 -408.5v-516q0 -261 -145 -407t-381 -146q-233 0 -379.5 146t-146.5 407v516zM815 795q109 0 169 61.5t60 167.5t-60 167.5t-169 61.5q-107 0 -168 -62t-61 -167t61 -167t168 -62z" />
    <glyph glyph-name="uniE029" unicode="&#xe029;" horiz-adv-x="1630" 
d="M815 -92q-238 0 -382 145t-144 408v516q0 262 145 407.5t381 145.5q233 0 379.5 -145.5t146.5 -407.5v-516q0 -131 -40 -236.5t-110.5 -174t-166.5 -105.5t-209 -37zM815 182q106 0 167.5 62.5t61.5 167.5t-61 167t-168 62q-109 0 -169 -61.5t-60 -167.5t60 -168t169 -62
z" />
    <glyph glyph-name="uniE02A" unicode="&#xe02a;" horiz-adv-x="2195" 
d="M1739 1505l211 -200l-160 -197l164 -197l-164 -196l164 -197l-164 -196l160 -197l-211 -201l-207 160l-207 -164l-207 164l-207 -164l-206 164l-207 -160l-211 201l159 197l-163 196l163 197l-163 196l163 197l-159 197l211 200l207 -159l206 163l207 -163l207 163
l207 -163z" />
    <glyph glyph-name="hcoslug" unicode="&#xe10b;" horiz-adv-x="1439" 
d="M113 -205v1639h1216v-1639h-1216zM471 319q129 0 213 93q51 -52 89.5 -72.5t84.5 -20.5q68 0 114.5 53t49.5 140l-14 4q-34 -59 -88 -59q-30 0 -59 19.5t-68 64.5q42 56 94 86q30 -52 88 -52q43 0 72.5 32t29.5 79t-29.5 77t-72.5 30q-70 0 -123 -78q-6 79 -100 76
q18 30 18 69q0 59 -52.5 105.5t-142.5 46.5q-99 0 -161 -52.5t-62 -121.5q0 -43 15 -75t49 -67q-168 -57 -168 -186q0 -81 65 -136t158 -55zM594 756q-30 29 -42.5 42.5t-24 35t-11.5 43.5q0 26 15 42.5t40 16.5q26 0 43 -21.5t17 -56.5q0 -46 -37 -102zM733 606
q-67 78 -84 94q61 42 86 70q23 -23 29 -49t-2 -52.5t-29 -62.5zM545 449q-46 0 -76.5 31.5t-30.5 78.5q0 49 33 82q76 -72 152 -168q-31 -24 -78 -24zM731 150h12l9 16q10 -16 28 -16q17 0 25 13.5t8 29.5q0 18 -8.5 29t-22.5 11q-20 0 -26 -18v55h-37v-14h12v-106zM266 152
h62v14h-21v33h8q7 0 9 -3t4 -14h14v47h-14q-1 -6 -1.5 -8.5t-2 -4.5t-3.5 -2.5t-6 -0.5h-8v37h25q11 0 15 -5t7 -22h17v41h-105v-14h15v-84h-15v-14zM596 150q23 0 29 26l-11 4q-3 -14 -10 -14q-8 0 -8 10v41h27v14h-27v23l-25 -4v-19h-14v-14h14v-41q0 -26 25 -26zM459 152
h45v14h-8v31q0 20 14 20q12 0 12 -14v-37h-8v-14h45v14h-12v39q0 28 -25 28q-19 0 -28 -22v20h-35v-14h12v-51h-12v-14zM410 150q19 0 31 12t12 31q0 18 -12 29t-31 11t-31 -11t-12 -29q0 -20 12 -31.5t31 -11.5zM672 150q13 0 20.5 7.5t7.5 18.5q0 19 -24.5 25t-24.5 12
q0 8 11 8q10 0 20 -14h14v26h-12l-4 -10q-7 10 -23 10q-13 0 -20.5 -7t-7.5 -17q0 -19 24.5 -26t24.5 -13q0 -8 -10 -8q-13 0 -25 18h-14v-28h14l2 8q15 -10 27 -10zM838 121q23 0 36 33l27 63h10v14h-34v-14h10l-17 -41l-18 41h12v14h-51v-14h10q25 -47 33 -67
q-3 -17 -16 -17q5 5 2 13t-13 8q-14 0 -14 -15q0 -18 23 -18zM410 160q-17 0 -17 33q0 30 17 30q16 0 16 -30q0 -33 -16 -33zM772 164q-16 0 -16 26q0 27 16 27q14 0 14 -27q0 -26 -14 -26zM575 0h48v14h-11v52h29v-52h-10v-14h47v14h-12v107l-21 -4q-8 4 -18 4
q-16 0 -27.5 -10t-11.5 -29v-2h-15v-14h15v-52h-13v-14zM1030 -2q46 0 49 47h-16q-4 -33 -29 -33q-33 0 -33 45t29 45q12 0 18.5 -6.5t12.5 -25.5h16v45h-16l-2 -13q-15 15 -33 15q-22 0 -38.5 -17.5t-16.5 -44.5q0 -26 15.5 -41.5t43.5 -15.5zM264 0h60v14h-17v37h45v-37
h-16v-14h59v14h-16v84h16v15h-59v-15h16v-32h-45v32h17v15h-60v-15h17v-84h-17v-14zM612 80v6q0 25 13 25l6 -2q-2 -3 -2 -7q0 -12 12 -12v-10h-29zM881 -2q18 0 30 12q10 -12 25 -12q20 0 27 25l-11 2q-3 -11 -8 -11t-12 11q12 16 18 28h11v15h-37v-15h12q-3 -9 -12 -18
q-4 4 -12 12.5t-13 13.5q23 10 23 25q0 10 -8 17.5t-21 7.5q-14 0 -24.5 -9t-10.5 -20q0 -13 12 -25q-26 -7 -26 -30q0 -29 37 -29zM893 68q-12 12 -12 20q0 10 10 10q12 0 12 -12q0 -11 -10 -18zM532 -2q30 0 37 29h-14q-3 -15 -18 -15q-21 0 -21 25h53q3 45 -39 45
q-17 0 -29 -12t-12 -31t11.5 -30t31.5 -11zM723 -2q30 0 37 29h-15q-3 -15 -18 -15q-20 0 -20 25h53q3 45 -39 45q-17 0 -29 -12t-12 -31t11.5 -30t31.5 -11zM440 -2q19 0 31 12t12 31t-12 30t-31 11t-31 -11t-12 -30q0 -20 12 -31.5t31 -11.5zM1128 -2q19 0 31 12t12 31
t-12 30t-31 11t-31 -11t-12 -30q0 -20 12 -31.5t31 -11.5zM764 0h53v14h-16v33q8 19 14 19v-3q0 -12 12 -12q6 0 10.5 4.5t4.5 10.5q0 16 -17 16q-15 0 -24 -23v21h-37v-14h12v-52h-12v-14zM440 8q-16 0 -16 33q0 31 16 31q17 0 17 -31q0 -33 -17 -33zM1128 8q-16 0 -16 33
q0 31 16 31q17 0 17 -31q0 -33 -17 -33zM516 47q0 25 14 25q15 0 15 -25h-29zM707 47q0 25 14 25t14 -25h-28zM889 12q-9 0 -15 6t-6 15t9 18q3 -3 28 -33q-9 -6 -16 -6zM1190 -2q14 0 14 14q0 15 -14 15t-14 -15q0 -14 14 -14z" />
    <glyph glyph-name="uniFEFF" unicode="&#xfeff;" horiz-adv-x="0" 
 />
    <glyph glyph-name="uni1F441" unicode="&#x1f441;" horiz-adv-x="2002" 
d="M1001 119q-248 0 -448 146.5t-406 451.5q206 305 406 451.5t448 146.5q128 0 241.5 -38t218 -116t198.5 -185.5t196 -258.5q-102 -151 -196 -258.5t-198.5 -185.5t-218 -116t-241.5 -38zM1001 311q188 0 306 113.5t118 292.5q0 180 -117 292.5t-307 112.5
q-187 0 -305 -113t-118 -292q0 -180 117.5 -293t305.5 -113zM1001 545q-79 0 -125.5 47t-46.5 125t46.5 125t125.5 47q81 0 127 -46.5t46 -125.5t-46 -125.5t-127 -46.5z" />
    <glyph glyph-name="uni1F451" unicode="&#x1f451;" horiz-adv-x="2416" 
d="M467 229l-258 908l57 28l320 -291l39 5l45 411l59 13l250 -359l41 2l160 516h57l162 -516l41 -2l250 359l57 -13l45 -411l39 -5l319 291l58 -28l-258 -908h-1483z" />
    <glyph glyph-name="uni1F4AC" unicode="&#x1f4ac;" horiz-adv-x="2248" 
d="M297 -109l-16 43q348 236 510 496q-233 58 -362.5 184.5t-129.5 303.5q0 117 60.5 226.5t167.5 195t268.5 137t349.5 51.5t350.5 -53.5t269 -140t166.5 -194t60 -218.5q0 -100 -25.5 -185t-87 -173t-175.5 -173t-280 -166q-450 -218 -1126 -334z" />
    <glyph glyph-name="uni1F4C8" unicode="&#x1f4c8;" horiz-adv-x="2174" 
d="M1518 -82v1575h245v-1575h-245zM924 -82v1145h245v-1145h-245zM330 -82v715h245v-715h-245z" />
    <glyph glyph-name="uni1F4C9" unicode="&#x1f4c9;" horiz-adv-x="2174" 
d="M412 -82v1575h245v-1575h-245zM1006 -82v1145h245v-1145h-245zM1599 -82v715h246v-715h-246z" />
    <glyph glyph-name="uni1F4D5" unicode="&#x1f4d5;" horiz-adv-x="2086" 
d="M811 -59q-72 0 -132.5 16t-111.5 48.5t-88.5 65.5t-83.5 83q-50 54 -69 110t-19 135v731q0 199 94 293q72 72 217 72h934v-373h-6l-203 185h-722q-43 0 -65 -18t-19 -48q5 -41 79 -106q57 -52 105.5 -72.5t116.5 -20.5h968v-1101h-995z" />
    <glyph glyph-name="uni1F4F1" unicode="&#x1f4f1;" horiz-adv-x="1878" 
d="M637 -86q-152 0 -218.5 66.5t-66.5 218.5v1036q0 152 66.5 218.5t218.5 66.5h604q152 0 218.5 -66.5t66.5 -218.5v-1036q0 -152 -66.5 -218.5t-218.5 -66.5h-604zM774 139h328q41 0 64.5 24t23.5 64t-23.5 63t-64.5 23h-328q-41 0 -64.5 -23t-23.5 -63t23.5 -64t64.5 -24
z" />
    <glyph glyph-name="uni1F50D" unicode="&#x1f50d;" horiz-adv-x="1882" 
d="M940 250q-296 0 -481 178t-185 461q0 139 48.5 257.5t135 202.5t211 131.5t271.5 47.5q301 0 484.5 -176t183.5 -463q0 -172 -72.5 -310.5t-204.5 -222.5l293 -508l-223 -114l-297 532q-82 -16 -164 -16zM946 481q184 0 295 113t111 295q0 184 -112 295.5t-300 111.5
q-186 0 -298 -112t-112 -295t113 -295.5t303 -112.5z" />
    <glyph glyph-name="uni1F512" unicode="&#x1f512;" horiz-adv-x="2183" 
d="M317 -59v876h228v180q0 252 146 391.5t401 139.5t400.5 -139.5t145.5 -391.5v-180h230v-876h-1551zM801 975v-158h583v158q0 73 -14 130t-46 103.5t-90.5 71.5t-141.5 25q-82 0 -140.5 -25t-90.5 -71.5t-46 -103.5t-14 -130z" />
    <glyph glyph-name="uni1F514" unicode="&#x1f514;" horiz-adv-x="2117" 
d="M254 166l20 211q1 13 3.5 24t8 22t9 17.5t14 18t15.5 16.5l19.5 19.5l21.5 21.5l92 90l45 271q25 201 127 323t252 168l30 176h295l31 -176q150 -44 253 -167t128 -324l45 -271l92 -90l17 -17l15.5 -15.5t13 -13.5t12.5 -14t9 -13t8.5 -14.5t6 -14.5t5.5 -18t3 -19
l21 -211h-668q35 -26 54.5 -65.5t19.5 -82.5v-4q0 -79 -58 -134.5t-155 -55.5q-98 0 -154.5 55.5t-56.5 134.5v4q0 43 19.5 82.5t54.5 65.5h-668z" />
    <glyph glyph-name="uni1F517" unicode="&#x1f517;" horiz-adv-x="2994" 
d="M813 -31q-272 129 -415.5 307t-143.5 424q0 162 61.5 304.5t172 247.5t274.5 166t358 61q200 0 364 -54.5t271 -148.5t165 -218.5t58 -266.5q0 -112 -28 -218l-254 -34q30 88 30 221q0 225 -164.5 356t-433.5 131q-137 0 -253 -42.5t-194 -115t-121.5 -169t-43.5 -203.5
q0 -196 127 -340t379 -258zM1886 -43q-200 0 -364 54.5t-271 148.5t-165 218.5t-58 266.5q0 99 31 217l252 35q-31 -91 -31 -221q0 -224 165.5 -356t432.5 -132q137 0 253 42.5t194 115t121.5 169.5t43.5 204q0 190 -125.5 333.5t-377.5 264.5l208 149q178 -89 299 -192
t191 -240t70 -299t-62 -304.5t-173 -247.5t-275 -165.5t-359 -60.5z" />
    <glyph glyph-name="uni1F553" unicode="&#x1f553;" horiz-adv-x="2207" 
d="M1104 -94q-256 0 -448 100t-295 283.5t-103 427.5q0 368 229.5 589.5t616.5 221.5q389 0 617.5 -220.5t228.5 -590.5q0 -368 -229.5 -589.5t-616.5 -221.5zM1006 629l546 -350v237l-338 215v531h-208v-633z" />
    <glyph glyph-name="uni1F5DD" unicode="&#x1f5dd;" horiz-adv-x="1746" 
d="M1350 487v-421l-400 6v-154h-225v860q-134 13 -236.5 55t-166.5 122t-64 188q0 93 47.5 167.5t128.5 121.5t184.5 71.5t219.5 24.5t219 -24.5t184 -71t128.5 -121t47.5 -168.5q0 -81 -36.5 -147t-101.5 -110t-148 -71t-181 -37v-297zM838 1317q-159 0 -248.5 -50
t-89.5 -124q0 -72 89 -120t249 -48q158 0 248 48t90 120q0 74 -90 124t-248 50z" />
    <glyph glyph-name="uni1F6AB" unicode="&#x1f6ab;" horiz-adv-x="2207" 
d="M1104 -94q-256 0 -448 100t-295 283.5t-103 427.5q0 368 229.5 589.5t616.5 221.5q389 0 617.5 -220.5t228.5 -590.5q0 -368 -229.5 -589.5t-616.5 -221.5zM506 711q0 -189 78 -324l876 830q-148 90 -356 90q-280 0 -439 -160t-159 -436zM1104 127q280 0 439 160t159 436
q0 186 -78 324l-874 -830q143 -90 354 -90z" />
    <glyph glyph-name="uni1F6D2" unicode="&#x1f6d2;" horiz-adv-x="2205" 
d="M156 1280l10 213h444l70 -328h1198l-102 -590l-1198 -106l-166 811h-256zM684 -23q-93 0 -147 55.5t-54 135.5v2q0 80 54 134t147 54q92 0 145.5 -54t53.5 -134v-2q0 -80 -53.5 -135.5t-145.5 -55.5zM1630 -23q-93 0 -145.5 55t-52.5 136v2q0 80 52.5 134t145.5 54
t146 -54t53 -134v-2q0 -81 -53 -136t-146 -55z" />
    <glyph glyph-name="uni1F6E1" unicode="&#x1f6e1;" horiz-adv-x="2088" 
d="M1034 -109q-137 79 -244 158.5t-201 178t-155 205.5t-96 239.5t-35 281.5q0 208 66 457q178 59 337.5 91t337.5 32t338.5 -32t337.5 -91q66 -249 66 -457q0 -149 -35 -281.5t-96 -239.5t-155 -205.5t-201 -178t-244 -158.5h-21z" />
    <glyph glyph-name="NUL" horiz-adv-x="0" 
 />
    <glyph glyph-name="j.alt" horiz-adv-x="620" 
d="M311 1264q-75 0 -120.5 43.5t-45.5 105.5q0 64 45 107t119 43t119 -43t45 -107q0 -62 -44.5 -105.5t-117.5 -43.5zM184 -457v1555h250v-1458z" />
    <glyph glyph-name="a.sc" horiz-adv-x="1540" 
d="M92 0l447 1206h462l447 -1206h-260l-101 272h-638l-97 -272h-260zM713 989l-191 -508h490l-185 508h-114z" />
    <glyph glyph-name="b.sc" horiz-adv-x="1515" 
d="M227 0v1206h713q199 0 306.5 -77t107.5 -226q0 -217 -226 -276q129 -45 189.5 -113.5t60.5 -175.5q0 -338 -471 -338h-680zM473 711h418q108 0 161.5 35.5t53.5 111.5q0 137 -205 137h-428v-284zM473 211l438 2q114 1 166.5 38.5t52.5 117.5q0 151 -227 151h-430v-309z
" />
    <glyph glyph-name="c.sc" horiz-adv-x="1449" 
d="M815 -31q-167 0 -298 49.5t-212 137t-122.5 200.5t-41.5 246q0 130 46.5 244t132 200.5t218 136.5t293.5 50q279 0 469 -146v-245h-2q-232 170 -467 170q-193 0 -313.5 -117t-120.5 -293q0 -185 111 -298.5t323 -113.5q229 0 467 168h2v-247q-84 -57 -210 -99.5
t-275 -42.5z" />
    <glyph glyph-name="d.sc" horiz-adv-x="1589" 
d="M227 0v1206h592q297 0 463 -160t166 -442q0 -281 -166.5 -442.5t-462.5 -161.5h-592zM479 217h316q200 0 297.5 95t97.5 288q0 389 -393 389h-318v-772z" />
    <glyph glyph-name="e.sc" horiz-adv-x="1431" 
d="M227 0v1206h1028l11 -213h-787v-282h633v-205h-633v-293h817l-10 -213h-1059z" />
    <glyph glyph-name="f.sc" horiz-adv-x="1372" 
d="M227 0v1206h1016l10 -217h-774v-303h654v-217h-654v-469h-252z" />
    <glyph glyph-name="g.sc" horiz-adv-x="1583" 
d="M817 -33q-164 0 -295 49.5t-213 135.5t-125 198t-43 242q0 134 47 250t134 203.5t221 137.5t299 50q148 0 271 -40t208 -106v-245h-2q-238 170 -483 170q-202 0 -320.5 -117t-118.5 -301q0 -183 112 -296.5t325 -113.5q175 0 276.5 83t103.5 218h-458v205h702
q2 -25 2 -102q0 -134 -35.5 -240.5t-95.5 -176.5t-143.5 -117t-174.5 -67t-194 -20z" />
    <glyph glyph-name="h.sc" horiz-adv-x="1646" 
d="M227 0v1206h252v-491h690v491h250v-1206h-250v500h-690v-500h-252z" />
    <glyph glyph-name="i.sc" horiz-adv-x="718" 
d="M233 0v1206h250v-1206h-250z" />
    <glyph glyph-name="j.sc" horiz-adv-x="1329" 
d="M608 -29q-253 0 -454 129v250h2q216 -160 448 -160q266 0 266 234v569h-495l8 213h737v-815q0 -212 -132.5 -316t-379.5 -104z" />
    <glyph glyph-name="k.sc" horiz-adv-x="1523" 
d="M227 0v1206h252v-483h230l428 483h288v-2l-518 -577l543 -625v-2h-301l-451 508h-219v-508h-252z" />
    <glyph glyph-name="l.sc" horiz-adv-x="1290" 
d="M227 0v1206h252v-985h725l-10 -221h-967z" />
    <glyph glyph-name="m.sc" horiz-adv-x="1900" 
d="M227 0v1206h293l434 -725l424 725h295v-1206h-241v846h-13l-463 -774h-16l-459 768h-12v-840h-242z" />
    <glyph glyph-name="n.sc" horiz-adv-x="1646" 
d="M227 0v1206h287l647 -844h13v844h243v-1206h-268l-664 866h-12v-866h-246z" />
    <glyph glyph-name="o.sc" horiz-adv-x="1652" 
d="M823 -41q-311 0 -496.5 173t-185.5 466q0 292 188 468.5t498 176.5q312 0 498 -173t186 -466q0 -292 -188 -468.5t-500 -176.5zM827 184q195 0 311.5 110t116.5 306q0 195 -118.5 307.5t-311.5 112.5q-196 0 -312 -111t-116 -307q0 -195 117.5 -306.5t312.5 -111.5z" />
    <glyph glyph-name="p.sc" horiz-adv-x="1454" 
d="M227 0v1206h666q222 0 338.5 -113t116.5 -315q0 -218 -129.5 -330t-350.5 -112h-389v-336h-252zM479 553h391q115 0 170.5 59t55.5 158q0 221 -230 221h-387v-438z" />
    <glyph glyph-name="q.sc" horiz-adv-x="1665" 
d="M823 -41q-311 0 -496.5 173t-185.5 466q0 292 188 468.5t498 176.5q312 0 498 -173t186 -466q0 -195 -94 -346l119 -82v-248h-2l-258 174q-186 -143 -453 -143zM827 176q158 0 263 60l-357 235l121 168l371 -248q37 84 37 209q0 196 -119 308t-318 112q-196 0 -312 -111
t-116 -307q0 -200 117 -313t313 -113z" />
    <glyph glyph-name="r.sc" horiz-adv-x="1513" 
d="M227 0v1206h600q265 0 396 -96.5t131 -308.5q0 -154 -78 -245.5t-238 -135.5l392 -412v-8h-314l-340 385h-297v-385h-252zM479 600h373q130 0 190 48t60 149q0 99 -60.5 147.5t-189.5 48.5h-373v-393z" />
    <glyph glyph-name="s.sc" horiz-adv-x="1386" 
d="M731 -33q-148 0 -300 37t-261 96v242h2q124 -71 281.5 -114.5t277.5 -43.5q287 0 287 142q0 24 -5.5 41t-23 32.5t-41 27t-67.5 25t-94 25.5t-130 29q-72 15 -119 26.5t-102 28.5t-89.5 34.5t-69.5 43t-54 56t-31 71t-12 90.5q0 80 32.5 147.5t97 120t170 82t241.5 29.5
q126 0 252 -31.5t227 -83.5v-243h-2q-246 141 -496 141q-130 0 -199 -37.5t-69 -103.5q1 -63 67 -93t290 -75q91 -19 157.5 -38t130 -49t103 -67t63 -89.5t23.5 -119.5q0 -53 -10.5 -100t-45 -100.5t-91 -91t-157 -62.5t-233.5 -25z" />
    <glyph glyph-name="t.sc" horiz-adv-x="1419" 
d="M586 0v985h-475l8 221h1181l9 -221h-475v-985h-248z" />
    <glyph glyph-name="u.sc" horiz-adv-x="1589" 
d="M788 -29q-101 0 -187 17t-159.5 55t-125 95t-80.5 141t-29 190v737h252v-725q0 -63 18 -112.5t48.5 -82t73.5 -54t91 -30.5t103 -9q71 0 129.5 14.5t107.5 46t76 87.5t27 132v733h249v-729q0 -108 -30 -194t-82.5 -144t-128 -96t-163 -55t-190.5 -17z" />
    <glyph glyph-name="v.sc" horiz-adv-x="1511" 
d="M541 0l-447 1206h268l357 -979h78l354 979h264l-444 -1206h-430z" />
    <glyph glyph-name="w.sc" horiz-adv-x="2181" 
d="M473 0l-364 1206h270l250 -911h35l329 911h211l328 -911h33l252 911h256l-363 -1206h-299l-313 868h-6l-316 -868h-303z" />
    <glyph glyph-name="x.sc" horiz-adv-x="1501" 
d="M78 0v2l510 616l-484 586v2h295l359 -426l350 426h289v-2l-484 -583l510 -619v-2h-297l-381 459l-380 -459h-287z" />
    <glyph glyph-name="y.sc" horiz-adv-x="1472" 
d="M612 0v408l-559 796v2h289l391 -573h15l393 573h278v-2l-555 -792v-412h-252z" />
    <glyph glyph-name="z.sc" horiz-adv-x="1458" 
d="M164 0v233l803 756h-783l11 217h1108v-209l-824 -780h824v-217h-1139z" />
    <glyph glyph-name="aacute.sc" horiz-adv-x="1540" 
d="M618 1386l252 336h328v-12l-346 -324h-234zM92 0l447 1206h462l447 -1206h-260l-101 272h-638l-97 -272h-260zM713 989l-191 -508h490l-185 508h-114z" />
    <glyph glyph-name="abreve.sc" horiz-adv-x="1540" 
d="M774 1370q-179 0 -282 77t-103 222q0 45 12 100h201q-6 -37 -6 -63q0 -150 178 -150t178 148q0 32 -8 65h203q10 -62 10 -102q0 -144 -102.5 -220.5t-280.5 -76.5zM92 0l447 1206h462l447 -1206h-260l-101 272h-638l-97 -272h-260zM713 989l-191 -508h490l-185 508h-114z
" />
    <glyph glyph-name="acircumflex.sc" horiz-adv-x="1540" 
d="M326 1386l282 363h332l283 -363h-258l-152 193h-78l-151 -193h-258zM92 0l447 1206h462l447 -1206h-260l-101 272h-638l-97 -272h-260zM713 989l-191 -508h490l-185 508h-114z" />
    <glyph glyph-name="adieresis.sc" horiz-adv-x="1540" 
d="M514 1376q-70 0 -113 42t-43 100v2q0 59 42.5 99t111.5 40q71 0 113.5 -40t42.5 -99v-2q0 -58 -42.5 -100t-111.5 -42zM1036 1376q-69 0 -111 42t-42 100v2q0 59 41.5 99t111.5 40q71 0 112.5 -40t41.5 -99v-2q0 -58 -42 -100t-112 -42zM92 0l447 1206h462l447 -1206
h-260l-101 272h-638l-97 -272h-260zM713 989l-191 -508h490l-185 508h-114z" />
    <glyph glyph-name="ae.sc" horiz-adv-x="2275" 
d="M1071 0v287h-567l-172 -287h-275l744 1206h1298l10 -213h-786v-282h633v-205h-633v-293h817l-10 -213h-1059zM940 993l-307 -497h438v497h-131z" />
    <glyph glyph-name="aeacute.sc" horiz-adv-x="2275" 
d="M1100 1386l252 336h327v-12l-346 -324h-233zM1071 0v287h-567l-172 -287h-275l744 1206h1298l10 -213h-786v-282h633v-205h-633v-293h817l-10 -213h-1059zM940 993l-307 -497h438v497h-131z" />
    <glyph glyph-name="agrave.sc" horiz-adv-x="1540" 
d="M928 1386h-234l-346 324v12h328zM92 0l447 1206h462l447 -1206h-260l-101 272h-638l-97 -272h-260zM713 989l-191 -508h490l-185 508h-114z" />
    <glyph glyph-name="amacron.sc" horiz-adv-x="1540" 
d="M389 1419v193h770v-193h-770zM92 0l447 1206h462l447 -1206h-260l-101 272h-638l-97 -272h-260zM713 989l-191 -508h490l-185 508h-114z" />
    <glyph glyph-name="aogonek.sc" horiz-adv-x="1540" 
d="M92 0l447 1206h462l447 -1206l-113 -109q-89 -87 -120 -127t-31 -79q0 -43 35.5 -67t103.5 -24q81 0 170 44v-191q-107 -39 -219 -39q-93 0 -159.5 21.5t-99.5 58t-47 74t-14 80.5q0 83 54.5 161t169.5 179l12 10l-103 280h-638l-97 -272h-260zM713 989l-191 -508h490
l-185 508h-114z" />
    <glyph glyph-name="aring.sc" horiz-adv-x="1540" 
d="M772 1370q-160 0 -251 78t-91 215t92 218t252 81q161 0 253.5 -79.5t92.5 -217.5q0 -135 -93.5 -215t-254.5 -80zM774 1520q77 0 122.5 39t45.5 106t-46.5 107t-123.5 40q-76 0 -123 -39.5t-47 -107.5q0 -67 47.5 -106t124.5 -39zM92 0l447 1206h462l447 -1206h-260
l-101 272h-638l-97 -272h-260zM713 989l-191 -508h490l-185 508h-114z" />
    <glyph glyph-name="aringacute.sc" horiz-adv-x="1540" 
d="M618 2095l252 336h328v-12l-346 -324h-234zM772 1370q-160 0 -251 78t-91 215t92 218t252 81q161 0 253.5 -79.5t92.5 -217.5q0 -135 -93.5 -215t-254.5 -80zM774 1520q77 0 122.5 39t45.5 106t-46.5 107t-123.5 40q-76 0 -123 -39.5t-47 -107.5q0 -67 47.5 -106
t124.5 -39zM92 0l447 1206h462l447 -1206h-260l-101 272h-638l-97 -272h-260zM713 989l-191 -508h490l-185 508h-114z" />
    <glyph glyph-name="atilde.sc" horiz-adv-x="1540" 
d="M604 1679q51 0 90.5 -13.5t112.5 -51.5q62 -32 88 -41.5t53 -9.5q47 0 92.5 31.5t108.5 109.5h2v-236q-93 -104 -207 -104q-51 0 -90 13.5t-113 52.5q-62 32 -88 41.5t-53 9.5q-46 0 -92.5 -32.5t-108.5 -109.5h-2v236q93 104 207 104zM92 0l447 1206h462l447 -1206h-260
l-101 272h-638l-97 -272h-260zM713 989l-191 -508h490l-185 508h-114z" />
    <glyph glyph-name="cacute.sc" horiz-adv-x="1449" 
d="M637 1413l252 336h328v-12l-347 -324h-233zM815 -31q-167 0 -298 49.5t-212 137t-122.5 200.5t-41.5 246q0 130 46.5 244t132 200.5t218 136.5t293.5 50q279 0 469 -146v-245h-2q-232 170 -467 170q-193 0 -313.5 -117t-120.5 -293q0 -185 111 -298.5t323 -113.5
q229 0 467 168h2v-247q-84 -57 -210 -99.5t-275 -42.5z" />
    <glyph glyph-name="ccaron.sc" horiz-adv-x="1449" 
d="M1249 1776l-282 -363h-332l-283 363h258l152 -193h78l151 193h258zM815 -31q-167 0 -298 49.5t-212 137t-122.5 200.5t-41.5 246q0 130 46.5 244t132 200.5t218 136.5t293.5 50q279 0 469 -146v-245h-2q-232 170 -467 170q-193 0 -313.5 -117t-120.5 -293
q0 -185 111 -298.5t323 -113.5q229 0 467 168h2v-247q-84 -57 -210 -99.5t-275 -42.5z" />
    <glyph glyph-name="ccedilla.sc" horiz-adv-x="1449" 
d="M426 -383v12l293 344q-144 14 -255.5 68t-181.5 139t-105.5 192t-35.5 230q0 130 46.5 244t132 200.5t218 136.5t293.5 50q279 0 469 -146v-245h-2q-232 170 -467 170q-193 0 -313.5 -117t-120.5 -293q0 -185 111 -298.5t323 -113.5q229 0 467 168h2v-247
q-149 -102 -354 -131l-201 -363h-319z" />
    <glyph glyph-name="cdotaccent.sc" horiz-adv-x="1449" 
d="M801 1403q-74 0 -119 43.5t-45 105.5v2q0 62 44.5 105t117.5 43q76 0 121 -43t45 -105v-2q0 -62 -45 -105.5t-119 -43.5zM815 -31q-167 0 -298 49.5t-212 137t-122.5 200.5t-41.5 246q0 130 46.5 244t132 200.5t218 136.5t293.5 50q279 0 469 -146v-245h-2
q-232 170 -467 170q-193 0 -313.5 -117t-120.5 -293q0 -185 111 -298.5t323 -113.5q229 0 467 168h2v-247q-84 -57 -210 -99.5t-275 -42.5z" />
    <glyph glyph-name="dcaron.sc" horiz-adv-x="1589" 
d="M1217 1749l-283 -363h-332l-283 363h259l151 -193h78l151 193h259zM227 0v1206h592q297 0 463 -160t166 -442q0 -281 -166.5 -442.5t-462.5 -161.5h-592zM479 217h316q200 0 297.5 95t97.5 288q0 389 -393 389h-318v-772z" />
    <glyph glyph-name="dcroat.sc" horiz-adv-x="1648" 
d="M289 0v514h-197l17 186h180v506h592q295 0 460.5 -160t165.5 -442q0 -281 -165.5 -442.5t-460.5 -161.5h-592zM541 217h315q395 0 395 383q0 389 -395 389h-315v-289h354v-186h-354v-297z" />
    <glyph glyph-name="eth.sc" horiz-adv-x="1648" 
d="M289 0v514h-197l17 186h180v506h592q295 0 460.5 -160t165.5 -442q0 -281 -165.5 -442.5t-460.5 -161.5h-592zM541 217h315q395 0 395 383q0 389 -395 389h-315v-289h354v-186h-354v-297z" />
    <glyph glyph-name="eacute.sc" horiz-adv-x="1431" 
d="M590 1386l252 336h327v-12l-346 -324h-233zM227 0v1206h1028l11 -213h-787v-282h633v-205h-633v-293h817l-10 -213h-1059z" />
    <glyph glyph-name="ebreve.sc" horiz-adv-x="1431" 
d="M754 1370q-179 0 -282 77t-103 222q0 45 12 100h201q-7 -44 -7 -63q0 -150 179 -150q178 0 178 148q0 32 -8 65h202q11 -68 11 -102q0 -144 -102.5 -220.5t-280.5 -76.5zM227 0v1206h1028l11 -213h-787v-282h633v-205h-633v-293h817l-10 -213h-1059z" />
    <glyph glyph-name="ecaron.sc" horiz-adv-x="1431" 
d="M1202 1749l-282 -363h-332l-283 363h258l152 -193h78l151 193h258zM227 0v1206h1028l11 -213h-787v-282h633v-205h-633v-293h817l-10 -213h-1059z" />
    <glyph glyph-name="ecircumflex.sc" horiz-adv-x="1431" 
d="M305 1386l283 363h332l282 -363h-258l-151 193h-78l-152 -193h-258zM227 0v1206h1028l11 -213h-787v-282h633v-205h-633v-293h817l-10 -213h-1059z" />
    <glyph glyph-name="edieresis.sc" horiz-adv-x="1431" 
d="M494 1376q-70 0 -113 42t-43 100v2q0 59 42.5 99t111.5 40q71 0 113 -40t42 -99v-2q0 -58 -42 -100t-111 -42zM1016 1376q-69 0 -111.5 42t-42.5 100v2q0 59 42 99t112 40q71 0 112 -40t41 -99v-2q0 -59 -41.5 -100.5t-111.5 -41.5zM227 0v1206h1028l11 -213h-787v-282
h633v-205h-633v-293h817l-10 -213h-1059z" />
    <glyph glyph-name="edotaccent.sc" horiz-adv-x="1431" 
d="M754 1376q-74 0 -119 44t-45 106v2q0 62 44.5 104.5t117.5 42.5q76 0 121 -42.5t45 -104.5v-2q0 -62 -45 -106t-119 -44zM227 0v1206h1028l11 -213h-787v-282h633v-205h-633v-293h817l-10 -213h-1059z" />
    <glyph glyph-name="egrave.sc" horiz-adv-x="1431" 
d="M918 1386h-234l-346 324v12h328zM227 0v1206h1028l11 -213h-787v-282h633v-205h-633v-293h817l-10 -213h-1059z" />
    <glyph glyph-name="emacron.sc" horiz-adv-x="1431" 
d="M369 1419v193h770v-193h-770zM227 0v1206h1028l11 -213h-787v-282h633v-205h-633v-293h817l-10 -213h-1059z" />
    <glyph glyph-name="eogonek.sc" horiz-adv-x="1431" 
d="M227 0v1206h1028l11 -213h-787v-282h633v-205h-633v-293h817l-10 -213l-112 -109q-90 -87 -121 -127t-31 -79q0 -43 35.5 -67t103.5 -24q81 0 170 44v-191q-107 -39 -219 -39q-75 0 -133.5 15t-92.5 38t-56 55t-29.5 62.5t-7.5 63.5q0 83 54 161.5t169 178.5l20 18h-809z
" />
    <glyph glyph-name="gbreve.sc" horiz-adv-x="1583" 
d="M801 1397q-179 0 -282 77t-103 222q0 44 12 100h201q-6 -38 -6 -63q0 -150 178 -150t178 148q0 32 -8 65h203q10 -62 10 -102q0 -144 -102.5 -220.5t-280.5 -76.5zM817 -33q-164 0 -295 49.5t-213 135.5t-125 198t-43 242q0 134 47 250t134 203.5t221 137.5t299 50
q148 0 271 -40t208 -106v-245h-2q-238 170 -483 170q-202 0 -320.5 -117t-118.5 -301q0 -183 112 -296.5t325 -113.5q175 0 276.5 83t103.5 218h-458v205h702q2 -25 2 -102q0 -134 -35.5 -240.5t-95.5 -176.5t-143.5 -117t-174.5 -67t-194 -20z" />
    <glyph glyph-name="uni0123.sc" horiz-adv-x="1583" 
d="M817 -33q-164 0 -295 49.5t-213 135.5t-125 198t-43 242q0 134 47 250t134 203.5t221 137.5t299 50q148 0 271 -40t208 -106v-245h-2q-238 170 -483 170q-202 0 -320.5 -117t-118.5 -301q0 -183 112 -296.5t325 -113.5q175 0 276.5 83t103.5 218h-458v205h702
q2 -25 2 -102q0 -134 -35.5 -240.5t-95.5 -176.5t-143.5 -117t-174.5 -67t-194 -20zM557 -649l131 420h287v-25l-260 -395h-158z" />
    <glyph glyph-name="gdotaccent.sc" horiz-adv-x="1583" 
d="M803 1403q-74 0 -119 43.5t-45 105.5v2q0 62 44.5 105t117.5 43q76 0 121 -43t45 -105v-2q0 -62 -45 -105.5t-119 -43.5zM817 -33q-164 0 -295 49.5t-213 135.5t-125 198t-43 242q0 134 47 250t134 203.5t221 137.5t299 50q148 0 271 -40t208 -106v-245h-2
q-238 170 -483 170q-202 0 -320.5 -117t-118.5 -301q0 -183 112 -296.5t325 -113.5q175 0 276.5 83t103.5 218h-458v205h702q2 -25 2 -102q0 -134 -35.5 -240.5t-95.5 -176.5t-143.5 -117t-174.5 -67t-194 -20z" />
    <glyph glyph-name="hbar.sc" horiz-adv-x="1769" 
d="M289 0v850h-197l8 184h189v172h252v-182h690v182h250v-172h186l10 -184h-196v-850h-250v449h-690v-449h-252zM541 666h690v194h-690v-194z" />
    <glyph glyph-name="iacute.sc" horiz-adv-x="718" 
d="M244 1386l252 336h327v-12l-346 -324h-233zM233 0v1206h250v-1206h-250z" />
    <glyph glyph-name="ibreve.sc" horiz-adv-x="718" 
d="M358 1370q-179 0 -282 77t-103 222q0 40 13 100h200q-6 -37 -6 -63q0 -150 178 -150q179 0 179 148q0 28 -9 65h203q10 -62 10 -102q0 -144 -102.5 -220.5t-280.5 -76.5zM233 0v1206h250v-1206h-250z" />
    <glyph glyph-name="icircumflex.sc" horiz-adv-x="718" 
d="M-90 1386l283 363h331l283 -363h-258l-152 193h-78l-151 -193h-258zM233 0v1206h250v-1206h-250z" />
    <glyph glyph-name="idieresis.sc" horiz-adv-x="718" 
d="M98 1376q-69 0 -112 42t-43 100v2q0 59 42 99t111 40q71 0 113.5 -40t42.5 -99v-2q0 -58 -42.5 -100t-111.5 -42zM621 1376q-69 0 -111.5 42t-42.5 100v2q0 59 42 99t112 40q71 0 112 -40t41 -99v-2q0 -59 -41.5 -100.5t-111.5 -41.5zM233 0v1206h250v-1206h-250z" />
    <glyph glyph-name="idotaccent.sc" horiz-adv-x="718" 
d="M358 1376q-74 0 -118.5 43.5t-44.5 106.5v2q0 62 44 104.5t117 42.5q76 0 121 -42.5t45 -104.5v-2q0 -62 -45 -106t-119 -44zM233 0v1206h250v-1206h-250z" />
    <glyph glyph-name="dotlessi.sc" horiz-adv-x="718" 
d="M233 0v1206h250v-1206h-250z" />
    <glyph glyph-name="igrave.sc" horiz-adv-x="718" 
d="M475 1386h-233l-346 324v12h327zM233 0v1206h250v-1206h-250z" />
    <glyph glyph-name="imacron.sc" horiz-adv-x="718" 
d="M-27 1419v193h770v-193h-770zM233 0v1206h250v-1206h-250z" />
    <glyph glyph-name="iogonek.sc" horiz-adv-x="718" 
d="M528 -553q-107 -39 -219 -39q-75 0 -133.5 15t-92.5 38t-56 55t-29.5 62.5t-7.5 63.5q0 83 54 161.5t169 178.5l20 18v1206h250v-1206l-112 -109q-90 -87 -121 -127t-31 -79q0 -43 35.5 -67t103.5 -24q81 0 170 44v-191z" />
    <glyph glyph-name="uni0137.sc" horiz-adv-x="1523" 
d="M227 0v1206h252v-483h230l428 483h288v-2l-518 -577l543 -625v-2h-301l-451 508h-219v-508h-252zM510 -567l131 420h287v-25l-260 -395h-158z" />
    <glyph glyph-name="lacute.sc" horiz-adv-x="1290" 
d="M238 1386l251 336h328v-12l-346 -324h-233zM227 0v1206h252v-985h725l-10 -221h-967z" />
    <glyph glyph-name="lcaron.sc" horiz-adv-x="1290" 
d="M227 0v1206h252v-985h725l-10 -221h-967zM688 846v358h264v-24l-121 -334h-143z" />
    <glyph glyph-name="uni013C.sc" horiz-adv-x="1290" 
d="M227 0v1206h252v-985h725l-10 -221h-967zM455 -616l131 419h286v-24l-260 -395h-157z" />
    <glyph glyph-name="ldot.sc" horiz-adv-x="1294" 
d="M227 0v1206h252v-985h725l-10 -221h-967zM1001 586q-74 0 -118.5 43.5t-44.5 105.5q0 64 44 107t117 43q76 0 121 -43t45 -107q0 -62 -45 -105.5t-119 -43.5z" />
    <glyph glyph-name="lslash.sc" horiz-adv-x="1359" 
d="M295 0v401l-197 -96v213l197 98v590h250v-465l434 217v-213l-434 -219v-305h725l-8 -221h-967z" />
    <glyph glyph-name="nacute.sc" horiz-adv-x="1646" 
d="M684 1335l252 336h328v-12l-346 -324h-234zM227 0v1206h287l647 -844h13v844h243v-1206h-268l-664 866h-12v-866h-246z" />
    <glyph glyph-name="ncaron.sc" horiz-adv-x="1646" 
d="M1296 1698l-282 -363h-332l-283 363h258l152 -193h78l151 193h258zM227 0v1206h287l647 -844h13v844h243v-1206h-268l-664 866h-12v-866h-246z" />
    <glyph glyph-name="uni0146.sc" horiz-adv-x="1646" 
d="M227 0v1206h287l647 -844h13v844h243v-1206h-268l-664 866h-12v-866h-246zM547 -565l131 420h287v-25l-260 -395h-158z" />
    <glyph glyph-name="ntilde.sc" horiz-adv-x="1646" 
d="M678 1679q51 0 90.5 -13.5t112.5 -51.5q62 -32 88 -41.5t53 -9.5q47 0 92.5 31.5t108.5 109.5h2v-236q-93 -104 -207 -104q-51 0 -90 13.5t-113 52.5q-62 32 -88 41.5t-53 9.5q-46 0 -92.5 -32.5t-108.5 -109.5h-2v236q93 104 207 104zM227 0v1206h287l647 -844h13v844
h243v-1206h-268l-664 866h-12v-866h-246z" />
    <glyph glyph-name="oacute.sc" horiz-adv-x="1652" 
d="M662 1423l251 336h328v-12l-346 -324h-233zM823 -41q-311 0 -496.5 173t-185.5 466q0 292 188 468.5t498 176.5q312 0 498 -173t186 -466q0 -292 -188 -468.5t-500 -176.5zM827 184q195 0 311.5 110t116.5 306q0 195 -118.5 307.5t-311.5 112.5q-196 0 -312 -111
t-116 -307q0 -195 117.5 -306.5t312.5 -111.5z" />
    <glyph glyph-name="obreve.sc" horiz-adv-x="1652" 
d="M825 1407q-179 0 -282 77t-103 222q0 40 13 100h200q-6 -38 -6 -63q0 -150 178 -150q179 0 179 148q0 27 -9 65h203q10 -62 10 -102q0 -144 -102.5 -220.5t-280.5 -76.5zM823 -41q-311 0 -496.5 173t-185.5 466q0 292 188 468.5t498 176.5q312 0 498 -173t186 -466
q0 -292 -188 -468.5t-500 -176.5zM827 184q195 0 311.5 110t116.5 306q0 195 -118.5 307.5t-311.5 112.5q-196 0 -312 -111t-116 -307q0 -195 117.5 -306.5t312.5 -111.5z" />
    <glyph glyph-name="ocircumflex.sc" horiz-adv-x="1652" 
d="M377 1423l282 363h332l283 -363h-258l-152 193h-78l-151 -193h-258zM823 -41q-311 0 -496.5 173t-185.5 466q0 292 188 468.5t498 176.5q312 0 498 -173t186 -466q0 -292 -188 -468.5t-500 -176.5zM827 184q195 0 311.5 110t116.5 306q0 195 -118.5 307.5t-311.5 112.5
q-196 0 -312 -111t-116 -307q0 -195 117.5 -306.5t312.5 -111.5z" />
    <glyph glyph-name="odieresis.sc" horiz-adv-x="1652" 
d="M565 1413q-70 0 -112.5 41.5t-42.5 99.5v2q0 59 42 99.5t111 40.5q71 0 113.5 -40.5t42.5 -99.5v-2q0 -58 -42.5 -99.5t-111.5 -41.5zM1087 1413q-69 0 -111 41.5t-42 99.5v2q0 59 41.5 99.5t111.5 40.5q71 0 112.5 -40.5t41.5 -99.5v-2q0 -58 -41.5 -99.5t-112.5 -41.5z
M823 -41q-311 0 -496.5 173t-185.5 466q0 292 188 468.5t498 176.5q312 0 498 -173t186 -466q0 -292 -188 -468.5t-500 -176.5zM827 184q195 0 311.5 110t116.5 306q0 195 -118.5 307.5t-311.5 112.5q-196 0 -312 -111t-116 -307q0 -195 117.5 -306.5t312.5 -111.5z" />
    <glyph glyph-name="oe.sc" horiz-adv-x="2312" 
d="M141 602q0 281 166 442.5t461 161.5h1370l8 -213h-786v-282h633v-205h-633v-293h817l-8 -213h-1401q-295 0 -461 160t-166 442zM1110 989h-317q-198 0 -296 -95t-98 -290q0 -387 394 -387h317v772z" />
    <glyph glyph-name="ograve.sc" horiz-adv-x="1652" 
d="M989 1423h-233l-346 324v12h327zM823 -41q-311 0 -496.5 173t-185.5 466q0 292 188 468.5t498 176.5q312 0 498 -173t186 -466q0 -292 -188 -468.5t-500 -176.5zM827 184q195 0 311.5 110t116.5 306q0 195 -118.5 307.5t-311.5 112.5q-196 0 -312 -111t-116 -307
q0 -195 117.5 -306.5t312.5 -111.5z" />
    <glyph glyph-name="ohungarumlaut.sc" horiz-adv-x="1652" 
d="M946 1423l228 336h286v-12l-323 -324h-191zM494 1423l227 336h287v-12l-324 -324h-190zM823 -41q-311 0 -496.5 173t-185.5 466q0 292 188 468.5t498 176.5q312 0 498 -173t186 -466q0 -292 -188 -468.5t-500 -176.5zM827 184q195 0 311.5 110t116.5 306
q0 195 -118.5 307.5t-311.5 112.5q-196 0 -312 -111t-116 -307q0 -195 117.5 -306.5t312.5 -111.5z" />
    <glyph glyph-name="omacron.sc" horiz-adv-x="1652" 
d="M440 1456v193h770v-193h-770zM823 -41q-311 0 -496.5 173t-185.5 466q0 292 188 468.5t498 176.5q312 0 498 -173t186 -466q0 -292 -188 -468.5t-500 -176.5zM827 184q195 0 311.5 110t116.5 306q0 195 -118.5 307.5t-311.5 112.5q-196 0 -312 -111t-116 -307
q0 -195 117.5 -306.5t312.5 -111.5z" />
    <glyph glyph-name="oslash.sc" horiz-adv-x="1652" 
d="M823 -41q-196 0 -350 74l-129 -152h-270l233 271q-166 174 -166 446q0 292 188 468.5t498 176.5q196 0 353 -74l131 152h266l-231 -270q165 -173 165 -447q0 -292 -188 -468.5t-500 -176.5zM391 602q0 -165 86 -274l561 655q-90 43 -213 43q-198 0 -316 -112.5
t-118 -311.5zM827 176q197 0 316 113t119 311q0 165 -86 274l-562 -655q90 -43 213 -43z" />
    <glyph glyph-name="oslashacute.sc" horiz-adv-x="1652" 
d="M655 1419l252 336h328v-12l-346 -324h-234zM823 -41q-196 0 -350 74l-129 -152h-270l233 271q-166 174 -166 446q0 292 188 468.5t498 176.5q196 0 353 -74l131 152h266l-231 -270q165 -173 165 -447q0 -292 -188 -468.5t-500 -176.5zM391 602q0 -165 86 -274l561 655
q-90 43 -213 43q-198 0 -316 -112.5t-118 -311.5zM827 176q197 0 316 113t119 311q0 165 -86 274l-562 -655q90 -43 213 -43z" />
    <glyph glyph-name="otilde.sc" horiz-adv-x="1652" 
d="M655 1716q51 0 90.5 -13.5t112.5 -51.5q64 -33 89 -42.5t52 -9.5q47 0 92.5 32t108.5 110h2v-236q-93 -104 -207 -104q-51 0 -90 13.5t-112 51.5q-63 32 -89 42t-53 10q-46 0 -91.5 -32t-108.5 -110h-2v236q93 104 206 104zM823 -41q-311 0 -496.5 173t-185.5 466
q0 292 188 468.5t498 176.5q312 0 498 -173t186 -466q0 -292 -188 -468.5t-500 -176.5zM827 184q195 0 311.5 110t116.5 306q0 195 -118.5 307.5t-311.5 112.5q-196 0 -312 -111t-116 -307q0 -195 117.5 -306.5t312.5 -111.5z" />
    <glyph glyph-name="racute.sc" horiz-adv-x="1513" 
d="M625 1386l252 336h327v-12l-346 -324h-233zM227 0v1206h600q265 0 396 -96.5t131 -308.5q0 -154 -78 -245.5t-238 -135.5l392 -412v-8h-314l-340 385h-297v-385h-252zM479 600h373q130 0 190 48t60 149q0 99 -60.5 147.5t-189.5 48.5h-373v-393z" />
    <glyph glyph-name="rcaron.sc" horiz-adv-x="1513" 
d="M1237 1749l-283 -363h-331l-283 363h258l152 -193h77l152 193h258zM227 0v1206h600q265 0 396 -96.5t131 -308.5q0 -154 -78 -245.5t-238 -135.5l392 -412v-8h-314l-340 385h-297v-385h-252zM479 600h373q130 0 190 48t60 149q0 99 -60.5 147.5t-189.5 48.5h-373v-393z
" />
    <glyph glyph-name="uni0157.sc" horiz-adv-x="1513" 
d="M227 0v1206h600q265 0 396 -96.5t131 -308.5q0 -154 -78 -245.5t-238 -135.5l392 -412v-8h-314l-340 385h-297v-385h-252zM479 600h373q130 0 190 48t60 149q0 99 -60.5 147.5t-189.5 48.5h-373v-393zM479 -567l131 420h287v-25l-260 -395h-158z" />
    <glyph glyph-name="sacute.sc" horiz-adv-x="1386" 
d="M582 1415l252 336h327v-12l-346 -324h-233zM731 -33q-148 0 -300 37t-261 96v242h2q124 -71 281.5 -114.5t277.5 -43.5q287 0 287 142q0 24 -5.5 41t-23 32.5t-41 27t-67.5 25t-94 25.5t-130 29q-72 15 -119 26.5t-102 28.5t-89.5 34.5t-69.5 43t-54 56t-31 71t-12 90.5
q0 80 32.5 147.5t97 120t170 82t241.5 29.5q126 0 252 -31.5t227 -83.5v-243h-2q-246 141 -496 141q-130 0 -199 -37.5t-69 -103.5q1 -63 67 -93t290 -75q91 -19 157.5 -38t130 -49t103 -67t63 -89.5t23.5 -119.5q0 -53 -10.5 -100t-45 -100.5t-91 -91t-157 -62.5
t-233.5 -25z" />
    <glyph glyph-name="scaron.sc" horiz-adv-x="1386" 
d="M1194 1778l-283 -363h-331l-283 363h258l152 -193h77l152 193h258zM731 -33q-148 0 -300 37t-261 96v242h2q124 -71 281.5 -114.5t277.5 -43.5q287 0 287 142q0 24 -5.5 41t-23 32.5t-41 27t-67.5 25t-94 25.5t-130 29q-72 15 -119 26.5t-102 28.5t-89.5 34.5t-69.5 43
t-54 56t-31 71t-12 90.5q0 80 32.5 147.5t97 120t170 82t241.5 29.5q126 0 252 -31.5t227 -83.5v-243h-2q-246 141 -496 141q-130 0 -199 -37.5t-69 -103.5q1 -63 67 -93t290 -75q91 -19 157.5 -38t130 -49t103 -67t63 -89.5t23.5 -119.5q0 -53 -10.5 -100t-45 -100.5
t-91 -91t-157 -62.5t-233.5 -25z" />
    <glyph glyph-name="scedilla.sc" horiz-adv-x="1386" 
d="M317 -383v12l293 344q-120 12 -236.5 46t-203.5 81v242h2q124 -71 281.5 -114.5t277.5 -43.5q287 0 287 142q0 24 -5.5 41t-23 32.5t-41 27t-67.5 25t-94 25.5t-130 29q-72 15 -119 26.5t-102 28.5t-89.5 34.5t-69.5 43t-54 56t-31 71t-12 90.5q0 80 32.5 147.5t97 120
t170 82t241.5 29.5q126 0 252 -31.5t227 -83.5v-243h-2q-246 141 -496 141q-130 0 -199 -37.5t-69 -103.5q1 -63 67 -93t290 -75q91 -19 157.5 -38t130 -49t103 -67t63 -89.5t23.5 -119.5q0 -48 -9 -91.5t-37 -93t-73.5 -87t-126.5 -66t-188 -37.5l-197 -354h-320z" />
    <glyph glyph-name="uni0219.sc" horiz-adv-x="1386" 
d="M731 -33q-148 0 -300 37t-261 96v242h2q124 -71 281.5 -114.5t277.5 -43.5q287 0 287 142q0 24 -5.5 41t-23 32.5t-41 27t-67.5 25t-94 25.5t-130 29q-72 15 -119 26.5t-102 28.5t-89.5 34.5t-69.5 43t-54 56t-31 71t-12 90.5q0 80 32.5 147.5t97 120t170 82t241.5 29.5
q126 0 252 -31.5t227 -83.5v-243h-2q-246 141 -496 141q-130 0 -199 -37.5t-69 -103.5q1 -63 67 -93t290 -75q91 -19 157.5 -38t130 -49t103 -67t63 -89.5t23.5 -119.5q0 -53 -10.5 -100t-45 -100.5t-91 -91t-157 -62.5t-233.5 -25zM451 -649l131 420h286v-25l-260 -395
h-157z" />
    <glyph glyph-name="uni1E9E.sc" horiz-adv-x="1642" 
d="M479 0h-252v1206h1213v-205l-375 -331l90 -25q92 -24 158 -55t104 -62.5t59.5 -71.5t28 -75t6.5 -82q0 -157 -118.5 -243.5t-350.5 -86.5q-92 0 -199 18t-177 46v217h2q73 -33 172.5 -55.5t195.5 -22.5q224 0 224 139q0 44 -22.5 73.5t-92.5 59t-201 58.5l-137 30v160
l336 303h-664v-995z" />
    <glyph glyph-name="tcaron.sc" horiz-adv-x="1419" 
d="M1157 1749l-283 -363h-331l-283 363h258l152 -193h78l151 193h258zM586 0v985h-475l8 221h1181l9 -221h-475v-985h-248z" />
    <glyph glyph-name="uni0163.sc" horiz-adv-x="1419" 
d="M586 0v985h-475l8 221h1181l9 -221h-475v-985h-248zM428 -616l131 419h287v-24l-260 -395h-158z" />
    <glyph glyph-name="uacute.sc" horiz-adv-x="1589" 
d="M631 1337l252 336h327v-12l-346 -324h-233zM788 -29q-101 0 -187 17t-159.5 55t-125 95t-80.5 141t-29 190v737h252v-725q0 -63 18 -112.5t48.5 -82t73.5 -54t91 -30.5t103 -9q71 0 129.5 14.5t107.5 46t76 87.5t27 132v733h249v-729q0 -108 -30 -194t-82.5 -144
t-128 -96t-163 -55t-190.5 -17z" />
    <glyph glyph-name="ubreve.sc" horiz-adv-x="1589" 
d="M795 1321q-179 0 -282 77t-103 222q0 44 12 100h201q-7 -44 -7 -63q0 -150 179 -150q178 0 178 148q0 32 -8 65h202q11 -68 11 -102q0 -144 -102.5 -220.5t-280.5 -76.5zM788 -29q-101 0 -187 17t-159.5 55t-125 95t-80.5 141t-29 190v737h252v-725q0 -63 18 -112.5
t48.5 -82t73.5 -54t91 -30.5t103 -9q71 0 129.5 14.5t107.5 46t76 87.5t27 132v733h249v-729q0 -108 -30 -194t-82.5 -144t-128 -96t-163 -55t-190.5 -17z" />
    <glyph glyph-name="ucircumflex.sc" horiz-adv-x="1589" 
d="M346 1386l283 363h332l282 -363h-258l-151 193h-78l-152 -193h-258zM788 -29q-101 0 -187 17t-159.5 55t-125 95t-80.5 141t-29 190v737h252v-725q0 -63 18 -112.5t48.5 -82t73.5 -54t91 -30.5t103 -9q71 0 129.5 14.5t107.5 46t76 87.5t27 132v733h249v-729
q0 -108 -30 -194t-82.5 -144t-128 -96t-163 -55t-190.5 -17z" />
    <glyph glyph-name="udieresis.sc" horiz-adv-x="1589" 
d="M535 1376q-70 0 -113 42t-43 100v2q0 59 42 99t111 40q71 0 113.5 -40t42.5 -99v-2q0 -58 -42 -100t-111 -42zM1057 1376q-69 0 -111.5 42t-42.5 100v2q0 59 42 99t112 40q71 0 112 -40t41 -99v-2q0 -59 -41.5 -100.5t-111.5 -41.5zM788 -29q-101 0 -187 17t-159.5 55
t-125 95t-80.5 141t-29 190v737h252v-725q0 -63 18 -112.5t48.5 -82t73.5 -54t91 -30.5t103 -9q71 0 129.5 14.5t107.5 46t76 87.5t27 132v733h249v-729q0 -108 -30 -194t-82.5 -144t-128 -96t-163 -55t-190.5 -17z" />
    <glyph glyph-name="ugrave.sc" horiz-adv-x="1589" 
d="M958 1337h-233l-346 324v12h328zM788 -29q-101 0 -187 17t-159.5 55t-125 95t-80.5 141t-29 190v737h252v-725q0 -63 18 -112.5t48.5 -82t73.5 -54t91 -30.5t103 -9q71 0 129.5 14.5t107.5 46t76 87.5t27 132v733h249v-729q0 -108 -30 -194t-82.5 -144t-128 -96t-163 -55
t-190.5 -17z" />
    <glyph glyph-name="uhungarumlaut.sc" horiz-adv-x="1589" 
d="M915 1386l228 336h287v-12l-324 -324h-191zM463 1386l227 336h287v-12l-324 -324h-190zM788 -29q-101 0 -187 17t-159.5 55t-125 95t-80.5 141t-29 190v737h252v-725q0 -63 18 -112.5t48.5 -82t73.5 -54t91 -30.5t103 -9q71 0 129.5 14.5t107.5 46t76 87.5t27 132v733
h249v-729q0 -108 -30 -194t-82.5 -144t-128 -96t-163 -55t-190.5 -17z" />
    <glyph glyph-name="umacron.sc" horiz-adv-x="1589" 
d="M410 1419v193h770v-193h-770zM788 -29q-101 0 -187 17t-159.5 55t-125 95t-80.5 141t-29 190v737h252v-725q0 -63 18 -112.5t48.5 -82t73.5 -54t91 -30.5t103 -9q71 0 129.5 14.5t107.5 46t76 87.5t27 132v733h249v-729q0 -108 -30 -194t-82.5 -144t-128 -96t-163 -55
t-190.5 -17z" />
    <glyph glyph-name="uogonek.sc" horiz-adv-x="1589" 
d="M1030 -559q-107 -39 -219 -39q-93 0 -159.5 21.5t-99 57.5t-46.5 73.5t-14 80.5q0 83 53.5 161t167.5 177q-112 8 -202 40t-159.5 90.5t-107 151.5t-37.5 214v737h252v-725q0 -63 18 -112.5t48.5 -82t73.5 -54t91 -30.5t103 -9q71 0 129.5 14.5t107.5 46t76 87.5t27 132
v733h249v-729q0 -212 -107 -331t-296 -156l-107 -105q-88 -86 -119.5 -127t-31.5 -80q0 -43 35.5 -66.5t103.5 -23.5q83 0 170 43v-190z" />
    <glyph glyph-name="uring.sc" horiz-adv-x="1589" 
d="M793 1321q-160 0 -251 78t-91 215t92 218t252 81q161 0 253.5 -79.5t92.5 -217.5q0 -135 -93.5 -215t-254.5 -80zM795 1470q77 0 122.5 39.5t45.5 106.5t-46.5 107t-123.5 40q-76 0 -123 -39.5t-47 -107.5q0 -67 47.5 -106.5t124.5 -39.5zM788 -29q-101 0 -187 17
t-159.5 55t-125 95t-80.5 141t-29 190v737h252v-725q0 -63 18 -112.5t48.5 -82t73.5 -54t91 -30.5t103 -9q71 0 129.5 14.5t107.5 46t76 87.5t27 132v733h249v-729q0 -108 -30 -194t-82.5 -144t-128 -96t-163 -55t-190.5 -17z" />
    <glyph glyph-name="wacute.sc" horiz-adv-x="2181" 
d="M985 1386l252 336h328v-12l-346 -324h-234zM473 0l-364 1206h270l250 -911h35l329 911h211l328 -911h33l252 911h256l-363 -1206h-299l-313 868h-6l-316 -868h-303z" />
    <glyph glyph-name="wcircumflex.sc" horiz-adv-x="2181" 
d="M641 1386l283 363h331l283 -363h-258l-152 193h-77l-152 -193h-258zM473 0l-364 1206h270l250 -911h35l329 911h211l328 -911h33l252 911h256l-363 -1206h-299l-313 868h-6l-316 -868h-303z" />
    <glyph glyph-name="wdieresis.sc" horiz-adv-x="2181" 
d="M829 1376q-69 0 -112 42t-43 100v2q0 59 42 99t111 40q71 0 113.5 -40t42.5 -99v-2q0 -58 -42.5 -100t-111.5 -42zM1352 1376q-69 0 -111.5 42t-42.5 100v2q0 59 42 99t112 40q71 0 112 -40t41 -99v-2q0 -59 -41.5 -100.5t-111.5 -41.5zM473 0l-364 1206h270l250 -911h35
l329 911h211l328 -911h33l252 911h256l-363 -1206h-299l-313 868h-6l-316 -868h-303z" />
    <glyph glyph-name="wgrave.sc" horiz-adv-x="2181" 
d="M1217 1386h-234l-346 324v12h328zM473 0l-364 1206h270l250 -911h35l329 911h211l328 -911h33l252 911h256l-363 -1206h-299l-313 868h-6l-316 -868h-303z" />
    <glyph glyph-name="yacute.sc" horiz-adv-x="1472" 
d="M575 1337l252 336h328v-12l-346 -324h-234zM612 0v408l-559 796v2h289l391 -573h15l393 573h278v-2l-555 -792v-412h-252z" />
    <glyph glyph-name="ycircumflex.sc" horiz-adv-x="1472" 
d="M291 1386l282 363h332l283 -363h-258l-152 193h-78l-151 -193h-258zM612 0v408l-559 796v2h289l391 -573h15l393 573h278v-2l-555 -792v-412h-252z" />
    <glyph glyph-name="ydieresis.sc" horiz-adv-x="1472" 
d="M479 1376q-69 0 -112 42t-43 100v2q0 59 42 99t111 40q71 0 113.5 -40t42.5 -99v-2q0 -58 -42.5 -100t-111.5 -42zM1001 1376q-69 0 -111 42t-42 100v2q0 59 41.5 99t111.5 40q71 0 112.5 -40t41.5 -99v-2q0 -58 -41.5 -100t-112.5 -42zM612 0v408l-559 796v2h289
l391 -573h15l393 573h278v-2l-555 -792v-412h-252z" />
    <glyph glyph-name="ygrave.sc" horiz-adv-x="1472" 
d="M903 1337h-233l-346 324v12h327zM612 0v408l-559 796v2h289l391 -573h15l393 573h278v-2l-555 -792v-412h-252z" />
    <glyph glyph-name="zacute.sc" horiz-adv-x="1458" 
d="M582 1386l252 336h327v-12l-346 -324h-233zM164 0v233l803 756h-783l11 217h1108v-209l-824 -780h824v-217h-1139z" />
    <glyph glyph-name="zcaron.sc" horiz-adv-x="1458" 
d="M1194 1749l-283 -363h-331l-283 363h258l152 -193h77l152 193h258zM164 0v233l803 756h-783l11 217h1108v-209l-824 -780h824v-217h-1139z" />
    <glyph glyph-name="zdotaccent.sc" horiz-adv-x="1458" 
d="M745 1376q-74 0 -118.5 43.5t-44.5 106.5v2q0 62 44 104.5t117 42.5q76 0 121 -42.5t45 -104.5v-2q0 -62 -45 -106t-119 -44zM164 0v233l803 756h-783l11 217h1108v-209l-824 -780h824v-217h-1139z" />
    <glyph glyph-name="thorn.sc" horiz-adv-x="1468" 
d="M227 0v1206h252v-176h430q222 0 338.5 -111.5t116.5 -308.5q0 -211 -129.5 -321.5t-349.5 -110.5h-406v-178h-252zM479 393h408q113 0 169 58t56 153q0 101 -57 156t-174 55h-402v-422z" />
    <glyph glyph-name="one.alt" horiz-adv-x="829" 
d="M289 1434h252v-1434h-252v1434z" />
    <glyph glyph-name="two.alt" horiz-adv-x="1419" 
d="M768 1466q236 0 379 -105.5t143 -289.5q0 -50 -10.5 -92t-27.5 -76t-50.5 -67t-66 -58t-89 -56t-104 -54.5t-125.5 -59.5q-210 -94 -303.5 -178t-93.5 -203h858v-227h-1143v78q0 113 22.5 204t63.5 161.5t110.5 132t151 110.5t197.5 102q209 95 276.5 146.5t67.5 126.5
q0 93 -71.5 135.5t-194.5 42.5q-130 0 -274 -50t-271 -134h-2v252q273 159 557 159z" />
    <glyph glyph-name="three.alt" horiz-adv-x="1413" 
d="M1286 395q0 -130 -82.5 -228.5t-220 -149t-307.5 -50.5q-300 0 -547 103v245h2q130 -61 279 -93t260 -32q159 0 254.5 56.5t95.5 165.5t-107 157.5t-331 48.5h-123v213h123q218 0 325 57.5t107 160.5q0 194 -307 194q-242 0 -521 -135h-2v244q261 114 541 114
q246 0 393.5 -104t147.5 -283q0 -122 -81.5 -215.5t-242.5 -128.5v-4q96 -15 165.5 -48.5t107 -80.5t54.5 -97.5t17 -109.5z" />
    <glyph glyph-name="seven.alt" horiz-adv-x="1400" 
d="M401 0q38 161 92 302t109.5 246.5t136 217t147 189t167.5 186.5v71h-691v-260h-237v482h1182v-375q-88 -88 -147 -151.5t-131.5 -149t-122.5 -163t-100.5 -172t-87 -200t-61.5 -223.5h-256z" />
    <glyph glyph-name="zero.osf" horiz-adv-x="1527" 
d="M762 -39q-287 0 -462 171.5t-175 463.5q0 295 177 470t464 175q189 0 333 -76t224 -221t80 -340q0 -292 -177 -467.5t-464 -175.5zM766 176q171 0 278 112t107 312q0 201 -108 313.5t-279 112.5q-173 0 -280 -111.5t-107 -312.5q0 -200 108.5 -313t280.5 -113z" />
    <glyph glyph-name="one.osf" horiz-adv-x="942" 
d="M403 0v987h-288l35 219h503v-1206h-250z" />
    <glyph glyph-name="two.osf" horiz-adv-x="1345" 
d="M147 0v225l424 277q120 76 194 131.5t109 96t45.5 67t10.5 59.5q0 78 -61 118t-160 40q-218 0 -500 -178h-2v251q136 75 256 111.5t268 36.5q205 0 331 -97.5t126 -258.5q0 -75 -26 -137t-89 -125t-145.5 -121t-218.5 -140l-215 -137h718v-219h-1065z" />
    <glyph glyph-name="three.osf" horiz-adv-x="1288" 
d="M592 -260q-246 0 -455 74v231h2q230 -90 445 -90q152 0 244 57.5t92 171.5q0 226 -531 226h-39v139l502 438h-713l8 219h990v-239l-453 -387q487 -67 487 -398q0 -137 -79 -239t-208.5 -152.5t-291.5 -50.5z" />
    <glyph glyph-name="four.osf" horiz-adv-x="1452" 
d="M905 -233v331h-796v187l495 921h535v-901h258l-8 -207h-250v-331h-234zM375 305h530v680h-170z" />
    <glyph glyph-name="five.osf" horiz-adv-x="1290" 
d="M604 -260q-209 0 -452 67v228h2q258 -80 448 -80q163 0 245.5 72t82.5 174q0 88 -49 137q-48 48 -157 69t-339 21h-190l12 778h901l8 -219h-686l-6 -348l147 -4q310 -6 461.5 -110.5t151.5 -319.5q0 -131 -68 -235.5t-201 -167t-311 -62.5z" />
    <glyph glyph-name="six.osf" horiz-adv-x="1419" 
d="M731 -33q-277 0 -438.5 175.5t-161.5 514.5q0 373 199.5 591t529.5 218q193 0 352 -57l-2 -223h-2q-104 37 -177.5 51t-153.5 14q-219 0 -346 -122.5t-150 -329.5q196 133 420 133q101 0 189 -27.5t156 -80t107 -137t39 -191.5q0 -158 -75 -279.5t-202 -185.5t-284 -64z
M737 729q-180 0 -360 -125q1 -115 30 -199t80 -131.5t114 -69.5t140 -22q125 0 215.5 79.5t90.5 217.5q0 68 -28 118.5t-75 78t-98.5 40.5t-108.5 13z" />
    <glyph glyph-name="seven.osf" horiz-adv-x="1323" 
d="M1219 1206v-334l-621 -1105h-276l643 1142v84h-596v-256h-232v469h1082z" />
    <glyph glyph-name="eight.osf" horiz-adv-x="1421" 
d="M713 -47q-279 0 -431.5 112t-152.5 302q0 249 268 356q-109 45 -172 127.5t-63 200.5q0 87 35 163t102 134.5t173.5 92.5t240.5 34q132 0 237.5 -34t172.5 -93t102 -135t35 -162q0 -118 -63.5 -200.5t-172.5 -127.5q268 -107 268 -356q0 -191 -149 -302.5t-430 -111.5z
M713 809q131 0 214 59.5t83 169.5q0 107 -81 170.5t-216 63.5q-138 0 -219.5 -63t-81.5 -171q0 -111 83 -170t218 -59zM713 156q151 0 238 62t87 175q0 110 -90.5 173t-234.5 63q-151 0 -240.5 -61.5t-89.5 -174.5t87.5 -175t242.5 -62z" />
    <glyph glyph-name="nine.osf" horiz-adv-x="1419" 
d="M688 1235q277 0 438.5 -175.5t161.5 -514.5q0 -373 -199.5 -591t-529.5 -218q-193 0 -352 57l2 223h2q182 -65 332 -65q219 0 345.5 122.5t149.5 329.5q-196 -133 -420 -133q-101 0 -189 27.5t-156 80.5t-107 137.5t-39 191.5q0 158 75 279.5t202 185t284 63.5zM373 723
q0 -68 28 -118.5t74.5 -78t98 -40.5t108.5 -13q180 0 360 125q-1 115 -30 199t-80 131.5t-114 69.5t-140 22q-125 0 -215 -79.5t-90 -217.5z" />
    <glyph glyph-name="colon.fig" horiz-adv-x="806" 
d="M403 901q-89 0 -139.5 52t-50.5 126v2q0 75 50.5 127t139.5 52q88 0 139.5 -52.5t51.5 -126.5v-2q0 -73 -51.5 -125.5t-139.5 -52.5zM403 174q-90 0 -140 51.5t-50 126.5v2q0 75 50 125.5t140 50.5q89 0 140 -51t51 -125v-2q0 -74 -51.5 -126t-139.5 -52z" />
    <glyph glyph-name="periodcentered.cap" horiz-adv-x="806" 
d="M403 537q-89 0 -139.5 52t-50.5 126v4q0 73 50.5 124.5t139.5 51.5q88 0 139.5 -51.5t51.5 -124.5v-4q0 -73 -51.5 -125.5t-139.5 -52.5z" />
    <glyph glyph-name="ampersand.sc" horiz-adv-x="1648" 
d="M535 -31q-174 0 -278.5 82t-104.5 225q0 129 81.5 223.5t274.5 217.5l43 28l-232 228v233h963l8 -200h-688l522 -521l365 299h2v-262l-227 -184l340 -338h-301l-207 201q-166 -123 -293 -177.5t-268 -54.5zM401 305q0 -61 42 -94t110 -33q80 0 170 37t225 137l-254 252
l-32 -20q-148 -91 -204.5 -152.5t-56.5 -126.5z" />
    <glyph glyph-name="exclamdown.cap" horiz-adv-x="825" 
d="M412 1456q90 0 140 -51.5t50 -126.5v-2q0 -75 -50 -125.5t-140 -50.5q-87 0 -138 51t-51 125v2q0 74 51 126t138 52zM510 913l72 -909v-4h-338v4l71 909h195z" />
    <glyph glyph-name="questiondown.cap" horiz-adv-x="1282" 
d="M709 1456q90 0 140 -51.5t50 -126.5v-2q0 -75 -50 -125.5t-140 -50.5q-89 0 -140 51t-51 125v2q0 74 51.5 126t139.5 52zM1161 117q-282 -150 -579 -150q-89 0 -168.5 14.5t-148 46t-118 76t-78 109t-28.5 141.5q0 128 75.5 223t246.5 172t458 144h2v-223
q-128 -34 -222 -67t-151 -62t-91 -60.5t-46 -59t-12 -59.5q0 -88 79.5 -131t215.5 -43q273 0 563 183h2v-254z" />
    <glyph glyph-name="guillemotleft.cap" horiz-adv-x="1527" 
d="M780 1182l-387 -465l387 -465h-280l-389 457v16l389 457h280zM1399 1182l-389 -465l389 -465h-283l-389 457v16l389 457h283z" />
    <glyph glyph-name="guillemotright.cap" horiz-adv-x="1527" 
d="M748 252l387 465l-387 465h280l389 -457v-16l-389 -457h-280zM129 252l389 465l-389 465h283l389 -457v-16l-389 -457h-283z" />
    <glyph glyph-name="guilsinglleft.cap" horiz-adv-x="917" 
d="M786 252h-286l-389 457v16l389 457h286l-387 -465z" />
    <glyph glyph-name="guilsinglright.cap" horiz-adv-x="917" 
d="M131 1182h287l389 -457v-16l-389 -457h-287l387 465z" />
    <glyph glyph-name="hyphen.cap" horiz-adv-x="903" 
d="M121 596v242h663v-242h-663z" />
    <glyph glyph-name="endash.cap" horiz-adv-x="1447" 
d="M170 600v236h1110v-236h-1110z" />
    <glyph glyph-name="emdash.cap" horiz-adv-x="1763" 
d="M170 600v236h1425v-236h-1425z" />
    <glyph glyph-name="slash.cap" horiz-adv-x="1103" 
d="M109 -254l653 1942h233l-655 -1942h-231z" />
    <glyph glyph-name="bar.cap" horiz-adv-x="1026" 
d="M397 -254v1942h232v-1942h-232z" />
    <glyph glyph-name="backslash.cap" horiz-adv-x="1103" 
d="M995 -254h-231l-655 1942h233z" />
    <glyph glyph-name="parenleft.cap" horiz-adv-x="909" 
d="M410 717q0 -502 421 -971h-280q-206 228 -301.5 478.5t-95.5 492.5q0 240 96 490.5t301 480.5h280q-421 -469 -421 -971z" />
    <glyph glyph-name="parenright.cap" horiz-adv-x="909" 
d="M500 717q0 501 -422 971h280q207 -229 302.5 -479t95.5 -492q0 -240 -96.5 -490.5t-301.5 -480.5h-280q422 470 422 971z" />
    <glyph glyph-name="bracketleft.cap" horiz-adv-x="915" 
d="M186 -254v1942h625v-199h-385v-1544h385v-199h-625z" />
    <glyph glyph-name="bracketright.cap" horiz-adv-x="915" 
d="M729 1688v-1942h-625v199h385v1544h-385v199h625z" />
    <glyph glyph-name="braceleft.cap" horiz-adv-x="1093" 
d="M57 692v49l297 267q-6 36 -15 112t-9 84q-12 112 5.5 200.5t57 145.5t99.5 95t128.5 53.5t149.5 15.5q110 0 219 -31v-213h-2q-88 31 -180 31q-57 0 -100.5 -14t-79 -47.5t-50 -97t-4.5 -154.5q0 -5 6.5 -57.5t14.5 -116.5t10 -86l-252 -211l252 -211q-2 -22 -10 -86
t-14.5 -116.5t-6.5 -57.5q-8 -73 0.5 -128t29 -88.5t54 -53.5t69 -27.5t81.5 -7.5q103 0 180 30h2v-221q-109 -31 -219 -31q-81 0 -149.5 15.5t-128.5 53.5t-99.5 95t-57 145.5t-5.5 200.5q0 8 9 84.5t15 112.5z" />
    <glyph glyph-name="braceright.cap" horiz-adv-x="1093" 
d="M1036 741v-49l-297 -266q25 -159 25 -197q12 -112 -5.5 -200.5t-57 -145.5t-99.5 -95t-128.5 -53.5t-149.5 -15.5q-112 0 -220 31v213h2q88 -31 181 -31q57 0 100.5 14t78.5 47.5t49.5 97.5t4.5 155q0 5 -6.5 57.5t-14.5 116.5t-10 86l252 211l-252 211q2 22 10 86
t14.5 116.5t6.5 57.5q8 73 -0.5 128t-28.5 88.5t-53.5 53.5t-69 27.5t-81.5 7.5q-102 0 -181 -31h-2v221q109 31 220 31q81 0 149.5 -15.5t128.5 -53.5t99.5 -95t57 -145.5t5.5 -200.5q0 -37 -25 -196z" />
    <glyph glyph-name="at.cap" horiz-adv-x="2236" 
d="M1655 285q-221 0 -289 157q-148 -151 -332 -151q-135 0 -208.5 64t-73.5 167q0 101 65 166q119 119 510 141v27q0 145 -168 145q-178 0 -338 -118v190q172 107 365 107q173 0 258.5 -87.5t85.5 -246.5v-228q0 -87 34 -126t105 -39q195 0 195 356q0 105 -24 196.5
t-77 170.5t-131.5 135.5t-193.5 88.5t-258 32q-362 0 -570.5 -197t-208.5 -555q0 -336 192.5 -508t561.5 -172q174 0 315 33.5t279 99.5v-196q-110 -55 -270 -89t-326 -34q-239 0 -421.5 60.5t-300 173.5t-177 272t-59.5 360q0 216 72 392.5t201 295.5t311 183.5t399 64.5
q216 0 385 -59t277 -166.5t164 -254t56 -325.5q0 -111 -22.5 -203t-69 -166t-126.5 -115.5t-187 -41.5zM1081 442q71 0 136 30t110 75v151q-278 -22 -346 -90q-27 -27 -27 -69q0 -45 33.5 -71t93.5 -26z" />
    <glyph glyph-name="bullet.cap" horiz-adv-x="868" 
d="M434 444q-134 0 -210.5 79t-76.5 192v6q0 113 76.5 190.5t210.5 77.5q133 0 210 -77.5t77 -190.5v-6q0 -113 -77.5 -192t-209.5 -79z" />
    <glyph glyph-name="R_p" horiz-adv-x="2988" 
d="M240 0v1434h686q267 0 401.5 -123.5t134.5 -358.5q0 -176 -83.5 -291t-245.5 -159l380 -502h-299l-333 455h-389v-455h-252zM492 680h432q144 0 213 70.5t69 191.5q0 124 -68.5 194t-213.5 70h-432v-526zM1739 -397v1495h246l2 -144q159 174 383 174q103 0 194 -38
t160 -108t109 -177t40 -238q0 -127 -46 -238.5t-125 -190t-189 -124t-234 -45.5q-159 0 -288 76v-442h-252zM2259 184q163 0 262.5 102.5t99.5 266.5q0 175 -93.5 268.5t-241.5 93.5q-82 0 -160 -34.5t-135 -89.5v-508q63 -49 126 -74t142 -25z" />
    <glyph glyph-name="one.sup_alt" horiz-adv-x="970" 
d="M854 879v-160h-661v160h241v510h-248l25 161h428v-671h215z" />
    <glyph glyph-name="one.inf_alt" horiz-adv-x="970" 
d="M854 -238v-159h-661v159h241v510h-248l25 162h428v-672h215z" />
    <glyph glyph-name="zero.tab" horiz-adv-x="1482" 
d="M739 -33q-168 0 -295 56.5t-203.5 158.5t-114.5 235t-38 296q0 129 23.5 241t75 207t127.5 162t185 105t244 38q162 0 288 -56.5t204.5 -157.5t119 -235.5t40.5 -295.5t-41 -297t-120.5 -238.5t-206 -160.5t-288.5 -58zM743 195q198 0 295 134.5t97 385.5q0 250 -99 387
t-297 137t-294.5 -134.5t-96.5 -385.5t98.5 -387.5t296.5 -136.5z" />
    <glyph glyph-name="one.tab" horiz-adv-x="1482" 
d="M1362 221v-221h-1147v221h477v991h-477l33 222h696v-1213h418z" />
    <glyph glyph-name="two.tab" horiz-adv-x="1482" 
d="M147 0v229l488 367q222 166 262 199q110 92 138 163q14 37 14 80q0 91 -68.5 145t-208.5 54q-282 0 -567 -258h-2v264q256 223 573 223q260 0 399.5 -112t139.5 -295q0 -45 -6 -83.5t-23 -76.5t-33.5 -67.5t-53 -67.5t-64.5 -64.5t-85 -70.5t-98 -74t-118 -86l-326 -242
h811v-227h-1172z" />
    <glyph glyph-name="three.tab" horiz-adv-x="1482" 
d="M741 -33q-285 0 -561 131v246h2q137 -71 289 -112.5t262 -41.5q168 0 265.5 62t97.5 172q0 118 -129.5 171.5t-409.5 53.5h-72v137l492 420h-774l10 228h1112v-205l-491 -406q528 -46 528 -393q0 -141 -81 -247t-221.5 -161t-318.5 -55z" />
    <glyph glyph-name="four.tab" horiz-adv-x="1482" 
d="M938 0v315h-856v193l500 926h600v-902h239l-10 -217h-229v-315h-244zM367 532h571v674h-215z" />
    <glyph glyph-name="five.tab" horiz-adv-x="1482" 
d="M733 -33q-275 0 -551 117v246h2q306 -137 541 -137q95 0 165.5 21t108 57t55 76t17.5 85q0 80 -47 127q-48 48 -158 70t-368 22h-277l21 783h1009l11 -228h-791l-10 -332h121q275 0 424.5 -36.5t238.5 -126.5q96 -99 96 -271q0 -96 -40 -181t-114.5 -150.5t-191.5 -103.5
t-262 -38z" />
    <glyph glyph-name="six.tab" horiz-adv-x="1482" 
d="M758 -33q-141 0 -256.5 45t-200.5 132t-131.5 223t-46.5 311q0 193 57.5 345.5t157.5 248t230 145t280 49.5q224 0 432 -96v-235h-2q-134 60 -224 85t-198 25q-98 0 -179.5 -26t-147 -79.5t-104.5 -144.5t-46 -213q93 73 210.5 110.5t239.5 37.5q156 0 274 -47.5
t187.5 -147.5t69.5 -243q0 -159 -81 -279.5t-217 -183t-304 -62.5zM770 721q-200 0 -391 -135q4 -105 36.5 -184t87 -126t122.5 -69.5t149 -22.5q88 0 161.5 31t122 99t48.5 161q0 54 -18.5 97t-50 70.5t-75 45.5t-91 25.5t-101.5 7.5z" />
    <glyph glyph-name="seven.tab" horiz-adv-x="1482" 
d="M152 952v482h1198v-347l-688 -1087h-285l721 1141v71h-709v-260h-237z" />
    <glyph glyph-name="eight.tab" horiz-adv-x="1482" 
d="M743 -47q-306 0 -465 111.5t-159 302.5q0 253 303 356q-130 41 -200 123t-70 205q0 187 151.5 305.5t439.5 118.5q145 0 259 -33t185 -91.5t107.5 -134.5t36.5 -165q0 -123 -70 -205t-200 -123q303 -103 303 -356q0 -191 -157 -302.5t-464 -111.5zM743 813
q149 0 238.5 56.5t89.5 166.5q0 107 -87 168.5t-241 61.5q-158 0 -244.5 -60.5t-86.5 -169.5q0 -110 89.5 -166.5t241.5 -56.5zM743 162q171 0 264 61t93 170q0 111 -98 172.5t-259 61.5q-166 0 -263 -60t-97 -174q0 -110 93.5 -170.5t266.5 -60.5z" />
    <glyph glyph-name="nine.tab" horiz-adv-x="1482" 
d="M725 1466q141 0 256.5 -44.5t200.5 -131.5t131.5 -223t46.5 -311q0 -193 -57.5 -346t-157.5 -248.5t-230 -145t-280 -49.5q-224 0 -432 96v236h2q135 -60 224.5 -85.5t197.5 -25.5q98 0 179.5 26t147 79.5t104.5 144.5t46 213q-93 -73 -210.5 -110t-240.5 -37
q-156 0 -274 47.5t-187 147.5t-69 243q0 159 81 279.5t217 182.5t304 62zM377 958q0 -54 18.5 -96.5t50 -70t75 -45.5t91 -25.5t101.5 -7.5q200 0 391 135q-4 105 -36.5 184t-87 125.5t-122.5 69t-149 22.5q-88 0 -161.5 -31t-122 -99t-48.5 -161z" />
    <glyph glyph-name="dollar.tab" horiz-adv-x="1482" 
d="M629 -242v269q-220 32 -422 135v248h2q135 -79 296 -124.5t290 -45.5q136 0 210 47t74 131q0 82 -77 122.5t-302 84.5q-53 11 -91 19.5t-86.5 22.5t-83 29t-72 36t-62.5 47t-46.5 58t-31.5 73t-10 89q0 72 27 137.5t78.5 121t135 95t189.5 54.5v242h234v-240
q209 -23 385 -121v-250h-2q-116 74 -251.5 115t-250.5 41q-136 0 -210.5 -46t-74.5 -130q0 -25 8 -45t19.5 -34.5t35.5 -27.5t44 -21t57 -17.5t63 -15t74 -15.5t78 -17q61 -14 103.5 -25t97.5 -30t92 -38.5t76.5 -49t62.5 -63.5t38 -81t15 -102q0 -52 -12.5 -102.5
t-46.5 -105.5t-86 -97.5t-138.5 -73.5t-197.5 -39v-233z" />
    <glyph glyph-name="cent.tab" horiz-adv-x="1482" 
d="M676 -78v289q-193 37 -306.5 168.5t-113.5 327.5q0 193 120.5 335.5t317.5 182.5v241h230v-233q162 -13 286 -96v-230h-2q-163 119 -344 119q-168 0 -266 -86.5t-98 -232.5q0 -132 98 -215.5t266 -83.5q184 0 344 118h2v-229q-131 -84 -305 -98v-250z" />
    <glyph glyph-name="sterling.tab" horiz-adv-x="1482" 
d="M141 621l35 210h246l24 89q31 110 66 192.5t83.5 151.5t108.5 112t140 66.5t180 23.5q153 0 262 -61v-231h-2q-110 61 -240 61q-140 0 -216 -75t-130 -263l-18 -66h561v-210h-625l-114 -396h835v-225h-1157l180 621h-219z" />
    <glyph glyph-name="Euro.tab" horiz-adv-x="1482" 
d="M53 455l19 172h194q-2 25 -2 78t6 102h-180l16 172h199q70 217 246 348t448 131q199 0 365 -80v-237h-2q-192 98 -375 98q-158 0 -266 -68t-162 -192h539v-172h-582q-6 -50 -6 -100q0 -26 4 -80h584v-172h-545q49 -124 155.5 -192t270.5 -68q185 0 383 90h2v-238
q-79 -33 -185 -52.5t-208 -19.5q-116 0 -214.5 24t-173 66t-132.5 103t-95.5 132t-60.5 155h-242z" />
    <glyph glyph-name="yen.tab" horiz-adv-x="1482" 
d="M129 287l12 186h475v27l-84 147h-380l12 184h266l-340 603h277l366 -672h17l372 672h271l-342 -603h266l12 -184h-383l-82 -143v-31h475l15 -186h-490v-287h-248v287h-487z" />
    <glyph glyph-name="uni20B9.tab" horiz-adv-x="1482" 
d="M1333 827h-196q-27 -184 -157 -292.5t-341 -108.5h-70l633 -426h-371l-620 426v188h371q142 0 215.5 57t93.5 163h-680v184h680q-19 111 -100 165t-242 54h-338v197h1161l-10 -197h-340q89 -80 113 -213h206z" />
    <glyph glyph-name="period.tab" horiz-adv-x="741" 
d="M371 -23q-90 0 -140.5 52t-50.5 127v2q0 74 50.5 125t140.5 51q89 0 139.5 -51t50.5 -125v-2q0 -75 -51 -127t-139 -52z" />
    <glyph glyph-name="comma.tab" horiz-adv-x="741" 
d="M168 -301l98 637h342v-25l-301 -612h-139z" />
    <glyph glyph-name="colon.tab" horiz-adv-x="741" 
d="M371 705q-89 0 -140 52t-51 126v2q0 75 50.5 126.5t140.5 51.5q88 0 139 -52t51 -126v-2q0 -73 -51 -125.5t-139 -52.5zM371 -23q-90 0 -140.5 52t-50.5 127v2q0 74 50.5 125t140.5 51q89 0 139.5 -51t50.5 -125v-2q0 -75 -51 -127t-139 -52z" />
    <glyph glyph-name="semicolon.tab" horiz-adv-x="741" 
d="M420 705q-89 0 -140 52t-51 126v2q0 75 50.5 126.5t140.5 51.5q88 0 139 -52t51 -126v-2q0 -73 -51 -125.5t-139 -52.5zM160 -301l98 637h342v-25l-301 -612h-139z" />
    </font>
</defs>
</svg>
